<?xml version="1.0" standalone="no"?>
<!DOCTYPE svg PUBLIC "-//W3C//DTD SVG 1.1//EN" "http://www.w3.org/Graphics/SVG/1.1/DTD/svg11.dtd" >
<svg xmlns="http://www.w3.org/2000/svg" xmlns:xlink="http://www.w3.org/1999/xlink" version="1.1">
<metadata>
Created by FontForge 20201107 at Thu Apr 24 18:03:16 2025
 By 
(c) 2017, Forgotten Shapes GbR. All rights reserved.
</metadata>
<defs>
<font id="GerstnerProgrammFSL-Italic" horiz-adv-x="1318" >
  <font-face 
    font-family="Gerstner Programm FSL"
    font-weight="400"
    font-style="italic"
    font-stretch="normal"
    units-per-em="2048"
    panose-1="2 1 5 4 1 1 1 1 1 4"
    ascent="1518"
    descent="-530"
    x-height="987"
    cap-height="1446"
    bbox="-776 -530 2847 2126"
    underline-thickness="102"
    underline-position="-255"
    slope="-11"
    unicode-range="U+000D-FEFF"
  />
<missing-glyph horiz-adv-x="1071" 
d="M125 0v1446h821v-1446h-821zM233 109h605v1228h-605v-1228z" />
    <glyph glyph-name="f_f" unicode="ff" horiz-adv-x="1193" 
d="M690 0l178 842h-403l-178 -842h-181l179 842h-197l31 145h196l39 187q61 294 324 294q90 0 127 -10l-31 -147q-75 6 -80 6q-63 0 -103 -37t-59 -127l-34 -166h401l39 187q61 294 324 294q90 0 127 -10l-31 -147q-75 6 -80 6q-63 0 -103 -37t-59 -127l-35 -166h205
l-33 -145h-204l-179 -842h-180z" />
    <glyph glyph-name="f_f_i" unicode="ffi" horiz-adv-x="1632" 
d="M1223 0l209 987h182l-211 -987h-180zM1487 1241l43 205h182l-43 -205h-182zM690 0l178 842h-403l-178 -842h-181l179 842h-197l31 145h196l39 187q61 294 324 294q90 0 127 -10l-31 -147q-75 6 -80 6q-63 0 -103 -37t-59 -127l-34 -166h401l39 187q61 294 324 294
q90 0 127 -10l-31 -147q-75 6 -80 6q-63 0 -103 -37t-59 -127l-35 -166h205l-33 -145h-204l-179 -842h-180z" />
    <glyph glyph-name="f_f_l" unicode="ffl" horiz-adv-x="1632" 
d="M1225 0l307 1446h180l-307 -1446h-180zM690 0l178 842h-403l-178 -842h-181l179 842h-197l31 145h196l39 187q61 294 324 294q90 0 127 -10l-31 -147q-75 6 -80 6q-63 0 -103 -37t-59 -127l-34 -166h401l39 187q61 294 324 294q90 0 127 -10l-31 -147q-75 6 -80 6
q-63 0 -103 -37t-59 -127l-35 -166h205l-33 -145h-204l-179 -842h-180z" />
    <glyph glyph-name="f_i" unicode="fi" horiz-adv-x="1048" 
d="M106 0l179 842h-197l31 145h196l39 187q61 294 324 294q90 0 127 -10l-31 -147q-75 6 -80 6q-63 0 -103 -37t-59 -127l-34 -166h204l-32 -145h-205l-178 -842h-181zM639 0l209 987h182l-211 -987h-180zM903 1241l43 205h182l-43 -205h-182z" />
    <glyph glyph-name="f_l" unicode="fl" horiz-adv-x="1046" 
d="M106 0l179 842h-197l31 145h196l39 187q61 294 324 294q90 0 127 -10l-31 -147q-75 6 -80 6q-63 0 -103 -37t-59 -127l-34 -166h204l-32 -145h-205l-178 -842h-181zM639 0l307 1446h180l-307 -1446h-180z" />
    <glyph glyph-name=".notdef" horiz-adv-x="1071" 
d="M125 0v1446h821v-1446h-821zM233 109h605v1228h-605v-1228z" />
    <glyph glyph-name=".null" horiz-adv-x="0" 
 />
    <glyph glyph-name=".null" horiz-adv-x="0" 
 />
    <glyph glyph-name="uni000D" unicode="&#xd;" horiz-adv-x="446" 
 />
    <glyph glyph-name="space" unicode=" " horiz-adv-x="446" 
 />
    <glyph glyph-name="exclam" unicode="!" horiz-adv-x="505" 
d="M33 0l49 229h229l-47 -229h-231zM135 356l209 1090h223l-256 -1090h-176z" />
    <glyph glyph-name="quotedbl" unicode="&#x22;" horiz-adv-x="675" 
d="M190 858l125 588h148l-125 -588h-148zM489 858l125 588h148l-125 -588h-148z" />
    <glyph glyph-name="numbersign" unicode="#" 
d="M195 0l170 477h-312l31 148h332l71 198h-307l31 148h328l170 475h157l-170 -475h199l170 475h158l-170 -475h313l-31 -148h-336l-71 -198h309l-31 -148h-329l-170 -477h-156l170 477h-201l-170 -477h-155zM571 625h201l72 198h-201z" />
    <glyph glyph-name="dollar" unicode="$" 
d="M449 -195l34 164q-181 21 -299 123.5t-118 267.5q0 43 8 82l202 33q-6 -35 -6 -67q0 -114 70 -184.5t178 -88.5l113 529q-73 17 -126 34t-109 45.5t-90.5 63t-56.5 86t-22 115.5q0 111 48 201t130 147.5t184 89t216 35.5l35 159h110l-35 -163q197 -21 299.5 -133
t102.5 -277l-213 -37q0 124 -61 193t-162 88l-105 -488l82 -20q61 -15 107.5 -31t97 -44t83 -61.5t54 -84.5t21.5 -113q0 -101 -37.5 -185t-99 -140.5t-144 -96.5t-169.5 -59t-177 -21l-33 -162h-112zM737 637l-106 -506q106 6 189 41.5t135.5 106t52.5 167.5q0 35 -14.5 63
t-36 46.5t-57 34t-67 24.5t-77.5 19zM670 848l100 465q-62 -6 -119 -24.5t-107 -51.5t-80 -86t-30 -119q0 -36 18.5 -65.5t53.5 -51.5t73.5 -37t90.5 -30z" />
    <glyph glyph-name="percent" unicode="%" horiz-adv-x="1740" 
d="M512 778q68 0 125 61t87 146.5t30 167.5q0 80 -30.5 137.5t-90.5 57.5q-69 0 -126 -61t-86.5 -146.5t-29.5 -167.5q0 -81 30.5 -138t90.5 -57zM487 662q-81 0 -138 45t-82 111.5t-25 146.5q0 86 30.5 174.5t83.5 161t132.5 118t168.5 45.5q82 0 139.5 -45t82 -111.5
t24.5 -146.5q0 -87 -30.5 -175.5t-83 -160.5t-132.5 -117.5t-170 -45.5zM188 0l1287 1446h170l-1289 -1446h-168zM1206 98q68 0 125 61t87 146.5t30 167.5q0 80 -30.5 137.5t-90.5 57.5q-69 0 -126 -61t-86.5 -146.5t-29.5 -167.5q0 -81 30.5 -138t90.5 -57zM1182 -18
q-81 0 -138.5 45t-82.5 111.5t-25 146.5q0 69 19 140t56 135t87 114t116 80t138 30q82 0 139 -45t81.5 -111.5t24.5 -146.5q0 -87 -30.5 -175.5t-83 -160.5t-132 -117.5t-169.5 -45.5z" />
    <glyph glyph-name="ampersand" unicode="&#x26;" horiz-adv-x="1345" 
d="M707 0l159 756h-233q-157 0 -267 -110t-110 -277q0 -111 69.5 -170.5t188.5 -59.5q58 0 107 8l-31 -147q-76 -23 -156 -23q-170 0 -273.5 98t-103.5 275q0 385 385 502q-68 28 -111.5 91.5t-43.5 139.5q0 123 73.5 216t185.5 138.5t240 45.5q165 0 260 -75t95 -200
q0 -33 -11 -86l-40 -194h337l-36 -172h-336l-162 -756h-186zM674 928h229l41 194q6 24 6 49q0 150 -192 150q-65 0 -127 -26.5t-106 -82t-44 -127.5q0 -70 53 -113.5t140 -43.5z" />
    <glyph glyph-name="quotesingle" unicode="'" horiz-adv-x="374" 
d="M190 858l125 588h146l-125 -588h-146z" />
    <glyph glyph-name="parenleft" unicode="(" horiz-adv-x="563" 
d="M229 205q0 -150 29.5 -329.5t73.5 -332.5h-137q-66 163 -109 364t-43 359q0 145 41 297t118.5 302t174 290t221.5 291h137q-94 -131 -158 -229.5t-135.5 -229.5t-114 -246t-70.5 -255t-28 -281z" />
    <glyph glyph-name="parenright" unicode=")" horiz-adv-x="563" 
d="M336 784q0 150 -29.5 329.5t-73.5 332.5h138q66 -163 108.5 -364t42.5 -359q0 -145 -41 -297t-118.5 -302t-174 -290t-221.5 -291h-137q94 131 158 229.5t135.5 229.5t114 246t70.5 255t28 281z" />
    <glyph glyph-name="asterisk" unicode="*" horiz-adv-x="876" 
d="M227 827l230 215l-264 70l83 156l238 -107l41 285h166l-84 -283l289 107l18 -156l-291 -67l138 -220l-154 -96l-96 238l-201 -240z" />
    <glyph glyph-name="plus" unicode="+" 
d="M616 0v559h-542v154h542v559h152v-559h539v-154h-539v-559h-152z" />
    <glyph glyph-name="comma" unicode="," horiz-adv-x="448" 
d="M-176 -356l276 589h207l-327 -589h-156z" />
    <glyph glyph-name="hyphen" unicode="-" horiz-adv-x="841" 
d="M131 588l37 174h616l-39 -174h-614z" />
    <glyph glyph-name="period" unicode="." horiz-adv-x="454" 
d="M18 0l50 233h233l-49 -233h-234z" />
    <glyph glyph-name="slash" unicode="/" horiz-adv-x="821" 
d="M-41 0l817 1446h187l-813 -1446h-191z" />
    <glyph glyph-name="zero" unicode="0" horiz-adv-x="1280" 
d="M563 131q109 0 205.5 75.5t158.5 192.5t98 254t36 265q0 105 -23.5 191.5t-80.5 146t-140 59.5q-87 0 -167.5 -50t-139 -133t-103 -186t-66.5 -212.5t-22 -209.5q0 -77 14 -145.5t42.5 -125t76.5 -89.5t111 -33zM535 -35q-85 0 -155.5 32t-118.5 86t-81 126.5t-48 152
t-15 164.5q0 108 23.5 221t67 219t108.5 199.5t144 164t179 111t207 40.5q106 0 188 -49t130.5 -131t73 -180.5t24.5 -205.5q0 -131 -32.5 -265.5t-96.5 -256.5t-150.5 -218t-203 -153t-244.5 -57z" />
    <glyph glyph-name="one" unicode="1" horiz-adv-x="647" 
d="M190 0l232 1092h-262l35 157h63q119 0 179 40.5t85 156.5h166l-307 -1446h-191z" />
    <glyph glyph-name="two" unicode="2" horiz-adv-x="1159" 
d="M-31 0l43 201q55 28 96.5 50.5t120.5 68t141.5 84.5t144.5 96t144 109t126.5 116.5t106.5 125t68.5 128t26.5 131.5q0 95 -59.5 150t-165.5 55q-272 0 -356 -350l-191 45q27 116 87 207.5t139.5 148t170 86t185.5 29.5q179 0 287 -103t108 -256q0 -70 -21.5 -140.5
t-56 -132.5t-88.5 -126t-109 -116.5t-129 -109t-136 -98.5t-142 -90.5t-136 -80t-128 -70.5h764l-33 -158h-1008z" />
    <glyph glyph-name="three" unicode="3" horiz-adv-x="1177" 
d="M57 444l213 39q-8 -47 -8 -96q0 -125 71 -190.5t181 -65.5q142 0 250 91.5t108 234.5q0 98 -70.5 157.5t-205.5 59.5h-174l37 166h178q80 0 158.5 36t133 106.5t54.5 156.5q0 84 -61.5 130t-165.5 46q-75 0 -137.5 -26t-104 -70.5t-68 -96.5t-38.5 -110l-193 45
q14 67 54 136.5t106 136t170.5 109t228.5 42.5q185 0 299.5 -87t114.5 -237q0 -147 -108.5 -253.5t-272.5 -141.5q132 -22 200 -107.5t68 -193.5q0 -144 -82 -259t-214 -176t-285 -61q-87 0 -165.5 24.5t-141 71t-99.5 122t-37 169.5q0 42 6 92z" />
    <glyph glyph-name="four" unicode="4" horiz-adv-x="1169" 
d="M14 379l39 176l760 891h264l-194 -909h260l-33 -158h-260l-80 -379h-190l79 379h-645zM244 537h446l158 725z" />
    <glyph glyph-name="five" unicode="5" horiz-adv-x="1140" 
d="M45 350l205 43q3 -126 59 -194t168 -68q108 0 198.5 60.5t141.5 159t51 210.5q0 107 -55 177.5t-160 70.5q-62 0 -120 -21t-99.5 -54t-70.5 -66.5t-46 -65.5l-194 39l270 805h813l-37 -166h-651l-160 -459q41 52 141.5 101t213.5 49q88 0 157.5 -32t112.5 -86.5
t65.5 -123.5t22.5 -147q0 -166 -80.5 -308t-220.5 -225.5t-307 -83.5q-205 0 -309 105t-109 280z" />
    <glyph glyph-name="six" unicode="6" horiz-adv-x="1185" 
d="M1214 1145l-210 -41q-7 113 -53 162t-132 49q-79 0 -149.5 -39t-120 -98.5t-91 -139t-66 -150.5t-40.5 -143q47 86 155.5 147.5t235.5 61.5q165 0 266 -109.5t101 -273.5q0 -162 -74 -300.5t-208 -222t-298 -83.5q-105 0 -187 38.5t-131.5 104.5t-75 148.5t-25.5 175.5
q0 137 26.5 279t85 281t142 247t207.5 175t270 67q66 0 128 -20.5t114.5 -60t87.5 -105.5t42 -150zM547 131q101 0 186 61t131.5 158.5t46.5 204.5q0 108 -63.5 172t-163.5 64q-76 0 -146.5 -37t-118.5 -95t-77 -128t-29 -136q0 -115 64.5 -189.5t169.5 -74.5z" />
    <glyph glyph-name="seven" unicode="7" horiz-adv-x="1073" 
d="M287 0h-215q165 271 448 659.5t479 620.5h-806l38 166h1008l-37 -170q-185 -219 -469 -616t-446 -660z" />
    <glyph glyph-name="eight" unicode="8" horiz-adv-x="1189" 
d="M451 772q-88 28 -139.5 106t-51.5 169q0 85 39.5 163.5t109 138.5t172.5 96t222 36q99 0 176.5 -31t121.5 -81t66.5 -105.5t22.5 -112.5q0 -135 -93.5 -236t-236.5 -143q102 -33 168 -114t66 -197q0 -90 -43 -178.5t-119 -159.5t-191 -114.5t-247 -43.5
q-109 0 -195.5 31.5t-138.5 84.5t-78.5 117t-26.5 134q0 71 23.5 134t61.5 110.5t90.5 87t107 65.5t113.5 43zM256 350q0 -86 70 -152.5t198 -66.5q164 0 268.5 96t104.5 226q0 44 -13 82.5t-42 72.5t-82 54t-125 20q-90 0 -163.5 -29t-119.5 -76.5t-71 -106t-25 -120.5z
M455 1051q0 -35 11.5 -67.5t35 -62.5t67.5 -48.5t103 -18.5q73 0 135 26t101 67t61 88.5t22 92.5q0 75 -57.5 133t-165.5 58q-133 0 -223 -82.5t-90 -185.5z" />
    <glyph glyph-name="nine" unicode="9" horiz-adv-x="1175" 
d="M57 307l213 43q4 -117 51.5 -168t133.5 -51q83 0 155.5 40.5t123 101.5t93.5 146.5t68 161t45 158.5q-47 -88 -152.5 -150.5t-230.5 -62.5q-91 0 -164.5 33t-119 89.5t-69.5 127t-24 148.5q0 112 45 214.5t121 178t183 120t225 44.5q111 0 193.5 -36.5t129 -101
t68.5 -143.5t22 -174q0 -116 -20 -236.5t-58.5 -240.5t-101.5 -224.5t-142.5 -185.5t-188 -127.5t-232.5 -46.5q-68 0 -130.5 21t-114.5 62t-85 108t-37 151zM602 690q66 0 131.5 30t116.5 80t83 121t32 148q0 106 -62 176t-172 70q-143 0 -249.5 -113t-106.5 -272
q0 -104 65 -172t162 -68z" />
    <glyph glyph-name="colon" unicode=":" horiz-adv-x="458" 
d="M8 0l49 233h234l-49 -233h-234zM168 754l49 233h234l-50 -233h-233z" />
    <glyph glyph-name="semicolon" unicode=";" horiz-adv-x="516" 
d="M-147 -356l276 589h207l-328 -589h-155zM207 754l47 233h233l-49 -233h-231z" />
    <glyph glyph-name="less" unicode="&#x3c;" 
d="M31 610v154l1231 528v-155l-1043 -449l1043 -450v-156z" />
    <glyph glyph-name="equal" unicode="=" 
d="M68 403v150h1232v-150h-1232zM68 737v152h1232v-152h-1232z" />
    <glyph glyph-name="greater" unicode="&#x3e;" 
d="M143 82v156l1041 450l-1041 449v155l1231 -528v-154z" />
    <glyph glyph-name="question" unicode="?" horiz-adv-x="1097" 
d="M412 356l100 482q58 -4 98 -4q62 0 121.5 17t110 50t81.5 90t31 129q0 91 -65 143t-164 52q-120 0 -215 -70.5t-143 -210.5l-191 39q68 180 224.5 294t355.5 114q178 0 287.5 -93.5t109.5 -259.5q0 -126 -66.5 -225.5t-172 -154t-234.5 -66.5l-68 -326h-200zM322 0
l47 229h231l-49 -229h-229z" />
    <glyph glyph-name="at" unicode="@" horiz-adv-x="1599" 
d="M1284 301q24 -30 64 -70q-125 -126 -290 -196t-331 -70q-185 0 -326.5 83.5t-215.5 224.5t-74 315q0 180 75 346t199 285.5t290.5 190.5t344.5 71q256 0 426 -144t170 -376q0 -100 -28.5 -195t-76 -169.5t-109 -138t-128.5 -105t-134.5 -64.5t-125.5 -23q-52 0 -88.5 25
t-36.5 78q0 18 2 26q-57 -56 -132 -92.5t-145 -36.5q-106 0 -162.5 72.5t-56.5 177.5t47 216t124.5 201.5t188.5 149t228 58.5q73 0 124 -40.5t64 -123.5l70 127h129l-293 -563q-43 -77 -43 -121q0 -37 35 -37q73 0 150 55t135 138t95.5 185.5t37.5 192.5q0 188 -133 301
t-334 113q-158 0 -303 -64t-249.5 -170.5t-167 -250.5t-62.5 -297q0 -214 140.5 -362t362.5 -148q145 0 290.5 59t252.5 166zM678 399q70 0 145 50.5t130 122t90.5 150.5t35.5 136q0 66 -32.5 106t-96.5 40q-99 0 -194.5 -78.5t-151 -185t-55.5 -195.5q0 -65 35.5 -105.5
t93.5 -40.5z" />
    <glyph glyph-name="A" unicode="A" horiz-adv-x="1374" 
d="M-102 0l860 1446h264l246 -1446h-213l-70 428h-623l-249 -428h-215zM457 594h501l-108 676z" />
    <glyph glyph-name="B" unicode="B" horiz-adv-x="1372" 
d="M53 0l307 1446h621q175 0 282 -82t107 -231q0 -82 -32 -153t-82.5 -117.5t-107.5 -75.5t-112 -37q119 -17 184.5 -88t65.5 -181q0 -104 -34 -186.5t-92.5 -137t-140.5 -90.5t-173.5 -51.5t-196.5 -15.5h-596zM289 166h420q43 0 83.5 4.5t96 22.5t95.5 48t68.5 87.5
t28.5 134.5q0 61 -26 101.5t-74 59.5t-96 26t-113 7h-379zM428 827h365q52 0 100 7.5t98 26.5t87 49t60 79t23 111q0 87 -66.5 133.5t-158.5 46.5h-410z" />
    <glyph glyph-name="C" unicode="C" horiz-adv-x="1441" 
d="M1212 516l191 -37q-44 -103 -112 -193t-160 -163t-214 -115.5t-258 -42.5q-109 0 -200 31.5t-155 86.5t-108.5 130t-65.5 161t-21 181q0 182 63 349.5t174.5 295.5t277.5 204.5t359 76.5q116 0 211 -36.5t159 -101t102 -147.5t48 -180l-207 -43q-8 71 -30.5 130t-62 108
t-103.5 76.5t-146 27.5q-134 0 -254 -62t-203.5 -165t-132.5 -241t-49 -286q0 -90 21.5 -166t65.5 -136t118.5 -94t173.5 -34q77 0 148 22t126 58.5t102.5 87t81.5 104t60 113.5z" />
    <glyph glyph-name="D" unicode="D" horiz-adv-x="1480" 
d="M289 166h260q120 0 225 31.5t182 86.5t137.5 125.5t97.5 152t56 163t19 160.5q0 193 -111 294t-358 101h-271zM53 0l307 1446h482q99 0 188.5 -18t171.5 -59.5t141 -103.5t94.5 -156.5t35.5 -211.5q0 -159 -51 -302t-140 -250t-205.5 -185.5t-250.5 -119t-271 -40.5h-502
z" />
    <glyph glyph-name="E" unicode="E" horiz-adv-x="1218" 
d="M53 0l307 1446h963l-37 -166h-764l-94 -451h735l-35 -165h-737l-106 -498h782l-37 -166h-977z" />
    <glyph glyph-name="F" unicode="F" horiz-adv-x="1167" 
d="M53 0l307 1446h963l-35 -166h-766l-94 -444h719l-35 -166h-719l-143 -670h-197z" />
    <glyph glyph-name="G" unicode="G" horiz-adv-x="1507" 
d="M1114 0l39 180q-202 -215 -483 -215q-143 0 -253 45t-177 125t-100.5 182.5t-33.5 223.5q0 144 40 282.5t117 256.5t182 208t245 141.5t295 51.5q223 0 365.5 -104t185.5 -294l-213 -43q-31 130 -123.5 202.5t-232.5 72.5q-113 0 -216 -43t-181.5 -118t-137 -173
t-89 -211.5t-30.5 -228.5q0 -179 101 -294.5t280 -115.5q206 0 350 126.5t199 365.5h-461l35 165h653l-167 -788h-189z" />
    <glyph glyph-name="H" unicode="H" horiz-adv-x="1480" 
d="M53 0l307 1446h199l-131 -615h768l133 615h199l-309 -1446h-199l141 666h-770l-141 -666h-197z" />
    <glyph glyph-name="I" unicode="I" horiz-adv-x="512" 
d="M53 0l307 1446h199l-309 -1446h-197z" />
    <glyph glyph-name="J" unicode="J" horiz-adv-x="1146" 
d="M12 446l211 39q-14 -63 -14 -123q0 -112 57.5 -173.5t171.5 -61.5q137 0 230.5 88.5t122.5 226.5l215 1004h200l-215 -1010q-51 -237 -203 -354t-380 -117q-189 0 -297.5 96.5t-108.5 272.5q0 47 10 112z" />
    <glyph glyph-name="K" unicode="K" horiz-adv-x="1280" 
d="M53 0l307 1446h199l-139 -645l782 645h252l-838 -678l625 -768h-262l-576 721l-153 -721h-197z" />
    <glyph glyph-name="L" unicode="L" horiz-adv-x="1105" 
d="M53 0l307 1446h199l-274 -1280h735l-35 -166h-932z" />
    <glyph glyph-name="M" unicode="M" horiz-adv-x="1806" 
d="M53 0l307 1446h299l187 -1239l706 1239h301l-309 -1446h-188l264 1235l-700 -1235h-236l-180 1235l-264 -1235h-187z" />
    <glyph glyph-name="N" unicode="N" horiz-adv-x="1550" 
d="M53 0l307 1446h271l512 -1245l266 1245h186l-307 -1446h-287l-497 1243l-264 -1243h-187z" />
    <glyph glyph-name="O" unicode="O" horiz-adv-x="1556" 
d="M692 131q115 0 218.5 43t181 117.5t135 172.5t87 212.5t29.5 232.5q0 86 -22.5 158t-67.5 128.5t-119 88t-171 31.5q-115 0 -218.5 -42.5t-182 -117.5t-136 -173t-87.5 -212.5t-30 -232.5q0 -86 23 -158t68.5 -128t120 -88t171.5 -32zM676 -35q-122 0 -220 30.5t-163 83
t-109 125t-63 153t-19 171.5q0 139 39.5 277t117 259t182 214.5t244.5 148t294 54.5q122 0 220 -30.5t163 -83t108.5 -125t62.5 -153t19 -171.5q0 -139 -39.5 -277t-117 -259t-181.5 -214.5t-244 -148t-294 -54.5z" />
    <glyph glyph-name="P" unicode="P" horiz-adv-x="1280" 
d="M53 0l307 1446h603q184 0 288.5 -84.5t104.5 -235.5q0 -90 -20.5 -164t-54 -125t-81.5 -89.5t-97.5 -61t-108 -36.5t-107 -18.5t-99.5 -4.5h-405l-135 -627h-195zM418 797h387q32 0 58.5 2t63.5 9t66 19t60 34.5t51.5 53t33.5 77t13 104.5q0 85 -60 134.5t-182 49.5h-389
z" />
    <glyph glyph-name="Q" unicode="Q" horiz-adv-x="1568" 
d="M1284 -66l-139 185q-210 -154 -471 -154q-151 0 -264.5 46t-179 126.5t-97 178t-31.5 212.5q0 139 39.5 276.5t116.5 259t181.5 215t244.5 148t295 54.5q122 0 219.5 -30.5t162.5 -83t108 -125t62 -153t19 -171.5q0 -179 -67.5 -356.5t-188.5 -311.5l152 -191zM692 131
q114 0 217.5 42.5t181 117.5t135.5 173t87.5 212.5t29.5 232.5q0 86 -22.5 158t-67.5 128.5t-119.5 88t-172.5 31.5q-142 0 -266 -66t-207.5 -175t-131 -249t-47.5 -288q0 -86 22.5 -158t68 -128.5t120 -88t172.5 -31.5z" />
    <glyph glyph-name="R" unicode="R" horiz-adv-x="1372" 
d="M53 0l307 1446h603q211 0 309 -81.5t98 -244.5q0 -140 -87 -250.5t-232 -142.5q84 -19 131 -65t47 -132q0 -40 -8 -79l-47 -224q-13 -63 -13 -88q0 -73 47 -139h-221q-31 47 -31 109q0 25 13 92l47 217q6 40 6 71q0 80 -53.5 111t-161.5 31h-426l-135 -631h-193zM416 797
h422q142 0 234.5 83t92.5 224q0 82 -61.5 129t-185.5 47h-398z" />
    <glyph glyph-name="S" unicode="S" horiz-adv-x="1284" 
d="M49 442l203 33q-4 -46 -4 -65q0 -91 48 -156t121.5 -94t162.5 -29q83 0 157.5 19.5t134 57.5t94.5 99.5t35 138.5q0 35 -13.5 63t-34 46.5t-55 34.5t-65 25t-75.5 20l-133 31q-75 17 -126.5 32.5t-110.5 43.5t-95 62t-60 87t-24 119q0 94 34.5 172.5t93 133t137 92.5
t167 55.5t182.5 17.5q120 0 214.5 -32t153 -89t88.5 -131.5t30 -161.5l-209 -37q0 144 -82 214.5t-215 70.5q-65 0 -129.5 -16t-124 -48t-96.5 -88.5t-37 -128.5q0 -34 16.5 -62t41 -47t65 -36.5t75 -28t84.5 -22.5l150 -35q88 -21 149.5 -45.5t112.5 -63t76.5 -95
t25.5 -132.5q0 -102 -39 -187.5t-103.5 -142.5t-149.5 -96.5t-175 -57.5t-182 -18q-79 0 -153 14.5t-141.5 46.5t-117 79t-79 116t-29.5 152q0 29 6 69z" />
    <glyph glyph-name="T" unicode="T" horiz-adv-x="1155" 
d="M375 0l274 1280h-465l37 166h1116l-34 -166h-455l-275 -1280h-198z" />
    <glyph glyph-name="U" unicode="U" horiz-adv-x="1433" 
d="M147 510l199 936h197l-197 -936q-12 -56 -12 -127q0 -119 84 -185.5t233 -66.5q176 0 291.5 98t153.5 277l198 940h199l-199 -940q-56 -265 -229.5 -403t-427.5 -138q-235 0 -370.5 110t-135.5 292q0 65 16 143z" />
    <glyph glyph-name="V" unicode="V" horiz-adv-x="1327" 
d="M436 0l-227 1446h205l190 -1233l729 1233h201l-864 -1446h-234z" />
    <glyph glyph-name="W" unicode="W" horiz-adv-x="1980" 
d="M305 0l-88 1446h197l67 -1251l576 1251h274l39 -1251l602 1251h199l-709 -1446h-272l-35 1270l-575 -1270h-275z" />
    <glyph glyph-name="X" unicode="X" horiz-adv-x="1275" 
d="M-137 0l723 776l-336 670h227l256 -528l484 528h227l-627 -672l389 -774h-229l-309 633l-576 -633h-229z" />
    <glyph glyph-name="Y" unicode="Y" horiz-adv-x="1296" 
d="M440 0l144 672l-369 774h229l277 -619l551 619h227l-717 -784l-143 -662h-199z" />
    <glyph glyph-name="Z" unicode="Z" horiz-adv-x="1218" 
d="M-55 0l41 190l1069 1088h-809l37 168h1052l-37 -168l-1097 -1110h917l-37 -168h-1136z" />
    <glyph glyph-name="bracketleft" unicode="[" horiz-adv-x="591" 
d="M-49 -457l403 1903h412l-27 -139h-241l-346 -1624h243l-30 -140h-414z" />
    <glyph glyph-name="backslash" unicode="\" horiz-adv-x="782" 
d="M444 0l-198 1446h188l199 -1446h-189z" />
    <glyph glyph-name="bracketright" unicode="]" horiz-adv-x="591" 
d="M643 1446l-403 -1903h-412l27 140h241l346 1624h-243l30 139h414z" />
    <glyph glyph-name="asciicircum" unicode="^" 
d="M274 700l379 746h148l364 -746h-182l-260 541l-266 -541h-183z" />
    <glyph glyph-name="underscore" unicode="_" horiz-adv-x="1064" 
d="M-158 -256l23 109h1065l-25 -109h-1063z" />
    <glyph glyph-name="grave" unicode="`" horiz-adv-x="466" 
d="M211 1106l-109 352h195l68 -352h-154z" />
    <glyph glyph-name="a" unicode="a" horiz-adv-x="1017" 
d="M809 0h-184q3 69 14 131q-132 -156 -348 -156q-133 0 -205 74.5t-72 173.5q0 67 22 119.5t65 90.5t93.5 64t118.5 48q72 23 314 61q82 12 113.5 47.5t31.5 89.5q0 19 -6.5 37.5t-23 40.5t-54.5 35.5t-92 13.5q-221 0 -281 -208l-178 34q46 150 180.5 233t309.5 83
q57 0 112 -14t103.5 -42t78 -77t29.5 -113q0 -59 -24 -164l-80 -362q-34 -148 -37 -240zM563 467l-65 -12q-136 -25 -190 -51q-107 -50 -107 -152q0 -57 38.5 -96t112.5 -39q47 0 96 14t99 44.5t90 87t57 132.5l25 107q-38 -15 -156 -35z" />
    <glyph glyph-name="b" unicode="b" horiz-adv-x="1132" 
d="M18 0l306 1446h184l-127 -594q44 60 136 110t185 50q104 0 179.5 -33.5t117 -93t60 -129t18.5 -152.5q0 -107 -42.5 -218t-116 -202.5t-183.5 -150t-233 -58.5q-103 0 -182 56t-93 125l-30 -156h-179zM500 123q110 0 202 73t140.5 181t48.5 219q0 118 -57.5 193
t-163.5 75q-83 0 -156.5 -43.5t-122.5 -112.5t-77.5 -153t-28.5 -166q0 -121 59 -193.5t156 -72.5z" />
    <glyph glyph-name="c" unicode="c" horiz-adv-x="1036" 
d="M778 365l180 -35q-73 -157 -208.5 -256t-311.5 -99q-82 0 -147 21.5t-108.5 58.5t-72.5 90t-42 113t-13 129q0 113 43.5 225t118.5 201t185.5 144t234.5 55q94 0 168.5 -28.5t119.5 -78t70.5 -108t30.5 -125.5l-195 -39q-8 102 -58 167.5t-148 65.5q-83 0 -156 -44
t-122 -113.5t-77 -153.5t-28 -166q0 -117 53 -192.5t160 -75.5q108 0 189.5 69t133.5 175z" />
    <glyph glyph-name="d" unicode="d" horiz-adv-x="1132" 
d="M727 0l31 143q-49 -73 -144 -120.5t-178 -47.5q-85 0 -151.5 23.5t-108.5 62.5t-69.5 94t-38.5 113t-11 125q0 88 26 177.5t77 168t119.5 140t160 97.5t191.5 36q98 0 173 -48.5t97 -125.5l129 608h182l-307 -1446h-178zM461 121q110 0 200.5 74t137.5 182.5t47 220.5
q0 122 -57.5 195t-155.5 73q-111 0 -202.5 -72.5t-139 -180t-47.5 -220.5q0 -75 20.5 -134t71 -98.5t125.5 -39.5z" />
    <glyph glyph-name="e" unicode="e" horiz-adv-x="1036" 
d="M752 328l168 -37q-23 -53 -66.5 -106.5t-103 -101.5t-139 -78t-162.5 -30q-98 0 -175 31.5t-124 86t-71 124t-24 148.5q0 92 24.5 184t74 175t117 147.5t160.5 102.5t198 38q177 0 267.5 -100t90.5 -265q0 -88 -26 -198h-713q-10 -52 -10 -95q0 -105 54.5 -171t166.5 -66
q108 0 183 63.5t110 147.5zM281 590h526q6 34 6 69q0 90 -52.5 150.5t-156.5 60.5q-122 0 -209.5 -80t-113.5 -200z" />
    <glyph glyph-name="f" unicode="f" horiz-adv-x="610" 
d="M106 0l179 842h-197l31 145h196l39 187q61 294 324 294q90 0 127 -10l-31 -147q-75 6 -80 6q-63 0 -103 -37t-59 -127l-34 -166h204l-32 -145h-205l-178 -842h-181z" />
    <glyph glyph-name="g" unicode="g" horiz-adv-x="1130" 
d="M-23 -133l199 33q-2 -12 -2 -35q0 -201 209 -201q71 0 128 22.5t90 53t58.5 77.5t35.5 80.5t20 77.5l39 168q-53 -69 -146.5 -114t-175.5 -45q-85 0 -151 23.5t-107.5 61.5t-68.5 92t-37.5 110t-10.5 120q0 107 42 217t115 200t183 147t234 57q96 0 176 -51.5t98 -129.5
l33 156h174l-215 -1020q-94 -448 -545 -448q-174 0 -274 90.5t-101 257.5zM463 129q82 0 155 43t122 111t77.5 151.5t28.5 165.5q0 120 -58 193t-157 73q-108 0 -199 -70t-140.5 -177.5t-49.5 -221.5q0 -74 21 -132.5t72.5 -97t127.5 -38.5z" />
    <glyph glyph-name="h" unicode="h" horiz-adv-x="1069" 
d="M18 0l308 1446h182l-131 -617q32 68 127.5 125.5t218.5 57.5q119 0 196.5 -71t77.5 -191q0 -62 -28 -199l-119 -551h-182l116 549q27 132 27 164q0 69 -45.5 110t-120.5 41q-53 0 -109 -23t-98 -65q-53 -52 -81.5 -114t-55.5 -191l-100 -471h-183z" />
    <glyph glyph-name="i" unicode="i" horiz-adv-x="430" 
d="M20 0l209 987h183l-211 -987h-181zM283 1241l45 205h182l-45 -205h-182z" />
    <glyph glyph-name="j" unicode="j" horiz-adv-x="442" 
d="M-283 -465l33 152q56 -9 74 -9q82 0 121 41.5t53 110.5l244 1157h182l-248 -1165q-32 -154 -107.5 -227.5t-224.5 -73.5q-64 0 -127 14zM297 1241l43 205h182l-43 -205h-182z" />
    <glyph glyph-name="k" unicode="k" horiz-adv-x="995" 
d="M18 0l308 1446h180l-187 -873l521 414h233l-573 -442l444 -545h-235l-406 489l-106 -489h-179z" />
    <glyph glyph-name="l" unicode="l" horiz-adv-x="425" 
d="M18 0l308 1446h180l-307 -1446h-181z" />
    <glyph glyph-name="m" unicode="m" horiz-adv-x="1611" 
d="M20 0l209 987h179l-33 -160q30 68 119 126.5t200 58.5q93 0 158.5 -53t87.5 -148q44 82 135.5 141.5t204.5 59.5q112 0 187 -69.5t75 -184.5q0 -54 -33 -209l-116 -549h-181l125 588q17 87 17 125q0 153 -148 153q-106 0 -196 -100q-38 -44 -60 -93t-39 -128l-114 -545
h-181l125 588q17 87 17 127q0 151 -148 151q-110 0 -196 -100q-42 -48 -62 -101.5t-45 -168.5l-106 -496h-181z" />
    <glyph glyph-name="n" unicode="n" horiz-adv-x="1067" 
d="M20 0l209 987h181l-35 -158q34 68 128 125.5t214 57.5q124 0 201 -70.5t77 -191.5q0 -56 -30 -199l-117 -551h-180l114 549q27 123 27 170q0 70 -45.5 107.5t-124.5 37.5q-121 0 -207 -92q-51 -53 -76.5 -113.5t-52.5 -187.5l-102 -471h-181z" />
    <glyph glyph-name="o" unicode="o" horiz-adv-x="1083" 
d="M627 866q-81 0 -154 -43t-122.5 -111t-78 -151t-28.5 -164q0 -122 54 -199t159 -77q81 0 154 43t122.5 111t78 151t28.5 164q0 120 -54 198t-159 78zM643 1012q102 0 178 -34t120 -93.5t65.5 -132t21.5 -158.5q0 -111 -43.5 -222t-118.5 -199t-186.5 -143t-237.5 -55
q-102 0 -178.5 34t-121 93.5t-66 132.5t-21.5 158q0 87 27 176t79.5 168t123 141t163.5 98t195 36z" />
    <glyph glyph-name="p" unicode="p" horiz-adv-x="1140" 
d="M-78 -457l307 1444h179l-31 -143q49 72 147 120t181 48q84 0 150.5 -23.5t108.5 -62.5t69.5 -93.5t38.5 -112t11 -122.5q0 -90 -26 -179.5t-76.5 -169t-119 -141t-160.5 -97.5t-193 -36q-98 0 -175.5 49.5t-99.5 125.5l-129 -607h-182zM504 121q109 0 201 70.5t142 179
t50 223.5q0 75 -22 134.5t-73.5 98.5t-127.5 39q-110 0 -201 -74t-138.5 -182.5t-47.5 -220.5q0 -121 59.5 -194.5t157.5 -73.5z" />
    <glyph glyph-name="q" unicode="q" horiz-adv-x="1126" 
d="M618 -457l127 592q-44 -60 -136 -110t-185 -50q-83 0 -148 23.5t-106 62.5t-67.5 93t-37 110.5t-10.5 120.5q0 109 41 219.5t113 201.5t182 148.5t236 57.5q103 0 180.5 -56t91.5 -125l33 156h176l-305 -1444h-185zM457 121q83 0 156.5 44t122.5 113t77.5 153.5
t28.5 166.5q0 122 -58.5 195t-156.5 73q-110 0 -200 -71t-137.5 -179.5t-47.5 -226.5q0 -117 55 -192.5t160 -75.5z" />
    <glyph glyph-name="r" unicode="r" horiz-adv-x="684" 
d="M20 0l209 987h179l-37 -168q42 76 134.5 134.5t201.5 58.5q31 0 67 -6l-37 -183q-48 8 -94 8q-123 0 -229 -106q-76 -79 -119 -279l-94 -446h-181z" />
    <glyph glyph-name="s" unicode="s" horiz-adv-x="962" 
d="M12 309l193 41q-4 -36 -4 -51q0 -85 51.5 -133.5t148.5 -48.5q108 0 187.5 47.5t79.5 136.5q0 56 -41 81t-117 40l-123 27q-134 27 -198 83t-64 156q0 59 30 116.5t84.5 104t140.5 75t189 28.5q151 0 251.5 -77t103.5 -204q0 -19 -2 -29l-185 -34q2 14 2 41
q-2 73 -50 117t-140 44q-108 0 -174 -48t-66 -113q0 -83 137 -111l156 -33q61 -13 105 -29t81.5 -41.5t56.5 -65.5t19 -93q0 -115 -70.5 -199t-177 -123t-231.5 -39q-185 0 -281 85.5t-96 211.5q0 13 4 37z" />
    <glyph glyph-name="t" unicode="t" horiz-adv-x="624" 
d="M143 219l131 623h-190l31 145h190l70 326h180l-68 -326h209l-30 -145h-209l-123 -580q-6 -27 -6 -49q0 -41 21.5 -58.5t66.5 -17.5q48 0 100 10l-29 -145q-77 -16 -135 -16q-96 0 -156.5 40.5t-60.5 120.5q0 39 8 72z" />
    <glyph glyph-name="u" unicode="u" horiz-adv-x="1067" 
d="M102 436l119 551h180l-116 -549q-25 -114 -25 -170q0 -70 45.5 -107.5t124.5 -37.5q121 0 213 98q48 51 72 110t51 185l100 471h183l-209 -987h-183l35 158q-32 -67 -126.5 -125t-213.5 -58q-124 0 -201 71t-77 192q0 64 28 198z" />
    <glyph glyph-name="v" unicode="v" horiz-adv-x="966" 
d="M270 0l-149 987h186l117 -780l459 780h180l-580 -987h-213z" />
    <glyph glyph-name="w" unicode="w" horiz-adv-x="1517" 
d="M217 0l-100 987h182l72 -778l379 778h225l55 -778l402 778h178l-523 -987h-215l-53 782l-385 -782h-217z" />
    <glyph glyph-name="x" unicode="x" horiz-adv-x="901" 
d="M-104 0l456 514l-205 473h203l142 -346l290 346h203l-420 -475l217 -512h-200l-150 375l-332 -375h-204z" />
    <glyph glyph-name="y" unicode="y" horiz-adv-x="944" 
d="M-141 -469l35 158q47 -13 73 -13q137 0 195 103l114 201l-153 1007h188l111 -782l436 782h182l-735 -1278q-108 -188 -325 -188q-38 0 -121 10z" />
    <glyph glyph-name="z" unicode="z" horiz-adv-x="894" 
d="M-61 0l34 164l707 678h-522l30 145h746l-31 -139l-727 -701h598l-33 -147h-802z" />
    <glyph glyph-name="braceleft" unicode="{" horiz-adv-x="583" 
d="M379 -375l-17 -82q-321 8 -321 211q0 40 29 189l32 161q4 18 11.5 52.5t11 51.5t7 41.5t3.5 43.5q0 126 -104 164l16 78q39 13 69.5 33t52.5 49.5t37 54.5t27.5 68t19 69.5t17.5 77.5l35 162q25 114 55 184.5t83 119.5t129.5 69.5t193.5 23.5l-18 -82q-56 -13 -97 -35
t-68 -48t-47.5 -67t-33.5 -81.5t-27 -102.5l-33 -145q-34 -152 -61 -211q-59 -129 -189 -173q-8 -3 -16 -5q133 -45 133 -185q0 -56 -37 -225l-28 -135q-21 -93 -21 -141q0 -69 36.5 -114.5t119.5 -70.5z" />
    <glyph glyph-name="bar" unicode="|" horiz-adv-x="573" 
d="M205 -457v1903h164v-1903h-164z" />
    <glyph glyph-name="braceright" unicode="}" horiz-adv-x="581" 
d="M205 1364l16 82q322 -8 322 -211q0 -39 -29 -188l-33 -162q-3 -14 -11.5 -51.5t-11 -53t-6 -40.5t-3.5 -44q0 -126 104 -164l-16 -77q-33 -12 -61 -29.5t-47.5 -36t-36.5 -48t-27 -51.5t-21 -60t-16.5 -61.5t-14.5 -66.5l-34 -161q-25 -114 -55 -184.5t-83 -120
t-129.5 -70t-193.5 -23.5l18 82q56 13 97 35t68 48t47.5 67t33.5 81.5t27 102.5l32 145l12 52t12 48.5t14.5 49.5t16 44.5t20.5 44.5t25 38t31 37t37 29.5t45.5 27.5t53.5 19q-134 45 -134 184q0 56 37 225l29 135q20 88 20 142q0 69 -36 114t-119 70z" />
    <glyph glyph-name="asciitilde" unicode="~" 
d="M172 514l-88 16q42 165 139 247.5t215 82.5q70 0 139.5 -20t124 -49t106 -58t104.5 -49t100 -20q91 0 144 44t83 148l88 -18q-43 -164 -140 -246t-214 -82q-86 0 -172.5 31t-145.5 67.5t-129.5 67.5t-126.5 31q-92 0 -145 -44t-82 -149z" />
    <glyph glyph-name="uni00A0" unicode="&#xa0;" horiz-adv-x="446" 
 />
    <glyph glyph-name="exclamdown" unicode="&#xa1;" horiz-adv-x="505" 
d="M293 1217l49 229h229l-49 -229h-229zM37 0l256 1090h176l-209 -1090h-223z" />
    <glyph glyph-name="cent" unicode="&#xa2;" 
d="M385 -195l37 183q-120 34 -204 119.5t-122.5 198.5t-38.5 245q0 158 46 307.5t131 273t214.5 212t286.5 120.5l37 176h115l-35 -159q9 0 28 1t29 1q8 0 25.5 -1t26.5 -1l32 159h115l-37 -178q156 -43 243.5 -165.5t92.5 -280.5l-190 -43q-3 69 -21 127.5t-60 110
t-104 75.5l-237 -1120q61 22 115.5 61.5t95 88t70.5 99t50 103.5l179 -39q-43 -112 -113.5 -209t-184.5 -177t-251 -109l-37 -179h-113l33 162q-8 0 -25 -1t-26 -1q-22 0 -58 4l-32 -164h-113zM461 168l235 1112q-193 -76 -312.5 -280.5t-119.5 -448.5q0 -88 18.5 -161
t63.5 -133.5t115 -88.5zM674 133l252 1182q-14 2 -43 2q-26 0 -66 -4l-252 -1180q36 -4 58 -4q35 0 51 4z" />
    <glyph glyph-name="sterling" unicode="&#xa3;" 
d="M63 0l398 715h-273l37 170h332l168 307q154 276 440 276q77 0 140 -18l-39 -172q-16 5 -57 11.5t-72 6.5q-75 0 -134 -41t-96 -106l-145 -264h358l-35 -170h-417l-303 -545h753l-35 -170h-1020z" />
    <glyph glyph-name="currency" unicode="&#xa4;" 
d="M104 70l-94 125l183 153q-52 104 -52 219q0 119 49 232t132 190l-111 150l149 125l119 -156q156 106 330 106q180 0 295 -104l186 154l94 -125l-182 -154q49 -98 49 -219q0 -118 -47.5 -228.5t-130.5 -193.5l111 -149l-150 -125l-121 155q-153 -104 -327 -104
q-182 0 -295 102zM788 1051q-120 0 -230 -64.5t-177.5 -174t-67.5 -232.5q0 -132 82.5 -213.5t216.5 -81.5q118 0 226 64t175.5 173t67.5 232q0 132 -82 214.5t-211 82.5z" />
    <glyph glyph-name="yen" unicode="&#xa5;" 
d="M446 0l97 453h-424l22 112h426l23 107h-426l24 112h351l-291 662h227l252 -617l528 617h222l-588 -662h362l-24 -112h-439l-22 -107h438l-24 -112h-439l-96 -453h-199z" />
    <glyph glyph-name="brokenbar" unicode="&#xa6;" horiz-adv-x="571" 
d="M205 -457v797h164v-797h-164zM205 649v797h164v-797h-164z" />
    <glyph glyph-name="section" unicode="&#xa7;" horiz-adv-x="901" 
d="M111 -412l32 146q36 -8 99 -8q75 0 130.5 40t55.5 121q0 34 -15.5 73t-31.5 63.5t-50.5 71t-47.5 65.5l-109 157q-90 128 -90 267q0 236 278 356q-61 94 -61 205q0 95 54 173.5t140.5 120.5t184.5 42q79 0 127 -11l-31 -145q-39 8 -100 8q-75 0 -129.5 -40.5
t-54.5 -121.5q0 -28 7.5 -55.5t25.5 -57.5t31.5 -50t41 -56t39.5 -53l108 -158q89 -131 89 -266q0 -236 -279 -356q61 -94 61 -201q0 -140 -114.5 -240t-263.5 -100q-83 0 -127 10zM332 434l143 -201q78 18 127 77.5t49 142.5q0 84 -63 172l-146 200q-75 -15 -126.5 -70.5
t-51.5 -142.5q0 -83 68 -178z" />
    <glyph glyph-name="dieresis" unicode="&#xa8;" horiz-adv-x="872" 
d="M102 1169l45 215h209l-45 -215h-209zM512 1169l47 215h207l-45 -215h-209z" />
    <glyph glyph-name="copyright" unicode="&#xa9;" horiz-adv-x="1687" 
d="M1155 596l158 -29q-6 -44 -24.5 -88t-53 -88t-81 -77.5t-114.5 -54.5t-147 -21q-126 0 -232 65t-167.5 177t-61.5 245q0 134 63 246.5t168.5 176.5t229.5 64q91 0 166 -27t123.5 -72t79 -95.5t45.5 -106.5l-160 -30q-22 78 -83.5 129t-170.5 51q-128 0 -212.5 -95
t-84.5 -241t84.5 -241t212.5 -95q64 0 113.5 18.5t79 49.5t46.5 65.5t23 73.5zM201 723q0 -187 93 -346.5t252.5 -252.5t346.5 -93t346.5 93t252.5 252.5t93 346.5t-93 346.5t-252.5 252.5t-346.5 93t-346.5 -93t-252.5 -252.5t-93 -346.5zM135 723q0 154 60 294.5
t161.5 242t242 161.5t294.5 60t294.5 -60t242 -161.5t161.5 -242t60 -294.5t-60 -294.5t-161.5 -242t-242 -161.5t-294.5 -60t-294.5 60t-242 161.5t-161.5 242t-60 294.5z" />
    <glyph glyph-name="ordfeminine" unicode="&#xaa;" horiz-adv-x="737" 
d="M571 799q0 3 3.5 42t3.5 40q-75 -99 -220 -99q-89 0 -137.5 50t-48.5 116q0 60 24.5 104t70.5 71t97 42.5t119 24.5l90 12q54 7 74.5 27.5t20.5 58.5q0 30 -27.5 54t-87.5 24q-64 0 -110 -33t-66 -100l-123 22q28 78 94 131q40 39 101.5 60.5t125.5 21.5q54 0 100 -12.5
t82 -49.5t36 -95q0 -20 -15 -86l-55 -269q-27 -120 -27 -157h-125zM614 1047l17 79l-133 -22q-96 -15 -144.5 -44.5t-48.5 -90.5q0 -35 25.5 -60.5t64.5 -25.5q26 0 55 7t64 23t62.5 51t37.5 83z" />
    <glyph glyph-name="guillemotleft" unicode="&#xab;" horiz-adv-x="890" 
d="M102 600l33 156l402 260l-37 -174l-269 -168l197 -166l-37 -168zM451 600l32 156l400 260l-37 -174l-268 -168l198 -166l-37 -168z" />
    <glyph glyph-name="logicalnot" unicode="&#xac;" 
d="M80 575v154h1122v-629h-153v475h-969z" />
    <glyph glyph-name="uni00AD" unicode="&#xad;" horiz-adv-x="841" 
d="M131 588l37 174h616l-39 -174h-614z" />
    <glyph glyph-name="registered" unicode="&#xae;" horiz-adv-x="1030" 
d="M471 944v531h197q87 0 125 -13q38 -14 58.5 -47.5t20.5 -73.5q0 -53 -32.5 -85t-85.5 -42q41 -17 59 -41.5t27 -74.5q7 -48 10.5 -66.5t10.5 -41.5t18 -46h-91q-10 19 -16 44t-10 64.5t-6 49.5q-8 54 -39.5 71t-95.5 17h-72v-246h-78zM551 1253h125q119 0 119 84
q0 34 -27 58q-16 13 -39 16.5t-74 3.5h-104v-162zM289 1206q0 -155 110 -265t265 -110t264.5 110t109.5 265t-109.5 265t-264.5 110t-265 -110t-110 -265zM223 1206q0 183 129 312t312 129t311.5 -129t128.5 -312t-128.5 -311.5t-311.5 -128.5t-312 128.5t-129 311.5z" />
    <glyph glyph-name="macron" unicode="&#xaf;" horiz-adv-x="856" 
d="M102 1212l31 152h621l-33 -152h-619z" />
    <glyph glyph-name="degree" unicode="&#xb0;" horiz-adv-x="827" 
d="M539 897q88 0 150.5 61.5t62.5 149.5q0 89 -62.5 151t-150.5 62q-89 0 -151 -62t-62 -151q0 -88 62 -149.5t151 -61.5zM539 762q-145 0 -247 101.5t-102 244.5q0 145 102 246.5t247 101.5t246.5 -101.5t101.5 -246.5q0 -143 -102 -244.5t-246 -101.5z" />
    <glyph glyph-name="plusminus" unicode="&#xb1;" 
d="M78 719v153h504v433h151v-433h500v-153h-500v-434h-151v434h-504zM78 0v154h1155v-154h-1155z" />
    <glyph glyph-name="twosuperior" unicode="&#xb2;" horiz-adv-x="737" 
d="M199 1028l26 131q46 20 105 52t130 79.5t129 97.5t97 108t39 108q0 41 -24.5 66.5t-65.5 25.5q-130 0 -168 -174l-141 32q18 88 74 148.5t122 85t137 24.5q97 0 157.5 -53.5t60.5 -138.5q0 -238 -457 -475h373l-25 -117h-569z" />
    <glyph glyph-name="threesuperior" unicode="&#xb3;" horiz-adv-x="737" 
d="M242 1270l155 33q-4 -20 -4 -56q0 -56 27.5 -88.5t77.5 -32.5q71 0 119.5 44.5t48.5 105.5q0 39 -31.5 67.5t-102.5 28.5h-88l25 113h84q66 0 116 36t50 89q0 38 -27 62t-71 24q-67 0 -106 -42t-54 -108l-142 35q22 87 109 159t215 72q98 0 162.5 -48t64.5 -134
q0 -66 -50.5 -126.5t-135.5 -73.5q68 -8 98.5 -53t30.5 -97q0 -111 -98.5 -190.5t-239.5 -79.5q-101 0 -168 52t-67 159q0 33 2 49z" />
    <glyph glyph-name="acute" unicode="&#xb4;" horiz-adv-x="616" 
d="M102 1106l217 352h195l-258 -352h-154z" />
    <glyph glyph-name="mu" unicode="&#xb5;" horiz-adv-x="1110" 
d="M-57 -457l303 1444h184l-117 -555q-24 -109 -24 -166q0 -69 46.5 -106t123.5 -37q61 0 111 23t84 58.5t61 88.5t42.5 104t28.5 113l101 477h184l-209 -987h-182l35 156q-35 -65 -128 -123t-198 -58q-100 0 -162 54l-102 -486h-182z" />
    <glyph glyph-name="paragraph" unicode="&#xb6;" horiz-adv-x="1097" 
d="M176 -457l234 1092q-112 26 -180 121t-68 215q0 126 72 236.5t189 174.5t245 64h518l-23 -115h-71l-381 -1788h-119l379 1788h-295l-379 -1788h-121z" />
    <glyph glyph-name="periodcentered" unicode="&#xb7;" horiz-adv-x="471" 
d="M127 668q0 58 41.5 99.5t99.5 41.5q59 0 100.5 -41.5t41.5 -99.5t-41.5 -99t-100.5 -41t-100 41t-41 99z" />
    <glyph glyph-name="cedilla" unicode="&#xb8;" horiz-adv-x="536" 
d="M102 -473l21 100h67q47 0 86 30t39 79q0 31 -25 48t-63 17h-67l47 211h108l-24 -112q64 -4 103.5 -46t39.5 -104q0 -95 -76.5 -159t-183.5 -64h-72z" />
    <glyph glyph-name="onesuperior" unicode="&#xb9;" horiz-adv-x="737" 
d="M446 1028l115 545h-145l24 119h58q57 0 83.5 21t39.5 81h133l-162 -766h-146z" />
    <glyph glyph-name="ordmasculine" unicode="&#xba;" horiz-adv-x="765" 
d="M465 887q104 0 172 93t68 204q0 72 -36 126t-104 54q-71 0 -128.5 -46.5t-86 -114t-28.5 -136.5q0 -74 36 -127t107 -53zM442 780q-83 0 -142.5 42t-85.5 103t-26 132q0 73 29.5 146.5t80.5 132t127.5 95.5t162.5 37q81 0 140 -41.5t85.5 -103t26.5 -131.5
q0 -99 -50 -193.5t-143 -156.5t-205 -62z" />
    <glyph glyph-name="guillemotright" unicode="&#xbb;" horiz-adv-x="888" 
d="M86 340l37 174l268 168l-198 168l36 166l289 -258l-33 -156zM432 340l37 174l268 168l-196 168l34 166l291 -258l-35 -156z" />
    <glyph glyph-name="onequarter" unicode="&#xbc;" horiz-adv-x="1740" 
d="M332 680l114 545h-145l25 118h57q57 0 83.5 21.5t39.5 81.5h133l-162 -766h-145zM150 0l1286 1446h170l-1289 -1446h-167zM911 188l25 115l401 463h181l-99 -461h144l-27 -117h-141l-41 -188h-140l39 188h-342zM1090 305h188l70 313z" />
    <glyph glyph-name="onehalf" unicode="&#xbd;" horiz-adv-x="1740" 
d="M340 680l115 545h-146l25 118h57q57 0 83.5 21.5t39.5 81.5h133l-162 -766h-145zM158 0l1286 1446h170l-1288 -1446h-168zM899 0l27 131q60 26 137.5 71t162 106t142 133t57.5 134q0 42 -24.5 67.5t-65.5 25.5q-130 0 -168 -174l-141 32q18 88 74.5 148.5t122.5 85
t137 24.5q97 0 157 -53.5t60 -138.5q0 -238 -457 -475h373l-25 -117h-569z" />
    <glyph glyph-name="threequarters" unicode="&#xbe;" horiz-adv-x="1740" 
d="M186 922l156 32q-4 -20 -4 -55q0 -56 27 -88.5t77 -32.5q71 0 119.5 44.5t48.5 105.5q0 39 -31 67.5t-102 28.5h-88l25 113h84q66 0 116 36t50 89q0 38 -27.5 62t-71.5 24q-124 0 -159 -150l-142 35q22 87 109 159t215 72q98 0 162.5 -48t64.5 -134q0 -66 -50.5 -127
t-135.5 -74q68 -8 98.5 -52.5t30.5 -96.5q0 -111 -98.5 -190.5t-239.5 -79.5q-102 0 -169 51.5t-67 158.5q0 34 2 50zM207 0l1286 1446h170l-1288 -1446h-168zM969 188l24 115l402 463h180l-98 -461h143l-27 -117h-141l-41 -188h-139l39 188h-342zM1147 305h188l70 313z" />
    <glyph glyph-name="questiondown" unicode="&#xbf;" horiz-adv-x="1091" 
d="M516 764l68 326h200l-102 -482q-58 4 -96 4q-62 0 -121.5 -17t-110 -50t-81.5 -90t-31 -129q0 -91 65 -143t164 -52q120 0 215 70.5t143 210.5l189 -39q-66 -180 -222.5 -294t-355.5 -114q-179 0 -288 93.5t-109 258.5q0 95 38.5 176.5t104 137t150.5 90t180 43.5z
M596 1217l49 229h229l-47 -229h-231z" />
    <glyph glyph-name="Agrave" unicode="&#xc0;" horiz-adv-x="1374" 
d="M-102 0l860 1446h264l246 -1446h-213l-70 428h-623l-249 -428h-215zM457 594h501l-108 676zM836 1565l-109 352h195l67 -352h-153z" />
    <glyph glyph-name="Aacute" unicode="&#xc1;" horiz-adv-x="1374" 
d="M-102 0l860 1446h264l246 -1446h-213l-70 428h-623l-249 -428h-215zM457 594h501l-108 676zM827 1565l217 352h195l-258 -352h-154z" />
    <glyph glyph-name="Acircumflex" unicode="&#xc2;" horiz-adv-x="1374" 
d="M-102 0l860 1446h264l246 -1446h-213l-70 428h-623l-249 -428h-215zM457 594h501l-108 676zM573 1565l340 352h160l193 -352h-170l-125 243l-230 -243h-168z" />
    <glyph glyph-name="Atilde" unicode="&#xc3;" horiz-adv-x="1374" 
d="M-102 0l860 1446h264l246 -1446h-213l-70 428h-623l-249 -428h-215zM457 594h501l-108 676zM621 1608l38 176q38 32 90.5 54t96.5 22q60 0 149 -39q7 -3 23.5 -9.5t25.5 -10t22 -7.5t24 -6t22 -2q91 0 191 104l-39 -176q-40 -34 -92.5 -56t-98.5 -22q-13 0 -27 2t-24.5 4
t-26 7t-22 7.5t-24.5 9.5t-23 9q-10 3 -29.5 10.5t-30.5 11.5t-27 7.5t-30 3.5q-92 0 -188 -100z" />
    <glyph glyph-name="Adieresis" unicode="&#xc4;" horiz-adv-x="1374" 
d="M-102 0l860 1446h264l246 -1446h-213l-70 428h-623l-249 -428h-215zM457 594h501l-108 676zM627 1628l45 215h209l-45 -215h-209zM1036 1628l47 215h207l-45 -215h-209z" />
    <glyph glyph-name="Aring" unicode="&#xc5;" horiz-adv-x="1374" 
d="M-102 0l856 1438q-45 48 -45 118q0 96 75 164t170 68q70 0 116 -49.5t46 -118.5q0 -107 -94 -180l246 -1440h-213l-70 428h-623l-249 -428h-215zM457 594h501l-108 676zM891 1477q54 0 94.5 38.5t40.5 92.5q0 38 -25.5 65t-64.5 27q-54 0 -94.5 -39.5t-40.5 -91.5
q0 -38 25.5 -65t64.5 -27z" />
    <glyph glyph-name="AE" unicode="&#xc6;" horiz-adv-x="1916" 
d="M-129 0l1198 1446h952l-36 -166h-658l-96 -451h631l-35 -165h-631l-106 -498h675l-36 -166h-875l111 512h-449l-416 -512h-229zM655 682h344l125 575z" />
    <glyph glyph-name="Ccedilla" unicode="&#xc7;" horiz-adv-x="1441" 
d="M479 -473l21 100h67q47 0 86 30t39 79q0 31 -25 48t-63 17h-67l36 170q-115 13 -205 66t-145.5 133t-84.5 177.5t-29 207.5q0 182 63 349.5t174.5 295.5t277.5 204.5t359 76.5q116 0 211 -36.5t159 -101t102 -147.5t48 -180l-207 -43q-8 71 -30.5 130t-62 108
t-103.5 76.5t-146 27.5q-134 0 -254 -62t-203.5 -165t-132.5 -241t-49 -286q0 -90 21.5 -166t65.5 -136t118.5 -94t173.5 -34q77 0 148 22t126 58.5t102.5 87t81.5 104t60 113.5l191 -37q-43 -102 -109 -190t-155 -160.5t-207 -116t-250 -47.5l-14 -65q64 -4 103.5 -46
t39.5 -104q0 -95 -76.5 -159t-183.5 -64h-72z" />
    <glyph glyph-name="Egrave" unicode="&#xc8;" horiz-adv-x="1218" 
d="M53 0l307 1446h963l-37 -166h-764l-94 -451h735l-35 -165h-737l-106 -498h782l-37 -166h-977zM782 1565l-108 352h194l68 -352h-154z" />
    <glyph glyph-name="Eacute" unicode="&#xc9;" horiz-adv-x="1218" 
d="M53 0l307 1446h963l-37 -166h-764l-94 -451h735l-35 -165h-737l-106 -498h782l-37 -166h-977zM774 1565l217 352h195l-258 -352h-154z" />
    <glyph glyph-name="Ecircumflex" unicode="&#xca;" horiz-adv-x="1218" 
d="M53 0l307 1446h963l-37 -166h-764l-94 -451h735l-35 -165h-737l-106 -498h782l-37 -166h-977zM520 1565l340 352h160l192 -352h-170l-124 243l-230 -243h-168z" />
    <glyph glyph-name="Edieresis" unicode="&#xcb;" horiz-adv-x="1218" 
d="M53 0l307 1446h963l-37 -166h-764l-94 -451h735l-35 -165h-737l-106 -498h782l-37 -166h-977zM573 1628l45 215h209l-45 -215h-209zM983 1628l47 215h207l-45 -215h-209z" />
    <glyph glyph-name="Igrave" unicode="&#xcc;" horiz-adv-x="512" 
d="M53 0l307 1446h199l-309 -1446h-197zM406 1565l-109 352h195l67 -352h-153z" />
    <glyph glyph-name="Iacute" unicode="&#xcd;" horiz-adv-x="512" 
d="M53 0l307 1446h199l-309 -1446h-197zM397 1565l217 352h195l-258 -352h-154z" />
    <glyph glyph-name="Icircumflex" unicode="&#xce;" horiz-adv-x="512" 
d="M207 1565l272 352h168l154 -352h-156l-100 243l-185 -243h-153zM53 0l307 1446h199l-309 -1446h-197z" />
    <glyph glyph-name="Idieresis" unicode="&#xcf;" horiz-adv-x="512" 
d="M53 0l307 1446h199l-309 -1446h-197zM197 1628l45 215h209l-45 -215h-209zM606 1628l47 215h207l-45 -215h-209z" />
    <glyph glyph-name="Eth" unicode="&#xd0;" horiz-adv-x="1515" 
d="M88 711l27 129h151l129 606h482q99 0 188.5 -18t171 -59.5t141 -103.5t94.5 -156.5t35 -211.5q0 -159 -51 -302t-140 -250t-205 -185.5t-250 -119t-271 -40.5h-502l150 711h-150zM326 166h260q142 0 263.5 45t203 119t139.5 168.5t84.5 193t26.5 193.5q0 192 -112 293.5
t-360 101.5h-270l-94 -440h440l-28 -129h-439z" />
    <glyph glyph-name="Ntilde" unicode="&#xd1;" horiz-adv-x="1550" 
d="M53 0l307 1446h271l512 -1245l266 1245h186l-307 -1446h-287l-497 1243l-264 -1243h-187zM709 1608l39 176q38 32 90 54t96 22q60 0 149 -39q7 -3 23.5 -9.5t25.5 -10t22 -7.5t24 -6t22 -2q91 0 191 104l-39 -176q-40 -34 -92.5 -56t-98.5 -22q-13 0 -27 2t-24.5 4t-26 7
t-22 7.5t-24.5 9.5t-23 9q-10 3 -29.5 10.5t-30.5 11.5t-27 7.5t-30 3.5q-92 0 -188 -100z" />
    <glyph glyph-name="Ograve" unicode="&#xd2;" horiz-adv-x="1556" 
d="M692 131q115 0 218.5 43t181 117.5t135 172.5t87 212.5t29.5 232.5q0 86 -22.5 158t-67.5 128.5t-119 88t-171 31.5q-115 0 -218.5 -42.5t-182 -117.5t-136 -173t-87.5 -212.5t-30 -232.5q0 -86 23 -158t68.5 -128t120 -88t171.5 -32zM676 -35q-122 0 -220 30.5t-163 83
t-109 125t-63 153t-19 171.5q0 139 39.5 277t117 259t182 214.5t244.5 148t294 54.5q122 0 220 -30.5t163 -83t108.5 -125t62.5 -153t19 -171.5q0 -139 -39.5 -277t-117 -259t-181.5 -214.5t-244 -148t-294 -54.5zM926 1565l-109 352h195l67 -352h-153z" />
    <glyph glyph-name="Oacute" unicode="&#xd3;" horiz-adv-x="1556" 
d="M692 131q115 0 218.5 43t181 117.5t135 172.5t87 212.5t29.5 232.5q0 86 -22.5 158t-67.5 128.5t-119 88t-171 31.5q-115 0 -218.5 -42.5t-182 -117.5t-136 -173t-87.5 -212.5t-30 -232.5q0 -86 23 -158t68.5 -128t120 -88t171.5 -32zM676 -35q-122 0 -220 30.5t-163 83
t-109 125t-63 153t-19 171.5q0 139 39.5 277t117 259t182 214.5t244.5 148t294 54.5q122 0 220 -30.5t163 -83t108.5 -125t62.5 -153t19 -171.5q0 -139 -39.5 -277t-117 -259t-181.5 -214.5t-244 -148t-294 -54.5zM918 1565l217 352h194l-258 -352h-153z" />
    <glyph glyph-name="Ocircumflex" unicode="&#xd4;" horiz-adv-x="1556" 
d="M692 131q115 0 218.5 43t181 117.5t135 172.5t87 212.5t29.5 232.5q0 86 -22.5 158t-67.5 128.5t-119 88t-171 31.5q-115 0 -218.5 -42.5t-182 -117.5t-136 -173t-87.5 -212.5t-30 -232.5q0 -86 23 -158t68.5 -128t120 -88t171.5 -32zM676 -35q-122 0 -220 30.5t-163 83
t-109 125t-63 153t-19 171.5q0 139 39.5 277t117 259t182 214.5t244.5 148t294 54.5q122 0 220 -30.5t163 -83t108.5 -125t62.5 -153t19 -171.5q0 -139 -39.5 -277t-117 -259t-181.5 -214.5t-244 -148t-294 -54.5zM664 1565l340 352h159l193 -352h-170l-125 243l-230 -243
h-167z" />
    <glyph glyph-name="Otilde" unicode="&#xd5;" horiz-adv-x="1556" 
d="M692 131q115 0 218.5 43t181 117.5t135 172.5t87 212.5t29.5 232.5q0 86 -22.5 158t-67.5 128.5t-119 88t-171 31.5q-115 0 -218.5 -42.5t-182 -117.5t-136 -173t-87.5 -212.5t-30 -232.5q0 -86 23 -158t68.5 -128t120 -88t171.5 -32zM676 -35q-122 0 -220 30.5t-163 83
t-109 125t-63 153t-19 171.5q0 139 39.5 277t117 259t182 214.5t244.5 148t294 54.5q122 0 220 -30.5t163 -83t108.5 -125t62.5 -153t19 -171.5q0 -139 -39.5 -277t-117 -259t-181.5 -214.5t-244 -148t-294 -54.5zM711 1608l39 176q38 32 90 54t96 22q60 0 149 -39
q7 -3 23.5 -9.5t25.5 -10t22 -7.5t24 -6t22 -2q91 0 191 104l-39 -176q-40 -34 -92.5 -56t-98.5 -22q-13 0 -27 2t-24.5 4t-26 7t-22 7.5t-24.5 9.5t-23 9q-10 3 -29.5 10.5t-30.5 11.5t-27 7.5t-30 3.5q-92 0 -188 -100z" />
    <glyph glyph-name="Odieresis" unicode="&#xd6;" horiz-adv-x="1556" 
d="M692 131q115 0 218.5 43t181 117.5t135 172.5t87 212.5t29.5 232.5q0 86 -22.5 158t-67.5 128.5t-119 88t-171 31.5q-115 0 -218.5 -42.5t-182 -117.5t-136 -173t-87.5 -212.5t-30 -232.5q0 -86 23 -158t68.5 -128t120 -88t171.5 -32zM676 -35q-122 0 -220 30.5t-163 83
t-109 125t-63 153t-19 171.5q0 139 39.5 277t117 259t182 214.5t244.5 148t294 54.5q122 0 220 -30.5t163 -83t108.5 -125t62.5 -153t19 -171.5q0 -139 -39.5 -277t-117 -259t-181.5 -214.5t-244 -148t-294 -54.5zM717 1628l45 215h209l-45 -215h-209zM1126 1628l48 215h206
l-45 -215h-209z" />
    <glyph glyph-name="multiply" unicode="&#xd7;" 
d="M125 178l459 461l-465 467l106 106l467 -467l459 459l109 -108l-459 -459l469 -469l-109 -109l-469 469l-459 -458z" />
    <glyph glyph-name="Oslash" unicode="&#xd8;" horiz-adv-x="1562" 
d="M-16 0l206 197q-84 134 -84 331q0 139 39.5 276.5t116.5 259t181.5 215t244 148t293.5 54.5q265 0 416 -144l112 109h164l-205 -197q86 -140 86 -331q0 -139 -39.5 -277t-117 -259t-181.5 -214.5t-244 -148t-294 -54.5q-265 0 -416 144l-117 -109h-161zM348 344l901 858
q-98 113 -284 113q-143 0 -267 -66t-207 -175t-130.5 -249t-47.5 -288q0 -116 35 -193zM1311 1102l-901 -856q97 -115 284 -115q115 0 218.5 42.5t182 117.5t136 173t87.5 212.5t30 232.5q0 109 -37 193z" />
    <glyph glyph-name="Ugrave" unicode="&#xd9;" horiz-adv-x="1433" 
d="M147 510l199 936h197l-197 -936q-12 -56 -12 -127q0 -119 84 -185.5t233 -66.5q176 0 291.5 98t153.5 277l198 940h199l-199 -940q-56 -265 -229.5 -403t-427.5 -138q-235 0 -370.5 110t-135.5 292q0 65 16 143zM836 1565l-109 352h195l67 -352h-153z" />
    <glyph glyph-name="Uacute" unicode="&#xda;" horiz-adv-x="1433" 
d="M147 510l199 936h197l-197 -936q-12 -56 -12 -127q0 -119 84 -185.5t233 -66.5q176 0 291.5 98t153.5 277l198 940h199l-199 -940q-56 -265 -229.5 -403t-427.5 -138q-235 0 -370.5 110t-135.5 292q0 65 16 143zM827 1565l217 352h195l-258 -352h-154z" />
    <glyph glyph-name="Ucircumflex" unicode="&#xdb;" horiz-adv-x="1433" 
d="M147 510l199 936h197l-197 -936q-12 -56 -12 -127q0 -119 84 -185.5t233 -66.5q176 0 291.5 98t153.5 277l198 940h199l-199 -940q-56 -265 -229.5 -403t-427.5 -138q-235 0 -370.5 110t-135.5 292q0 65 16 143zM573 1565l340 352h160l193 -352h-170l-125 243l-230 -243
h-168z" />
    <glyph glyph-name="Udieresis" unicode="&#xdc;" horiz-adv-x="1433" 
d="M147 510l199 936h197l-197 -936q-12 -56 -12 -127q0 -119 84 -185.5t233 -66.5q176 0 291.5 98t153.5 277l198 940h199l-199 -940q-56 -265 -229.5 -403t-427.5 -138q-235 0 -370.5 110t-135.5 292q0 65 16 143zM627 1628l45 215h209l-45 -215h-209zM1036 1628l47 215
h207l-45 -215h-209z" />
    <glyph glyph-name="Yacute" unicode="&#xdd;" horiz-adv-x="1296" 
d="M440 0l144 672l-369 774h229l277 -619l551 619h227l-717 -784l-143 -662h-199zM768 1565l217 352h195l-258 -352h-154z" />
    <glyph glyph-name="Thorn" unicode="&#xde;" horiz-adv-x="1282" 
d="M53 0l307 1446h195l-45 -213h408q184 0 288.5 -85t104.5 -237q0 -90 -20.5 -163.5t-54 -124t-81.5 -89t-97.5 -61t-108 -36.5t-107 -18.5t-99.5 -4.5h-405l-90 -414h-195zM373 582h387q32 0 58.5 2t63.5 9t66 19t60 34.5t51.5 53.5t33.5 78t13 105q0 83 -60.5 132.5
t-183.5 49.5h-387z" />
    <glyph glyph-name="germandbls" unicode="&#xdf;" horiz-adv-x="1112" 
d="M20 0l222 1057q43 204 171 314t328 110q175 0 264 -83t89 -200q0 -126 -76.5 -213t-204.5 -119q118 -28 176 -110.5t58 -202.5q0 -168 -77 -298.5t-208.5 -199.5t-294.5 -69q-79 0 -148 14l33 160q73 -15 113 -15q161 0 274 117t113 283q0 110 -75.5 172.5t-209.5 62.5
h-78l33 154h70q125 0 217 66t92 180q0 66 -47.5 107.5t-138.5 41.5q-110 0 -186.5 -72t-100.5 -184l-229 -1073h-179z" />
    <glyph glyph-name="agrave" unicode="&#xe0;" horiz-adv-x="1017" 
d="M809 0h-184q3 69 14 131q-132 -156 -348 -156q-133 0 -205 74.5t-72 173.5q0 67 22 119.5t65 90.5t93.5 64t118.5 48q72 23 314 61q82 12 113.5 47.5t31.5 89.5q0 19 -6.5 37.5t-23 40.5t-54.5 35.5t-92 13.5q-221 0 -281 -208l-178 34q46 150 180.5 233t309.5 83
q57 0 112 -14t103.5 -42t78 -77t29.5 -113q0 -59 -24 -164l-80 -362q-34 -148 -37 -240zM563 467l-65 -12q-136 -25 -190 -51q-107 -50 -107 -152q0 -57 38.5 -96t112.5 -39q47 0 96 14t99 44.5t90 87t57 132.5l25 107q-38 -15 -156 -35zM545 1106l-109 352h195l67 -352
h-153z" />
    <glyph glyph-name="aacute" unicode="&#xe1;" horiz-adv-x="1017" 
d="M809 0h-184q3 69 14 131q-132 -156 -348 -156q-133 0 -205 74.5t-72 173.5q0 67 22 119.5t65 90.5t93.5 64t118.5 48q72 23 314 61q82 12 113.5 47.5t31.5 89.5q0 19 -6.5 37.5t-23 40.5t-54.5 35.5t-92 13.5q-221 0 -281 -208l-178 34q46 150 180.5 233t309.5 83
q57 0 112 -14t103.5 -42t78 -77t29.5 -113q0 -59 -24 -164l-80 -362q-34 -148 -37 -240zM563 467l-65 -12q-136 -25 -190 -51q-107 -50 -107 -152q0 -57 38.5 -96t112.5 -39q47 0 96 14t99 44.5t90 87t57 132.5l25 107q-38 -15 -156 -35zM539 1110l217 352h194l-258 -352
h-153z" />
    <glyph glyph-name="acircumflex" unicode="&#xe2;" horiz-adv-x="1017" 
d="M809 0h-184q3 69 14 131q-132 -156 -348 -156q-133 0 -205 74.5t-72 173.5q0 67 22 119.5t65 90.5t93.5 64t118.5 48q72 23 314 61q82 12 113.5 47.5t31.5 89.5q0 19 -6.5 37.5t-23 40.5t-54.5 35.5t-92 13.5q-221 0 -281 -208l-178 34q46 150 180.5 233t309.5 83
q57 0 112 -14t103.5 -42t78 -77t29.5 -113q0 -59 -24 -164l-80 -362q-34 -148 -37 -240zM563 467l-65 -12q-136 -25 -190 -51q-107 -50 -107 -152q0 -57 38.5 -96t112.5 -39q47 0 96 14t99 44.5t90 87t57 132.5l25 107q-38 -15 -156 -35zM276 1106l340 352h160l193 -352
h-170l-125 244l-230 -244h-168z" />
    <glyph glyph-name="atilde" unicode="&#xe3;" horiz-adv-x="1017" 
d="M809 0h-184q3 69 14 131q-132 -156 -348 -156q-133 0 -205 74.5t-72 173.5q0 67 22 119.5t65 90.5t93.5 64t118.5 48q72 23 314 61q82 12 113.5 47.5t31.5 89.5q0 19 -6.5 37.5t-23 40.5t-54.5 35.5t-92 13.5q-221 0 -281 -208l-178 34q46 150 180.5 233t309.5 83
q57 0 112 -14t103.5 -42t78 -77t29.5 -113q0 -59 -24 -164l-80 -362q-34 -148 -37 -240zM563 467l-65 -12q-136 -25 -190 -51q-107 -50 -107 -152q0 -57 38.5 -96t112.5 -39q47 0 96 14t99 44.5t90 87t57 132.5l25 107q-38 -15 -156 -35zM317 1149l39 176q38 32 90.5 54
t96.5 22q60 0 149 -39q7 -3 23.5 -9.5t25.5 -10t22 -7.5t24 -6t22 -2q89 0 190 105l-38 -177q-39 -33 -92 -55t-99 -22q-13 0 -27 2t-24.5 4t-26 7t-22 7.5t-24.5 9.5t-23 9q-9 3 -29 10.5t-31 11t-27 7t-30 3.5q-93 0 -189 -100z" />
    <glyph glyph-name="adieresis" unicode="&#xe4;" horiz-adv-x="1017" 
d="M809 0h-184q3 69 14 131q-132 -156 -348 -156q-133 0 -205 74.5t-72 173.5q0 67 22 119.5t65 90.5t93.5 64t118.5 48q72 23 314 61q82 12 113.5 47.5t31.5 89.5q0 19 -6.5 37.5t-23 40.5t-54.5 35.5t-92 13.5q-221 0 -281 -208l-178 34q46 150 180.5 233t309.5 83
q57 0 112 -14t103.5 -42t78 -77t29.5 -113q0 -59 -24 -164l-80 -362q-34 -148 -37 -240zM563 467l-65 -12q-136 -25 -190 -51q-107 -50 -107 -152q0 -57 38.5 -96t112.5 -39q47 0 96 14t99 44.5t90 87t57 132.5l25 107q-38 -15 -156 -35zM326 1169l45 215h209l-45 -215h-209
zM735 1169l47 215h207l-45 -215h-209z" />
    <glyph glyph-name="aring" unicode="&#xe5;" horiz-adv-x="1017" 
d="M809 0h-184q3 69 14 131q-132 -156 -348 -156q-133 0 -205 74.5t-72 173.5q0 67 22 119.5t65 90.5t93.5 64t118.5 48q72 23 314 61q82 12 113.5 47.5t31.5 89.5q0 19 -6.5 37.5t-23 40.5t-54.5 35.5t-92 13.5q-221 0 -281 -208l-178 34q46 150 180.5 233t309.5 83
q57 0 112 -14t103.5 -42t78 -77t29.5 -113q0 -59 -24 -164l-80 -362q-34 -148 -37 -240zM563 467l-65 -12q-136 -25 -190 -51q-107 -50 -107 -152q0 -57 38.5 -96t112.5 -39q47 0 96 14t99 44.5t90 87t57 132.5l25 107q-38 -15 -156 -35zM645 1182q54 0 94.5 38.5t40.5 92.5
q0 38 -25.5 65t-64.5 27q-54 0 -94.5 -39.5t-40.5 -91.5q0 -38 25.5 -65t64.5 -27zM625 1094q-70 0 -116 49.5t-46 118.5q0 96 75.5 163.5t170.5 67.5q70 0 115.5 -49.5t45.5 -118.5q0 -97 -75 -164t-170 -67z" />
    <glyph glyph-name="ae" unicode="&#xe6;" horiz-adv-x="1660" 
d="M317 662l-176 34q38 107 135 195q66 59 155 90t185 31q224 0 291 -154q148 154 353 154q92 0 161.5 -31t110 -85.5t60.5 -121t20 -143.5q0 -69 -25 -182h-706q-15 -46 -15 -111q0 -100 51 -160.5t168 -60.5q105 0 178.5 63t110.5 148l166 -37q-49 -122 -186 -219
t-295 -97q-124 0 -208.5 56t-119.5 153q-148 -209 -426 -209q-133 0 -211 75.5t-78 178.5q0 86 37 152t94.5 104.5t139 63t159 33t164.5 8.5h119l16 74q9 52 9 59q0 65 -41.5 106t-124.5 41q-100 0 -171.5 -52t-99.5 -156zM680 375l14 74h-141q-44 0 -85 -4t-91 -16.5
t-86 -33.5t-61 -59.5t-25 -89.5q0 -59 41 -93t108 -34q33 0 68.5 7t77 25t76 46t63 74t41.5 104zM911 590h519q8 50 8 76q0 87 -51 145.5t-156 58.5q-119 0 -206.5 -80.5t-113.5 -199.5z" />
    <glyph glyph-name="ccedilla" unicode="&#xe7;" horiz-adv-x="1036" 
d="M266 -473l21 100h67q47 0 86 30t39 79q0 31 -25 48t-63 17h-67l38 181q-158 21 -232.5 130t-74.5 275q0 113 43.5 225t118.5 201t185.5 144t234.5 55q94 0 168.5 -28.5t119.5 -78t70.5 -108t30.5 -125.5l-195 -39q-8 102 -58 167.5t-148 65.5q-83 0 -156 -44t-122 -113.5
t-77 -153.5t-28 -166q0 -117 53 -192.5t160 -75.5q108 0 189.5 69t133.5 175l180 -35q-70 -150 -196.5 -247t-290.5 -106l-16 -77q64 -4 103.5 -46t39.5 -104q0 -95 -76.5 -159t-183.5 -64h-72z" />
    <glyph glyph-name="egrave" unicode="&#xe8;" horiz-adv-x="1036" 
d="M752 328l168 -37q-23 -53 -66.5 -106.5t-103 -101.5t-139 -78t-162.5 -30q-98 0 -175 31.5t-124 86t-71 124t-24 148.5q0 92 24.5 184t74 175t117 147.5t160.5 102.5t198 38q177 0 267.5 -100t90.5 -265q0 -88 -26 -198h-713q-10 -52 -10 -95q0 -105 54.5 -171t166.5 -66
q108 0 183 63.5t110 147.5zM281 590h526q6 34 6 69q0 90 -52.5 150.5t-156.5 60.5q-122 0 -209.5 -80t-113.5 -200zM549 1106l-109 352h195l67 -352h-153z" />
    <glyph glyph-name="eacute" unicode="&#xe9;" horiz-adv-x="1036" 
d="M752 328l168 -37q-23 -53 -66.5 -106.5t-103 -101.5t-139 -78t-162.5 -30q-98 0 -175 31.5t-124 86t-71 124t-24 148.5q0 92 24.5 184t74 175t117 147.5t160.5 102.5t198 38q177 0 267.5 -100t90.5 -265q0 -88 -26 -198h-713q-10 -52 -10 -95q0 -105 54.5 -171t166.5 -66
q108 0 183 63.5t110 147.5zM281 590h526q6 34 6 69q0 90 -52.5 150.5t-156.5 60.5q-122 0 -209.5 -80t-113.5 -200zM543 1110l217 352h194l-258 -352h-153z" />
    <glyph glyph-name="ecircumflex" unicode="&#xea;" horiz-adv-x="1036" 
d="M752 328l168 -37q-23 -53 -66.5 -106.5t-103 -101.5t-139 -78t-162.5 -30q-98 0 -175 31.5t-124 86t-71 124t-24 148.5q0 92 24.5 184t74 175t117 147.5t160.5 102.5t198 38q177 0 267.5 -100t90.5 -265q0 -88 -26 -198h-713q-10 -52 -10 -95q0 -105 54.5 -171t166.5 -66
q108 0 183 63.5t110 147.5zM281 590h526q6 34 6 69q0 90 -52.5 150.5t-156.5 60.5q-122 0 -209.5 -80t-113.5 -200zM281 1106l340 352h159l193 -352h-170l-125 244l-229 -244h-168z" />
    <glyph glyph-name="edieresis" unicode="&#xeb;" horiz-adv-x="1036" 
d="M752 328l168 -37q-23 -53 -66.5 -106.5t-103 -101.5t-139 -78t-162.5 -30q-98 0 -175 31.5t-124 86t-71 124t-24 148.5q0 92 24.5 184t74 175t117 147.5t160.5 102.5t198 38q177 0 267.5 -100t90.5 -265q0 -88 -26 -198h-713q-10 -52 -10 -95q0 -105 54.5 -171t166.5 -66
q108 0 183 63.5t110 147.5zM281 590h526q6 34 6 69q0 90 -52.5 150.5t-156.5 60.5q-122 0 -209.5 -80t-113.5 -200zM330 1169l45 215h209l-45 -215h-209zM739 1169l47 215h207l-45 -215h-209z" />
    <glyph glyph-name="igrave" unicode="&#xec;" horiz-adv-x="430" 
d="M20 0l209 987h183l-211 -987h-181zM264 1106l-108 352h194l68 -352h-154z" />
    <glyph glyph-name="iacute" unicode="&#xed;" horiz-adv-x="430" 
d="M20 0l209 987h183l-211 -987h-181zM258 1110l217 352h195l-258 -352h-154z" />
    <glyph glyph-name="icircumflex" unicode="&#xee;" horiz-adv-x="430" 
d="M45 1106l272 352h168l154 -352h-156l-100 244l-184 -244h-154zM20 0l209 987h183l-211 -987h-181z" />
    <glyph glyph-name="idieresis" unicode="&#xef;" horiz-adv-x="430" 
d="M20 0l209 987h183l-211 -987h-181zM45 1169l45 215h209l-45 -215h-209zM455 1169l47 215h207l-45 -215h-209z" />
    <glyph glyph-name="eth" unicode="&#xf0;" horiz-adv-x="1089" 
d="M461 1071l-8 86l288 88q-55 96 -106 164l164 74q63 -89 114 -189l213 64l11 -88l-185 -53q90 -210 90 -443q0 -123 -20 -235.5t-66 -216.5t-114 -180t-172 -121.5t-232 -45.5q-73 0 -133.5 18.5t-101 51.5t-70.5 73.5t-46.5 88t-24 91t-7.5 87.5q0 113 42 224.5t116 201
t185.5 145.5t238.5 56q67 0 132.5 -33t98.5 -86q-14 116 -84 274zM473 121q70 0 131 31.5t103.5 84t73.5 118.5t46 135t15 135q0 70 -21 120t-55.5 75t-68 35.5t-68.5 10.5q-113 0 -203.5 -72.5t-137 -180.5t-46.5 -224q0 -48 11.5 -92t36 -85t72 -66t111.5 -25z" />
    <glyph glyph-name="ntilde" unicode="&#xf1;" horiz-adv-x="1067" 
d="M20 0l209 987h181l-35 -158q34 68 128 125.5t214 57.5q124 0 201 -70.5t77 -191.5q0 -56 -30 -199l-117 -551h-180l114 549q27 123 27 170q0 70 -45.5 107.5t-124.5 37.5q-121 0 -207 -92q-51 -53 -76.5 -113.5t-52.5 -187.5l-102 -471h-181zM344 1149l39 176
q38 32 90 54t96 22q61 0 150 -39q7 -3 23.5 -9.5t25.5 -10t22 -7.5t24 -6t22 -2q89 0 190 105l-39 -177q-40 -33 -92 -55t-98 -22q-13 0 -27.5 2t-24 4t-26 7.5l-22.5 7.5t-25.5 9.5t-22.5 8.5q-9 3 -29 10.5t-31 11t-27 7t-30 3.5q-92 0 -188 -100z" />
    <glyph glyph-name="ograve" unicode="&#xf2;" horiz-adv-x="1083" 
d="M627 866q-81 0 -154 -43t-122.5 -111t-78 -151t-28.5 -164q0 -122 54 -199t159 -77q81 0 154 43t122.5 111t78 151t28.5 164q0 120 -54 198t-159 78zM643 1012q102 0 178 -34t120 -93.5t65.5 -132t21.5 -158.5q0 -111 -43.5 -222t-118.5 -199t-186.5 -143t-237.5 -55
q-102 0 -178.5 34t-121 93.5t-66 132.5t-21.5 158q0 87 27 176t79.5 168t123 141t163.5 98t195 36zM590 1106l-109 352h195l67 -352h-153z" />
    <glyph glyph-name="oacute" unicode="&#xf3;" horiz-adv-x="1083" 
d="M627 866q-81 0 -154 -43t-122.5 -111t-78 -151t-28.5 -164q0 -122 54 -199t159 -77q81 0 154 43t122.5 111t78 151t28.5 164q0 120 -54 198t-159 78zM643 1012q102 0 178 -34t120 -93.5t65.5 -132t21.5 -158.5q0 -111 -43.5 -222t-118.5 -199t-186.5 -143t-237.5 -55
q-102 0 -178.5 34t-121 93.5t-66 132.5t-21.5 158q0 87 27 176t79.5 168t123 141t163.5 98t195 36zM584 1110l217 352h194l-258 -352h-153z" />
    <glyph glyph-name="ocircumflex" unicode="&#xf4;" horiz-adv-x="1083" 
d="M627 866q-81 0 -154 -43t-122.5 -111t-78 -151t-28.5 -164q0 -122 54 -199t159 -77q81 0 154 43t122.5 111t78 151t28.5 164q0 120 -54 198t-159 78zM643 1012q102 0 178 -34t120 -93.5t65.5 -132t21.5 -158.5q0 -111 -43.5 -222t-118.5 -199t-186.5 -143t-237.5 -55
q-102 0 -178.5 34t-121 93.5t-66 132.5t-21.5 158q0 87 27 176t79.5 168t123 141t163.5 98t195 36zM322 1106l340 352h159l193 -352h-170l-125 244l-230 -244h-167z" />
    <glyph glyph-name="otilde" unicode="&#xf5;" horiz-adv-x="1083" 
d="M627 866q-81 0 -154 -43t-122.5 -111t-78 -151t-28.5 -164q0 -122 54 -199t159 -77q81 0 154 43t122.5 111t78 151t28.5 164q0 120 -54 198t-159 78zM643 1012q102 0 178 -34t120 -93.5t65.5 -132t21.5 -158.5q0 -111 -43.5 -222t-118.5 -199t-186.5 -143t-237.5 -55
q-102 0 -178.5 34t-121 93.5t-66 132.5t-21.5 158q0 87 27 176t79.5 168t123 141t163.5 98t195 36zM362 1149l39 176q38 32 90.5 54t96.5 22q60 0 149 -39q7 -3 23.5 -9.5t25.5 -10t22 -7.5t24 -6t22 -2q89 0 190 105l-38 -177q-39 -33 -92 -55t-99 -22q-13 0 -27 2t-24.5 4
t-26 7t-22 7.5t-24.5 9.5t-23 9q-9 3 -29 10.5t-31 11t-27 7t-30 3.5q-93 0 -189 -100z" />
    <glyph glyph-name="odieresis" unicode="&#xf6;" horiz-adv-x="1083" 
d="M627 866q-81 0 -154 -43t-122.5 -111t-78 -151t-28.5 -164q0 -122 54 -199t159 -77q81 0 154 43t122.5 111t78 151t28.5 164q0 120 -54 198t-159 78zM643 1012q102 0 178 -34t120 -93.5t65.5 -132t21.5 -158.5q0 -111 -43.5 -222t-118.5 -199t-186.5 -143t-237.5 -55
q-102 0 -178.5 34t-121 93.5t-66 132.5t-21.5 158q0 87 27 176t79.5 168t123 141t163.5 98t195 36zM371 1169l45 215h209l-45 -215h-209zM780 1169l47 215h207l-45 -215h-209z" />
    <glyph glyph-name="divide" unicode="&#xf7;" 
d="M555 203q0 59 38.5 98t96.5 39t97.5 -39t39.5 -98q0 -57 -39.5 -96t-97.5 -39t-96.5 39t-38.5 96zM74 559v154h1233v-154h-1233zM555 1075q0 59 38.5 98t96.5 39t97.5 -39t39.5 -98q0 -57 -39.5 -96t-97.5 -39t-96.5 39t-38.5 96z" />
    <glyph glyph-name="oslash" unicode="&#xf8;" horiz-adv-x="1093" 
d="M-57 0l170 158q-52 96 -52 235q0 109 43.5 219.5t118.5 199t186.5 144.5t237.5 56q177 0 277 -103l86 78h147l-174 -162q51 -99 51 -231q0 -112 -43.5 -222.5t-118.5 -198.5t-187 -143t-239 -55q-174 0 -274 103l-82 -78h-147zM262 293l531 493q-57 80 -160 80
q-81 0 -154 -43t-122.5 -111t-78 -151t-28.5 -164q0 -55 12 -104zM834 688l-531 -491q53 -76 160 -76q81 0 154 43t122.5 111t78 151t28.5 164q0 54 -12 98z" />
    <glyph glyph-name="ugrave" unicode="&#xf9;" horiz-adv-x="1067" 
d="M102 436l119 551h180l-116 -549q-25 -114 -25 -170q0 -70 45.5 -107.5t124.5 -37.5q121 0 213 98q48 51 72 110t51 185l100 471h183l-209 -987h-183l35 158q-32 -67 -126.5 -125t-213.5 -58q-124 0 -201 71t-77 192q0 64 28 198zM561 1106l-108 352h194l68 -352h-154z
" />
    <glyph glyph-name="uacute" unicode="&#xfa;" horiz-adv-x="1067" 
d="M102 436l119 551h180l-116 -549q-25 -114 -25 -170q0 -70 45.5 -107.5t124.5 -37.5q121 0 213 98q48 51 72 110t51 185l100 471h183l-209 -987h-183l35 158q-32 -67 -126.5 -125t-213.5 -58q-124 0 -201 71t-77 192q0 64 28 198zM555 1110l217 352h195l-258 -352h-154z
" />
    <glyph glyph-name="ucircumflex" unicode="&#xfb;" horiz-adv-x="1067" 
d="M102 436l119 551h180l-116 -549q-25 -114 -25 -170q0 -70 45.5 -107.5t124.5 -37.5q121 0 213 98q48 51 72 110t51 185l100 471h183l-209 -987h-183l35 158q-32 -67 -126.5 -125t-213.5 -58q-124 0 -201 71t-77 192q0 64 28 198zM293 1106l340 352h160l192 -352h-170
l-125 244l-229 -244h-168z" />
    <glyph glyph-name="udieresis" unicode="&#xfc;" horiz-adv-x="1067" 
d="M102 436l119 551h180l-116 -549q-25 -114 -25 -170q0 -70 45.5 -107.5t124.5 -37.5q121 0 213 98q48 51 72 110t51 185l100 471h183l-209 -987h-183l35 158q-32 -67 -126.5 -125t-213.5 -58q-124 0 -201 71t-77 192q0 64 28 198zM342 1169l45 215h209l-45 -215h-209z
M752 1169l47 215h207l-45 -215h-209z" />
    <glyph glyph-name="yacute" unicode="&#xfd;" horiz-adv-x="944" 
d="M-141 -469l35 158q47 -13 73 -13q137 0 195 103l114 201l-153 1007h188l111 -782l436 782h182l-735 -1278q-108 -188 -325 -188q-38 0 -121 10zM518 1110l217 352h195l-258 -352h-154z" />
    <glyph glyph-name="thorn" unicode="&#xfe;" horiz-adv-x="1140" 
d="M-78 -457l404 1903h182l-125 -600q50 72 143.5 119t178.5 47q84 0 150.5 -23.5t108.5 -62.5t69.5 -93.5t38.5 -112t11 -122.5q0 -90 -26 -179.5t-76.5 -169t-119 -141t-160.5 -97.5t-193 -36q-98 0 -175.5 49.5t-99.5 125.5l-129 -607h-182zM504 121q109 0 201 70.5
t142 179t50 223.5q0 75 -22 134.5t-73.5 98.5t-127.5 39q-110 0 -201 -74t-138.5 -182.5t-47.5 -220.5q0 -121 59.5 -194.5t157.5 -73.5z" />
    <glyph glyph-name="ydieresis" unicode="&#xff;" horiz-adv-x="944" 
d="M-141 -469l35 158q47 -13 73 -13q137 0 195 103l114 201l-153 1007h188l111 -782l436 782h182l-735 -1278q-108 -188 -325 -188q-38 0 -121 10zM305 1169l45 215h209l-45 -215h-209zM715 1169l47 215h207l-45 -215h-209z" />
    <glyph glyph-name="Amacron" unicode="&#x100;" horiz-adv-x="1374" 
d="M-102 0l860 1446h264l246 -1446h-213l-70 428h-623l-249 -428h-215zM457 594h501l-108 676zM614 1671l31 152h621l-33 -152h-619z" />
    <glyph glyph-name="amacron" unicode="&#x101;" horiz-adv-x="1017" 
d="M809 0h-184q3 69 14 131q-132 -156 -348 -156q-133 0 -205 74.5t-72 173.5q0 67 22 119.5t65 90.5t93.5 64t118.5 48q72 23 314 61q82 12 113.5 47.5t31.5 89.5q0 19 -6.5 37.5t-23 40.5t-54.5 35.5t-92 13.5q-221 0 -281 -208l-178 34q46 150 180.5 233t309.5 83
q57 0 112 -14t103.5 -42t78 -77t29.5 -113q0 -59 -24 -164l-80 -362q-34 -148 -37 -240zM563 467l-65 -12q-136 -25 -190 -51q-107 -50 -107 -152q0 -57 38.5 -96t112.5 -39q47 0 96 14t99 44.5t90 87t57 132.5l25 107q-38 -15 -156 -35zM326 1212l30 152h621l-33 -152h-618
z" />
    <glyph glyph-name="Abreve" unicode="&#x102;" horiz-adv-x="1374" 
d="M-102 0l860 1446h264l246 -1446h-213l-70 428h-623l-249 -428h-215zM457 594h501l-108 676zM676 1855l10 50h145l-10 -47q-6 -30 -6 -60q0 -58 31 -91.5t96 -33.5q79 0 130 51t69 134l10 47h145l-10 -47q-30 -142 -134.5 -227t-238.5 -85q-111 0 -178 62t-67 170
q0 41 8 77z" />
    <glyph glyph-name="abreve" unicode="&#x103;" horiz-adv-x="1017" 
d="M809 0h-184q3 69 14 131q-132 -156 -348 -156q-133 0 -205 74.5t-72 173.5q0 67 22 119.5t65 90.5t93.5 64t118.5 48q72 23 314 61q82 12 113.5 47.5t31.5 89.5q0 19 -6.5 37.5t-23 40.5t-54.5 35.5t-92 13.5q-221 0 -281 -208l-178 34q46 150 180.5 233t309.5 83
q57 0 112 -14t103.5 -42t78 -77t29.5 -113q0 -59 -24 -164l-80 -362q-34 -148 -37 -240zM563 467l-65 -12q-136 -25 -190 -51q-107 -50 -107 -152q0 -57 38.5 -96t112.5 -39q47 0 96 14t99 44.5t90 87t57 132.5l25 107q-38 -15 -156 -35zM381 1397l10 49h146l-11 -47
q-6 -30 -6 -60q0 -58 31 -91.5t96 -33.5q79 0 130 51t69 134l10 47h145l-10 -47q-30 -142 -134.5 -227t-238.5 -85q-111 0 -178 62t-67 170q0 42 8 78z" />
    <glyph glyph-name="Aogonek" unicode="&#x104;" horiz-adv-x="1374" 
d="M457 594h501l-108 676zM881 -225q0 81 46 154.5t120 117.5l-62 381h-623l-249 -428h-215l860 1446h264l246 -1446h-51q-86 0 -153 -69t-67 -156q0 -64 38.5 -106t99.5 -42h71l-20 -100h-51q-113 0 -183.5 70.5t-70.5 177.5z" />
    <glyph glyph-name="aogonek" unicode="&#x105;" horiz-adv-x="1017" 
d="M563 467l-65 -12q-136 -25 -190 -51q-107 -50 -107 -152q0 -57 38.5 -96t112.5 -39q47 0 96 14t99 44.5t90 87t57 132.5l25 107q-38 -15 -156 -35zM446 -225q0 85 51 161.5t132 120.5q3 38 10 74q-132 -156 -348 -156q-133 0 -205 74.5t-72 173.5q0 67 22 119.5t65 90.5
t93.5 64t118.5 48q72 23 314 61q82 12 113.5 47.5t31.5 89.5q0 19 -6.5 37.5t-23 40.5t-54.5 35.5t-92 13.5q-221 0 -281 -208l-178 34q46 150 180.5 233t309.5 83q57 0 112 -14t103.5 -42t78 -77t29.5 -113q0 -59 -24 -164l-80 -362q-34 -148 -37 -240h-29
q-84 -3 -150.5 -70.5t-66.5 -154.5q0 -64 38 -106t99 -42h72l-20 -100h-52q-113 0 -183.5 70.5t-70.5 177.5z" />
    <glyph glyph-name="Cacute" unicode="&#x106;" horiz-adv-x="1441" 
d="M1212 516l191 -37q-44 -103 -112 -193t-160 -163t-214 -115.5t-258 -42.5q-109 0 -200 31.5t-155 86.5t-108.5 130t-65.5 161t-21 181q0 182 63 349.5t174.5 295.5t277.5 204.5t359 76.5q116 0 211 -36.5t159 -101t102 -147.5t48 -180l-207 -43q-8 71 -30.5 130t-62 108
t-103.5 76.5t-146 27.5q-134 0 -254 -62t-203.5 -165t-132.5 -241t-49 -286q0 -90 21.5 -166t65.5 -136t118.5 -94t173.5 -34q77 0 148 22t126 58.5t102.5 87t81.5 104t60 113.5zM895 1565l217 352h195l-258 -352h-154z" />
    <glyph glyph-name="cacute" unicode="&#x107;" horiz-adv-x="1036" 
d="M778 365l180 -35q-73 -157 -208.5 -256t-311.5 -99q-82 0 -147 21.5t-108.5 58.5t-72.5 90t-42 113t-13 129q0 113 43.5 225t118.5 201t185.5 144t234.5 55q94 0 168.5 -28.5t119.5 -78t70.5 -108t30.5 -125.5l-195 -39q-8 102 -58 167.5t-148 65.5q-83 0 -156 -44
t-122 -113.5t-77 -153.5t-28 -166q0 -117 53 -192.5t160 -75.5q108 0 189.5 69t133.5 175zM569 1110l217 352h195l-258 -352h-154z" />
    <glyph glyph-name="Ccircumflex" unicode="&#x108;" horiz-adv-x="1441" 
d="M1212 516l191 -37q-44 -103 -112 -193t-160 -163t-214 -115.5t-258 -42.5q-109 0 -200 31.5t-155 86.5t-108.5 130t-65.5 161t-21 181q0 182 63 349.5t174.5 295.5t277.5 204.5t359 76.5q116 0 211 -36.5t159 -101t102 -147.5t48 -180l-207 -43q-8 71 -30.5 130t-62 108
t-103.5 76.5t-146 27.5q-134 0 -254 -62t-203.5 -165t-132.5 -241t-49 -286q0 -90 21.5 -166t65.5 -136t118.5 -94t173.5 -34q77 0 148 22t126 58.5t102.5 87t81.5 104t60 113.5zM641 1565l340 352h160l192 -352h-170l-125 243l-229 -243h-168z" />
    <glyph glyph-name="ccircumflex" unicode="&#x109;" horiz-adv-x="1036" 
d="M778 365l180 -35q-73 -157 -208.5 -256t-311.5 -99q-82 0 -147 21.5t-108.5 58.5t-72.5 90t-42 113t-13 129q0 113 43.5 225t118.5 201t185.5 144t234.5 55q94 0 168.5 -28.5t119.5 -78t70.5 -108t30.5 -125.5l-195 -39q-8 102 -58 167.5t-148 65.5q-83 0 -156 -44
t-122 -113.5t-77 -153.5t-28 -166q0 -117 53 -192.5t160 -75.5q108 0 189.5 69t133.5 175zM307 1106l340 352h160l192 -352h-170l-124 244l-230 -244h-168z" />
    <glyph glyph-name="Cdotaccent" unicode="&#x10a;" horiz-adv-x="1441" 
d="M1212 516l191 -37q-44 -103 -112 -193t-160 -163t-214 -115.5t-258 -42.5q-109 0 -200 31.5t-155 86.5t-108.5 130t-65.5 161t-21 181q0 182 63 349.5t174.5 295.5t277.5 204.5t359 76.5q116 0 211 -36.5t159 -101t102 -147.5t48 -180l-207 -43q-8 71 -30.5 130t-62 108
t-103.5 76.5t-146 27.5q-134 0 -254 -62t-203.5 -165t-132.5 -241t-49 -286q0 -90 21.5 -166t65.5 -136t118.5 -94t173.5 -34q77 0 148 22t126 58.5t102.5 87t81.5 104t60 113.5zM881 1628l47 219h209l-47 -219h-209z" />
    <glyph glyph-name="cdotaccent" unicode="&#x10b;" horiz-adv-x="1036" 
d="M778 365l180 -35q-73 -157 -208.5 -256t-311.5 -99q-82 0 -147 21.5t-108.5 58.5t-72.5 90t-42 113t-13 129q0 113 43.5 225t118.5 201t185.5 144t234.5 55q94 0 168.5 -28.5t119.5 -78t70.5 -108t30.5 -125.5l-195 -39q-8 102 -58 167.5t-148 65.5q-83 0 -156 -44
t-122 -113.5t-77 -153.5t-28 -166q0 -117 53 -192.5t160 -75.5q108 0 189.5 69t133.5 175zM563 1169l47 220h209l-47 -220h-209z" />
    <glyph glyph-name="Ccaron" unicode="&#x10c;" horiz-adv-x="1441" 
d="M1212 516l191 -37q-44 -103 -112 -193t-160 -163t-214 -115.5t-258 -42.5q-109 0 -200 31.5t-155 86.5t-108.5 130t-65.5 161t-21 181q0 182 63 349.5t174.5 295.5t277.5 204.5t359 76.5q116 0 211 -36.5t159 -101t102 -147.5t48 -180l-207 -43q-8 71 -30.5 130t-62 108
t-103.5 76.5t-146 27.5q-134 0 -254 -62t-203.5 -165t-132.5 -241t-49 -286q0 -90 21.5 -166t65.5 -136t118.5 -94t173.5 -34q77 0 148 22t126 58.5t102.5 87t81.5 104t60 113.5zM895 1565l-193 352h168l127 -242l230 242h168l-342 -352h-158z" />
    <glyph glyph-name="ccaron" unicode="&#x10d;" horiz-adv-x="1036" 
d="M778 365l180 -35q-73 -157 -208.5 -256t-311.5 -99q-82 0 -147 21.5t-108.5 58.5t-72.5 90t-42 113t-13 129q0 113 43.5 225t118.5 201t185.5 144t234.5 55q94 0 168.5 -28.5t119.5 -78t70.5 -108t30.5 -125.5l-195 -39q-8 102 -58 167.5t-148 65.5q-83 0 -156 -44
t-122 -113.5t-77 -153.5t-28 -166q0 -117 53 -192.5t160 -75.5q108 0 189.5 69t133.5 175zM580 1106l-193 352h168l127 -241l229 241h168l-342 -352h-157z" />
    <glyph glyph-name="Dcaron" unicode="&#x10e;" horiz-adv-x="1480" 
d="M289 166h260q120 0 225 31.5t182 86.5t137.5 125.5t97.5 152t56 163t19 160.5q0 193 -111 294t-358 101h-271zM53 0l307 1446h482q99 0 188.5 -18t171.5 -59.5t141 -103.5t94.5 -156.5t35.5 -211.5q0 -159 -51 -302t-140 -250t-205.5 -185.5t-250.5 -119t-271 -40.5h-502
zM815 1565l-192 352h168l127 -242l229 242h168l-342 -352h-158z" />
    <glyph glyph-name="dcaron" unicode="&#x10f;" horiz-adv-x="1173" 
d="M727 0l31 143q-49 -73 -144 -120.5t-178 -47.5q-85 0 -151.5 23.5t-108.5 62.5t-69.5 94t-38.5 113t-11 125q0 88 26 177.5t77 168t119.5 140t160 97.5t191.5 36q98 0 173 -48.5t97 -125.5l129 608h182l-307 -1446h-178zM461 121q110 0 200.5 74t137.5 182.5t47 220.5
q0 122 -57.5 195t-155.5 73q-111 0 -202.5 -72.5t-139 -180t-47.5 -220.5q0 -75 20.5 -134t71 -98.5t125.5 -39.5zM1229 1096l151 350h185l-219 -350h-117z" />
    <glyph glyph-name="Dcroat" unicode="&#x110;" horiz-adv-x="1515" 
d="M88 711l27 129h151l129 606h482q99 0 188.5 -18t171 -59.5t141 -103.5t94.5 -156.5t35 -211.5q0 -159 -51 -302t-140 -250t-205 -185.5t-250 -119t-271 -40.5h-502l150 711h-150zM326 166h260q142 0 263.5 45t203 119t139.5 168.5t84.5 193t26.5 193.5q0 192 -112 293.5
t-360 101.5h-270l-94 -440h440l-28 -129h-439z" />
    <glyph glyph-name="dcroat" unicode="&#x111;" horiz-adv-x="1132" 
d="M668 1159l26 121h301l35 166h182l-34 -166h118l-24 -121h-121l-246 -1159h-178l31 143q-49 -73 -144 -120.5t-178 -47.5q-85 0 -151.5 23.5t-108.5 62.5t-69.5 94t-38.5 113t-11 125q0 88 26 177.5t77 168t119.5 140t160 97.5t191.5 36q98 0 173 -48.5t97 -125.5l68 321
h-301zM461 121q110 0 200.5 74t137.5 182.5t47 220.5q0 122 -57.5 195t-155.5 73q-111 0 -202.5 -72.5t-139 -180t-47.5 -220.5q0 -75 20.5 -134t71 -98.5t125.5 -39.5z" />
    <glyph glyph-name="Emacron" unicode="&#x112;" horiz-adv-x="1218" 
d="M53 0l307 1446h963l-37 -166h-764l-94 -451h735l-35 -165h-737l-106 -498h782l-37 -166h-977zM561 1671l31 152h620l-32 -152h-619z" />
    <glyph glyph-name="emacron" unicode="&#x113;" horiz-adv-x="1036" 
d="M752 328l168 -37q-23 -53 -66.5 -106.5t-103 -101.5t-139 -78t-162.5 -30q-98 0 -175 31.5t-124 86t-71 124t-24 148.5q0 92 24.5 184t74 175t117 147.5t160.5 102.5t198 38q177 0 267.5 -100t90.5 -265q0 -88 -26 -198h-713q-10 -52 -10 -95q0 -105 54.5 -171t166.5 -66
q108 0 183 63.5t110 147.5zM281 590h526q6 34 6 69q0 90 -52.5 150.5t-156.5 60.5q-122 0 -209.5 -80t-113.5 -200zM330 1212l30 152h621l-33 -152h-618z" />
    <glyph glyph-name="Ebreve" unicode="&#x114;" horiz-adv-x="1218" 
d="M53 0l307 1446h963l-37 -166h-764l-94 -451h735l-35 -165h-737l-106 -498h782l-37 -166h-977zM623 1855l10 50h145l-10 -47q-6 -30 -6 -60q0 -58 31 -91.5t96 -33.5q79 0 129.5 51t68.5 134l11 47h145l-10 -47q-30 -142 -134.5 -227t-238.5 -85q-111 0 -178.5 62
t-67.5 170q0 36 9 77z" />
    <glyph glyph-name="ebreve" unicode="&#x115;" horiz-adv-x="1036" 
d="M752 328l168 -37q-23 -53 -66.5 -106.5t-103 -101.5t-139 -78t-162.5 -30q-98 0 -175 31.5t-124 86t-71 124t-24 148.5q0 92 24.5 184t74 175t117 147.5t160.5 102.5t198 38q177 0 267.5 -100t90.5 -265q0 -88 -26 -198h-713q-10 -52 -10 -95q0 -105 54.5 -171t166.5 -66
q108 0 183 63.5t110 147.5zM281 590h526q6 34 6 69q0 90 -52.5 150.5t-156.5 60.5q-122 0 -209.5 -80t-113.5 -200zM385 1397l10 49h146l-11 -47q-6 -30 -6 -60q0 -58 31 -91.5t96 -33.5q79 0 130 51t69 134l10 47h146l-11 -47q-30 -142 -134 -227t-238 -85
q-111 0 -178.5 62t-67.5 170q0 42 8 78z" />
    <glyph glyph-name="Edotaccent" unicode="&#x116;" horiz-adv-x="1218" 
d="M53 0l307 1446h963l-37 -166h-764l-94 -451h735l-35 -165h-737l-106 -498h782l-37 -166h-977zM760 1628l47 219h209l-47 -219h-209z" />
    <glyph glyph-name="edotaccent" unicode="&#x117;" horiz-adv-x="1036" 
d="M752 328l168 -37q-23 -53 -66.5 -106.5t-103 -101.5t-139 -78t-162.5 -30q-98 0 -175 31.5t-124 86t-71 124t-24 148.5q0 92 24.5 184t74 175t117 147.5t160.5 102.5t198 38q177 0 267.5 -100t90.5 -265q0 -88 -26 -198h-713q-10 -52 -10 -95q0 -105 54.5 -171t166.5 -66
q108 0 183 63.5t110 147.5zM281 590h526q6 34 6 69q0 90 -52.5 150.5t-156.5 60.5q-122 0 -209.5 -80t-113.5 -200zM537 1169l47 220h209l-48 -220h-208z" />
    <glyph glyph-name="Eogonek" unicode="&#x118;" horiz-adv-x="1218" 
d="M53 0l307 1446h963l-37 -166h-764l-94 -451h735l-35 -165h-737l-106 -498h782l-37 -166h-82q-83 -6 -146 -73t-63 -152q0 -64 38.5 -106t99.5 -42h71l-20 -100h-51q-113 0 -183.5 70.5t-70.5 177.5q0 63 28 122t76 103h-674z" />
    <glyph glyph-name="eogonek" unicode="&#x119;" horiz-adv-x="1036" 
d="M483 -473h-51q-113 0 -183.5 70.5t-70.5 177.5q0 64 29 123.5t78 103.5q-114 41 -172 139t-58 224q0 92 24.5 184t74 175t117 147.5t160.5 102.5t198 38q177 0 267.5 -100t90.5 -265q0 -88 -26 -198h-713q-10 -52 -10 -95q0 -105 54.5 -171t166.5 -66q108 0 183 63.5
t110 147.5l168 -37q-23 -53 -66.5 -106.5t-103 -101.5t-139 -78t-162.5 -30h-25q-57 -28 -93 -82.5t-36 -117.5q0 -64 38 -106t99 -42h72zM281 590h526q6 34 6 69q0 90 -52.5 150.5t-156.5 60.5q-122 0 -209.5 -80t-113.5 -200z" />
    <glyph glyph-name="Ecaron" unicode="&#x11a;" horiz-adv-x="1218" 
d="M53 0l307 1446h963l-37 -166h-764l-94 -451h735l-35 -165h-737l-106 -498h782l-37 -166h-977zM774 1565l-192 352h168l127 -242l229 242h168l-342 -352h-158z" />
    <glyph glyph-name="ecaron" unicode="&#x11b;" horiz-adv-x="1036" 
d="M752 328l168 -37q-23 -53 -66.5 -106.5t-103 -101.5t-139 -78t-162.5 -30q-98 0 -175 31.5t-124 86t-71 124t-24 148.5q0 92 24.5 184t74 175t117 147.5t160.5 102.5t198 38q177 0 267.5 -100t90.5 -265q0 -88 -26 -198h-713q-10 -52 -10 -95q0 -105 54.5 -171t166.5 -66
q108 0 183 63.5t110 147.5zM281 590h526q6 34 6 69q0 90 -52.5 150.5t-156.5 60.5q-122 0 -209.5 -80t-113.5 -200zM553 1106l-193 352h168l127 -241l230 241h168l-342 -352h-158z" />
    <glyph glyph-name="Gcircumflex" unicode="&#x11c;" horiz-adv-x="1507" 
d="M1114 0l39 180q-202 -215 -483 -215q-143 0 -253 45t-177 125t-100.5 182.5t-33.5 223.5q0 144 40 282.5t117 256.5t182 208t245 141.5t295 51.5q223 0 365.5 -104t185.5 -294l-213 -43q-31 130 -123.5 202.5t-232.5 72.5q-113 0 -216 -43t-181.5 -118t-137 -173
t-89 -211.5t-30.5 -228.5q0 -179 101 -294.5t280 -115.5q206 0 350 126.5t199 365.5h-461l35 165h653l-167 -788h-189zM649 1565l340 352h160l192 -352h-170l-124 243l-230 -243h-168z" />
    <glyph glyph-name="gcircumflex" unicode="&#x11d;" horiz-adv-x="1130" 
d="M-23 -133l199 33q-2 -12 -2 -35q0 -201 209 -201q71 0 128 22.5t90 53t58.5 77.5t35.5 80.5t20 77.5l39 168q-53 -69 -146.5 -114t-175.5 -45q-85 0 -151 23.5t-107.5 61.5t-68.5 92t-37.5 110t-10.5 120q0 107 42 217t115 200t183 147t234 57q96 0 176 -51.5t98 -129.5
l33 156h174l-215 -1020q-94 -448 -545 -448q-174 0 -274 90.5t-101 257.5zM463 129q82 0 155 43t122 111t77.5 151.5t28.5 165.5q0 120 -58 193t-157 73q-108 0 -199 -70t-140.5 -177.5t-49.5 -221.5q0 -74 21 -132.5t72.5 -97t127.5 -38.5zM313 1106l340 352h160l193 -352
h-170l-125 244l-230 -244h-168z" />
    <glyph glyph-name="Gbreve" unicode="&#x11e;" horiz-adv-x="1507" 
d="M1114 0l39 180q-202 -215 -483 -215q-143 0 -253 45t-177 125t-100.5 182.5t-33.5 223.5q0 144 40 282.5t117 256.5t182 208t245 141.5t295 51.5q223 0 365.5 -104t185.5 -294l-213 -43q-31 130 -123.5 202.5t-232.5 72.5q-113 0 -216 -43t-181.5 -118t-137 -173
t-89 -211.5t-30.5 -228.5q0 -179 101 -294.5t280 -115.5q206 0 350 126.5t199 365.5h-461l35 165h653l-167 -788h-189zM752 1855l10 50h145l-10 -47q-6 -30 -6 -60q0 -58 31 -91.5t96 -33.5q79 0 130 51t69 134l10 47h145l-10 -47q-30 -142 -134.5 -227t-238.5 -85
q-111 0 -178.5 62t-67.5 170q0 36 9 77z" />
    <glyph glyph-name="gbreve" unicode="&#x11f;" horiz-adv-x="1130" 
d="M-23 -133l199 33q-2 -12 -2 -35q0 -201 209 -201q71 0 128 22.5t90 53t58.5 77.5t35.5 80.5t20 77.5l39 168q-53 -69 -146.5 -114t-175.5 -45q-85 0 -151 23.5t-107.5 61.5t-68.5 92t-37.5 110t-10.5 120q0 107 42 217t115 200t183 147t234 57q96 0 176 -51.5t98 -129.5
l33 156h174l-215 -1020q-94 -448 -545 -448q-174 0 -274 90.5t-101 257.5zM463 129q82 0 155 43t122 111t77.5 151.5t28.5 165.5q0 120 -58 193t-157 73q-108 0 -199 -70t-140.5 -177.5t-49.5 -221.5q0 -74 21 -132.5t72.5 -97t127.5 -38.5zM418 1397l10 49h145l-10 -47
q-6 -30 -6 -60q0 -58 31 -91.5t96 -33.5q79 0 130 51t69 134l10 47h145l-10 -47q-30 -142 -134.5 -227t-238.5 -85q-111 0 -178 62t-67 170q0 42 8 78z" />
    <glyph glyph-name="Gdotaccent" unicode="&#x120;" horiz-adv-x="1507" 
d="M1114 0l39 180q-202 -215 -483 -215q-143 0 -253 45t-177 125t-100.5 182.5t-33.5 223.5q0 144 40 282.5t117 256.5t182 208t245 141.5t295 51.5q223 0 365.5 -104t185.5 -294l-213 -43q-31 130 -123.5 202.5t-232.5 72.5q-113 0 -216 -43t-181.5 -118t-137 -173
t-89 -211.5t-30.5 -228.5q0 -179 101 -294.5t280 -115.5q206 0 350 126.5t199 365.5h-461l35 165h653l-167 -788h-189zM889 1628l47 219h209l-47 -219h-209z" />
    <glyph glyph-name="gdotaccent" unicode="&#x121;" horiz-adv-x="1130" 
d="M-23 -133l199 33q-2 -12 -2 -35q0 -201 209 -201q71 0 128 22.5t90 53t58.5 77.5t35.5 80.5t20 77.5l39 168q-53 -69 -146.5 -114t-175.5 -45q-85 0 -151 23.5t-107.5 61.5t-68.5 92t-37.5 110t-10.5 120q0 107 42 217t115 200t183 147t234 57q96 0 176 -51.5t98 -129.5
l33 156h174l-215 -1020q-94 -448 -545 -448q-174 0 -274 90.5t-101 257.5zM463 129q82 0 155 43t122 111t77.5 151.5t28.5 165.5q0 120 -58 193t-157 73q-108 0 -199 -70t-140.5 -177.5t-49.5 -221.5q0 -74 21 -132.5t72.5 -97t127.5 -38.5zM569 1169l47 220h209l-47 -220
h-209z" />
    <glyph glyph-name="uni0122" unicode="&#x122;" horiz-adv-x="1507" 
d="M1114 0l39 180q-202 -215 -483 -215q-143 0 -253 45t-177 125t-100.5 182.5t-33.5 223.5q0 144 40 282.5t117 256.5t182 208t245 141.5t295 51.5q223 0 365.5 -104t185.5 -294l-213 -43q-31 130 -123.5 202.5t-232.5 72.5q-113 0 -216 -43t-181.5 -118t-137 -173
t-89 -211.5t-30.5 -228.5q0 -179 101 -294.5t280 -115.5q206 0 350 126.5t199 365.5h-461l35 165h653l-167 -788h-189zM451 -465l149 352h182l-215 -352h-116z" />
    <glyph glyph-name="uni0123" unicode="&#x123;" horiz-adv-x="1130" 
d="M-23 -133l199 33q-2 -12 -2 -35q0 -201 209 -201q71 0 128 22.5t90 53t58.5 77.5t35.5 80.5t20 77.5l39 168q-53 -69 -146.5 -114t-175.5 -45q-85 0 -151 23.5t-107.5 61.5t-68.5 92t-37.5 110t-10.5 120q0 107 42 217t115 200t183 147t234 57q96 0 176 -51.5t98 -129.5
l33 156h174l-215 -1020q-94 -448 -545 -448q-174 0 -274 90.5t-101 257.5zM463 129q82 0 155 43t122 111t77.5 151.5t28.5 165.5q0 120 -58 193t-157 73q-108 0 -199 -70t-140.5 -177.5t-49.5 -221.5q0 -74 21 -132.5t72.5 -97t127.5 -38.5zM596 1106l217 350h119l-152 -350
h-184z" />
    <glyph glyph-name="Hcircumflex" unicode="&#x124;" horiz-adv-x="1480" 
d="M53 0l307 1446h199l-131 -615h768l133 615h199l-309 -1446h-199l141 666h-770l-141 -666h-197zM629 1565l340 352h159l193 -352h-170l-125 243l-229 -243h-168z" />
    <glyph glyph-name="hcircumflex" unicode="&#x125;" horiz-adv-x="1069" 
d="M18 0l308 1446h182l-131 -617q32 68 127.5 125.5t218.5 57.5q119 0 196.5 -71t77.5 -191q0 -62 -28 -199l-119 -551h-182l116 549q27 132 27 164q0 69 -45.5 110t-120.5 41q-53 0 -109 -23t-98 -65q-53 -52 -81.5 -114t-55.5 -191l-100 -471h-183zM92 1565l340 352h160
l192 -352h-170l-125 243l-229 -243h-168z" />
    <glyph glyph-name="Hbar" unicode="&#x126;" horiz-adv-x="1531" 
d="M150 1069l26 127h156l53 250h199l-54 -250h770l54 250h198l-53 -250h156l-27 -127h-158l-227 -1069h-199l142 666h-768l-144 -666h-196l227 1069h-155zM453 831h770l49 238h-770z" />
    <glyph glyph-name="hbar" unicode="&#x127;" horiz-adv-x="1069" 
d="M156 1159l24 121h111l35 166h182l-37 -166h299l-27 -121h-297l-69 -330q32 68 127.5 125.5t218.5 57.5q119 0 196.5 -71t77.5 -191q0 -62 -28 -199l-119 -551h-182l116 549q27 132 27 164q0 69 -45.5 110t-120.5 41q-53 0 -109 -23t-98 -65q-53 -52 -81.5 -114
t-55.5 -191l-100 -471h-183l246 1159h-108z" />
    <glyph glyph-name="Itilde" unicode="&#x128;" horiz-adv-x="512" 
d="M53 0l307 1446h199l-309 -1446h-197zM190 1608l39 176q38 32 90.5 54t96.5 22q60 0 149 -39q7 -3 23.5 -9.5t25.5 -10t22 -7.5t24 -6t22 -2q90 0 190 104l-38 -176q-40 -34 -92.5 -56t-98.5 -22q-13 0 -27 2t-24.5 4t-26 7t-22 7.5t-24.5 9.5t-23 9q-10 3 -29.5 10.5
t-30.5 11.5t-27 7.5t-30 3.5q-93 0 -189 -100z" />
    <glyph glyph-name="itilde" unicode="&#x129;" horiz-adv-x="430" 
d="M20 0l209 987h183l-211 -987h-181zM37 1149l39 176q38 32 90 54t96 22q61 0 150 -39q5 -2 28.5 -11.5t32.5 -12.5t25.5 -7t29.5 -4q90 0 191 105l-39 -177q-39 -33 -92 -55t-99 -22q-13 0 -27 2t-24.5 4t-26 7t-22 7.5t-24.5 9.5t-23 9q-9 3 -29 10.5t-31 11t-27 7
t-30 3.5q-92 0 -188 -100z" />
    <glyph glyph-name="Imacron" unicode="&#x12a;" horiz-adv-x="512" 
d="M53 0l307 1446h199l-309 -1446h-197zM186 1671l31 152h621l-33 -152h-619z" />
    <glyph glyph-name="imacron" unicode="&#x12b;" horiz-adv-x="430" 
d="M20 0l209 987h183l-211 -987h-181zM45 1212l31 152h620l-32 -152h-619z" />
    <glyph glyph-name="Ibreve" unicode="&#x12c;" horiz-adv-x="512" 
d="M53 0l307 1446h199l-309 -1446h-197zM246 1855l10 50h145l-10 -47q-6 -30 -6 -60q0 -58 31 -91.5t96 -33.5q79 0 130 51t69 134l10 47h145l-10 -47q-30 -142 -134.5 -227t-238.5 -85q-111 0 -178 62t-67 170q0 41 8 77z" />
    <glyph glyph-name="ibreve" unicode="&#x12d;" horiz-adv-x="430" 
d="M20 0l209 987h183l-211 -987h-181zM100 1397l11 49h145l-10 -47q-6 -30 -6 -60q0 -58 31 -91.5t96 -33.5q79 0 129.5 51t68.5 134l10 47h146l-10 -47q-30 -142 -134.5 -227t-238.5 -85q-111 0 -178.5 62t-67.5 170q0 42 8 78z" />
    <glyph glyph-name="Iogonek" unicode="&#x12e;" horiz-adv-x="514" 
d="M561 1446l-309 -1446q-103 0 -171.5 -69t-68.5 -156q0 -64 38.5 -106t99.5 -42h71l-20 -100h-51q-113 0 -183.5 70.5t-70.5 177.5q0 82 47 156.5t123 121.5l296 1393h199z" />
    <glyph glyph-name="iogonek" unicode="&#x12f;" horiz-adv-x="434" 
d="M416 987l-211 -987q-103 0 -171.5 -69t-68.5 -156q0 -64 38 -106t99 -42h72l-20 -100h-52q-113 0 -183.5 70.5t-70.5 177.5q0 87 52.5 165t136.5 123l196 924h183zM287 1241l45 205h182l-45 -205h-182z" />
    <glyph glyph-name="Idotaccent" unicode="&#x130;" horiz-adv-x="512" 
d="M53 0l307 1446h199l-309 -1446h-197zM383 1628l47 219h209l-47 -219h-209z" />
    <glyph glyph-name="dotlessi" unicode="&#x131;" horiz-adv-x="430" 
d="M20 0l209 987h183l-211 -987h-181z" />
    <glyph glyph-name="IJ" unicode="&#x132;" horiz-adv-x="1667" 
d="M53 0l307 1446h199l-309 -1446h-197zM535 446l208 39q-14 -63 -14 -123q0 -112 57.5 -173.5t171.5 -61.5q137 0 230.5 88.5t122.5 226.5l215 1004h200l-215 -1010q-51 -237 -203 -354t-380 -117q-188 0 -296 96.5t-108 272.5q0 58 11 112z" />
    <glyph glyph-name="ij" unicode="&#x133;" horiz-adv-x="864" 
d="M20 0l209 987h183l-211 -987h-181zM283 1241l45 205h182l-45 -205h-182zM139 -465l33 152q56 -9 74 -9q84 0 121.5 41.5t52.5 110.5l244 1157h182l-246 -1165q-32 -154 -107.5 -227.5t-226.5 -73.5q-64 0 -127 14zM719 1241l43 205h182l-43 -205h-182z" />
    <glyph glyph-name="Jcircumflex" unicode="&#x134;" horiz-adv-x="1146" 
d="M12 446l211 39q-14 -63 -14 -123q0 -112 57.5 -173.5t171.5 -61.5q137 0 230.5 88.5t122.5 226.5l215 1004h200l-215 -1010q-51 -237 -203 -354t-380 -117q-189 0 -297.5 96.5t-108.5 272.5q0 47 10 112zM791 1565l339 352h160l193 -352h-170l-125 243l-230 -243h-167z
" />
    <glyph glyph-name="jcircumflex" unicode="&#x135;" horiz-adv-x="442" 
d="M70 1106l272 352h168l154 -352h-156l-100 244l-185 -244h-153zM-283 -465l33 152q56 -9 74 -9q82 0 121 41.5t53 110.5l244 1157h182l-248 -1165q-32 -154 -107.5 -227.5t-224.5 -73.5q-64 0 -127 14z" />
    <glyph glyph-name="uni0136" unicode="&#x136;" horiz-adv-x="1280" 
d="M53 0l307 1446h199l-139 -645l782 645h252l-838 -678l625 -768h-262l-576 721l-153 -721h-197zM311 -465l150 352h182l-215 -352h-117z" />
    <glyph glyph-name="uni0137" unicode="&#x137;" horiz-adv-x="995" 
d="M18 0l308 1446h180l-187 -873l521 414h233l-573 -442l444 -545h-235l-406 489l-106 -489h-179zM162 -465l149 352h183l-215 -352h-117z" />
    <glyph glyph-name="kgreenlandic" unicode="&#x138;" horiz-adv-x="997" 
d="M20 0l209 987h181l-91 -418l523 418h233l-575 -446l446 -541h-235l-408 485l-104 -485h-179z" />
    <glyph glyph-name="Lacute" unicode="&#x139;" horiz-adv-x="1105" 
d="M53 0l307 1446h199l-274 -1280h735l-35 -166h-932zM397 1565l217 352h195l-258 -352h-154z" />
    <glyph glyph-name="lacute" unicode="&#x13a;" horiz-adv-x="425" 
d="M18 0l308 1446h180l-307 -1446h-181zM356 1569l217 352h195l-258 -352h-154z" />
    <glyph glyph-name="uni013B" unicode="&#x13b;" horiz-adv-x="1105" 
d="M53 0l307 1446h199l-274 -1280h735l-35 -166h-932zM260 -465l150 352h182l-215 -352h-117z" />
    <glyph glyph-name="uni013C" unicode="&#x13c;" horiz-adv-x="425" 
d="M18 0l308 1446h180l-307 -1446h-181zM-143 -465l149 352h182l-215 -352h-116z" />
    <glyph glyph-name="Lcaron" unicode="&#x13d;" horiz-adv-x="1105" 
d="M53 0l307 1446h199l-274 -1280h735l-35 -166h-932zM575 1096l152 350h184l-219 -350h-117z" />
    <glyph glyph-name="lcaron" unicode="&#x13e;" horiz-adv-x="466" 
d="M18 0l308 1446h180l-307 -1446h-181zM522 1096l152 350h184l-219 -350h-117z" />
    <glyph glyph-name="Ldot" unicode="&#x13f;" horiz-adv-x="1105" 
d="M53 0l307 1446h199l-274 -1280h735l-35 -166h-932zM602 612l47 219h209l-47 -219h-209z" />
    <glyph glyph-name="ldot" unicode="&#x140;" horiz-adv-x="626" 
d="M18 0l308 1446h180l-307 -1446h-181zM446 608l48 219h208l-47 -219h-209z" />
    <glyph glyph-name="Lslash" unicode="&#x141;" horiz-adv-x="1130" 
d="M88 0l107 498l-183 -107l29 141l182 107l172 807h199l-143 -674l485 281l-31 -140l-485 -282l-98 -465h686l-37 -166h-883z" />
    <glyph glyph-name="lslash" unicode="&#x142;" horiz-adv-x="579" 
d="M96 0l140 649l-170 -100l28 135l168 100l141 662h183l-117 -543l172 101l-29 -136l-172 -100l-164 -768h-180z" />
    <glyph glyph-name="Nacute" unicode="&#x143;" horiz-adv-x="1550" 
d="M53 0l307 1446h271l512 -1245l266 1245h186l-307 -1446h-287l-497 1243l-264 -1243h-187zM915 1565l218 352h194l-258 -352h-154z" />
    <glyph glyph-name="nacute" unicode="&#x144;" horiz-adv-x="1067" 
d="M20 0l209 987h181l-35 -158q34 68 128 125.5t214 57.5q124 0 201 -70.5t77 -191.5q0 -56 -30 -199l-117 -551h-180l114 549q27 123 27 170q0 70 -45.5 107.5t-124.5 37.5q-121 0 -207 -92q-51 -53 -76.5 -113.5t-52.5 -187.5l-102 -471h-181zM565 1110l217 352h195
l-258 -352h-154z" />
    <glyph glyph-name="uni0145" unicode="&#x145;" horiz-adv-x="1550" 
d="M53 0l307 1446h271l512 -1245l266 1245h186l-307 -1446h-287l-497 1243l-264 -1243h-187zM434 -465l150 352h182l-215 -352h-117z" />
    <glyph glyph-name="uni0146" unicode="&#x146;" horiz-adv-x="1067" 
d="M20 0l209 987h181l-35 -158q34 68 128 125.5t214 57.5q124 0 201 -70.5t77 -191.5q0 -56 -30 -199l-117 -551h-180l114 549q27 123 27 170q0 70 -45.5 107.5t-124.5 37.5q-121 0 -207 -92q-51 -53 -76.5 -113.5t-52.5 -187.5l-102 -471h-181zM184 -465l150 352h182
l-215 -352h-117z" />
    <glyph glyph-name="Ncaron" unicode="&#x147;" horiz-adv-x="1550" 
d="M53 0l307 1446h271l512 -1245l266 1245h186l-307 -1446h-287l-497 1243l-264 -1243h-187zM915 1565l-192 352h168l127 -242l229 242h168l-342 -352h-158z" />
    <glyph glyph-name="ncaron" unicode="&#x148;" horiz-adv-x="1067" 
d="M20 0l209 987h181l-35 -158q34 68 128 125.5t214 57.5q124 0 201 -70.5t77 -191.5q0 -56 -30 -199l-117 -551h-180l114 549q27 123 27 170q0 70 -45.5 107.5t-124.5 37.5q-121 0 -207 -92q-51 -53 -76.5 -113.5t-52.5 -187.5l-102 -471h-181zM575 1106l-192 352h168
l127 -241l229 241h168l-342 -352h-158z" />
    <glyph glyph-name="napostrophe" unicode="&#x149;" horiz-adv-x="1067" 
d="M20 0l209 987h181l-35 -158q34 68 128 125.5t214 57.5q124 0 201 -70.5t77 -191.5q0 -56 -30 -199l-117 -551h-180l114 549q27 123 27 170q0 70 -45.5 107.5t-124.5 37.5q-121 0 -207 -92q-51 -53 -76.5 -113.5t-52.5 -187.5l-102 -471h-181zM211 1096l151 350h185
l-219 -350h-117z" />
    <glyph glyph-name="Eng" unicode="&#x14a;" horiz-adv-x="1550" 
d="M53 0l305 1446h273l512 -1249l264 1249h188l-344 -1626q-15 -72 -36.5 -123t-59 -93.5t-97.5 -63.5t-143 -21q-73 0 -122 10l32 154q56 -9 74 -9q46 0 78 13t49.5 38.5t25.5 47t15 53.5l37 174h-103l-497 1247l-266 -1247h-185z" />
    <glyph glyph-name="eng" unicode="&#x14b;" horiz-adv-x="1067" 
d="M350 -465l31 152q56 -9 74 -9q84 0 121.5 41.5t52.5 110.5l153 719q27 123 27 170q0 70 -45.5 107.5t-124.5 37.5q-121 0 -207 -92q-51 -53 -76.5 -113.5t-52.5 -187.5l-102 -471h-181l209 987h181l-35 -158q34 68 128 125.5t214 57.5q124 0 201 -70.5t77 -191.5
q0 -56 -30 -199l-156 -729q-34 -154 -108.5 -227.5t-223.5 -73.5q-67 0 -127 14z" />
    <glyph glyph-name="Omacron" unicode="&#x14c;" horiz-adv-x="1556" 
d="M692 131q115 0 218.5 43t181 117.5t135 172.5t87 212.5t29.5 232.5q0 86 -22.5 158t-67.5 128.5t-119 88t-171 31.5q-115 0 -218.5 -42.5t-182 -117.5t-136 -173t-87.5 -212.5t-30 -232.5q0 -86 23 -158t68.5 -128t120 -88t171.5 -32zM676 -35q-122 0 -220 30.5t-163 83
t-109 125t-63 153t-19 171.5q0 139 39.5 277t117 259t182 214.5t244.5 148t294 54.5q122 0 220 -30.5t163 -83t108.5 -125t62.5 -153t19 -171.5q0 -139 -39.5 -277t-117 -259t-181.5 -214.5t-244 -148t-294 -54.5zM705 1671l30 152h621l-33 -152h-618z" />
    <glyph glyph-name="omacron" unicode="&#x14d;" horiz-adv-x="1083" 
d="M627 866q-81 0 -154 -43t-122.5 -111t-78 -151t-28.5 -164q0 -122 54 -199t159 -77q81 0 154 43t122.5 111t78 151t28.5 164q0 120 -54 198t-159 78zM643 1012q102 0 178 -34t120 -93.5t65.5 -132t21.5 -158.5q0 -111 -43.5 -222t-118.5 -199t-186.5 -143t-237.5 -55
q-102 0 -178.5 34t-121 93.5t-66 132.5t-21.5 158q0 87 27 176t79.5 168t123 141t163.5 98t195 36zM371 1212l30 152h621l-33 -152h-618z" />
    <glyph glyph-name="Obreve" unicode="&#x14e;" horiz-adv-x="1556" 
d="M692 131q115 0 218.5 43t181 117.5t135 172.5t87 212.5t29.5 232.5q0 86 -22.5 158t-67.5 128.5t-119 88t-171 31.5q-115 0 -218.5 -42.5t-182 -117.5t-136 -173t-87.5 -212.5t-30 -232.5q0 -86 23 -158t68.5 -128t120 -88t171.5 -32zM676 -35q-122 0 -220 30.5t-163 83
t-109 125t-63 153t-19 171.5q0 139 39.5 277t117 259t182 214.5t244.5 148t294 54.5q122 0 220 -30.5t163 -83t108.5 -125t62.5 -153t19 -171.5q0 -139 -39.5 -277t-117 -259t-181.5 -214.5t-244 -148t-294 -54.5zM766 1855l10 50h146l-11 -47q-6 -30 -6 -60q0 -58 31 -91.5
t96 -33.5q79 0 130 51t69 134l10 47h145l-10 -47q-30 -142 -134 -227t-238 -85q-111 0 -178.5 62t-67.5 170q0 41 8 77z" />
    <glyph glyph-name="obreve" unicode="&#x14f;" horiz-adv-x="1083" 
d="M627 866q-81 0 -154 -43t-122.5 -111t-78 -151t-28.5 -164q0 -122 54 -199t159 -77q81 0 154 43t122.5 111t78 151t28.5 164q0 120 -54 198t-159 78zM643 1012q102 0 178 -34t120 -93.5t65.5 -132t21.5 -158.5q0 -111 -43.5 -222t-118.5 -199t-186.5 -143t-237.5 -55
q-102 0 -178.5 34t-121 93.5t-66 132.5t-21.5 158q0 87 27 176t79.5 168t123 141t163.5 98t195 36zM426 1397l10 49h146l-11 -47q-6 -30 -6 -60q0 -58 31 -91.5t96 -33.5q79 0 130 51t69 134l10 47h146l-11 -47q-30 -142 -134 -227t-238 -85q-111 0 -178.5 62t-67.5 170
q0 42 8 78z" />
    <glyph glyph-name="Ohungarumlaut" unicode="&#x150;" horiz-adv-x="1556" 
d="M692 131q115 0 218.5 43t181 117.5t135 172.5t87 212.5t29.5 232.5q0 86 -22.5 158t-67.5 128.5t-119 88t-171 31.5q-115 0 -218.5 -42.5t-182 -117.5t-136 -173t-87.5 -212.5t-30 -232.5q0 -86 23 -158t68.5 -128t120 -88t171.5 -32zM676 -35q-122 0 -220 30.5t-163 83
t-109 125t-63 153t-19 171.5q0 139 39.5 277t117 259t182 214.5t244.5 148t294 54.5q122 0 220 -30.5t163 -83t108.5 -125t62.5 -153t19 -171.5q0 -139 -39.5 -277t-117 -259t-181.5 -214.5t-244 -148t-294 -54.5zM762 1565l217 352h192l-258 -352h-151zM1030 1565l217 352
h195l-260 -352h-152z" />
    <glyph glyph-name="ohungarumlaut" unicode="&#x151;" horiz-adv-x="1083" 
d="M627 866q-81 0 -154 -43t-122.5 -111t-78 -151t-28.5 -164q0 -122 54 -199t159 -77q81 0 154 43t122.5 111t78 151t28.5 164q0 120 -54 198t-159 78zM643 1012q102 0 178 -34t120 -93.5t65.5 -132t21.5 -158.5q0 -111 -43.5 -222t-118.5 -199t-186.5 -143t-237.5 -55
q-102 0 -178.5 34t-121 93.5t-66 132.5t-21.5 158q0 87 27 176t79.5 168t123 141t163.5 98t195 36zM438 1106l217 352h193l-258 -352h-152zM707 1106l217 352h194l-260 -352h-151z" />
    <glyph glyph-name="OE" unicode="&#x152;" horiz-adv-x="1968" 
d="M1139 166h678l-37 -166h-1071q-151 0 -267 43.5t-188 121t-108.5 180t-36.5 226.5q0 180 70.5 342.5t191.5 279t289.5 185t357.5 68.5h1055l-37 -166h-658l-96 -451h631l-35 -165h-633zM745 166h197l238 1114h-197q-188 0 -342 -93t-241 -253.5t-87 -353.5
q0 -184 110.5 -299t321.5 -115z" />
    <glyph glyph-name="oe" unicode="&#x153;" horiz-adv-x="1804" 
d="M1520 328l168 -37q-23 -53 -66.5 -106.5t-103 -101.5t-139 -78t-162.5 -30q-136 0 -225 57.5t-126 155.5q-78 -98 -187.5 -155.5t-236.5 -57.5q-102 0 -178.5 34t-121 93.5t-66 132.5t-21.5 158q0 87 27 176t79.5 168t123 141t163.5 98t195 36q257 0 336 -213
q164 213 418 213q177 0 267.5 -100t90.5 -265q0 -88 -26 -198h-713q-10 -52 -10 -95q0 -105 54.5 -171t166.5 -66q107 0 181.5 63t111.5 148zM457 121q81 0 154 43t122.5 111t78 151t28.5 164q0 120 -54 198t-159 78q-81 0 -154 -43t-122.5 -111t-78 -151t-28.5 -164
q0 -122 54 -199t159 -77zM1049 590h526q6 34 6 69q0 90 -52.5 150.5t-156.5 60.5q-122 0 -209.5 -80t-113.5 -200z" />
    <glyph glyph-name="Racute" unicode="&#x154;" horiz-adv-x="1372" 
d="M53 0l307 1446h603q211 0 309 -81.5t98 -244.5q0 -140 -87 -250.5t-232 -142.5q84 -19 131 -65t47 -132q0 -40 -8 -79l-47 -224q-13 -63 -13 -88q0 -73 47 -139h-221q-31 47 -31 109q0 25 13 92l47 217q6 40 6 71q0 80 -53.5 111t-161.5 31h-426l-135 -631h-193zM416 797
h422q142 0 234.5 83t92.5 224q0 82 -61.5 129t-185.5 47h-398zM774 1565l217 352h195l-258 -352h-154z" />
    <glyph glyph-name="racute" unicode="&#x155;" horiz-adv-x="684" 
d="M20 0l209 987h179l-37 -168q42 76 134.5 134.5t201.5 58.5q31 0 67 -6l-37 -183q-48 8 -94 8q-123 0 -229 -106q-76 -79 -119 -279l-94 -446h-181zM412 1110l217 352h194l-258 -352h-153z" />
    <glyph glyph-name="uni0156" unicode="&#x156;" horiz-adv-x="1372" 
d="M53 0l307 1446h603q211 0 309 -81.5t98 -244.5q0 -140 -87 -250.5t-232 -142.5q84 -19 131 -65t47 -132q0 -40 -8 -79l-47 -224q-13 -63 -13 -88q0 -73 47 -139h-221q-31 47 -31 109q0 25 13 92l47 217q6 40 6 71q0 80 -53.5 111t-161.5 31h-426l-135 -631h-193zM416 797
h422q142 0 234.5 83t92.5 224q0 82 -61.5 129t-185.5 47h-398zM373 -465l149 352h183l-216 -352h-116z" />
    <glyph glyph-name="uni0157" unicode="&#x157;" horiz-adv-x="684" 
d="M20 0l209 987h179l-37 -168q42 76 134.5 134.5t201.5 58.5q31 0 67 -6l-37 -183q-48 8 -94 8q-123 0 -229 -106q-76 -79 -119 -279l-94 -446h-181zM-141 -465l149 352h182l-215 -352h-116z" />
    <glyph glyph-name="Rcaron" unicode="&#x158;" horiz-adv-x="1372" 
d="M53 0l307 1446h603q211 0 309 -81.5t98 -244.5q0 -140 -87 -250.5t-232 -142.5q84 -19 131 -65t47 -132q0 -40 -8 -79l-47 -224q-13 -63 -13 -88q0 -73 47 -139h-221q-31 47 -31 109q0 25 13 92l47 217q6 40 6 71q0 80 -53.5 111t-161.5 31h-426l-135 -631h-193zM416 797
h422q142 0 234.5 83t92.5 224q0 82 -61.5 129t-185.5 47h-398zM774 1565l-192 352h168l127 -242l229 242h168l-342 -352h-158z" />
    <glyph glyph-name="rcaron" unicode="&#x159;" horiz-adv-x="684" 
d="M20 0l209 987h179l-37 -168q42 76 134.5 134.5t201.5 58.5q31 0 67 -6l-37 -183q-48 8 -94 8q-123 0 -229 -106q-76 -79 -119 -279l-94 -446h-181zM422 1106l-193 352h168l127 -241l230 241h168l-342 -352h-158z" />
    <glyph glyph-name="Sacute" unicode="&#x15a;" horiz-adv-x="1284" 
d="M49 442l203 33q-4 -46 -4 -65q0 -91 48 -156t121.5 -94t162.5 -29q83 0 157.5 19.5t134 57.5t94.5 99.5t35 138.5q0 35 -13.5 63t-34 46.5t-55 34.5t-65 25t-75.5 20l-133 31q-75 17 -126.5 32.5t-110.5 43.5t-95 62t-60 87t-24 119q0 94 34.5 172.5t93 133t137 92.5
t167 55.5t182.5 17.5q120 0 214.5 -32t153 -89t88.5 -131.5t30 -161.5l-209 -37q0 144 -82 214.5t-215 70.5q-65 0 -129.5 -16t-124 -48t-96.5 -88.5t-37 -128.5q0 -34 16.5 -62t41 -47t65 -36.5t75 -28t84.5 -22.5l150 -35q88 -21 149.5 -45.5t112.5 -63t76.5 -95
t25.5 -132.5q0 -102 -39 -187.5t-103.5 -142.5t-149.5 -96.5t-175 -57.5t-182 -18q-79 0 -153 14.5t-141.5 46.5t-117 79t-79 116t-29.5 152q0 29 6 69zM725 1565l217 352h195l-258 -352h-154z" />
    <glyph glyph-name="sacute" unicode="&#x15b;" horiz-adv-x="962" 
d="M12 309l193 41q-4 -36 -4 -51q0 -85 51.5 -133.5t148.5 -48.5q108 0 187.5 47.5t79.5 136.5q0 56 -41 81t-117 40l-123 27q-134 27 -198 83t-64 156q0 59 30 116.5t84.5 104t140.5 75t189 28.5q151 0 251.5 -77t103.5 -204q0 -19 -2 -29l-185 -34q2 14 2 41
q-2 73 -50 117t-140 44q-108 0 -174 -48t-66 -113q0 -83 137 -111l156 -33q61 -13 105 -29t81.5 -41.5t56.5 -65.5t19 -93q0 -115 -70.5 -199t-177 -123t-231.5 -39q-185 0 -281 85.5t-96 211.5q0 13 4 37zM489 1110l218 352h194l-258 -352h-154z" />
    <glyph glyph-name="Scircumflex" unicode="&#x15c;" horiz-adv-x="1284" 
d="M49 442l203 33q-4 -46 -4 -65q0 -91 48 -156t121.5 -94t162.5 -29q83 0 157.5 19.5t134 57.5t94.5 99.5t35 138.5q0 35 -13.5 63t-34 46.5t-55 34.5t-65 25t-75.5 20l-133 31q-75 17 -126.5 32.5t-110.5 43.5t-95 62t-60 87t-24 119q0 94 34.5 172.5t93 133t137 92.5
t167 55.5t182.5 17.5q120 0 214.5 -32t153 -89t88.5 -131.5t30 -161.5l-209 -37q0 144 -82 214.5t-215 70.5q-65 0 -129.5 -16t-124 -48t-96.5 -88.5t-37 -128.5q0 -34 16.5 -62t41 -47t65 -36.5t75 -28t84.5 -22.5l150 -35q88 -21 149.5 -45.5t112.5 -63t76.5 -95
t25.5 -132.5q0 -102 -39 -187.5t-103.5 -142.5t-149.5 -96.5t-175 -57.5t-182 -18q-79 0 -153 14.5t-141.5 46.5t-117 79t-79 116t-29.5 152q0 29 6 69zM471 1565l340 352h160l192 -352h-170l-125 243l-229 -243h-168z" />
    <glyph glyph-name="scircumflex" unicode="&#x15d;" horiz-adv-x="962" 
d="M12 309l193 41q-4 -36 -4 -51q0 -85 51.5 -133.5t148.5 -48.5q108 0 187.5 47.5t79.5 136.5q0 56 -41 81t-117 40l-123 27q-134 27 -198 83t-64 156q0 59 30 116.5t84.5 104t140.5 75t189 28.5q151 0 251.5 -77t103.5 -204q0 -19 -2 -29l-185 -34q2 14 2 41
q-2 73 -50 117t-140 44q-108 0 -174 -48t-66 -113q0 -83 137 -111l156 -33q61 -13 105 -29t81.5 -41.5t56.5 -65.5t19 -93q0 -115 -70.5 -199t-177 -123t-231.5 -39q-185 0 -281 85.5t-96 211.5q0 13 4 37zM227 1106l340 352h160l193 -352h-170l-125 244l-230 -244h-168z
" />
    <glyph glyph-name="Scedilla" unicode="&#x15e;" horiz-adv-x="1284" 
d="M379 -473l20 100h68q47 0 86 30t39 79q0 31 -25 48t-63 17h-68l37 170q-87 10 -162.5 38.5t-136.5 76t-96 121.5t-35 166q0 29 6 69l203 33q-4 -46 -4 -65q0 -91 48 -156t121.5 -94t162.5 -29q83 0 157.5 19.5t134 57.5t94.5 99.5t35 138.5q0 35 -13.5 63t-34 46.5
t-55 34.5t-65 25t-75.5 20l-133 31q-75 17 -126.5 32.5t-110.5 43.5t-95 62t-60 87t-24 119q0 94 34.5 172.5t93 133t137 92.5t167 55.5t182.5 17.5q120 0 214.5 -32t153 -89t88.5 -131.5t30 -161.5l-209 -37q0 144 -82 214.5t-215 70.5q-65 0 -129.5 -16t-124 -48
t-96.5 -88.5t-37 -128.5q0 -34 16.5 -62t41 -47t65 -36.5t75 -28t84.5 -22.5l150 -35q88 -21 149.5 -45.5t112.5 -63t76.5 -95t25.5 -132.5q0 -101 -37.5 -185t-99.5 -141t-144 -96.5t-170 -58.5t-179 -21l-15 -65q64 -4 104 -46t40 -104q0 -95 -76.5 -159t-183.5 -64h-72z
" />
    <glyph glyph-name="scedilla" unicode="&#x15f;" horiz-adv-x="962" 
d="M213 -473l20 100h68q47 0 86 30t39 79q0 31 -25 48t-63 17h-68l39 179q-149 18 -225 99t-76 193q0 13 4 37l193 41q-4 -36 -4 -51q0 -85 51.5 -133.5t148.5 -48.5q108 0 187.5 47.5t79.5 136.5q0 56 -41 81t-117 40l-123 27q-134 27 -198 83t-64 156q0 59 30 116.5
t84.5 104t140.5 75t189 28.5q151 0 251.5 -77t103.5 -204q0 -19 -2 -29l-185 -34q2 14 2 41q-2 73 -50 117t-140 44q-108 0 -174 -48t-66 -113q0 -83 137 -111l156 -33q61 -13 105 -29t81.5 -41.5t56.5 -65.5t19 -93q0 -67 -24.5 -124t-66.5 -98.5t-99 -71.5t-121.5 -46
t-134.5 -19l-17 -77q64 -4 104 -46t40 -104q0 -95 -76.5 -159t-183.5 -64h-72z" />
    <glyph glyph-name="Scaron" unicode="&#x160;" horiz-adv-x="1284" 
d="M49 442l203 33q-4 -46 -4 -65q0 -91 48 -156t121.5 -94t162.5 -29q83 0 157.5 19.5t134 57.5t94.5 99.5t35 138.5q0 35 -13.5 63t-34 46.5t-55 34.5t-65 25t-75.5 20l-133 31q-75 17 -126.5 32.5t-110.5 43.5t-95 62t-60 87t-24 119q0 94 34.5 172.5t93 133t137 92.5
t167 55.5t182.5 17.5q120 0 214.5 -32t153 -89t88.5 -131.5t30 -161.5l-209 -37q0 144 -82 214.5t-215 70.5q-65 0 -129.5 -16t-124 -48t-96.5 -88.5t-37 -128.5q0 -34 16.5 -62t41 -47t65 -36.5t75 -28t84.5 -22.5l150 -35q88 -21 149.5 -45.5t112.5 -63t76.5 -95
t25.5 -132.5q0 -102 -39 -187.5t-103.5 -142.5t-149.5 -96.5t-175 -57.5t-182 -18q-79 0 -153 14.5t-141.5 46.5t-117 79t-79 116t-29.5 152q0 29 6 69zM725 1565l-193 352h168l127 -242l230 242h168l-342 -352h-158z" />
    <glyph glyph-name="scaron" unicode="&#x161;" horiz-adv-x="962" 
d="M12 309l193 41q-4 -36 -4 -51q0 -85 51.5 -133.5t148.5 -48.5q108 0 187.5 47.5t79.5 136.5q0 56 -41 81t-117 40l-123 27q-134 27 -198 83t-64 156q0 59 30 116.5t84.5 104t140.5 75t189 28.5q151 0 251.5 -77t103.5 -204q0 -19 -2 -29l-185 -34q2 14 2 41
q-2 73 -50 117t-140 44q-108 0 -174 -48t-66 -113q0 -83 137 -111l156 -33q61 -13 105 -29t81.5 -41.5t56.5 -65.5t19 -93q0 -115 -70.5 -199t-177 -123t-231.5 -39q-185 0 -281 85.5t-96 211.5q0 13 4 37zM500 1106l-193 352h168l127 -241l229 241h168l-342 -352h-157z" />
    <glyph glyph-name="uni0162" unicode="&#x162;" horiz-adv-x="1155" 
d="M375 0l274 1280h-465l37 166h1116l-34 -166h-455l-275 -1280h-45l-20 -100q64 -4 103.5 -46t39.5 -104q0 -95 -76.5 -159t-183.5 -64h-72l21 100h68q47 0 85.5 30t38.5 79q0 31 -25 48t-63 17h-67l43 199h-45z" />
    <glyph glyph-name="uni0163" unicode="&#x163;" horiz-adv-x="624" 
d="M119 -473l20 100h68q47 0 86 30t39 79q0 31 -25 48t-63 17h-68l47 209q-88 43 -88 137q0 39 8 72l131 623h-190l31 145h190l70 326h180l-68 -326h209l-30 -145h-209l-123 -580q-6 -27 -6 -49q0 -41 21.5 -58.5t66.5 -17.5q48 0 100 10l-29 -145q-77 -16 -135 -16
q-18 0 -26 2l-19 -88q64 -4 104 -46t40 -104q0 -95 -76.5 -159t-184.5 -64h-71z" />
    <glyph glyph-name="Tcaron" unicode="&#x164;" horiz-adv-x="1155" 
d="M375 0l274 1280h-465l37 166h1116l-34 -166h-455l-275 -1280h-198zM717 1565l-193 352h168l127 -242l230 242h168l-343 -352h-157z" />
    <glyph glyph-name="tcaron" unicode="&#x165;" horiz-adv-x="624" 
d="M143 219l131 623h-190l31 145h190l70 326h180l-68 -326h209l-30 -145h-209l-123 -580q-6 -27 -6 -49q0 -41 21.5 -58.5t66.5 -17.5q48 0 100 10l-29 -145q-77 -16 -135 -16q-96 0 -156.5 40.5t-60.5 120.5q0 39 8 72zM600 1096l152 350h184l-219 -350h-117z" />
    <glyph glyph-name="Tbar" unicode="&#x166;" horiz-adv-x="1171" 
d="M272 891l27 127h299l57 262h-465l37 166h1116l-34 -166h-455l-57 -262h301l-27 -127h-301l-190 -891h-199l190 891h-299z" />
    <glyph glyph-name="tbar" unicode="&#x167;" horiz-adv-x="636" 
d="M57 502l25 123h151l48 217h-191l31 145h190l70 326h180l-67 -326h208l-30 -145h-209l-47 -217h190l-24 -123h-191l-51 -240q-6 -27 -6 -49q0 -41 21.5 -58.5t66.5 -17.5q48 0 100 10l-28 -145q-77 -16 -136 -16q-96 0 -156.5 40.5t-60.5 120.5q0 35 9 72l59 283h-152z
" />
    <glyph glyph-name="Utilde" unicode="&#x168;" horiz-adv-x="1433" 
d="M147 510l199 936h197l-197 -936q-12 -56 -12 -127q0 -119 84 -185.5t233 -66.5q176 0 291.5 98t153.5 277l198 940h199l-199 -940q-56 -265 -229.5 -403t-427.5 -138q-235 0 -370.5 110t-135.5 292q0 65 16 143zM621 1608l38 176q38 32 90.5 54t96.5 22q60 0 149 -39
q7 -3 23.5 -9.5t25.5 -10t22 -7.5t24 -6t22 -2q91 0 191 104l-39 -176q-40 -34 -92.5 -56t-98.5 -22q-13 0 -27 2t-24.5 4t-26 7t-22 7.5t-24.5 9.5t-23 9q-10 3 -29.5 10.5t-30.5 11.5t-27 7.5t-30 3.5q-92 0 -188 -100z" />
    <glyph glyph-name="utilde" unicode="&#x169;" horiz-adv-x="1067" 
d="M102 436l119 551h180l-116 -549q-25 -114 -25 -170q0 -70 45.5 -107.5t124.5 -37.5q121 0 213 98q48 51 72 110t51 185l100 471h183l-209 -987h-183l35 158q-32 -67 -126.5 -125t-213.5 -58q-124 0 -201 71t-77 192q0 64 28 198zM334 1149l39 176q38 32 90 54t96 22
q61 0 150 -39q5 -2 28.5 -11.5t32.5 -12.5t25.5 -7t29.5 -4q90 0 191 105l-39 -177q-39 -33 -92 -55t-99 -22q-13 0 -27 2t-24.5 4t-26 7t-22 7.5t-24.5 9.5t-23 9q-9 3 -29 10.5t-31 11t-27 7t-30 3.5q-92 0 -188 -100z" />
    <glyph glyph-name="Umacron" unicode="&#x16a;" horiz-adv-x="1433" 
d="M147 510l199 936h197l-197 -936q-12 -56 -12 -127q0 -119 84 -185.5t233 -66.5q176 0 291.5 98t153.5 277l198 940h199l-199 -940q-56 -265 -229.5 -403t-427.5 -138q-235 0 -370.5 110t-135.5 292q0 65 16 143zM614 1671l31 152h621l-33 -152h-619z" />
    <glyph glyph-name="umacron" unicode="&#x16b;" horiz-adv-x="1067" 
d="M102 436l119 551h180l-116 -549q-25 -114 -25 -170q0 -70 45.5 -107.5t124.5 -37.5q121 0 213 98q48 51 72 110t51 185l100 471h183l-209 -987h-183l35 158q-32 -67 -126.5 -125t-213.5 -58q-124 0 -201 71t-77 192q0 64 28 198zM342 1212l31 152h620l-32 -152h-619z" />
    <glyph glyph-name="Ubreve" unicode="&#x16c;" horiz-adv-x="1433" 
d="M147 510l199 936h197l-197 -936q-12 -56 -12 -127q0 -119 84 -185.5t233 -66.5q176 0 291.5 98t153.5 277l198 940h199l-199 -940q-56 -265 -229.5 -403t-427.5 -138q-235 0 -370.5 110t-135.5 292q0 65 16 143zM676 1855l10 50h145l-10 -47q-6 -30 -6 -60
q0 -58 31 -91.5t96 -33.5q79 0 130 51t69 134l10 47h145l-10 -47q-30 -142 -134.5 -227t-238.5 -85q-111 0 -178 62t-67 170q0 41 8 77z" />
    <glyph glyph-name="ubreve" unicode="&#x16d;" horiz-adv-x="1067" 
d="M102 436l119 551h180l-116 -549q-25 -114 -25 -170q0 -70 45.5 -107.5t124.5 -37.5q121 0 213 98q48 51 72 110t51 185l100 471h183l-209 -987h-183l35 158q-32 -67 -126.5 -125t-213.5 -58q-124 0 -201 71t-77 192q0 64 28 198zM397 1397l11 49h145l-10 -47
q-6 -30 -6 -60q0 -58 31 -91.5t96 -33.5q79 0 129.5 51t68.5 134l10 47h146l-10 -47q-30 -142 -134.5 -227t-238.5 -85q-111 0 -178.5 62t-67.5 170q0 42 8 78z" />
    <glyph glyph-name="Uring" unicode="&#x16e;" horiz-adv-x="1433" 
d="M147 510l199 936h197l-197 -936q-12 -56 -12 -127q0 -119 84 -185.5t233 -66.5q176 0 291.5 98t153.5 277l198 940h199l-199 -940q-56 -265 -229.5 -403t-427.5 -138q-235 0 -370.5 110t-135.5 292q0 65 16 143zM950 1640q54 0 94.5 39t40.5 93q0 38 -25.5 65t-64.5 27
q-54 0 -94.5 -39.5t-40.5 -91.5q0 -38 25.5 -65.5t64.5 -27.5zM930 1552q-70 0 -116 49.5t-46 118.5q0 96 75.5 164t170.5 68q70 0 116 -49.5t46 -118.5q0 -97 -75.5 -164.5t-170.5 -67.5z" />
    <glyph glyph-name="uring" unicode="&#x16f;" horiz-adv-x="1067" 
d="M102 436l119 551h180l-116 -549q-25 -114 -25 -170q0 -70 45.5 -107.5t124.5 -37.5q121 0 213 98q48 51 72 110t51 185l100 471h183l-209 -987h-183l35 158q-32 -67 -126.5 -125t-213.5 -58q-124 0 -201 71t-77 192q0 64 28 198zM662 1182q54 0 94.5 38.5t40.5 92.5
q0 38 -25.5 65t-64.5 27q-54 0 -95 -39.5t-41 -91.5q0 -38 26 -65t65 -27zM641 1094q-70 0 -116 49.5t-46 118.5q0 96 75.5 163.5t170.5 67.5q70 0 116 -49.5t46 -118.5q0 -97 -75 -164t-171 -67z" />
    <glyph glyph-name="Uhungarumlaut" unicode="&#x170;" horiz-adv-x="1433" 
d="M147 510l199 936h197l-197 -936q-12 -56 -12 -127q0 -119 84 -185.5t233 -66.5q176 0 291.5 98t153.5 277l198 940h199l-199 -940q-56 -265 -229.5 -403t-427.5 -138q-235 0 -370.5 110t-135.5 292q0 65 16 143zM672 1565l217 352h192l-258 -352h-151zM940 1565l217 352
h195l-260 -352h-152z" />
    <glyph glyph-name="uhungarumlaut" unicode="&#x171;" horiz-adv-x="1067" 
d="M102 436l119 551h180l-116 -549q-25 -114 -25 -170q0 -70 45.5 -107.5t124.5 -37.5q121 0 213 98q48 51 72 110t51 185l100 471h183l-209 -987h-183l35 158q-32 -67 -126.5 -125t-213.5 -58q-124 0 -201 71t-77 192q0 64 28 198zM410 1106l217 352h192l-258 -352h-151z
M678 1106l217 352h195l-261 -352h-151z" />
    <glyph glyph-name="Uogonek" unicode="&#x172;" horiz-adv-x="1433" 
d="M682 -473h-51q-113 0 -183.5 70.5t-70.5 177.5q0 114 88 209q-159 37 -246.5 137.5t-87.5 245.5q0 65 16 143l199 936h197l-197 -936q-12 -56 -12 -127q0 -119 84 -185.5t233 -66.5q176 0 291.5 98t153.5 277l198 940h199l-199 -940q-56 -265 -229.5 -403t-427.5 -138
h-33q-49 -32 -79.5 -82.5t-30.5 -107.5q0 -64 38 -106t99 -42h71z" />
    <glyph glyph-name="uogonek" unicode="&#x173;" horiz-adv-x="1067" 
d="M1049 987l-209 -987q-103 0 -171.5 -69t-68.5 -156q0 -64 38 -106t99 -42h72l-21 -100h-51q-113 0 -183.5 70.5t-70.5 177.5q0 87 52.5 164.5t134.5 121.5l22 97q-32 -67 -126.5 -125t-213.5 -58q-124 0 -201 71t-77 192q0 64 28 198l119 551h180l-116 -549
q-25 -114 -25 -170q0 -70 45.5 -107.5t124.5 -37.5q121 0 213 98q48 51 72 110t51 185l100 471h183z" />
    <glyph glyph-name="Wcircumflex" unicode="&#x174;" horiz-adv-x="1980" 
d="M305 0l-88 1446h197l67 -1251l576 1251h274l39 -1251l602 1251h199l-709 -1446h-272l-35 1270l-575 -1270h-275zM870 1565l340 352h160l193 -352h-170l-125 243l-230 -243h-168z" />
    <glyph glyph-name="wcircumflex" unicode="&#x175;" horiz-adv-x="1517" 
d="M217 0l-100 987h182l72 -778l379 778h225l55 -778l402 778h178l-523 -987h-215l-53 782l-385 -782h-217zM528 1106l340 352h160l193 -352h-170l-125 244l-230 -244h-168z" />
    <glyph glyph-name="Ycircumflex" unicode="&#x176;" horiz-adv-x="1296" 
d="M440 0l144 672l-369 774h229l277 -619l551 619h227l-717 -784l-143 -662h-199zM514 1565l340 352h160l192 -352h-170l-125 243l-229 -243h-168z" />
    <glyph glyph-name="ycircumflex" unicode="&#x177;" horiz-adv-x="944" 
d="M-141 -469l35 158q47 -13 73 -13q137 0 195 103l114 201l-153 1007h188l111 -782l436 782h182l-735 -1278q-108 -188 -325 -188q-38 0 -121 10zM256 1106l340 352h160l192 -352h-170l-125 244l-229 -244h-168z" />
    <glyph glyph-name="Ydieresis" unicode="&#x178;" horiz-adv-x="1296" 
d="M440 0l144 672l-369 774h229l277 -619l551 619h227l-717 -784l-143 -662h-199zM567 1628l45 215h209l-45 -215h-209zM977 1628l47 215h207l-45 -215h-209z" />
    <glyph glyph-name="Zacute" unicode="&#x179;" horiz-adv-x="1218" 
d="M-55 0l41 190l1069 1088h-809l37 168h1052l-37 -168l-1097 -1110h917l-37 -168h-1136zM729 1565l217 352h195l-258 -352h-154z" />
    <glyph glyph-name="zacute" unicode="&#x17a;" horiz-adv-x="894" 
d="M-61 0l34 164l707 678h-522l30 145h746l-31 -139l-727 -701h598l-33 -147h-802zM489 1110l218 352h194l-258 -352h-154z" />
    <glyph glyph-name="Zdotaccent" unicode="&#x17b;" horiz-adv-x="1218" 
d="M-55 0l41 190l1069 1088h-809l37 168h1052l-37 -168l-1097 -1110h917l-37 -168h-1136zM715 1628l47 219h209l-47 -219h-209z" />
    <glyph glyph-name="zdotaccent" unicode="&#x17c;" horiz-adv-x="894" 
d="M-61 0l34 164l707 678h-522l30 145h746l-31 -139l-727 -701h598l-33 -147h-802zM483 1169l47 220h209l-47 -220h-209z" />
    <glyph glyph-name="Zcaron" unicode="&#x17d;" horiz-adv-x="1218" 
d="M-55 0l41 190l1069 1088h-809l37 168h1052l-37 -168l-1097 -1110h917l-37 -168h-1136zM729 1565l-192 352h168l126 -242l230 242h168l-342 -352h-158z" />
    <glyph glyph-name="zcaron" unicode="&#x17e;" horiz-adv-x="894" 
d="M-61 0l34 164l707 678h-522l30 145h746l-31 -139l-727 -701h598l-33 -147h-802zM500 1106l-193 352h168l127 -241l229 241h168l-342 -352h-157z" />
    <glyph glyph-name="longs" unicode="&#x17f;" horiz-adv-x="428" 
d="M18 0l248 1174q31 142 108.5 218t217.5 76q88 0 127 -10l-33 -147q-75 6 -80 6q-62 0 -102.5 -37t-59.5 -127l-245 -1153h-181z" />
    <glyph glyph-name="uni018F" unicode="&#x18f;" horiz-adv-x="1273" 
d="M354 965l-192 55q10 62 34 123.5t67.5 123.5t100 109.5t138.5 77t176 29.5q140 0 245 -53.5t170 -154.5t96.5 -237.5t31.5 -310.5q0 -125 -22 -238.5t-67 -209t-108.5 -165.5t-151 -109.5t-190.5 -39.5q-127 0 -229.5 53t-170 147t-103.5 223.5t-36 283.5q0 38 4 84h863
q-1 112 -17.5 206.5t-53 176.5t-102.5 129t-157 47q-69 0 -126.5 -29t-96.5 -79.5t-65 -111.5t-38 -130zM1006 590h-644q0 -76 21.5 -155t60.5 -148t101.5 -112.5t136.5 -43.5q96 0 172 68.5t114 172t38 218.5z" />
    <glyph glyph-name="uni0190" unicode="&#x190;" horiz-adv-x="1298" 
d="M1024 438l205 -51q-71 -205 -245.5 -313.5t-395.5 -108.5q-104 0 -199 26t-171 75t-121.5 127.5t-45.5 175.5q0 160 108.5 268t299.5 139q-94 39 -143.5 110t-49.5 161q0 122 74 221.5t201 156t280 56.5q253 0 394 -108t147 -306l-209 -37q-4 152 -90 219.5t-244 67.5
q-147 0 -248.5 -76.5t-101.5 -193.5q0 -89 71 -148t199 -59h205l-43 -172h-207q-207 0 -320.5 -82t-113.5 -209q0 -111 93 -179.5t247 -68.5q144 0 259.5 78.5t164.5 230.5z" />
    <glyph glyph-name="florin" unicode="&#x192;" horiz-adv-x="698" 
d="M-268 -455l45 146q31 -10 73 -10q56 0 84 36t52 111l323 1012h-149l47 147h147l76 240q35 108 107 174.5t178 66.5q67 0 141 -24l-45 -146q-32 11 -74 11q-30 0 -53.5 -12.5t-39.5 -37t-26 -47.5t-20 -57l-51 -168h176l-47 -147h-176l-342 -1076q-34 -107 -106.5 -175
t-180.5 -68q-65 0 -139 24z" />
    <glyph glyph-name="uni0194" unicode="&#x194;" horiz-adv-x="1218" 
d="M1454 1446l-805 -1198q41 -173 56.5 -253.5t15.5 -139.5q0 -134 -80.5 -223t-212.5 -89q-111 0 -182.5 61t-71.5 160q0 81 48 171.5t206 310.5l-274 1200h202l222 -1016l673 1016h203zM500 70q-77 -115 -110.5 -179.5t-33.5 -113.5q0 -38 19.5 -60t52.5 -22q46 0 74 48
t28 114t-30 213z" />
    <glyph glyph-name="uni0197" unicode="&#x197;" horiz-adv-x="536" 
d="M70 680l26 135h142l135 631h196l-135 -631h141l-26 -135h-143l-146 -680h-194l143 680h-139z" />
    <glyph glyph-name="uni019D" unicode="&#x19d;" horiz-adv-x="1548" 
d="M16 -174l344 1620h269l514 -1247l264 1247h188l-309 -1446h-285l-497 1245l-303 -1425q-15 -72 -36.5 -123t-59 -93.5t-97.5 -63.5t-143 -21q-74 0 -123 10l33 154q56 -9 73 -9q46 0 78 13t49.5 38.5t25.5 47t15 53.5z" />
    <glyph glyph-name="uni01B5" unicode="&#x1b5;" horiz-adv-x="1241" 
d="M180 678l27 127h393l465 473h-809l37 168h1053l-37 -168l-469 -473h325l-26 -127h-424l-504 -510h917l-36 -168h-1137l41 190l479 488h-295z" />
    <glyph glyph-name="uni01B6" unicode="&#x1b6;" horiz-adv-x="909" 
d="M88 446l27 119h284l289 277h-522l31 145h745l-31 -139l-293 -283h195l-25 -119h-294l-310 -299h598l-32 -147h-803l35 164l294 282h-188z" />
    <glyph glyph-name="uni01CD" unicode="&#x1cd;" horiz-adv-x="1374" 
d="M-102 0l860 1446h264l246 -1446h-213l-70 428h-623l-249 -428h-215zM457 594h501l-108 676zM827 1565l-192 352h168l127 -242l229 242h168l-342 -352h-158z" />
    <glyph glyph-name="uni01CE" unicode="&#x1ce;" horiz-adv-x="1017" 
d="M809 0h-184q3 69 14 131q-132 -156 -348 -156q-133 0 -205 74.5t-72 173.5q0 67 22 119.5t65 90.5t93.5 64t118.5 48q72 23 314 61q82 12 113.5 47.5t31.5 89.5q0 19 -6.5 37.5t-23 40.5t-54.5 35.5t-92 13.5q-221 0 -281 -208l-178 34q46 150 180.5 233t309.5 83
q57 0 112 -14t103.5 -42t78 -77t29.5 -113q0 -59 -24 -164l-80 -362q-34 -148 -37 -240zM563 467l-65 -12q-136 -25 -190 -51q-107 -50 -107 -152q0 -57 38.5 -96t112.5 -39q47 0 96 14t99 44.5t90 87t57 132.5l25 107q-38 -15 -156 -35zM563 1106l-192 352h168l127 -241
l229 241h168l-342 -352h-158z" />
    <glyph glyph-name="uni01CF" unicode="&#x1cf;" horiz-adv-x="512" 
d="M53 0l307 1446h199l-309 -1446h-197zM397 1565l-192 352h168l127 -242l229 242h168l-342 -352h-158z" />
    <glyph glyph-name="uni01D0" unicode="&#x1d0;" horiz-adv-x="430" 
d="M20 0l209 987h183l-211 -987h-181zM260 1106l-192 352h168l126 -241l230 241h168l-342 -352h-158z" />
    <glyph glyph-name="uni01D1" unicode="&#x1d1;" horiz-adv-x="1556" 
d="M692 131q115 0 218.5 43t181 117.5t135 172.5t87 212.5t29.5 232.5q0 86 -22.5 158t-67.5 128.5t-119 88t-171 31.5q-115 0 -218.5 -42.5t-182 -117.5t-136 -173t-87.5 -212.5t-30 -232.5q0 -86 23 -158t68.5 -128t120 -88t171.5 -32zM676 -35q-122 0 -220 30.5t-163 83
t-109 125t-63 153t-19 171.5q0 139 39.5 277t117 259t182 214.5t244.5 148t294 54.5q122 0 220 -30.5t163 -83t108.5 -125t62.5 -153t19 -171.5q0 -139 -39.5 -277t-117 -259t-181.5 -214.5t-244 -148t-294 -54.5zM918 1565l-193 352h168l127 -242l229 242h168l-342 -352
h-157z" />
    <glyph glyph-name="uni01D2" unicode="&#x1d2;" horiz-adv-x="1083" 
d="M627 866q-81 0 -154 -43t-122.5 -111t-78 -151t-28.5 -164q0 -122 54 -199t159 -77q81 0 154 43t122.5 111t78 151t28.5 164q0 120 -54 198t-159 78zM643 1012q102 0 178 -34t120 -93.5t65.5 -132t21.5 -158.5q0 -111 -43.5 -222t-118.5 -199t-186.5 -143t-237.5 -55
q-102 0 -178.5 34t-121 93.5t-66 132.5t-21.5 158q0 87 27 176t79.5 168t123 141t163.5 98t195 36zM584 1106l-193 352h168l127 -241l229 241h168l-342 -352h-157z" />
    <glyph glyph-name="uni01D3" unicode="&#x1d3;" horiz-adv-x="1433" 
d="M147 510l199 936h197l-197 -936q-12 -56 -12 -127q0 -119 84 -185.5t233 -66.5q176 0 291.5 98t153.5 277l198 940h199l-199 -940q-56 -265 -229.5 -403t-427.5 -138q-235 0 -370.5 110t-135.5 292q0 65 16 143zM827 1565l-192 352h168l127 -242l229 242h168l-342 -352
h-158z" />
    <glyph glyph-name="uni01D4" unicode="&#x1d4;" horiz-adv-x="1067" 
d="M102 436l119 551h180l-116 -549q-25 -114 -25 -170q0 -70 45.5 -107.5t124.5 -37.5q121 0 213 98q48 51 72 110t51 185l100 471h183l-209 -987h-183l35 158q-32 -67 -126.5 -125t-213.5 -58q-124 0 -201 71t-77 192q0 64 28 198zM561 1106l-192 352h168l127 -241l229 241
h168l-342 -352h-158z" />
    <glyph glyph-name="Gcaron" unicode="&#x1e6;" horiz-adv-x="1507" 
d="M1114 0l39 180q-202 -215 -483 -215q-143 0 -253 45t-177 125t-100.5 182.5t-33.5 223.5q0 144 40 282.5t117 256.5t182 208t245 141.5t295 51.5q223 0 365.5 -104t185.5 -294l-213 -43q-31 130 -123.5 202.5t-232.5 72.5q-113 0 -216 -43t-181.5 -118t-137 -173
t-89 -211.5t-30.5 -228.5q0 -179 101 -294.5t280 -115.5q206 0 350 126.5t199 365.5h-461l35 165h653l-167 -788h-189zM903 1565l-192 352h168l127 -242l229 242h168l-342 -352h-158z" />
    <glyph glyph-name="gcaron" unicode="&#x1e7;" horiz-adv-x="1130" 
d="M-23 -133l199 33q-2 -12 -2 -35q0 -201 209 -201q71 0 128 22.5t90 53t58.5 77.5t35.5 80.5t20 77.5l39 168q-53 -69 -146.5 -114t-175.5 -45q-85 0 -151 23.5t-107.5 61.5t-68.5 92t-37.5 110t-10.5 120q0 107 42 217t115 200t183 147t234 57q96 0 176 -51.5t98 -129.5
l33 156h174l-215 -1020q-94 -448 -545 -448q-174 0 -274 90.5t-101 257.5zM463 129q82 0 155 43t122 111t77.5 151.5t28.5 165.5q0 120 -58 193t-157 73q-108 0 -199 -70t-140.5 -177.5t-49.5 -221.5q0 -74 21 -132.5t72.5 -97t127.5 -38.5zM602 1106l-192 352h168l127 -241
l229 241h168l-342 -352h-158z" />
    <glyph glyph-name="uni01E8" unicode="&#x1e8;" horiz-adv-x="1280" 
d="M53 0l307 1446h199l-139 -645l782 645h252l-838 -678l625 -768h-262l-576 721l-153 -721h-197zM764 1565l-193 352h168l127 -242l230 242h168l-342 -352h-158z" />
    <glyph glyph-name="uni01E9" unicode="&#x1e9;" horiz-adv-x="995" 
d="M18 0l308 1446h180l-187 -873l521 414h233l-573 -442l444 -545h-235l-406 489l-106 -489h-179zM354 1565l-192 352h168l127 -242l229 242h168l-342 -352h-158z" />
    <glyph glyph-name="uni01EA" unicode="&#x1ea;" horiz-adv-x="1556" 
d="M739 -473h-51q-113 0 -183.5 70.5t-70.5 177.5q0 114 84 205q-109 21 -191 74t-130 127.5t-71.5 161t-23.5 185.5q0 139 39.5 277t117 259t182 214.5t244.5 148t294 54.5q122 0 220 -30.5t163 -83t108.5 -125t62.5 -153t19 -171.5q0 -139 -39.5 -277t-117 -259
t-181.5 -214.5t-244 -148t-294 -54.5h-14q-49 -32 -80 -82.5t-31 -107.5q0 -64 38 -106t99 -42h72zM692 131q115 0 218.5 43t181 117.5t135 172.5t87 212.5t29.5 232.5q0 86 -22.5 158t-67.5 128.5t-119 88t-171 31.5q-115 0 -218.5 -42.5t-182 -117.5t-136 -173
t-87.5 -212.5t-30 -232.5q0 -86 23 -158t68.5 -128t120 -88t171.5 -32z" />
    <glyph glyph-name="uni01EB" unicode="&#x1eb;" horiz-adv-x="1083" 
d="M504 -473h-51q-113 0 -183.5 70.5t-70.5 177.5q0 124 100 221q-125 39 -184.5 146t-59.5 251q0 87 27 176t79.5 168t123 141t163.5 98t195 36t178 -34t120 -93.5t65.5 -132t21.5 -158.5q0 -111 -43.5 -221.5t-118 -198.5t-186 -143t-236.5 -56q-57 -28 -93 -82.5
t-36 -117.5q0 -64 38.5 -106t99.5 -42h71zM627 866q-81 0 -154 -43t-122.5 -111t-78 -151t-28.5 -164q0 -122 54 -199t159 -77q81 0 154 43t122.5 111t78 151t28.5 164q0 120 -54 198t-159 78z" />
    <glyph glyph-name="uni01F8" unicode="&#x1f8;" horiz-adv-x="1550" 
d="M53 0l307 1446h271l512 -1245l266 1245h186l-307 -1446h-287l-497 1243l-264 -1243h-187zM924 1565l-109 352h195l67 -352h-153z" />
    <glyph glyph-name="uni01F9" unicode="&#x1f9;" horiz-adv-x="1067" 
d="M20 0l209 987h181l-35 -158q34 68 128 125.5t214 57.5q124 0 201 -70.5t77 -191.5q0 -56 -30 -199l-117 -551h-180l114 549q27 123 27 170q0 70 -45.5 107.5t-124.5 37.5q-121 0 -207 -92q-51 -53 -76.5 -113.5t-52.5 -187.5l-102 -471h-181zM649 1106l-108 352h194
l68 -352h-154z" />
    <glyph glyph-name="Aringacute" unicode="&#x1fa;" horiz-adv-x="1374" 
d="M903 1853l275 273h190l-317 -273h-148zM-102 0l856 1438q-45 48 -45 118q0 96 75 164t170 68q70 0 116 -49.5t46 -118.5q0 -107 -94 -180l246 -1440h-213l-70 428h-623l-249 -428h-215zM457 594h501l-108 676zM891 1477q54 0 94.5 38.5t40.5 92.5q0 38 -25.5 65t-64.5 27
q-54 0 -94.5 -39.5t-40.5 -91.5q0 -38 25.5 -65t64.5 -27z" />
    <glyph glyph-name="aringacute" unicode="&#x1fb;" horiz-adv-x="1017" 
d="M637 1556l274 271h191l-318 -271h-147zM643 1184q53 0 94 38.5t41 90.5q0 37 -25 63.5t-63 26.5q-52 0 -93.5 -38.5t-41.5 -90.5q0 -38 24.5 -64t63.5 -26zM625 1094q-71 0 -117.5 48.5t-46.5 117.5q0 93 77 163t171 70q71 0 116 -48.5t45 -117.5q0 -94 -75.5 -163.5
t-169.5 -69.5zM809 0h-184q3 69 14 131q-132 -156 -348 -156q-133 0 -205 74.5t-72 173.5q0 67 22 119.5t65 90.5t93.5 64t118.5 48q72 23 314 61q82 12 113.5 47.5t31.5 89.5q0 19 -6.5 37.5t-23 40.5t-54.5 35.5t-92 13.5q-221 0 -281 -208l-178 34q46 150 180.5 233
t309.5 83q57 0 112 -14t103.5 -42t78 -77t29.5 -113q0 -59 -24 -164l-80 -362q-34 -148 -37 -240zM563 467l-65 -12q-136 -25 -190 -51q-107 -50 -107 -152q0 -57 38.5 -96t112.5 -39q47 0 96 14t99 44.5t90 87t57 132.5l25 107q-38 -15 -156 -35z" />
    <glyph glyph-name="AEacute" unicode="&#x1fc;" horiz-adv-x="1916" 
d="M-129 0l1198 1446h952l-36 -166h-658l-96 -451h631l-35 -165h-631l-106 -498h675l-36 -166h-875l111 512h-449l-416 -512h-229zM655 682h344l125 575zM1389 1565l217 352h194l-258 -352h-153z" />
    <glyph glyph-name="aeacute" unicode="&#x1fd;" horiz-adv-x="1660" 
d="M317 662l-176 34q38 107 135 195q66 59 155 90t185 31q224 0 291 -154q148 154 353 154q92 0 161.5 -31t110 -85.5t60.5 -121t20 -143.5q0 -69 -25 -182h-706q-15 -46 -15 -111q0 -100 51 -160.5t168 -60.5q105 0 178.5 63t110.5 148l166 -37q-49 -122 -186 -219
t-295 -97q-124 0 -208.5 56t-119.5 153q-148 -209 -426 -209q-133 0 -211 75.5t-78 178.5q0 86 37 152t94.5 104.5t139 63t159 33t164.5 8.5h119l16 74q9 52 9 59q0 65 -41.5 106t-124.5 41q-100 0 -171.5 -52t-99.5 -156zM680 375l14 74h-141q-44 0 -85 -4t-91 -16.5
t-86 -33.5t-61 -59.5t-25 -89.5q0 -59 41 -93t108 -34q33 0 68.5 7t77 25t76 46t63 74t41.5 104zM911 590h519q8 50 8 76q0 87 -51 145.5t-156 58.5q-119 0 -206.5 -80.5t-113.5 -199.5zM864 1110l217 352h195l-258 -352h-154z" />
    <glyph glyph-name="Oslashacute" unicode="&#x1fe;" horiz-adv-x="1562" 
d="M-16 0l206 197q-84 134 -84 331q0 139 39.5 276.5t116.5 259t181.5 215t244 148t293.5 54.5q265 0 416 -144l112 109h164l-205 -197q86 -140 86 -331q0 -139 -39.5 -277t-117 -259t-181.5 -214.5t-244 -148t-294 -54.5q-265 0 -416 144l-117 -109h-161zM348 344l901 858
q-98 113 -284 113q-143 0 -267 -66t-207 -175t-130.5 -249t-47.5 -288q0 -116 35 -193zM1311 1102l-901 -856q97 -115 284 -115q115 0 218.5 42.5t182 117.5t136 173t87.5 212.5t30 232.5q0 109 -37 193zM922 1565l217 352h194l-258 -352h-153z" />
    <glyph glyph-name="oslashacute" unicode="&#x1ff;" horiz-adv-x="1093" 
d="M-57 0l170 158q-52 96 -52 235q0 109 43.5 219.5t118.5 199t186.5 144.5t237.5 56q177 0 277 -103l86 78h147l-174 -162q51 -99 51 -231q0 -112 -43.5 -222.5t-118.5 -198.5t-187 -143t-239 -55q-174 0 -274 103l-82 -78h-147zM262 293l531 493q-57 80 -160 80
q-81 0 -154 -43t-122.5 -111t-78 -151t-28.5 -164q0 -55 12 -104zM834 688l-531 -491q53 -76 160 -76q81 0 154 43t122.5 111t78 151t28.5 164q0 54 -12 98zM590 1110l217 352h194l-258 -352h-153z" />
    <glyph glyph-name="uni0218" unicode="&#x218;" horiz-adv-x="1284" 
d="M49 442l203 33q-4 -46 -4 -65q0 -91 48 -156t121.5 -94t162.5 -29q83 0 157.5 19.5t134 57.5t94.5 99.5t35 138.5q0 35 -13.5 63t-34 46.5t-55 34.5t-65 25t-75.5 20l-133 31q-75 17 -126.5 32.5t-110.5 43.5t-95 62t-60 87t-24 119q0 94 34.5 172.5t93 133t137 92.5
t167 55.5t182.5 17.5q120 0 214.5 -32t153 -89t88.5 -131.5t30 -161.5l-209 -37q0 144 -82 214.5t-215 70.5q-65 0 -129.5 -16t-124 -48t-96.5 -88.5t-37 -128.5q0 -34 16.5 -62t41 -47t65 -36.5t75 -28t84.5 -22.5l150 -35q88 -21 149.5 -45.5t112.5 -63t76.5 -95
t25.5 -132.5q0 -102 -39 -187.5t-103.5 -142.5t-149.5 -96.5t-175 -57.5t-182 -18q-79 0 -153 14.5t-141.5 46.5t-117 79t-79 116t-29.5 152q0 29 6 69zM344 -465l150 352h182l-215 -352h-117z" />
    <glyph glyph-name="uni0219" unicode="&#x219;" horiz-adv-x="962" 
d="M12 309l193 41q-4 -36 -4 -51q0 -85 51.5 -133.5t148.5 -48.5q108 0 187.5 47.5t79.5 136.5q0 56 -41 81t-117 40l-123 27q-134 27 -198 83t-64 156q0 59 30 116.5t84.5 104t140.5 75t189 28.5q151 0 251.5 -77t103.5 -204q0 -19 -2 -29l-185 -34q2 14 2 41
q-2 73 -50 117t-140 44q-108 0 -174 -48t-66 -113q0 -83 137 -111l156 -33q61 -13 105 -29t81.5 -41.5t56.5 -65.5t19 -93q0 -115 -70.5 -199t-177 -123t-231.5 -39q-185 0 -281 85.5t-96 211.5q0 13 4 37zM162 -465l149 352h183l-215 -352h-117z" />
    <glyph glyph-name="uni021A" unicode="&#x21a;" horiz-adv-x="1155" 
d="M375 0l274 1280h-465l37 166h1116l-34 -166h-455l-275 -1280h-198zM215 -465l150 352h182l-215 -352h-117z" />
    <glyph glyph-name="uni021B" unicode="&#x21b;" horiz-adv-x="624" 
d="M143 219l131 623h-190l31 145h190l70 326h180l-68 -326h209l-30 -145h-209l-123 -580q-6 -27 -6 -49q0 -41 21.5 -58.5t66.5 -17.5q48 0 100 10l-29 -145q-77 -16 -135 -16q-96 0 -156.5 40.5t-60.5 120.5q0 39 8 72zM68 -465l149 352h182l-215 -352h-116z" />
    <glyph glyph-name="uni021E" unicode="&#x21e;" horiz-adv-x="1480" 
d="M53 0l307 1446h199l-131 -615h768l133 615h199l-309 -1446h-199l141 666h-770l-141 -666h-197zM883 1565l-193 352h168l127 -242l229 242h168l-342 -352h-157z" />
    <glyph glyph-name="uni021F" unicode="&#x21f;" horiz-adv-x="1069" 
d="M18 0l308 1446h182l-131 -617q32 68 127.5 125.5t218.5 57.5q119 0 196.5 -71t77.5 -191q0 -62 -28 -199l-119 -551h-182l116 549q27 132 27 164q0 69 -45.5 110t-120.5 41q-53 0 -109 -23t-98 -65q-53 -52 -81.5 -114t-55.5 -191l-100 -471h-183zM356 1565l-192 352h168
l127 -242l229 242h168l-342 -352h-158z" />
    <glyph glyph-name="uni022E" unicode="&#x22e;" horiz-adv-x="1556" 
d="M692 131q115 0 218.5 43t181 117.5t135 172.5t87 212.5t29.5 232.5q0 86 -22.5 158t-67.5 128.5t-119 88t-171 31.5q-115 0 -218.5 -42.5t-182 -117.5t-136 -173t-87.5 -212.5t-30 -232.5q0 -86 23 -158t68.5 -128t120 -88t171.5 -32zM676 -35q-122 0 -220 30.5t-163 83
t-109 125t-63 153t-19 171.5q0 139 39.5 277t117 259t182 214.5t244.5 148t294 54.5q122 0 220 -30.5t163 -83t108.5 -125t62.5 -153t19 -171.5q0 -139 -39.5 -277t-117 -259t-181.5 -214.5t-244 -148t-294 -54.5zM903 1628l47 219h209l-47 -219h-209z" />
    <glyph glyph-name="uni022F" unicode="&#x22f;" horiz-adv-x="1083" 
d="M627 866q-81 0 -154 -43t-122.5 -111t-78 -151t-28.5 -164q0 -122 54 -199t159 -77q81 0 154 43t122.5 111t78 151t28.5 164q0 120 -54 198t-159 78zM643 1012q102 0 178 -34t120 -93.5t65.5 -132t21.5 -158.5q0 -111 -43.5 -222t-118.5 -199t-186.5 -143t-237.5 -55
q-102 0 -178.5 34t-121 93.5t-66 132.5t-21.5 158q0 87 27 176t79.5 168t123 141t163.5 98t195 36zM578 1169l47 220h209l-48 -220h-208z" />
    <glyph glyph-name="uni0232" unicode="&#x232;" horiz-adv-x="1296" 
d="M440 0l144 672l-369 774h229l277 -619l551 619h227l-717 -784l-143 -662h-199zM555 1671l31 152h620l-32 -152h-619z" />
    <glyph glyph-name="uni0233" unicode="&#x233;" horiz-adv-x="944" 
d="M-141 -469l35 158q47 -13 73 -13q137 0 195 103l114 201l-153 1007h188l111 -782l436 782h182l-735 -1278q-108 -188 -325 -188q-38 0 -121 10zM301 1212l31 152h620l-32 -152h-619z" />
    <glyph glyph-name="uni0237" unicode="&#x237;" horiz-adv-x="442" 
d="M-283 -465l33 152q56 -9 74 -9q82 0 121 41.5t53 110.5l244 1157h182l-248 -1165q-32 -154 -107.5 -227.5t-224.5 -73.5q-64 0 -127 14z" />
    <glyph glyph-name="uni0244" unicode="&#x244;" horiz-adv-x="1458" 
d="M74 680l28 135h123l133 631h197l-133 -631h752l133 631h196l-133 -631h123l-29 -135h-123l-36 -174q-56 -265 -230 -403t-428 -138q-235 0 -369.5 110t-134.5 292q0 61 17 141l37 172h-123zM664 129q176 0 290.5 98.5t153.5 278.5l37 174h-752l-37 -172q-12 -53 -12 -127
q0 -119 85.5 -185.5t234.5 -66.5z" />
    <glyph glyph-name="uni0259" unicode="&#x259;" horiz-adv-x="1064" 
d="M272 659l-174 37q11 53 45 107t85 101.5t126 77.5t158 30q97 0 176.5 -28t134.5 -76.5t92.5 -115t54.5 -140.5t17 -156q0 -103 -29.5 -195.5t-84.5 -166t-142.5 -116.5t-195.5 -43q-140 0 -243.5 69t-155.5 187t-52 269q0 31 2 39h717q-1 63 -17.5 120.5t-49.5 105.5
t-88.5 76.5t-127.5 28.5q-56 0 -102 -19t-74.5 -51.5t-46 -67.5t-25.5 -73zM799 397h-527q0 -110 70.5 -195t192.5 -85q123 0 193.5 80t70.5 200z" />
    <glyph glyph-name="uni025B" unicode="&#x25b;" horiz-adv-x="954" 
d="M860 266q-34 -98 -107 -164.5t-163 -95.5t-193 -29q-160 0 -266 81t-106 212q0 54 23 100.5t59.5 77t79.5 49t87 23.5q-64 20 -97.5 76.5t-33.5 118.5q0 82 56 150.5t150 107.5t202 39q179 0 283.5 -80.5t105.5 -231.5l-184 -32q2 90 -50.5 146t-166.5 56
q-92 0 -152.5 -49.5t-60.5 -122.5q0 -55 45.5 -92t124.5 -37h133l-29 -135h-137q-112 0 -182 -38.5t-70 -123.5q0 -70 59 -111.5t148 -41.5q94 0 168 54.5t106 152.5z" />
    <glyph glyph-name="uni0263" unicode="&#x263;" horiz-adv-x="911" 
d="M1024 987l-537 -829q37 -157 50.5 -225.5t13.5 -118.5q0 -118 -70.5 -194.5t-187.5 -76.5q-103 0 -168.5 55.5t-65.5 145.5q0 68 39.5 144t177.5 278l-192 821h184l152 -661l424 661h180zM350 8q-125 -186 -125 -260q0 -34 18.5 -54t45.5 -20q40 0 64 38t24 100
q0 64 -27 196z" />
    <glyph glyph-name="uni0268" unicode="&#x268;" horiz-adv-x="473" 
d="M35 500l26 121h111l78 366h180l-80 -366h119l-27 -121h-116l-107 -500h-178l104 500h-110zM305 1243l43 203h180l-43 -203h-180z" />
    <glyph glyph-name="uni0272" unicode="&#x272;" horiz-adv-x="1067" 
d="M162 -178q-34 -155 -108 -228t-224 -73q-73 0 -125 12l31 152q56 -9 74 -9q83 0 121 42t53 110l245 1159h181l-35 -158q32 67 126.5 125t213.5 58q124 0 201 -70t77 -190q0 -66 -28 -203l-119 -549h-178l114 549q27 123 27 172q0 68 -45.5 106.5t-124.5 38.5
q-118 0 -209 -94q-51 -53 -76.5 -113.5t-52.5 -187.5z" />
    <glyph glyph-name="uni0289" unicode="&#x289;" horiz-adv-x="1101" 
d="M39 500l24 121h99l80 366h180l-78 -366h465l80 366h178l-78 -366h103l-27 -121h-102l-105 -500h-180l35 158q-32 -67 -126.5 -125t-213.5 -58q-124 0 -201.5 70.5t-77.5 190.5q0 60 29 202l12 62h-96zM662 221q48 50 72 106.5t48 172.5h-465l-12 -62q-26 -118 -26 -172
q0 -68 45.5 -106.5t124.5 -38.5q123 0 213 100z" />
    <glyph glyph-name="circumflex" unicode="&#x2c6;" horiz-adv-x="897" 
d="M102 1106l340 352h160l193 -352h-170l-125 244l-230 -244h-168z" />
    <glyph glyph-name="caron" unicode="&#x2c7;" horiz-adv-x="897" 
d="M295 1106l-193 352h168l127 -241l230 241h168l-342 -352h-158z" />
    <glyph glyph-name="uni02C9" unicode="&#x2c9;" horiz-adv-x="432" 
d="M39 1212l31 152h620l-33 -152h-618z" />
    <glyph glyph-name="breve" unicode="&#x2d8;" horiz-adv-x="833" 
d="M111 1397l10 49h145l-10 -47q-6 -30 -6 -60q0 -58 31 -91.5t96 -33.5q79 0 129.5 51t68.5 134l11 47h145l-10 -47q-30 -142 -134.5 -227t-238.5 -85q-111 0 -178.5 62t-67.5 170q0 37 9 78z" />
    <glyph glyph-name="dotaccent" unicode="&#x2d9;" horiz-adv-x="460" 
d="M102 1169l48 220h208l-47 -220h-209z" />
    <glyph glyph-name="ring" unicode="&#x2da;" horiz-adv-x="612" 
d="M285 1182q54 0 94.5 38.5t40.5 92.5q0 38 -25.5 65t-64.5 27q-54 0 -94.5 -39.5t-40.5 -91.5q0 -38 25.5 -65t64.5 -27zM264 1094q-70 0 -116 49.5t-46 118.5q0 96 75.5 163.5t170.5 67.5q70 0 116 -49.5t46 -118.5q0 -97 -75 -164t-171 -67z" />
    <glyph glyph-name="ogonek" unicode="&#x2db;" horiz-adv-x="528" 
d="M408 -473h-52q-113 0 -183.5 70.5t-70.5 177.5q0 67 32.5 129t86.5 108h215v-12q-84 -3 -150.5 -70.5t-66.5 -154.5q0 -64 38 -106t99 -42h72z" />
    <glyph glyph-name="tilde" unicode="&#x2dc;" horiz-adv-x="886" 
d="M102 1149l39 176q38 32 90.5 54t96.5 22q60 0 149 -39q7 -3 23.5 -9.5t25.5 -10t22 -7.5t24 -6t22 -2q89 0 190 105l-39 -177q-40 -33 -92 -55t-98 -22q-13 0 -27 2t-24.5 4t-26 7t-22 7.5t-24.5 9.5t-23 9q-9 3 -29 10.5t-31 11t-27 7t-30 3.5q-93 0 -189 -100z" />
    <glyph glyph-name="hungarumlaut" unicode="&#x2dd;" horiz-adv-x="884" 
d="M102 1106l217 352h193l-258 -352h-152zM371 1106l217 352h194l-260 -352h-151z" />
    <glyph glyph-name="gravecomb" unicode="&#x300;" horiz-adv-x="0" 
d="M-453 1106l-108 352h194l68 -352h-154z" />
    <glyph glyph-name="acutecomb" unicode="&#x301;" horiz-adv-x="0" 
d="M-635 1106l217 352h195l-258 -352h-154z" />
    <glyph glyph-name="uni0302" unicode="&#x302;" horiz-adv-x="0" 
d="M-776 1106l340 352h160l192 -352h-170l-125 244l-229 -244h-168z" />
    <glyph glyph-name="tildecomb" unicode="&#x303;" horiz-adv-x="0" 
d="M-770 1149l39 176q38 32 90 54t96 22q61 0 150 -39q5 -2 28.5 -11.5t32.5 -12.5t25.5 -7t29.5 -4q90 0 191 105l-39 -177q-40 -33 -92 -55t-98 -22q-13 0 -27.5 2t-24 4t-26 7.5l-22.5 7.5t-25.5 9.5t-22.5 8.5q-9 3 -29 10.5t-31 11t-27 7t-30 3.5q-92 0 -188 -100z" />
    <glyph glyph-name="uni0304" unicode="&#x304;" horiz-adv-x="0" 
d="M-756 1212l31 152h621l-33 -152h-619z" />
    <glyph glyph-name="uni0306" unicode="&#x306;" horiz-adv-x="0" 
d="M-735 1397l10 49h145l-10 -47q-6 -30 -6 -60q0 -58 31 -91.5t96 -33.5q79 0 130 51t69 134l10 47h145l-10 -47q-30 -142 -134.5 -227t-238.5 -85q-111 0 -178 62t-67 170q0 42 8 78z" />
    <glyph glyph-name="uni0307" unicode="&#x307;" horiz-adv-x="0" 
d="M-557 1169l47 220h209l-47 -220h-209z" />
    <glyph glyph-name="uni0308" unicode="&#x308;" horiz-adv-x="0" 
d="M-764 1169l45 215h209l-45 -215h-209zM-354 1169l47 215h207l-45 -215h-209z" />
    <glyph glyph-name="uni030A" unicode="&#x30a;" horiz-adv-x="0" 
d="M-451 1182q54 0 95 38.5t41 92.5q0 38 -26 65t-65 27q-54 0 -94.5 -39.5t-40.5 -91.5q0 -38 25.5 -65t64.5 -27zM-471 1094q-70 0 -116 49.5t-46 118.5q0 96 75.5 163.5t170.5 67.5q70 0 116 -49.5t46 -118.5q0 -97 -75 -164t-171 -67z" />
    <glyph glyph-name="uni030B" unicode="&#x30b;" horiz-adv-x="0" 
d="M-770 1106l217 352h193l-258 -352h-152zM-502 1106l217 352h195l-260 -352h-152z" />
    <glyph glyph-name="uni030C" unicode="&#x30c;" horiz-adv-x="0" 
d="M-584 1106l-192 352h168l127 -241l229 241h168l-342 -352h-158z" />
    <glyph glyph-name="uni0312" unicode="&#x312;" horiz-adv-x="0" 
d="M-598 1106l217 350h119l-152 -350h-184z" />
    <glyph glyph-name="uni0313" unicode="&#x313;" horiz-adv-x="0" 
d="M-598 1106l152 350h184l-219 -350h-117z" />
    <glyph glyph-name="uni0323" unicode="&#x323;" horiz-adv-x="0" 
d="M-639 -330l47 219h209l-47 -219h-209z" />
    <glyph glyph-name="uni0326" unicode="&#x326;" horiz-adv-x="0" 
d="M-596 -465l150 352h182l-215 -352h-117z" />
    <glyph glyph-name="uni0327" unicode="&#x327;" horiz-adv-x="0" 
d="M-459 -473l21 100h67q47 0 86 30t39 79q0 31 -25 48t-63 17h-67l47 211h108l-24 -112q64 -4 103.5 -46t39.5 -104q0 -95 -76.5 -159t-183.5 -64h-72z" />
    <glyph glyph-name="uni0328" unicode="&#x328;" horiz-adv-x="0" 
d="M-287 -473h-51q-113 0 -183.5 70.5t-70.5 177.5q0 67 32.5 129t86.5 108h215v-12q-84 -3 -150.5 -70.5t-66.5 -154.5q0 -64 38 -106t99 -42h72z" />
    <glyph glyph-name="uni032E" unicode="&#x32e;" horiz-adv-x="0" 
d="M-735 -160l10 49h145l-10 -47q-6 -30 -6 -59q0 -58 31 -91.5t96 -33.5q79 0 130 50.5t69 133.5l10 47h145l-10 -47q-30 -142 -134 -226.5t-239 -84.5q-111 0 -178 61.5t-67 169.5q0 42 8 78z" />
    <glyph glyph-name="uni0331" unicode="&#x331;" horiz-adv-x="0" 
d="M-756 -262l31 151h621l-33 -151h-619z" />
    <glyph glyph-name="anoteleia" unicode="&#x387;" horiz-adv-x="471" 
d="M127 668q0 58 41.5 99.5t99.5 41.5q59 0 100.5 -41.5t41.5 -99.5t-41.5 -99t-100.5 -41t-100 41t-41 99z" />
    <glyph glyph-name="uni0394" unicode="&#x394;" horiz-adv-x="1239" 
d="M-80 0l25 111l786 1335h187l212 -1335l-24 -111h-1186zM170 176h762q-6 45 -82 508t-82 508z" />
    <glyph glyph-name="uni03A9" unicode="&#x3a9;" horiz-adv-x="1443" 
d="M-25 0l33 162h275q-64 78 -102 190t-38 240q0 131 37 261t108 242.5t166 199t218.5 136.5t257.5 50q217 0 351 -148t134 -389q0 -442 -399 -782h274l-33 -162h-520l27 125q202 117 331.5 334t129.5 471q0 177 -85.5 283t-244.5 106q-103 0 -194.5 -42t-158.5 -114.5
t-116 -166.5t-73.5 -200t-24.5 -214q0 -154 54 -274.5t138 -182.5l-26 -125h-519z" />
    <glyph glyph-name="uni03BC" unicode="&#x3bc;" horiz-adv-x="1071" 
d="M-76 -457l303 1444h185l-117 -555q-25 -114 -25 -166q0 -69 46.5 -106t123.5 -37q61 0 111.5 23t84 58.5t60.5 88.5t43 104t29 113l100 477h185l-209 -987h-182l34 156q-35 -65 -127.5 -123t-197.5 -58q-100 0 -162 54l-103 -486h-182z" />
    <glyph glyph-name="pi" unicode="&#x3c0;" horiz-adv-x="1077" 
d="M457 840l-181 -840h-182l178 840h-174l33 147h1030l-33 -147h-178l-178 -840h-180l178 840h-313z" />
    <glyph glyph-name="uni1E02" unicode="&#x1e02;" horiz-adv-x="1372" 
d="M53 0l307 1446h621q175 0 282 -82t107 -231q0 -82 -32 -153t-82.5 -117.5t-107.5 -75.5t-112 -37q119 -17 184.5 -88t65.5 -181q0 -104 -34 -186.5t-92.5 -137t-140.5 -90.5t-173.5 -51.5t-196.5 -15.5h-596zM289 166h420q43 0 83.5 4.5t96 22.5t95.5 48t68.5 87.5
t28.5 134.5q0 61 -26 101.5t-74 59.5t-96 26t-113 7h-379zM428 827h365q52 0 100 7.5t98 26.5t87 49t60 79t23 111q0 87 -66.5 133.5t-158.5 46.5h-410zM760 1628l47 219h209l-47 -219h-209z" />
    <glyph glyph-name="uni1E03" unicode="&#x1e03;" horiz-adv-x="1132" 
d="M18 0l306 1446h184l-127 -594q44 60 136 110t185 50q104 0 179.5 -33.5t117 -93t60 -129t18.5 -152.5q0 -107 -42.5 -218t-116 -202.5t-183.5 -150t-233 -58.5q-103 0 -182 56t-93 125l-30 -156h-179zM500 123q110 0 202 73t140.5 181t48.5 219q0 118 -57.5 193
t-163.5 75q-83 0 -156.5 -43.5t-122.5 -112.5t-77.5 -153t-28.5 -166q0 -121 59 -193.5t156 -72.5zM625 1169l47 220h209l-47 -220h-209z" />
    <glyph glyph-name="uni1E0A" unicode="&#x1e0a;" horiz-adv-x="1480" 
d="M289 166h260q120 0 225 31.5t182 86.5t137.5 125.5t97.5 152t56 163t19 160.5q0 193 -111 294t-358 101h-271zM53 0l307 1446h482q99 0 188.5 -18t171.5 -59.5t141 -103.5t94.5 -156.5t35.5 -211.5q0 -159 -51 -302t-140 -250t-205.5 -185.5t-250.5 -119t-271 -40.5h-502
zM801 1628l47 219h209l-47 -219h-209z" />
    <glyph glyph-name="uni1E0B" unicode="&#x1e0b;" horiz-adv-x="1132" 
d="M727 0l31 143q-49 -73 -144 -120.5t-178 -47.5q-85 0 -151.5 23.5t-108.5 62.5t-69.5 94t-38.5 113t-11 125q0 88 26 177.5t77 168t119.5 140t160 97.5t191.5 36q98 0 173 -48.5t97 -125.5l129 608h182l-307 -1446h-178zM461 121q110 0 200.5 74t137.5 182.5t47 220.5
q0 122 -57.5 195t-155.5 73q-111 0 -202.5 -72.5t-139 -180t-47.5 -220.5q0 -75 20.5 -134t71 -98.5t125.5 -39.5zM526 1169l47 220h209l-47 -220h-209z" />
    <glyph glyph-name="uni1E0C" unicode="&#x1e0c;" horiz-adv-x="1480" 
d="M289 166h260q120 0 225 31.5t182 86.5t137.5 125.5t97.5 152t56 163t19 160.5q0 193 -111 294t-358 101h-271zM53 0l307 1446h482q99 0 188.5 -18t171.5 -59.5t141 -103.5t94.5 -156.5t35.5 -211.5q0 -159 -51 -302t-140 -250t-205.5 -185.5t-250.5 -119t-271 -40.5h-502
zM432 -330l47 219h209l-47 -219h-209z" />
    <glyph glyph-name="uni1E0D" unicode="&#x1e0d;" horiz-adv-x="1132" 
d="M727 0l31 143q-49 -73 -144 -120.5t-178 -47.5q-85 0 -151.5 23.5t-108.5 62.5t-69.5 94t-38.5 113t-11 125q0 88 26 177.5t77 168t119.5 140t160 97.5t191.5 36q98 0 173 -48.5t97 -125.5l129 608h182l-307 -1446h-178zM461 121q110 0 200.5 74t137.5 182.5t47 220.5
q0 122 -57.5 195t-155.5 73q-111 0 -202.5 -72.5t-139 -180t-47.5 -220.5q0 -75 20.5 -134t71 -98.5t125.5 -39.5zM328 -330l47 219h209l-47 -219h-209z" />
    <glyph glyph-name="uni1E0E" unicode="&#x1e0e;" horiz-adv-x="1480" 
d="M289 166h260q120 0 225 31.5t182 86.5t137.5 125.5t97.5 152t56 163t19 160.5q0 193 -111 294t-358 101h-271zM53 0l307 1446h482q99 0 188.5 -18t171.5 -59.5t141 -103.5t94.5 -156.5t35.5 -211.5q0 -159 -51 -302t-140 -250t-205.5 -185.5t-250.5 -119t-271 -40.5h-502
zM254 -262l31 151h620l-33 -151h-618z" />
    <glyph glyph-name="uni1E0F" unicode="&#x1e0f;" horiz-adv-x="1132" 
d="M727 0l31 143q-49 -73 -144 -120.5t-178 -47.5q-85 0 -151.5 23.5t-108.5 62.5t-69.5 94t-38.5 113t-11 125q0 88 26 177.5t77 168t119.5 140t160 97.5t191.5 36q98 0 173 -48.5t97 -125.5l129 608h182l-307 -1446h-178zM461 121q110 0 200.5 74t137.5 182.5t47 220.5
q0 122 -57.5 195t-155.5 73q-111 0 -202.5 -72.5t-139 -180t-47.5 -220.5q0 -75 20.5 -134t71 -98.5t125.5 -39.5zM143 -262l31 151h621l-33 -151h-619z" />
    <glyph glyph-name="uni1E10" unicode="&#x1e10;" horiz-adv-x="1480" 
d="M289 166h260q120 0 225 31.5t182 86.5t137.5 125.5t97.5 152t56 163t19 160.5q0 193 -111 294t-358 101h-271zM53 0l307 1446h482q99 0 188.5 -18t171.5 -59.5t141 -103.5t94.5 -156.5t35.5 -211.5q0 -159 -51 -302t-140 -250t-205.5 -185.5t-250.5 -119t-271 -40.5h-502
zM352 -465l150 352h182l-215 -352h-117z" />
    <glyph glyph-name="uni1E11" unicode="&#x1e11;" horiz-adv-x="1132" 
d="M727 0l31 143q-49 -73 -144 -120.5t-178 -47.5q-85 0 -151.5 23.5t-108.5 62.5t-69.5 94t-38.5 113t-11 125q0 88 26 177.5t77 168t119.5 140t160 97.5t191.5 36q98 0 173 -48.5t97 -125.5l129 608h182l-307 -1446h-178zM461 121q110 0 200.5 74t137.5 182.5t47 220.5
q0 122 -57.5 195t-155.5 73q-111 0 -202.5 -72.5t-139 -180t-47.5 -220.5q0 -75 20.5 -134t71 -98.5t125.5 -39.5zM248 -465l149 352h183l-215 -352h-117z" />
    <glyph glyph-name="uni1E1E" unicode="&#x1e1e;" horiz-adv-x="1167" 
d="M53 0l307 1446h963l-35 -166h-766l-94 -444h719l-35 -166h-719l-143 -670h-197zM770 1628l47 219h209l-47 -219h-209z" />
    <glyph glyph-name="uni1E1F" unicode="&#x1e1f;" horiz-adv-x="610" 
d="M106 0l179 842h-197l31 145h196l39 187q61 294 324 294q90 0 127 -10l-31 -147q-75 6 -80 6q-63 0 -103 -37t-59 -127l-34 -166h204l-32 -145h-205l-178 -842h-181zM547 1628l47 219h209l-47 -219h-209z" />
    <glyph glyph-name="uni1E20" unicode="&#x1e20;" horiz-adv-x="1507" 
d="M1114 0l39 180q-202 -215 -483 -215q-143 0 -253 45t-177 125t-100.5 182.5t-33.5 223.5q0 144 40 282.5t117 256.5t182 208t245 141.5t295 51.5q223 0 365.5 -104t185.5 -294l-213 -43q-31 130 -123.5 202.5t-232.5 72.5q-113 0 -216 -43t-181.5 -118t-137 -173
t-89 -211.5t-30.5 -228.5q0 -179 101 -294.5t280 -115.5q206 0 350 126.5t199 365.5h-461l35 165h653l-167 -788h-189zM690 1671l31 152h620l-32 -152h-619z" />
    <glyph glyph-name="uni1E21" unicode="&#x1e21;" horiz-adv-x="1130" 
d="M-23 -133l199 33q-2 -12 -2 -35q0 -201 209 -201q71 0 128 22.5t90 53t58.5 77.5t35.5 80.5t20 77.5l39 168q-53 -69 -146.5 -114t-175.5 -45q-85 0 -151 23.5t-107.5 61.5t-68.5 92t-37.5 110t-10.5 120q0 107 42 217t115 200t183 147t234 57q96 0 176 -51.5t98 -129.5
l33 156h174l-215 -1020q-94 -448 -545 -448q-174 0 -274 90.5t-101 257.5zM463 129q82 0 155 43t122 111t77.5 151.5t28.5 165.5q0 120 -58 193t-157 73q-108 0 -199 -70t-140.5 -177.5t-49.5 -221.5q0 -74 21 -132.5t72.5 -97t127.5 -38.5zM389 1212l31 152h620l-32 -152
h-619z" />
    <glyph glyph-name="uni1E22" unicode="&#x1e22;" horiz-adv-x="1480" 
d="M53 0l307 1446h199l-131 -615h768l133 615h199l-309 -1446h-199l141 666h-770l-141 -666h-197zM868 1628l47 219h209l-47 -219h-209z" />
    <glyph glyph-name="uni1E23" unicode="&#x1e23;" horiz-adv-x="1069" 
d="M18 0l308 1446h182l-131 -617q32 68 127.5 125.5t218.5 57.5q119 0 196.5 -71t77.5 -191q0 -62 -28 -199l-119 -551h-182l116 549q27 132 27 164q0 69 -45.5 110t-120.5 41q-53 0 -109 -23t-98 -65q-53 -52 -81.5 -114t-55.5 -191l-100 -471h-183zM614 1169l48 220h208
l-47 -220h-209z" />
    <glyph glyph-name="uni1E24" unicode="&#x1e24;" horiz-adv-x="1480" 
d="M53 0l307 1446h199l-131 -615h768l133 615h199l-309 -1446h-199l141 666h-770l-141 -666h-197zM457 -330l47 219h209l-47 -219h-209z" />
    <glyph glyph-name="uni1E25" unicode="&#x1e25;" horiz-adv-x="1069" 
d="M18 0l308 1446h182l-131 -617q32 68 127.5 125.5t218.5 57.5q119 0 196.5 -71t77.5 -191q0 -62 -28 -199l-119 -551h-182l116 549q27 132 27 164q0 69 -45.5 110t-120.5 41q-53 0 -109 -23t-98 -65q-53 -52 -81.5 -114t-55.5 -191l-100 -471h-183zM260 -330l47 219h209
l-47 -219h-209z" />
    <glyph glyph-name="uni1E2A" unicode="&#x1e2a;" horiz-adv-x="1480" 
d="M53 0l307 1446h199l-131 -615h768l133 615h199l-309 -1446h-199l141 666h-770l-141 -666h-197zM279 -160l10 49h145l-10 -47q-6 -30 -6 -59q0 -58 31 -91.5t96 -33.5q79 0 129.5 50.5t68.5 133.5l11 47h145l-10 -47q-30 -142 -134 -226.5t-239 -84.5q-112 0 -179 61.5
t-67 169.5q0 38 9 78z" />
    <glyph glyph-name="uni1E2B" unicode="&#x1e2b;" horiz-adv-x="1069" 
d="M18 0l308 1446h182l-131 -617q32 68 127.5 125.5t218.5 57.5q119 0 196.5 -71t77.5 -191q0 -62 -28 -199l-119 -551h-182l116 549q27 132 27 164q0 69 -45.5 110t-120.5 41q-53 0 -109 -23t-98 -65q-53 -52 -81.5 -114t-55.5 -191l-100 -471h-183zM96 -160l10 49h146
l-10 -47q-6 -30 -6 -59q0 -125 126 -125q80 0 130.5 50.5t68.5 133.5l10 47h146l-10 -47q-30 -142 -134 -226.5t-239 -84.5q-112 0 -179 61.5t-67 169.5q0 42 8 78z" />
    <glyph glyph-name="uni1E36" unicode="&#x1e36;" horiz-adv-x="1105" 
d="M53 0l307 1446h199l-274 -1280h735l-35 -166h-932zM340 -330l47 219h209l-47 -219h-209z" />
    <glyph glyph-name="uni1E37" unicode="&#x1e37;" horiz-adv-x="425" 
d="M18 0l308 1446h180l-307 -1446h-181zM-63 -330l47 219h209l-48 -219h-208z" />
    <glyph glyph-name="uni1E38" unicode="&#x1e38;" horiz-adv-x="1105" 
d="M53 0l307 1446h199l-274 -1280h735l-35 -166h-932zM340 -330l47 219h209l-47 -219h-209zM516 1671l31 152h620l-32 -152h-619z" />
    <glyph glyph-name="uni1E39" unicode="&#x1e39;" horiz-adv-x="425" 
d="M18 0l308 1446h180l-307 -1446h-181zM-63 -330l47 219h209l-48 -219h-208zM141 1671l31 152h621l-33 -152h-619z" />
    <glyph glyph-name="uni1E3A" unicode="&#x1e3a;" horiz-adv-x="1105" 
d="M53 0l307 1446h199l-274 -1280h735l-35 -166h-932zM162 -262l31 151h620l-33 -151h-618z" />
    <glyph glyph-name="uni1E3B" unicode="&#x1e3b;" horiz-adv-x="425" 
d="M18 0l308 1446h180l-307 -1446h-181zM-248 -262l31 151h620l-32 -151h-619z" />
    <glyph glyph-name="uni1E3E" unicode="&#x1e3e;" horiz-adv-x="1806" 
d="M53 0l307 1446h299l187 -1239l706 1239h301l-309 -1446h-188l264 1235l-700 -1235h-236l-180 1235l-264 -1235h-187zM1044 1565l218 352h194l-258 -352h-154z" />
    <glyph glyph-name="uni1E3F" unicode="&#x1e3f;" horiz-adv-x="1611" 
d="M20 0l209 987h179l-33 -160q30 68 119 126.5t200 58.5q93 0 158.5 -53t87.5 -148q44 82 135.5 141.5t204.5 59.5q112 0 187 -69.5t75 -184.5q0 -54 -33 -209l-116 -549h-181l125 588q17 87 17 125q0 153 -148 153q-106 0 -196 -100q-38 -44 -60 -93t-39 -128l-114 -545
h-181l125 588q17 87 17 127q0 151 -148 151q-110 0 -196 -100q-42 -48 -62 -101.5t-45 -168.5l-106 -496h-181zM848 1110l217 352h195l-259 -352h-153z" />
    <glyph glyph-name="uni1E40" unicode="&#x1e40;" horiz-adv-x="1806" 
d="M53 0l307 1446h299l187 -1239l706 1239h301l-309 -1446h-188l264 1235l-700 -1235h-236l-180 1235l-264 -1235h-187zM1030 1628l47 219h209l-47 -219h-209z" />
    <glyph glyph-name="uni1E41" unicode="&#x1e41;" horiz-adv-x="1611" 
d="M20 0l209 987h179l-33 -160q30 68 119 126.5t200 58.5q93 0 158.5 -53t87.5 -148q44 82 135.5 141.5t204.5 59.5q112 0 187 -69.5t75 -184.5q0 -54 -33 -209l-116 -549h-181l125 588q17 87 17 125q0 153 -148 153q-106 0 -196 -100q-38 -44 -60 -93t-39 -128l-114 -545
h-181l125 588q17 87 17 127q0 151 -148 151q-110 0 -196 -100q-42 -48 -62 -101.5t-45 -168.5l-106 -496h-181zM842 1169l47 220h209l-47 -220h-209z" />
    <glyph glyph-name="uni1E42" unicode="&#x1e42;" horiz-adv-x="1806" 
d="M53 0l307 1446h299l187 -1239l706 1239h301l-309 -1446h-188l264 1235l-700 -1235h-236l-180 1235l-264 -1235h-187zM621 -330l47 219h209l-48 -219h-208z" />
    <glyph glyph-name="uni1E43" unicode="&#x1e43;" horiz-adv-x="1611" 
d="M20 0l209 987h179l-33 -160q30 68 119 126.5t200 58.5q93 0 158.5 -53t87.5 -148q44 82 135.5 141.5t204.5 59.5q112 0 187 -69.5t75 -184.5q0 -54 -33 -209l-116 -549h-181l125 588q17 87 17 125q0 153 -148 153q-106 0 -196 -100q-38 -44 -60 -93t-39 -128l-114 -545
h-181l125 588q17 87 17 127q0 151 -148 151q-110 0 -196 -100q-42 -48 -62 -101.5t-45 -168.5l-106 -496h-181zM530 -330l48 219h208l-47 -219h-209z" />
    <glyph glyph-name="uni1E44" unicode="&#x1e44;" horiz-adv-x="1550" 
d="M53 0l307 1446h271l512 -1245l266 1245h186l-307 -1446h-287l-497 1243l-264 -1243h-187zM901 1628l47 219h209l-47 -219h-209z" />
    <glyph glyph-name="uni1E45" unicode="&#x1e45;" horiz-adv-x="1067" 
d="M20 0l209 987h181l-35 -158q34 68 128 125.5t214 57.5q124 0 201 -70.5t77 -191.5q0 -56 -30 -199l-117 -551h-180l114 549q27 123 27 170q0 70 -45.5 107.5t-124.5 37.5q-121 0 -207 -92q-51 -53 -76.5 -113.5t-52.5 -187.5l-102 -471h-181zM575 1169l48 220h208
l-47 -220h-209z" />
    <glyph glyph-name="uni1E46" unicode="&#x1e46;" horiz-adv-x="1550" 
d="M53 0l307 1446h271l512 -1245l266 1245h186l-307 -1446h-287l-497 1243l-264 -1243h-187zM514 -330l47 219h209l-47 -219h-209z" />
    <glyph glyph-name="uni1E47" unicode="&#x1e47;" horiz-adv-x="1067" 
d="M20 0l209 987h181l-35 -158q34 68 128 125.5t214 57.5q124 0 201 -70.5t77 -191.5q0 -56 -30 -199l-117 -551h-180l114 549q27 123 27 170q0 70 -45.5 107.5t-124.5 37.5q-121 0 -207 -92q-51 -53 -76.5 -113.5t-52.5 -187.5l-102 -471h-181zM264 -330l47 219h209
l-47 -219h-209z" />
    <glyph glyph-name="uni1E48" unicode="&#x1e48;" horiz-adv-x="1550" 
d="M53 0l307 1446h271l512 -1245l266 1245h186l-307 -1446h-287l-497 1243l-264 -1243h-187zM336 -262l31 151h620l-33 -151h-618z" />
    <glyph glyph-name="uni1E49" unicode="&#x1e49;" horiz-adv-x="1067" 
d="M20 0l209 987h181l-35 -158q34 68 128 125.5t214 57.5q124 0 201 -70.5t77 -191.5q0 -56 -30 -199l-117 -551h-180l114 549q27 123 27 170q0 70 -45.5 107.5t-124.5 37.5q-121 0 -207 -92q-51 -53 -76.5 -113.5t-52.5 -187.5l-102 -471h-181zM80 -262l31 151h620
l-33 -151h-618z" />
    <glyph glyph-name="uni1E56" unicode="&#x1e56;" horiz-adv-x="1280" 
d="M53 0l307 1446h603q184 0 288.5 -84.5t104.5 -235.5q0 -90 -20.5 -164t-54 -125t-81.5 -89.5t-97.5 -61t-108 -36.5t-107 -18.5t-99.5 -4.5h-405l-135 -627h-195zM418 797h387q32 0 58.5 2t63.5 9t66 19t60 34.5t51.5 53t33.5 77t13 104.5q0 85 -60 134.5t-182 49.5h-389
zM770 1628l47 219h209l-47 -219h-209z" />
    <glyph glyph-name="uni1E57" unicode="&#x1e57;" horiz-adv-x="1140" 
d="M-78 -457l307 1444h179l-31 -143q49 72 147 120t181 48q84 0 150.5 -23.5t108.5 -62.5t69.5 -93.5t38.5 -112t11 -122.5q0 -90 -26 -179.5t-76.5 -169t-119 -141t-160.5 -97.5t-193 -36q-98 0 -175.5 49.5t-99.5 125.5l-129 -607h-182zM504 121q109 0 201 70.5t142 179
t50 223.5q0 75 -22 134.5t-73.5 98.5t-127.5 39q-110 0 -201 -74t-138.5 -182.5t-47.5 -220.5q0 -121 59.5 -194.5t157.5 -73.5zM639 1169l47 220h209l-47 -220h-209z" />
    <glyph glyph-name="uni1E5A" unicode="&#x1e5a;" horiz-adv-x="1372" 
d="M53 0l307 1446h603q211 0 309 -81.5t98 -244.5q0 -140 -87 -250.5t-232 -142.5q84 -19 131 -65t47 -132q0 -40 -8 -79l-47 -224q-13 -63 -13 -88q0 -73 47 -139h-221q-31 47 -31 109q0 25 13 92l47 217q6 40 6 71q0 80 -53.5 111t-161.5 31h-426l-135 -631h-193zM416 797
h422q142 0 234.5 83t92.5 224q0 82 -61.5 129t-185.5 47h-398zM453 -330l47 219h209l-47 -219h-209z" />
    <glyph glyph-name="uni1E5B" unicode="&#x1e5b;" horiz-adv-x="684" 
d="M20 0l209 987h179l-37 -168q42 76 134.5 134.5t201.5 58.5q31 0 67 -6l-37 -183q-48 8 -94 8q-123 0 -229 -106q-76 -79 -119 -279l-94 -446h-181zM-61 -330l47 219h209l-48 -219h-208z" />
    <glyph glyph-name="uni1E5C" unicode="&#x1e5c;" horiz-adv-x="1372" 
d="M53 0l307 1446h603q211 0 309 -81.5t98 -244.5q0 -140 -87 -250.5t-232 -142.5q84 -19 131 -65t47 -132q0 -40 -8 -79l-47 -224q-13 -63 -13 -88q0 -73 47 -139h-221q-31 47 -31 109q0 25 13 92l47 217q6 40 6 71q0 80 -53.5 111t-161.5 31h-426l-135 -631h-193zM416 797
h422q142 0 234.5 83t92.5 224q0 82 -61.5 129t-185.5 47h-398zM453 -330l47 219h209l-47 -219h-209zM561 1671l31 152h620l-32 -152h-619z" />
    <glyph glyph-name="uni1E5D" unicode="&#x1e5d;" horiz-adv-x="684" 
d="M20 0l209 987h179l-37 -168q42 76 134.5 134.5t201.5 58.5q31 0 67 -6l-37 -183q-48 8 -94 8q-123 0 -229 -106q-76 -79 -119 -279l-94 -446h-181zM-61 -330l47 219h209l-48 -219h-208zM246 1212l30 152h621l-33 -152h-618z" />
    <glyph glyph-name="uni1E5E" unicode="&#x1e5e;" horiz-adv-x="1372" 
d="M53 0l307 1446h603q211 0 309 -81.5t98 -244.5q0 -140 -87 -250.5t-232 -142.5q84 -19 131 -65t47 -132q0 -40 -8 -79l-47 -224q-13 -63 -13 -88q0 -73 47 -139h-221q-31 47 -31 109q0 25 13 92l47 217q6 40 6 71q0 80 -53.5 111t-161.5 31h-426l-135 -631h-193zM416 797
h422q142 0 234.5 83t92.5 224q0 82 -61.5 129t-185.5 47h-398zM274 -262l31 151h621l-33 -151h-619z" />
    <glyph glyph-name="uni1E5F" unicode="&#x1e5f;" horiz-adv-x="684" 
d="M20 0l209 987h179l-37 -168q42 76 134.5 134.5t201.5 58.5q31 0 67 -6l-37 -183q-48 8 -94 8q-123 0 -229 -106q-76 -79 -119 -279l-94 -446h-181zM-246 -262l31 151h621l-33 -151h-619z" />
    <glyph glyph-name="uni1E60" unicode="&#x1e60;" horiz-adv-x="1284" 
d="M49 442l203 33q-4 -46 -4 -65q0 -91 48 -156t121.5 -94t162.5 -29q83 0 157.5 19.5t134 57.5t94.5 99.5t35 138.5q0 35 -13.5 63t-34 46.5t-55 34.5t-65 25t-75.5 20l-133 31q-75 17 -126.5 32.5t-110.5 43.5t-95 62t-60 87t-24 119q0 94 34.5 172.5t93 133t137 92.5
t167 55.5t182.5 17.5q120 0 214.5 -32t153 -89t88.5 -131.5t30 -161.5l-209 -37q0 144 -82 214.5t-215 70.5q-65 0 -129.5 -16t-124 -48t-96.5 -88.5t-37 -128.5q0 -34 16.5 -62t41 -47t65 -36.5t75 -28t84.5 -22.5l150 -35q88 -21 149.5 -45.5t112.5 -63t76.5 -95
t25.5 -132.5q0 -102 -39 -187.5t-103.5 -142.5t-149.5 -96.5t-175 -57.5t-182 -18q-79 0 -153 14.5t-141.5 46.5t-117 79t-79 116t-29.5 152q0 29 6 69zM711 1628l47 219h209l-47 -219h-209z" />
    <glyph glyph-name="uni1E61" unicode="&#x1e61;" horiz-adv-x="962" 
d="M12 309l193 41q-4 -36 -4 -51q0 -85 51.5 -133.5t148.5 -48.5q108 0 187.5 47.5t79.5 136.5q0 56 -41 81t-117 40l-123 27q-134 27 -198 83t-64 156q0 59 30 116.5t84.5 104t140.5 75t189 28.5q151 0 251.5 -77t103.5 -204q0 -19 -2 -29l-185 -34q2 14 2 41
q-2 73 -50 117t-140 44q-108 0 -174 -48t-66 -113q0 -83 137 -111l156 -33q61 -13 105 -29t81.5 -41.5t56.5 -65.5t19 -93q0 -115 -70.5 -199t-177 -123t-231.5 -39q-185 0 -281 85.5t-96 211.5q0 13 4 37zM461 1169l47 220h209l-47 -220h-209z" />
    <glyph glyph-name="uni1E62" unicode="&#x1e62;" horiz-adv-x="1284" 
d="M49 442l203 33q-4 -46 -4 -65q0 -91 48 -156t121.5 -94t162.5 -29q83 0 157.5 19.5t134 57.5t94.5 99.5t35 138.5q0 35 -13.5 63t-34 46.5t-55 34.5t-65 25t-75.5 20l-133 31q-75 17 -126.5 32.5t-110.5 43.5t-95 62t-60 87t-24 119q0 94 34.5 172.5t93 133t137 92.5
t167 55.5t182.5 17.5q120 0 214.5 -32t153 -89t88.5 -131.5t30 -161.5l-209 -37q0 144 -82 214.5t-215 70.5q-65 0 -129.5 -16t-124 -48t-96.5 -88.5t-37 -128.5q0 -34 16.5 -62t41 -47t65 -36.5t75 -28t84.5 -22.5l150 -35q88 -21 149.5 -45.5t112.5 -63t76.5 -95
t25.5 -132.5q0 -102 -39 -187.5t-103.5 -142.5t-149.5 -96.5t-175 -57.5t-182 -18q-79 0 -153 14.5t-141.5 46.5t-117 79t-79 116t-29.5 152q0 29 6 69zM424 -330l47 219h209l-47 -219h-209z" />
    <glyph glyph-name="uni1E63" unicode="&#x1e63;" horiz-adv-x="962" 
d="M12 309l193 41q-4 -36 -4 -51q0 -85 51.5 -133.5t148.5 -48.5q108 0 187.5 47.5t79.5 136.5q0 56 -41 81t-117 40l-123 27q-134 27 -198 83t-64 156q0 59 30 116.5t84.5 104t140.5 75t189 28.5q151 0 251.5 -77t103.5 -204q0 -19 -2 -29l-185 -34q2 14 2 41
q-2 73 -50 117t-140 44q-108 0 -174 -48t-66 -113q0 -83 137 -111l156 -33q61 -13 105 -29t81.5 -41.5t56.5 -65.5t19 -93q0 -115 -70.5 -199t-177 -123t-231.5 -39q-185 0 -281 85.5t-96 211.5q0 13 4 37zM242 -330l47 219h209l-47 -219h-209z" />
    <glyph glyph-name="uni1E6A" unicode="&#x1e6a;" horiz-adv-x="1155" 
d="M375 0l274 1280h-465l37 166h1116l-34 -166h-455l-275 -1280h-198zM702 1628l48 219h208l-47 -219h-209z" />
    <glyph glyph-name="uni1E6B" unicode="&#x1e6b;" horiz-adv-x="624" 
d="M143 219l131 623h-190l31 145h190l70 326h180l-68 -326h209l-30 -145h-209l-123 -580q-6 -27 -6 -49q0 -41 21.5 -58.5t66.5 -17.5q48 0 100 10l-29 -145q-77 -16 -135 -16q-96 0 -156.5 40.5t-60.5 120.5q0 39 8 72zM420 1628l47 219h209l-47 -219h-209z" />
    <glyph glyph-name="uni1E6C" unicode="&#x1e6c;" horiz-adv-x="1155" 
d="M375 0l274 1280h-465l37 166h1116l-34 -166h-455l-275 -1280h-198zM295 -330l47 219h209l-47 -219h-209z" />
    <glyph glyph-name="uni1E6D" unicode="&#x1e6d;" horiz-adv-x="624" 
d="M143 219l131 623h-190l31 145h190l70 326h180l-68 -326h209l-30 -145h-209l-123 -580q-6 -27 -6 -49q0 -41 21.5 -58.5t66.5 -17.5q48 0 100 10l-29 -145q-77 -16 -135 -16q-96 0 -156.5 40.5t-60.5 120.5q0 39 8 72zM119 -330l47 219h209l-47 -219h-209z" />
    <glyph glyph-name="uni1E6E" unicode="&#x1e6e;" horiz-adv-x="1155" 
d="M375 0l274 1280h-465l37 166h1116l-34 -166h-455l-275 -1280h-198zM117 -262l30 151h621l-33 -151h-618z" />
    <glyph glyph-name="uni1E6F" unicode="&#x1e6f;" horiz-adv-x="624" 
d="M143 219l131 623h-190l31 145h190l70 326h180l-68 -326h209l-30 -145h-209l-123 -580q-6 -27 -6 -49q0 -41 21.5 -58.5t66.5 -17.5q48 0 100 10l-29 -145q-77 -16 -135 -16q-96 0 -156.5 40.5t-60.5 120.5q0 39 8 72zM-66 -262l31 151h621l-33 -151h-619z" />
    <glyph glyph-name="uni1E7C" unicode="&#x1e7c;" horiz-adv-x="1327" 
d="M436 0l-227 1446h205l190 -1233l729 1233h201l-864 -1446h-234zM563 1608l39 176q38 32 90 54t96 22q61 0 150 -39q7 -3 23.5 -9.5t25.5 -10t22 -7.5t24 -6t22 -2q90 0 190 104l-39 -176q-40 -34 -92 -56t-98 -22q-13 0 -27.5 2t-24 4t-26 7.5l-22.5 7.5t-25.5 9.5
t-22.5 8.5q-8 3 -36 14t-45 15t-35 4q-93 0 -189 -100z" />
    <glyph glyph-name="uni1E7D" unicode="&#x1e7d;" horiz-adv-x="966" 
d="M270 0l-149 987h186l117 -780l459 780h180l-580 -987h-213zM299 1149l39 176q38 32 90 54t96 22q61 0 150 -39q7 -3 23.5 -9.5t25.5 -10t22 -7.5t24 -6t22 -2q89 0 190 105l-39 -177q-40 -33 -92 -55t-98 -22q-13 0 -27.5 2t-24 4t-26 7.5l-22.5 7.5t-25.5 9.5t-22.5 8.5
q-9 3 -29 10.5t-31 11t-27 7t-30 3.5q-92 0 -188 -100z" />
    <glyph glyph-name="Wgrave" unicode="&#x1e80;" horiz-adv-x="1980" 
d="M305 0l-88 1446h197l67 -1251l576 1251h274l39 -1251l602 1251h199l-709 -1446h-272l-35 1270l-575 -1270h-275zM1133 1565l-109 352h195l67 -352h-153z" />
    <glyph glyph-name="wgrave" unicode="&#x1e81;" horiz-adv-x="1517" 
d="M217 0l-100 987h182l72 -778l379 778h225l55 -778l402 778h178l-523 -987h-215l-53 782l-385 -782h-217zM797 1106l-109 352h195l67 -352h-153z" />
    <glyph glyph-name="Wacute" unicode="&#x1e82;" horiz-adv-x="1980" 
d="M305 0l-88 1446h197l67 -1251l576 1251h274l39 -1251l602 1251h199l-709 -1446h-272l-35 1270l-575 -1270h-275zM1124 1565l217 352h195l-258 -352h-154z" />
    <glyph glyph-name="wacute" unicode="&#x1e83;" horiz-adv-x="1517" 
d="M217 0l-100 987h182l72 -778l379 778h225l55 -778l402 778h178l-523 -987h-215l-53 782l-385 -782h-217zM791 1110l217 352h194l-258 -352h-153z" />
    <glyph glyph-name="Wdieresis" unicode="&#x1e84;" horiz-adv-x="1980" 
d="M305 0l-88 1446h197l67 -1251l576 1251h274l39 -1251l602 1251h199l-709 -1446h-272l-35 1270l-575 -1270h-275zM924 1628l45 215h209l-45 -215h-209zM1333 1628l47 215h207l-45 -215h-209z" />
    <glyph glyph-name="wdieresis" unicode="&#x1e85;" horiz-adv-x="1517" 
d="M217 0l-100 987h182l72 -778l379 778h225l55 -778l402 778h178l-523 -987h-215l-53 782l-385 -782h-217zM578 1169l45 215h208l-45 -215h-208zM987 1169l47 215h207l-45 -215h-209z" />
    <glyph glyph-name="uni1E8A" unicode="&#x1e8a;" horiz-adv-x="1275" 
d="M-137 0l723 776l-336 670h227l256 -528l484 528h227l-627 -672l389 -774h-229l-309 633l-576 -633h-229zM764 1628l47 219h209l-47 -219h-209z" />
    <glyph glyph-name="uni1E8B" unicode="&#x1e8b;" horiz-adv-x="901" 
d="M-104 0l456 514l-205 473h203l142 -346l290 346h203l-420 -475l217 -512h-200l-150 375l-332 -375h-204zM496 1169l47 220h209l-47 -220h-209z" />
    <glyph glyph-name="uni1E92" unicode="&#x1e92;" horiz-adv-x="1218" 
d="M-55 0l41 190l1069 1088h-809l37 168h1052l-37 -168l-1097 -1110h917l-37 -168h-1136zM336 -330l47 219h209l-47 -219h-209z" />
    <glyph glyph-name="uni1E93" unicode="&#x1e93;" horiz-adv-x="894" 
d="M-61 0l34 164l707 678h-522l30 145h746l-31 -139l-727 -701h598l-33 -147h-802zM174 -330l47 219h209l-47 -219h-209z" />
    <glyph glyph-name="uni1E97" unicode="&#x1e97;" horiz-adv-x="624" 
d="M143 219l131 623h-190l31 145h190l70 326h180l-68 -326h209l-30 -145h-209l-123 -580q-6 -27 -6 -49q0 -41 21.5 -58.5t66.5 -17.5q48 0 100 10l-29 -145q-77 -16 -135 -16q-96 0 -156.5 40.5t-60.5 120.5q0 39 8 72zM213 1628l45 215h209l-45 -215h-209zM623 1628
l47 215h207l-46 -215h-208z" />
    <glyph glyph-name="uni1E9E" unicode="&#x1e9e;" horiz-adv-x="1382" 
d="M662 -35q-146 0 -293 39l34 168q124 -41 273 -41q79 0 155.5 21.5t142 61.5t106 107t40.5 150q0 98 -67 149.5t-219 51.5h-216l31 149l508 459h-213q-203 0 -341 -102.5t-179 -290.5l-191 -887h-196l190 891q27 125 87.5 225t156 174.5t233.5 115t310 40.5h401l-41 -189
l-473 -423h31q180 -2 283.5 -87.5t103.5 -248.5q0 -120 -53.5 -221.5t-144 -169t-209.5 -105t-250 -37.5z" />
    <glyph glyph-name="uni1EA0" unicode="&#x1ea0;" horiz-adv-x="1374" 
d="M-102 0l860 1446h264l246 -1446h-213l-70 428h-623l-249 -428h-215zM457 594h501l-108 676zM403 -330l48 219h208l-47 -219h-209z" />
    <glyph glyph-name="uni1EA1" unicode="&#x1ea1;" horiz-adv-x="1017" 
d="M809 0h-184q3 69 14 131q-132 -156 -348 -156q-133 0 -205 74.5t-72 173.5q0 67 22 119.5t65 90.5t93.5 64t118.5 48q72 23 314 61q82 12 113.5 47.5t31.5 89.5q0 19 -6.5 37.5t-23 40.5t-54.5 35.5t-92 13.5q-221 0 -281 -208l-178 34q46 150 180.5 233t309.5 83
q57 0 112 -14t103.5 -42t78 -77t29.5 -113q0 -59 -24 -164l-80 -362q-34 -148 -37 -240zM563 467l-65 -12q-136 -25 -190 -51q-107 -50 -107 -152q0 -57 38.5 -96t112.5 -39q47 0 96 14t99 44.5t90 87t57 132.5l25 107q-38 -15 -156 -35zM246 -330l47 219h209l-47 -219h-209
z" />
    <glyph glyph-name="uni1EB8" unicode="&#x1eb8;" horiz-adv-x="1218" 
d="M53 0l307 1446h963l-37 -166h-764l-94 -451h735l-35 -165h-737l-106 -498h782l-37 -166h-977zM371 -330l47 219h209l-47 -219h-209z" />
    <glyph glyph-name="uni1EB9" unicode="&#x1eb9;" horiz-adv-x="1036" 
d="M752 328l168 -37q-23 -53 -66.5 -106.5t-103 -101.5t-139 -78t-162.5 -30q-98 0 -175 31.5t-124 86t-71 124t-24 148.5q0 92 24.5 184t74 175t117 147.5t160.5 102.5t198 38q177 0 267.5 -100t90.5 -265q0 -88 -26 -198h-713q-10 -52 -10 -95q0 -105 54.5 -171t166.5 -66
q108 0 183 63.5t110 147.5zM281 590h526q6 34 6 69q0 90 -52.5 150.5t-156.5 60.5q-122 0 -209.5 -80t-113.5 -200zM274 -330l48 219h208l-47 -219h-209z" />
    <glyph glyph-name="uni1EBC" unicode="&#x1ebc;" horiz-adv-x="1218" 
d="M53 0l307 1446h963l-37 -166h-764l-94 -451h735l-35 -165h-737l-106 -498h782l-37 -166h-977zM567 1608l39 176q38 32 90.5 54t96.5 22q60 0 149 -39q7 -3 23.5 -9.5t25.5 -10t22 -7.5t24 -6t22 -2q90 0 190 104l-39 -176q-40 -34 -92 -56t-98 -22q-13 0 -27.5 2t-24 4
t-26 7.5l-22.5 7.5t-25.5 9.5t-22.5 8.5q-8 3 -36 14t-45 15t-35 4q-93 0 -189 -100z" />
    <glyph glyph-name="uni1EBD" unicode="&#x1ebd;" horiz-adv-x="1036" 
d="M752 328l168 -37q-23 -53 -66.5 -106.5t-103 -101.5t-139 -78t-162.5 -30q-98 0 -175 31.5t-124 86t-71 124t-24 148.5q0 92 24.5 184t74 175t117 147.5t160.5 102.5t198 38q177 0 267.5 -100t90.5 -265q0 -88 -26 -198h-713q-10 -52 -10 -95q0 -105 54.5 -171t166.5 -66
q108 0 183 63.5t110 147.5zM281 590h526q6 34 6 69q0 90 -52.5 150.5t-156.5 60.5q-122 0 -209.5 -80t-113.5 -200zM330 1149l39 176q38 32 90 54t96 22q61 0 150 -39q5 -2 28.5 -11.5t32.5 -12.5t25.5 -7t29.5 -4q90 0 191 105l-39 -177q-39 -33 -92 -55t-99 -22
q-13 0 -27 2t-24.5 4t-26 7t-22 7.5t-24.5 9.5t-23 9q-9 3 -29 10.5t-31 11t-27 7t-30 3.5q-92 0 -188 -100z" />
    <glyph glyph-name="uni1ECA" unicode="&#x1eca;" horiz-adv-x="512" 
d="M53 0l307 1446h199l-309 -1446h-197zM-27 -330l47 219h209l-47 -219h-209z" />
    <glyph glyph-name="uni1ECB" unicode="&#x1ecb;" horiz-adv-x="430" 
d="M20 0l209 987h183l-211 -987h-181zM283 1241l45 205h182l-45 -205h-182zM-61 -330l47 219h209l-48 -219h-208z" />
    <glyph glyph-name="uni1ECC" unicode="&#x1ecc;" horiz-adv-x="1556" 
d="M692 131q115 0 218.5 43t181 117.5t135 172.5t87 212.5t29.5 232.5q0 86 -22.5 158t-67.5 128.5t-119 88t-171 31.5q-115 0 -218.5 -42.5t-182 -117.5t-136 -173t-87.5 -212.5t-30 -232.5q0 -86 23 -158t68.5 -128t120 -88t171.5 -32zM676 -35q-122 0 -220 30.5t-163 83
t-109 125t-63 153t-19 171.5q0 139 39.5 277t117 259t182 214.5t244.5 148t294 54.5q122 0 220 -30.5t163 -83t108.5 -125t62.5 -153t19 -171.5q0 -139 -39.5 -277t-117 -259t-181.5 -214.5t-244 -148t-294 -54.5zM516 -330l47 219h209l-47 -219h-209z" />
    <glyph glyph-name="uni1ECD" unicode="&#x1ecd;" horiz-adv-x="1083" 
d="M627 866q-81 0 -154 -43t-122.5 -111t-78 -151t-28.5 -164q0 -122 54 -199t159 -77q81 0 154 43t122.5 111t78 151t28.5 164q0 120 -54 198t-159 78zM643 1012q102 0 178 -34t120 -93.5t65.5 -132t21.5 -158.5q0 -111 -43.5 -222t-118.5 -199t-186.5 -143t-237.5 -55
q-102 0 -178.5 34t-121 93.5t-66 132.5t-21.5 158q0 87 27 176t79.5 168t123 141t163.5 98t195 36zM270 -330l47 219h209l-47 -219h-209z" />
    <glyph glyph-name="uni1EE4" unicode="&#x1ee4;" horiz-adv-x="1433" 
d="M147 510l199 936h197l-197 -936q-12 -56 -12 -127q0 -119 84 -185.5t233 -66.5q176 0 291.5 98t153.5 277l198 940h199l-199 -940q-56 -265 -229.5 -403t-427.5 -138q-235 0 -370.5 110t-135.5 292q0 65 16 143zM444 -330l48 219h208l-47 -219h-209z" />
    <glyph glyph-name="uni1EE5" unicode="&#x1ee5;" horiz-adv-x="1067" 
d="M102 436l119 551h180l-116 -549q-25 -114 -25 -170q0 -70 45.5 -107.5t124.5 -37.5q121 0 213 98q48 51 72 110t51 185l100 471h183l-209 -987h-183l35 158q-32 -67 -126.5 -125t-213.5 -58q-124 0 -201 71t-77 192q0 64 28 198zM285 -330l47 219h209l-47 -219h-209z" />
    <glyph glyph-name="Ygrave" unicode="&#x1ef2;" horiz-adv-x="1296" 
d="M440 0l144 672l-369 774h229l277 -619l551 619h227l-717 -784l-143 -662h-199zM776 1565l-108 352h194l68 -352h-154z" />
    <glyph glyph-name="ygrave" unicode="&#x1ef3;" horiz-adv-x="944" 
d="M-141 -469l35 158q47 -13 73 -13q137 0 195 103l114 201l-153 1007h188l111 -782l436 782h182l-735 -1278q-108 -188 -325 -188q-38 0 -121 10zM524 1106l-108 352h194l68 -352h-154z" />
    <glyph glyph-name="uni1EF8" unicode="&#x1ef8;" horiz-adv-x="1296" 
d="M440 0l144 672l-369 774h229l277 -619l551 619h227l-717 -784l-143 -662h-199zM561 1608l39 176q38 32 90 54t96 22q61 0 150 -39q7 -3 23.5 -9.5t25.5 -10t22 -7.5t24 -6t22 -2q90 0 190 104l-39 -176q-40 -34 -92 -56t-98 -22q-13 0 -27.5 2t-24 4t-26 7.5l-22.5 7.5
t-25.5 9.5t-22.5 8.5q-8 3 -36 14t-45 15t-35 4q-93 0 -189 -100z" />
    <glyph glyph-name="uni1EF9" unicode="&#x1ef9;" horiz-adv-x="944" 
d="M-141 -469l35 158q47 -13 73 -13q137 0 195 103l114 201l-153 1007h188l111 -782l436 782h182l-735 -1278q-108 -188 -325 -188q-38 0 -121 10zM293 1149l39 176q38 32 90 54t96 22q61 0 150 -39q5 -2 28.5 -11.5t32.5 -12.5t25.5 -7t29.5 -4q90 0 191 105l-39 -177
q-39 -33 -92 -55t-99 -22q-13 0 -27 2t-24.5 4t-26 7t-22 7.5t-24.5 9.5t-23 9q-9 3 -29 10.5t-31 11t-27 7t-30 3.5q-92 0 -188 -100z" />
    <glyph glyph-name="uni2000" unicode="&#x2000;" horiz-adv-x="802" 
 />
    <glyph glyph-name="uni2001" unicode="&#x2001;" horiz-adv-x="1605" 
 />
    <glyph glyph-name="uni2002" unicode="&#x2002;" horiz-adv-x="802" 
 />
    <glyph glyph-name="uni2003" unicode="&#x2003;" horiz-adv-x="1605" 
 />
    <glyph glyph-name="uni2004" unicode="&#x2004;" horiz-adv-x="534" 
 />
    <glyph glyph-name="uni2005" unicode="&#x2005;" horiz-adv-x="401" 
 />
    <glyph glyph-name="uni2006" unicode="&#x2006;" horiz-adv-x="268" 
 />
    <glyph glyph-name="uni2007" unicode="&#x2007;" 
 />
    <glyph glyph-name="uni2008" unicode="&#x2008;" horiz-adv-x="454" 
 />
    <glyph glyph-name="uni2009" unicode="&#x2009;" horiz-adv-x="200" 
 />
    <glyph glyph-name="uni200A" unicode="&#x200a;" horiz-adv-x="67" 
 />
    <glyph glyph-name="uni200B" unicode="&#x200b;" horiz-adv-x="0" 
 />
    <glyph glyph-name="figuredash" unicode="&#x2012;" 
d="M256 559l39 174h829l-37 -174h-831z" />
    <glyph glyph-name="endash" unicode="&#x2013;" horiz-adv-x="1060" 
d="M133 588l39 174h829l-36 -174h-832z" />
    <glyph glyph-name="emdash" unicode="&#x2014;" horiz-adv-x="1605" 
d="M133 588l39 174h1374l-37 -174h-1376z" />
    <glyph glyph-name="uni2015" unicode="&#x2015;" horiz-adv-x="1605" 
d="M133 588l39 174h1374l-37 -174h-1376z" />
    <glyph glyph-name="quoteleft" unicode="&#x2018;" horiz-adv-x="464" 
d="M137 858l326 588h153l-274 -588h-205z" />
    <glyph glyph-name="quoteright" unicode="&#x2019;" horiz-adv-x="458" 
d="M147 858l273 588h205l-324 -588h-154z" />
    <glyph glyph-name="quotesinglbase" unicode="&#x201a;" horiz-adv-x="446" 
d="M-174 -356l272 585h205l-326 -585h-151z" />
    <glyph glyph-name="quotereversed" unicode="&#x201b;" horiz-adv-x="448" 
d="M432 1446l25 -584h-152l-74 584h201z" />
    <glyph glyph-name="quotedblleft" unicode="&#x201c;" horiz-adv-x="770" 
d="M137 858l326 588h153l-274 -588h-205zM442 858l328 588h152l-275 -588h-205z" />
    <glyph glyph-name="quotedblright" unicode="&#x201d;" horiz-adv-x="763" 
d="M147 858l273 588h207l-326 -588h-154zM453 858l274 588h205l-326 -588h-153z" />
    <glyph glyph-name="quotedblbase" unicode="&#x201e;" horiz-adv-x="753" 
d="M-176 -356l274 585h205l-326 -585h-153zM131 -356l277 585h202l-323 -585h-156z" />
    <glyph glyph-name="uni201F" unicode="&#x201f;" horiz-adv-x="753" 
d="M737 1446l25 -584h-152l-73 584h200zM432 1446l25 -584h-152l-74 584h201z" />
    <glyph glyph-name="dagger" unicode="&#x2020;" horiz-adv-x="972" 
d="M274 -80l197 920h-344l35 164h344l94 442h182l-92 -442h338l-37 -164h-338l-196 -920h-183z" />
    <glyph glyph-name="daggerdbl" unicode="&#x2021;" horiz-adv-x="972" 
d="M276 -80l89 418h-326l33 162h327l86 401h-327l35 162h327l82 385h180l-84 -385h324l-35 -162h-321l-86 -401h321l-33 -162h-323l-88 -418h-181z" />
    <glyph glyph-name="bullet" unicode="&#x2022;" horiz-adv-x="784" 
d="M436 457q-112 0 -191 78.5t-79 191.5t79 191.5t191 78.5q113 0 192 -79t79 -191t-79 -191t-192 -79z" />
    <glyph glyph-name="ellipsis" unicode="&#x2026;" horiz-adv-x="1470" 
d="M18 0l50 233h233l-49 -233h-234zM526 0l49 233h234l-49 -233h-234zM1034 0l49 233h234l-49 -233h-234z" />
    <glyph glyph-name="perthousand" unicode="&#x2030;" horiz-adv-x="2437" 
d="M502 778q68 0 125 61t86.5 146.5t29.5 167.5q0 81 -30 138t-90 57q-69 0 -126 -61t-86.5 -146.5t-29.5 -167.5q0 -81 30.5 -138t90.5 -57zM477 662q-81 0 -138.5 45t-82.5 111.5t-25 146.5q0 69 19 140t56 135t87 114t116 80t138 30q82 0 139.5 -45t82 -111.5
t24.5 -146.5q0 -87 -30.5 -175.5t-83 -160.5t-132.5 -117.5t-170 -45.5zM178 0l1286 1446h170l-1288 -1446h-168zM1196 98q68 0 125 61t87 146.5t30 167.5q0 80 -30.5 137.5t-90.5 57.5q-69 0 -126 -61t-86.5 -146.5t-29.5 -167.5q0 -81 30.5 -138t90.5 -57zM1171 -18
q-81 0 -138 45t-82 111.5t-25 146.5q0 86 30.5 174.5t83.5 161t132.5 118t168.5 45.5q82 0 139.5 -45t82 -111.5t24.5 -146.5q0 -87 -30.5 -175.5t-83 -160.5t-132.5 -117.5t-170 -45.5zM1915 98q68 0 125 61t87 146.5t30 167.5q0 80 -30.5 137.5t-90.5 57.5q-69 0 -126 -61
t-86.5 -146.5t-29.5 -167.5q0 -81 30.5 -138t90.5 -57zM1890 -18q-81 0 -138 45t-82 111.5t-25 146.5q0 86 30.5 174.5t83.5 161t132.5 118t168.5 45.5q82 0 139.5 -45t82 -111.5t24.5 -146.5q0 -87 -30.5 -175.5t-83 -160.5t-132.5 -117.5t-170 -45.5z" />
    <glyph glyph-name="uni2032" unicode="&#x2032;" horiz-adv-x="374" 
d="M190 858l125 588h146l-125 -588h-146z" />
    <glyph glyph-name="uni2033" unicode="&#x2033;" horiz-adv-x="675" 
d="M190 858l125 588h148l-125 -588h-148zM489 858l125 588h148l-125 -588h-148z" />
    <glyph glyph-name="guilsinglleft" unicode="&#x2039;" horiz-adv-x="544" 
d="M102 600l33 156l402 260l-37 -174l-269 -168l197 -166l-37 -168z" />
    <glyph glyph-name="guilsinglright" unicode="&#x203a;" horiz-adv-x="542" 
d="M86 340l35 174l270 168l-198 168l36 166l289 -258l-33 -156z" />
    <glyph glyph-name="fraction" unicode="&#x2044;" horiz-adv-x="266" 
d="M-545 0l1286 1446h170l-1288 -1446h-168z" />
    <glyph glyph-name="uni2070" unicode="&#x2070;" horiz-adv-x="737" 
d="M504 1126q68 0 125 61t86.5 146.5t29.5 167.5q0 81 -30 138t-90 57q-69 0 -126 -61t-86.5 -146.5t-29.5 -167.5q0 -81 30.5 -138t90.5 -57zM479 1010q-81 0 -138.5 45t-82.5 111.5t-25 146.5q0 69 19 140t56 135t87 114t116 80t138 30q82 0 139.5 -45t82 -111.5
t24.5 -146.5q0 -87 -30.5 -175.5t-83 -160.5t-132.5 -117.5t-170 -45.5z" />
    <glyph glyph-name="uni2074" unicode="&#x2074;" horiz-adv-x="737" 
d="M211 1217l25 114l401 463h180l-98 -461h143l-26 -116h-142l-41 -189h-139l39 189h-342zM389 1333h189l69 314z" />
    <glyph glyph-name="uni2075" unicode="&#x2075;" horiz-adv-x="737" 
d="M248 1223l145 30q0 -127 111 -127q72 0 122 57.5t50 135.5q0 51 -27 86t-82 35q-49 0 -89.5 -31.5t-57.5 -69.5l-135 29l143 426h461l-25 -117h-344l-63 -188q23 26 68.5 46.5t99.5 20.5q95 0 144.5 -63t49.5 -154q0 -134 -100 -231.5t-242 -97.5q-115 0 -171 58.5
t-58 154.5z" />
    <glyph glyph-name="uni2076" unicode="&#x2076;" horiz-adv-x="737" 
d="M883 1624l-150 -31q-5 103 -86 103q-41 0 -76.5 -22t-61 -58.5t-42.5 -74.5t-29 -81q18 33 70.5 59.5t109.5 26.5q98 0 152.5 -63t54.5 -156q0 -136 -101.5 -226.5t-225.5 -90.5q-51 0 -91.5 16.5t-66.5 43.5t-43 64t-24 74.5t-7 77.5q0 67 14 137.5t46 140.5t78 125
t116 89t154 34q80 0 141 -47.5t68 -140.5zM516 1126q65 0 116.5 54t51.5 137q0 51 -30.5 82t-75.5 31q-72 0 -121 -58.5t-49 -128.5q0 -54 30 -85.5t78 -31.5z" />
    <glyph glyph-name="uni2077" unicode="&#x2077;" horiz-adv-x="737" 
d="M424 1028h-158q77 128 264 374t218 275h-412l26 117h568l-25 -115q-50 -47 -222.5 -281t-258.5 -370z" />
    <glyph glyph-name="uni2078" unicode="&#x2078;" horiz-adv-x="737" 
d="M436 1438q-46 18 -71 54t-25 81q0 92 89.5 165.5t219.5 73.5q57 0 101 -16.5t69 -43.5t37 -57t12 -61q0 -66 -46.5 -118.5t-121.5 -77.5q121 -40 121 -154q0 -109 -100 -191.5t-242 -82.5q-115 0 -179 57.5t-64 136.5q0 88 54 146t146 88zM379 1231q0 -43 32.5 -74
t92.5 -31q72 0 123 44t51 102q0 42 -28.5 72t-92.5 30q-91 0 -134.5 -47t-43.5 -96zM479 1579q0 -34 26.5 -59t76.5 -25q66 0 103.5 35t37.5 82q0 36 -24.5 60t-73.5 24q-63 0 -104.5 -35t-41.5 -82z" />
    <glyph glyph-name="uni2079" unicode="&#x2079;" horiz-adv-x="737" 
d="M242 1206l153 33q0 -113 88 -113q44 0 80.5 24t62 66.5t41 79t29.5 84.5q-19 -32 -71 -59t-109 -27q-97 0 -153 59t-56 148q0 88 48.5 161t122.5 111.5t155 38.5q50 0 90.5 -16.5t66 -43.5t43 -63.5t24.5 -74t7 -76.5q0 -68 -17 -140.5t-51.5 -142t-82.5 -124t-115.5 -88
t-144.5 -33.5q-78 0 -142.5 52t-68.5 144zM555 1411q66 0 115 53.5t49 112.5q0 51 -30 85t-77 34q-62 0 -110.5 -51t-48.5 -121q0 -47 28.5 -80t73.5 -33z" />
    <glyph glyph-name="uni2080" unicode="&#x2080;" horiz-adv-x="737" 
d="M176 -414q68 0 125 61t87 146.5t30 167.5q0 80 -30.5 137.5t-90.5 57.5q-69 0 -126 -61t-86.5 -146.5t-29.5 -167.5q0 -81 30.5 -138t90.5 -57zM152 -530q-81 0 -138.5 45t-82.5 111.5t-25 146.5q0 69 19 140t56 135t87 114t116 80t138 30q82 0 139 -45t81.5 -111.5
t24.5 -146.5q0 -87 -30.5 -175.5t-83 -160.5t-132 -117.5t-169.5 -45.5z" />
    <glyph glyph-name="uni2081" unicode="&#x2081;" horiz-adv-x="737" 
d="M119 -512l114 545h-145l25 119h57q57 0 83.5 21t39.5 81h133l-162 -766h-145z" />
    <glyph glyph-name="uni2082" unicode="&#x2082;" horiz-adv-x="737" 
d="M-129 -512l27 131q60 26 137.5 71t162 106t142 133t57.5 134q0 42 -24.5 67.5t-65.5 25.5q-130 0 -168 -174l-141 32q18 88 74.5 148.5t122.5 85t137 24.5q97 0 157 -53.5t60 -138.5q0 -238 -457 -475h373l-25 -117h-569z" />
    <glyph glyph-name="uni2083" unicode="&#x2083;" horiz-adv-x="737" 
d="M-86 -270l156 32q-4 -20 -4 -55q0 -56 27 -88.5t77 -32.5q71 0 119.5 44.5t48.5 105.5q0 39 -31 67.5t-102 28.5h-88l24 113h84q66 0 116 36t50 89q0 38 -27 62t-71 24q-67 0 -106 -42t-54 -108l-141 35q22 87 108.5 159t214.5 72q98 0 163 -48t65 -134q0 -66 -51 -127
t-136 -74q68 -8 98.5 -52.5t30.5 -96.5q0 -111 -98.5 -190.5t-239.5 -79.5q-101 0 -168 52t-67 159q0 33 2 49z" />
    <glyph glyph-name="uni2084" unicode="&#x2084;" horiz-adv-x="737" 
d="M-117 -324l25 115l401 463h180l-98 -461h144l-27 -117h-141l-41 -188h-140l39 188h-342zM61 -207h189l69 313z" />
    <glyph glyph-name="uni2085" unicode="&#x2085;" horiz-adv-x="737" 
d="M-78 -317l146 30q0 -127 110 -127q72 0 122 57.5t50 135.5q0 51 -26.5 86t-81.5 35q-49 0 -90 -31.5t-58 -69.5l-135 29l143 426h461l-24 -117h-344l-64 -188q23 26 68.5 46.5t99.5 20.5q95 0 145 -63t50 -154q0 -134 -100 -231.5t-242 -97.5q-115 0 -171.5 58.5
t-58.5 154.5z" />
    <glyph glyph-name="uni2086" unicode="&#x2086;" horiz-adv-x="737" 
d="M555 84l-149 -31q-5 103 -87 103q-41 0 -76.5 -22t-60.5 -58.5t-42 -74.5t-29 -81q18 33 70.5 59.5t109.5 26.5q98 0 152.5 -63t54.5 -156q0 -91 -50 -165.5t-124.5 -113t-153.5 -38.5q-51 0 -91.5 16.5t-66 43.5t-42.5 64t-24 74.5t-7 77.5q0 67 14 137.5t46 140.5
t77.5 125t115.5 89t154 34q80 0 141 -47.5t68 -140.5zM188 -414q65 0 116.5 54t51.5 137q0 51 -30 81.5t-76 30.5q-72 0 -121 -58t-49 -128q0 -54 30 -85.5t78 -31.5z" />
    <glyph glyph-name="uni2087" unicode="&#x2087;" horiz-adv-x="737" 
d="M96 -512h-157q77 129 263.5 374.5t217.5 274.5h-412l27 117h567l-24 -115q-50 -47 -223 -281t-259 -370z" />
    <glyph glyph-name="uni2088" unicode="&#x2088;" horiz-adv-x="737" 
d="M111 -102q-47 18 -72 54t-25 81q0 92 90 165.5t220 73.5q57 0 101 -16.5t69 -43.5t37 -57t12 -61q0 -66 -46.5 -118.5t-121.5 -77.5q121 -40 121 -154q0 -109 -100 -191.5t-242 -82.5q-115 0 -179.5 57.5t-64.5 136.5q0 88 54.5 146t146.5 88zM53 -309q0 -43 32.5 -74
t92.5 -31q72 0 123 44t51 102q0 42 -28.5 72t-92.5 30q-91 0 -134.5 -47t-43.5 -96zM154 39q0 -34 26 -59t76 -25q66 0 103.5 35t37.5 82q0 36 -24.5 60t-73.5 24q-63 0 -104 -35t-41 -82z" />
    <glyph glyph-name="uni2089" unicode="&#x2089;" horiz-adv-x="737" 
d="M-86 -334l154 33q0 -113 88 -113q44 0 80.5 24t62 66.5t41 79t29.5 84.5q-19 -32 -71.5 -59t-109.5 -27q-97 0 -152.5 59t-55.5 148t48 161.5t122 111t155 38.5q62 0 109 -24.5t72.5 -66t38 -87.5t12.5 -96q0 -68 -17 -140.5t-52 -142t-83 -124t-115.5 -88t-144.5 -33.5
q-78 0 -142.5 52t-68.5 144zM227 -129q66 0 115 53.5t49 112.5q0 51 -29.5 85t-76.5 34q-62 0 -111 -51t-49 -121q0 -47 28.5 -80t73.5 -33z" />
    <glyph glyph-name="colonmonetary" unicode="&#x20a1;" 
d="M125 -197l131 273q-95 80 -144 204.5t-49 276.5q0 140 36.5 275t110 252t174 206t237.5 140t292 51h19l78 161h125l-86 -176q51 -12 96 -32l100 208h125l-129 -268q79 -62 122 -155t46 -203l-188 -43q-8 134 -68 219l-508 -1061q168 6 296 117.5t189 267.5l179 -37
q-40 -103 -105 -193t-153 -163t-206 -115.5t-251 -42.5h-29l-78 -162h-127l86 181q-61 14 -94 30l-102 -211h-125zM268 557q0 -185 76 -297l506 1053q-128 -10 -238.5 -77.5t-185 -172t-116.5 -236.5t-42 -270zM430 180q49 -29 92 -39l545 1133q-42 22 -94 33z" />
    <glyph glyph-name="uni20A6" unicode="&#x20a6;" 
d="M90 784l25 113h137l117 549h268l127 -549h293l117 549h184l-119 -549h139l-24 -113h-137l-27 -122h137l-24 -113h-138l-116 -549h-283l-123 549h-283l-116 -549h-183l117 549h-135l23 113h135l26 122h-137zM791 784l28 -122h187l26 122h-241zM412 784l-27 -122h233
l-26 122h-180zM846 549l72 -307l65 307h-137zM502 1202l-66 -305h131z" />
    <glyph glyph-name="Euro" unicode="&#x20ac;" 
d="M63 807l66 115h98q46 121 115 221t161 177t210.5 120t251.5 43q198 0 318.5 -102t146.5 -271l-185 -57q-18 119 -96.5 192.5t-202.5 73.5q-173 0 -301.5 -109t-202.5 -288h625l-68 -115h-596q-21 -77 -28 -133h557l-70 -115h-500v-49q0 -108 33 -192t108.5 -136.5
t184.5 -52.5q139 0 254.5 88t181.5 223l170 -49q-89 -188 -256 -307t-385 -119q-123 0 -220 42t-157 116t-91 170.5t-31 210.5q0 37 2 55h-146l68 115h88q8 64 27 133h-130z" />
    <glyph glyph-name="uni20B2" unicode="&#x20b2;" 
d="M467 -195l35 164q-235 24 -352 178t-117 390q0 181 58 347t160.5 292t251 206.5t320.5 94.5l35 163h113l-35 -161q199 -11 325 -113t156 -285l-196 -41q-22 116 -101.5 192.5t-218.5 82.5l-254 -1184q186 15 313.5 143.5t180.5 348.5h-307l36 165h488l-166 -788h-178
l37 180q-173 -201 -439 -213l-32 -162h-113zM238 535q0 -166 77 -274t222 -128l249 1176q-124 -19 -229 -93t-174 -181t-107 -237t-38 -263z" />
    <glyph glyph-name="uni20B5" unicode="&#x20b5;" 
d="M498 -195l34 164q-153 14 -260.5 96.5t-158 208t-50.5 283.5q0 135 34 265t101.5 244t161 202.5t220.5 144.5t272 66l35 161h114l-34 -161q202 -17 319.5 -146t122.5 -317l-188 -43q-3 46 -11 87t-29 86.5t-51.5 79t-81.5 58t-116 29.5l-252 -1180q157 18 274 126
t176 257l179 -37q-39 -98 -99.5 -184.5t-142.5 -157.5t-190.5 -116.5t-231.5 -53.5l-35 -162h-112zM268 557q0 -174 72 -288.5t227 -135.5l248 1176q-161 -22 -287.5 -134.5t-193 -275.5t-66.5 -342z" />
    <glyph glyph-name="uni20BA" unicode="&#x20ba;" 
d="M207 852l24 113l275 94l84 387h196l-67 -316l450 154l-22 -113l-453 -153l-28 -137l452 153l-24 -112l-453 -154l-135 -641q104 4 194.5 51.5t155 125.5t109 171t67.5 195l187 -37q-26 -103 -70.5 -198t-111.5 -181.5t-149.5 -150t-190 -101t-226.5 -37.5q-98 0 -190 25
l149 706l-274 -92l22 113l277 92l28 137z" />
    <glyph glyph-name="uni20BF" unicode="&#x20bf;" 
d="M29 0l307 1446h278l41 194h115l-41 -194h133l41 194h115l-43 -194q167 -5 267.5 -87t100.5 -226q0 -82 -32 -153t-82 -117.5t-107 -75.5t-112 -37q120 -17 185 -88t65 -181q0 -100 -31 -180t-85 -134.5t-130 -91.5t-161.5 -54.5t-184.5 -20.5l-41 -195h-113l41 195h-135
l-41 -195h-113l41 195h-278zM264 166h420q29 0 56.5 2t66.5 9.5t71.5 19.5t66.5 35t58 53t39 76t15 102q0 49 -18.5 85.5t-47 57t-71.5 33t-83.5 16.5t-91.5 4h-378zM403 825h365q65 0 125 13t117.5 42.5t92 86t34.5 133.5q0 88 -67 134t-159 46h-411z" />
    <glyph glyph-name="uni2113" unicode="&#x2113;" horiz-adv-x="1017" 
d="M866 303l64 -67q-196 -259 -461 -259q-144 0 -215.5 78.5t-71.5 210.5q0 47 4 70l-137 -90l-33 90l195 131l98 510q25 127 71.5 221.5t105 146.5t119.5 76.5t126 24.5q111 0 165 -64.5t54 -169.5q0 -45 -7 -88.5t-23 -86t-34 -79.5t-49 -78.5t-57 -74.5t-70 -75
t-76.5 -72.5t-86.5 -75.5t-90.5 -75t-98.5 -79q-14 -91 -14 -127q0 -99 55 -148t131 -49q93 0 182 59t154 140zM469 1001l-80 -423q187 164 257 239q160 172 180 329q3 26 3 52q0 133 -118 133q-31 0 -64 -17t-67 -53.5t-64 -103.5t-47 -156z" />
    <glyph glyph-name="uni2117" unicode="&#x2117;" horiz-adv-x="1687" 
d="M201 723q0 -187 93 -346.5t252.5 -252.5t346.5 -93t346.5 93t252.5 252.5t93 346.5t-93 346.5t-252.5 252.5t-346.5 93t-346.5 -93t-252.5 -252.5t-93 -346.5zM135 723q0 154 60 294.5t161.5 242t242 161.5t294.5 60t294.5 -60t242 -161.5t161.5 -242t60 -294.5
t-60 -294.5t-161.5 -242t-242 -161.5t-294.5 -60t-294.5 60t-242 161.5t-161.5 242t-60 294.5zM553 258v930h442q149 0 234.5 -70t85.5 -209t-85.5 -210.5t-234.5 -71.5h-278v-369h-164zM717 760h262q84 0 127 34.5t43 114.5q0 65 -42.5 105.5t-127.5 40.5h-262v-295z" />
    <glyph glyph-name="trademark" unicode="&#x2122;" horiz-adv-x="1601" 
d="M854 766v680h164l184 -549l187 549h163v-680h-106v543l-184 -543h-117l-184 543v-543h-107zM467 766v584h-219v96h549v-96h-215v-584h-115z" />
    <glyph glyph-name="Omega" unicode="&#x2126;" horiz-adv-x="1443" 
d="M-23 0l33 162h275q-64 78 -102 190t-38 240q0 131 37 261t108 242.5t166 199t218.5 136.5t257.5 50q217 0 351 -148t134 -389q0 -442 -399 -782h274l-32 -162h-521l27 125q202 117 331.5 334t129.5 471q0 177 -85.5 283t-244.5 106q-103 0 -194.5 -42t-158.5 -114.5
t-116 -166.5t-73.5 -200t-24.5 -214q0 -154 54 -274.5t138 -182.5l-26 -125h-519z" />
    <glyph glyph-name="estimated" unicode="&#x212e;" horiz-adv-x="1843" 
d="M1833 702h-1364q-10 0 -10 -10v-411q0 -29 16 -48q102 -106 235.5 -165.5t280.5 -59.5q159 0 299.5 67.5t243.5 184.5h121q-115 -135 -291 -214t-375 -79q-171 0 -326.5 60t-268 161t-178.5 241t-66 294t66 294.5t178.5 242t268 161.5t326.5 60q138 0 267 -38.5
t232.5 -108.5t181.5 -163t120.5 -209t42.5 -239v-21zM1524 756v413q0 27 -21 52q-104 101 -235 158t-277 57q-145 0 -278 -60t-236 -164q-18 -18 -18 -51v-405q0 -4 3 -9.5t7 -5.5h1044q4 0 7.5 5.5t3.5 9.5z" />
    <glyph glyph-name="uni2150" unicode="&#x2150;" horiz-adv-x="1546" 
d="M246 680l114 545h-145l25 118h57q57 0 83.5 21.5t39.5 81.5h133l-162 -766h-145zM63 0l1287 1446h170l-1289 -1446h-168zM1042 0h-157q77 129 263.5 374.5t217.5 274.5h-412l27 117h567l-24 -115q-50 -47 -223 -281t-259 -370z" />
    <glyph glyph-name="uni2151" unicode="&#x2151;" horiz-adv-x="1554" 
d="M242 680l114 545h-145l25 118h57q57 0 83.5 21.5t39.5 81.5h133l-162 -766h-145zM59 0l1287 1446h170l-1289 -1446h-168zM858 178l154 33q0 -113 88 -113q44 0 80.5 24t62 66.5t41 79t29.5 84.5q-19 -32 -71 -59t-109 -27q-97 0 -153 59t-56 148t48 161.5t122 111
t155 38.5q62 0 109 -24.5t72.5 -66t38 -87.5t12.5 -96q0 -68 -17 -140.5t-52 -142t-83 -124t-115.5 -88t-144.5 -33.5q-78 0 -142.5 52t-68.5 144zM1171 383q66 0 115 53.5t49 112.5q0 51 -29.5 85t-76.5 34q-62 0 -111 -51t-49 -121q0 -47 28.5 -80t73.5 -33z" />
    <glyph glyph-name="uni2152" unicode="&#x2152;" horiz-adv-x="2179" 
d="M244 680l114 545h-145l25 118h57q57 0 83.5 21.5t39.5 81.5h133l-162 -766h-145zM61 0l1287 1446h170l-1289 -1446h-168zM1061 0l115 545h-146l25 119h57q57 0 83.5 21t39.5 81h133l-162 -766h-145zM1718 98q68 0 125 61t87 146.5t30 167.5q0 80 -30.5 137.5t-90.5 57.5
q-69 0 -126 -61t-86.5 -146.5t-29.5 -167.5q0 -81 30.5 -138t90.5 -57zM1694 -18q-81 0 -138.5 45t-82.5 111.5t-25 146.5q0 69 19 140t56 135t87 114t116 80t138 30q82 0 139 -45t81.5 -111.5t24.5 -146.5q0 -87 -30.5 -175.5t-83 -160.5t-132 -117.5t-169.5 -45.5z" />
    <glyph glyph-name="onethird" unicode="&#x2153;" horiz-adv-x="1552" 
d="M242 680l114 545h-145l25 118h57q57 0 83.5 21.5t39.5 81.5h133l-162 -766h-145zM59 0l1287 1446h170l-1289 -1446h-168zM856 242l156 32q-4 -20 -4 -55q0 -56 27 -88.5t77 -32.5q71 0 119.5 44.5t48.5 105.5q0 39 -31 67.5t-102 28.5h-88l24 113h84q66 0 116 36t50 89
q0 38 -27 62t-71 24q-67 0 -106 -42t-54 -108l-141 35q22 87 108.5 159t214.5 72q98 0 163 -48t65 -134q0 -66 -51 -127t-136 -74q68 -8 98.5 -52.5t30.5 -96.5q0 -111 -98 -190.5t-239 -79.5q-101 0 -168.5 52t-67.5 159q0 33 2 49z" />
    <glyph glyph-name="twothirds" unicode="&#x2154;" horiz-adv-x="1667" 
d="M106 680l27 131q60 26 137.5 71t162.5 106t142.5 133t57.5 134q0 42 -24.5 67.5t-65.5 25.5q-130 0 -168 -174l-142 32q18 88 74.5 148.5t122.5 85t137 24.5q97 0 157 -53.5t60 -138.5q0 -61 -32.5 -123.5t-79 -111.5t-113 -98t-119 -80t-112.5 -62h372l-24 -117h-570z
M182 0l1286 1446h170l-1288 -1446h-168zM979 242l156 32q-5 -25 -5 -55q0 -56 27.5 -88.5t77.5 -32.5q71 0 119.5 44.5t48.5 105.5q0 39 -31 67.5t-102 28.5h-88l24 113h84q66 0 116 36t50 89q0 38 -27 62t-71 24q-67 0 -106 -42t-54 -108l-141 35q22 87 108.5 159t214.5 72
q98 0 163 -48t65 -134q0 -66 -51 -127t-136 -74q68 -8 98.5 -52.5t30.5 -96.5q0 -111 -98.5 -190.5t-239.5 -79.5q-101 0 -168 52t-67 159q0 33 2 49z" />
    <glyph glyph-name="uni2155" unicode="&#x2155;" horiz-adv-x="1550" 
d="M242 680l114 545h-145l25 118h57q57 0 83.5 21.5t39.5 81.5h133l-162 -766h-145zM59 0l1287 1446h170l-1289 -1446h-168zM862 195l146 30q0 -127 110 -127q72 0 122 57.5t50 135.5q0 51 -26.5 86t-81.5 35q-49 0 -90 -31.5t-58 -69.5l-135 29l143 426h461l-24 -117h-344
l-64 -188q23 26 68.5 46.5t99.5 20.5q95 0 145 -63t50 -154q0 -134 -100 -231.5t-242 -97.5q-115 0 -171.5 58.5t-58.5 154.5z" />
    <glyph glyph-name="uni2156" unicode="&#x2156;" horiz-adv-x="1660" 
d="M104 680l27 131q60 26 137.5 71t162.5 106t142.5 133t57.5 134q0 42 -24.5 67.5t-65.5 25.5q-130 0 -168 -174l-142 32q18 88 74.5 148.5t122.5 85t137 24.5q97 0 157 -53.5t60 -138.5q0 -61 -32.5 -123.5t-79 -111.5t-113 -98t-119 -80t-112.5 -62h372l-24 -117h-570z
M180 0l1286 1446h170l-1288 -1446h-168zM983 195l145 30q0 -127 111 -127q72 0 122 57.5t50 135.5q0 51 -26.5 86t-81.5 35q-49 0 -90 -31.5t-58 -69.5l-135 29l143 426h461l-25 -117h-344l-63 -188q23 26 68.5 46.5t99.5 20.5q95 0 144.5 -63t49.5 -154q0 -134 -100 -231.5
t-242 -97.5q-115 0 -171 58.5t-58 154.5z" />
    <glyph glyph-name="uni2157" unicode="&#x2157;" horiz-adv-x="1658" 
d="M152 922l155 32q-4 -20 -4 -55q0 -56 27.5 -88.5t77.5 -32.5q71 0 119 44.5t48 105.5q0 39 -31 67.5t-102 28.5h-88l25 113h84q66 0 116 36t50 89q0 38 -27.5 62t-71.5 24q-124 0 -159 -150l-142 35q22 87 109 159t215 72q98 0 162.5 -48t64.5 -134q0 -66 -50.5 -127
t-135.5 -74q68 -8 98.5 -52.5t30.5 -96.5q0 -111 -98.5 -190.5t-239.5 -79.5q-101 0 -168 51.5t-67 158.5q0 34 2 50zM172 0l1286 1446h170l-1288 -1446h-168zM975 195l145 30q0 -127 111 -127q72 0 122 57.5t50 135.5q0 51 -27 86t-82 35q-49 0 -89.5 -31.5t-57.5 -69.5
l-135 29l143 426h461l-25 -117h-344l-63 -188q23 26 68.5 46.5t99.5 20.5q95 0 144.5 -63t49.5 -154q0 -134 -100 -231.5t-242 -97.5q-115 0 -171 58.5t-58 154.5z" />
    <glyph glyph-name="uni2158" unicode="&#x2158;" horiz-adv-x="1683" 
d="M133 868l25 115l401 463h180l-98 -461h143l-26 -117h-142l-41 -188h-139l39 188h-342zM311 985h189l69 313zM188 0l1287 1446h170l-1289 -1446h-168zM991 195l146 30q0 -127 110 -127q72 0 122 57.5t50 135.5q0 51 -26.5 86t-81.5 35q-49 0 -90 -31.5t-58 -69.5l-135 29
l143 426h461l-24 -117h-344l-64 -188q23 26 68.5 46.5t99.5 20.5q95 0 145 -63t50 -154q0 -134 -100 -231.5t-242 -97.5q-115 0 -171.5 58.5t-58.5 154.5z" />
    <glyph glyph-name="uni2159" unicode="&#x2159;" horiz-adv-x="1554" 
d="M242 680l114 545h-145l25 118h57q57 0 83.5 21.5t39.5 81.5h133l-162 -766h-145zM59 0l1287 1446h170l-1289 -1446h-168zM1495 596l-149 -31q-5 103 -86 103q-41 0 -76.5 -22t-61 -58.5t-42.5 -74.5t-29 -81q18 33 70.5 59.5t109.5 26.5q98 0 152.5 -63t54.5 -156
q0 -91 -50 -165.5t-124.5 -113t-153.5 -38.5q-51 0 -91.5 16.5t-66 43.5t-42.5 64t-24 74.5t-7 77.5q0 67 14 137.5t46 140.5t77.5 125t115.5 89t154 34q80 0 141 -47.5t68 -140.5zM1128 98q65 0 116.5 54t51.5 137q0 51 -30 81.5t-76 30.5q-72 0 -121 -58t-49 -128
q0 -54 30 -85.5t78 -31.5z" />
    <glyph glyph-name="uni215A" unicode="&#x215a;" horiz-adv-x="1642" 
d="M141 874l146 31q0 -127 110 -127q72 0 122 57.5t50 135.5q0 51 -26.5 86t-81.5 35q-49 0 -90 -31.5t-58 -69.5l-135 29l144 426h460l-24 -117h-344l-64 -188q23 26 68.5 46.5t99.5 20.5q95 0 145 -63t50 -154q0 -134 -100 -231.5t-242 -97.5q-115 0 -171.5 58t-58.5 154z
M156 0l1286 1446h170l-1288 -1446h-168zM1591 596l-149 -31q-5 103 -86 103q-41 0 -76.5 -22t-61 -58.5t-42.5 -74.5t-29 -81q18 33 70.5 59.5t109.5 26.5q98 0 152.5 -63t54.5 -156q0 -91 -50 -165.5t-124.5 -113t-153.5 -38.5q-51 0 -91.5 16.5t-66 43.5t-42.5 64
t-24 74.5t-7 77.5q0 67 14 137.5t46 140.5t77.5 125t115.5 89t154 34q80 0 141 -47.5t68 -140.5zM1225 98q65 0 116.5 54t51.5 137q0 51 -30.5 81.5t-76.5 30.5q-72 0 -121 -58t-49 -128q0 -54 30.5 -85.5t78.5 -31.5z" />
    <glyph glyph-name="oneeighth" unicode="&#x215b;" horiz-adv-x="1554" 
d="M242 680l114 545h-145l25 118h57q57 0 83.5 21.5t39.5 81.5h133l-162 -766h-145zM59 0l1287 1446h170l-1289 -1446h-168zM1049 410q-47 18 -72 54t-25 81q0 92 90 165.5t220 73.5q57 0 101 -16.5t69 -43.5t37 -57t12 -61q0 -66 -46.5 -118.5t-121.5 -77.5
q121 -40 121 -154q0 -109 -100 -191.5t-242 -82.5q-115 0 -179.5 57.5t-64.5 136.5q0 88 54.5 146t146.5 88zM991 203q0 -43 32.5 -74t92.5 -31q72 0 123 44t51 102q0 42 -28.5 72t-92.5 30q-91 0 -134.5 -47t-43.5 -96zM1092 551q0 -34 26 -59t76 -25q66 0 103.5 35
t37.5 82q0 36 -24.5 60t-73.5 24q-63 0 -104 -35t-41 -82z" />
    <glyph glyph-name="threeeighths" unicode="&#x215c;" horiz-adv-x="1662" 
d="M152 922l155 32q-4 -20 -4 -55q0 -56 27.5 -88.5t77.5 -32.5q71 0 119 44.5t48 105.5q0 39 -31 67.5t-102 28.5h-88l25 113h84q66 0 116 36t50 89q0 38 -27.5 62t-71.5 24q-124 0 -159 -150l-142 35q22 87 109 159t215 72q98 0 162.5 -48t64.5 -134q0 -66 -50.5 -127
t-135.5 -74q68 -8 98.5 -52.5t30.5 -96.5q0 -111 -98.5 -190.5t-239.5 -79.5q-101 0 -168 51.5t-67 158.5q0 34 2 50zM172 0l1286 1446h170l-1288 -1446h-168zM1161 410q-46 18 -71 54t-25 81q0 92 89.5 165.5t219.5 73.5q57 0 101 -16.5t69 -43.5t37 -57t12 -61
q0 -66 -46.5 -118.5t-121.5 -77.5q121 -40 121 -154q0 -109 -100 -191.5t-242 -82.5q-115 0 -179 57.5t-64 136.5q0 88 54 146t146 88zM1104 203q0 -43 32.5 -74t92.5 -31q72 0 123 44t51 102q0 42 -28.5 72t-92.5 30q-91 0 -134.5 -47t-43.5 -96zM1204 551q0 -34 26.5 -59
t76.5 -25q66 0 103.5 35t37.5 82q0 36 -24.5 60t-73.5 24q-63 0 -104.5 -35t-41.5 -82z" />
    <glyph glyph-name="fiveeighths" unicode="&#x215d;" horiz-adv-x="1646" 
d="M143 874l146 31q0 -127 110 -127q72 0 122 57.5t50 135.5q0 51 -26.5 86t-81.5 35q-49 0 -90 -31.5t-58 -69.5l-135 29l144 426h460l-24 -117h-344l-64 -188q23 26 68.5 46.5t99.5 20.5q95 0 145 -63t50 -154q0 -134 -100 -231.5t-242 -97.5q-115 0 -171.5 58t-58.5 154z
M158 0l1286 1446h170l-1288 -1446h-168zM1147 410q-46 18 -71 54t-25 81q0 92 89.5 165.5t219.5 73.5q57 0 101 -16.5t69 -43.5t37 -57t12 -61q0 -66 -46.5 -118.5t-121.5 -77.5q121 -40 121 -154q0 -109 -100 -191.5t-242 -82.5q-115 0 -179.5 57.5t-64.5 136.5
q0 88 54.5 146t146.5 88zM1090 203q0 -43 32.5 -74t91.5 -31q72 0 123.5 44t51.5 102q0 42 -28.5 72t-92.5 30q-91 0 -134.5 -47t-43.5 -96zM1190 551q0 -34 26 -59t76 -25q66 0 104 35t38 82q0 35 -25 59.5t-74 24.5q-63 0 -104 -35t-41 -82z" />
    <glyph glyph-name="seveneighths" unicode="&#x215e;" horiz-adv-x="1656" 
d="M322 680h-158q77 129 263.5 374.5t217.5 274.5h-412l27 117h567l-24 -115q-50 -47 -222.5 -281t-258.5 -370zM160 0l1286 1446h170l-1288 -1446h-168zM1149 410q-46 18 -71 54t-25 81q0 92 89.5 165.5t219.5 73.5q57 0 101 -16.5t69 -43.5t37 -57t12 -61
q0 -66 -46.5 -118.5t-121.5 -77.5q121 -40 121 -154q0 -109 -100 -191.5t-242 -82.5q-115 0 -179.5 57.5t-64.5 136.5q0 88 54.5 146t146.5 88zM1092 203q0 -43 32.5 -74t92.5 -31q72 0 123 44t51 102q0 42 -28.5 72t-92.5 30q-91 0 -134.5 -47t-43.5 -96zM1192 551
q0 -34 26 -59t76 -25q66 0 104 35t38 82q0 35 -25 59.5t-74 24.5q-63 0 -104 -35t-41 -82z" />
    <glyph glyph-name="uni215F" unicode="&#x215f;" horiz-adv-x="1212" 
d="M344 680l115 545h-146l25 118h57q57 0 83.5 21.5t39.5 81.5h133l-162 -766h-145zM162 0l1286 1446h170l-1288 -1446h-168z" />
    <glyph glyph-name="uni2160" unicode="&#x2160;" horiz-adv-x="512" 
d="M53 0l307 1446h199l-309 -1446h-197z" />
    <glyph glyph-name="uni2161" unicode="&#x2161;" horiz-adv-x="999" 
d="M53 0l307 1446h199l-309 -1446h-197zM541 0l307 1446h199l-310 -1446h-196z" />
    <glyph glyph-name="uni2162" unicode="&#x2162;" horiz-adv-x="1486" 
d="M53 0l307 1446h199l-309 -1446h-197zM541 0l307 1446h199l-310 -1446h-196zM1028 0l307 1446h199l-309 -1446h-197z" />
    <glyph glyph-name="uni2163" unicode="&#x2163;" horiz-adv-x="1824" 
d="M53 0l307 1446h199l-309 -1446h-197zM938 0l-227 1446h204l191 -1233l729 1233h201l-865 -1446h-233z" />
    <glyph glyph-name="uni2164" unicode="&#x2164;" horiz-adv-x="1327" 
d="M436 0l-227 1446h205l190 -1233l729 1233h201l-864 -1446h-234z" />
    <glyph glyph-name="uni2165" unicode="&#x2165;" horiz-adv-x="1828" 
d="M432 0l-227 1446h205l190 -1233l729 1233h201l-864 -1446h-234zM1370 0l307 1446h199l-309 -1446h-197z" />
    <glyph glyph-name="uni2166" unicode="&#x2166;" horiz-adv-x="2314" 
d="M430 0l-227 1446h205l190 -1233l729 1233h201l-864 -1446h-234zM1368 0l307 1446h199l-309 -1446h-197zM1855 0l308 1446h198l-309 -1446h-197z" />
    <glyph glyph-name="uni2167" unicode="&#x2167;" horiz-adv-x="2799" 
d="M428 0l-227 1446h205l190 -1233l729 1233h201l-864 -1446h-234zM1366 0l307 1446h199l-309 -1446h-197zM1853 0l308 1446h198l-309 -1446h-197zM2341 0l307 1446h199l-310 -1446h-196z" />
    <glyph glyph-name="uni2168" unicode="&#x2168;" horiz-adv-x="1800" 
d="M53 0l307 1446h199l-309 -1446h-197zM387 0l723 776l-336 670h227l256 -528l484 528h227l-627 -672l390 -774h-230l-309 633l-576 -633h-229z" />
    <glyph glyph-name="uni2169" unicode="&#x2169;" horiz-adv-x="1275" 
d="M-137 0l723 776l-336 670h227l256 -528l484 528h227l-627 -672l389 -774h-229l-309 633l-576 -633h-229z" />
    <glyph glyph-name="uni216A" unicode="&#x216a;" horiz-adv-x="1812" 
d="M-137 0l723 776l-336 670h227l256 -528l484 528h227l-627 -672l389 -774h-229l-309 633l-576 -633h-229zM1354 0l307 1446h199l-310 -1446h-196z" />
    <glyph glyph-name="uni216B" unicode="&#x216b;" horiz-adv-x="2299" 
d="M-137 0l723 776l-336 670h227l256 -528l484 528h227l-627 -672l389 -774h-229l-309 633l-576 -633h-229zM1354 0l307 1446h199l-310 -1446h-196zM1841 0l307 1446h199l-309 -1446h-197z" />
    <glyph glyph-name="uni216C" unicode="&#x216c;" horiz-adv-x="1105" 
d="M53 0l307 1446h199l-274 -1280h735l-35 -166h-932z" />
    <glyph glyph-name="uni216D" unicode="&#x216d;" horiz-adv-x="1441" 
d="M1212 516l191 -37q-44 -103 -112 -193t-160 -163t-214 -115.5t-258 -42.5q-109 0 -200 31.5t-155 86.5t-108.5 130t-65.5 161t-21 181q0 182 63 349.5t174.5 295.5t277.5 204.5t359 76.5q116 0 211 -36.5t159 -101t102 -147.5t48 -180l-207 -43q-8 71 -30.5 130t-62 108
t-103.5 76.5t-146 27.5q-134 0 -254 -62t-203.5 -165t-132.5 -241t-49 -286q0 -90 21.5 -166t65.5 -136t118.5 -94t173.5 -34q77 0 148 22t126 58.5t102.5 87t81.5 104t60 113.5z" />
    <glyph glyph-name="uni216E" unicode="&#x216e;" horiz-adv-x="1480" 
d="M289 166h260q120 0 225 31.5t182 86.5t137.5 125.5t97.5 152t56 163t19 160.5q0 193 -111 294t-358 101h-271zM53 0l307 1446h482q99 0 188.5 -18t171.5 -59.5t141 -103.5t94.5 -156.5t35.5 -211.5q0 -159 -51 -302t-140 -250t-205.5 -185.5t-250.5 -119t-271 -40.5h-502
z" />
    <glyph glyph-name="uni216F" unicode="&#x216f;" horiz-adv-x="1806" 
d="M53 0l307 1446h299l187 -1239l706 1239h301l-309 -1446h-188l264 1235l-700 -1235h-236l-180 1235l-264 -1235h-187z" />
    <glyph glyph-name="uni2170" unicode="&#x2170;" horiz-adv-x="430" 
d="M20 0l209 987h183l-211 -987h-181zM283 1241l45 205h182l-45 -205h-182z" />
    <glyph glyph-name="uni2171" unicode="&#x2171;" horiz-adv-x="862" 
d="M20 0l209 987h183l-211 -987h-181zM283 1241l45 205h182l-45 -205h-182zM453 0l209 987h182l-211 -987h-180zM715 1241l45 205h182l-45 -205h-182z" />
    <glyph glyph-name="uni2172" unicode="&#x2172;" horiz-adv-x="1294" 
d="M20 0l209 987h183l-211 -987h-181zM283 1241l45 205h182l-45 -205h-182zM453 0l209 987h182l-211 -987h-180zM715 1241l45 205h182l-45 -205h-182zM885 0l209 987h182l-211 -987h-180zM1147 1241l45 205h182l-45 -205h-182z" />
    <glyph glyph-name="uni2173" unicode="&#x2173;" horiz-adv-x="1376" 
d="M20 0l209 987h183l-211 -987h-181zM283 1241l45 205h182l-45 -205h-182zM682 0l-150 987h187l117 -780l458 780h181l-580 -987h-213z" />
    <glyph glyph-name="uni2174" unicode="&#x2174;" horiz-adv-x="966" 
d="M270 0l-149 987h186l117 -780l459 780h180l-580 -987h-213z" />
    <glyph glyph-name="uni2175" unicode="&#x2175;" horiz-adv-x="1406" 
d="M266 0l-149 987h186l117 -780l459 780h180l-580 -987h-213zM997 0l209 987h183l-211 -987h-181zM1260 1241l45 205h182l-45 -205h-182z" />
    <glyph glyph-name="uni2176" unicode="&#x2176;" horiz-adv-x="1837" 
d="M264 0l-149 987h186l117 -780l459 780h180l-580 -987h-213zM995 0l209 987h182l-210 -987h-181zM1257 1241l46 205h182l-45 -205h-183zM1427 0l209 987h183l-211 -987h-181zM1690 1241l45 205h182l-45 -205h-182z" />
    <glyph glyph-name="uni2177" unicode="&#x2177;" horiz-adv-x="2265" 
d="M260 0l-149 987h186l117 -780l458 780h181l-580 -987h-213zM991 0l209 987h182l-211 -987h-180zM1253 1241l45 205h183l-45 -205h-183zM1423 0l209 987h183l-211 -987h-181zM1686 1241l45 205h182l-45 -205h-182zM1855 0l209 987h183l-211 -987h-181zM2118 1241l45 205
h182l-45 -205h-182z" />
    <glyph glyph-name="uni2178" unicode="&#x2178;" horiz-adv-x="1320" 
d="M20 0l209 987h183l-211 -987h-181zM283 1241l45 205h182l-45 -205h-182zM315 0l457 514l-205 473h203l141 -346l291 346h203l-420 -475l217 -512h-201l-149 375l-332 -375h-205z" />
    <glyph glyph-name="uni2179" unicode="&#x2179;" horiz-adv-x="901" 
d="M-104 0l456 514l-205 473h203l142 -346l290 346h203l-420 -475l217 -512h-200l-150 375l-332 -375h-204z" />
    <glyph glyph-name="uni217A" unicode="&#x217a;" horiz-adv-x="1329" 
d="M-104 0l456 514l-205 473h203l142 -346l290 346h203l-420 -475l217 -512h-200l-150 375l-332 -375h-204zM920 0l208 987h183l-211 -987h-180zM1182 1241l45 205h182l-45 -205h-182z" />
    <glyph glyph-name="uni217B" unicode="&#x217b;" horiz-adv-x="1761" 
d="M-104 0l456 514l-205 473h203l142 -346l290 346h203l-420 -475l217 -512h-200l-150 375l-332 -375h-204zM920 0l208 987h183l-211 -987h-180zM1182 1241l45 205h182l-45 -205h-182zM1352 0l209 987h182l-211 -987h-180zM1614 1241l45 205h182l-45 -205h-182z" />
    <glyph glyph-name="uni217C" unicode="&#x217c;" horiz-adv-x="425" 
d="M18 0l308 1446h180l-307 -1446h-181z" />
    <glyph glyph-name="uni217D" unicode="&#x217d;" horiz-adv-x="1036" 
d="M778 365l180 -35q-73 -157 -208.5 -256t-311.5 -99q-82 0 -147 21.5t-108.5 58.5t-72.5 90t-42 113t-13 129q0 113 43.5 225t118.5 201t185.5 144t234.5 55q94 0 168.5 -28.5t119.5 -78t70.5 -108t30.5 -125.5l-195 -39q-8 102 -58 167.5t-148 65.5q-83 0 -156 -44
t-122 -113.5t-77 -153.5t-28 -166q0 -117 53 -192.5t160 -75.5q108 0 189.5 69t133.5 175z" />
    <glyph glyph-name="uni217E" unicode="&#x217e;" horiz-adv-x="1132" 
d="M727 0l31 143q-49 -73 -144 -120.5t-178 -47.5q-85 0 -151.5 23.5t-108.5 62.5t-69.5 94t-38.5 113t-11 125q0 88 26 177.5t77 168t119.5 140t160 97.5t191.5 36q98 0 173 -48.5t97 -125.5l129 608h182l-307 -1446h-178zM461 121q110 0 200.5 74t137.5 182.5t47 220.5
q0 122 -57.5 195t-155.5 73q-111 0 -202.5 -72.5t-139 -180t-47.5 -220.5q0 -75 20.5 -134t71 -98.5t125.5 -39.5z" />
    <glyph glyph-name="uni217F" unicode="&#x217f;" horiz-adv-x="1611" 
d="M20 0l209 987h179l-33 -160q30 68 119 126.5t200 58.5q93 0 158.5 -53t87.5 -148q44 82 135.5 141.5t204.5 59.5q112 0 187 -69.5t75 -184.5q0 -54 -33 -209l-116 -549h-181l125 588q17 87 17 125q0 153 -148 153q-106 0 -196 -100q-38 -44 -60 -93t-39 -128l-114 -545
h-181l125 588q17 87 17 127q0 151 -148 151q-110 0 -196 -100q-42 -48 -62 -101.5t-45 -168.5l-106 -496h-181z" />
    </font>
</defs>
</svg>
