<?xml version="1.0" standalone="no"?>
<!DOCTYPE svg PUBLIC "-//W3C//DTD SVG 1.1//EN" "http://www.w3.org/Graphics/SVG/1.1/DTD/svg11.dtd" >
<svg xmlns="http://www.w3.org/2000/svg" xmlns:xlink="http://www.w3.org/1999/xlink" version="1.1">
<metadata>
Created by FontForge 20201107 at Thu Apr 24 18:03:17 2025
 By 
(c) 2017, Forgotten Shapes GbR. All rights reserved.
</metadata>
<defs>
<font id="GerstnerProgrammFSL-Bold" horiz-adv-x="1318" >
  <font-face 
    font-family="Gerstner Programm FSL"
    font-weight="700"
    font-stretch="normal"
    units-per-em="2048"
    panose-1="2 1 8 4 1 1 1 1 1 4"
    ascent="1518"
    descent="-530"
    x-height="987"
    cap-height="1446"
    bbox="-911 -530 3160 2159"
    underline-thickness="102"
    underline-position="-255"
    unicode-range="U+000D-FEFF"
  />
<missing-glyph horiz-adv-x="1148" 
d="M115 0v1446h919v-1446h-919zM223 109h703v1228h-703v-1228z" />
    <glyph glyph-name="f_f" unicode="ff" horiz-adv-x="1433" 
d="M924 0v772h-412v-772h-287v772h-207v215h207v176q0 129 82.5 215t224.5 86q134 0 185 -10v-215q-46 4 -99 4q-106 0 -106 -153v-103h412v176q0 129 82.5 215t224.5 86q133 0 184 -10v-215q-46 4 -98 4q-107 0 -107 -153v-103h205v-215h-205v-772h-286z" />
    <glyph glyph-name="f_f_i" unicode="ffi" horiz-adv-x="1937" 
d="M924 0v772h-412v-772h-287v772h-207v215h207v176q0 129 82.5 215t224.5 86q134 0 185 -10v-215q-46 4 -99 4q-106 0 -106 -153v-103h412v176q0 129 82.5 215t224.5 86q133 0 184 -10v-215q-46 4 -98 4q-107 0 -107 -153v-103h205v-215h-205v-772h-286zM1538 0v987h287
v-987h-287zM1538 1151v295h287v-295h-287z" />
    <glyph glyph-name="f_f_l" unicode="ffl" horiz-adv-x="1937" 
d="M924 0v772h-412v-772h-287v772h-207v215h207v176q0 129 82.5 215t224.5 86q134 0 185 -10v-215q-46 4 -99 4q-106 0 -106 -153v-103h412v176q0 129 82.5 215t224.5 86q133 0 184 -10v-215q-46 4 -98 4q-107 0 -107 -153v-103h205v-215h-205v-772h-286zM1538 0v1446h287
v-1446h-287z" />
    <glyph glyph-name="f_i" unicode="fi" horiz-adv-x="1239" 
d="M225 0v772h-207v215h207v176q0 129 82.5 215t224.5 86q134 0 185 -10v-215q-46 4 -99 4q-106 0 -106 -153v-103h205v-215h-205v-772h-287zM840 0v987h286v-987h-286zM840 1151v295h286v-295h-286z" />
    <glyph glyph-name="f_l" unicode="fl" horiz-adv-x="1239" 
d="M225 0v772h-207v215h207v176q0 129 82.5 215t224.5 86q134 0 185 -10v-215q-46 4 -99 4q-106 0 -106 -153v-103h205v-215h-205v-772h-287zM840 0v1446h286v-1446h-286z" />
    <glyph glyph-name=".notdef" horiz-adv-x="1148" 
d="M115 0v1446h919v-1446h-919zM223 109h703v1228h-703v-1228z" />
    <glyph glyph-name=".null" horiz-adv-x="0" 
 />
    <glyph glyph-name=".null" horiz-adv-x="0" 
 />
    <glyph glyph-name="uni000D" unicode="&#xd;" horiz-adv-x="450" 
 />
    <glyph glyph-name="space" unicode=" " horiz-adv-x="450" 
 />
    <glyph glyph-name="exclam" unicode="!" horiz-adv-x="593" 
d="M135 0v324h324v-324h-324zM164 406l-31 1040h328l-31 -1040h-266z" />
    <glyph glyph-name="quotedbl" unicode="&#x22;" horiz-adv-x="802" 
d="M121 778v668h198v-668h-198zM485 778v668h197v-668h-197z" />
    <glyph glyph-name="numbersign" unicode="#" 
d="M238 0l59 426h-242v199h271l28 198h-243v197h270l61 426h222l-62 -426h199l61 426h221l-61 -426h244v-197h-271l-28 -198h243v-199h-272l-61 -426h-220l60 426h-199l-61 -426h-219zM547 625h198l29 198h-199z" />
    <glyph glyph-name="dollar" unicode="$" 
d="M596 -201v170q-217 18 -365.5 138.5t-197.5 351.5l327 71q0 -128 62.5 -204t173.5 -97v385q-107 23 -163.5 38.5t-135.5 49.5t-118.5 75.5t-69 112.5t-29.5 165q0 122 75.5 217t190.5 146t250 61v168h131v-170q101 -7 184.5 -36t140 -71t98 -97t64.5 -110.5t33 -115.5
l-315 -70q-13 100 -66 161.5t-139 78.5v-343l115 -26q40 -9 67.5 -16.5t78 -25t86 -36.5t78 -51t69 -69t45 -90t18.5 -114q0 -193 -151.5 -327.5t-405.5 -149.5v-170h-131zM727 586v-361q99 12 161 68t62 123q0 73 -49.5 107t-157.5 59zM596 903v318q-87 -11 -138.5 -54
t-51.5 -112q0 -30 12.5 -54t27.5 -38t45.5 -27t49 -18.5t55.5 -14.5z" />
    <glyph glyph-name="percent" unicode="%" horiz-adv-x="1740" 
d="M430 811q70 0 110 77t40 175q0 100 -40 176t-110 76t-109.5 -76t-39.5 -176q0 -99 39.5 -175.5t109.5 -76.5zM430 662q-82 0 -149 35.5t-108.5 93t-64 128t-22.5 144.5q0 101 37.5 190.5t118 150t188.5 60.5q109 0 189.5 -60.5t117.5 -150t37 -190.5q0 -59 -13.5 -116
t-42 -108.5t-68.5 -91t-96.5 -62.5t-123.5 -23zM252 0l1032 1446h211l-1030 -1446h-213zM1309 131q70 0 109.5 76.5t39.5 175.5q0 100 -39.5 176t-109.5 76t-110 -76t-40 -176q0 -98 40 -175t110 -77zM1309 -18q-82 0 -149 35.5t-108.5 93t-64 128t-22.5 144.5
q0 101 37.5 190.5t118 150t188.5 60.5q109 0 189.5 -60.5t117.5 -150t37 -190.5q0 -59 -13.5 -116t-42 -108.5t-68.5 -91t-96.5 -62.5t-123.5 -23z" />
    <glyph glyph-name="ampersand" unicode="&#x26;" horiz-adv-x="1462" 
d="M807 0v707h-191q-93 0 -159 -67t-66 -161q0 -122 74.5 -186t189.5 -64q28 0 68 7v-236q-87 -23 -158 -23q-214 0 -351.5 138t-137.5 364q0 130 66 226t180 145q-164 80 -164 256q0 161 127.5 268t349.5 107t349.5 -107t127.5 -268v-143h322v-256h-322v-707h-305zM807 963
v143q0 59 -43.5 96t-126.5 37q-85 0 -129.5 -37t-44.5 -96q0 -68 44.5 -105.5t129.5 -37.5h170z" />
    <glyph glyph-name="quotesingle" unicode="'" horiz-adv-x="438" 
d="M121 778v668h196v-668h-196z" />
    <glyph glyph-name="parenleft" unicode="(" horiz-adv-x="671" 
d="M342 494q0 -80 12.5 -163t27 -146.5t48 -149t52.5 -130.5t66 -133t62.5 -114.5t65.5 -114.5h-238q-69 98 -122 186t-116 216.5t-98.5 270t-35.5 278.5q0 138 35.5 279.5t98.5 270t116 216.5t122 186h238q-137 -238 -191 -356q-143 -313 -143 -596z" />
    <glyph glyph-name="parenright" unicode=")" horiz-adv-x="673" 
d="M330 494q0 132 -26 258.5t-84.5 260t-95 203t-114.5 205.5q-9 17 -14 25h237q54 -77 95.5 -142t97 -168.5t92 -198t62.5 -213t26 -230.5q0 -111 -26 -229.5t-62.5 -213t-91.5 -197.5t-97.5 -169t-95.5 -142h-237q50 88 65.5 114.5t62.5 114.5t66 133t52.5 130.5t48 149
t27 146.5t12.5 163z" />
    <glyph glyph-name="asterisk" unicode="*" horiz-adv-x="884" 
d="M145 838l156 184l-244 61l66 203l225 -92l-18 252h213l-19 -244l234 96l65 -202l-235 -58l162 -192l-172 -125l-129 205l-132 -213z" />
    <glyph glyph-name="plus" unicode="+" 
d="M553 0v524h-510v219h510v529h219v-529h504v-219h-504v-524h-219z" />
    <glyph glyph-name="comma" unicode="," horiz-adv-x="544" 
d="M-23 -344l185 668h293l-250 -668h-228z" />
    <glyph glyph-name="hyphen" unicode="-" horiz-adv-x="919" 
d="M115 539v252h690v-252h-690z" />
    <glyph glyph-name="period" unicode="." horiz-adv-x="548" 
d="M113 0v324h323v-324h-323z" />
    <glyph glyph-name="slash" unicode="/" horiz-adv-x="917" 
d="M43 0l545 1446h291l-545 -1446h-291z" />
    <glyph glyph-name="zero" unicode="0" horiz-adv-x="1366" 
d="M682 221q72 0 126 44t84 118t44 159.5t14 180.5q0 96 -14 181.5t-44 159.5t-84 117.5t-126 43.5q-58 0 -104 -29t-76 -77.5t-49.5 -114.5t-28 -135.5t-8.5 -145.5q0 -95 14 -180.5t43.5 -159.5t83.5 -118t125 -44zM682 -35q-121 0 -221 44t-168 117.5t-115 172
t-68.5 205.5t-21.5 219q0 113 21.5 220t68.5 205.5t115 172t168 117t221 43.5q122 0 223 -44t169 -117t115 -171.5t68 -205.5t21 -220t-21 -219.5t-68 -205t-115 -172t-169 -117.5t-223 -44z" />
    <glyph glyph-name="one" unicode="1" horiz-adv-x="798" 
d="M322 0v993h-279v258h131q98 0 135 41t37 154h303v-1446h-327z" />
    <glyph glyph-name="two" unicode="2" horiz-adv-x="1280" 
d="M78 0v272q71 34 160 86t198 132t196.5 164t147.5 186t60 194q0 85 -54 138t-131 53q-107 0 -166 -71t-59 -245l-328 76q0 107 33.5 193.5t88 142t127.5 92.5t148.5 52.5t155.5 15.5q141 0 257 -54t185.5 -157t69.5 -236q0 -98 -38.5 -196.5t-101.5 -182t-147.5 -160
t-173.5 -135.5t-182 -104h668v-256h-1114z" />
    <glyph glyph-name="three" unicode="3" horiz-adv-x="1280" 
d="M68 477l327 72q0 -150 61 -239t177 -89t173.5 60.5t57.5 146.5q0 38 -11.5 70t-39 63t-84 48.5t-137.5 17.5h-176v256h180q115 0 174 52.5t59 127.5q0 77 -50.5 119.5t-141.5 42.5q-61 0 -104.5 -20.5t-68 -58.5t-35.5 -86.5t-11 -111.5l-328 72q0 83 36 163.5t102 147.5
t172.5 108.5t236.5 41.5q107 0 198.5 -24t165.5 -72.5t116 -131t42 -190.5q0 -102 -70 -188.5t-204 -116.5q82 -10 144 -43t96 -81.5t50.5 -103t16.5 -114.5q0 -83 -38.5 -163t-108 -144.5t-177.5 -104t-235 -39.5q-103 0 -195 27t-173.5 84.5t-134 160t-62.5 240.5z" />
    <glyph glyph-name="four" unicode="4" horiz-adv-x="1306" 
d="M43 340v240l580 866h381v-850h256v-256h-256v-340h-308v340h-653zM385 596h311v506z" />
    <glyph glyph-name="five" unicode="5" horiz-adv-x="1245" 
d="M82 375l297 74q14 -102 78 -165t170 -63q96 0 161.5 75t65.5 183q0 52 -11.5 98.5t-37 88t-73 66t-111.5 24.5q-82 0 -146 -53.5t-78 -122.5l-305 63l105 803h911v-256h-662l-36 -291q32 45 108.5 79t171.5 34q119 0 211 -41.5t148 -115.5t84 -169t28 -207
q0 -154 -70 -272t-191 -180t-273 -62q-122 0 -219.5 32.5t-161.5 90.5t-104.5 129.5t-59.5 157.5z" />
    <glyph glyph-name="six" unicode="6" horiz-adv-x="1288" 
d="M1184 1112l-312 -68q-28 99 -75 140t-117 41q-65 0 -115 -30.5t-81.5 -85t-49.5 -117.5t-26 -138q22 51 106 94t180 43q121 0 218 -40.5t159 -110t94.5 -160.5t32.5 -195q0 -126 -47.5 -228t-124 -164t-166.5 -95t-182 -33q-127 0 -227.5 38t-167.5 104t-111 159t-63 198
t-19 226q0 124 19.5 235.5t65 214.5t114.5 177.5t174 119t237 44.5q75 0 146.5 -21.5t137.5 -65t118.5 -116t81.5 -166.5zM659 221q95 0 163.5 68t68.5 190t-68.5 189t-163.5 67t-163 -67t-68 -189t68 -190t163 -68z" />
    <glyph glyph-name="seven" unicode="7" horiz-adv-x="1181" 
d="M506 0h-354q65 166 219.5 452.5t280 495.5t151.5 242h-760v256h1106v-244q-79 -99 -312 -529t-331 -673z" />
    <glyph glyph-name="eight" unicode="8" horiz-adv-x="1294" 
d="M371 772q-236 88 -236 320q0 48 18.5 99.5t59.5 103.5t99 93.5t145.5 67t189.5 25.5t189.5 -25.5t145.5 -67t99 -93.5t59.5 -103.5t18.5 -99.5q0 -232 -235 -320q151 -51 218.5 -136t67.5 -226q0 -87 -40 -167t-111.5 -142t-179 -99t-232.5 -37t-232.5 37t-179 98.5
t-111.5 142t-40 167.5q0 141 68 225.5t219 136.5zM391 428q0 -91 70.5 -149t185.5 -58t185.5 58t70.5 149q0 20 -2 38.5t-16.5 52t-39 57t-76 41.5t-122.5 18t-122.5 -18t-76 -41.5t-39 -57t-16.5 -52t-2 -38.5zM442 1059q0 -73 52 -118.5t153 -45.5t153 45.5t52 118.5
q0 70 -52 118t-153 48t-153 -48t-52 -118z" />
    <glyph glyph-name="nine" unicode="9" horiz-adv-x="1288" 
d="M88 352l322 74q16 -105 70.5 -155t127.5 -50q58 0 104.5 26.5t75.5 67t49.5 96t30 107.5t13.5 107q-18 -48 -102 -89.5t-181 -41.5q-121 0 -218 42t-158 113t-93.5 161t-32.5 191q0 108 45 200.5t119 152.5t166 93.5t188 33.5q126 0 225.5 -38.5t166 -104.5t110.5 -159
t63 -197t19 -224q0 -125 -19.5 -236.5t-65 -215t-114 -178t-174 -119t-237.5 -44.5q-101 0 -201 41.5t-184.5 132t-114.5 213.5zM625 745q86 0 154.5 68t68.5 172q0 105 -68 172.5t-155 67.5q-85 0 -153.5 -67.5t-68.5 -172.5q0 -104 68.5 -172t153.5 -68z" />
    <glyph glyph-name="colon" unicode=":" horiz-adv-x="548" 
d="M113 0v324h323v-324h-323zM113 664v323h323v-323h-323z" />
    <glyph glyph-name="semicolon" unicode=";" horiz-adv-x="587" 
d="M4 -344l184 668h293l-250 -668h-227zM137 664v323h324v-323h-324z" />
    <glyph glyph-name="less" unicode="&#x3c;" 
d="M14 616v172l1225 502v-213l-924 -375l924 -374v-213z" />
    <glyph glyph-name="equal" unicode="=" 
d="M43 377v211h1233v-211h-1233zM43 739v211h1233v-211h-1233z" />
    <glyph glyph-name="greater" unicode="&#x3e;" 
d="M80 115v213l924 374l-924 375v213l1225 -502v-172z" />
    <glyph glyph-name="question" unicode="?" horiz-adv-x="1193" 
d="M414 406v477q102 -11 151 -11q254 0 254 177q0 76 -61 126t-152 50q-116 0 -184 -67.5t-68 -186.5l-307 73q6 64 30.5 125t71.5 118t110.5 100t153 68.5t193.5 25.5q105 0 198 -27.5t166 -79.5t115.5 -136t42.5 -189q0 -164 -111 -277t-278 -125v-241h-325zM414 0v324
h323v-324h-323z" />
    <glyph glyph-name="at" unicode="@" horiz-adv-x="1617" 
d="M748 457q69 0 127.5 50t89 122t30.5 143q0 79 -44 129.5t-111 50.5q-48 0 -89.5 -19t-70.5 -50t-49.5 -71.5t-30.5 -83t-10 -83.5q0 -81 44 -134.5t114 -53.5zM842 1329q-162 0 -300 -80.5t-219 -220t-81 -305.5t81 -305.5t219 -220t300 -80.5q113 0 226.5 38t195.5 103
l90 -100q-100 -93 -234 -143t-278 -50q-208 0 -384 99.5t-280 274t-104 384.5t104 384.5t280 274t384 99.5q158 0 291 -47.5t223 -131t140 -198.5t50 -248q0 -94 -21 -181t-61.5 -160t-97.5 -127.5t-133 -85t-162 -30.5q-62 0 -103 33.5t-44 85.5q-35 -59 -95.5 -89
t-128.5 -30q-140 0 -227.5 105.5t-87.5 269.5q0 128 53 239t154.5 181t230.5 70q74 0 139.5 -34.5t98.5 -107.5l33 109h166l-134 -545q-16 -58 -16 -88q0 -45 35 -45q102 0 167.5 119.5t65.5 310.5q0 207 -143 340t-393 133z" />
    <glyph glyph-name="A" unicode="A" horiz-adv-x="1523" 
d="M-6 0l584 1446h368l584 -1446h-338l-145 389h-572l-143 -389h-338zM567 635h389l-194 522z" />
    <glyph glyph-name="B" unicode="B" horiz-adv-x="1468" 
d="M143 0v1446h727q118 0 210.5 -32t149 -87.5t85 -125.5t28.5 -150q0 -110 -79.5 -194t-173.5 -97q96 -5 169.5 -55t108.5 -121t35 -148q0 -114 -46.5 -199.5t-131.5 -136.5t-195.5 -75.5t-247.5 -24.5h-639zM471 256h336q268 0 268 186q0 49 -18.5 84.5t-51 54t-70 27
t-83.5 8.5h-381v-360zM471 872h330q99 0 156 43.5t57 116.5q0 77 -50 117.5t-139 40.5h-354v-318z" />
    <glyph glyph-name="C" unicode="C" horiz-adv-x="1564" 
d="M1210 584l320 -66q-32 -120 -90.5 -215.5t-129 -157.5t-156 -103.5t-169.5 -59t-172 -17.5q-146 0 -280 53.5t-236.5 149t-163.5 240t-61 315.5q0 164 57.5 306t157.5 241t238.5 155t297.5 56q82 0 156.5 -13t154.5 -47.5t147.5 -88t128.5 -139.5t103 -198l-317 -75
q-34 86 -79 148t-95 95t-98.5 47.5t-100.5 14.5q-181 0 -302.5 -142t-121.5 -360q0 -112 34.5 -208t92 -159.5t132 -99t155.5 -35.5q47 0 92 11.5t91.5 38.5t86 68t73 104t54.5 141z" />
    <glyph glyph-name="D" unicode="D" horiz-adv-x="1554" 
d="M471 256h213q222 0 346.5 124.5t124.5 342.5t-124.5 342.5t-346.5 124.5h-213v-934zM143 0v1446h582q219 0 390 -86t269.5 -251.5t98.5 -385.5t-98.5 -385.5t-269.5 -251.5t-390 -86h-582z" />
    <glyph glyph-name="E" unicode="E" horiz-adv-x="1323" 
d="M143 0v1446h1074v-256h-746v-322h717v-256h-717v-356h760v-256h-1088z" />
    <glyph glyph-name="F" unicode="F" horiz-adv-x="1275" 
d="M143 0v1446h1076v-256h-748v-322h703v-256h-703v-612h-328z" />
    <glyph glyph-name="G" unicode="G" horiz-adv-x="1599" 
d="M1188 0v137q-70 -88 -175.5 -130t-228.5 -42q-104 0 -206.5 32.5t-193.5 97t-161 154t-110.5 212.5t-40.5 262q0 164 57.5 306t157.5 241t238.5 155t297.5 56q77 0 147.5 -11.5t146.5 -41t140.5 -76t125 -121t104.5 -170.5l-320 -78q-45 89 -105.5 145t-118 76.5
t-120.5 20.5q-181 0 -302.5 -142t-121.5 -360q0 -112 34.5 -208t92.5 -159.5t132.5 -99t154.5 -35.5q46 0 91.5 9.5t94.5 35.5t87 66t66 106t36 150h-451v256h758v-844h-307z" />
    <glyph glyph-name="H" unicode="H" horiz-adv-x="1570" 
d="M143 0v1446h328v-578h629v578h327v-1446h-327v612h-629v-612h-328z" />
    <glyph glyph-name="I" unicode="I" horiz-adv-x="614" 
d="M143 0v1446h328v-1446h-328z" />
    <glyph glyph-name="J" unicode="J" horiz-adv-x="1251" 
d="M23 479l319 68q0 -91 19 -156.5t52.5 -101.5t73.5 -52t88 -16q99 0 157.5 53.5t58.5 153.5v1018h327v-1018q0 -224 -145 -343.5t-393 -119.5q-114 0 -212 30.5t-176.5 91.5t-123.5 161.5t-45 230.5z" />
    <glyph glyph-name="K" unicode="K" horiz-adv-x="1476" 
d="M143 0v1446h328v-580l578 580h399l-694 -676l782 -770h-420l-645 651v-651h-328z" />
    <glyph glyph-name="L" unicode="L" horiz-adv-x="1214" 
d="M143 0v1446h328v-1190h719v-256h-1047z" />
    <glyph glyph-name="M" unicode="M" horiz-adv-x="1945" 
d="M143 0v1446h475l355 -1129l354 1129h475v-1446h-297v1120l-350 -1120h-364l-351 1120v-1120h-297z" />
    <glyph glyph-name="N" unicode="N" horiz-adv-x="1640" 
d="M143 0v1446h432l635 -1131v1131h287v-1446h-434l-633 1124v-1124h-287z" />
    <glyph glyph-name="O" unicode="O" horiz-adv-x="1656" 
d="M831 221q107 0 190.5 42t133.5 113.5t76 158.5t26 184t-26 185t-76 161t-134 116.5t-190 43.5q-109 0 -194 -43.5t-135.5 -116.5t-76.5 -161t-26 -185q0 -77 15.5 -148t50 -135t84 -111.5t122 -75.5t160.5 -28zM831 -35q-154 0 -281.5 42t-214.5 114t-147.5 169t-88 205
t-27.5 224t27.5 224.5t88 206.5t147.5 171.5t215 116.5t281 43q152 0 278.5 -43t213 -116.5t147 -171.5t88 -206.5t27.5 -224.5t-27.5 -224t-88 -205t-147 -169t-213 -114t-278.5 -42z" />
    <glyph glyph-name="P" unicode="P" horiz-adv-x="1392" 
d="M143 0v1446h744q57 0 113.5 -9.5t122 -38t114.5 -73.5t82 -124.5t33 -182.5t-33 -182.5t-82 -124.5t-114.5 -73.5t-122 -38t-113.5 -9.5h-416v-590h-328zM471 846h360q94 0 146.5 37.5t52.5 134.5t-52.5 134.5t-146.5 37.5h-360v-344z" />
    <glyph glyph-name="Q" unicode="Q" horiz-adv-x="1671" 
d="M1464 -94l-178 188q-185 -129 -455 -129q-154 0 -281.5 42t-214.5 114t-147.5 169t-88 205t-27.5 224t27.5 224.5t88 206.5t147.5 171.5t215 116.5t281 43q152 0 278.5 -43t213 -116.5t147 -171.5t88 -206.5t27.5 -224.5q0 -233 -106 -414l192 -203zM831 221
q107 0 190.5 42t133.5 113.5t76 158.5t26 184t-26 185t-76 161t-134 116.5t-190 43.5q-109 0 -194 -43.5t-135.5 -116.5t-76.5 -161t-26 -185q0 -77 15.5 -148t50 -135t84 -111.5t122 -75.5t160.5 -28z" />
    <glyph glyph-name="R" unicode="R" horiz-adv-x="1458" 
d="M143 0v1446h691q98 0 184.5 -22.5t156.5 -67.5t111 -119t41 -170q0 -69 -16 -126t-40.5 -93t-56 -62.5t-59 -39t-53.5 -17.5q111 -30 168 -92.5t57 -183.5v-226q0 -138 84 -227h-348q-55 57 -55 188v201q0 88 -40 142.5t-120 54.5h-387v-586h-318zM461 842h342
q95 0 151 45t56 139q0 82 -56 123t-149 41h-344v-348z" />
    <glyph glyph-name="S" unicode="S" horiz-adv-x="1400" 
d="M47 457l326 71q0 -151 91.5 -229t248.5 -78q128 0 210.5 58.5t82.5 134.5q0 74 -51.5 111t-161.5 61l-228 47q-64 13 -99 21t-92.5 26t-90 37t-73 51t-61.5 70t-36 93.5t-15 123.5q0 99 50 181.5t134 135t190 81t222 28.5q124 0 223 -26t163.5 -67.5t111 -100.5
t70 -116.5t36.5 -123.5l-313 -70q-15 120 -92 184t-199 64q-123 0 -198.5 -44t-75.5 -126q0 -30 12.5 -53.5t29.5 -38t45 -26.5t47 -17t48 -11l287 -61q41 -9 71.5 -16.5t80 -24.5t86.5 -36.5t78.5 -51.5t68.5 -69.5t45 -90.5t18 -115q0 -100 -42 -187t-121 -152
t-200.5 -102.5t-271.5 -37.5q-258 0 -427.5 120t-227.5 372z" />
    <glyph glyph-name="T" unicode="T" horiz-adv-x="1261" 
d="M467 0v1190h-447v256h1221v-256h-446v-1190h-328z" />
    <glyph glyph-name="U" unicode="U" horiz-adv-x="1527" 
d="M129 535v911h328v-911q0 -156 85 -235t222 -79t222 79t85 235v911h328v-911q0 -143 -49.5 -254t-137 -179t-201 -102.5t-247.5 -34.5t-247.5 34.5t-201 102.5t-137 179t-49.5 254z" />
    <glyph glyph-name="V" unicode="V" horiz-adv-x="1486" 
d="M573 0l-579 1446h321l428 -1098l428 1098h322l-580 -1446h-340z" />
    <glyph glyph-name="W" unicode="W" horiz-adv-x="2150" 
d="M420 0l-412 1446h316l290 -1118l269 1118h385l268 -1118l291 1118h315l-411 -1446h-398l-258 1155l-258 -1155h-397z" />
    <glyph glyph-name="X" unicode="X" horiz-adv-x="1470" 
d="M-43 0l594 764l-516 682h375l342 -477l329 477h367l-526 -680l585 -766h-381l-399 555l-393 -555h-377z" />
    <glyph glyph-name="Y" unicode="Y" horiz-adv-x="1505" 
d="M596 0v655l-602 791h379l383 -553l381 553h370l-594 -791v-655h-317z" />
    <glyph glyph-name="Z" unicode="Z" horiz-adv-x="1343" 
d="M61 0v266l775 914h-742v266h1143v-266l-801 -914h854v-266h-1229z" />
    <glyph glyph-name="bracketleft" unicode="[" horiz-adv-x="727" 
d="M143 -457v1903h543v-201h-276v-1501h278v-201h-545z" />
    <glyph glyph-name="backslash" unicode="\" horiz-adv-x="917" 
d="M584 0l-545 1446h291l544 -1446h-290z" />
    <glyph glyph-name="bracketright" unicode="]" horiz-adv-x="727" 
d="M39 -457v201h278v1501h-276v201h543v-1903h-545z" />
    <glyph glyph-name="asciicircum" unicode="^" 
d="M174 664l399 782h187l383 -782h-242l-237 501l-250 -501h-240z" />
    <glyph glyph-name="underscore" unicode="_" horiz-adv-x="1064" 
d="M0 -256v109h1065v-109h-1065z" />
    <glyph glyph-name="grave" unicode="`" horiz-adv-x="645" 
d="M324 1106l-222 379h273l168 -379h-219z" />
    <glyph glyph-name="a" unicode="a" horiz-adv-x="1103" 
d="M1012 0h-285q-2 8 -9 58t-7 53q-86 -136 -295 -136q-158 0 -256.5 90.5t-98.5 210.5q0 70 22 123t55 85.5t89.5 56.5t108.5 36.5t129 24.5q2 0 74 10.5t75 10.5q67 10 90 28t23 49q0 54 -46.5 80.5t-115.5 26.5q-191 0 -194 -174l-275 63q25 164 168 246q126 70 301 70
q89 0 164.5 -20.5t136.5 -62t96 -112t35 -164.5v-370q0 -208 15 -283zM348 299q0 -46 40 -82.5t95 -36.5q26 0 53.5 4.5t59.5 18.5t57 35.5t41.5 58.5t16.5 84v74q-1 0 -43 -6.5t-43 -6.5l-82 -14q-36 -6 -59 -11t-51.5 -15t-45 -22.5t-28 -33t-11.5 -47.5z" />
    <glyph glyph-name="b" unicode="b" horiz-adv-x="1208" 
d="M113 0v1446h286v-549q112 115 279 115q85 0 156 -22t118 -57t83.5 -83t56.5 -95.5t32.5 -100t16.5 -90.5t4 -72t-4 -71.5t-16.5 -89.5t-33 -99.5t-56.5 -95.5t-83.5 -82.5t-118.5 -56.5t-157 -22q-79 0 -166 38.5t-127 97.5v-111h-270zM623 190q111 0 173 85t62 217
q0 133 -62.5 219t-172.5 86q-27 0 -55.5 -8.5t-59.5 -30.5t-55 -55.5t-40 -88t-16 -122.5q0 -83 23.5 -145.5t60 -94.5t72.5 -47t70 -15z" />
    <glyph glyph-name="c" unicode="c" horiz-adv-x="1107" 
d="M774 416l287 -56q-8 -59 -42 -123t-91.5 -124t-151 -99t-205.5 -39q-119 0 -217.5 44.5t-161 118t-97 165.5t-34.5 191t34.5 191t97 165.5t161 117.5t217.5 44q107 0 197 -35.5t147.5 -91.5t93 -115.5t48.5 -118.5l-287 -59q-45 205 -199 205q-58 0 -102.5 -27t-70 -72
t-38 -96.5t-12.5 -107.5t12.5 -107.5t38 -97t70 -72.5t102.5 -27q54 0 93.5 22t61 61t31.5 71t17 72z" />
    <glyph glyph-name="d" unicode="d" horiz-adv-x="1222" 
d="M840 0v111q-38 -59 -126 -97.5t-169 -38.5q-85 0 -156.5 22t-120 57t-86.5 82.5t-60 95t-36 99t-18.5 90t-4.5 71.5t4.5 72t18.5 90.5t36 99.5t60 96t86.5 83t120 57t156.5 22q166 0 278 -115v549h287v-1446h-270zM594 190q28 0 57 8.5t60.5 30.5t56 54.5t40 86.5
t15.5 122q0 84 -23 147t-59 95.5t-71.5 47.5t-69.5 15q-61 0 -108 -24.5t-73 -59.5t-42.5 -80t-21.5 -78t-5 -61t5 -61.5t21 -78t41.5 -79.5t71.5 -60t105 -25z" />
    <glyph glyph-name="e" unicode="e" horiz-adv-x="1114" 
d="M768 350l256 -65q-27 -117 -151.5 -213.5t-290.5 -96.5q-129 0 -231 44t-163.5 117.5t-93 164.5t-31.5 191q0 102 33 195t94 166t156.5 116t212.5 43q101 0 191.5 -37t156.5 -102.5t105 -161t39 -205.5q0 -60 -4 -96h-697q4 -107 62 -168.5t147 -61.5q165 0 209 170z
M350 616h418q0 80 -55 135.5t-154 55.5q-95 0 -152 -53.5t-57 -137.5z" />
    <glyph glyph-name="f" unicode="f" horiz-adv-x="735" 
d="M225 0v772h-207v215h207v176q0 129 82.5 215t224.5 86q134 0 185 -10v-215q-46 4 -99 4q-106 0 -106 -153v-103h205v-215h-205v-772h-287z" />
    <glyph glyph-name="g" unicode="g" horiz-adv-x="1222" 
d="M102 -139l287 59q44 -186 219 -186q51 0 91 19.5t62.5 48t37 65t19.5 65.5t5 54v127q-50 -50 -127 -81.5t-151 -31.5q-86 0 -157.5 20.5t-120 53.5t-86.5 78t-59.5 90.5t-35.5 95t-18.5 86.5t-4.5 70t4.5 72t18.5 90.5t36 99t60 95.5t86.5 82.5t120 56.5t156.5 22
q81 0 169 -38t126 -97v110h270v-1010q0 -95 -33 -178t-94.5 -145.5t-158 -98.5t-216.5 -36q-90 0 -168.5 21.5t-134 56t-98.5 80.5t-68 91.5t-37 92.5zM594 215q29 0 58.5 9t60.5 31t55 54.5t39.5 83.5t15.5 113t-15.5 113t-39.5 83.5t-55 54.5t-60.5 31t-58.5 9
q-58 0 -104 -25t-71.5 -60.5t-42 -79t-21.5 -74t-5 -52.5q0 -32 5 -65.5t21 -75.5t41.5 -74t71.5 -54t105 -22z" />
    <glyph glyph-name="h" unicode="h" horiz-adv-x="1150" 
d="M113 0v1446h278v-578q8 19 27.5 40.5t53.5 46.5t92.5 41t129.5 16q202 0 293 -148q62 -100 62 -233v-631h-287v629q0 57 -27 100q-39 68 -129 68q-74 0 -127 -43q-82 -64 -82 -203v-551h-284z" />
    <glyph glyph-name="i" unicode="i" horiz-adv-x="512" 
d="M113 0v987h286v-987h-286zM113 1151v295h286v-295h-286z" />
    <glyph glyph-name="j" unicode="j" horiz-adv-x="520" 
d="M-106 -463v230q61 -9 75 -9q92 0 122 29t30 84v1116h287v-1159q0 -72 -14.5 -123t-50.5 -93.5t-104 -63.5t-169 -21t-176 10zM121 1151v295h287v-295h-287z" />
    <glyph glyph-name="k" unicode="k" horiz-adv-x="1150" 
d="M113 0v1446h286v-817l369 358h365l-498 -442l563 -545h-367l-432 416v-416h-286z" />
    <glyph glyph-name="l" unicode="l" horiz-adv-x="512" 
d="M113 0v1446h286v-1446h-286z" />
    <glyph glyph-name="m" unicode="m" horiz-adv-x="1665" 
d="M113 0v987h278v-119q8 20 22.5 40.5t44 46t81.5 41.5t118 16q68 0 120 -17t100 -63q27 -25 55 -66q71 146 268 146q193 0 287 -127q76 -106 76 -254v-631h-287v633q0 21 -5 45t-17 53t-39.5 47.5t-65.5 18.5q-34 0 -70.5 -21t-56.5 -53q-41 -64 -41 -170v-553h-285v633
q0 16 -2.5 34.5t-11 42.5t-21.5 42.5t-36.5 31.5t-53.5 13q-37 0 -74 -21t-59 -53q-39 -61 -39 -172v-551h-286z" />
    <glyph glyph-name="n" unicode="n" horiz-adv-x="1142" 
d="M113 0v987h278v-119q8 19 27 40.5t52.5 46.5t90.5 41t127 16q200 0 291 -148q61 -102 61 -233v-631h-286v629q0 50 -27 100q-39 68 -125 68q-72 0 -125 -43q-78 -61 -78 -203v-551h-286z" />
    <glyph glyph-name="o" unicode="o" horiz-adv-x="1153" 
d="M578 190q56 0 101 27.5t71.5 72.5t40.5 97t14 105q0 74 -23 141t-76.5 115.5t-127.5 48.5t-128 -48.5t-78 -116t-24 -140.5q0 -72 24 -139t78 -115t128 -48zM578 -25q-120 0 -220 45t-163.5 119t-98.5 165.5t-35 187.5q0 97 35 189t98.5 166t163.5 119.5t220 45.5
t219.5 -45.5t162.5 -119.5t97.5 -166t34.5 -189q0 -96 -34.5 -187.5t-97.5 -165.5t-162.5 -119t-219.5 -45z" />
    <glyph glyph-name="p" unicode="p" horiz-adv-x="1222" 
d="M113 -457v1444h270v-110q40 59 127.5 97t167.5 38q85 0 156.5 -22t120 -56.5t86.5 -82t59.5 -95.5t35.5 -99t18.5 -89.5t4.5 -71.5t-4.5 -72t-18.5 -91t-36 -100t-59.5 -96t-86.5 -83t-120.5 -57t-157.5 -22q-165 0 -277 115v-547h-286zM623 190q60 0 107 24.5t73 60
t42.5 80t21.5 78t5 61.5q0 22 -4 49t-13 63t-27 68.5t-43.5 60.5t-66 45t-89.5 17q-29 0 -58.5 -8.5t-61 -30t-56 -54t-40.5 -86.5t-16 -122t16 -123t40 -88t55 -55.5t59.5 -31t55.5 -8.5z" />
    <glyph glyph-name="q" unicode="q" horiz-adv-x="1208" 
d="M811 -457v547q-112 -115 -279 -115q-85 0 -156 22t-118 57t-83 83.5t-56 96t-32.5 100t-16.5 90.5t-4 72t4 71.5t16.5 89.5t33 99t56.5 95t83.5 82.5t118.5 56.5t157 22q79 0 165.5 -38t126.5 -97v110h269v-1444h-285zM588 190q27 0 55 8.5t59.5 31t55.5 55.5t39.5 88
t15.5 123q0 83 -23.5 145.5t-60 94.5t-72 46.5t-69.5 14.5q-111 0 -173.5 -84.5t-62.5 -216.5t63 -219t173 -87z" />
    <glyph glyph-name="r" unicode="r" horiz-adv-x="751" 
d="M113 0v987h278v-121q38 67 107 106.5t159 39.5q50 0 70 -2v-252q-20 4 -82 4q-139 0 -203 -90q-43 -59 -43 -158v-514h-286z" />
    <glyph glyph-name="s" unicode="s" horiz-adv-x="1048" 
d="M51 299l275 61q20 -92 63.5 -136t126.5 -44q80 0 131 30t51 81t-36.5 71.5t-139.5 36.5l-53 9q-92 15 -156 34t-120.5 53.5t-84.5 90t-28 133.5q0 33 13 69t47 77t83.5 73t131 53t182.5 21q143 0 261 -77t156 -214l-247 -64q-22 82 -63 116t-124 34q-71 0 -118.5 -22
t-47.5 -64q0 -19 7 -34t22 -25.5t29.5 -18t37.5 -12.5t38 -8t39.5 -6t33.5 -5l53 -8q60 -11 102.5 -21.5t97.5 -33t89.5 -51.5t59 -76.5t24.5 -108.5q0 -161 -130.5 -249.5t-340.5 -88.5q-180 0 -306.5 87t-158.5 237z" />
    <glyph glyph-name="t" unicode="t" horiz-adv-x="745" 
d="M209 215v557h-191v215h191v326h287v-326h192v-215h-192v-434q0 -60 22 -90.5t74 -30.5q56 0 96 6v-227q-78 -12 -156 -12q-64 0 -118 10.5t-102 35.5t-75.5 72t-27.5 113z" />
    <glyph glyph-name="u" unicode="u" horiz-adv-x="1142" 
d="M102 356v631h287v-629q0 -50 27 -100q39 -68 125 -68q72 0 125 43q77 60 77 203v551h287v-987h-278v119q-8 -19 -27 -40.5t-52.5 -46.5t-90.5 -41t-127 -16q-200 0 -291 148q-62 104 -62 233z" />
    <glyph glyph-name="v" unicode="v" horiz-adv-x="1085" 
d="M375 0l-365 987h293l244 -682l244 682h284l-364 -987h-336z" />
    <glyph glyph-name="w" unicode="w" horiz-adv-x="1626" 
d="M319 0l-309 987h283l182 -645l184 645h308l184 -647l182 647h283l-309 -987h-314l-180 637l-180 -637h-314z" />
    <glyph glyph-name="x" unicode="x" horiz-adv-x="1046" 
d="M-6 0l366 514l-335 473h321l189 -278l182 278h319l-348 -475l356 -512h-319l-197 309l-211 -309h-323z" />
    <glyph glyph-name="y" unicode="y" horiz-adv-x="1060" 
d="M80 -459v230q76 -13 86 -13q33 0 55 2.5t45.5 10t39 23t24.5 40.5l69 180l-389 973h303l236 -657l219 657h289l-482 -1263q-76 -197 -329 -197q-78 0 -166 14z" />
    <glyph glyph-name="z" unicode="z" horiz-adv-x="1005" 
d="M49 0v217l518 549h-477v221h842v-205l-520 -559h534v-223h-897z" />
    <glyph glyph-name="braceleft" unicode="{" horiz-adv-x="712" 
d="M690 -346v-111q-178 0 -269.5 17.5t-150.5 85.5q-24 27 -38.5 58t-20.5 76t-7 74t-1 93v143q0 24 -0.5 55.5t-0.5 43.5t-0.5 29.5t-1.5 25.5t-2.5 17.5t-4.5 19.5q-14 57 -54.5 100.5t-97.5 60.5v107q57 17 97.5 61t54.5 101q3 10 4.5 19.5t2.5 17.5t1.5 25t0.5 29
t0.5 43.5t0.5 55.5v141q0 64 1 93t7 74t20.5 76t38.5 58q59 68 150.5 85.5t269.5 17.5v-111q-43 -12 -58 -17t-45.5 -18.5t-44.5 -27t-30.5 -37t-26.5 -55.5q-16 -49 -16 -189v-92q-1 -89 -2.5 -121.5t-7.5 -69.5t-19 -67q-45 -107 -188 -145q142 -38 188 -146
q13 -30 19 -67t7.5 -69.5t2.5 -121.5v-94q0 -139 16 -188q7 -23 17.5 -41.5t20 -31.5t27 -25t28 -18.5t35 -15t35.5 -12t42 -12.5z" />
    <glyph glyph-name="bar" unicode="|" horiz-adv-x="538" 
d="M143 -457v1903h252v-1903h-252z" />
    <glyph glyph-name="braceright" unicode="}" horiz-adv-x="712" 
d="M23 -457v111q35 10 48.5 14.5t40 14.5t39 19.5t29.5 25t27.5 35.5t19.5 47q17 52 17 188v94q2 161 10 203q6 28 18 55q46 108 189 146q-144 38 -189 145q-13 30 -19 68.5t-7 67t-2 122.5v92q0 137 -17 189q-7 23 -18 41.5t-19.5 31.5t-27 25t-27.5 18t-35 15t-35.5 12
t-41.5 12v111q178 0 269 -17.5t150 -85.5q25 -27 39.5 -58.5t20.5 -75.5t7 -74.5t1 -92.5v-141q0 -24 0.5 -55.5t0.5 -43.5t0.5 -29t1.5 -25t2.5 -17.5t4.5 -19.5q14 -57 54.5 -101t97.5 -61v-107q-57 -17 -97.5 -60.5t-54.5 -100.5q-3 -10 -4.5 -19.5t-2.5 -17.5
t-1.5 -25.5t-0.5 -29.5t-0.5 -43.5t-0.5 -55.5v-143q0 -62 -1 -92.5t-7 -74.5t-20.5 -75.5t-39.5 -58.5q-59 -68 -150 -85.5t-269 -17.5z" />
    <glyph glyph-name="asciitilde" unicode="~" 
d="M150 492l-99 22q38 186 137 283.5t228 97.5q86 0 169 -31t137.5 -67.5t121.5 -67.5t123 -31q93 0 146 45t73 138l98 -23q-38 -187 -136.5 -284t-227.5 -97q-86 0 -169 31t-137.5 67.5t-121.5 67.5t-123 31q-93 0 -146 -44.5t-73 -137.5z" />
    <glyph glyph-name="uni00A0" unicode="&#xa0;" horiz-adv-x="450" 
 />
    <glyph glyph-name="exclamdown" unicode="&#xa1;" horiz-adv-x="593" 
d="M135 1122v324h324v-324h-324zM133 0l31 1040h266l31 -1040h-328z" />
    <glyph glyph-name="cent" unicode="&#xa2;" 
d="M502 -201v189q-107 26 -194.5 84t-154.5 147.5t-104 218.5t-37 287q0 283 134 477.5t356 255.5v189h135v-164q8 0 26 1t27 1q8 0 25 -1t26 -1v164h136v-185q72 -19 134.5 -52.5t121 -88t104 -137.5t70.5 -189l-275 -73q-43 190 -155 264v-907q129 97 157 307l283 -66
q-38 -212 -155 -346t-285 -182v-193h-136v168q-20 -2 -59 -2q-31 0 -45 2v-168h-135zM741 217v1016q-36 4 -51 4q-29 0 -53 -6v-1014q28 -4 45 -4q39 0 59 4zM502 279v886q-75 -65 -117.5 -177.5t-42.5 -262.5q0 -314 160 -446z" />
    <glyph glyph-name="sterling" unicode="&#xa3;" 
d="M96 0l246 657h-246v256h340l68 181q26 71 48.5 118t60.5 99.5t84 82.5t115.5 50t158.5 20q105 0 186 -18v-264q-62 18 -164 18q-121 0 -178 -151l-51 -136h317v-256h-409l-152 -401h705v-256h-1129z" />
    <glyph glyph-name="currency" unicode="&#xa4;" 
d="M23 262l149 166q-23 40 -37 68.5t-30.5 96.5t-16.5 144t16 144t29.5 96.5t36.5 69.5l-143 163l184 195l156 -164q137 88 295 88q157 0 294 -88l154 164l188 -195l-149 -163q22 -39 36 -69t31 -98.5t17 -142.5q0 -75 -16.5 -143.5t-30 -97t-37.5 -70.5l147 -168l-188 -195
l-156 168q-139 -86 -290 -86q-158 0 -295 88l-158 -165zM664 399q126 0 221.5 92t95.5 246q0 104 -48 183t-119.5 117t-151.5 38q-59 0 -116 -23t-102.5 -64.5t-73.5 -107t-28 -143.5t28 -143.5t74.5 -107t103.5 -64.5t116 -23z" />
    <glyph glyph-name="yen" unicode="&#xa5;" 
d="M502 0v414h-447v135h447v104h-447v135h353l-426 658h370l310 -553l307 553h370l-428 -658h355v-135h-447v-104h447v-135h-447v-414h-317z" />
    <glyph glyph-name="brokenbar" unicode="&#xa6;" horiz-adv-x="550" 
d="M150 -457v797h251v-797h-251zM150 649v797h251v-797h-251z" />
    <glyph glyph-name="section" unicode="&#xa7;" horiz-adv-x="989" 
d="M274 -412v215q46 -4 99 -4q60 0 105.5 30t45.5 89q0 22 -11.5 44.5t-24.5 38t-48 52.5t-57 62l-143 161q-183 205 -183 369q0 185 191 285q-36 43 -59 103t-23 104q0 144 111 244t253 100q129 0 185 -11v-215q-58 5 -99 5q-60 0 -105.5 -30t-45.5 -89q0 -22 11.5 -44.5
t24.5 -38t48 -52.5t57 -62l144 -162q182 -203 182 -368q0 -97 -52.5 -169t-140.5 -116q36 -43 60 -103t24 -104q0 -144 -111 -244t-253 -100q-134 0 -185 10zM453 440l114 -121q41 0 66.5 25.5t25.5 65.5q0 46 -26 90.5t-96 117.5l-117 121q-40 0 -65 -25t-25 -65
q0 -46 26.5 -91t96.5 -118z" />
    <glyph glyph-name="dieresis" unicode="&#xa8;" horiz-adv-x="888" 
d="M102 1153v297h297v-297h-297zM489 1153v297h297v-297h-297z" />
    <glyph glyph-name="copyright" unicode="&#xa9;" horiz-adv-x="1662" 
d="M1042 645l246 -49q-10 -74 -42 -140.5t-86 -123t-139 -90t-190 -33.5q-133 0 -245.5 69t-178 188t-65.5 259q0 109 40.5 206t108 164.5t156.5 106.5t184 39q94 0 171.5 -27.5t131.5 -75.5t90 -108t54 -131l-244 -59q-40 157 -203 157q-100 0 -166.5 -77t-66.5 -195
q0 -117 66.5 -194.5t166.5 -77.5q98 0 152 54t59 138zM139 723q0 -187 93 -346.5t252.5 -252.5t346.5 -93t347 93t253 252.5t93 346.5t-93 346.5t-253 252.5t-347 93t-346.5 -93t-252.5 -252.5t-93 -346.5zM74 723q0 154 60 294.5t161.5 242t241.5 161.5t294 60t294.5 -60
t242 -161.5t161.5 -242t60 -294.5t-60 -294.5t-161.5 -242t-242 -161.5t-294.5 -60t-294 60t-241.5 161.5t-161.5 242t-60 294.5z" />
    <glyph glyph-name="ordfeminine" unicode="&#xaa;" horiz-adv-x="813" 
d="M705 795h-189q-10 60 -10 73q-58 -90 -195 -90q-104 0 -169.5 60t-65.5 139q0 47 14.5 82t36 56.5t59.5 37.5t71 24t85 17q2 0 50 6t50 6q44 7 59 18.5t15 32.5q0 36 -30.5 54t-75.5 18q-126 0 -129 -115l-183 41q17 110 113 162q81 47 199 47q110 0 186 -45
q100 -60 100 -192v-246q0 -150 9 -186zM506 1098q-4 -1 -29.5 -6t-27.5 -5l-52 -8q-61 -9 -96 -27.5t-35 -58.5q0 -31 26 -55.5t62 -24.5q22 0 45.5 6t49 19t41.5 41.5t16 67.5v51z" />
    <glyph glyph-name="guillemotleft" unicode="&#xab;" horiz-adv-x="946" 
d="M82 535v229l356 223v-229l-211 -109l211 -108v-230zM469 535v229l356 223v-229l-211 -109l211 -108v-230z" />
    <glyph glyph-name="logicalnot" unicode="&#xac;" 
d="M74 575v220h1122v-658h-219v438h-903z" />
    <glyph glyph-name="uni00AD" unicode="&#xad;" horiz-adv-x="919" 
d="M115 539v252h690v-252h-690z" />
    <glyph glyph-name="registered" unicode="&#xae;" horiz-adv-x="1003" 
d="M309 944v531h197q87 0 125 -13q38 -14 59 -47.5t21 -73.5q0 -53 -33 -85t-86 -42q41 -17 59 -41.5t27 -74.5q7 -48 10.5 -66.5t10.5 -41.5t18 -46h-90q-10 19 -16 43.5t-11 66t-6 48.5q-8 54 -39.5 71t-95.5 17h-72v-246h-78zM389 1253h125q119 0 119 84q0 34 -27 58
q-16 13 -38.5 16.5t-73.5 3.5h-105v-162zM127 1206q0 -155 110 -265t265 -110t265 110t110 265t-110 265t-265 110t-265 -110t-110 -265zM61 1206q0 183 129 312t312 129t311.5 -129t128.5 -312t-128.5 -311.5t-311.5 -128.5t-312 128.5t-129 311.5z" />
    <glyph glyph-name="macron" unicode="&#xaf;" horiz-adv-x="901" 
d="M102 1239v207h697v-207h-697z" />
    <glyph glyph-name="degree" unicode="&#xb0;" horiz-adv-x="827" 
d="M414 952q74 0 125 51t51 125t-51.5 125.5t-124.5 51.5t-124.5 -51.5t-51.5 -125.5t51 -125t125 -51zM414 776q-146 0 -249.5 103t-103.5 249t103.5 249.5t249.5 103.5t249 -103.5t103 -249.5t-103 -249t-249 -103z" />
    <glyph glyph-name="plusminus" unicode="&#xb1;" 
d="M82 739v219h471v416h219v-416h465v-219h-465v-415h-219v415h-471zM82 0v219h1155v-219h-1155z" />
    <glyph glyph-name="twosuperior" unicode="&#xb2;" horiz-adv-x="737" 
d="M61 1028v156q59 28 144.5 80.5t150.5 115.5q107 102 107 195q0 40 -25 64t-59 24q-54 0 -82.5 -35.5t-28.5 -126.5l-194 45q0 59 19 106t49.5 76.5t71 49t81.5 27t84 7.5q116 0 197 -64.5t81 -172.5q0 -40 -11.5 -79t-24.5 -65.5t-41 -60.5t-42 -49t-46 -47
q-13 -13 -71 -47t-91 -47h340v-152h-609z" />
    <glyph glyph-name="threesuperior" unicode="&#xb3;" horiz-adv-x="737" 
d="M57 1272l191 45q0 -70 30 -114t87 -44q58 0 84 28.5t26 69.5q0 105 -137 105h-82v133h76q60 0 92.5 24.5t32.5 59.5q0 37 -23.5 60.5t-66.5 23.5q-57 0 -82 -33t-27 -98l-192 43q5 97 86 167t215 70q78 0 140.5 -24t103 -78.5t40.5 -134.5q0 -12 -5.5 -30.5t-18.5 -44
t-42.5 -45t-70.5 -25.5q154 -22 154 -195q0 -91 -82.5 -158t-220.5 -67q-55 0 -104 13t-94 42t-74.5 82t-35.5 125z" />
    <glyph glyph-name="acute" unicode="&#xb4;" horiz-adv-x="645" 
d="M102 1106l168 379h273l-221 -379h-220z" />
    <glyph glyph-name="mu" unicode="&#xb5;" horiz-adv-x="1193" 
d="M133 -457v1444h287v-629q0 -68 41 -118t110 -50q95 0 149 71.5t54 174.5v551h287v-987h-279v119q-19 -44 -89 -94t-163 -50q-55 0 -110 25v-457h-287z" />
    <glyph glyph-name="paragraph" unicode="&#xb6;" horiz-adv-x="1124" 
d="M365 -457v1051q-138 39 -227 154.5t-89 263.5q0 180 127 307t307 127h541v-160h-74v-1743h-172v1743h-241v-1743h-172z" />
    <glyph glyph-name="periodcentered" unicode="&#xb7;" horiz-adv-x="507" 
d="M90 735q0 67 48 115.5t116 48.5t116 -48.5t48 -115.5t-48 -115.5t-116 -48.5t-116 48.5t-48 115.5z" />
    <glyph glyph-name="cedilla" unicode="&#xb8;" horiz-adv-x="538" 
d="M102 -506v131h95q38 0 63 26.5t25 67.5q0 29 -25.5 53.5t-62.5 24.5h-95v223h134v-92q86 -6 143 -62.5t57 -146.5q0 -103 -63.5 -164t-157.5 -61h-113z" />
    <glyph glyph-name="onesuperior" unicode="&#xb9;" horiz-adv-x="737" 
d="M313 1028v512h-151v152h80q49 0 66.5 21.5t17.5 80.5h182v-766h-195z" />
    <glyph glyph-name="ordmasculine" unicode="&#xba;" horiz-adv-x="813" 
d="M408 922q71 0 110 60.5t39 137.5q0 78 -39 139.5t-110 61.5t-111.5 -62t-40.5 -139t40.5 -137.5t111.5 -60.5zM408 778q-79 0 -145 29.5t-108.5 78.5t-65.5 109.5t-23 124.5t23 125t65 110t108.5 79t145.5 30t145 -30t107.5 -79t64.5 -110t23 -125t-23 -124.5
t-64.5 -109.5t-107.5 -78.5t-145 -29.5z" />
    <glyph glyph-name="guillemotright" unicode="&#xbb;" horiz-adv-x="946" 
d="M121 311v230l211 108l-211 109v229l356 -223v-229zM508 311v230l211 108l-211 109v229l356 -223v-229z" />
    <glyph glyph-name="onequarter" unicode="&#xbc;" horiz-adv-x="1740" 
d="M244 680v512h-152v151h80q49 0 66.5 22t17.5 81h182v-766h-194zM188 0l1033 1446h211l-1031 -1446h-213zM983 174v137l309 455h219v-440h146v-152h-146v-174h-180v174h-348zM1188 326h143v233z" />
    <glyph glyph-name="onehalf" unicode="&#xbd;" horiz-adv-x="1740" 
d="M250 680v512h-152v151h80q49 0 66.5 22t17.5 81h182v-766h-194zM195 0l1032 1446h211l-1030 -1446h-213zM1022 0v156q59 28 144.5 80.5t150.5 115.5q106 101 106 195q0 40 -25 64t-59 24q-54 0 -82 -35.5t-28 -126.5l-195 45q0 59 19 106t49.5 76.5t71 49t81.5 27t84 7.5
q116 0 197.5 -64.5t81.5 -172.5q0 -40 -11.5 -79t-24.5 -65t-41.5 -61t-42 -49t-46.5 -47q-13 -13 -71 -47t-91 -47h340v-152h-608z" />
    <glyph glyph-name="threequarters" unicode="&#xbe;" horiz-adv-x="1740" 
d="M45 924l191 45q0 -70 29.5 -114t86.5 -44q58 0 84.5 28.5t26.5 69.5q0 105 -137 105h-82v133h75q60 0 92.5 24.5t32.5 59.5q0 37 -23.5 60.5t-66.5 23.5q-57 0 -81.5 -33t-26.5 -98l-193 43q5 97 86 167t215 70q122 0 203.5 -60t81.5 -177q0 -12 -5.5 -31t-18.5 -44
t-42.5 -45t-70.5 -26q49 -7 82 -27.5t47 -51t19 -56.5t5 -59q0 -91 -82.5 -158t-220.5 -67q-55 0 -104 13t-93.5 42t-74 82t-35.5 125zM240 0l1032 1446h211l-1030 -1446h-213zM1034 174v137l309 455h220v-440h145v-152h-145v-174h-181v174h-348zM1239 326h143v233z" />
    <glyph glyph-name="questiondown" unicode="&#xbf;" horiz-adv-x="1193" 
d="M455 799v241h325v-477q-92 10 -151 10q-254 0 -254 -176q0 -76 61 -126t152 -50q116 0 184 67.5t68 186.5l307 -74q-6 -63 -30.5 -124.5t-71.5 -118t-110.5 -99.5t-153 -68.5t-193.5 -25.5q-105 0 -198 27.5t-166 79.5t-115.5 136t-42.5 189q0 164 111 277t278 125z
M457 1122v324h323v-324h-323z" />
    <glyph glyph-name="Agrave" unicode="&#xc0;" horiz-adv-x="1523" 
d="M-6 0l584 1446h368l584 -1446h-338l-145 389h-572l-143 -389h-338zM567 635h389l-194 522zM662 1565l-222 379h273l168 -379h-219z" />
    <glyph glyph-name="Aacute" unicode="&#xc1;" horiz-adv-x="1523" 
d="M-6 0l584 1446h368l584 -1446h-338l-145 389h-572l-143 -389h-338zM567 635h389l-194 522zM653 1565l168 379h273l-222 -379h-219z" />
    <glyph glyph-name="Acircumflex" unicode="&#xc2;" horiz-adv-x="1523" 
d="M-6 0l584 1446h368l584 -1446h-338l-145 389h-572l-143 -389h-338zM567 635h389l-194 522zM362 1565l277 379h246l276 -379h-241l-158 231l-158 -231h-242z" />
    <glyph glyph-name="Atilde" unicode="&#xc3;" horiz-adv-x="1523" 
d="M-6 0l584 1446h368l584 -1446h-338l-145 389h-572l-143 -389h-338zM567 635h389l-194 522zM414 1638v220q32 32 94 55.5t110 23.5q16 0 32.5 -1.5t26 -2.5t26.5 -5t21 -5t24.5 -7.5t21.5 -6.5q13 -4 43.5 -16t56 -18.5t52.5 -6.5q57 0 106 25.5t82 66.5v-219
q-32 -32 -94.5 -56t-110.5 -24q-20 0 -36.5 1.5t-34 5t-25.5 5.5t-29 9t-26 8q-13 4 -43.5 16t-56 18.5t-52.5 6.5q-57 0 -106 -26t-82 -67z" />
    <glyph glyph-name="Adieresis" unicode="&#xc4;" horiz-adv-x="1523" 
d="M-6 0l584 1446h368l584 -1446h-338l-145 389h-572l-143 -389h-338zM567 635h389l-194 522zM420 1612v297h297v-297h-297zM807 1612v297h297v-297h-297z" />
    <glyph glyph-name="Aring" unicode="&#xc5;" horiz-adv-x="1523" 
d="M-6 0l590 1460q-35 50 -35 119q0 89 64 153t153 64t153 -64t64 -153q0 -65 -43 -125l590 -1454h-338l-145 389h-572l-143 -389h-338zM567 635h389l-194 522zM766 1479q41 0 70.5 29.5t29.5 70.5t-29.5 70.5t-70.5 29.5t-70.5 -29.5t-29.5 -70.5t29.5 -70.5t70.5 -29.5z
" />
    <glyph glyph-name="AE" unicode="&#xc6;" horiz-adv-x="2082" 
d="M-37 0l946 1446h1067v-256h-622v-322h594v-256h-594v-356h637v-256h-965v420h-430l-258 -420h-375zM758 684h268v436z" />
    <glyph glyph-name="Ccedilla" unicode="&#xc7;" horiz-adv-x="1564" 
d="M733 -506v131h94q38 0 63 26.5t25 67.5q0 29 -25.5 53.5t-62.5 24.5h-94v172q-134 14 -253.5 72.5t-210.5 153.5t-144 231.5t-53 296.5q0 164 57.5 306t157.5 241t238.5 155t297.5 56q82 0 156.5 -13t154.5 -47.5t147.5 -88t128.5 -139.5t103 -198l-317 -75
q-34 86 -79 148t-95 95t-98.5 47.5t-100.5 14.5q-181 0 -302.5 -142t-121.5 -360q0 -112 34.5 -208t92 -159.5t132 -99t155.5 -35.5q47 0 92 11.5t91.5 38.5t86 68t73 104t54.5 141l320 -66q-37 -139 -109 -245.5t-163.5 -169.5t-189 -96t-202.5 -40v-39q86 -6 143.5 -62.5
t57.5 -146.5q0 -103 -63.5 -164t-157.5 -61h-113z" />
    <glyph glyph-name="Egrave" unicode="&#xc8;" horiz-adv-x="1323" 
d="M143 0v1446h1074v-256h-746v-322h717v-256h-717v-356h760v-256h-1088zM580 1565l-222 379h273l168 -379h-219z" />
    <glyph glyph-name="Eacute" unicode="&#xc9;" horiz-adv-x="1323" 
d="M143 0v1446h1074v-256h-746v-322h717v-256h-717v-356h760v-256h-1088zM571 1565l168 379h273l-221 -379h-220z" />
    <glyph glyph-name="Ecircumflex" unicode="&#xca;" horiz-adv-x="1323" 
d="M143 0v1446h1074v-256h-746v-322h717v-256h-717v-356h760v-256h-1088zM281 1565l276 379h246l276 -379h-241l-158 231l-158 -231h-241z" />
    <glyph glyph-name="Edieresis" unicode="&#xcb;" horiz-adv-x="1323" 
d="M143 0v1446h1074v-256h-746v-322h717v-256h-717v-356h760v-256h-1088zM338 1612v297h297v-297h-297zM725 1612v297h297v-297h-297z" />
    <glyph glyph-name="Igrave" unicode="&#xcc;" horiz-adv-x="614" 
d="M143 0v1446h328v-1446h-328zM207 1565l-221 379h272l168 -379h-219z" />
    <glyph glyph-name="Iacute" unicode="&#xcd;" horiz-adv-x="614" 
d="M143 0v1446h328v-1446h-328zM199 1565l168 379h272l-221 -379h-219z" />
    <glyph glyph-name="Icircumflex" unicode="&#xce;" horiz-adv-x="614" 
d="M-45 1565l221 379h262l221 -379h-225l-127 231l-127 -231h-225zM143 0v1446h328v-1446h-328z" />
    <glyph glyph-name="Idieresis" unicode="&#xcf;" horiz-adv-x="614" 
d="M143 0v1446h328v-1446h-328zM-35 1612v297h297v-297h-297zM352 1612v297h297v-297h-297z" />
    <glyph glyph-name="Eth" unicode="&#xd0;" horiz-adv-x="1591" 
d="M178 0v698h-137v162h137v586h582q219 0 390 -86t269.5 -251.5t98.5 -385.5t-98.5 -385.5t-269.5 -251.5t-390 -86h-582zM506 256h213q222 0 346.5 124.5t124.5 342.5t-124.5 342.5t-346.5 124.5h-213v-330h393v-162h-393v-442z" />
    <glyph glyph-name="Ntilde" unicode="&#xd1;" horiz-adv-x="1640" 
d="M143 0v1446h432l635 -1131v1131h287v-1446h-434l-633 1124v-1124h-287zM471 1638v220q32 32 94.5 55.5t110.5 23.5q16 0 32 -1.5t26 -2.5t26 -5t21.5 -5.5t23.5 -7t22 -6.5q13 -4 43.5 -16t56 -18.5t52.5 -6.5q57 0 106 25.5t82 66.5v-219q-32 -32 -94 -56t-110 -24
q-16 0 -32 1.5t-27 3t-25.5 5t-22 5.5t-23.5 7t-22 7q-13 4 -43.5 16t-56 18.5t-52.5 6.5q-57 0 -106 -26t-82 -67z" />
    <glyph glyph-name="Ograve" unicode="&#xd2;" horiz-adv-x="1656" 
d="M831 221q107 0 190.5 42t133.5 113.5t76 158.5t26 184t-26 185t-76 161t-134 116.5t-190 43.5q-109 0 -194 -43.5t-135.5 -116.5t-76.5 -161t-26 -185q0 -77 15.5 -148t50 -135t84 -111.5t122 -75.5t160.5 -28zM831 -35q-154 0 -281.5 42t-214.5 114t-147.5 169t-88 205
t-27.5 224t27.5 224.5t88 206.5t147.5 171.5t215 116.5t281 43q152 0 278.5 -43t213 -116.5t147 -171.5t88 -206.5t27.5 -224.5t-27.5 -224t-88 -205t-147 -169t-213 -114t-278.5 -42zM731 1565l-221 379h272l168 -379h-219z" />
    <glyph glyph-name="Oacute" unicode="&#xd3;" horiz-adv-x="1656" 
d="M831 221q107 0 190.5 42t133.5 113.5t76 158.5t26 184t-26 185t-76 161t-134 116.5t-190 43.5q-109 0 -194 -43.5t-135.5 -116.5t-76.5 -161t-26 -185q0 -77 15.5 -148t50 -135t84 -111.5t122 -75.5t160.5 -28zM831 -35q-154 0 -281.5 42t-214.5 114t-147.5 169t-88 205
t-27.5 224t27.5 224.5t88 206.5t147.5 171.5t215 116.5t281 43q152 0 278.5 -43t213 -116.5t147 -171.5t88 -206.5t27.5 -224.5t-27.5 -224t-88 -205t-147 -169t-213 -114t-278.5 -42zM723 1565l168 379h272l-221 -379h-219z" />
    <glyph glyph-name="Ocircumflex" unicode="&#xd4;" horiz-adv-x="1656" 
d="M831 221q107 0 190.5 42t133.5 113.5t76 158.5t26 184t-26 185t-76 161t-134 116.5t-190 43.5q-109 0 -194 -43.5t-135.5 -116.5t-76.5 -161t-26 -185q0 -77 15.5 -148t50 -135t84 -111.5t122 -75.5t160.5 -28zM831 -35q-154 0 -281.5 42t-214.5 114t-147.5 169t-88 205
t-27.5 224t27.5 224.5t88 206.5t147.5 171.5t215 116.5t281 43q152 0 278.5 -43t213 -116.5t147 -171.5t88 -206.5t27.5 -224.5t-27.5 -224t-88 -205t-147 -169t-213 -114t-278.5 -42zM432 1565l277 379h245l277 -379h-242l-158 231l-157 -231h-242z" />
    <glyph glyph-name="Otilde" unicode="&#xd5;" horiz-adv-x="1656" 
d="M831 221q107 0 190.5 42t133.5 113.5t76 158.5t26 184t-26 185t-76 161t-134 116.5t-190 43.5q-109 0 -194 -43.5t-135.5 -116.5t-76.5 -161t-26 -185q0 -77 15.5 -148t50 -135t84 -111.5t122 -75.5t160.5 -28zM831 -35q-154 0 -281.5 42t-214.5 114t-147.5 169t-88 205
t-27.5 224t27.5 224.5t88 206.5t147.5 171.5t215 116.5t281 43q152 0 278.5 -43t213 -116.5t147 -171.5t88 -206.5t27.5 -224.5t-27.5 -224t-88 -205t-147 -169t-213 -114t-278.5 -42zM483 1638v220q32 32 94.5 55.5t110.5 23.5q16 0 32.5 -1.5t26 -2.5t26.5 -5t21 -5
t24.5 -7.5t21.5 -6.5q14 -4 43.5 -16t55 -18.5t52.5 -6.5q57 0 106.5 25.5t82.5 66.5v-219q-32 -32 -94.5 -56t-110.5 -24q-16 0 -32 1.5t-27 3t-25.5 5t-22 5.5t-23.5 7t-22 7q-14 4 -43.5 16t-55 18.5t-52.5 6.5q-57 0 -106.5 -26t-82.5 -67z" />
    <glyph glyph-name="Odieresis" unicode="&#xd6;" horiz-adv-x="1656" 
d="M831 221q107 0 190.5 42t133.5 113.5t76 158.5t26 184t-26 185t-76 161t-134 116.5t-190 43.5q-109 0 -194 -43.5t-135.5 -116.5t-76.5 -161t-26 -185q0 -77 15.5 -148t50 -135t84 -111.5t122 -75.5t160.5 -28zM831 -35q-154 0 -281.5 42t-214.5 114t-147.5 169t-88 205
t-27.5 224t27.5 224.5t88 206.5t147.5 171.5t215 116.5t281 43q152 0 278.5 -43t213 -116.5t147 -171.5t88 -206.5t27.5 -224.5t-27.5 -224t-88 -205t-147 -169t-213 -114t-278.5 -42zM489 1612v297h297v-297h-297zM877 1612v297h297v-297h-297z" />
    <glyph glyph-name="multiply" unicode="&#xd7;" 
d="M57 190l447 447l-445 444l156 156l444 -444l447 446l154 -156l-447 -446l449 -447l-156 -155l-447 448l-446 -446z" />
    <glyph glyph-name="Oslash" unicode="&#xd8;" horiz-adv-x="1660" 
d="M1368 1446h219l-182 -205q90 -105 136 -241t46 -281q0 -116 -27.5 -224t-87.5 -205t-146.5 -169t-213 -114t-278.5 -42q-274 0 -457 127l-82 -92h-221l180 201q-90 103 -135 237.5t-45 280.5q0 116 28 224.5t88.5 206.5t147.5 171.5t215 116.5t281 43q265 0 450 -129z
M834 221q107 0 190.5 42t133.5 113.5t76 158.5t26 184q0 161 -66 287l-625 -699q110 -86 265 -86zM401 719q0 -159 64 -281l625 699q-110 88 -256 88q-109 0 -194 -43.5t-136 -116.5t-77 -161t-26 -185z" />
    <glyph glyph-name="Ugrave" unicode="&#xd9;" horiz-adv-x="1527" 
d="M129 535v911h328v-911q0 -156 85 -235t222 -79t222 79t85 235v911h328v-911q0 -143 -49.5 -254t-137 -179t-201 -102.5t-247.5 -34.5t-247.5 34.5t-201 102.5t-137 179t-49.5 254zM664 1565l-222 379h273l168 -379h-219z" />
    <glyph glyph-name="Uacute" unicode="&#xda;" horiz-adv-x="1527" 
d="M129 535v911h328v-911q0 -156 85 -235t222 -79t222 79t85 235v911h328v-911q0 -143 -49.5 -254t-137 -179t-201 -102.5t-247.5 -34.5t-247.5 34.5t-201 102.5t-137 179t-49.5 254zM655 1565l168 379h273l-222 -379h-219z" />
    <glyph glyph-name="Ucircumflex" unicode="&#xdb;" horiz-adv-x="1527" 
d="M129 535v911h328v-911q0 -156 85 -235t222 -79t222 79t85 235v911h328v-911q0 -143 -49.5 -254t-137 -179t-201 -102.5t-247.5 -34.5t-247.5 34.5t-201 102.5t-137 179t-49.5 254zM365 1565l276 379h246l276 -379h-241l-158 231l-158 -231h-241z" />
    <glyph glyph-name="Udieresis" unicode="&#xdc;" horiz-adv-x="1527" 
d="M129 535v911h328v-911q0 -156 85 -235t222 -79t222 79t85 235v911h328v-911q0 -143 -49.5 -254t-137 -179t-201 -102.5t-247.5 -34.5t-247.5 34.5t-201 102.5t-137 179t-49.5 254zM422 1612v297h297v-297h-297zM809 1612v297h297v-297h-297z" />
    <glyph glyph-name="Yacute" unicode="&#xdd;" horiz-adv-x="1505" 
d="M596 0v655l-602 791h379l383 -553l381 553h370l-594 -791v-655h-317zM641 1565l168 379h272l-221 -379h-219z" />
    <glyph glyph-name="Thorn" unicode="&#xde;" horiz-adv-x="1396" 
d="M143 0v1446h328v-211h416q57 0 113.5 -9.5t122 -38t114.5 -73.5t82 -124.5t33 -182.5t-33 -182.5t-82 -124.5t-114.5 -73.5t-122 -38t-113.5 -9.5h-416v-379h-328zM471 635h360q94 0 146.5 37.5t52.5 134.5t-52.5 134.5t-146.5 37.5h-360v-344z" />
    <glyph glyph-name="germandbls" unicode="&#xdf;" horiz-adv-x="1196" 
d="M113 0v987q0 135 33.5 232.5t96.5 153.5t144.5 82t187.5 26q126 0 222.5 -34t149.5 -89t78.5 -116t25.5 -124q0 -98 -40 -155t-120 -95q242 -100 242 -376q0 -226 -146 -368t-373 -142q-68 0 -139 18v256q45 -18 103 -18q119 0 187.5 78.5t68.5 181.5q0 97 -62 169
t-174 72h-123v240h100q83 0 130 37t47 102q0 64 -46 96.5t-131 32.5q-81 0 -128.5 -53t-47.5 -154v-1040h-286z" />
    <glyph glyph-name="agrave" unicode="&#xe0;" horiz-adv-x="1103" 
d="M1012 0h-285q-2 8 -9 58t-7 53q-86 -136 -295 -136q-158 0 -256.5 90.5t-98.5 210.5q0 70 22 123t55 85.5t89.5 56.5t108.5 36.5t129 24.5q2 0 74 10.5t75 10.5q67 10 90 28t23 49q0 54 -46.5 80.5t-115.5 26.5q-191 0 -194 -174l-275 63q25 164 168 246q126 70 301 70
q89 0 164.5 -20.5t136.5 -62t96 -112t35 -164.5v-370q0 -208 15 -283zM348 299q0 -46 40 -82.5t95 -36.5q26 0 53.5 4.5t59.5 18.5t57 35.5t41.5 58.5t16.5 84v74q-1 0 -43 -6.5t-43 -6.5l-82 -14q-36 -6 -59 -11t-51.5 -15t-45 -22.5t-28 -33t-11.5 -47.5zM461 1106
l-221 379h272l168 -379h-219z" />
    <glyph glyph-name="aacute" unicode="&#xe1;" horiz-adv-x="1103" 
d="M1012 0h-285q-2 8 -9 58t-7 53q-86 -136 -295 -136q-158 0 -256.5 90.5t-98.5 210.5q0 70 22 123t55 85.5t89.5 56.5t108.5 36.5t129 24.5q2 0 74 10.5t75 10.5q67 10 90 28t23 49q0 54 -46.5 80.5t-115.5 26.5q-191 0 -194 -174l-275 63q25 164 168 246q126 70 301 70
q89 0 164.5 -20.5t136.5 -62t96 -112t35 -164.5v-370q0 -208 15 -283zM348 299q0 -46 40 -82.5t95 -36.5q26 0 53.5 4.5t59.5 18.5t57 35.5t41.5 58.5t16.5 84v74q-1 0 -43 -6.5t-43 -6.5l-82 -14q-36 -6 -59 -11t-51.5 -15t-45 -22.5t-28 -33t-11.5 -47.5zM436 1106
l168 379h273l-222 -379h-219z" />
    <glyph glyph-name="acircumflex" unicode="&#xe2;" horiz-adv-x="1103" 
d="M1012 0h-285q-2 8 -9 58t-7 53q-86 -136 -295 -136q-158 0 -256.5 90.5t-98.5 210.5q0 70 22 123t55 85.5t89.5 56.5t108.5 36.5t129 24.5q2 0 74 10.5t75 10.5q67 10 90 28t23 49q0 54 -46.5 80.5t-115.5 26.5q-191 0 -194 -174l-275 63q25 164 168 246q126 70 301 70
q89 0 164.5 -20.5t136.5 -62t96 -112t35 -164.5v-370q0 -208 15 -283zM348 299q0 -46 40 -82.5t95 -36.5q26 0 53.5 4.5t59.5 18.5t57 35.5t41.5 58.5t16.5 84v74q-1 0 -43 -6.5t-43 -6.5l-82 -14q-36 -6 -59 -11t-51.5 -15t-45 -22.5t-28 -33t-11.5 -47.5zM156 1106
l276 379h246l276 -379h-241l-158 231l-158 -231h-241z" />
    <glyph glyph-name="atilde" unicode="&#xe3;" horiz-adv-x="1103" 
d="M1012 0h-285q-2 8 -9 58t-7 53q-86 -136 -295 -136q-158 0 -256.5 90.5t-98.5 210.5q0 70 22 123t55 85.5t89.5 56.5t108.5 36.5t129 24.5q2 0 74 10.5t75 10.5q67 10 90 28t23 49q0 54 -46.5 80.5t-115.5 26.5q-191 0 -194 -174l-275 63q25 164 168 246q126 70 301 70
q89 0 164.5 -20.5t136.5 -62t96 -112t35 -164.5v-370q0 -208 15 -283zM348 299q0 -46 40 -82.5t95 -36.5q26 0 53.5 4.5t59.5 18.5t57 35.5t41.5 58.5t16.5 84v74q-1 0 -43 -6.5t-43 -6.5l-82 -14q-36 -6 -59 -11t-51.5 -15t-45 -22.5t-28 -33t-11.5 -47.5zM207 1180v219
q32 32 94.5 56t110.5 24q20 0 36.5 -1.5t34 -5t25.5 -5.5t29 -9t26 -8q13 -4 43.5 -16t56 -18.5t52.5 -6.5q57 0 106 25.5t82 66.5v-219q-32 -32 -94.5 -56t-110.5 -24q-20 0 -36.5 1.5t-34 5t-25.5 5.5t-29 9t-26 8q-13 4 -43.5 16t-56 18.5t-52.5 6.5q-57 0 -106 -25.5
t-82 -66.5z" />
    <glyph glyph-name="adieresis" unicode="&#xe4;" horiz-adv-x="1103" 
d="M1012 0h-285q-2 8 -9 58t-7 53q-86 -136 -295 -136q-158 0 -256.5 90.5t-98.5 210.5q0 70 22 123t55 85.5t89.5 56.5t108.5 36.5t129 24.5q2 0 74 10.5t75 10.5q67 10 90 28t23 49q0 54 -46.5 80.5t-115.5 26.5q-191 0 -194 -174l-275 63q25 164 168 246q126 70 301 70
q89 0 164.5 -20.5t136.5 -62t96 -112t35 -164.5v-370q0 -208 15 -283zM348 299q0 -46 40 -82.5t95 -36.5q26 0 53.5 4.5t59.5 18.5t57 35.5t41.5 58.5t16.5 84v74q-1 0 -43 -6.5t-43 -6.5l-82 -14q-36 -6 -59 -11t-51.5 -15t-45 -22.5t-28 -33t-11.5 -47.5zM213 1153v297
h297v-297h-297zM600 1153v297h297v-297h-297z" />
    <glyph glyph-name="aring" unicode="&#xe5;" horiz-adv-x="1103" 
d="M1012 0h-285q-2 8 -9 58t-7 53q-86 -136 -295 -136q-158 0 -256.5 90.5t-98.5 210.5q0 70 22 123t55 85.5t89.5 56.5t108.5 36.5t129 24.5q2 0 74 10.5t75 10.5q67 10 90 28t23 49q0 54 -46.5 80.5t-115.5 26.5q-191 0 -194 -174l-275 63q25 164 168 246q126 70 301 70
q89 0 164.5 -20.5t136.5 -62t96 -112t35 -164.5v-370q0 -208 15 -283zM348 299q0 -46 40 -82.5t95 -36.5q26 0 53.5 4.5t59.5 18.5t57 35.5t41.5 58.5t16.5 84v74q-1 0 -43 -6.5t-43 -6.5l-82 -14q-36 -6 -59 -11t-51.5 -15t-45 -22.5t-28 -33t-11.5 -47.5zM555 1202
q41 0 70.5 30t29.5 71t-29.5 70.5t-70.5 29.5t-70.5 -29.5t-29.5 -70.5t29.5 -71t70.5 -30zM555 1085q-89 0 -153 64.5t-64 153.5t64 153t153 64t153 -64t64 -153t-64 -153.5t-153 -64.5z" />
    <glyph glyph-name="ae" unicode="&#xe6;" horiz-adv-x="1761" 
d="M371 633l-275 63q25 164 168 246q126 70 301 70q96 0 184 -25.5t146 -79.5q127 105 311 105q101 0 191.5 -37t156.5 -102.5t105 -161t39 -205.5q0 -60 -4 -96h-697v-17q1 -31 6.5 -59t20.5 -57t37.5 -50t59.5 -34t85 -13q165 0 209 170l256 -65q-18 -91 -88 -162.5
t-167 -108.5t-202 -37q-115 0 -212.5 47.5t-155.5 143.5q-59 -98 -156.5 -145.5t-273.5 -47.5q-158 0 -256.5 90.5t-98.5 210.5q0 66 21.5 119t55 88t85.5 60.5t101.5 39t115 21.5t113.5 10t109 2h65v50q0 62 -48 101.5t-114 39.5q-191 0 -194 -174zM711 381v29h-95
q-71 0 -115.5 -3.5t-82 -15t-54 -34t-16.5 -58.5q0 -57 39 -87t98 -30q90 0 158 54t68 145zM997 616h418q0 76 -55.5 133.5t-153.5 57.5q-94 0 -151.5 -56t-57.5 -135z" />
    <glyph glyph-name="ccedilla" unicode="&#xe7;" horiz-adv-x="1110" 
d="M506 -506v131h94q38 0 63 26.5t25 67.5q0 29 -25.5 53.5t-62.5 24.5h-94v183q-104 12 -189.5 60t-140 119t-84 157t-29.5 178q0 99 34.5 191t97 165.5t161 117.5t217.5 44q107 0 197 -35.5t147.5 -91.5t93 -115.5t48.5 -118.5l-287 -59q-45 205 -199 205
q-58 0 -102.5 -27t-70 -72t-38 -96.5t-12.5 -107.5t12.5 -107.5t38 -97t70 -72.5t102.5 -27q54 0 93.5 22t61 61t31.5 71t17 72l287 -56q-6 -43 -25.5 -89.5t-55 -95t-83 -88.5t-115 -69.5t-145.5 -37.5v-52q86 -6 143.5 -62.5t57.5 -146.5q0 -103 -64 -164t-158 -61h-112z
" />
    <glyph glyph-name="egrave" unicode="&#xe8;" horiz-adv-x="1114" 
d="M768 350l256 -65q-27 -117 -151.5 -213.5t-290.5 -96.5q-129 0 -231 44t-163.5 117.5t-93 164.5t-31.5 191q0 102 33 195t94 166t156.5 116t212.5 43q101 0 191.5 -37t156.5 -102.5t105 -161t39 -205.5q0 -60 -4 -96h-697q4 -107 62 -168.5t147 -61.5q165 0 209 170z
M350 616h418q0 80 -55 135.5t-154 55.5q-95 0 -152 -53.5t-57 -137.5zM459 1106l-221 379h272l168 -379h-219z" />
    <glyph glyph-name="eacute" unicode="&#xe9;" horiz-adv-x="1114" 
d="M768 350l256 -65q-27 -117 -151.5 -213.5t-290.5 -96.5q-129 0 -231 44t-163.5 117.5t-93 164.5t-31.5 191q0 102 33 195t94 166t156.5 116t212.5 43q101 0 191.5 -37t156.5 -102.5t105 -161t39 -205.5q0 -60 -4 -96h-697q4 -107 62 -168.5t147 -61.5q165 0 209 170z
M350 616h418q0 80 -55 135.5t-154 55.5q-95 0 -152 -53.5t-57 -137.5zM434 1106l168 379h272l-221 -379h-219z" />
    <glyph glyph-name="ecircumflex" unicode="&#xea;" horiz-adv-x="1114" 
d="M768 350l256 -65q-27 -117 -151.5 -213.5t-290.5 -96.5q-129 0 -231 44t-163.5 117.5t-93 164.5t-31.5 191q0 102 33 195t94 166t156.5 116t212.5 43q101 0 191.5 -37t156.5 -102.5t105 -161t39 -205.5q0 -60 -4 -96h-697q4 -107 62 -168.5t147 -61.5q165 0 209 170z
M350 616h418q0 80 -55 135.5t-154 55.5q-95 0 -152 -53.5t-57 -137.5zM154 1106l276 379h246l276 -379h-241l-158 231l-158 -231h-241z" />
    <glyph glyph-name="edieresis" unicode="&#xeb;" horiz-adv-x="1114" 
d="M768 350l256 -65q-27 -117 -151.5 -213.5t-290.5 -96.5q-129 0 -231 44t-163.5 117.5t-93 164.5t-31.5 191q0 102 33 195t94 166t156.5 116t212.5 43q101 0 191.5 -37t156.5 -102.5t105 -161t39 -205.5q0 -60 -4 -96h-697q4 -107 62 -168.5t147 -61.5q165 0 209 170z
M350 616h418q0 80 -55 135.5t-154 55.5q-95 0 -152 -53.5t-57 -137.5zM211 1153v297h297v-297h-297zM598 1153v297h297v-297h-297z" />
    <glyph glyph-name="igrave" unicode="&#xec;" horiz-adv-x="512" 
d="M113 0v987h286v-987h-286zM162 1106l-221 379h272l168 -379h-219z" />
    <glyph glyph-name="iacute" unicode="&#xed;" horiz-adv-x="512" 
d="M113 0v987h286v-987h-286zM137 1106l168 379h273l-222 -379h-219z" />
    <glyph glyph-name="icircumflex" unicode="&#xee;" horiz-adv-x="512" 
d="M-96 1106l221 379h262l221 -379h-225l-127 231l-127 -231h-225zM113 0v987h286v-987h-286z" />
    <glyph glyph-name="idieresis" unicode="&#xef;" horiz-adv-x="512" 
d="M113 0v987h286v-987h-286zM-86 1153v297h297v-297h-297zM301 1153v297h297v-297h-297z" />
    <glyph glyph-name="eth" unicode="&#xf0;" horiz-adv-x="1183" 
d="M344 1071l-31 105l260 77q-42 49 -112 123l239 105q64 -67 127 -152l217 66l31 -105l-182 -55q44 -68 78 -133.5t68 -152.5t52.5 -189.5t18.5 -212.5q0 -281 -130.5 -426.5t-393.5 -145.5q-97 0 -177.5 22.5t-133.5 58t-93.5 84.5t-62 96.5t-35 99.5t-17.5 88t-4 68
q0 33 4.5 72t18.5 90.5t36 99.5t60 96t86.5 83t120 57t156.5 22q88 0 147 -28t103 -87q-55 130 -150 264zM600 190q34 0 69.5 14.5t71.5 46.5t59 94.5t23 146.5t-23 147t-59 95.5t-71.5 47.5t-69.5 15q-61 0 -108 -25t-73 -60t-42.5 -80t-21.5 -78.5t-5 -61.5t5 -61
t21.5 -77.5t42.5 -79.5t73 -59.5t108 -24.5z" />
    <glyph glyph-name="ntilde" unicode="&#xf1;" horiz-adv-x="1142" 
d="M113 0v987h278v-119q8 19 27 40.5t52.5 46.5t90.5 41t127 16q200 0 291 -148q61 -102 61 -233v-631h-286v629q0 50 -27 100q-39 68 -125 68q-72 0 -125 -43q-78 -61 -78 -203v-551h-286zM229 1180v219q32 32 94.5 56t110.5 24q16 0 32 -1.5t27 -3t25.5 -5t22 -5.5
t23.5 -7t22 -7q14 -4 43.5 -16t55 -18.5t52.5 -6.5q57 0 106.5 25.5t82.5 66.5v-219q-32 -32 -94.5 -56t-110.5 -24q-16 0 -32 1.5t-27 3t-25.5 5t-22 5.5t-23.5 7t-22 7q-14 4 -43.5 16t-55 18.5t-52.5 6.5q-57 0 -106.5 -25.5t-82.5 -66.5z" />
    <glyph glyph-name="ograve" unicode="&#xf2;" horiz-adv-x="1153" 
d="M578 190q56 0 101 27.5t71.5 72.5t40.5 97t14 105q0 74 -23 141t-76.5 115.5t-127.5 48.5t-128 -48.5t-78 -116t-24 -140.5q0 -72 24 -139t78 -115t128 -48zM578 -25q-120 0 -220 45t-163.5 119t-98.5 165.5t-35 187.5q0 97 35 189t98.5 166t163.5 119.5t220 45.5
t219.5 -45.5t162.5 -119.5t97.5 -166t34.5 -189q0 -96 -34.5 -187.5t-97.5 -165.5t-162.5 -119t-219.5 -45zM473 1106l-221 379h272l168 -379h-219z" />
    <glyph glyph-name="oacute" unicode="&#xf3;" horiz-adv-x="1153" 
d="M578 190q56 0 101 27.5t71.5 72.5t40.5 97t14 105q0 74 -23 141t-76.5 115.5t-127.5 48.5t-128 -48.5t-78 -116t-24 -140.5q0 -72 24 -139t78 -115t128 -48zM578 -25q-120 0 -220 45t-163.5 119t-98.5 165.5t-35 187.5q0 97 35 189t98.5 166t163.5 119.5t220 45.5
t219.5 -45.5t162.5 -119.5t97.5 -166t34.5 -189q0 -96 -34.5 -187.5t-97.5 -165.5t-162.5 -119t-219.5 -45zM449 1106l167 379h273l-221 -379h-219z" />
    <glyph glyph-name="ocircumflex" unicode="&#xf4;" horiz-adv-x="1153" 
d="M578 190q56 0 101 27.5t71.5 72.5t40.5 97t14 105q0 74 -23 141t-76.5 115.5t-127.5 48.5t-128 -48.5t-78 -116t-24 -140.5q0 -72 24 -139t78 -115t128 -48zM578 -25q-120 0 -220 45t-163.5 119t-98.5 165.5t-35 187.5q0 97 35 189t98.5 166t163.5 119.5t220 45.5
t219.5 -45.5t162.5 -119.5t97.5 -166t34.5 -189q0 -96 -34.5 -187.5t-97.5 -165.5t-162.5 -119t-219.5 -45zM168 1106l276 379h246l277 -379h-242l-158 231l-157 -231h-242z" />
    <glyph glyph-name="otilde" unicode="&#xf5;" horiz-adv-x="1153" 
d="M578 190q56 0 101 27.5t71.5 72.5t40.5 97t14 105q0 74 -23 141t-76.5 115.5t-127.5 48.5t-128 -48.5t-78 -116t-24 -140.5q0 -72 24 -139t78 -115t128 -48zM578 -25q-120 0 -220 45t-163.5 119t-98.5 165.5t-35 187.5q0 97 35 189t98.5 166t163.5 119.5t220 45.5
t219.5 -45.5t162.5 -119.5t97.5 -166t34.5 -189q0 -96 -34.5 -187.5t-97.5 -165.5t-162.5 -119t-219.5 -45zM219 1180v219q32 32 94.5 56t110.5 24q20 0 36.5 -1.5t34 -5t25.5 -5.5t29 -9t26 -8q13 -4 43.5 -16t56 -18.5t52.5 -6.5q57 0 106 25.5t82 66.5v-219
q-32 -32 -94 -56t-110 -24q-16 0 -32 1.5t-27 3t-25.5 5t-22 5.5t-23.5 7t-22 7q-14 4 -43.5 16t-55 18.5t-52.5 6.5q-57 0 -106.5 -25.5t-82.5 -66.5z" />
    <glyph glyph-name="odieresis" unicode="&#xf6;" horiz-adv-x="1153" 
d="M578 190q56 0 101 27.5t71.5 72.5t40.5 97t14 105q0 74 -23 141t-76.5 115.5t-127.5 48.5t-128 -48.5t-78 -116t-24 -140.5q0 -72 24 -139t78 -115t128 -48zM578 -25q-120 0 -220 45t-163.5 119t-98.5 165.5t-35 187.5q0 97 35 189t98.5 166t163.5 119.5t220 45.5
t219.5 -45.5t162.5 -119.5t97.5 -166t34.5 -189q0 -96 -34.5 -187.5t-97.5 -165.5t-162.5 -119t-219.5 -45zM225 1153v297h297v-297h-297zM612 1153v297h297v-297h-297z" />
    <glyph glyph-name="divide" unicode="&#xf7;" 
d="M496 197q0 69 47 117t116 48t117.5 -48t48.5 -117t-48.5 -116.5t-117.5 -47.5t-116 47.5t-47 116.5zM43 524v219h1233v-219h-1233zM496 1067q0 69 47 117.5t116 48.5t117.5 -48.5t48.5 -117.5t-48.5 -116.5t-117.5 -47.5t-116 47.5t-47 116.5z" />
    <glyph glyph-name="oslash" unicode="&#xf8;" horiz-adv-x="1161" 
d="M35 0l145 160q-114 141 -114 332q0 97 34.5 189t98 166t163.5 119.5t220 45.5q163 0 290 -86l56 61h198l-145 -162q115 -145 115 -333q0 -96 -34.5 -187.5t-97.5 -165.5t-162.5 -119t-219.5 -45q-169 0 -293 84l-56 -59h-198zM371 371l340 377q-55 49 -129 49t-128 -48.5
t-78 -116t-24 -140.5q0 -59 19 -121zM791 614l-340 -374q56 -50 131 -50q56 0 101 27.5t71.5 72.5t40.5 97t14 105q0 60 -18 122z" />
    <glyph glyph-name="ugrave" unicode="&#xf9;" horiz-adv-x="1142" 
d="M102 356v631h287v-629q0 -50 27 -100q39 -68 125 -68q72 0 125 43q77 60 77 203v551h287v-987h-278v119q-8 -19 -27 -40.5t-52.5 -46.5t-90.5 -41t-127 -16q-200 0 -291 148q-62 104 -62 233zM475 1106l-221 379h272l168 -379h-219z" />
    <glyph glyph-name="uacute" unicode="&#xfa;" horiz-adv-x="1142" 
d="M102 356v631h287v-629q0 -50 27 -100q39 -68 125 -68q72 0 125 43q77 60 77 203v551h287v-987h-278v119q-8 -19 -27 -40.5t-52.5 -46.5t-90.5 -41t-127 -16q-200 0 -291 148q-62 104 -62 233zM451 1106l167 379h273l-221 -379h-219z" />
    <glyph glyph-name="ucircumflex" unicode="&#xfb;" horiz-adv-x="1142" 
d="M102 356v631h287v-629q0 -50 27 -100q39 -68 125 -68q72 0 125 43q77 60 77 203v551h287v-987h-278v119q-8 -19 -27 -40.5t-52.5 -46.5t-90.5 -41t-127 -16q-200 0 -291 148q-62 104 -62 233zM170 1106l276 379h246l277 -379h-242l-158 231l-157 -231h-242z" />
    <glyph glyph-name="udieresis" unicode="&#xfc;" horiz-adv-x="1142" 
d="M102 356v631h287v-629q0 -50 27 -100q39 -68 125 -68q72 0 125 43q77 60 77 203v551h287v-987h-278v119q-8 -19 -27 -40.5t-52.5 -46.5t-90.5 -41t-127 -16q-200 0 -291 148q-62 104 -62 233zM227 1153v297h297v-297h-297zM614 1153v297h297v-297h-297z" />
    <glyph glyph-name="yacute" unicode="&#xfd;" horiz-adv-x="1060" 
d="M80 -459v230q76 -13 86 -13q33 0 55 2.5t45.5 10t39 23t24.5 40.5l69 180l-389 973h303l236 -657l219 657h289l-482 -1263q-76 -197 -329 -197q-78 0 -166 14zM418 1106l168 379h272l-221 -379h-219z" />
    <glyph glyph-name="thorn" unicode="&#xfe;" horiz-adv-x="1222" 
d="M113 -457v1903h270v-569q40 59 127.5 97t167.5 38q85 0 156.5 -22t120 -56.5t86.5 -82t59.5 -95.5t35.5 -99t18.5 -89.5t4.5 -71.5t-4.5 -72t-18.5 -91t-36 -100t-59.5 -96t-86.5 -83t-120.5 -57t-157.5 -22q-165 0 -277 115v-547h-286zM623 190q60 0 107 24.5t73 60
t42.5 80t21.5 78t5 61.5q0 22 -4 49t-13 63t-27 68.5t-43.5 60.5t-66 45t-89.5 17q-29 0 -58.5 -8.5t-61 -30t-56 -54t-40.5 -86.5t-16 -122t16 -123t40 -88t55 -55.5t59.5 -31t55.5 -8.5z" />
    <glyph glyph-name="ydieresis" unicode="&#xff;" horiz-adv-x="1060" 
d="M80 -459v230q76 -13 86 -13q33 0 55 2.5t45.5 10t39 23t24.5 40.5l69 180l-389 973h303l236 -657l219 657h289l-482 -1263q-76 -197 -329 -197q-78 0 -166 14zM195 1153v297h297v-297h-297zM582 1153v297h297v-297h-297z" />
    <glyph glyph-name="Amacron" unicode="&#x100;" horiz-adv-x="1523" 
d="M-6 0l584 1446h368l584 -1446h-338l-145 389h-572l-143 -389h-338zM567 635h389l-194 522zM414 1698v207h696v-207h-696z" />
    <glyph glyph-name="amacron" unicode="&#x101;" horiz-adv-x="1103" 
d="M1012 0h-285q-2 8 -9 58t-7 53q-86 -136 -295 -136q-158 0 -256.5 90.5t-98.5 210.5q0 70 22 123t55 85.5t89.5 56.5t108.5 36.5t129 24.5q2 0 74 10.5t75 10.5q67 10 90 28t23 49q0 54 -46.5 80.5t-115.5 26.5q-191 0 -194 -174l-275 63q25 164 168 246q126 70 301 70
q89 0 164.5 -20.5t136.5 -62t96 -112t35 -164.5v-370q0 -208 15 -283zM348 299q0 -46 40 -82.5t95 -36.5q26 0 53.5 4.5t59.5 18.5t57 35.5t41.5 58.5t16.5 84v74q-1 0 -43 -6.5t-43 -6.5l-82 -14q-36 -6 -59 -11t-51.5 -15t-45 -22.5t-28 -33t-11.5 -47.5zM207 1239v207
h696v-207h-696z" />
    <glyph glyph-name="Abreve" unicode="&#x102;" horiz-adv-x="1523" 
d="M-6 0l584 1446h368l584 -1446h-338l-145 389h-572l-143 -389h-338zM567 635h389l-194 522zM422 1905v39h205v-39q0 -81 33.5 -131t101.5 -50t102.5 50.5t34.5 130.5v39h205v-39q0 -164 -95 -262.5t-247 -98.5t-246 98.5t-94 262.5z" />
    <glyph glyph-name="abreve" unicode="&#x103;" horiz-adv-x="1103" 
d="M1012 0h-285q-2 8 -9 58t-7 53q-86 -136 -295 -136q-158 0 -256.5 90.5t-98.5 210.5q0 70 22 123t55 85.5t89.5 56.5t108.5 36.5t129 24.5q2 0 74 10.5t75 10.5q67 10 90 28t23 49q0 54 -46.5 80.5t-115.5 26.5q-191 0 -194 -174l-275 63q25 164 168 246q126 70 301 70
q89 0 164.5 -20.5t136.5 -62t96 -112t35 -164.5v-370q0 -208 15 -283zM348 299q0 -46 40 -82.5t95 -36.5q26 0 53.5 4.5t59.5 18.5t57 35.5t41.5 58.5t16.5 84v74q-1 0 -43 -6.5t-43 -6.5l-82 -14q-36 -6 -59 -11t-51.5 -15t-45 -22.5t-28 -33t-11.5 -47.5zM215 1446v39h205
v-39q0 -80 33.5 -130t101.5 -50q69 0 103 50t34 130v39h205v-39q0 -164 -95 -262.5t-247 -98.5t-246 98.5t-94 262.5z" />
    <glyph glyph-name="Aogonek" unicode="&#x104;" horiz-adv-x="1523" 
d="M1262 -186q0 -78 48 -133.5t117 -55.5h95v-131h-95q-132 0 -224.5 94t-92.5 226q0 121 74 204l-137 371h-572l-143 -389h-338l584 1446h368l584 -1446h-105q-69 0 -116 -54.5t-47 -131.5zM567 635h389l-194 522z" />
    <glyph glyph-name="aogonek" unicode="&#x105;" horiz-adv-x="1103" 
d="M784 -186q0 -78 48.5 -133.5t117.5 -55.5h94v-131h-94q-132 0 -224.5 94t-92.5 226q0 130 88 221q-2 12 -4.5 31.5t-4 31t-1.5 13.5q-86 -136 -295 -136q-158 0 -256.5 90.5t-98.5 210.5q0 70 22 123t55 85.5t89.5 56.5t108.5 36.5t129 24.5q2 0 74 10.5t75 10.5
q67 10 90 28t23 49q0 54 -46.5 80.5t-115.5 26.5q-191 0 -194 -174l-275 63q25 164 168 246q126 70 301 70q89 0 164.5 -20.5t136.5 -62t96 -112t35 -164.5v-370q0 -208 15 -283h-62q-69 0 -117.5 -54t-48.5 -132zM348 299q0 -46 40 -82.5t95 -36.5q26 0 53.5 4.5t59.5 18.5
t57 35.5t41.5 58.5t16.5 84v74q-1 0 -43 -6.5t-43 -6.5l-82 -14q-36 -6 -59 -11t-51.5 -15t-45 -22.5t-28 -33t-11.5 -47.5z" />
    <glyph glyph-name="Cacute" unicode="&#x106;" horiz-adv-x="1564" 
d="M1210 584l320 -66q-32 -120 -90.5 -215.5t-129 -157.5t-156 -103.5t-169.5 -59t-172 -17.5q-146 0 -280 53.5t-236.5 149t-163.5 240t-61 315.5q0 164 57.5 306t157.5 241t238.5 155t297.5 56q82 0 156.5 -13t154.5 -47.5t147.5 -88t128.5 -139.5t103 -198l-317 -75
q-34 86 -79 148t-95 95t-98.5 47.5t-100.5 14.5q-181 0 -302.5 -142t-121.5 -360q0 -112 34.5 -208t92 -159.5t132 -99t155.5 -35.5q47 0 92 11.5t91.5 38.5t86 68t73 104t54.5 141zM715 1565l168 379h272l-221 -379h-219z" />
    <glyph glyph-name="cacute" unicode="&#x107;" horiz-adv-x="1107" 
d="M774 416l287 -56q-8 -59 -42 -123t-91.5 -124t-151 -99t-205.5 -39q-119 0 -217.5 44.5t-161 118t-97 165.5t-34.5 191t34.5 191t97 165.5t161 117.5t217.5 44q107 0 197 -35.5t147.5 -91.5t93 -115.5t48.5 -118.5l-287 -59q-45 205 -199 205q-58 0 -102.5 -27t-70 -72
t-38 -96.5t-12.5 -107.5t12.5 -107.5t38 -97t70 -72.5t102.5 -27q54 0 93.5 22t61 61t31.5 71t17 72zM442 1106l168 379h273l-221 -379h-220z" />
    <glyph glyph-name="Ccircumflex" unicode="&#x108;" horiz-adv-x="1564" 
d="M1210 584l320 -66q-32 -120 -90.5 -215.5t-129 -157.5t-156 -103.5t-169.5 -59t-172 -17.5q-146 0 -280 53.5t-236.5 149t-163.5 240t-61 315.5q0 164 57.5 306t157.5 241t238.5 155t297.5 56q82 0 156.5 -13t154.5 -47.5t147.5 -88t128.5 -139.5t103 -198l-317 -75
q-34 86 -79 148t-95 95t-98.5 47.5t-100.5 14.5q-181 0 -302.5 -142t-121.5 -360q0 -112 34.5 -208t92 -159.5t132 -99t155.5 -35.5q47 0 92 11.5t91.5 38.5t86 68t73 104t54.5 141zM424 1565l276 379h246l277 -379h-242l-158 231l-157 -231h-242z" />
    <glyph glyph-name="ccircumflex" unicode="&#x109;" horiz-adv-x="1107" 
d="M774 416l287 -56q-8 -59 -42 -123t-91.5 -124t-151 -99t-205.5 -39q-119 0 -217.5 44.5t-161 118t-97 165.5t-34.5 191t34.5 191t97 165.5t161 117.5t217.5 44q107 0 197 -35.5t147.5 -91.5t93 -115.5t48.5 -118.5l-287 -59q-45 205 -199 205q-58 0 -102.5 -27t-70 -72
t-38 -96.5t-12.5 -107.5t12.5 -107.5t38 -97t70 -72.5t102.5 -27q54 0 93.5 22t61 61t31.5 71t17 72zM162 1106l276 379h246l277 -379h-242l-158 231l-158 -231h-241z" />
    <glyph glyph-name="Cdotaccent" unicode="&#x10a;" horiz-adv-x="1564" 
d="M1210 584l320 -66q-32 -120 -90.5 -215.5t-129 -157.5t-156 -103.5t-169.5 -59t-172 -17.5q-146 0 -280 53.5t-236.5 149t-163.5 240t-61 315.5q0 164 57.5 306t157.5 241t238.5 155t297.5 56q82 0 156.5 -13t154.5 -47.5t147.5 -88t128.5 -139.5t103 -198l-317 -75
q-34 86 -79 148t-95 95t-98.5 47.5t-100.5 14.5q-181 0 -302.5 -142t-121.5 -360q0 -112 34.5 -208t92 -159.5t132 -99t155.5 -35.5q47 0 92 11.5t91.5 38.5t86 68t73 104t54.5 141zM680 1612v297h287v-297h-287z" />
    <glyph glyph-name="cdotaccent" unicode="&#x10b;" horiz-adv-x="1107" 
d="M774 416l287 -56q-8 -59 -42 -123t-91.5 -124t-151 -99t-205.5 -39q-119 0 -217.5 44.5t-161 118t-97 165.5t-34.5 191t34.5 191t97 165.5t161 117.5t217.5 44q107 0 197 -35.5t147.5 -91.5t93 -115.5t48.5 -118.5l-287 -59q-45 205 -199 205q-58 0 -102.5 -27t-70 -72
t-38 -96.5t-12.5 -107.5t12.5 -107.5t38 -97t70 -72.5t102.5 -27q54 0 93.5 22t61 61t31.5 71t17 72zM418 1153v297h287v-297h-287z" />
    <glyph glyph-name="Ccaron" unicode="&#x10c;" horiz-adv-x="1564" 
d="M1210 584l320 -66q-32 -120 -90.5 -215.5t-129 -157.5t-156 -103.5t-169.5 -59t-172 -17.5q-146 0 -280 53.5t-236.5 149t-163.5 240t-61 315.5q0 164 57.5 306t157.5 241t238.5 155t297.5 56q82 0 156.5 -13t154.5 -47.5t147.5 -88t128.5 -139.5t103 -198l-317 -75
q-34 86 -79 148t-95 95t-98.5 47.5t-100.5 14.5q-181 0 -302.5 -142t-121.5 -360q0 -112 34.5 -208t92 -159.5t132 -99t155.5 -35.5q47 0 92 11.5t91.5 38.5t86 68t73 104t54.5 141zM700 1565l-276 379h242l157 -232l158 232h242l-277 -379h-246z" />
    <glyph glyph-name="ccaron" unicode="&#x10d;" horiz-adv-x="1107" 
d="M774 416l287 -56q-8 -59 -42 -123t-91.5 -124t-151 -99t-205.5 -39q-119 0 -217.5 44.5t-161 118t-97 165.5t-34.5 191t34.5 191t97 165.5t161 117.5t217.5 44q107 0 197 -35.5t147.5 -91.5t93 -115.5t48.5 -118.5l-287 -59q-45 205 -199 205q-58 0 -102.5 -27t-70 -72
t-38 -96.5t-12.5 -107.5t12.5 -107.5t38 -97t70 -72.5t102.5 -27q54 0 93.5 22t61 61t31.5 71t17 72zM438 1106l-276 379h241l158 -232l158 232h242l-277 -379h-246z" />
    <glyph glyph-name="Dcaron" unicode="&#x10e;" horiz-adv-x="1554" 
d="M471 256h213q222 0 346.5 124.5t124.5 342.5t-124.5 342.5t-346.5 124.5h-213v-934zM143 0v1446h582q219 0 390 -86t269.5 -251.5t98.5 -385.5t-98.5 -385.5t-269.5 -251.5t-390 -86h-582zM598 1565l-276 379h241l158 -232l158 232h241l-276 -379h-246z" />
    <glyph glyph-name="dcaron" unicode="&#x10f;" horiz-adv-x="1263" 
d="M840 0v111q-38 -59 -126 -97.5t-169 -38.5q-85 0 -156.5 22t-120 57t-86.5 82.5t-60 95t-36 99t-18.5 90t-4.5 71.5t4.5 72t18.5 90.5t36 99.5t60 96t86.5 83t120 57t156.5 22q166 0 278 -115v549h287v-1446h-270zM594 190q28 0 57 8.5t60.5 30.5t56 54.5t40 86.5
t15.5 122q0 84 -23 147t-59 95.5t-71.5 47.5t-69.5 15q-61 0 -108 -24.5t-73 -59.5t-42.5 -80t-21.5 -78t-5 -61t5 -61.5t21 -78t41.5 -79.5t71.5 -60t105 -25zM1202 1067l70 379h256l-172 -379h-154z" />
    <glyph glyph-name="Dcroat" unicode="&#x110;" horiz-adv-x="1591" 
d="M178 0v698h-137v162h137v586h582q219 0 390 -86t269.5 -251.5t98.5 -385.5t-98.5 -385.5t-269.5 -251.5t-390 -86h-582zM506 256h213q222 0 346.5 124.5t124.5 342.5t-124.5 342.5t-346.5 124.5h-213v-330h393v-162h-393v-442z" />
    <glyph glyph-name="dcroat" unicode="&#x111;" horiz-adv-x="1222" 
d="M569 1135v161h254v150h287v-150h147v-161h-147v-1135h-270v111q-38 -59 -126 -97.5t-169 -38.5q-85 0 -156.5 22t-120 57t-86.5 82.5t-60 95t-36 99t-18.5 90t-4.5 71.5t4.5 72t18.5 90.5t36 99.5t60 96t86.5 83t120 57t156.5 22q166 0 278 -115v238h-254zM594 190
q28 0 57 8.5t60.5 30.5t56 54.5t40 86.5t15.5 122q0 84 -23 147t-59 95.5t-71.5 47.5t-69.5 15q-61 0 -108 -24.5t-73 -59.5t-42.5 -80t-21.5 -78t-5 -61t5 -61.5t21 -78t41.5 -79.5t71.5 -60t105 -25z" />
    <glyph glyph-name="Emacron" unicode="&#x112;" horiz-adv-x="1323" 
d="M143 0v1446h1074v-256h-746v-322h717v-256h-717v-356h760v-256h-1088zM332 1698v207h696v-207h-696z" />
    <glyph glyph-name="emacron" unicode="&#x113;" horiz-adv-x="1114" 
d="M768 350l256 -65q-27 -117 -151.5 -213.5t-290.5 -96.5q-129 0 -231 44t-163.5 117.5t-93 164.5t-31.5 191q0 102 33 195t94 166t156.5 116t212.5 43q101 0 191.5 -37t156.5 -102.5t105 -161t39 -205.5q0 -60 -4 -96h-697q4 -107 62 -168.5t147 -61.5q165 0 209 170z
M350 616h418q0 80 -55 135.5t-154 55.5q-95 0 -152 -53.5t-57 -137.5zM205 1239v207h696v-207h-696z" />
    <glyph glyph-name="Ebreve" unicode="&#x114;" horiz-adv-x="1323" 
d="M143 0v1446h1074v-256h-746v-322h717v-256h-717v-356h760v-256h-1088zM340 1905v39h205v-39q0 -81 33.5 -131t101.5 -50t102.5 50.5t34.5 130.5v39h205v-39q0 -164 -95 -262.5t-247 -98.5t-246 98.5t-94 262.5z" />
    <glyph glyph-name="ebreve" unicode="&#x115;" horiz-adv-x="1114" 
d="M768 350l256 -65q-27 -117 -151.5 -213.5t-290.5 -96.5q-129 0 -231 44t-163.5 117.5t-93 164.5t-31.5 191q0 102 33 195t94 166t156.5 116t212.5 43q101 0 191.5 -37t156.5 -102.5t105 -161t39 -205.5q0 -60 -4 -96h-697q4 -107 62 -168.5t147 -61.5q165 0 209 170z
M350 616h418q0 80 -55 135.5t-154 55.5q-95 0 -152 -53.5t-57 -137.5zM213 1446v39h205v-39q0 -80 33.5 -130t101.5 -50q69 0 103 50t34 130v39h205v-39q0 -164 -95 -262.5t-247 -98.5t-246 98.5t-94 262.5z" />
    <glyph glyph-name="Edotaccent" unicode="&#x116;" horiz-adv-x="1323" 
d="M143 0v1446h1074v-256h-746v-322h717v-256h-717v-356h760v-256h-1088zM537 1612v297h286v-297h-286z" />
    <glyph glyph-name="edotaccent" unicode="&#x117;" horiz-adv-x="1114" 
d="M768 350l256 -65q-27 -117 -151.5 -213.5t-290.5 -96.5q-129 0 -231 44t-163.5 117.5t-93 164.5t-31.5 191q0 102 33 195t94 166t156.5 116t212.5 43q101 0 191.5 -37t156.5 -102.5t105 -161t39 -205.5q0 -60 -4 -96h-697q4 -107 62 -168.5t147 -61.5q165 0 209 170z
M350 616h418q0 80 -55 135.5t-154 55.5q-95 0 -152 -53.5t-57 -137.5zM410 1153v297h286v-297h-286z" />
    <glyph glyph-name="Eogonek" unicode="&#x118;" horiz-adv-x="1323" 
d="M143 0v1446h1074v-256h-746v-322h717v-256h-717v-356h760v-256h-111q-66 -3 -111.5 -56.5t-45.5 -129.5q0 -78 48 -133.5t117 -55.5h95v-131h-95q-132 0 -224.5 94t-92.5 226q0 105 59 186h-727z" />
    <glyph glyph-name="eogonek" unicode="&#x119;" horiz-adv-x="1114" 
d="M760 -506h-94q-132 0 -225 94t-93 226q0 100 60 186q-115 33 -194.5 110.5t-115 174.5t-35.5 207q0 102 33 195t94 166t156.5 116t212.5 43q101 0 191.5 -37t156.5 -102.5t105 -161t39 -205.5q0 -60 -4 -96h-697q4 -107 62 -168.5t147 -61.5q165 0 209 170l256 -65
q-27 -117 -151.5 -213.5t-290.5 -96.5q-37 -24 -59.5 -66.5t-22.5 -94.5q0 -78 48.5 -133.5t117.5 -55.5h94v-131zM350 616h418q0 80 -55 135.5t-154 55.5q-95 0 -152 -53.5t-57 -137.5z" />
    <glyph glyph-name="Ecaron" unicode="&#x11a;" horiz-adv-x="1323" 
d="M143 0v1446h1074v-256h-746v-322h717v-256h-717v-356h760v-256h-1088zM557 1565l-276 379h241l158 -232l158 232h241l-276 -379h-246z" />
    <glyph glyph-name="ecaron" unicode="&#x11b;" horiz-adv-x="1114" 
d="M768 350l256 -65q-27 -117 -151.5 -213.5t-290.5 -96.5q-129 0 -231 44t-163.5 117.5t-93 164.5t-31.5 191q0 102 33 195t94 166t156.5 116t212.5 43q101 0 191.5 -37t156.5 -102.5t105 -161t39 -205.5q0 -60 -4 -96h-697q4 -107 62 -168.5t147 -61.5q165 0 209 170z
M350 616h418q0 80 -55 135.5t-154 55.5q-95 0 -152 -53.5t-57 -137.5zM430 1106l-276 379h241l158 -232l158 232h241l-276 -379h-246z" />
    <glyph glyph-name="Gcircumflex" unicode="&#x11c;" horiz-adv-x="1599" 
d="M1188 0v137q-70 -88 -175.5 -130t-228.5 -42q-104 0 -206.5 32.5t-193.5 97t-161 154t-110.5 212.5t-40.5 262q0 164 57.5 306t157.5 241t238.5 155t297.5 56q77 0 147.5 -11.5t146.5 -41t140.5 -76t125 -121t104.5 -170.5l-320 -78q-45 89 -105.5 145t-118 76.5
t-120.5 20.5q-181 0 -302.5 -142t-121.5 -360q0 -112 34.5 -208t92.5 -159.5t132.5 -99t154.5 -35.5q46 0 91.5 9.5t94.5 35.5t87 66t66 106t36 150h-451v256h758v-844h-307zM424 1565l276 379h246l277 -379h-242l-158 231l-157 -231h-242z" />
    <glyph glyph-name="gcircumflex" unicode="&#x11d;" horiz-adv-x="1222" 
d="M102 -139l287 59q44 -186 219 -186q51 0 91 19.5t62.5 48t37 65t19.5 65.5t5 54v127q-50 -50 -127 -81.5t-151 -31.5q-86 0 -157.5 20.5t-120 53.5t-86.5 78t-59.5 90.5t-35.5 95t-18.5 86.5t-4.5 70t4.5 72t18.5 90.5t36 99t60 95.5t86.5 82.5t120 56.5t156.5 22
q81 0 169 -38t126 -97v110h270v-1010q0 -95 -33 -178t-94.5 -145.5t-158 -98.5t-216.5 -36q-90 0 -168.5 21.5t-134 56t-98.5 80.5t-68 91.5t-37 92.5zM594 215q29 0 58.5 9t60.5 31t55 54.5t39.5 83.5t15.5 113t-15.5 113t-39.5 83.5t-55 54.5t-60.5 31t-58.5 9
q-58 0 -104 -25t-71.5 -60.5t-42 -79t-21.5 -74t-5 -52.5q0 -32 5 -65.5t21 -75.5t41.5 -74t71.5 -54t105 -22zM182 1108l277 379h246l276 -379h-242l-157 231l-158 -231h-242z" />
    <glyph glyph-name="Gbreve" unicode="&#x11e;" horiz-adv-x="1599" 
d="M1188 0v137q-70 -88 -175.5 -130t-228.5 -42q-104 0 -206.5 32.5t-193.5 97t-161 154t-110.5 212.5t-40.5 262q0 164 57.5 306t157.5 241t238.5 155t297.5 56q77 0 147.5 -11.5t146.5 -41t140.5 -76t125 -121t104.5 -170.5l-320 -78q-45 89 -105.5 145t-118 76.5
t-120.5 20.5q-181 0 -302.5 -142t-121.5 -360q0 -112 34.5 -208t92.5 -159.5t132.5 -99t154.5 -35.5q46 0 91.5 9.5t94.5 35.5t87 66t66 106t36 150h-451v256h758v-844h-307zM483 1905v39h205v-39q0 -81 33.5 -131t101.5 -50q69 0 103.5 50.5t34.5 130.5v39h204v-39
q0 -164 -95 -262.5t-247 -98.5t-246 98.5t-94 262.5z" />
    <glyph glyph-name="gbreve" unicode="&#x11f;" horiz-adv-x="1222" 
d="M102 -139l287 59q44 -186 219 -186q51 0 91 19.5t62.5 48t37 65t19.5 65.5t5 54v127q-50 -50 -127 -81.5t-151 -31.5q-86 0 -157.5 20.5t-120 53.5t-86.5 78t-59.5 90.5t-35.5 95t-18.5 86.5t-4.5 70t4.5 72t18.5 90.5t36 99t60 95.5t86.5 82.5t120 56.5t156.5 22
q81 0 169 -38t126 -97v110h270v-1010q0 -95 -33 -178t-94.5 -145.5t-158 -98.5t-216.5 -36q-90 0 -168.5 21.5t-134 56t-98.5 80.5t-68 91.5t-37 92.5zM594 215q29 0 58.5 9t60.5 31t55 54.5t39.5 83.5t15.5 113t-15.5 113t-39.5 83.5t-55 54.5t-60.5 31t-58.5 9
q-58 0 -104 -25t-71.5 -60.5t-42 -79t-21.5 -74t-5 -52.5q0 -32 5 -65.5t21 -75.5t41.5 -74t71.5 -54t105 -22zM242 1448v39h204v-39q0 -80 34 -130t102 -50q69 0 103 50t34 130v39h205v-39q0 -164 -95 -262.5t-247 -98.5t-246 98.5t-94 262.5z" />
    <glyph glyph-name="Gdotaccent" unicode="&#x120;" horiz-adv-x="1599" 
d="M1188 0v137q-70 -88 -175.5 -130t-228.5 -42q-104 0 -206.5 32.5t-193.5 97t-161 154t-110.5 212.5t-40.5 262q0 164 57.5 306t157.5 241t238.5 155t297.5 56q77 0 147.5 -11.5t146.5 -41t140.5 -76t125 -121t104.5 -170.5l-320 -78q-45 89 -105.5 145t-118 76.5
t-120.5 20.5q-181 0 -302.5 -142t-121.5 -360q0 -112 34.5 -208t92.5 -159.5t132.5 -99t154.5 -35.5q46 0 91.5 9.5t94.5 35.5t87 66t66 106t36 150h-451v256h758v-844h-307zM680 1612v297h287v-297h-287z" />
    <glyph glyph-name="gdotaccent" unicode="&#x121;" horiz-adv-x="1222" 
d="M102 -139l287 59q44 -186 219 -186q51 0 91 19.5t62.5 48t37 65t19.5 65.5t5 54v127q-50 -50 -127 -81.5t-151 -31.5q-86 0 -157.5 20.5t-120 53.5t-86.5 78t-59.5 90.5t-35.5 95t-18.5 86.5t-4.5 70t4.5 72t18.5 90.5t36 99t60 95.5t86.5 82.5t120 56.5t156.5 22
q81 0 169 -38t126 -97v110h270v-1010q0 -95 -33 -178t-94.5 -145.5t-158 -98.5t-216.5 -36q-90 0 -168.5 21.5t-134 56t-98.5 80.5t-68 91.5t-37 92.5zM594 215q29 0 58.5 9t60.5 31t55 54.5t39.5 83.5t15.5 113t-15.5 113t-39.5 83.5t-55 54.5t-60.5 31t-58.5 9
q-58 0 -104 -25t-71.5 -60.5t-42 -79t-21.5 -74t-5 -52.5q0 -32 5 -65.5t21 -75.5t41.5 -74t71.5 -54t105 -22zM438 1155v297h287v-297h-287z" />
    <glyph glyph-name="uni0122" unicode="&#x122;" horiz-adv-x="1599" 
d="M1188 0v137q-70 -88 -175.5 -130t-228.5 -42q-104 0 -206.5 32.5t-193.5 97t-161 154t-110.5 212.5t-40.5 262q0 164 57.5 306t157.5 241t238.5 155t297.5 56q77 0 147.5 -11.5t146.5 -41t140.5 -76t125 -121t104.5 -170.5l-320 -78q-45 89 -105.5 145t-118 76.5
t-120.5 20.5q-181 0 -302.5 -142t-121.5 -360q0 -112 34.5 -208t92.5 -159.5t132.5 -99t154.5 -35.5q46 0 91.5 9.5t94.5 35.5t87 66t66 106t36 150h-451v256h758v-844h-307zM602 -481l70 379h256l-172 -379h-154z" />
    <glyph glyph-name="uni0123" unicode="&#x123;" horiz-adv-x="1222" 
d="M102 -139l287 59q44 -186 219 -186q51 0 91 19.5t62.5 48t37 65t19.5 65.5t5 54v127q-50 -50 -127 -81.5t-151 -31.5q-86 0 -157.5 20.5t-120 53.5t-86.5 78t-59.5 90.5t-35.5 95t-18.5 86.5t-4.5 70t4.5 72t18.5 90.5t36 99t60 95.5t86.5 82.5t120 56.5t156.5 22
q81 0 169 -38t126 -97v110h270v-1010q0 -95 -33 -178t-94.5 -145.5t-158 -98.5t-216.5 -36q-90 0 -168.5 21.5t-134 56t-98.5 80.5t-68 91.5t-37 92.5zM594 215q29 0 58.5 9t60.5 31t55 54.5t39.5 83.5t15.5 113t-15.5 113t-39.5 83.5t-55 54.5t-60.5 31t-58.5 9
q-58 0 -104 -25t-71.5 -60.5t-42 -79t-21.5 -74t-5 -52.5q0 -32 5 -65.5t21 -75.5t41.5 -74t71.5 -54t105 -22zM492 1102l172 379h153l-69 -379h-256z" />
    <glyph glyph-name="Hcircumflex" unicode="&#x124;" horiz-adv-x="1570" 
d="M143 0v1446h328v-578h629v578h327v-1446h-327v612h-629v-612h-328zM385 1565l277 379h245l277 -379h-242l-158 231l-157 -231h-242z" />
    <glyph glyph-name="hcircumflex" unicode="&#x125;" horiz-adv-x="1150" 
d="M113 0v1446h278v-578q8 19 27.5 40.5t53.5 46.5t92.5 41t129.5 16q202 0 293 -148q62 -100 62 -233v-631h-287v629q0 57 -27 100q-39 68 -129 68q-74 0 -127 -43q-82 -64 -82 -203v-551h-284zM-145 1565l276 379h246l276 -379h-241l-158 231l-158 -231h-241z" />
    <glyph glyph-name="Hbar" unicode="&#x126;" horiz-adv-x="1628" 
d="M33 1063v162h139v221h328v-221h628v221h328v-221h139v-162h-139v-1063h-328v612h-628v-612h-328v1063h-139zM500 868h628v195h-628v-195z" />
    <glyph glyph-name="hbar" unicode="&#x127;" horiz-adv-x="1150" 
d="M-4 1135v161h117v150h278v-150h252v-161h-252v-267q8 19 27.5 40.5t53.5 46.5t92.5 41t129.5 16q202 0 293 -148q62 -100 62 -233v-631h-287v629q0 57 -27 100q-39 68 -129 68q-74 0 -127 -43q-82 -64 -82 -203v-551h-284v1135h-117z" />
    <glyph glyph-name="Itilde" unicode="&#x128;" horiz-adv-x="614" 
d="M143 0v1446h328v-1446h-328zM-41 1638v220q32 32 94.5 55.5t110.5 23.5q16 0 32 -1.5t26 -2.5t26 -5t21.5 -5.5t23.5 -7t22 -6.5q13 -4 43.5 -16t56 -18.5t52.5 -6.5q57 0 106 25.5t82 66.5v-219q-32 -32 -94 -56t-110 -24q-16 0 -32 1.5t-27 3t-25.5 5t-22 5.5t-23.5 7
t-22 7q-13 4 -43.5 16t-56 18.5t-52.5 6.5q-57 0 -106 -26t-82 -67z" />
    <glyph glyph-name="itilde" unicode="&#x129;" horiz-adv-x="512" 
d="M113 0v987h286v-987h-286zM-92 1180v219q32 32 94.5 56t110.5 24q20 0 36.5 -1.5t34 -5t25.5 -5.5t29 -9t26 -8q13 -4 43.5 -16t56 -18.5t52.5 -6.5q57 0 106 25.5t82 66.5v-219q-32 -32 -94.5 -56t-110.5 -24q-20 0 -36.5 1.5t-34 5t-25.5 5.5t-29 9t-26 8
q-13 4 -43.5 16t-56 18.5t-52.5 6.5q-57 0 -106 -25.5t-82 -66.5z" />
    <glyph glyph-name="Imacron" unicode="&#x12a;" horiz-adv-x="614" 
d="M143 0v1446h328v-1446h-328zM-41 1698v207h696v-207h-696z" />
    <glyph glyph-name="imacron" unicode="&#x12b;" horiz-adv-x="512" 
d="M113 0v987h286v-987h-286zM-92 1239v207h696v-207h-696z" />
    <glyph glyph-name="Ibreve" unicode="&#x12c;" horiz-adv-x="614" 
d="M143 0v1446h328v-1446h-328zM-33 1905v39h205v-39q0 -81 33.5 -131t101.5 -50t102.5 50.5t34.5 130.5v39h205v-39q0 -164 -95 -262.5t-247 -98.5t-246 98.5t-94 262.5z" />
    <glyph glyph-name="ibreve" unicode="&#x12d;" horiz-adv-x="512" 
d="M113 0v987h286v-987h-286zM-84 1446v39h205v-39q0 -80 33.5 -130t101.5 -50q69 0 103 50t34 130v39h205v-39q0 -164 -95 -262.5t-247 -98.5t-246 98.5t-94 262.5z" />
    <glyph glyph-name="Iogonek" unicode="&#x12e;" horiz-adv-x="614" 
d="M143 0v1446h328v-1446h-8q-66 -3 -112 -56.5t-46 -129.5q0 -78 48.5 -133.5t117.5 -55.5h94v-131h-94q-132 0 -224.5 94t-92.5 226q0 105 59 186h-70z" />
    <glyph glyph-name="iogonek" unicode="&#x12f;" horiz-adv-x="512" 
d="M113 0v987h286v-987h-8q-66 -3 -112 -56.5t-46 -129.5q0 -78 48.5 -133.5t117.5 -55.5h95v-131h-95q-132 0 -224.5 94t-92.5 226q0 105 59 186h-28zM113 1151v295h286v-295h-286z" />
    <glyph glyph-name="Idotaccent" unicode="&#x130;" horiz-adv-x="614" 
d="M143 0v1446h328v-1446h-328zM164 1612v297h287v-297h-287z" />
    <glyph glyph-name="dotlessi" unicode="&#x131;" horiz-adv-x="512" 
d="M113 0v987h286v-987h-286z" />
    <glyph glyph-name="IJ" unicode="&#x132;" horiz-adv-x="1863" 
d="M143 0v1446h328v-1446h-328zM635 479l319 68q0 -91 19 -156.5t53 -101.5t74 -52t88 -16q99 0 157 53.5t58 153.5v1018h328v-1018q0 -224 -145.5 -343.5t-393.5 -119.5q-114 0 -212 30.5t-176.5 91.5t-123.5 161.5t-45 230.5z" />
    <glyph glyph-name="ij" unicode="&#x133;" horiz-adv-x="1036" 
d="M113 0v987h286v-987h-286zM113 1151v295h286v-295h-286zM410 -463v230q61 -9 75 -9q92 0 122 29t30 84v1116h287v-1159q0 -72 -14.5 -123t-50.5 -93.5t-104 -63.5t-169 -21t-176 10zM637 1151v295h287v-295h-287z" />
    <glyph glyph-name="Jcircumflex" unicode="&#x134;" horiz-adv-x="1251" 
d="M23 479l319 68q0 -91 19 -156.5t52.5 -101.5t73.5 -52t88 -16q99 0 157.5 53.5t58.5 153.5v1018h327v-1018q0 -224 -145 -343.5t-393 -119.5q-114 0 -212 30.5t-176.5 91.5t-123.5 161.5t-45 230.5zM555 1565l276 379h246l277 -379h-242l-158 231l-157 -231h-242z" />
    <glyph glyph-name="jcircumflex" unicode="&#x135;" horiz-adv-x="520" 
d="M-94 1106l221 379h262l221 -379h-225l-127 231l-127 -231h-225zM-106 -463v230q61 -9 75 -9q92 0 122 29t30 84v1116h287v-1159q0 -72 -14.5 -123t-50.5 -93.5t-104 -63.5t-169 -21t-176 10z" />
    <glyph glyph-name="uni0136" unicode="&#x136;" horiz-adv-x="1476" 
d="M143 0v1446h328v-580l578 580h399l-694 -676l782 -770h-420l-645 651v-651h-328zM575 -481l70 379h256l-172 -379h-154z" />
    <glyph glyph-name="uni0137" unicode="&#x137;" horiz-adv-x="1150" 
d="M113 0v1446h286v-817l369 358h365l-498 -442l563 -545h-367l-432 416v-416h-286zM373 -481l69 379h256l-172 -379h-153z" />
    <glyph glyph-name="kgreenlandic" unicode="&#x138;" horiz-adv-x="1148" 
d="M113 0v987h286v-375l369 375h365l-498 -459l563 -528h-367l-432 399v-399h-286z" />
    <glyph glyph-name="Lacute" unicode="&#x139;" horiz-adv-x="1214" 
d="M143 0v1446h328v-1190h719v-256h-1047zM199 1565l168 379h272l-221 -379h-219z" />
    <glyph glyph-name="lacute" unicode="&#x13a;" horiz-adv-x="512" 
d="M113 0v1446h286v-1446h-286zM137 1565l168 379h273l-222 -379h-219z" />
    <glyph glyph-name="uni013B" unicode="&#x13b;" horiz-adv-x="1214" 
d="M143 0v1446h328v-1190h719v-256h-1047zM483 -481l70 379h256l-172 -379h-154z" />
    <glyph glyph-name="uni013C" unicode="&#x13c;" horiz-adv-x="512" 
d="M113 0v1446h286v-1446h-286zM78 -481l69 379h256l-172 -379h-153z" />
    <glyph glyph-name="Lcaron" unicode="&#x13d;" horiz-adv-x="1214" 
d="M143 0v1446h328v-1190h719v-256h-1047zM563 1067l70 379h256l-172 -379h-154z" />
    <glyph glyph-name="lcaron" unicode="&#x13e;" horiz-adv-x="552" 
d="M113 0v1446h286v-1446h-286zM492 1067l69 379h256l-172 -379h-153z" />
    <glyph glyph-name="Ldot" unicode="&#x13f;" horiz-adv-x="1214" 
d="M143 0v1446h328v-1190h719v-256h-1047zM664 575v297h286v-297h-286z" />
    <glyph glyph-name="ldot" unicode="&#x140;" horiz-adv-x="813" 
d="M113 0v1446h286v-1446h-286zM522 575v297h287v-297h-287z" />
    <glyph glyph-name="Lslash" unicode="&#x141;" horiz-adv-x="1118" 
d="M178 0v446l-139 -96v174l139 97v825h328v-598l391 272v-174l-391 -272v-418h565v-256h-893z" />
    <glyph glyph-name="lslash" unicode="&#x142;" horiz-adv-x="675" 
d="M195 0v551l-140 -100v161l140 101v733h286v-524l142 102v-162l-142 -102v-760h-286z" />
    <glyph glyph-name="Nacute" unicode="&#x143;" horiz-adv-x="1640" 
d="M143 0v1446h432l635 -1131v1131h287v-1446h-434l-633 1124v-1124h-287zM711 1565l168 379h272l-221 -379h-219z" />
    <glyph glyph-name="nacute" unicode="&#x144;" horiz-adv-x="1142" 
d="M113 0v987h278v-119q8 19 27 40.5t52.5 46.5t90.5 41t127 16q200 0 291 -148q61 -102 61 -233v-631h-286v629q0 50 -27 100q-39 68 -125 68q-72 0 -125 -43q-78 -61 -78 -203v-551h-286zM459 1106l168 379h272l-221 -379h-219z" />
    <glyph glyph-name="uni0145" unicode="&#x145;" horiz-adv-x="1640" 
d="M143 0v1446h432l635 -1131v1131h287v-1446h-434l-633 1124v-1124h-287zM637 -481l70 379h256l-172 -379h-154z" />
    <glyph glyph-name="uni0146" unicode="&#x146;" horiz-adv-x="1142" 
d="M113 0v987h278v-119q8 19 27 40.5t52.5 46.5t90.5 41t127 16q200 0 291 -148q61 -102 61 -233v-631h-286v629q0 50 -27 100q-39 68 -125 68q-72 0 -125 -43q-78 -61 -78 -203v-551h-286zM397 -481l70 379h256l-172 -379h-154z" />
    <glyph glyph-name="Ncaron" unicode="&#x147;" horiz-adv-x="1640" 
d="M143 0v1446h432l635 -1131v1131h287v-1446h-434l-633 1124v-1124h-287zM696 1565l-276 379h242l157 -232l158 232h242l-277 -379h-246z" />
    <glyph glyph-name="ncaron" unicode="&#x148;" horiz-adv-x="1142" 
d="M113 0v987h278v-119q8 19 27 40.5t52.5 46.5t90.5 41t127 16q200 0 291 -148q61 -102 61 -233v-631h-286v629q0 50 -27 100q-39 68 -125 68q-72 0 -125 -43q-78 -61 -78 -203v-551h-286zM455 1106l-277 379h242l158 -232l157 232h242l-277 -379h-245z" />
    <glyph glyph-name="napostrophe" unicode="&#x149;" horiz-adv-x="1142" 
d="M113 0v987h278v-119q8 19 27 40.5t52.5 46.5t90.5 41t127 16q200 0 291 -148q61 -102 61 -233v-631h-286v629q0 50 -27 100q-39 68 -125 68q-72 0 -125 -43q-78 -61 -78 -203v-551h-286zM92 1067l70 379h256l-172 -379h-154z" />
    <glyph glyph-name="Eng" unicode="&#x14a;" horiz-adv-x="1640" 
d="M983 -463v230q61 -9 76 -9q92 0 121.5 29t29.5 84v129h-147l-633 1124v-1124h-287v1446h432l635 -1131v1131h287v-1618q0 -72 -14.5 -123t-50.5 -93.5t-104 -63.5t-169 -21t-176 10z" />
    <glyph glyph-name="eng" unicode="&#x14b;" horiz-adv-x="1142" 
d="M526 -463v230q61 -9 76 -9q92 0 122 29t30 84v758q0 50 -27 100q-39 68 -125 68q-72 0 -125 -43q-78 -61 -78 -203v-551h-286v987h278v-119q8 19 27 40.5t52.5 46.5t90.5 41t127 16q200 0 291 -148q61 -102 61 -233v-803q0 -72 -14.5 -123t-50.5 -93.5t-104 -63.5
t-169 -21t-176 10z" />
    <glyph glyph-name="Omacron" unicode="&#x14c;" horiz-adv-x="1656" 
d="M831 221q107 0 190.5 42t133.5 113.5t76 158.5t26 184t-26 185t-76 161t-134 116.5t-190 43.5q-109 0 -194 -43.5t-135.5 -116.5t-76.5 -161t-26 -185q0 -77 15.5 -148t50 -135t84 -111.5t122 -75.5t160.5 -28zM831 -35q-154 0 -281.5 42t-214.5 114t-147.5 169t-88 205
t-27.5 224t27.5 224.5t88 206.5t147.5 171.5t215 116.5t281 43q152 0 278.5 -43t213 -116.5t147 -171.5t88 -206.5t27.5 -224.5t-27.5 -224t-88 -205t-147 -169t-213 -114t-278.5 -42zM483 1698v207h697v-207h-697z" />
    <glyph glyph-name="omacron" unicode="&#x14d;" horiz-adv-x="1153" 
d="M578 190q56 0 101 27.5t71.5 72.5t40.5 97t14 105q0 74 -23 141t-76.5 115.5t-127.5 48.5t-128 -48.5t-78 -116t-24 -140.5q0 -72 24 -139t78 -115t128 -48zM578 -25q-120 0 -220 45t-163.5 119t-98.5 165.5t-35 187.5q0 97 35 189t98.5 166t163.5 119.5t220 45.5
t219.5 -45.5t162.5 -119.5t97.5 -166t34.5 -189q0 -96 -34.5 -187.5t-97.5 -165.5t-162.5 -119t-219.5 -45zM219 1239v207h696v-207h-696z" />
    <glyph glyph-name="Obreve" unicode="&#x14e;" horiz-adv-x="1656" 
d="M831 221q107 0 190.5 42t133.5 113.5t76 158.5t26 184t-26 185t-76 161t-134 116.5t-190 43.5q-109 0 -194 -43.5t-135.5 -116.5t-76.5 -161t-26 -185q0 -77 15.5 -148t50 -135t84 -111.5t122 -75.5t160.5 -28zM831 -35q-154 0 -281.5 42t-214.5 114t-147.5 169t-88 205
t-27.5 224t27.5 224.5t88 206.5t147.5 171.5t215 116.5t281 43q152 0 278.5 -43t213 -116.5t147 -171.5t88 -206.5t27.5 -224.5t-27.5 -224t-88 -205t-147 -169t-213 -114t-278.5 -42zM492 1905v39h204v-39q0 -81 33.5 -131t101.5 -50q69 0 103.5 50.5t34.5 130.5v39h205
v-39q0 -164 -95.5 -262.5t-247.5 -98.5t-245.5 98t-93.5 263z" />
    <glyph glyph-name="obreve" unicode="&#x14f;" horiz-adv-x="1153" 
d="M578 190q56 0 101 27.5t71.5 72.5t40.5 97t14 105q0 74 -23 141t-76.5 115.5t-127.5 48.5t-128 -48.5t-78 -116t-24 -140.5q0 -72 24 -139t78 -115t128 -48zM578 -25q-120 0 -220 45t-163.5 119t-98.5 165.5t-35 187.5q0 97 35 189t98.5 166t163.5 119.5t220 45.5
t219.5 -45.5t162.5 -119.5t97.5 -166t34.5 -189q0 -96 -34.5 -187.5t-97.5 -165.5t-162.5 -119t-219.5 -45zM227 1446v39h205v-39q0 -80 33.5 -130t101.5 -50q69 0 103.5 50t34.5 130v39h204v-39q0 -164 -95 -262.5t-247 -98.5t-246 98.5t-94 262.5z" />
    <glyph glyph-name="Ohungarumlaut" unicode="&#x150;" horiz-adv-x="1656" 
d="M831 221q107 0 190.5 42t133.5 113.5t76 158.5t26 184t-26 185t-76 161t-134 116.5t-190 43.5q-109 0 -194 -43.5t-135.5 -116.5t-76.5 -161t-26 -185q0 -77 15.5 -148t50 -135t84 -111.5t122 -75.5t160.5 -28zM831 -35q-154 0 -281.5 42t-214.5 114t-147.5 169t-88 205
t-27.5 224t27.5 224.5t88 206.5t147.5 171.5t215 116.5t281 43q152 0 278.5 -43t213 -116.5t147 -171.5t88 -206.5t27.5 -224.5t-27.5 -224t-88 -205t-147 -169t-213 -114t-278.5 -42zM565 1565l168 379h273l-222 -379h-219zM881 1565l168 379h272l-221 -379h-219z" />
    <glyph glyph-name="ohungarumlaut" unicode="&#x151;" horiz-adv-x="1153" 
d="M578 190q56 0 101 27.5t71.5 72.5t40.5 97t14 105q0 74 -23 141t-76.5 115.5t-127.5 48.5t-128 -48.5t-78 -116t-24 -140.5q0 -72 24 -139t78 -115t128 -48zM578 -25q-120 0 -220 45t-163.5 119t-98.5 165.5t-35 187.5q0 97 35 189t98.5 166t163.5 119.5t220 45.5
t219.5 -45.5t162.5 -119.5t97.5 -166t34.5 -189q0 -96 -34.5 -187.5t-97.5 -165.5t-162.5 -119t-219.5 -45zM276 1106l168 379h273l-221 -379h-220zM592 1106l168 379h272l-221 -379h-219z" />
    <glyph glyph-name="OE" unicode="&#x152;" horiz-adv-x="2062" 
d="M1333 256h637v-256h-1079q-161 0 -296.5 38.5t-231 105.5t-162.5 158t-99 196.5t-32 220.5t32 220.5t99 198t162.5 161t231 108t296.5 39.5h1065v-256h-623v-322h594v-256h-594v-356zM891 256h115v934h-115q-95 0 -175.5 -25t-138.5 -69t-99 -103.5t-61 -128.5t-20 -145
q0 -95 32 -178t92.5 -147t156 -101t213.5 -37z" />
    <glyph glyph-name="oe" unicode="&#x153;" horiz-adv-x="1857" 
d="M1511 350l256 -65q-8 -48 -45 -102t-94 -100.5t-138 -77t-165 -30.5q-243 0 -381 148q-145 -148 -366 -148q-120 0 -220 45t-163.5 119t-98.5 165.5t-35 187.5q0 97 35 189t98.5 166t163.5 119.5t220 45.5q216 0 366 -150q140 150 359 150q101 0 191 -37t156.5 -102.5
t105 -160.5t38.5 -206q0 -60 -4 -96h-696q0 -33 5 -62.5t19 -61.5t36 -54.5t60.5 -37t88.5 -14.5q164 0 208 170zM578 190q56 0 101 27.5t71.5 72.5t40.5 97t14 105q0 74 -23 141t-76.5 115.5t-127.5 48.5t-128 -48.5t-78 -116t-24 -140.5q0 -72 24 -139t78 -115t128 -48z
M1094 616h417q0 76 -55 133.5t-153 57.5q-94 0 -151.5 -56t-57.5 -135z" />
    <glyph glyph-name="Racute" unicode="&#x154;" horiz-adv-x="1458" 
d="M143 0v1446h691q98 0 184.5 -22.5t156.5 -67.5t111 -119t41 -170q0 -69 -16 -126t-40.5 -93t-56 -62.5t-59 -39t-53.5 -17.5q111 -30 168 -92.5t57 -183.5v-226q0 -138 84 -227h-348q-55 57 -55 188v201q0 88 -40 142.5t-120 54.5h-387v-586h-318zM461 842h342
q95 0 151 45t56 139q0 82 -56 123t-149 41h-344v-348zM571 1565l168 379h273l-221 -379h-220z" />
    <glyph glyph-name="racute" unicode="&#x155;" horiz-adv-x="751" 
d="M113 0v987h278v-121q38 67 107 106.5t159 39.5q50 0 70 -2v-252q-20 4 -82 4q-139 0 -203 -90q-43 -59 -43 -158v-514h-286zM272 1106l168 379h273l-221 -379h-220z" />
    <glyph glyph-name="uni0156" unicode="&#x156;" horiz-adv-x="1458" 
d="M143 0v1446h691q98 0 184.5 -22.5t156.5 -67.5t111 -119t41 -170q0 -69 -16 -126t-40.5 -93t-56 -62.5t-59 -39t-53.5 -17.5q111 -30 168 -92.5t57 -183.5v-226q0 -138 84 -227h-348q-55 57 -55 188v201q0 88 -40 142.5t-120 54.5h-387v-586h-318zM461 842h342
q95 0 151 45t56 139q0 82 -56 123t-149 41h-344v-348zM539 -481l69 379h256l-172 -379h-153z" />
    <glyph glyph-name="uni0157" unicode="&#x157;" horiz-adv-x="751" 
d="M113 0v987h278v-121q38 67 107 106.5t159 39.5q50 0 70 -2v-252q-20 4 -82 4q-139 0 -203 -90q-43 -59 -43 -158v-514h-286zM78 -481l69 379h256l-172 -379h-153z" />
    <glyph glyph-name="Rcaron" unicode="&#x158;" horiz-adv-x="1458" 
d="M143 0v1446h691q98 0 184.5 -22.5t156.5 -67.5t111 -119t41 -170q0 -69 -16 -126t-40.5 -93t-56 -62.5t-59 -39t-53.5 -17.5q111 -30 168 -92.5t57 -183.5v-226q0 -138 84 -227h-348q-55 57 -55 188v201q0 88 -40 142.5t-120 54.5h-387v-586h-318zM461 842h342
q95 0 151 45t56 139q0 82 -56 123t-149 41h-344v-348zM557 1565l-276 379h241l158 -232l158 232h241l-276 -379h-246z" />
    <glyph glyph-name="rcaron" unicode="&#x159;" horiz-adv-x="751" 
d="M113 0v987h278v-121q38 67 107 106.5t159 39.5q50 0 70 -2v-252q-20 4 -82 4q-139 0 -203 -90q-43 -59 -43 -158v-514h-286zM268 1106l-276 379h241l158 -232l158 232h242l-277 -379h-246z" />
    <glyph glyph-name="Sacute" unicode="&#x15a;" horiz-adv-x="1400" 
d="M47 457l326 71q0 -151 91.5 -229t248.5 -78q128 0 210.5 58.5t82.5 134.5q0 74 -51.5 111t-161.5 61l-228 47q-64 13 -99 21t-92.5 26t-90 37t-73 51t-61.5 70t-36 93.5t-15 123.5q0 99 50 181.5t134 135t190 81t222 28.5q124 0 223 -26t163.5 -67.5t111 -100.5
t70 -116.5t36.5 -123.5l-313 -70q-15 120 -92 184t-199 64q-123 0 -198.5 -44t-75.5 -126q0 -30 12.5 -53.5t29.5 -38t45 -26.5t47 -17t48 -11l287 -61q41 -9 71.5 -16.5t80 -24.5t86.5 -36.5t78.5 -51.5t68.5 -69.5t45 -90.5t18 -115q0 -100 -42 -187t-121 -152
t-200.5 -102.5t-271.5 -37.5q-258 0 -427.5 120t-227.5 372zM586 1565l168 379h272l-221 -379h-219z" />
    <glyph glyph-name="sacute" unicode="&#x15b;" horiz-adv-x="1048" 
d="M51 299l275 61q20 -92 63.5 -136t126.5 -44q80 0 131 30t51 81t-36.5 71.5t-139.5 36.5l-53 9q-92 15 -156 34t-120.5 53.5t-84.5 90t-28 133.5q0 33 13 69t47 77t83.5 73t131 53t182.5 21q143 0 261 -77t156 -214l-247 -64q-22 82 -63 116t-124 34q-71 0 -118.5 -22
t-47.5 -64q0 -19 7 -34t22 -25.5t29.5 -18t37.5 -12.5t38 -8t39.5 -6t33.5 -5l53 -8q60 -11 102.5 -21.5t97.5 -33t89.5 -51.5t59 -76.5t24.5 -108.5q0 -161 -130.5 -249.5t-340.5 -88.5q-180 0 -306.5 87t-158.5 237zM399 1106l168 379h273l-222 -379h-219z" />
    <glyph glyph-name="Scircumflex" unicode="&#x15c;" horiz-adv-x="1400" 
d="M47 457l326 71q0 -151 91.5 -229t248.5 -78q128 0 210.5 58.5t82.5 134.5q0 74 -51.5 111t-161.5 61l-228 47q-64 13 -99 21t-92.5 26t-90 37t-73 51t-61.5 70t-36 93.5t-15 123.5q0 99 50 181.5t134 135t190 81t222 28.5q124 0 223 -26t163.5 -67.5t111 -100.5
t70 -116.5t36.5 -123.5l-313 -70q-15 120 -92 184t-199 64q-123 0 -198.5 -44t-75.5 -126q0 -30 12.5 -53.5t29.5 -38t45 -26.5t47 -17t48 -11l287 -61q41 -9 71.5 -16.5t80 -24.5t86.5 -36.5t78.5 -51.5t68.5 -69.5t45 -90.5t18 -115q0 -100 -42 -187t-121 -152
t-200.5 -102.5t-271.5 -37.5q-258 0 -427.5 120t-227.5 372zM295 1565l276 379h246l277 -379h-242l-158 231l-157 -231h-242z" />
    <glyph glyph-name="scircumflex" unicode="&#x15d;" horiz-adv-x="1048" 
d="M51 299l275 61q20 -92 63.5 -136t126.5 -44q80 0 131 30t51 81t-36.5 71.5t-139.5 36.5l-53 9q-92 15 -156 34t-120.5 53.5t-84.5 90t-28 133.5q0 33 13 69t47 77t83.5 73t131 53t182.5 21q143 0 261 -77t156 -214l-247 -64q-22 82 -63 116t-124 34q-71 0 -118.5 -22
t-47.5 -64q0 -19 7 -34t22 -25.5t29.5 -18t37.5 -12.5t38 -8t39.5 -6t33.5 -5l53 -8q60 -11 102.5 -21.5t97.5 -33t89.5 -51.5t59 -76.5t24.5 -108.5q0 -161 -130.5 -249.5t-340.5 -88.5q-180 0 -306.5 87t-158.5 237zM119 1106l276 379h246l277 -379h-242l-158 231
l-158 -231h-241z" />
    <glyph glyph-name="Scedilla" unicode="&#x15e;" horiz-adv-x="1400" 
d="M625 -506v131h94q38 0 63 26.5t25 67.5q0 29 -25.5 53.5t-62.5 24.5h-94v170q-474 37 -578 490l326 71q0 -151 91.5 -229t248.5 -78q128 0 210.5 58.5t82.5 134.5q0 74 -51.5 111t-161.5 61l-228 47q-64 13 -99 21t-92.5 26t-90 37t-73 51t-61.5 70t-36 93.5t-15 123.5
q0 99 50 181.5t134 135t190 81t222 28.5q124 0 223 -26t163.5 -67.5t111 -100.5t70 -116.5t36.5 -123.5l-313 -70q-15 120 -92 184t-199 64q-123 0 -198.5 -44t-75.5 -126q0 -30 12.5 -53.5t29.5 -38t45 -26.5t47 -17t48 -11l287 -61q41 -9 71.5 -16.5t80 -24.5t86.5 -36.5
t78.5 -51.5t68.5 -69.5t45 -90.5t18 -115q0 -197 -153 -330.5t-426 -146.5v-39q86 -6 143 -62.5t57 -146.5q0 -103 -63.5 -164t-157.5 -61h-112z" />
    <glyph glyph-name="scedilla" unicode="&#x15f;" horiz-adv-x="1048" 
d="M451 -506v131h94q38 0 63 26.5t25 67.5q0 29 -25.5 53.5t-62.5 24.5h-94v183q-157 15 -264 99.5t-136 219.5l275 61q20 -92 63.5 -136t126.5 -44q80 0 131 30t51 81t-36.5 71.5t-139.5 36.5l-53 9q-92 15 -156 34t-120.5 53.5t-84.5 90t-28 133.5q0 33 13 69t47 77
t83.5 73t131 53t182.5 21q143 0 261 -77t156 -214l-247 -64q-22 82 -63 116t-124 34q-71 0 -118.5 -22t-47.5 -64q0 -19 7 -34t22 -25.5t29.5 -18t37.5 -12.5t38 -8t39.5 -6t33.5 -5l53 -8q60 -11 102.5 -21.5t97.5 -33t89.5 -51.5t59 -76.5t24.5 -108.5q0 -148 -110 -235
t-293 -101v-49q86 -6 143 -62.5t57 -146.5q0 -103 -63.5 -164t-157.5 -61h-112z" />
    <glyph glyph-name="Scaron" unicode="&#x160;" horiz-adv-x="1400" 
d="M47 457l326 71q0 -151 91.5 -229t248.5 -78q128 0 210.5 58.5t82.5 134.5q0 74 -51.5 111t-161.5 61l-228 47q-64 13 -99 21t-92.5 26t-90 37t-73 51t-61.5 70t-36 93.5t-15 123.5q0 99 50 181.5t134 135t190 81t222 28.5q124 0 223 -26t163.5 -67.5t111 -100.5
t70 -116.5t36.5 -123.5l-313 -70q-15 120 -92 184t-199 64q-123 0 -198.5 -44t-75.5 -126q0 -30 12.5 -53.5t29.5 -38t45 -26.5t47 -17t48 -11l287 -61q41 -9 71.5 -16.5t80 -24.5t86.5 -36.5t78.5 -51.5t68.5 -69.5t45 -90.5t18 -115q0 -100 -42 -187t-121 -152
t-200.5 -102.5t-271.5 -37.5q-258 0 -427.5 120t-227.5 372zM571 1565l-276 379h242l157 -232l158 232h242l-277 -379h-246z" />
    <glyph glyph-name="scaron" unicode="&#x161;" horiz-adv-x="1048" 
d="M51 299l275 61q20 -92 63.5 -136t126.5 -44q80 0 131 30t51 81t-36.5 71.5t-139.5 36.5l-53 9q-92 15 -156 34t-120.5 53.5t-84.5 90t-28 133.5q0 33 13 69t47 77t83.5 73t131 53t182.5 21q143 0 261 -77t156 -214l-247 -64q-22 82 -63 116t-124 34q-71 0 -118.5 -22
t-47.5 -64q0 -19 7 -34t22 -25.5t29.5 -18t37.5 -12.5t38 -8t39.5 -6t33.5 -5l53 -8q60 -11 102.5 -21.5t97.5 -33t89.5 -51.5t59 -76.5t24.5 -108.5q0 -161 -130.5 -249.5t-340.5 -88.5q-180 0 -306.5 87t-158.5 237zM395 1106l-276 379h241l158 -232l158 232h242
l-277 -379h-246z" />
    <glyph glyph-name="uni0162" unicode="&#x162;" horiz-adv-x="1261" 
d="M467 0v1190h-447v256h1221v-256h-446v-1190h-99v-72q86 -6 143.5 -62.5t57.5 -146.5q0 -103 -63.5 -164t-157.5 -61h-113v131h94q38 0 63 26.5t25 67.5q0 29 -25.5 53.5t-62.5 24.5h-94v203h-96z" />
    <glyph glyph-name="uni0163" unicode="&#x163;" horiz-adv-x="745" 
d="M354 -506v131h95q38 0 63 26.5t25 67.5q0 29 -25.5 53.5t-62.5 24.5h-95v213q-145 54 -145 205v557h-191v215h191v326h287v-326h192v-215h-192v-434q0 -60 22 -90.5t74 -30.5q56 0 96 6v-227q-78 -12 -156 -12q-31 0 -45 2v-58q86 -6 143.5 -62.5t57.5 -146.5
q0 -103 -63.5 -164t-157.5 -61h-113z" />
    <glyph glyph-name="Tcaron" unicode="&#x164;" horiz-adv-x="1261" 
d="M467 0v1190h-447v256h1221v-256h-446v-1190h-328zM508 1565l-277 379h242l158 -232l157 232h242l-276 -379h-246z" />
    <glyph glyph-name="tcaron" unicode="&#x165;" horiz-adv-x="745" 
d="M209 215v557h-191v215h191v326h287v-326h192v-215h-192v-434q0 -60 22 -90.5t74 -30.5q56 0 96 6v-227q-78 -12 -156 -12q-64 0 -118 10.5t-102 35.5t-75.5 72t-27.5 113zM588 1067l69 379h256l-172 -379h-153z" />
    <glyph glyph-name="Tbar" unicode="&#x166;" horiz-adv-x="1271" 
d="M227 807v162h244v221h-446v256h1220v-256h-446v-221h252v-162h-252v-807h-328v807h-244z" />
    <glyph glyph-name="tbar" unicode="&#x167;" horiz-adv-x="749" 
d="M74 430v162h139v180h-190v215h190v326h287v-326h192v-215h-192v-180h166v-162h-166v-92q0 -60 22 -90.5t74 -30.5q56 0 96 6v-227q-78 -12 -155 -12q-64 0 -118 10.5t-102.5 35.5t-76 72t-27.5 113v215h-139z" />
    <glyph glyph-name="Utilde" unicode="&#x168;" horiz-adv-x="1527" 
d="M129 535v911h328v-911q0 -156 85 -235t222 -79t222 79t85 235v911h328v-911q0 -143 -49.5 -254t-137 -179t-201 -102.5t-247.5 -34.5t-247.5 34.5t-201 102.5t-137 179t-49.5 254zM416 1638v220q32 32 94.5 55.5t110.5 23.5q16 0 32 -1.5t26 -2.5t26 -5t21.5 -5.5
t23.5 -7t22 -6.5q13 -4 43.5 -16t56 -18.5t52.5 -6.5q57 0 106 25.5t82 66.5v-219q-32 -32 -94.5 -56t-110.5 -24q-20 0 -36.5 1.5t-34 5t-25.5 5.5t-29 9t-26 8q-13 4 -43.5 16t-56 18.5t-52.5 6.5q-57 0 -106 -26t-82 -67z" />
    <glyph glyph-name="utilde" unicode="&#x169;" horiz-adv-x="1142" 
d="M102 356v631h287v-629q0 -50 27 -100q39 -68 125 -68q72 0 125 43q77 60 77 203v551h287v-987h-278v119q-8 -19 -27 -40.5t-52.5 -46.5t-90.5 -41t-127 -16q-200 0 -291 148q-62 104 -62 233zM221 1180v219q32 32 94.5 56t110.5 24q16 0 32 -1.5t27 -3t25.5 -5t22 -5.5
t23.5 -7t22 -7q14 -4 43.5 -16t55 -18.5t52.5 -6.5q57 0 106.5 25.5t82.5 66.5v-219q-32 -32 -94.5 -56t-110.5 -24q-16 0 -32 1.5t-27 3t-25.5 5t-22 5.5t-23.5 7t-22 7q-14 4 -43.5 16t-55 18.5t-52.5 6.5q-57 0 -106.5 -25.5t-82.5 -66.5z" />
    <glyph glyph-name="Umacron" unicode="&#x16a;" horiz-adv-x="1527" 
d="M129 535v911h328v-911q0 -156 85 -235t222 -79t222 79t85 235v911h328v-911q0 -143 -49.5 -254t-137 -179t-201 -102.5t-247.5 -34.5t-247.5 34.5t-201 102.5t-137 179t-49.5 254zM416 1698v207h696v-207h-696z" />
    <glyph glyph-name="umacron" unicode="&#x16b;" horiz-adv-x="1142" 
d="M102 356v631h287v-629q0 -50 27 -100q39 -68 125 -68q72 0 125 43q77 60 77 203v551h287v-987h-278v119q-8 -19 -27 -40.5t-52.5 -46.5t-90.5 -41t-127 -16q-200 0 -291 148q-62 104 -62 233zM221 1239v207h697v-207h-697z" />
    <glyph glyph-name="Ubreve" unicode="&#x16c;" horiz-adv-x="1527" 
d="M129 535v911h328v-911q0 -156 85 -235t222 -79t222 79t85 235v911h328v-911q0 -143 -49.5 -254t-137 -179t-201 -102.5t-247.5 -34.5t-247.5 34.5t-201 102.5t-137 179t-49.5 254zM424 1905v39h205v-39q0 -81 33.5 -131t101.5 -50t102.5 50.5t34.5 130.5v39h205v-39
q0 -164 -95 -262.5t-247 -98.5t-246 98.5t-94 262.5z" />
    <glyph glyph-name="ubreve" unicode="&#x16d;" horiz-adv-x="1142" 
d="M102 356v631h287v-629q0 -50 27 -100q39 -68 125 -68q72 0 125 43q77 60 77 203v551h287v-987h-278v119q-8 -19 -27 -40.5t-52.5 -46.5t-90.5 -41t-127 -16q-200 0 -291 148q-62 104 -62 233zM229 1446v39h205v-39q0 -80 33.5 -130t101.5 -50q69 0 103.5 50t34.5 130v39
h204v-39q0 -164 -95 -262.5t-247 -98.5t-246 98.5t-94 262.5z" />
    <glyph glyph-name="Uring" unicode="&#x16e;" horiz-adv-x="1527" 
d="M129 535v911h328v-911q0 -156 85 -235t222 -79t222 79t85 235v911h328v-911q0 -143 -49.5 -254t-137 -179t-201 -102.5t-247.5 -34.5t-247.5 34.5t-201 102.5t-137 179t-49.5 254zM764 1661q41 0 70.5 29.5t29.5 70.5t-29.5 71t-70.5 30t-70.5 -30t-29.5 -71t29.5 -70.5
t70.5 -29.5zM764 1544q-89 0 -153 64t-64 153t64 153t153 64t153 -64t64 -153t-64 -153t-153 -64z" />
    <glyph glyph-name="uring" unicode="&#x16f;" horiz-adv-x="1142" 
d="M102 356v631h287v-629q0 -50 27 -100q39 -68 125 -68q72 0 125 43q77 60 77 203v551h287v-987h-278v119q-8 -19 -27 -40.5t-52.5 -46.5t-90.5 -41t-127 -16q-200 0 -291 148q-62 104 -62 233zM569 1202q41 0 71 30t30 71t-30 70.5t-71 29.5t-70.5 -29.5t-29.5 -70.5
t29.5 -71t70.5 -30zM569 1085q-89 0 -153 64.5t-64 153.5t64 153t153 64t153 -64t64 -153t-64 -153.5t-153 -64.5z" />
    <glyph glyph-name="Uhungarumlaut" unicode="&#x170;" horiz-adv-x="1527" 
d="M129 535v911h328v-911q0 -156 85 -235t222 -79t222 79t85 235v911h328v-911q0 -143 -49.5 -254t-137 -179t-201 -102.5t-247.5 -34.5t-247.5 34.5t-201 102.5t-137 179t-49.5 254zM498 1565l168 379h272l-221 -379h-219zM813 1565l168 379h272l-221 -379h-219z" />
    <glyph glyph-name="uhungarumlaut" unicode="&#x171;" horiz-adv-x="1142" 
d="M102 356v631h287v-629q0 -50 27 -100q39 -68 125 -68q72 0 125 43q77 60 77 203v551h287v-987h-278v119q-8 -19 -27 -40.5t-52.5 -46.5t-90.5 -41t-127 -16q-200 0 -291 148q-62 104 -62 233zM279 1106l167 379h273l-221 -379h-219zM594 1106l168 379h272l-221 -379h-219
z" />
    <glyph glyph-name="Uogonek" unicode="&#x172;" horiz-adv-x="1527" 
d="M870 -506q-132 0 -224.5 94t-92.5 226q0 93 45 166q-214 39 -341.5 178.5t-127.5 376.5v911h328v-911q0 -156 85 -235t222 -79t222 79t85 235v911h328v-911q0 -142 -49 -252.5t-135.5 -178.5t-198 -102.5t-244.5 -36.5q-67 -54 -67 -151q0 -78 48 -133.5t117 -55.5h95
v-131h-95z" />
    <glyph glyph-name="uogonek" unicode="&#x173;" horiz-adv-x="1142" 
d="M803 -186q0 -78 48.5 -133.5t117.5 -55.5h94v-131h-94q-132 0 -225 94t-93 226q0 68 27 128.5t74 102.5v74q-8 -19 -27 -40.5t-52.5 -46.5t-90.5 -41t-127 -16q-200 0 -291 148q-62 104 -62 233v631h287v-629q0 -50 27 -100q39 -68 125 -68q72 0 125 43q77 60 77 203v551
h287v-987h-63q-69 0 -116.5 -54.5t-47.5 -131.5z" />
    <glyph glyph-name="Wcircumflex" unicode="&#x174;" horiz-adv-x="2150" 
d="M420 0l-412 1446h316l290 -1118l269 1118h385l268 -1118l291 1118h315l-411 -1446h-398l-258 1155l-258 -1155h-397zM676 1565l276 379h246l277 -379h-242l-158 231l-157 -231h-242z" />
    <glyph glyph-name="wcircumflex" unicode="&#x175;" horiz-adv-x="1626" 
d="M319 0l-309 987h283l182 -645l184 645h308l184 -647l182 647h283l-309 -987h-314l-180 637l-180 -637h-314zM418 1106l276 379h246l277 -379h-242l-158 231l-158 -231h-241z" />
    <glyph glyph-name="Ycircumflex" unicode="&#x176;" horiz-adv-x="1505" 
d="M596 0v655l-602 791h379l383 -553l381 553h370l-594 -791v-655h-317zM350 1565l277 379h245l277 -379h-242l-157 231l-158 -231h-242z" />
    <glyph glyph-name="ycircumflex" unicode="&#x177;" horiz-adv-x="1060" 
d="M80 -459v230q76 -13 86 -13q33 0 55 2.5t45.5 10t39 23t24.5 40.5l69 180l-389 973h303l236 -657l219 657h289l-482 -1263q-76 -197 -329 -197q-78 0 -166 14zM137 1106l277 379h245l277 -379h-242l-157 231l-158 -231h-242z" />
    <glyph glyph-name="Ydieresis" unicode="&#x178;" horiz-adv-x="1505" 
d="M596 0v655l-602 791h379l383 -553l381 553h370l-594 -791v-655h-317zM408 1612v297h297v-297h-297zM795 1612v297h297v-297h-297z" />
    <glyph glyph-name="Zacute" unicode="&#x179;" horiz-adv-x="1343" 
d="M61 0v266l775 914h-742v266h1143v-266l-801 -914h854v-266h-1229zM557 1565l168 379h272l-221 -379h-219z" />
    <glyph glyph-name="zacute" unicode="&#x17a;" horiz-adv-x="1005" 
d="M49 0v217l518 549h-477v221h842v-205l-520 -559h534v-223h-897zM379 1106l168 379h272l-221 -379h-219z" />
    <glyph glyph-name="Zdotaccent" unicode="&#x17b;" horiz-adv-x="1343" 
d="M61 0v266l775 914h-742v266h1143v-266l-801 -914h854v-266h-1229zM522 1612v297h287v-297h-287z" />
    <glyph glyph-name="zdotaccent" unicode="&#x17c;" horiz-adv-x="1005" 
d="M49 0v217l518 549h-477v221h842v-205l-520 -559h534v-223h-897zM354 1153v297h287v-297h-287z" />
    <glyph glyph-name="Zcaron" unicode="&#x17d;" horiz-adv-x="1343" 
d="M61 0v266l775 914h-742v266h1143v-266l-801 -914h854v-266h-1229zM543 1565l-277 379h242l158 -232l157 232h242l-277 -379h-245z" />
    <glyph glyph-name="zcaron" unicode="&#x17e;" horiz-adv-x="1005" 
d="M49 0v217l518 549h-477v221h842v-205l-520 -559h534v-223h-897zM375 1106l-277 379h242l158 -232l157 232h242l-276 -379h-246z" />
    <glyph glyph-name="longs" unicode="&#x17f;" horiz-adv-x="512" 
d="M113 0v1163q0 129 82.5 215t224.5 86q133 0 184 -10v-215q-46 4 -98 4q-107 0 -107 -153v-1090h-286z" />
    <glyph glyph-name="uni018F" unicode="&#x18f;" 
d="M399 938l-293 96q15 83 53 159.5t101 143.5t162.5 107.5t222.5 40.5q152 0 266.5 -53t185.5 -152.5t106.5 -236.5t35.5 -310q0 -227 -68.5 -400t-201.5 -270.5t-314 -97.5q-119 0 -222 44.5t-183.5 131.5t-127 227.5t-46.5 319.5q0 85 4 139h831q-3 84 -18 153t-44 125.5
t-78.5 88t-115.5 31.5q-98 0 -165 -84.5t-91 -202.5zM911 569h-512q0 -76 29.5 -154.5t90.5 -136t136 -57.5q70 0 130.5 53.5t93 133t32.5 161.5z" />
    <glyph glyph-name="uni0190" unicode="&#x190;" horiz-adv-x="1382" 
d="M1018 518l325 -53q-10 -102 -52 -186.5t-104.5 -142t-143.5 -96.5t-168 -57t-179 -18q-143 0 -261.5 36t-196 97t-120 142.5t-42.5 173.5q0 59 16.5 112.5t51 102t97 82.5t146.5 47q-125 28 -201.5 111.5t-76.5 193.5q0 82 30.5 151t84.5 118.5t127.5 83.5t159 50.5
t179.5 16.5q148 0 262.5 -35.5t186.5 -98t114 -138.5t58 -167l-314 -63q-6 50 -25 91.5t-53.5 77t-92 55.5t-132.5 20q-121 0 -190.5 -46.5t-69.5 -125.5q0 -78 69 -128.5t218 -50.5h176v-256h-174q-91 0 -156 -16t-100 -44.5t-50.5 -61.5t-15.5 -72q0 -83 73.5 -143
t215.5 -60q160 0 241.5 77.5t86.5 219.5z" />
    <glyph glyph-name="florin" unicode="&#x192;" horiz-adv-x="851" 
d="M-106 -442l22 217q62 -8 100 -8q23 0 40 3.5t29 8.5t21 17t14 22t9.5 31.5t6.5 37t5 45.5l95 840h-150l23 215h151l23 205q15 127 104 199.5t225 72.5q78 0 217 -30l-22 -217q-62 8 -100 8q-37 0 -63 -18t-40 -50.5t-20 -64.5t-9 -74l-2 -31h187l-23 -215h-188l-109 -973
q-13 -126 -103 -199t-226 -73q-74 0 -217 31z" />
    <glyph glyph-name="uni0194" unicode="&#x194;" horiz-adv-x="1333" 
d="M666 -457q-157 0 -249.5 86t-92.5 219q0 81 32 165t138 304l-541 1129h319l398 -860l403 860h307l-544 -1118q106 -222 139 -309.5t33 -168.5q0 -134 -93 -220.5t-249 -86.5zM666 -233q32 0 49.5 24.5t17.5 63.5q0 60 -67 217q-25 -61 -36 -89.5t-20.5 -65t-9.5 -62.5
q0 -39 18 -63.5t48 -24.5z" />
    <glyph glyph-name="uni0197" unicode="&#x197;" horiz-adv-x="663" 
d="M29 668v161h139v617h328v-617h139v-161h-139v-668h-328v668h-139z" />
    <glyph glyph-name="uni019D" unicode="&#x19d;" horiz-adv-x="1640" 
d="M430 1124v-1296q0 -72 -14 -123t-49 -93.5t-102.5 -63.5t-168.5 -21t-176 10v230q61 -9 76 -9q92 0 119.5 28.5t27.5 84.5v1575h432l635 -1131v1131h287v-1446h-434z" />
    <glyph glyph-name="uni01B5" unicode="&#x1b5;" horiz-adv-x="1359" 
d="M145 659v162h394l305 359h-742v266h1143v-266l-315 -359h289v-162h-431l-344 -393h854v-266h-1228v266l331 393h-256z" />
    <glyph glyph-name="uni01B6" unicode="&#x1b6;" horiz-adv-x="1015" 
d="M115 430v154h286l172 182h-477v221h842v-205l-184 -198h145v-154h-289l-192 -207h534v-223h-897v217l201 213h-141z" />
    <glyph glyph-name="uni01CD" unicode="&#x1cd;" horiz-adv-x="1523" 
d="M-6 0l584 1446h368l584 -1446h-338l-145 389h-572l-143 -389h-338zM567 635h389l-194 522zM639 1565l-277 379h242l158 -232l158 232h241l-276 -379h-246z" />
    <glyph glyph-name="uni01CE" unicode="&#x1ce;" horiz-adv-x="1103" 
d="M1012 0h-285q-2 8 -9 58t-7 53q-86 -136 -295 -136q-158 0 -256.5 90.5t-98.5 210.5q0 70 22 123t55 85.5t89.5 56.5t108.5 36.5t129 24.5q2 0 74 10.5t75 10.5q67 10 90 28t23 49q0 54 -46.5 80.5t-115.5 26.5q-191 0 -194 -174l-275 63q25 164 168 246q126 70 301 70
q89 0 164.5 -20.5t136.5 -62t96 -112t35 -164.5v-370q0 -208 15 -283zM348 299q0 -46 40 -82.5t95 -36.5q26 0 53.5 4.5t59.5 18.5t57 35.5t41.5 58.5t16.5 84v74q-1 0 -43 -6.5t-43 -6.5l-82 -14q-36 -6 -59 -11t-51.5 -15t-45 -22.5t-28 -33t-11.5 -47.5zM442 1102
l-276 379h242l157 -232l158 232h242l-277 -379h-246z" />
    <glyph glyph-name="uni01CF" unicode="&#x1cf;" horiz-adv-x="614" 
d="M143 0v1446h328v-1446h-328zM184 1565l-276 379h242l157 -232l158 232h242l-277 -379h-246z" />
    <glyph glyph-name="uni01D0" unicode="&#x1d0;" horiz-adv-x="512" 
d="M113 0v987h286v-987h-286zM133 1102l-276 379h241l158 -232l158 232h241l-276 -379h-246z" />
    <glyph glyph-name="uni01D1" unicode="&#x1d1;" horiz-adv-x="1656" 
d="M831 221q107 0 190.5 42t133.5 113.5t76 158.5t26 184t-26 185t-76 161t-134 116.5t-190 43.5q-109 0 -194 -43.5t-135.5 -116.5t-76.5 -161t-26 -185q0 -77 15.5 -148t50 -135t84 -111.5t122 -75.5t160.5 -28zM831 -35q-154 0 -281.5 42t-214.5 114t-147.5 169t-88 205
t-27.5 224t27.5 224.5t88 206.5t147.5 171.5t215 116.5t281 43q152 0 278.5 -43t213 -116.5t147 -171.5t88 -206.5t27.5 -224.5t-27.5 -224t-88 -205t-147 -169t-213 -114t-278.5 -42zM709 1565l-277 379h242l157 -232l158 232h242l-277 -379h-245z" />
    <glyph glyph-name="uni01D2" unicode="&#x1d2;" horiz-adv-x="1153" 
d="M578 190q56 0 101 27.5t71.5 72.5t40.5 97t14 105q0 74 -23 141t-76.5 115.5t-127.5 48.5t-128 -48.5t-78 -116t-24 -140.5q0 -72 24 -139t78 -115t128 -48zM578 -25q-120 0 -220 45t-163.5 119t-98.5 165.5t-35 187.5q0 97 35 189t98.5 166t163.5 119.5t220 45.5
t219.5 -45.5t162.5 -119.5t97.5 -166t34.5 -189q0 -96 -34.5 -187.5t-97.5 -165.5t-162.5 -119t-219.5 -45zM455 1102l-277 379h242l158 -232l157 232h242l-277 -379h-245z" />
    <glyph glyph-name="uni01D3" unicode="&#x1d3;" horiz-adv-x="1527" 
d="M129 535v911h328v-911q0 -156 85 -235t222 -79t222 79t85 235v911h328v-911q0 -143 -49.5 -254t-137 -179t-201 -102.5t-247.5 -34.5t-247.5 34.5t-201 102.5t-137 179t-49.5 254zM641 1565l-276 379h241l158 -232l158 232h241l-276 -379h-246z" />
    <glyph glyph-name="uni01D4" unicode="&#x1d4;" horiz-adv-x="1142" 
d="M102 356v631h287v-629q0 -50 27 -100q39 -68 125 -68q72 0 125 43q77 60 77 203v551h287v-987h-278v119q-8 -19 -27 -40.5t-52.5 -46.5t-90.5 -41t-127 -16q-200 0 -291 148q-62 104 -62 233zM438 1102l-276 379h241l158 -232l158 232h242l-277 -379h-246z" />
    <glyph glyph-name="Gcaron" unicode="&#x1e6;" horiz-adv-x="1599" 
d="M1188 0v137q-70 -88 -175.5 -130t-228.5 -42q-104 0 -206.5 32.5t-193.5 97t-161 154t-110.5 212.5t-40.5 262q0 164 57.5 306t157.5 241t238.5 155t297.5 56q77 0 147.5 -11.5t146.5 -41t140.5 -76t125 -121t104.5 -170.5l-320 -78q-45 89 -105.5 145t-118 76.5
t-120.5 20.5q-181 0 -302.5 -142t-121.5 -360q0 -112 34.5 -208t92.5 -159.5t132.5 -99t154.5 -35.5q46 0 91.5 9.5t94.5 35.5t87 66t66 106t36 150h-451v256h758v-844h-307zM700 1565l-276 379h242l157 -232l158 232h242l-277 -379h-246z" />
    <glyph glyph-name="gcaron" unicode="&#x1e7;" horiz-adv-x="1222" 
d="M102 -139l287 59q44 -186 219 -186q51 0 91 19.5t62.5 48t37 65t19.5 65.5t5 54v127q-50 -50 -127 -81.5t-151 -31.5q-86 0 -157.5 20.5t-120 53.5t-86.5 78t-59.5 90.5t-35.5 95t-18.5 86.5t-4.5 70t4.5 72t18.5 90.5t36 99t60 95.5t86.5 82.5t120 56.5t156.5 22
q81 0 169 -38t126 -97v110h270v-1010q0 -95 -33 -178t-94.5 -145.5t-158 -98.5t-216.5 -36q-90 0 -168.5 21.5t-134 56t-98.5 80.5t-68 91.5t-37 92.5zM594 215q29 0 58.5 9t60.5 31t55 54.5t39.5 83.5t15.5 113t-15.5 113t-39.5 83.5t-55 54.5t-60.5 31t-58.5 9
q-58 0 -104 -25t-71.5 -60.5t-42 -79t-21.5 -74t-5 -52.5q0 -32 5 -65.5t21 -75.5t41.5 -74t71.5 -54t105 -22zM489 1102l-276 379h242l157 -232l158 232h242l-277 -379h-246z" />
    <glyph glyph-name="uni01E8" unicode="&#x1e8;" horiz-adv-x="1476" 
d="M143 0v1446h328v-580l578 580h399l-694 -676l782 -770h-420l-645 651v-651h-328zM598 1565l-276 379h241l158 -232l158 232h241l-276 -379h-246z" />
    <glyph glyph-name="uni01E9" unicode="&#x1e9;" horiz-adv-x="1153" 
d="M113 0v1446h286v-817l369 358h365l-498 -442l563 -545h-367l-432 416v-416h-286zM133 1561l-276 378h241l158 -231l158 231h241l-276 -378h-246z" />
    <glyph glyph-name="uni01EA" unicode="&#x1ea;" horiz-adv-x="1656" 
d="M936 -506q-132 0 -225 94t-93 226q0 91 46 166q-120 20 -219 71.5t-167 122.5t-115 160t-69 185.5t-22 199.5q0 116 27.5 224.5t88 206.5t147.5 171.5t215 116.5t281 43q152 0 278.5 -43t213 -116.5t147 -171.5t88 -206.5t27.5 -224.5q0 -115 -27.5 -222.5t-87 -204.5
t-145.5 -168.5t-211 -114.5t-276 -44q-68 -55 -68 -151q0 -78 48.5 -133.5t117.5 -55.5h94v-131h-94zM831 221q107 0 190.5 42t133.5 113.5t76 158.5t26 184t-26 185t-76 161t-134 116.5t-190 43.5q-109 0 -194 -43.5t-135.5 -116.5t-76.5 -161t-26 -185q0 -77 15.5 -148
t50 -135t84 -111.5t122 -75.5t160.5 -28z" />
    <glyph glyph-name="uni01EB" unicode="&#x1eb;" horiz-adv-x="1153" 
d="M780 -506h-94q-132 0 -224.5 94t-92.5 226q0 103 57 182q-170 48 -267.5 189t-97.5 307q0 97 35 189t98.5 166t163.5 119.5t220 45.5t219.5 -45.5t162.5 -119.5t97.5 -166t34.5 -189q0 -94 -33 -183.5t-93 -162.5t-155 -120t-209 -51q-37 -24 -59.5 -66.5t-22.5 -94.5
q0 -78 48.5 -133.5t117.5 -55.5h94v-131zM578 190q56 0 101 27.5t71.5 72.5t40.5 97t14 105q0 74 -23 141t-76.5 115.5t-127.5 48.5t-128 -48.5t-78 -116t-24 -140.5q0 -72 24 -139t78 -115t128 -48z" />
    <glyph glyph-name="uni01F8" unicode="&#x1f8;" horiz-adv-x="1640" 
d="M143 0v1446h432l635 -1131v1131h287v-1446h-434l-633 1124v-1124h-287zM719 1565l-221 379h272l168 -379h-219z" />
    <glyph glyph-name="uni01F9" unicode="&#x1f9;" horiz-adv-x="1142" 
d="M113 0v987h278v-119q8 19 27 40.5t52.5 46.5t90.5 41t127 16q200 0 291 -148q61 -102 61 -233v-631h-286v629q0 50 -27 100q-39 68 -125 68q-72 0 -125 -43q-78 -61 -78 -203v-551h-286zM477 1102l-221 379h272l168 -379h-219z" />
    <glyph glyph-name="Aringacute" unicode="&#x1fa;" horiz-adv-x="1523" 
d="M-6 0l590 1460q-35 50 -35 119q0 89 64 153t153 64t153 -64t64 -153q0 -65 -43 -125l590 -1454h-338l-145 389h-572l-143 -389h-338zM567 635h389l-194 522zM766 1479q41 0 70.5 29.5t29.5 70.5t-29.5 70.5t-70.5 29.5t-70.5 -29.5t-29.5 -70.5t29.5 -70.5t70.5 -29.5z
M659 1853l226 306h272l-287 -306h-211z" />
    <glyph glyph-name="aringacute" unicode="&#x1fb;" horiz-adv-x="1103" 
d="M555 1198q41 0 70.5 29.5t29.5 70.5t-29.5 71t-70.5 30t-70.5 -30t-29.5 -71t29.5 -70.5t70.5 -29.5zM555 1081q-89 0 -153 64t-64 153t64 153.5t153 64.5t153 -64.5t64 -153.5t-64 -153t-153 -64zM440 1567l226 305h272l-287 -305h-211zM1012 0h-285q-2 8 -9 58t-7 53
q-86 -136 -295 -136q-158 0 -256.5 90.5t-98.5 210.5q0 70 22 123t55 85.5t89.5 56.5t108.5 36.5t129 24.5q2 0 74 10.5t75 10.5q67 10 90 28t23 49q0 54 -46.5 80.5t-115.5 26.5q-191 0 -194 -174l-275 63q25 164 168 246q126 70 301 70q89 0 164.5 -20.5t136.5 -62
t96 -112t35 -164.5v-370q0 -208 15 -283zM348 299q0 -46 40 -82.5t95 -36.5q26 0 53.5 4.5t59.5 18.5t57 35.5t41.5 58.5t16.5 84v74q-1 0 -43 -6.5t-43 -6.5l-82 -14q-36 -6 -59 -11t-51.5 -15t-45 -22.5t-28 -33t-11.5 -47.5z" />
    <glyph glyph-name="AEacute" unicode="&#x1fc;" horiz-adv-x="2082" 
d="M-37 0l946 1446h1067v-256h-622v-322h594v-256h-594v-356h637v-256h-965v420h-430l-258 -420h-375zM758 684h268v436zM1292 1565l168 379h273l-222 -379h-219z" />
    <glyph glyph-name="aeacute" unicode="&#x1fd;" horiz-adv-x="1761" 
d="M371 633l-275 63q25 164 168 246q126 70 301 70q96 0 184 -25.5t146 -79.5q127 105 311 105q101 0 191.5 -37t156.5 -102.5t105 -161t39 -205.5q0 -60 -4 -96h-697v-17q1 -31 6.5 -59t20.5 -57t37.5 -50t59.5 -34t85 -13q165 0 209 170l256 -65q-18 -91 -88 -162.5
t-167 -108.5t-202 -37q-115 0 -212.5 47.5t-155.5 143.5q-59 -98 -156.5 -145.5t-273.5 -47.5q-158 0 -256.5 90.5t-98.5 210.5q0 66 21.5 119t55 88t85.5 60.5t101.5 39t115 21.5t113.5 10t109 2h65v50q0 62 -48 101.5t-114 39.5q-191 0 -194 -174zM711 381v29h-95
q-71 0 -115.5 -3.5t-82 -15t-54 -34t-16.5 -58.5q0 -57 39 -87t98 -30q90 0 158 54t68 145zM997 616h418q0 76 -55.5 133.5t-153.5 57.5q-94 0 -151.5 -56t-57.5 -135zM772 1106l168 379h272l-221 -379h-219z" />
    <glyph glyph-name="Oslashacute" unicode="&#x1fe;" horiz-adv-x="1660" 
d="M1368 1446h219l-182 -205q90 -105 136 -241t46 -281q0 -116 -27.5 -224t-87.5 -205t-146.5 -169t-213 -114t-278.5 -42q-274 0 -457 127l-82 -92h-221l180 201q-90 103 -135 237.5t-45 280.5q0 116 28 224.5t88.5 206.5t147.5 171.5t215 116.5t281 43q265 0 450 -129z
M834 221q107 0 190.5 42t133.5 113.5t76 158.5t26 184q0 161 -66 287l-625 -699q110 -86 265 -86zM401 719q0 -159 64 -281l625 699q-110 88 -256 88q-109 0 -194 -43.5t-136 -116.5t-77 -161t-26 -185zM725 1565l168 379h272l-221 -379h-219z" />
    <glyph glyph-name="oslashacute" unicode="&#x1ff;" horiz-adv-x="1161" 
d="M35 0l145 160q-114 141 -114 332q0 97 34.5 189t98 166t163.5 119.5t220 45.5q163 0 290 -86l56 61h198l-145 -162q115 -145 115 -333q0 -96 -34.5 -187.5t-97.5 -165.5t-162.5 -119t-219.5 -45q-169 0 -293 84l-56 -59h-198zM371 371l340 377q-55 49 -129 49t-128 -48.5
t-78 -116t-24 -140.5q0 -59 19 -121zM791 614l-340 -374q56 -50 131 -50q56 0 101 27.5t71.5 72.5t40.5 97t14 105q0 60 -18 122zM463 1106l168 379h272l-221 -379h-219z" />
    <glyph glyph-name="uni0218" unicode="&#x218;" horiz-adv-x="1400" 
d="M47 457l326 71q0 -151 91.5 -229t248.5 -78q128 0 210.5 58.5t82.5 134.5q0 74 -51.5 111t-161.5 61l-228 47q-64 13 -99 21t-92.5 26t-90 37t-73 51t-61.5 70t-36 93.5t-15 123.5q0 99 50 181.5t134 135t190 81t222 28.5q124 0 223 -26t163.5 -67.5t111 -100.5
t70 -116.5t36.5 -123.5l-313 -70q-15 120 -92 184t-199 64q-123 0 -198.5 -44t-75.5 -126q0 -30 12.5 -53.5t29.5 -38t45 -26.5t47 -17t48 -11l287 -61q41 -9 71.5 -16.5t80 -24.5t86.5 -36.5t78.5 -51.5t68.5 -69.5t45 -90.5t18 -115q0 -100 -42 -187t-121 -152
t-200.5 -102.5t-271.5 -37.5q-258 0 -427.5 120t-227.5 372zM520 -481l70 379h256l-172 -379h-154z" />
    <glyph glyph-name="uni0219" unicode="&#x219;" horiz-adv-x="1048" 
d="M51 299l275 61q20 -92 63.5 -136t126.5 -44q80 0 131 30t51 81t-36.5 71.5t-139.5 36.5l-53 9q-92 15 -156 34t-120.5 53.5t-84.5 90t-28 133.5q0 33 13 69t47 77t83.5 73t131 53t182.5 21q143 0 261 -77t156 -214l-247 -64q-22 82 -63 116t-124 34q-71 0 -118.5 -22
t-47.5 -64q0 -19 7 -34t22 -25.5t29.5 -18t37.5 -12.5t38 -8t39.5 -6t33.5 -5l53 -8q60 -11 102.5 -21.5t97.5 -33t89.5 -51.5t59 -76.5t24.5 -108.5q0 -161 -130.5 -249.5t-340.5 -88.5q-180 0 -306.5 87t-158.5 237zM326 -481l69 379h256l-172 -379h-153z" />
    <glyph glyph-name="uni021A" unicode="&#x21a;" horiz-adv-x="1261" 
d="M467 0v1190h-447v256h1221v-256h-446v-1190h-328zM449 -481l69 379h256l-172 -379h-153z" />
    <glyph glyph-name="uni021B" unicode="&#x21b;" horiz-adv-x="745" 
d="M209 215v557h-191v215h191v326h287v-326h192v-215h-192v-434q0 -60 22 -90.5t74 -30.5q56 0 96 6v-227q-78 -12 -156 -12q-64 0 -118 10.5t-102 35.5t-75.5 72t-27.5 113zM258 -481l70 379h256l-172 -379h-154z" />
    <glyph glyph-name="uni021E" unicode="&#x21e;" horiz-adv-x="1570" 
d="M143 0v1446h328v-578h629v578h327v-1446h-327v612h-629v-612h-328zM662 1565l-277 379h242l157 -232l158 232h242l-277 -379h-245z" />
    <glyph glyph-name="uni021F" unicode="&#x21f;" horiz-adv-x="1150" 
d="M113 0v1446h278v-578q8 19 27.5 40.5t53.5 46.5t92.5 41t129.5 16q202 0 293 -148q62 -100 62 -233v-631h-287v629q0 57 -27 100q-39 68 -129 68q-74 0 -127 -43q-82 -64 -82 -203v-551h-284zM129 1561l-276 378h241l158 -231l158 231h241l-276 -378h-246z" />
    <glyph glyph-name="uni022E" unicode="&#x22e;" horiz-adv-x="1656" 
d="M831 221q107 0 190.5 42t133.5 113.5t76 158.5t26 184t-26 185t-76 161t-134 116.5t-190 43.5q-109 0 -194 -43.5t-135.5 -116.5t-76.5 -161t-26 -185q0 -77 15.5 -148t50 -135t84 -111.5t122 -75.5t160.5 -28zM831 -35q-154 0 -281.5 42t-214.5 114t-147.5 169t-88 205
t-27.5 224t27.5 224.5t88 206.5t147.5 171.5t215 116.5t281 43q152 0 278.5 -43t213 -116.5t147 -171.5t88 -206.5t27.5 -224.5t-27.5 -224t-88 -205t-147 -169t-213 -114t-278.5 -42zM688 1612v297h287v-297h-287z" />
    <glyph glyph-name="uni022F" unicode="&#x22f;" horiz-adv-x="1153" 
d="M578 190q56 0 101 27.5t71.5 72.5t40.5 97t14 105q0 74 -23 141t-76.5 115.5t-127.5 48.5t-128 -48.5t-78 -116t-24 -140.5q0 -72 24 -139t78 -115t128 -48zM578 -25q-120 0 -220 45t-163.5 119t-98.5 165.5t-35 187.5q0 97 35 189t98.5 166t163.5 119.5t220 45.5
t219.5 -45.5t162.5 -119.5t97.5 -166t34.5 -189q0 -96 -34.5 -187.5t-97.5 -165.5t-162.5 -119t-219.5 -45zM434 1149v297h287v-297h-287z" />
    <glyph glyph-name="uni0232" unicode="&#x232;" horiz-adv-x="1505" 
d="M596 0v655l-602 791h379l383 -553l381 553h370l-594 -791v-655h-317zM401 1698v207h697v-207h-697z" />
    <glyph glyph-name="uni0233" unicode="&#x233;" horiz-adv-x="1060" 
d="M80 -459v230q76 -13 86 -13q33 0 55 2.5t45.5 10t39 23t24.5 40.5l69 180l-389 973h303l236 -657l219 657h289l-482 -1263q-76 -197 -329 -197q-78 0 -166 14zM199 1235v207h696v-207h-696z" />
    <glyph glyph-name="uni0237" unicode="&#x237;" horiz-adv-x="520" 
d="M-106 -463v230q61 -9 75 -9q92 0 122 29t30 84v1116h287v-1159q0 -72 -14.5 -123t-50.5 -93.5t-104 -63.5t-169 -21t-176 10z" />
    <glyph glyph-name="uni0244" unicode="&#x244;" horiz-adv-x="1568" 
d="M31 668v161h119v617h327v-617h615v617h327v-617h119v-161h-119v-133q0 -143 -49.5 -254t-137 -179t-201 -102.5t-247.5 -34.5t-247 34.5t-200.5 102.5t-137 179t-49.5 254v133h-119zM784 221q137 0 222.5 79t85.5 235v133h-615v-133q0 -156 85 -235t222 -79z" />
    <glyph glyph-name="uni0259" unicode="&#x259;" horiz-adv-x="1114" 
d="M346 637l-256 65q27 117 151.5 213.5t290.5 96.5q129 0 231 -43.5t163.5 -117.5t93 -164.5t31.5 -190.5q0 -102 -33 -195.5t-94 -166.5t-156.5 -116t-212.5 -43q-101 0 -191.5 37t-156.5 102.5t-105 161t-39 205.5q0 52 5 97h696q-4 107 -62 168t-147 61
q-165 0 -209 -170zM764 371h-418q0 -80 55 -135.5t154 -55.5q95 0 152 53.5t57 137.5z" />
    <glyph glyph-name="uni025B" unicode="&#x25b;" horiz-adv-x="1015" 
d="M973 307q-19 -106 -88 -182.5t-165.5 -113t-209.5 -36.5q-201 0 -322.5 90t-121.5 222q0 83 50 142.5t144 76.5q-81 19 -126.5 79.5t-45.5 127.5q0 91 61 160.5t156.5 104t208.5 34.5q183 0 297 -76t150 -215l-246 -64q-29 150 -193 150q-76 0 -118 -29.5t-42 -79.5
q0 -48 40.5 -77t113.5 -29h133v-170h-139q-90 0 -130 -32t-40 -83q0 -56 44 -91.5t130 -35.5q90 0 148 51.5t69 135.5z" />
    <glyph glyph-name="uni0263" unicode="&#x263;" horiz-adv-x="1030" 
d="M1049 987l-363 -784q81 -172 108 -247t27 -140q0 -120 -83.5 -196.5t-219.5 -76.5q-137 0 -219 76.5t-82 194.5q0 67 26 140t105 243l-364 790h292l244 -543l244 543h285zM518 2q-57 -135 -57 -192q0 -34 15.5 -55t41.5 -21t43 21t17 55q0 50 -60 192z" />
    <glyph glyph-name="uni0268" unicode="&#x268;" horiz-adv-x="561" 
d="M41 479v162h96v346h287v-346h96v-162h-96v-479h-287v479h-96zM137 1151v295h287v-295h-287z" />
    <glyph glyph-name="uni0272" unicode="&#x272;" horiz-adv-x="1142" 
d="M61 -475q-86 0 -174 16v226q56 -9 86 -9q140 0 140 138v1091h278v-119q8 19 27 40.5t52.5 46.5t90.5 41t127 16q200 0 291 -148q61 -102 61 -233v-631h-286v629q0 50 -27 100q-39 68 -125 68q-72 0 -125 -43q-78 -61 -78 -203v-709q0 -158 -79.5 -237.5t-258.5 -79.5z
" />
    <glyph glyph-name="uni0289" unicode="&#x289;" horiz-adv-x="1202" 
d="M41 479v162h96v346h287v-346h354v346h287v-346h96v-162h-96v-479h-279v119q-8 -19 -27 -40.5t-52.5 -46.5t-90.5 -41t-127 -16q-199 0 -290 148q-62 104 -62 233v123h-96zM700 233q78 61 78 203v43h-354v-121q0 -50 27 -100q39 -68 124 -68q72 0 125 43z" />
    <glyph glyph-name="circumflex" unicode="&#x2c6;" horiz-adv-x="1003" 
d="M102 1106l277 379h246l276 -379h-242l-157 231l-158 -231h-242z" />
    <glyph glyph-name="caron" unicode="&#x2c7;" horiz-adv-x="1003" 
d="M379 1106l-277 379h242l158 -232l157 232h242l-276 -379h-246z" />
    <glyph glyph-name="uni02C9" unicode="&#x2c9;" horiz-adv-x="516" 
d="M-90 1239v207h696v-207h-696z" />
    <glyph glyph-name="breve" unicode="&#x2d8;" horiz-adv-x="886" 
d="M102 1446v39h205v-39q0 -80 33.5 -130t101.5 -50q69 0 103.5 50t34.5 130v39h204v-39q0 -164 -95 -262.5t-247 -98.5t-246 98.5t-94 262.5z" />
    <glyph glyph-name="dotaccent" unicode="&#x2d9;" horiz-adv-x="491" 
d="M102 1153v297h287v-297h-287z" />
    <glyph glyph-name="ring" unicode="&#x2da;" horiz-adv-x="638" 
d="M319 1202q41 0 71 30t30 71t-30 70.5t-71 29.5t-70.5 -29.5t-29.5 -70.5t29.5 -71t70.5 -30zM319 1085q-89 0 -153 64.5t-64 153.5t64 153t153 64t153.5 -64t64.5 -153t-64.5 -153.5t-153.5 -64.5z" />
    <glyph glyph-name="ogonek" unicode="&#x2db;" horiz-adv-x="522" 
d="M514 -506h-94q-132 0 -225 94t-93 226q0 117 76 206h242v-20q-69 0 -117.5 -54t-48.5 -132t48.5 -133.5t117.5 -55.5h94v-131z" />
    <glyph glyph-name="tilde" unicode="&#x2dc;" horiz-adv-x="901" 
d="M102 1180v219q32 32 94.5 56t110.5 24q16 0 32 -1.5t27 -3t25.5 -5t22 -5.5t23.5 -7t22 -7q14 -4 43.5 -16t55 -18.5t52.5 -6.5q57 0 106.5 25.5t82.5 66.5v-219q-32 -32 -94.5 -56t-110.5 -24q-16 0 -32 1.5t-27 3t-25.5 5t-22 5.5t-23.5 7t-22 7q-14 4 -43.5 16
t-55 18.5t-52.5 6.5q-57 0 -106.5 -25.5t-82.5 -66.5z" />
    <glyph glyph-name="hungarumlaut" unicode="&#x2dd;" horiz-adv-x="960" 
d="M102 1106l168 379h273l-221 -379h-220zM418 1106l168 379h272l-221 -379h-219z" />
    <glyph glyph-name="gravecomb" unicode="&#x300;" horiz-adv-x="0" 
d="M-510 1106l-221 379h272l168 -379h-219z" />
    <glyph glyph-name="acutecomb" unicode="&#x301;" horiz-adv-x="0" 
d="M-731 1106l168 379h272l-221 -379h-219z" />
    <glyph glyph-name="uni0302" unicode="&#x302;" horiz-adv-x="0" 
d="M-911 1106l276 379h246l276 -379h-241l-158 231l-158 -231h-241z" />
    <glyph glyph-name="tildecomb" unicode="&#x303;" horiz-adv-x="0" 
d="M-860 1180v219q32 32 94.5 56t110.5 24q20 0 36.5 -1.5t34 -5t25.5 -5.5t29 -9t26 -8q13 -4 43.5 -16t56 -18.5t52.5 -6.5q57 0 106 25.5t82 66.5v-219q-32 -32 -94.5 -56t-110.5 -24q-20 0 -36.5 1.5t-34 5t-25.5 5.5t-29 9t-26 8q-13 4 -43.5 16t-56 18.5t-52.5 6.5
q-57 0 -106 -25.5t-82 -66.5z" />
    <glyph glyph-name="uni0304" unicode="&#x304;" horiz-adv-x="0" 
d="M-860 1239v207h696v-207h-696z" />
    <glyph glyph-name="uni0306" unicode="&#x306;" horiz-adv-x="0" 
d="M-852 1446v39h205v-39q0 -80 33.5 -130t101.5 -50q69 0 103 50t34 130v39h205v-39q0 -164 -95 -262.5t-247 -98.5t-246 98.5t-94 262.5z" />
    <glyph glyph-name="uni0307" unicode="&#x307;" horiz-adv-x="0" 
d="M-655 1153v297h286v-297h-286z" />
    <glyph glyph-name="uni0308" unicode="&#x308;" horiz-adv-x="0" 
d="M-854 1153v297h297v-297h-297zM-467 1153v297h297v-297h-297z" />
    <glyph glyph-name="uni030A" unicode="&#x30a;" horiz-adv-x="0" 
d="M-512 1202q41 0 70.5 30t29.5 71t-29.5 70.5t-70.5 29.5t-70.5 -29.5t-29.5 -70.5t29.5 -71t70.5 -30zM-512 1085q-89 0 -153 64.5t-64 153.5t64 153t153 64t153 -64t64 -153t-64 -153.5t-153 -64.5z" />
    <glyph glyph-name="uni030B" unicode="&#x30b;" horiz-adv-x="0" 
d="M-889 1106l168 379h272l-221 -379h-219zM-573 1106l167 379h273l-221 -379h-219z" />
    <glyph glyph-name="uni030C" unicode="&#x30c;" horiz-adv-x="0" 
d="M-635 1106l-276 379h241l158 -232l158 232h241l-276 -379h-246z" />
    <glyph glyph-name="uni0312" unicode="&#x312;" horiz-adv-x="0" 
d="M-674 1102l172 379h154l-70 -379h-256z" />
    <glyph glyph-name="uni0313" unicode="&#x313;" horiz-adv-x="0" 
d="M-674 1102l70 379h256l-172 -379h-154z" />
    <glyph glyph-name="uni0323" unicode="&#x323;" horiz-adv-x="0" 
d="M-655 -399v297h286v-297h-286z" />
    <glyph glyph-name="uni0326" unicode="&#x326;" horiz-adv-x="0" 
d="M-674 -481l70 379h256l-172 -379h-154z" />
    <glyph glyph-name="uni0327" unicode="&#x327;" horiz-adv-x="0" 
d="M-678 -506v131h94q38 0 63 26.5t25 67.5q0 29 -25.5 53.5t-62.5 24.5h-94v223h133v-92q86 -6 143.5 -62.5t57.5 -146.5q0 -103 -63.5 -164t-157.5 -61h-113z" />
    <glyph glyph-name="uni0328" unicode="&#x328;" horiz-adv-x="0" 
d="M-309 -506h-94q-132 0 -225 94t-93 226q0 117 76 206h242v-20q-69 0 -117.5 -54t-48.5 -132t48.5 -133.5t117.5 -55.5h94v-131z" />
    <glyph glyph-name="uni032E" unicode="&#x32e;" horiz-adv-x="0" 
d="M-852 -139v39h205v-39q0 -80 33.5 -130t101.5 -50q69 0 103 50t34 130v39h205v-39q0 -164 -95 -262.5t-247 -98.5t-246 98.5t-94 262.5z" />
    <glyph glyph-name="uni0331" unicode="&#x331;" horiz-adv-x="0" 
d="M-860 -307v207h696v-207h-696z" />
    <glyph glyph-name="anoteleia" unicode="&#x387;" horiz-adv-x="507" 
d="M90 735q0 67 48 115.5t116 48.5t116 -48.5t48 -115.5t-48 -115.5t-116 -48.5t-116 48.5t-48 115.5z" />
    <glyph glyph-name="uni0394" unicode="&#x394;" horiz-adv-x="1280" 
d="M33 0v152l463 1294h299l450 -1294v-152h-1212zM356 266h572l-283 826z" />
    <glyph glyph-name="uni03A9" unicode="&#x3a9;" horiz-adv-x="1458" 
d="M88 0v256h213q-188 243 -188 514q0 159 48 293t131.5 224.5t196 141t240.5 50.5t240.5 -50.5t196 -141t132 -224.5t48.5 -293q0 -270 -189 -514h213v-256h-584v199q273 183 273 559q0 219 -86.5 343t-243.5 124t-243.5 -124t-86.5 -343q0 -376 273 -559v-199h-584z" />
    <glyph glyph-name="uni03BC" unicode="&#x3bc;" horiz-adv-x="1153" 
d="M113 -457v1444h286v-629q0 -68 41.5 -118t110.5 -50q95 0 149 71.5t54 174.5v551h286v-987h-278v119q-19 -44 -89 -94t-163 -50q-56 0 -111 25v-457h-286z" />
    <glyph glyph-name="pi" unicode="&#x3c0;" horiz-adv-x="1204" 
d="M709 772h-213v-772h-285v772h-164v215h1110v-215h-164v-772h-284v772z" />
    <glyph glyph-name="uni1E02" unicode="&#x1e02;" horiz-adv-x="1468" 
d="M143 0v1446h727q118 0 210.5 -32t149 -87.5t85 -125.5t28.5 -150q0 -110 -79.5 -194t-173.5 -97q96 -5 169.5 -55t108.5 -121t35 -148q0 -114 -46.5 -199.5t-131.5 -136.5t-195.5 -75.5t-247.5 -24.5h-639zM471 256h336q268 0 268 186q0 49 -18.5 84.5t-51 54t-70 27
t-83.5 8.5h-381v-360zM471 872h330q99 0 156 43.5t57 116.5q0 77 -50 117.5t-139 40.5h-354v-318zM557 1612v297h287v-297h-287z" />
    <glyph glyph-name="uni1E03" unicode="&#x1e03;" horiz-adv-x="1208" 
d="M113 0v1446h286v-549q112 115 279 115q85 0 156 -22t118 -57t83.5 -83t56.5 -95.5t32.5 -100t16.5 -90.5t4 -72t-4 -71.5t-16.5 -89.5t-33 -99.5t-56.5 -95.5t-83.5 -82.5t-118.5 -56.5t-157 -22q-79 0 -166 38.5t-127 97.5v-111h-270zM623 190q111 0 173 85t62 217
q0 133 -62.5 219t-172.5 86q-27 0 -55.5 -8.5t-59.5 -30.5t-55 -55.5t-40 -88t-16 -122.5q0 -83 23.5 -145.5t60 -94.5t72.5 -47t70 -15zM543 1149v297h286v-297h-286z" />
    <glyph glyph-name="uni1E0A" unicode="&#x1e0a;" horiz-adv-x="1554" 
d="M471 256h213q222 0 346.5 124.5t124.5 342.5t-124.5 342.5t-346.5 124.5h-213v-934zM143 0v1446h582q219 0 390 -86t269.5 -251.5t98.5 -385.5t-98.5 -385.5t-269.5 -251.5t-390 -86h-582zM578 1612v297h286v-297h-286z" />
    <glyph glyph-name="uni1E0B" unicode="&#x1e0b;" horiz-adv-x="1222" 
d="M840 0v111q-38 -59 -126 -97.5t-169 -38.5q-85 0 -156.5 22t-120 57t-86.5 82.5t-60 95t-36 99t-18.5 90t-4.5 71.5t4.5 72t18.5 90.5t36 99.5t60 96t86.5 83t120 57t156.5 22q166 0 278 -115v549h287v-1446h-270zM594 190q28 0 57 8.5t60.5 30.5t56 54.5t40 86.5
t15.5 122q0 84 -23 147t-59 95.5t-71.5 47.5t-69.5 15q-61 0 -108 -24.5t-73 -59.5t-42.5 -80t-21.5 -78t-5 -61t5 -61.5t21 -78t41.5 -79.5t71.5 -60t105 -25zM367 1149v297h286v-297h-286z" />
    <glyph glyph-name="uni1E0C" unicode="&#x1e0c;" horiz-adv-x="1554" 
d="M471 256h213q222 0 346.5 124.5t124.5 342.5t-124.5 342.5t-346.5 124.5h-213v-934zM143 0v1446h582q219 0 390 -86t269.5 -251.5t98.5 -385.5t-98.5 -385.5t-269.5 -251.5t-390 -86h-582zM561 -399v297h287v-297h-287z" />
    <glyph glyph-name="uni1E0D" unicode="&#x1e0d;" horiz-adv-x="1222" 
d="M840 0v111q-38 -59 -126 -97.5t-169 -38.5q-85 0 -156.5 22t-120 57t-86.5 82.5t-60 95t-36 99t-18.5 90t-4.5 71.5t4.5 72t18.5 90.5t36 99.5t60 96t86.5 83t120 57t156.5 22q166 0 278 -115v549h287v-1446h-270zM594 190q28 0 57 8.5t60.5 30.5t56 54.5t40 86.5
t15.5 122q0 84 -23 147t-59 95.5t-71.5 47.5t-69.5 15q-61 0 -108 -24.5t-73 -59.5t-42.5 -80t-21.5 -78t-5 -61t5 -61.5t21 -78t41.5 -79.5t71.5 -60t105 -25zM492 -399v297h286v-297h-286z" />
    <glyph glyph-name="uni1E0E" unicode="&#x1e0e;" horiz-adv-x="1554" 
d="M471 256h213q222 0 346.5 124.5t124.5 342.5t-124.5 342.5t-346.5 124.5h-213v-934zM143 0v1446h582q219 0 390 -86t269.5 -251.5t98.5 -385.5t-98.5 -385.5t-269.5 -251.5t-390 -86h-582zM352 -307v207h697v-207h-697z" />
    <glyph glyph-name="uni1E0F" unicode="&#x1e0f;" horiz-adv-x="1222" 
d="M840 0v111q-38 -59 -126 -97.5t-169 -38.5q-85 0 -156.5 22t-120 57t-86.5 82.5t-60 95t-36 99t-18.5 90t-4.5 71.5t4.5 72t18.5 90.5t36 99.5t60 96t86.5 83t120 57t156.5 22q166 0 278 -115v549h287v-1446h-270zM594 190q28 0 57 8.5t60.5 30.5t56 54.5t40 86.5
t15.5 122q0 84 -23 147t-59 95.5t-71.5 47.5t-69.5 15q-61 0 -108 -24.5t-73 -59.5t-42.5 -80t-21.5 -78t-5 -61t5 -61.5t21 -78t41.5 -79.5t71.5 -60t105 -25zM285 -307v207h696v-207h-696z" />
    <glyph glyph-name="uni1E10" unicode="&#x1e10;" horiz-adv-x="1554" 
d="M471 256h213q222 0 346.5 124.5t124.5 342.5t-124.5 342.5t-346.5 124.5h-213v-934zM143 0v1446h582q219 0 390 -86t269.5 -251.5t98.5 -385.5t-98.5 -385.5t-269.5 -251.5t-390 -86h-582zM518 -481l70 379h256l-172 -379h-154z" />
    <glyph glyph-name="uni1E11" unicode="&#x1e11;" horiz-adv-x="1222" 
d="M840 0v111q-38 -59 -126 -97.5t-169 -38.5q-85 0 -156.5 22t-120 57t-86.5 82.5t-60 95t-36 99t-18.5 90t-4.5 71.5t4.5 72t18.5 90.5t36 99.5t60 96t86.5 83t120 57t156.5 22q166 0 278 -115v549h287v-1446h-270zM594 190q28 0 57 8.5t60.5 30.5t56 54.5t40 86.5
t15.5 122q0 84 -23 147t-59 95.5t-71.5 47.5t-69.5 15q-61 0 -108 -24.5t-73 -59.5t-42.5 -80t-21.5 -78t-5 -61t5 -61.5t21 -78t41.5 -79.5t71.5 -60t105 -25zM455 -481l69 379h256l-172 -379h-153z" />
    <glyph glyph-name="uni1E1E" unicode="&#x1e1e;" horiz-adv-x="1275" 
d="M143 0v1446h1076v-256h-748v-322h703v-256h-703v-612h-328zM537 1612v297h286v-297h-286z" />
    <glyph glyph-name="uni1E1F" unicode="&#x1e1f;" horiz-adv-x="749" 
d="M231 0v772h-206v215h206v176q0 129 83 215t225 86q133 0 184 -10v-215q-46 4 -98 4q-107 0 -107 -153v-103h205v-215h-205v-772h-287zM336 1608v297h287v-297h-287z" />
    <glyph glyph-name="uni1E20" unicode="&#x1e20;" horiz-adv-x="1599" 
d="M1188 0v137q-70 -88 -175.5 -130t-228.5 -42q-104 0 -206.5 32.5t-193.5 97t-161 154t-110.5 212.5t-40.5 262q0 164 57.5 306t157.5 241t238.5 155t297.5 56q77 0 147.5 -11.5t146.5 -41t140.5 -76t125 -121t104.5 -170.5l-320 -78q-45 89 -105.5 145t-118 76.5
t-120.5 20.5q-181 0 -302.5 -142t-121.5 -360q0 -112 34.5 -208t92.5 -159.5t132.5 -99t154.5 -35.5q46 0 91.5 9.5t94.5 35.5t87 66t66 106t36 150h-451v256h758v-844h-307zM475 1698v207h696v-207h-696z" />
    <glyph glyph-name="uni1E21" unicode="&#x1e21;" horiz-adv-x="1222" 
d="M102 -139l287 59q44 -186 219 -186q51 0 91 19.5t62.5 48t37 65t19.5 65.5t5 54v127q-50 -50 -127 -81.5t-151 -31.5q-86 0 -157.5 20.5t-120 53.5t-86.5 78t-59.5 90.5t-35.5 95t-18.5 86.5t-4.5 70t4.5 72t18.5 90.5t36 99t60 95.5t86.5 82.5t120 56.5t156.5 22
q81 0 169 -38t126 -97v110h270v-1010q0 -95 -33 -178t-94.5 -145.5t-158 -98.5t-216.5 -36q-90 0 -168.5 21.5t-134 56t-98.5 80.5t-68 91.5t-37 92.5zM594 215q29 0 58.5 9t60.5 31t55 54.5t39.5 83.5t15.5 113t-15.5 113t-39.5 83.5t-55 54.5t-60.5 31t-58.5 9
q-58 0 -104 -25t-71.5 -60.5t-42 -79t-21.5 -74t-5 -52.5q0 -32 5 -65.5t21 -75.5t41.5 -74t71.5 -54t105 -22zM264 1235v207h697v-207h-697z" />
    <glyph glyph-name="uni1E22" unicode="&#x1e22;" horiz-adv-x="1570" 
d="M143 0v1446h328v-578h629v578h327v-1446h-327v612h-629v-612h-328zM641 1612v297h287v-297h-287z" />
    <glyph glyph-name="uni1E23" unicode="&#x1e23;" horiz-adv-x="1150" 
d="M113 0v1446h278v-578q8 19 27.5 40.5t53.5 46.5t92.5 41t129.5 16q202 0 293 -148q62 -100 62 -233v-631h-287v629q0 57 -27 100q-39 68 -129 68q-74 0 -127 -43q-82 -64 -82 -203v-551h-284zM557 1153v297h287v-297h-287z" />
    <glyph glyph-name="uni1E24" unicode="&#x1e24;" horiz-adv-x="1570" 
d="M143 0v1446h328v-578h629v578h327v-1446h-327v612h-629v-612h-328zM645 -399v297h287v-297h-287z" />
    <glyph glyph-name="uni1E25" unicode="&#x1e25;" horiz-adv-x="1150" 
d="M113 0v1446h278v-578q8 19 27.5 40.5t53.5 46.5t92.5 41t129.5 16q202 0 293 -148q62 -100 62 -233v-631h-287v629q0 57 -27 100q-39 68 -129 68q-74 0 -127 -43q-82 -64 -82 -203v-551h-284zM438 -399v297h287v-297h-287z" />
    <glyph glyph-name="uni1E2A" unicode="&#x1e2a;" horiz-adv-x="1570" 
d="M143 0v1446h328v-578h629v578h327v-1446h-327v612h-629v-612h-328zM444 -139v39h205v-39q0 -80 33.5 -130t101.5 -50q69 0 103.5 50t34.5 130v39h204v-39q0 -164 -95 -262.5t-247 -98.5t-246 98.5t-94 262.5z" />
    <glyph glyph-name="uni1E2B" unicode="&#x1e2b;" horiz-adv-x="1150" 
d="M113 0v1446h278v-578q8 19 27.5 40.5t53.5 46.5t92.5 41t129.5 16q202 0 293 -148q62 -100 62 -233v-631h-287v629q0 57 -27 100q-39 68 -129 68q-74 0 -127 -43q-82 -64 -82 -203v-551h-284zM240 -139v39h204v-39q0 -80 34 -130t102 -50q69 0 103 50t34 130v39h205v-39
q0 -164 -95 -262.5t-247 -98.5t-246 98.5t-94 262.5z" />
    <glyph glyph-name="uni1E36" unicode="&#x1e36;" horiz-adv-x="1214" 
d="M143 0v1446h328v-1190h719v-256h-1047zM526 -399v297h287v-297h-287z" />
    <glyph glyph-name="uni1E37" unicode="&#x1e37;" horiz-adv-x="512" 
d="M113 0v1446h286v-1446h-286zM115 -399v297h286v-297h-286z" />
    <glyph glyph-name="uni1E38" unicode="&#x1e38;" horiz-adv-x="1214" 
d="M143 0v1446h328v-1190h719v-256h-1047zM526 -399v297h287v-297h-287zM317 1698v207h697v-207h-697z" />
    <glyph glyph-name="uni1E39" unicode="&#x1e39;" horiz-adv-x="512" 
d="M113 0v1446h286v-1446h-286zM115 -399v297h286v-297h-286zM-92 1694v207h696v-207h-696z" />
    <glyph glyph-name="uni1E3A" unicode="&#x1e3a;" horiz-adv-x="1214" 
d="M143 0v1446h328v-1190h719v-256h-1047zM317 -307v207h697v-207h-697z" />
    <glyph glyph-name="uni1E3B" unicode="&#x1e3b;" horiz-adv-x="512" 
d="M113 0v1446h286v-1446h-286zM-92 -307v207h696v-207h-696z" />
    <glyph glyph-name="uni1E3E" unicode="&#x1e3e;" horiz-adv-x="1945" 
d="M143 0v1446h475l355 -1129l354 1129h475v-1446h-297v1120l-350 -1120h-364l-351 1120v-1120h-297zM864 1565l168 379h273l-222 -379h-219z" />
    <glyph glyph-name="uni1E3F" unicode="&#x1e3f;" horiz-adv-x="1665" 
d="M113 0v987h278v-119q8 20 22.5 40.5t44 46t81.5 41.5t118 16q68 0 120 -17t100 -63q27 -25 55 -66q71 146 268 146q193 0 287 -127q76 -106 76 -254v-631h-287v633q0 21 -5 45t-17 53t-39.5 47.5t-65.5 18.5q-34 0 -70.5 -21t-56.5 -53q-41 -64 -41 -170v-553h-285v633
q0 16 -2.5 34.5t-11 42.5t-21.5 42.5t-36.5 31.5t-53.5 13q-37 0 -74 -21t-59 -53q-39 -61 -39 -172v-551h-286zM717 1102l168 379h272l-221 -379h-219z" />
    <glyph glyph-name="uni1E40" unicode="&#x1e40;" horiz-adv-x="1945" 
d="M143 0v1446h475l355 -1129l354 1129h475v-1446h-297v1120l-350 -1120h-364l-351 1120v-1120h-297zM829 1612v297h287v-297h-287z" />
    <glyph glyph-name="uni1E41" unicode="&#x1e41;" horiz-adv-x="1665" 
d="M113 0v987h278v-119q8 20 22.5 40.5t44 46t81.5 41.5t118 16q68 0 120 -17t100 -63q27 -25 55 -66q71 146 268 146q193 0 287 -127q76 -106 76 -254v-631h-287v633q0 21 -5 45t-17 53t-39.5 47.5t-65.5 18.5q-34 0 -70.5 -21t-56.5 -53q-41 -64 -41 -170v-553h-285v633
q0 16 -2.5 34.5t-11 42.5t-21.5 42.5t-36.5 31.5t-53.5 13q-37 0 -74 -21t-59 -53q-39 -61 -39 -172v-551h-286zM692 1149v297h287v-297h-287z" />
    <glyph glyph-name="uni1E42" unicode="&#x1e42;" horiz-adv-x="1945" 
d="M143 0v1446h475l355 -1129l354 1129h475v-1446h-297v1120l-350 -1120h-364l-351 1120v-1120h-297zM834 -399v297h286v-297h-286z" />
    <glyph glyph-name="uni1E43" unicode="&#x1e43;" horiz-adv-x="1665" 
d="M113 0v987h278v-119q8 20 22.5 40.5t44 46t81.5 41.5t118 16q68 0 120 -17t100 -63q27 -25 55 -66q71 146 268 146q193 0 287 -127q76 -106 76 -254v-631h-287v633q0 21 -5 45t-17 53t-39.5 47.5t-65.5 18.5q-34 0 -70.5 -21t-56.5 -53q-41 -64 -41 -170v-553h-285v633
q0 16 -2.5 34.5t-11 42.5t-21.5 42.5t-36.5 31.5t-53.5 13q-37 0 -74 -21t-59 -53q-39 -61 -39 -172v-551h-286zM696 -399v297h287v-297h-287z" />
    <glyph glyph-name="uni1E44" unicode="&#x1e44;" horiz-adv-x="1640" 
d="M143 0v1446h432l635 -1131v1131h287v-1446h-434l-633 1124v-1124h-287zM676 1612v297h287v-297h-287z" />
    <glyph glyph-name="uni1E45" unicode="&#x1e45;" horiz-adv-x="1142" 
d="M113 0v987h278v-119q8 19 27 40.5t52.5 46.5t90.5 41t127 16q200 0 291 -148q61 -102 61 -233v-631h-286v629q0 50 -27 100q-39 68 -125 68q-72 0 -125 -43q-78 -61 -78 -203v-551h-286zM428 1149v297h287v-297h-287z" />
    <glyph glyph-name="uni1E46" unicode="&#x1e46;" horiz-adv-x="1640" 
d="M143 0v1446h432l635 -1131v1131h287v-1446h-434l-633 1124v-1124h-287zM680 -399v297h287v-297h-287z" />
    <glyph glyph-name="uni1E47" unicode="&#x1e47;" horiz-adv-x="1142" 
d="M113 0v987h278v-119q8 19 27 40.5t52.5 46.5t90.5 41t127 16q200 0 291 -148q61 -102 61 -233v-631h-286v629q0 50 -27 100q-39 68 -125 68q-72 0 -125 -43q-78 -61 -78 -203v-551h-286zM434 -399v297h287v-297h-287z" />
    <glyph glyph-name="uni1E48" unicode="&#x1e48;" horiz-adv-x="1640" 
d="M143 0v1446h432l635 -1131v1131h287v-1446h-434l-633 1124v-1124h-287zM471 -307v207h696v-207h-696z" />
    <glyph glyph-name="uni1E49" unicode="&#x1e49;" horiz-adv-x="1142" 
d="M113 0v987h278v-119q8 19 27 40.5t52.5 46.5t90.5 41t127 16q200 0 291 -148q61 -102 61 -233v-631h-286v629q0 50 -27 100q-39 68 -125 68q-72 0 -125 -43q-78 -61 -78 -203v-551h-286zM227 -307v207h697v-207h-697z" />
    <glyph glyph-name="uni1E56" unicode="&#x1e56;" horiz-adv-x="1392" 
d="M143 0v1446h744q57 0 113.5 -9.5t122 -38t114.5 -73.5t82 -124.5t33 -182.5t-33 -182.5t-82 -124.5t-114.5 -73.5t-122 -38t-113.5 -9.5h-416v-590h-328zM471 846h360q94 0 146.5 37.5t52.5 134.5t-52.5 134.5t-146.5 37.5h-360v-344zM578 1612v297h286v-297h-286z" />
    <glyph glyph-name="uni1E57" unicode="&#x1e57;" horiz-adv-x="1222" 
d="M113 -457v1444h270v-110q40 59 127.5 97t167.5 38q85 0 156.5 -22t120 -56.5t86.5 -82t59.5 -95.5t35.5 -99t18.5 -89.5t4.5 -71.5t-4.5 -72t-18.5 -91t-36 -100t-59.5 -96t-86.5 -83t-120.5 -57t-157.5 -22q-165 0 -277 115v-547h-286zM623 190q60 0 107 24.5t73 60
t42.5 80t21.5 78t5 61.5q0 22 -4 49t-13 63t-27 68.5t-43.5 60.5t-66 45t-89.5 17q-29 0 -58.5 -8.5t-61 -30t-56 -54t-40.5 -86.5t-16 -122t16 -123t40 -88t55 -55.5t59.5 -31t55.5 -8.5zM530 1149v297h287v-297h-287z" />
    <glyph glyph-name="uni1E5A" unicode="&#x1e5a;" horiz-adv-x="1460" 
d="M143 0v1446h691q98 0 184.5 -22.5t156.5 -67.5t111 -119t41 -170q0 -69 -16 -126t-40.5 -93t-56 -62.5t-59 -39t-53.5 -17.5q111 -30 168 -92.5t57 -183.5v-226q0 -138 84 -227h-348q-55 57 -55 188v201q0 88 -40 142.5t-120 54.5h-387v-586h-318zM461 842h342
q95 0 151 45t56 139q0 82 -56 123t-149 41h-344v-348zM582 -399v297h286v-297h-286z" />
    <glyph glyph-name="uni1E5B" unicode="&#x1e5b;" horiz-adv-x="751" 
d="M113 0v987h278v-121q38 67 107 106.5t159 39.5q50 0 70 -2v-252q-20 4 -82 4q-139 0 -203 -90q-43 -59 -43 -158v-514h-286zM115 -399v297h286v-297h-286z" />
    <glyph glyph-name="uni1E5C" unicode="&#x1e5c;" horiz-adv-x="1460" 
d="M143 0v1446h691q98 0 184.5 -22.5t156.5 -67.5t111 -119t41 -170q0 -69 -16 -126t-40.5 -93t-56 -62.5t-59 -39t-53.5 -17.5q111 -30 168 -92.5t57 -183.5v-226q0 -138 84 -227h-348q-55 57 -55 188v201q0 88 -40 142.5t-120 54.5h-387v-586h-318zM461 842h342
q95 0 151 45t56 139q0 82 -56 123t-149 41h-344v-348zM582 -399v297h286v-297h-286zM332 1698v207h696v-207h-696z" />
    <glyph glyph-name="uni1E5D" unicode="&#x1e5d;" horiz-adv-x="751" 
d="M113 0v987h278v-121q38 67 107 106.5t159 39.5q50 0 70 -2v-252q-20 4 -82 4q-139 0 -203 -90q-43 -59 -43 -158v-514h-286zM115 -399v297h286v-297h-286zM90 1235v207h696v-207h-696z" />
    <glyph glyph-name="uni1E5E" unicode="&#x1e5e;" horiz-adv-x="1460" 
d="M143 0v1446h691q98 0 184.5 -22.5t156.5 -67.5t111 -119t41 -170q0 -69 -16 -126t-40.5 -93t-56 -62.5t-59 -39t-53.5 -17.5q111 -30 168 -92.5t57 -183.5v-226q0 -138 84 -227h-348q-55 57 -55 188v201q0 88 -40 142.5t-120 54.5h-387v-586h-318zM461 842h342
q95 0 151 45t56 139q0 82 -56 123t-149 41h-344v-348zM373 -307v207h696v-207h-696z" />
    <glyph glyph-name="uni1E5F" unicode="&#x1e5f;" horiz-adv-x="751" 
d="M113 0v987h278v-121q38 67 107 106.5t159 39.5q50 0 70 -2v-252q-20 4 -82 4q-139 0 -203 -90q-43 -59 -43 -158v-514h-286zM-92 -307v207h696v-207h-696z" />
    <glyph glyph-name="uni1E60" unicode="&#x1e60;" horiz-adv-x="1400" 
d="M47 457l326 71q0 -151 91.5 -229t248.5 -78q128 0 210.5 58.5t82.5 134.5q0 74 -51.5 111t-161.5 61l-228 47q-64 13 -99 21t-92.5 26t-90 37t-73 51t-61.5 70t-36 93.5t-15 123.5q0 99 50 181.5t134 135t190 81t222 28.5q124 0 223 -26t163.5 -67.5t111 -100.5
t70 -116.5t36.5 -123.5l-313 -70q-15 120 -92 184t-199 64q-123 0 -198.5 -44t-75.5 -126q0 -30 12.5 -53.5t29.5 -38t45 -26.5t47 -17t48 -11l287 -61q41 -9 71.5 -16.5t80 -24.5t86.5 -36.5t78.5 -51.5t68.5 -69.5t45 -90.5t18 -115q0 -100 -42 -187t-121 -152
t-200.5 -102.5t-271.5 -37.5q-258 0 -427.5 120t-227.5 372zM551 1612v297h287v-297h-287z" />
    <glyph glyph-name="uni1E61" unicode="&#x1e61;" horiz-adv-x="1048" 
d="M51 299l275 61q20 -92 63.5 -136t126.5 -44q80 0 131 30t51 81t-36.5 71.5t-139.5 36.5l-53 9q-92 15 -156 34t-120.5 53.5t-84.5 90t-28 133.5q0 33 13 69t47 77t83.5 73t131 53t182.5 21q143 0 261 -77t156 -214l-247 -64q-22 82 -63 116t-124 34q-71 0 -118.5 -22
t-47.5 -64q0 -19 7 -34t22 -25.5t29.5 -18t37.5 -12.5t38 -8t39.5 -6t33.5 -5l53 -8q60 -11 102.5 -21.5t97.5 -33t89.5 -51.5t59 -76.5t24.5 -108.5q0 -161 -130.5 -249.5t-340.5 -88.5q-180 0 -306.5 87t-158.5 237zM371 1149v297h286v-297h-286z" />
    <glyph glyph-name="uni1E62" unicode="&#x1e62;" horiz-adv-x="1400" 
d="M47 457l326 71q0 -151 91.5 -229t248.5 -78q128 0 210.5 58.5t82.5 134.5q0 74 -51.5 111t-161.5 61l-228 47q-64 13 -99 21t-92.5 26t-90 37t-73 51t-61.5 70t-36 93.5t-15 123.5q0 99 50 181.5t134 135t190 81t222 28.5q124 0 223 -26t163.5 -67.5t111 -100.5
t70 -116.5t36.5 -123.5l-313 -70q-15 120 -92 184t-199 64q-123 0 -198.5 -44t-75.5 -126q0 -30 12.5 -53.5t29.5 -38t45 -26.5t47 -17t48 -11l287 -61q41 -9 71.5 -16.5t80 -24.5t86.5 -36.5t78.5 -51.5t68.5 -69.5t45 -90.5t18 -115q0 -100 -42 -187t-121 -152
t-200.5 -102.5t-271.5 -37.5q-258 0 -427.5 120t-227.5 372zM563 -399v297h287v-297h-287z" />
    <glyph glyph-name="uni1E63" unicode="&#x1e63;" horiz-adv-x="1048" 
d="M51 299l275 61q20 -92 63.5 -136t126.5 -44q80 0 131 30t51 81t-36.5 71.5t-139.5 36.5l-53 9q-92 15 -156 34t-120.5 53.5t-84.5 90t-28 133.5q0 33 13 69t47 77t83.5 73t131 53t182.5 21q143 0 261 -77t156 -214l-247 -64q-22 82 -63 116t-124 34q-71 0 -118.5 -22
t-47.5 -64q0 -19 7 -34t22 -25.5t29.5 -18t37.5 -12.5t38 -8t39.5 -6t33.5 -5l53 -8q60 -11 102.5 -21.5t97.5 -33t89.5 -51.5t59 -76.5t24.5 -108.5q0 -161 -130.5 -249.5t-340.5 -88.5q-180 0 -306.5 87t-158.5 237zM362 -399v297h287v-297h-287z" />
    <glyph glyph-name="uni1E6A" unicode="&#x1e6a;" horiz-adv-x="1261" 
d="M467 0v1190h-447v256h1221v-256h-446v-1190h-328zM487 1612v297h287v-297h-287z" />
    <glyph glyph-name="uni1E6B" unicode="&#x1e6b;" horiz-adv-x="759" 
d="M215 215v557h-190v215h190v326h287v-326h192v-215h-192v-434q0 -60 22 -90.5t74 -30.5q56 0 96 6v-227q-78 -12 -155 -12q-64 0 -118 10.5t-102.5 35.5t-76 72t-27.5 113zM215 1608v297h287v-297h-287z" />
    <glyph glyph-name="uni1E6C" unicode="&#x1e6c;" horiz-adv-x="1261" 
d="M467 0v1190h-447v256h1221v-256h-446v-1190h-328zM492 -399v297h286v-297h-286z" />
    <glyph glyph-name="uni1E6D" unicode="&#x1e6d;" horiz-adv-x="759" 
d="M215 215v557h-190v215h190v326h287v-326h192v-215h-192v-434q0 -60 22 -90.5t74 -30.5q56 0 96 6v-227q-78 -12 -155 -12q-64 0 -118 10.5t-102.5 35.5t-76 72t-27.5 113zM254 -399v297h287v-297h-287z" />
    <glyph glyph-name="uni1E6E" unicode="&#x1e6e;" horiz-adv-x="1261" 
d="M467 0v1190h-447v256h1221v-256h-446v-1190h-328zM283 -307v207h696v-207h-696z" />
    <glyph glyph-name="uni1E6F" unicode="&#x1e6f;" horiz-adv-x="759" 
d="M215 215v557h-190v215h190v326h287v-326h192v-215h-192v-434q0 -60 22 -90.5t74 -30.5q56 0 96 6v-227q-78 -12 -155 -12q-64 0 -118 10.5t-102.5 35.5t-76 72t-27.5 113zM47 -307v207h696v-207h-696z" />
    <glyph glyph-name="uni1E7C" unicode="&#x1e7c;" horiz-adv-x="1486" 
d="M573 0l-579 1446h321l428 -1098l428 1098h322l-580 -1446h-340zM395 1638v220q32 32 94.5 55.5t110.5 23.5q16 0 32.5 -1.5t26 -2.5t26.5 -5t21 -5t24.5 -7.5t21.5 -6.5q14 -4 43.5 -16t55 -18.5t52.5 -6.5q57 0 106.5 25.5t82.5 66.5v-219q-32 -32 -94.5 -56t-110.5 -24
q-16 0 -32 1.5t-27 3t-25.5 5t-22 5.5t-23.5 7t-22 7q-14 4 -43.5 16t-55 18.5t-52.5 6.5q-57 0 -106.5 -26t-82.5 -67z" />
    <glyph glyph-name="uni1E7D" unicode="&#x1e7d;" horiz-adv-x="1085" 
d="M375 0l-365 987h293l244 -682l244 682h284l-364 -987h-336zM199 1176v219q32 32 94 56t110 24q16 0 32 -1.5t27 -3t25.5 -5t22 -5.5t23.5 -7t22 -7q13 -4 43.5 -16t56 -18.5t52.5 -6.5q57 0 106 25.5t82 66.5v-219q-32 -32 -94.5 -56t-110.5 -24q-20 0 -36.5 1.5t-34 5
t-25.5 5.5t-29 9t-26 8q-13 4 -43.5 16t-56 18.5t-52.5 6.5q-57 0 -106 -25.5t-82 -66.5z" />
    <glyph glyph-name="Wgrave" unicode="&#x1e80;" horiz-adv-x="2150" 
d="M420 0l-412 1446h316l290 -1118l269 1118h385l268 -1118l291 1118h315l-411 -1446h-398l-258 1155l-258 -1155h-397zM975 1565l-221 379h272l168 -379h-219z" />
    <glyph glyph-name="wgrave" unicode="&#x1e81;" horiz-adv-x="1626" 
d="M319 0l-309 987h283l182 -645l184 645h308l184 -647l182 647h283l-309 -987h-314l-180 637l-180 -637h-314zM723 1106l-221 379h272l168 -379h-219z" />
    <glyph glyph-name="Wacute" unicode="&#x1e82;" horiz-adv-x="2150" 
d="M420 0l-412 1446h316l290 -1118l269 1118h385l268 -1118l291 1118h315l-411 -1446h-398l-258 1155l-258 -1155h-397zM967 1565l168 379h272l-221 -379h-219z" />
    <glyph glyph-name="wacute" unicode="&#x1e83;" horiz-adv-x="1626" 
d="M319 0l-309 987h283l182 -645l184 645h308l184 -647l182 647h283l-309 -987h-314l-180 637l-180 -637h-314zM698 1106l168 379h273l-221 -379h-220z" />
    <glyph glyph-name="Wdieresis" unicode="&#x1e84;" horiz-adv-x="2150" 
d="M420 0l-412 1446h316l290 -1118l269 1118h385l268 -1118l291 1118h315l-411 -1446h-398l-258 1155l-258 -1155h-397zM733 1612v297h297v-297h-297zM1120 1612v297h297v-297h-297z" />
    <glyph glyph-name="wdieresis" unicode="&#x1e85;" horiz-adv-x="1626" 
d="M319 0l-309 987h283l182 -645l184 645h308l184 -647l182 647h283l-309 -987h-314l-180 637l-180 -637h-314zM475 1153v297h297v-297h-297zM862 1153v297h297v-297h-297z" />
    <glyph glyph-name="uni1E8A" unicode="&#x1e8a;" horiz-adv-x="1470" 
d="M-43 0l594 764l-516 682h375l342 -477l329 477h367l-526 -680l585 -766h-381l-399 555l-393 -555h-377zM598 1612v297h287v-297h-287z" />
    <glyph glyph-name="uni1E8B" unicode="&#x1e8b;" horiz-adv-x="1046" 
d="M-6 0l366 514l-335 473h321l189 -278l182 278h319l-348 -475l356 -512h-319l-197 309l-211 -309h-323zM391 1153v297h287v-297h-287z" />
    <glyph glyph-name="uni1E92" unicode="&#x1e92;" horiz-adv-x="1347" 
d="M63 0v266l775 914h-742v266h1143v-266l-801 -914h854v-266h-1229zM539 -399v297h286v-297h-286z" />
    <glyph glyph-name="uni1E93" unicode="&#x1e93;" horiz-adv-x="1009" 
d="M51 0v217l518 549h-477v221h842v-205l-520 -559h534v-223h-897zM358 -399v297h287v-297h-287z" />
    <glyph glyph-name="uni1E97" unicode="&#x1e97;" horiz-adv-x="759" 
d="M215 215v557h-190v215h190v326h287v-326h192v-215h-192v-434q0 -60 22 -90.5t74 -30.5q56 0 96 6v-227q-78 -12 -155 -12q-64 0 -118 10.5t-102.5 35.5t-76 72t-27.5 113zM16 1608v297h297v-297h-297zM403 1608v297h297v-297h-297z" />
    <glyph glyph-name="uni1E9E" unicode="&#x1e9e;" horiz-adv-x="1515" 
d="M842 -35q-174 0 -299 35v266q125 -43 282 -43q150 0 224.5 63.5t74.5 157.5q0 83 -66 142t-198 59h-182v207l276 336h-155q-150 0 -245 -77.5t-95 -231.5v-879h-330v893q0 135 51 241t143 173.5t217 103t275 35.5h475v-254l-270 -324h22q125 -3 219 -61.5t142.5 -153
t48.5 -209.5q0 -218 -163 -348.5t-447 -130.5z" />
    <glyph glyph-name="uni1EA0" unicode="&#x1ea0;" horiz-adv-x="1523" 
d="M-6 0l584 1446h368l584 -1446h-338l-145 389h-572l-143 -389h-338zM567 635h389l-194 522zM623 -399v297h286v-297h-286z" />
    <glyph glyph-name="uni1EA1" unicode="&#x1ea1;" horiz-adv-x="1103" 
d="M1012 0h-285q-2 8 -9 58t-7 53q-86 -136 -295 -136q-158 0 -256.5 90.5t-98.5 210.5q0 70 22 123t55 85.5t89.5 56.5t108.5 36.5t129 24.5q2 0 74 10.5t75 10.5q67 10 90 28t23 49q0 54 -46.5 80.5t-115.5 26.5q-191 0 -194 -174l-275 63q25 164 168 246q126 70 301 70
q89 0 164.5 -20.5t136.5 -62t96 -112t35 -164.5v-370q0 -208 15 -283zM348 299q0 -46 40 -82.5t95 -36.5q26 0 53.5 4.5t59.5 18.5t57 35.5t41.5 58.5t16.5 84v74q-1 0 -43 -6.5t-43 -6.5l-82 -14q-36 -6 -59 -11t-51.5 -15t-45 -22.5t-28 -33t-11.5 -47.5zM403 -399v297
h287v-297h-287z" />
    <glyph glyph-name="uni1EB8" unicode="&#x1eb8;" horiz-adv-x="1323" 
d="M143 0v1446h1074v-256h-746v-322h717v-256h-717v-356h760v-256h-1088zM541 -399v297h286v-297h-286z" />
    <glyph glyph-name="uni1EB9" unicode="&#x1eb9;" horiz-adv-x="1114" 
d="M768 350l256 -65q-27 -117 -151.5 -213.5t-290.5 -96.5q-129 0 -231 44t-163.5 117.5t-93 164.5t-31.5 191q0 102 33 195t94 166t156.5 116t212.5 43q101 0 191.5 -37t156.5 -102.5t105 -161t39 -205.5q0 -60 -4 -96h-697q4 -107 62 -168.5t147 -61.5q165 0 209 170z
M350 616h418q0 80 -55 135.5t-154 55.5q-95 0 -152 -53.5t-57 -137.5zM399 -399v297h287v-297h-287z" />
    <glyph glyph-name="uni1EBC" unicode="&#x1ebc;" horiz-adv-x="1323" 
d="M143 0v1446h1074v-256h-746v-322h717v-256h-717v-356h760v-256h-1088zM332 1638v220q32 32 94.5 55.5t110.5 23.5q16 0 32 -1.5t26 -2.5t26 -5t21.5 -5.5t23.5 -7t22 -6.5q13 -4 43.5 -16t56 -18.5t52.5 -6.5q57 0 106 25.5t82 66.5v-219q-32 -32 -94.5 -56t-110.5 -24
q-20 0 -36.5 1.5t-34 5t-25.5 5.5t-29 9t-26 8q-13 4 -43.5 16t-56 18.5t-52.5 6.5q-57 0 -106 -26t-82 -67z" />
    <glyph glyph-name="uni1EBD" unicode="&#x1ebd;" horiz-adv-x="1114" 
d="M768 350l256 -65q-27 -117 -151.5 -213.5t-290.5 -96.5q-129 0 -231 44t-163.5 117.5t-93 164.5t-31.5 191q0 102 33 195t94 166t156.5 116t212.5 43q101 0 191.5 -37t156.5 -102.5t105 -161t39 -205.5q0 -60 -4 -96h-697q4 -107 62 -168.5t147 -61.5q165 0 209 170z
M350 616h418q0 80 -55 135.5t-154 55.5q-95 0 -152 -53.5t-57 -137.5zM211 1176v219q32 32 94.5 56t110.5 24q20 0 36.5 -1.5t34 -5t25.5 -5.5t29 -9t26 -8q13 -4 43.5 -16t56 -18.5t52.5 -6.5q57 0 106 25.5t82 66.5v-219q-32 -32 -94.5 -56t-110.5 -24q-20 0 -36.5 1.5
t-34 5t-25.5 5.5t-29 9t-26 8q-13 4 -43.5 16t-56 18.5t-52.5 6.5q-57 0 -106 -25.5t-82 -66.5z" />
    <glyph glyph-name="uni1ECA" unicode="&#x1eca;" horiz-adv-x="614" 
d="M143 0v1446h328v-1446h-328zM168 -399v297h287v-297h-287z" />
    <glyph glyph-name="uni1ECB" unicode="&#x1ecb;" horiz-adv-x="512" 
d="M113 0v987h286v-987h-286zM113 1151v295h286v-295h-286zM115 -399v297h286v-297h-286z" />
    <glyph glyph-name="uni1ECC" unicode="&#x1ecc;" horiz-adv-x="1656" 
d="M831 221q107 0 190.5 42t133.5 113.5t76 158.5t26 184t-26 185t-76 161t-134 116.5t-190 43.5q-109 0 -194 -43.5t-135.5 -116.5t-76.5 -161t-26 -185q0 -77 15.5 -148t50 -135t84 -111.5t122 -75.5t160.5 -28zM831 -35q-154 0 -281.5 42t-214.5 114t-147.5 169t-88 205
t-27.5 224t27.5 224.5t88 206.5t147.5 171.5t215 116.5t281 43q152 0 278.5 -43t213 -116.5t147 -171.5t88 -206.5t27.5 -224.5t-27.5 -224t-88 -205t-147 -169t-213 -114t-278.5 -42zM692 -399v297h287v-297h-287z" />
    <glyph glyph-name="uni1ECD" unicode="&#x1ecd;" horiz-adv-x="1153" 
d="M578 190q56 0 101 27.5t71.5 72.5t40.5 97t14 105q0 74 -23 141t-76.5 115.5t-127.5 48.5t-128 -48.5t-78 -116t-24 -140.5q0 -72 24 -139t78 -115t128 -48zM578 -25q-120 0 -220 45t-163.5 119t-98.5 165.5t-35 187.5q0 97 35 189t98.5 166t163.5 119.5t220 45.5
t219.5 -45.5t162.5 -119.5t97.5 -166t34.5 -189q0 -96 -34.5 -187.5t-97.5 -165.5t-162.5 -119t-219.5 -45zM436 -399v297h287v-297h-287z" />
    <glyph glyph-name="uni1EE4" unicode="&#x1ee4;" horiz-adv-x="1527" 
d="M129 535v911h328v-911q0 -156 85 -235t222 -79t222 79t85 235v911h328v-911q0 -143 -49.5 -254t-137 -179t-201 -102.5t-247.5 -34.5t-247.5 34.5t-201 102.5t-137 179t-49.5 254zM625 -399v297h286v-297h-286z" />
    <glyph glyph-name="uni1EE5" unicode="&#x1ee5;" horiz-adv-x="1142" 
d="M102 356v631h287v-629q0 -50 27 -100q39 -68 125 -68q72 0 125 43q77 60 77 203v551h287v-987h-278v119q-8 -19 -27 -40.5t-52.5 -46.5t-90.5 -41t-127 -16q-200 0 -291 148q-62 104 -62 233zM422 -399v297h287v-297h-287z" />
    <glyph glyph-name="Ygrave" unicode="&#x1ef2;" horiz-adv-x="1505" 
d="M596 0v655l-602 791h379l383 -553l381 553h370l-594 -791v-655h-317zM649 1565l-221 379h272l168 -379h-219z" />
    <glyph glyph-name="ygrave" unicode="&#x1ef3;" horiz-adv-x="1060" 
d="M80 -459v230q76 -13 86 -13q33 0 55 2.5t45.5 10t39 23t24.5 40.5l69 180l-389 973h303l236 -657l219 657h289l-482 -1263q-76 -197 -329 -197q-78 0 -166 14zM442 1106l-221 379h273l168 -379h-220z" />
    <glyph glyph-name="uni1EF8" unicode="&#x1ef8;" horiz-adv-x="1505" 
d="M596 0v655l-602 791h379l383 -553l381 553h370l-594 -791v-655h-317zM401 1638v220q32 32 94.5 55.5t110.5 23.5q16 0 32.5 -1.5t26 -2.5t26.5 -5t21 -5t24.5 -7.5t21.5 -6.5q14 -4 43.5 -16t55 -18.5t52.5 -6.5q57 0 106.5 25.5t82.5 66.5v-219q-32 -32 -94.5 -56
t-110.5 -24q-16 0 -32 1.5t-27 3t-25.5 5t-22 5.5t-23.5 7t-22 7q-14 4 -43.5 16t-55 18.5t-52.5 6.5q-57 0 -106.5 -26t-82.5 -67z" />
    <glyph glyph-name="uni1EF9" unicode="&#x1ef9;" horiz-adv-x="1060" 
d="M80 -459v230q76 -13 86 -13q33 0 55 2.5t45.5 10t39 23t24.5 40.5l69 180l-389 973h303l236 -657l219 657h289l-482 -1263q-76 -197 -329 -197q-78 0 -166 14zM199 1176v219q32 32 94 56t110 24q16 0 32 -1.5t27 -3t25.5 -5t22 -5.5t23.5 -7t22 -7q13 -4 43.5 -16
t56 -18.5t52.5 -6.5q57 0 106 25.5t82 66.5v-219q-32 -32 -94.5 -56t-110.5 -24q-20 0 -36.5 1.5t-34 5t-25.5 5.5t-29 9t-26 8q-13 4 -43.5 16t-56 18.5t-52.5 6.5q-57 0 -106 -25.5t-82 -66.5z" />
    <glyph glyph-name="uni2000" unicode="&#x2000;" horiz-adv-x="802" 
 />
    <glyph glyph-name="uni2001" unicode="&#x2001;" horiz-adv-x="1605" 
 />
    <glyph glyph-name="uni2002" unicode="&#x2002;" horiz-adv-x="802" 
 />
    <glyph glyph-name="uni2003" unicode="&#x2003;" horiz-adv-x="1605" 
 />
    <glyph glyph-name="uni2004" unicode="&#x2004;" horiz-adv-x="534" 
 />
    <glyph glyph-name="uni2005" unicode="&#x2005;" horiz-adv-x="401" 
 />
    <glyph glyph-name="uni2006" unicode="&#x2006;" horiz-adv-x="268" 
 />
    <glyph glyph-name="uni2007" unicode="&#x2007;" 
 />
    <glyph glyph-name="uni2008" unicode="&#x2008;" horiz-adv-x="548" 
 />
    <glyph glyph-name="uni2009" unicode="&#x2009;" horiz-adv-x="200" 
 />
    <glyph glyph-name="uni200A" unicode="&#x200a;" horiz-adv-x="67" 
 />
    <glyph glyph-name="uni200B" unicode="&#x200b;" horiz-adv-x="0" 
 />
    <glyph glyph-name="figuredash" unicode="&#x2012;" 
d="M195 524v252h927v-252h-927z" />
    <glyph glyph-name="endash" unicode="&#x2013;" horiz-adv-x="1157" 
d="M115 539v252h927v-252h-927z" />
    <glyph glyph-name="emdash" unicode="&#x2014;" horiz-adv-x="1679" 
d="M115 539v252h1450v-252h-1450z" />
    <glyph glyph-name="uni2015" unicode="&#x2015;" horiz-adv-x="1679" 
d="M115 539v252h1450v-252h-1450z" />
    <glyph glyph-name="quoteleft" unicode="&#x2018;" horiz-adv-x="567" 
d="M55 778l250 668h227l-184 -668h-293z" />
    <glyph glyph-name="quoteright" unicode="&#x2019;" horiz-adv-x="557" 
d="M66 778l184 668h293l-250 -668h-227z" />
    <glyph glyph-name="quotesinglbase" unicode="&#x201a;" horiz-adv-x="544" 
d="M-23 -344l185 668h293l-250 -668h-228z" />
    <glyph glyph-name="quotereversed" unicode="&#x201b;" horiz-adv-x="557" 
d="M307 1454l185 -668h-228l-250 668h293z" />
    <glyph glyph-name="quotedblleft" unicode="&#x201c;" horiz-adv-x="960" 
d="M55 778l250 668h227l-184 -668h-293zM449 778l249 668h228l-185 -668h-292z" />
    <glyph glyph-name="quotedblright" unicode="&#x201d;" horiz-adv-x="950" 
d="M66 778l184 668h293l-250 -668h-227zM459 778l184 668h293l-250 -668h-227z" />
    <glyph glyph-name="quotedblbase" unicode="&#x201e;" horiz-adv-x="937" 
d="M-23 -344l185 668h293l-250 -668h-228zM371 -344l184 668h293l-250 -668h-227z" />
    <glyph glyph-name="uni201F" unicode="&#x201f;" horiz-adv-x="950" 
d="M702 1446l185 -668h-228l-249 668h292zM309 1446l185 -668h-228l-250 668h293z" />
    <glyph glyph-name="dagger" unicode="&#x2020;" horiz-adv-x="1122" 
d="M424 -250v957h-377v260h377v479h276v-479h377v-260h-377v-957h-276z" />
    <glyph glyph-name="daggerdbl" unicode="&#x2021;" horiz-adv-x="1122" 
d="M426 -248v373h-326v250h326v477h-324v248h326v346h264v-346h330v-250h-330v-475h328v-252h-328v-371h-266z" />
    <glyph glyph-name="bullet" unicode="&#x2022;" horiz-adv-x="884" 
d="M442 408q-135 0 -231 96t-96 231t96 231.5t231 96.5t231.5 -96.5t96.5 -231.5t-96.5 -231t-231.5 -96z" />
    <glyph glyph-name="ellipsis" unicode="&#x2026;" horiz-adv-x="1687" 
d="M113 0v324h323v-324h-323zM682 0v324h324v-324h-324zM1251 0v324h324v-324h-324z" />
    <glyph glyph-name="perthousand" unicode="&#x2030;" horiz-adv-x="2539" 
d="M2111 131q70 0 110 77t40 175q0 100 -40 176t-110 76t-109.5 -76t-39.5 -176q0 -99 39.5 -175.5t109.5 -76.5zM2111 -18q-82 0 -149 35.5t-108.5 93t-64 128t-22.5 144.5q0 101 37.5 190.5t118 150t188.5 60.5q83 0 150 -35t109 -92.5t64 -128t22 -145.5
q0 -74 -22.5 -144.5t-64 -128.5t-108.5 -93t-150 -35zM430 811q70 0 110 77t40 175q0 100 -40 176t-110 76t-109.5 -76t-39.5 -176q0 -99 39.5 -175.5t109.5 -76.5zM430 662q-82 0 -149 35.5t-108.5 93t-64 128t-22.5 144.5q0 101 37.5 190.5t118 150t188.5 60.5
q109 0 189.5 -60.5t117.5 -150t37 -190.5q0 -59 -13.5 -116t-42 -108.5t-68.5 -91t-96.5 -62.5t-123.5 -23zM252 0l1032 1446h211l-1030 -1446h-213zM1309 131q70 0 109.5 76.5t39.5 175.5q0 100 -39.5 176t-109.5 76t-110 -76t-40 -176q0 -98 40 -175t110 -77zM1309 -18
q-82 0 -149 35.5t-108.5 93t-64 128t-22.5 144.5q0 101 37.5 190.5t118 150t188.5 60.5q109 0 189.5 -60.5t117.5 -150t37 -190.5q0 -59 -13.5 -116t-42 -108.5t-68.5 -91t-96.5 -62.5t-123.5 -23z" />
    <glyph glyph-name="uni2032" unicode="&#x2032;" horiz-adv-x="438" 
d="M121 778v668h196v-668h-196z" />
    <glyph glyph-name="uni2033" unicode="&#x2033;" horiz-adv-x="802" 
d="M121 778v668h198v-668h-198zM485 778v668h197v-668h-197z" />
    <glyph glyph-name="guilsinglleft" unicode="&#x2039;" horiz-adv-x="559" 
d="M82 535v229l356 223v-229l-211 -109l211 -108v-230z" />
    <glyph glyph-name="guilsinglright" unicode="&#x203a;" horiz-adv-x="559" 
d="M121 311v230l211 108l-211 109v229l356 -223v-229z" />
    <glyph glyph-name="fraction" unicode="&#x2044;" horiz-adv-x="266" 
d="M-487 0l1032 1446h211l-1030 -1446h-213z" />
    <glyph glyph-name="uni2070" unicode="&#x2070;" horiz-adv-x="737" 
d="M369 1159q70 0 109.5 76.5t39.5 175.5q0 100 -39.5 176t-109.5 76t-110 -76t-40 -176q0 -98 40 -175t110 -77zM369 1010q-82 0 -149 35.5t-108.5 93t-64 128t-22.5 144.5q0 101 37.5 190.5t118 150t188.5 60.5q109 0 189.5 -60.5t117.5 -150t37 -190.5q0 -59 -13.5 -116
t-42 -108.5t-68.5 -91t-96.5 -62.5t-123.5 -23z" />
    <glyph glyph-name="uni2074" unicode="&#x2074;" horiz-adv-x="737" 
d="M31 1202v137l309 455h219v-440h146v-152h-146v-174h-180v174h-348zM236 1354h143v233z" />
    <glyph glyph-name="uni2075" unicode="&#x2075;" horiz-adv-x="737" 
d="M74 1231l172 43q6 -50 38.5 -82.5t88.5 -32.5q44 0 76 36t32 87q0 54 -31.5 96.5t-95.5 42.5q-37 0 -64.5 -26t-33.5 -64l-178 39l57 424h498v-149h-352l-17 -129q44 55 137 55q65 0 117 -26t82.5 -69t46 -92.5t15.5 -101.5q0 -111 -84 -191.5t-205 -80.5q-132 0 -205 62
t-94 159z" />
    <glyph glyph-name="uni2076" unicode="&#x2076;" horiz-adv-x="737" 
d="M664 1612l-183 -39q-14 51 -37.5 70.5t-58.5 19.5q-109 0 -133 -164q10 21 53 40.5t90 19.5q131 0 203 -85.5t72 -203.5q0 -79 -45.5 -140t-109 -90.5t-128.5 -29.5q-67 0 -121.5 20.5t-91.5 56.5t-61.5 85t-35.5 104.5t-11 118.5q0 85 18 157.5t55.5 132t103.5 93.5
t154 34t162.5 -50t104.5 -150zM375 1159q46 0 80 33t34 92q0 61 -33.5 93t-80.5 32q-44 0 -78.5 -29t-34.5 -96q0 -60 34.5 -92.5t78.5 -32.5z" />
    <glyph glyph-name="uni2077" unicode="&#x2077;" horiz-adv-x="737" 
d="M334 1028h-211q50 125 181 347.5t165 269.5h-395v149h602v-141q-43 -53 -166.5 -275.5t-175.5 -349.5z" />
    <glyph glyph-name="uni2078" unicode="&#x2078;" horiz-adv-x="737" 
d="M211 1438q-123 48 -123 168q0 32 17 66.5t49 66.5t88.5 52.5t126.5 20.5q69 0 125 -20.5t88 -52.5t48.5 -66.5t16.5 -66.5q0 -62 -29 -102.5t-92 -65.5q82 -29 116 -72.5t34 -116.5q0 -100 -86.5 -169.5t-220.5 -69.5q-135 0 -221.5 69t-86.5 170q0 73 33.5 116.5
t116.5 72.5zM242 1262q0 -52 34.5 -77.5t92.5 -25.5q57 0 92 26.5t35 76.5q0 96 -127 96q-63 0 -95 -27t-32 -69zM268 1585q0 -76 101 -76q98 0 98 76q0 34 -24.5 56t-73.5 22q-51 0 -76 -22t-25 -56z" />
    <glyph glyph-name="uni2079" unicode="&#x2079;" horiz-adv-x="737" 
d="M61 1223l189 43q7 -54 35.5 -80.5t64.5 -26.5q62 0 94 53q34 49 39 129q-8 -20 -50 -38.5t-89 -18.5q-132 0 -203 81t-71 194q0 114 86 183.5t196 69.5q66 0 120 -21.5t90.5 -57.5t61.5 -85.5t36.5 -104t11.5 -113.5q0 -179 -76 -291q-84 -129 -258 -129q-87 0 -169.5 57
t-107.5 156zM358 1432q39 0 74 29t35 87q0 53 -34.5 84t-74.5 31q-39 0 -72.5 -31.5t-33.5 -83.5q0 -51 33 -83.5t73 -32.5z" />
    <glyph glyph-name="uni2080" unicode="&#x2080;" horiz-adv-x="737" 
d="M369 -381q70 0 109.5 76.5t39.5 175.5q0 100 -39.5 176t-109.5 76t-110 -76t-40 -176q0 -98 40 -175t110 -77zM369 -530q-82 0 -149 35.5t-108.5 93t-64 128t-22.5 144.5q0 101 37.5 190.5t118 150t188.5 60.5q109 0 189.5 -60.5t117.5 -150t37 -190.5q0 -59 -13.5 -116
t-42 -108.5t-68.5 -91t-96.5 -62.5t-123.5 -23z" />
    <glyph glyph-name="uni2081" unicode="&#x2081;" horiz-adv-x="737" 
d="M313 -512v512h-151v152h80q49 0 66.5 21.5t17.5 80.5h182v-766h-195z" />
    <glyph glyph-name="uni2082" unicode="&#x2082;" horiz-adv-x="737" 
d="M61 -512v156q59 28 144.5 80.5t150.5 115.5q107 102 107 195q0 40 -25 64t-59 24q-54 0 -82.5 -35.5t-28.5 -126.5l-194 45q0 59 19 106t49.5 76.5t71 49t81.5 27t84 7.5q116 0 197 -64.5t81 -172.5q0 -40 -11.5 -79t-24.5 -65.5t-41 -60.5t-42 -49t-46 -47
q-13 -13 -71 -47t-91 -47h340v-152h-609z" />
    <glyph glyph-name="uni2083" unicode="&#x2083;" horiz-adv-x="737" 
d="M57 -268l191 45q0 -70 30 -114t87 -44q58 0 84 28.5t26 69.5q0 105 -137 105h-82v133h76q60 0 92.5 24.5t32.5 59.5q0 37 -23.5 60.5t-66.5 23.5q-57 0 -82 -33t-27 -98l-192 43q5 97 86 167t215 70q78 0 140.5 -24t103 -78.5t40.5 -134.5q0 -12 -5.5 -31t-18.5 -44
t-42.5 -45t-70.5 -26q154 -22 154 -194q0 -91 -82.5 -158t-220.5 -67q-55 0 -104 13t-94 42t-74.5 82t-35.5 125z" />
    <glyph glyph-name="uni2084" unicode="&#x2084;" horiz-adv-x="737" 
d="M31 -338v137l309 455h219v-440h146v-152h-146v-174h-180v174h-348zM236 -186h143v233z" />
    <glyph glyph-name="uni2085" unicode="&#x2085;" horiz-adv-x="737" 
d="M74 -309l172 43q6 -50 38.5 -82.5t88.5 -32.5q44 0 76 36t32 87q0 54 -31.5 96.5t-95.5 42.5q-37 0 -64.5 -26t-33.5 -64l-178 39l57 424h498v-150h-352l-17 -129q19 24 55 40t82 16q65 0 117 -26t82.5 -69t46 -92.5t15.5 -101.5q0 -111 -84 -191.5t-205 -80.5
q-132 0 -205 62t-94 159z" />
    <glyph glyph-name="uni2086" unicode="&#x2086;" horiz-adv-x="737" 
d="M664 72l-183 -39q-14 51 -37.5 70.5t-58.5 19.5q-109 0 -133 -164q9 21 52.5 40t90.5 19q89 0 153 -42.5t93 -106.5t29 -139q0 -79 -45.5 -140t-109 -90.5t-128.5 -29.5q-67 0 -121.5 20.5t-91.5 56.5t-61.5 85t-35.5 104.5t-11 118.5q0 85 18 157.5t55.5 132t103.5 93.5
t154 34t162.5 -50t104.5 -150zM375 -381q46 0 80 33t34 92q0 61 -33.5 93t-80.5 32q-44 0 -78.5 -29t-34.5 -96q0 -60 34.5 -92.5t78.5 -32.5z" />
    <glyph glyph-name="uni2087" unicode="&#x2087;" horiz-adv-x="737" 
d="M334 -512h-211q50 125 180.5 347t165.5 269h-395v150h602v-141q-43 -53 -166.5 -275.5t-175.5 -349.5z" />
    <glyph glyph-name="uni2088" unicode="&#x2088;" horiz-adv-x="737" 
d="M211 -102q-123 48 -123 168q0 32 17 66.5t49 66.5t88.5 52.5t126.5 20.5q69 0 125 -20.5t88 -52.5t48.5 -66.5t16.5 -66.5q0 -62 -29 -102.5t-92 -65.5q82 -29 116 -72.5t34 -116.5q0 -100 -86.5 -169.5t-220.5 -69.5q-135 0 -221.5 69t-86.5 170q0 73 33.5 116.5
t116.5 72.5zM242 -279q0 -52 34 -77t93 -25q57 0 92 26.5t35 75.5q0 97 -127 97q-63 0 -95 -27.5t-32 -69.5zM268 45q0 -76 101 -76q98 0 98 76q0 34 -24.5 56t-73.5 22q-51 0 -76 -22t-25 -56z" />
    <glyph glyph-name="uni2089" unicode="&#x2089;" horiz-adv-x="737" 
d="M61 -317l189 43q7 -54 35.5 -80.5t64.5 -26.5q62 0 94 53q34 49 39 129q-8 -20 -50 -38.5t-89 -18.5q-132 0 -203 80.5t-71 193.5q0 114 86 184t196 70q82 0 145.5 -32.5t100.5 -87.5t55.5 -121.5t18.5 -141.5q0 -178 -76 -290q-84 -129 -258 -129q-87 0 -169.5 57
t-107.5 156zM358 -109q38 0 73.5 29.5t35.5 87.5q0 53 -34.5 84t-74.5 31q-39 0 -72.5 -31.5t-33.5 -83.5q0 -51 33 -84t73 -33z" />
    <glyph glyph-name="colonmonetary" unicode="&#x20a1;" 
d="M231 -201l74 275q-138 95 -213.5 260.5t-75.5 382.5q0 345 183 549.5t483 212.5l45 168h137l-47 -174q64 -11 105 -25l53 199h137l-68 -254q201 -120 265 -398l-273 -75q-27 109 -71 176l-236 -873q111 13 193 101.5t114 259.5l287 -66q-32 -149 -96.5 -259
t-151.5 -172.5t-184 -92t-207 -29.5q-4 0 -11.5 1t-10.5 1l-46 -168h-137l49 183q-34 7 -102 28l-57 -211h-138zM500 291q43 -37 96 -55l258 958q-53 24 -104 29zM346 723q0 -175 53 -293l211 780q-127 -38 -195.5 -167t-68.5 -320z" />
    <glyph glyph-name="uni20A6" unicode="&#x20a6;" 
d="M0 760v133h127v553h432l186 -553h160v553h287v-553h127v-133h-127v-74h127v-133h-127v-553h-434l-187 553h-157v-553h-287v553h-127v133h127v74h-127zM791 760l24 -74h90v74h-114zM414 760v-74h112l-24 74h-88zM860 553l45 -135v135h-45zM414 1022v-129h43z" />
    <glyph glyph-name="Euro" unicode="&#x20ac;" 
d="M-27 795l56 137h110q52 256 221.5 404.5t401.5 148.5q76 0 142.5 -12t131.5 -40.5t117.5 -74t97 -116.5t74.5 -163l-268 -100q-43 144 -117 201t-178 57q-105 0 -182 -80t-111 -225h506l-55 -137h-469q-2 -23 -2 -70v-37h428l-56 -137h-360q28 -169 108 -253.5t187 -84.5
q106 0 188 76t117 231l280 -80q-31 -117 -92.5 -209.5t-140.5 -149.5t-168.5 -86.5t-183.5 -29.5q-116 0 -218.5 36t-186.5 106.5t-141.5 184t-78.5 259.5h-158l56 137h90v37q0 47 2 70h-148z" />
    <glyph glyph-name="uni20B2" unicode="&#x20b2;" 
d="M602 -201v168q-270 14 -440 217.5t-170 534.5q0 326 167 528.5t443 229.5v170h131v-168q61 -5 117.5 -18t121.5 -43.5t118 -76t101 -119t77 -167.5l-277 -74q-15 43 -33.5 78t-48.5 71.5t-75 60.5t-101 30v-994q49 8 92.5 30t85.5 62t70 109t35 160h-215v256h497v-844
h-282v137q-104 -140 -283 -166v-172h-131zM322 723q0 -204 75 -335t205 -159v985q-135 -33 -207.5 -164t-72.5 -327z" />
    <glyph glyph-name="uni20B5" unicode="&#x20b5;" 
d="M629 -201v168q-280 20 -445.5 221.5t-165.5 528.5t167 530t444 230v170h131v-168q68 -5 131 -20.5t130 -51t120.5 -88t99 -135.5t70.5 -189l-273 -75q-66 276 -278 301v-994q100 22 173.5 110t104.5 247l287 -66q-23 -110 -65.5 -199t-95.5 -150.5t-119.5 -104.5
t-136.5 -65.5t-148 -29.5v-170h-131zM348 723q0 -205 76 -336.5t205 -159.5v987q-135 -33 -208 -164t-73 -327z" />
    <glyph glyph-name="uni20BA" unicode="&#x20ba;" 
d="M88 823v129l229 84v410h328v-291l387 143v-129l-387 -143v-117l387 142v-129l-387 -142v-540q143 41 217 170t74 297l315 -37q-8 -139 -56.5 -262.5t-137.5 -224t-232 -159.5t-323 -59q-92 0 -185 17v680l-229 -84v129l229 84v116z" />
    <glyph glyph-name="uni20BF" unicode="&#x20bf;" 
d="M68 0v1446h315v201h131v-201h137v201h131v-201h13q118 0 210.5 -32t149 -87.5t85 -125.5t28.5 -150q0 -110 -80 -194t-174 -97q96 -5 169.5 -55t108.5 -121t35 -148q0 -107 -40 -188t-114 -132.5t-171.5 -79.5t-219.5 -34v-203h-131v201h-137v-201h-131v201h-315z
M395 256h336q268 0 268 186q0 49 -18.5 84.5t-51 54t-70 27t-83.5 8.5h-381v-360zM395 872h330q99 0 156 43.5t57 116.5q0 77 -49.5 117.5t-138.5 40.5h-355v-318z" />
    <glyph glyph-name="uni2113" unicode="&#x2113;" horiz-adv-x="1085" 
d="M942 358l111 -108q-82 -143 -199 -209t-254 -66q-171 0 -264.5 90t-112.5 236l-108 -76l-68 131l172 127v461q0 130 29 228t80.5 157t117.5 88t146 29q77 0 136.5 -27.5t95.5 -75t54.5 -107.5t18.5 -130q0 -113 -54 -227.5t-145 -218t-231 -224.5v-49q0 -101 56 -156
t139 -55t156.5 53t123.5 129zM467 981v-326q254 266 254 453q0 166 -117 166q-56 0 -96.5 -69.5t-40.5 -223.5z" />
    <glyph glyph-name="uni2117" unicode="&#x2117;" horiz-adv-x="1662" 
d="M139 723q0 -187 93 -346.5t252.5 -252.5t346.5 -93t347 93t253 252.5t93 346.5t-93 346.5t-253 252.5t-347 93t-346.5 -93t-252.5 -252.5t-93 -346.5zM74 723q0 154 60 294.5t161.5 242t241.5 161.5t294 60t294.5 -60t242 -161.5t161.5 -242t60 -294.5t-60 -294.5
t-161.5 -242t-242 -161.5t-294.5 -60t-294 60t-241.5 161.5t-161.5 242t-60 294.5zM463 242v960h514q41 0 81.5 -7t87.5 -28.5t82.5 -54.5t59 -90t23.5 -131q0 -73 -23.5 -130t-59 -90.5t-82 -54.5t-87.5 -28.5t-82 -7.5h-275v-338h-239zM702 768h232q61 0 98 30.5t37 92.5
q0 59 -37.5 91t-97.5 32h-232v-246z" />
    <glyph glyph-name="trademark" unicode="&#x2122;" horiz-adv-x="1603" 
d="M686 766v680h223l166 -531l168 531h223v-680h-139v526l-166 -526h-170l-166 526v-526h-139zM266 766v559h-211v121h576v-121h-211v-559h-154z" />
    <glyph glyph-name="Omega" unicode="&#x2126;" horiz-adv-x="1458" 
d="M88 0v256h213q-188 243 -188 514q0 159 48 293t131.5 224.5t196 141t240.5 50.5t240.5 -50.5t196 -141t132 -224.5t48.5 -293q0 -270 -189 -514h213v-256h-584v199q273 183 273 559q0 219 -86.5 343t-243.5 124t-243.5 -124t-86.5 -343q0 -376 273 -559v-199h-584z" />
    <glyph glyph-name="estimated" unicode="&#x212e;" horiz-adv-x="1820" 
d="M1767 702h-1364q-10 0 -10 -10v-411q0 -28 17 -48q102 -106 235.5 -165.5t280.5 -59.5q159 0 299 67.5t243 184.5h121q-115 -135 -290.5 -214t-374.5 -79q-171 0 -327 60t-268 161t-178.5 241t-66.5 294t66.5 294.5t178.5 242t268 161.5t327 60q172 0 328 -60t269 -161.5
t179.5 -242t66.5 -294.5v-21zM1458 756v413q0 29 -20 52q-104 101 -235 158t-277 57q-145 0 -278 -60t-236 -164q-19 -19 -19 -51v-405q0 -4 3 -9.5t7 -5.5h1045q4 0 7 5.5t3 9.5z" />
    <glyph glyph-name="uni2150" unicode="&#x2150;" horiz-adv-x="1640" 
d="M211 680v512h-152v151h80q49 0 66.5 22t17.5 81h183v-766h-195zM156 0l1032 1446h211l-1030 -1446h-213zM1247 0h-211q50 125 180.5 347t165.5 269h-395v150h602v-141q-43 -53 -166.5 -275.5t-175.5 -349.5z" />
    <glyph glyph-name="uni2151" unicode="&#x2151;" horiz-adv-x="1648" 
d="M207 680v512h-152v151h80q49 0 66.5 22t17.5 81h182v-766h-194zM152 0l1032 1446h211l-1030 -1446h-213zM977 195l188 43q7 -54 36 -80.5t65 -26.5q62 0 94 53q34 49 39 129q-8 -20 -50 -38.5t-89 -18.5q-132 0 -203.5 80.5t-71.5 193.5q0 114 86.5 184t196.5 70
q82 0 145 -32.5t100 -87.5t55.5 -121.5t18.5 -141.5q0 -178 -76 -290q-84 -129 -258 -129q-87 0 -169 57t-107 156zM1274 403q38 0 73 29.5t35 87.5q0 53 -34 84t-74 31q-39 0 -73 -31.5t-34 -83.5q0 -51 33.5 -84t73.5 -33z" />
    <glyph glyph-name="uni2152" unicode="&#x2152;" horiz-adv-x="2283" 
d="M211 680v512h-152v151h80q49 0 66.5 22t17.5 81h183v-766h-195zM156 0l1032 1446h211l-1030 -1446h-213zM1233 0v512h-152v152h80q49 0 66.5 21.5t17.5 80.5h182v-766h-194zM1886 131q70 0 110 77t40 175q0 100 -40 176t-110 76t-109.5 -76t-39.5 -176q0 -99 39.5 -175.5
t109.5 -76.5zM1886 -18q-82 0 -149 35.5t-108.5 93t-64 128t-22.5 144.5q0 101 37.5 190.5t118 150t188.5 60.5q109 0 189.5 -60.5t117.5 -150t37 -190.5q0 -59 -13.5 -116t-42 -108.5t-68.5 -91t-96.5 -62.5t-123.5 -23z" />
    <glyph glyph-name="onethird" unicode="&#x2153;" horiz-adv-x="1654" 
d="M207 680v512h-152v151h80q49 0 66.5 22t17.5 81h182v-766h-194zM152 0l1032 1446h211l-1030 -1446h-213zM979 244l190 45q0 -70 30 -114t87 -44q58 0 84.5 28.5t26.5 69.5q0 105 -137 105h-82v133h75q60 0 92.5 24.5t32.5 59.5q0 37 -23.5 60.5t-66.5 23.5
q-57 0 -81.5 -33t-26.5 -98l-193 43q5 97 86 167t215 70q122 0 203.5 -60t81.5 -177q0 -12 -5.5 -31t-18.5 -44t-42.5 -45t-70.5 -26q49 -7 82 -27.5t47 -51t19 -56.5t5 -59q0 -91 -82.5 -158t-220.5 -67q-55 0 -104 13t-93.5 42t-74 82t-35.5 125z" />
    <glyph glyph-name="twothirds" unicode="&#x2154;" horiz-adv-x="1757" 
d="M66 680v156q58 27 143.5 80t150.5 116q107 102 107 195q0 40 -25 64t-59 24q-54 0 -82.5 -35.5t-28.5 -126.5l-194 45q0 59 19 106t49.5 76.5t71 49t81.5 27t84 7.5q116 0 197.5 -64.5t81.5 -172.5q0 -40 -11.5 -79t-24.5 -65t-41.5 -61t-42 -49t-46.5 -47
q-13 -13 -71 -47.5t-91 -47.5h340v-151h-608zM260 0l1032 1446h211l-1030 -1446h-213zM1087 244l191 45q0 -70 30 -114t87 -44q58 0 84 28.5t26 69.5q0 105 -137 105h-82v133h76q60 0 92.5 24.5t32.5 59.5q0 37 -23.5 60.5t-66.5 23.5q-57 0 -82 -33t-27 -98l-192 43
q5 97 86 167t215 70q78 0 140.5 -24t103 -78.5t40.5 -134.5q0 -12 -5.5 -31t-18.5 -44t-42.5 -45t-70.5 -26q154 -22 154 -194q0 -91 -82.5 -158t-220.5 -67q-55 0 -104 13t-94 42t-74.5 82t-35.5 125z" />
    <glyph glyph-name="uni2155" unicode="&#x2155;" horiz-adv-x="1646" 
d="M207 680v512h-152v151h80q49 0 66.5 22t17.5 81h182v-766h-194zM152 0l1032 1446h211l-1030 -1446h-213zM989 203l172 43q6 -50 38.5 -82.5t88.5 -32.5q44 0 76.5 36t32.5 87q0 54 -31.5 96.5t-95.5 42.5q-37 0 -65 -26t-34 -64l-178 39l58 424h497v-150h-352l-16 -129
q19 24 55 40t82 16q65 0 117 -26t82 -69t45.5 -92.5t15.5 -101.5q0 -111 -84 -191.5t-205 -80.5q-132 0 -205 62t-94 159z" />
    <glyph glyph-name="uni2156" unicode="&#x2156;" horiz-adv-x="1744" 
d="M63 680v156q59 28 144.5 80.5t150.5 115.5q107 102 107 195q0 40 -25 64t-59 24q-54 0 -82.5 -35.5t-28.5 -126.5l-194 45q0 59 19 106t49.5 76.5t71 49t81.5 27t84 7.5q116 0 197 -64.5t81 -172.5q0 -40 -11.5 -79t-24.5 -65.5t-41 -60.5t-42 -49t-46 -47
q-13 -13 -71 -47.5t-91 -47.5h340v-151h-609zM258 0l1032 1446h211l-1030 -1446h-213zM1096 203l172 43q6 -50 38.5 -82.5t88.5 -32.5q44 0 76 36t32 87q0 54 -31.5 96.5t-95.5 42.5q-37 0 -64.5 -26t-33.5 -64l-178 39l57 424h498v-150h-352l-17 -129q19 24 55 40t82 16
q65 0 117 -26t82 -69t45.5 -92.5t15.5 -101.5q0 -111 -84 -191.5t-204 -80.5q-132 0 -205 62t-94 159z" />
    <glyph glyph-name="uni2157" unicode="&#x2157;" horiz-adv-x="1742" 
d="M57 924l191 45q0 -70 30 -114t87 -44q58 0 84 28.5t26 69.5q0 105 -137 105h-82v133h76q60 0 92.5 24.5t32.5 59.5q0 37 -23.5 60.5t-66.5 23.5q-57 0 -82 -33t-27 -98l-192 43q5 97 86 167t215 70q78 0 140.5 -24t103 -78.5t40.5 -134.5q0 -12 -5.5 -31t-18.5 -44
t-42.5 -45t-70.5 -26q154 -22 154 -194q0 -91 -82.5 -158t-220.5 -67q-55 0 -104 13t-94 42t-74.5 82t-35.5 125zM252 0l1032 1446h211l-1030 -1446h-213zM1090 203l172 43q6 -50 38.5 -82.5t88.5 -32.5q44 0 76 36t32 87q0 54 -31.5 96.5t-95.5 42.5q-37 0 -64.5 -26
t-33.5 -64l-178 39l57 424h498v-150h-353l-16 -129q19 24 55 40t82 16q65 0 117 -26t82 -69t45.5 -92.5t15.5 -101.5q0 -111 -84 -191.5t-204 -80.5q-132 0 -205 62t-94 159z" />
    <glyph glyph-name="uni2158" unicode="&#x2158;" horiz-adv-x="1781" 
d="M53 854v137l309 455h220v-440h145v-152h-145v-174h-181v174h-348zM258 1006h143v233zM281 0l1032 1446h211l-1030 -1446h-213zM1118 203l172 43q6 -50 38.5 -82.5t88.5 -32.5q44 0 76.5 36t32.5 87q0 54 -31.5 96.5t-95.5 42.5q-37 0 -65 -26t-34 -64l-178 39l58 424h497
v-150h-352l-16 -129q19 24 55 40t82 16q65 0 117 -26t82 -69t45.5 -92.5t15.5 -101.5q0 -111 -84 -191.5t-205 -80.5q-132 0 -205 62t-94 159z" />
    <glyph glyph-name="uni2159" unicode="&#x2159;" horiz-adv-x="1650" 
d="M207 680v512h-152v151h80q49 0 66.5 22t17.5 81h182v-766h-194zM152 0l1032 1446h211l-1030 -1446h-213zM1579 584l-182 -39q-14 51 -38 70.5t-59 19.5q-109 0 -133 -164q9 21 52.5 40t91.5 19q131 0 202.5 -85t71.5 -203q0 -79 -45 -140t-108.5 -90.5t-128.5 -29.5
q-84 0 -147.5 31t-100.5 85.5t-55.5 122t-18.5 146.5q0 85 18 157.5t56 132t104 93.5t154 34q56 0 106.5 -19.5t94.5 -66t65 -114.5zM1290 131q47 0 81 33t34 92q0 61 -34 93t-81 32q-44 0 -78 -29t-34 -96q0 -60 34 -92.5t78 -32.5z" />
    <glyph glyph-name="uni215A" unicode="&#x215a;" horiz-adv-x="1734" 
d="M57 883l172 43q6 -50 38.5 -82.5t88.5 -32.5q44 0 76.5 36t32.5 87q0 54 -31.5 96.5t-95.5 42.5q-37 0 -64.5 -26t-33.5 -64l-179 39l58 424h497v-150h-352l-16 -129q19 24 55 40t82 16q65 0 117 -26t82 -69t45.5 -92.5t15.5 -101.5q0 -111 -84 -191.5t-205 -80.5
q-132 0 -205 62t-94 159zM242 0l1032 1446h211l-1030 -1446h-213zM1669 584l-182 -39q-14 51 -37.5 70.5t-58.5 19.5q-110 0 -134 -164q9 21 52.5 40t91.5 19q131 0 202.5 -85t71.5 -203q0 -79 -45 -140t-108.5 -90.5t-128.5 -29.5q-84 0 -147.5 31t-100.5 85.5t-55.5 122
t-18.5 146.5q0 85 18 157.5t56 132t104 93.5t154 34q56 0 106.5 -19.5t94.5 -66t65 -114.5zM1380 131q47 0 81 33t34 92q0 61 -34 93t-81 32q-44 0 -78 -29t-34 -96q0 -60 34 -92.5t78 -32.5z" />
    <glyph glyph-name="oneeighth" unicode="&#x215b;" horiz-adv-x="1652" 
d="M207 680v512h-152v151h80q49 0 66.5 22t17.5 81h182v-766h-194zM152 0l1032 1446h211l-1030 -1446h-213zM1126 410q-122 48 -122 168q0 32 16.5 66.5t49 66.5t88.5 52.5t126 20.5q69 0 125 -20.5t88 -52.5t49 -66.5t17 -66.5q0 -62 -29 -102.5t-92 -65.5
q82 -29 115.5 -72.5t33.5 -116.5q0 -100 -86.5 -169.5t-220.5 -69.5q-135 0 -221 69t-86 170q0 74 33 117t116 72zM1157 233q0 -52 34 -77t93 -25q58 0 92.5 26.5t34.5 75.5q0 97 -127 97q-63 0 -95 -27.5t-32 -69.5zM1184 557q0 -76 100 -76q98 0 98 76q0 34 -24.5 56
t-73.5 22q-51 0 -75.5 -22t-24.5 -56z" />
    <glyph glyph-name="threeeighths" unicode="&#x215c;" horiz-adv-x="1748" 
d="M57 924l191 45q0 -70 30 -114t87 -44q58 0 84 28.5t26 69.5q0 105 -137 105h-82v133h76q60 0 92.5 24.5t32.5 59.5q0 37 -23.5 60.5t-66.5 23.5q-57 0 -82 -33t-27 -98l-192 43q5 97 86 167t215 70q78 0 140.5 -24t103 -78.5t40.5 -134.5q0 -12 -5.5 -31t-18.5 -44
t-42.5 -45t-70.5 -26q154 -22 154 -194q0 -91 -82.5 -158t-220.5 -67q-55 0 -104 13t-94 42t-74.5 82t-35.5 125zM252 0l1032 1446h211l-1030 -1446h-213zM1227 410q-123 48 -123 168q0 32 16.5 66.5t49 66.5t88.5 52.5t126 20.5q69 0 125 -20.5t88 -52.5t49 -66.5t17 -66.5
q0 -62 -29 -102.5t-92 -65.5q82 -29 116 -72.5t34 -116.5q0 -100 -87 -169.5t-221 -69.5q-135 0 -221 69t-86 170q0 73 33.5 116.5t116.5 72.5zM1257 233q0 -52 34 -77t93 -25q57 0 92 26.5t35 75.5q0 97 -127 97q-63 0 -95 -27.5t-32 -69.5zM1284 557q0 -76 100 -76
q99 0 99 76q0 33 -25 55.5t-74 22.5q-51 0 -75.5 -22t-24.5 -56z" />
    <glyph glyph-name="fiveeighths" unicode="&#x215d;" horiz-adv-x="1742" 
d="M61 883l172 43q6 -50 38.5 -82.5t88.5 -32.5q44 0 76.5 36t32.5 87q0 54 -31.5 96.5t-95.5 42.5q-37 0 -64.5 -26t-33.5 -64l-178 39l57 424h498v-150h-353l-16 -129q19 24 55 40t82 16q65 0 117 -26t82 -69t45.5 -92.5t15.5 -101.5q0 -111 -84 -191.5t-205 -80.5
q-132 0 -205 62t-94 159zM246 0l1032 1446h211l-1030 -1446h-213zM1221 410q-123 48 -123 168q0 32 16.5 66.5t49 66.5t88.5 52.5t126 20.5q69 0 125 -20.5t88 -52.5t49 -66.5t17 -66.5q0 -62 -29 -102.5t-92 -65.5q82 -29 116 -72.5t34 -116.5q0 -100 -87 -169.5
t-221 -69.5q-135 0 -221 69t-86 170q0 73 33.5 116.5t116.5 72.5zM1251 233q0 -52 34 -77t93 -25q58 0 92.5 26.5t34.5 75.5q0 97 -127 97q-63 0 -95 -27.5t-32 -69.5zM1278 557q0 -76 100 -76q99 0 99 76q0 33 -25 55.5t-74 22.5q-51 0 -75.5 -22t-24.5 -56z" />
    <glyph glyph-name="seveneighths" unicode="&#x215e;" horiz-adv-x="1744" 
d="M315 680h-211q50 125 181 346.5t166 269.5h-396v150h602v-141q-43 -53 -166.5 -275.5t-175.5 -349.5zM246 0l1032 1446h211l-1030 -1446h-213zM1221 410q-123 48 -123 168q0 32 16.5 66.5t49 66.5t88.5 52.5t126 20.5q69 0 125 -20.5t88 -52.5t49 -66.5t17 -66.5
q0 -62 -29 -102.5t-92 -65.5q82 -29 116 -72.5t34 -116.5q0 -100 -87 -169.5t-221 -69.5q-135 0 -221 69t-86 170q0 73 33.5 116.5t116.5 72.5zM1251 233q0 -52 34 -77t93 -25q58 0 92.5 26.5t34.5 75.5q0 97 -127 97q-63 0 -95 -27.5t-32 -69.5zM1278 557q0 -76 100 -76
q99 0 99 76q0 33 -25 55.5t-74 22.5q-51 0 -75.5 -22t-24.5 -56z" />
    <glyph glyph-name="uni215F" unicode="&#x215f;" horiz-adv-x="1196" 
d="M418 680v512h-152v151h80q49 0 66.5 22t17.5 81h182v-766h-194zM362 0l1033 1446h211l-1031 -1446h-213z" />
    <glyph glyph-name="uni2160" unicode="&#x2160;" horiz-adv-x="614" 
d="M143 0v1446h328v-1446h-328z" />
    <glyph glyph-name="uni2161" unicode="&#x2161;" horiz-adv-x="1220" 
d="M143 0v1446h328v-1446h-328zM750 0v1446h327v-1446h-327z" />
    <glyph glyph-name="uni2162" unicode="&#x2162;" horiz-adv-x="1826" 
d="M143 0v1446h328v-1446h-328zM750 0v1446h327v-1446h-327zM1356 0v1446h327v-1446h-327z" />
    <glyph glyph-name="uni2163" unicode="&#x2163;" horiz-adv-x="2097" 
d="M143 0v1446h328v-1446h-328zM1190 0l-580 1446h322l428 -1098l428 1098h321l-579 -1446h-340z" />
    <glyph glyph-name="uni2164" unicode="&#x2164;" horiz-adv-x="1486" 
d="M573 0l-579 1446h321l428 -1098l428 1098h322l-580 -1446h-340z" />
    <glyph glyph-name="uni2165" unicode="&#x2165;" horiz-adv-x="2097" 
d="M567 0l-579 1446h321l428 -1098l428 1098h322l-580 -1446h-340zM1626 0v1446h328v-1446h-328z" />
    <glyph glyph-name="uni2166" unicode="&#x2166;" horiz-adv-x="2701" 
d="M565 0l-579 1446h321l428 -1098l428 1098h322l-580 -1446h-340zM1624 0v1446h328v-1446h-328zM2230 0v1446h328v-1446h-328z" />
    <glyph glyph-name="uni2167" unicode="&#x2167;" horiz-adv-x="3303" 
d="M561 0l-579 1446h321l428 -1098l428 1098h322l-580 -1446h-340zM1620 0v1446h328v-1446h-328zM2226 0v1446h328v-1446h-328zM2832 0v1446h328v-1446h-328z" />
    <glyph glyph-name="uni2168" unicode="&#x2168;" horiz-adv-x="2107" 
d="M143 0v1446h328v-1446h-328zM594 0l594 764l-516 682h375l342 -477l329 477h367l-526 -680l585 -766h-381l-399 555l-393 -555h-377z" />
    <glyph glyph-name="uni2169" unicode="&#x2169;" horiz-adv-x="1470" 
d="M-43 0l594 764l-516 682h375l342 -477l329 477h367l-526 -680l585 -766h-381l-399 555l-393 -555h-377z" />
    <glyph glyph-name="uni216A" unicode="&#x216a;" horiz-adv-x="2101" 
d="M-43 0l594 764l-516 682h375l342 -477l329 477h367l-526 -680l585 -766h-381l-399 555l-393 -555h-377zM1630 0v1446h328v-1446h-328z" />
    <glyph glyph-name="uni216B" unicode="&#x216b;" horiz-adv-x="2707" 
d="M-43 0l594 764l-516 682h375l342 -477l329 477h367l-526 -680l585 -766h-381l-399 555l-393 -555h-377zM1630 0v1446h328v-1446h-328zM2236 0v1446h328v-1446h-328z" />
    <glyph glyph-name="uni216C" unicode="&#x216c;" horiz-adv-x="1214" 
d="M143 0v1446h328v-1190h719v-256h-1047z" />
    <glyph glyph-name="uni216D" unicode="&#x216d;" horiz-adv-x="1564" 
d="M1210 584l320 -66q-32 -120 -90.5 -215.5t-129 -157.5t-156 -103.5t-169.5 -59t-172 -17.5q-146 0 -280 53.5t-236.5 149t-163.5 240t-61 315.5q0 164 57.5 306t157.5 241t238.5 155t297.5 56q82 0 156.5 -13t154.5 -47.5t147.5 -88t128.5 -139.5t103 -198l-317 -75
q-34 86 -79 148t-95 95t-98.5 47.5t-100.5 14.5q-181 0 -302.5 -142t-121.5 -360q0 -112 34.5 -208t92 -159.5t132 -99t155.5 -35.5q47 0 92 11.5t91.5 38.5t86 68t73 104t54.5 141z" />
    <glyph glyph-name="uni216E" unicode="&#x216e;" horiz-adv-x="1554" 
d="M471 256h213q222 0 346.5 124.5t124.5 342.5t-124.5 342.5t-346.5 124.5h-213v-934zM143 0v1446h582q219 0 390 -86t269.5 -251.5t98.5 -385.5t-98.5 -385.5t-269.5 -251.5t-390 -86h-582z" />
    <glyph glyph-name="uni216F" unicode="&#x216f;" horiz-adv-x="1945" 
d="M143 0v1446h475l355 -1129l354 1129h475v-1446h-297v1120l-350 -1120h-364l-351 1120v-1120h-297z" />
    <glyph glyph-name="uni2170" unicode="&#x2170;" horiz-adv-x="512" 
d="M113 0v987h286v-987h-286zM113 1151v295h286v-295h-286z" />
    <glyph glyph-name="uni2171" unicode="&#x2171;" horiz-adv-x="1028" 
d="M113 0v987h286v-987h-286zM113 1151v295h286v-295h-286zM629 0v987h286v-987h-286zM629 1151v295h286v-295h-286z" />
    <glyph glyph-name="uni2172" unicode="&#x2172;" horiz-adv-x="1544" 
d="M113 0v987h286v-987h-286zM113 1151v295h286v-295h-286zM629 0v987h286v-987h-286zM629 1151v295h286v-295h-286zM1145 0v987h287v-987h-287zM1145 1151v295h287v-295h-287z" />
    <glyph glyph-name="uni2173" unicode="&#x2173;" horiz-adv-x="1591" 
d="M113 0v987h286v-987h-286zM113 1151v295h286v-295h-286zM887 0l-365 987h293l244 -682l244 682h284l-364 -987h-336z" />
    <glyph glyph-name="uni2174" unicode="&#x2174;" horiz-adv-x="1085" 
d="M375 0l-365 987h293l244 -682l244 682h284l-364 -987h-336z" />
    <glyph glyph-name="uni2175" unicode="&#x2175;" horiz-adv-x="1599" 
d="M369 0l-365 987h293l244 -682l243 682h285l-364 -987h-336zM1200 0v987h287v-987h-287zM1200 1151v295h287v-295h-287z" />
    <glyph glyph-name="uni2176" unicode="&#x2176;" horiz-adv-x="2111" 
d="M365 0l-365 987h293l244 -682l243 682h285l-365 -987h-335zM1196 0v987h287v-987h-287zM1196 1151v295h287v-295h-287zM1712 0v987h287v-987h-287zM1712 1151v295h287v-295h-287z" />
    <glyph glyph-name="uni2177" unicode="&#x2177;" horiz-adv-x="2625" 
d="M362 0l-364 987h293l244 -682l243 682h285l-365 -987h-336zM1194 0v987h287v-987h-287zM1194 1151v295h287v-295h-287zM1710 0v987h287v-987h-287zM1710 1151v295h287v-295h-287zM2226 0v987h287v-987h-287zM2226 1151v295h287v-295h-287z" />
    <glyph glyph-name="uni2178" unicode="&#x2178;" horiz-adv-x="1558" 
d="M113 0v987h286v-987h-286zM113 1151v295h286v-295h-286zM506 0l366 514l-335 473h321l189 -278l182 278h319l-348 -475l356 -512h-319l-197 309l-211 -309h-323z" />
    <glyph glyph-name="uni2179" unicode="&#x2179;" horiz-adv-x="1046" 
d="M-6 0l366 514l-335 473h321l189 -278l182 278h319l-348 -475l356 -512h-319l-197 309l-211 -309h-323z" />
    <glyph glyph-name="uni217A" unicode="&#x217a;" horiz-adv-x="1566" 
d="M-6 0l366 514l-335 473h321l189 -278l182 278h319l-348 -475l356 -512h-319l-197 309l-211 -309h-323zM1167 0v987h287v-987h-287zM1167 1151v295h287v-295h-287z" />
    <glyph glyph-name="uni217B" unicode="&#x217b;" horiz-adv-x="2082" 
d="M-6 0l366 514l-335 473h321l189 -278l182 278h319l-348 -475l356 -512h-319l-197 309l-211 -309h-323zM1167 0v987h287v-987h-287zM1167 1151v295h287v-295h-287zM1683 0v987h287v-987h-287zM1683 1151v295h287v-295h-287z" />
    <glyph glyph-name="uni217C" unicode="&#x217c;" horiz-adv-x="512" 
d="M113 0v1446h286v-1446h-286z" />
    <glyph glyph-name="uni217D" unicode="&#x217d;" horiz-adv-x="1107" 
d="M774 416l287 -56q-8 -59 -42 -123t-91.5 -124t-151 -99t-205.5 -39q-119 0 -217.5 44.5t-161 118t-97 165.5t-34.5 191t34.5 191t97 165.5t161 117.5t217.5 44q107 0 197 -35.5t147.5 -91.5t93 -115.5t48.5 -118.5l-287 -59q-45 205 -199 205q-58 0 -102.5 -27t-70 -72
t-38 -96.5t-12.5 -107.5t12.5 -107.5t38 -97t70 -72.5t102.5 -27q54 0 93.5 22t61 61t31.5 71t17 72z" />
    <glyph glyph-name="uni217E" unicode="&#x217e;" horiz-adv-x="1222" 
d="M840 0v111q-38 -59 -126 -97.5t-169 -38.5q-85 0 -156.5 22t-120 57t-86.5 82.5t-60 95t-36 99t-18.5 90t-4.5 71.5t4.5 72t18.5 90.5t36 99.5t60 96t86.5 83t120 57t156.5 22q166 0 278 -115v549h287v-1446h-270zM594 190q28 0 57 8.5t60.5 30.5t56 54.5t40 86.5
t15.5 122q0 84 -23 147t-59 95.5t-71.5 47.5t-69.5 15q-61 0 -108 -24.5t-73 -59.5t-42.5 -80t-21.5 -78t-5 -61t5 -61.5t21 -78t41.5 -79.5t71.5 -60t105 -25z" />
    <glyph glyph-name="uni217F" unicode="&#x217f;" horiz-adv-x="1665" 
d="M113 0v987h278v-119q8 20 22.5 40.5t44 46t81.5 41.5t118 16q68 0 120 -17t100 -63q27 -25 55 -66q71 146 268 146q193 0 287 -127q76 -106 76 -254v-631h-287v633q0 21 -5 45t-17 53t-39.5 47.5t-65.5 18.5q-34 0 -70.5 -21t-56.5 -53q-41 -64 -41 -170v-553h-285v633
q0 16 -2.5 34.5t-11 42.5t-21.5 42.5t-36.5 31.5t-53.5 13q-37 0 -74 -21t-59 -53q-39 -61 -39 -172v-551h-286z" />
    <glyph glyph-name="uni2189" unicode="&#x2189;" horiz-adv-x="1794" 
d="M401 811q70 0 110 77t40 175q0 100 -40 176t-110 76t-109.5 -76t-39.5 -176q0 -99 39.5 -175.5t109.5 -76.5zM401 662q-82 0 -149 35.5t-108.5 93t-64 128t-22.5 144.5q0 101 37.5 190.5t118 150t188.5 60.5q109 0 189.5 -60.5t117.5 -150t37 -190.5q0 -59 -13.5 -116
t-42 -108.5t-68.5 -91t-96.5 -62.5t-123.5 -23zM291 0l1032 1446h211l-1030 -1446h-213zM1118 244l191 45q0 -70 29.5 -114t86.5 -44q58 0 84.5 28.5t26.5 69.5q0 105 -137 105h-82v133h76q60 0 92.5 24.5t32.5 59.5q0 37 -24 60.5t-67 23.5q-57 0 -81.5 -33t-26.5 -98
l-193 43q5 97 86 167t215 70q122 0 203.5 -60t81.5 -177q0 -12 -5.5 -31t-18.5 -44t-42.5 -45t-70.5 -26q154 -22 154 -194q0 -91 -83 -158t-221 -67q-55 0 -104 13t-93.5 42t-74 82t-35.5 125z" />
    <glyph glyph-name="arrowleft" unicode="&#x2190;" 
d="M772 207l-156 -154l-581 582l581 582l156 -154l-340 -320h836v-219h-834z" />
    <glyph glyph-name="arrowup" unicode="&#x2191;" 
d="M231 514l-153 156l581 581l582 -581l-154 -156l-319 340v-836h-219v834z" />
    <glyph glyph-name="arrowright" unicode="&#x2192;" 
d="M702 53l-155 154l338 317h-834v219h836l-340 320l155 154l582 -582z" />
    <glyph glyph-name="arrowdown" unicode="&#x2193;" 
d="M1087 756l154 -156l-582 -582l-581 582l153 156l320 -340v835h219v-833z" />
    <glyph glyph-name="uni2196" unicode="&#x2196;" 
d="M428 334h-219v821h821v-219l-457 8l584 -602l-158 -152l-579 601z" />
    <glyph glyph-name="uni2197" unicode="&#x2197;" 
d="M1110 334h-219l8 457l-580 -601l-157 152l583 602l-456 -8v219h821v-821z" />
    <glyph glyph-name="uni2198" unicode="&#x2198;" 
d="M891 1012h219v-822h-821v220l456 -9l-583 603l157 151l580 -600z" />
    <glyph glyph-name="uni2199" unicode="&#x2199;" 
d="M209 1012h219l-8 -457l579 600l158 -151l-584 -603l457 9v-220h-821v822z" />
    <glyph glyph-name="partialdiff" unicode="&#x2202;" horiz-adv-x="1116" 
d="M203 1135l-82 225q166 121 375 121q111 0 204 -42t156 -112.5t107 -163.5t64 -193.5t20 -205.5q0 -233 -68.5 -412t-196.5 -278t-297 -99q-83 0 -153.5 29.5t-118.5 78.5t-82 113t-49.5 131.5t-15.5 135.5q0 242 125.5 395.5t310.5 153.5q94 0 154 -30.5t108 -80.5
q-22 158 -99 261.5t-200 103.5q-75 0 -145 -41t-117 -90zM748 621q-13 58 -68 117t-129 59q-90 0 -149.5 -102.5t-59.5 -241.5q0 -111 46.5 -185.5t121.5 -74.5q64 0 117 66t83 161.5t38 200.5z" />
    <glyph glyph-name="Delta" unicode="&#x2206;" horiz-adv-x="1312" 
d="M49 0v152l463 1294h299l451 -1294v-152h-1213zM373 266h571l-282 826z" />
    <glyph glyph-name="product" unicode="&#x220f;" horiz-adv-x="1406" 
d="M266 -201v1391h-205v256h1285v-256h-205v-1391h-289v1391h-297v-1391h-289z" />
    <glyph glyph-name="summation" unicode="&#x2211;" 
d="M160 -201v176l485 648l-485 647v176h987v-256h-608l432 -567l-432 -568h608v-256h-987z" />
    <glyph glyph-name="minus" unicode="&#x2212;" 
d="M43 524v219h1233v-219h-1233z" />
    <glyph glyph-name="uni2215" unicode="&#x2215;" horiz-adv-x="266" 
d="M-487 0l1032 1446h211l-1030 -1446h-213z" />
    <glyph glyph-name="uni2219" unicode="&#x2219;" horiz-adv-x="688" 
d="M180 735q0 67 48 115.5t116 48.5t116 -48.5t48 -115.5t-48 -115.5t-116 -48.5t-116 48.5t-48 115.5z" />
    <glyph glyph-name="radical" unicode="&#x221a;" 
d="M557 -201l-301 893l-156 -49l-65 205l411 139l228 -711l307 1371h256l-418 -1848h-262z" />
    <glyph glyph-name="infinity" unicode="&#x221e;" horiz-adv-x="1847" 
d="M924 596q-54 -62 -97.5 -103t-99.5 -80t-119 -58t-135 -19q-101 0 -188 48t-141 137t-54 198q0 175 115 285t289 110q125 0 227 -63.5t203 -184.5q101 121 203 184.5t227 63.5q174 0 288.5 -110t114.5 -285q0 -109 -54 -198t-141 -137t-188 -48q-72 0 -135 19t-118.5 58
t-99 80t-97.5 103zM811 713q-43 55 -70.5 86.5t-68.5 67.5t-85 52.5t-95 16.5q-93 0 -148 -61t-55 -156q0 -86 61 -145.5t152 -59.5q45 0 86.5 15.5t83.5 49.5t68.5 60t70.5 74zM1042 713q44 -48 71 -74.5t69 -60t83.5 -49t86.5 -15.5q91 0 152 59.5t61 145.5q0 95 -55 156
t-148 61q-51 0 -95 -16.5t-85 -52t-69.5 -67.5t-70.5 -87z" />
    <glyph glyph-name="integral" unicode="&#x222b;" 
d="M262 -432l37 223q68 -33 102 -33q28 0 49 14t33.5 40.5t21 55t12 68.5t4.5 68.5t1 67.5q0 126 -10 392.5t-10 414.5q0 585 393 585q89 0 162 -41l-37 -223q-68 33 -102 33q-33 0 -56.5 -21.5t-36 -51.5t-19 -77t-8 -81.5t-1.5 -81.5q0 -126 10 -392.5t10 -414.5
q0 -586 -393 -586q-89 0 -162 41z" />
    <glyph glyph-name="approxequal" unicode="&#x2248;" 
d="M145 215l-98 23q19 93 58 164t89.5 111.5t105.5 60.5t112 20q86 0 169 -31t137.5 -67.5t121.5 -67.5t123 -31q93 0 146 45t73 138l98 -23q-19 -93 -58 -164t-89.5 -111.5t-105.5 -60.5t-112 -20q-70 0 -137 20t-118 49t-99 58t-98.5 49t-97.5 20q-93 0 -146.5 -44.5
t-73.5 -137.5zM145 573l-98 23q19 93 58 164t89.5 111.5t105.5 60.5t112 20q70 0 137 -20t118.5 -49t99 -58t98.5 -49t98 -20q93 0 146 44.5t73 137.5l98 -23q-19 -93 -58 -164t-89.5 -111.5t-105.5 -60.5t-112 -20q-70 0 -137 20.5t-118 49.5t-99 57.5t-98.5 49t-97.5 20.5
q-93 0 -146.5 -45t-73.5 -138z" />
    <glyph glyph-name="notequal" unicode="&#x2260;" 
d="M43 739v211h793l153 166h166l-154 -166h275v-211h-469l-139 -151h608v-211h-803l-192 -209h-166l192 209h-264v211h459l139 151h-598z" />
    <glyph glyph-name="equivalence" unicode="&#x2261;" 
d="M43 377v211h1233v-211h-1233zM43 739v211h1233v-211h-1233zM43 1102v211h1233v-211h-1233z" />
    <glyph glyph-name="lessequal" unicode="&#x2264;" 
d="M63 762v172l1160 389v-213l-858 -262l858 -262v-213zM66 0v219h1157v-219h-1157z" />
    <glyph glyph-name="greaterequal" unicode="&#x2265;" 
d="M1255 934v-172l-1159 -389v213l858 262l-858 262v213zM1253 219v-219h-1157v219h1157z" />
    <glyph glyph-name="uni25AF" unicode="&#x25af;" horiz-adv-x="1210" 
d="M145 0v1446h920v-1446h-920zM254 109h702v1228h-702v-1228z" />
    <glyph glyph-name="triagup" unicode="&#x25b2;" 
d="M662 987l491 -987h-987z" />
    <glyph glyph-name="triagrt" unicode="&#x25ba;" 
d="M1153 492l-987 -492v987z" />
    <glyph glyph-name="triagdn" unicode="&#x25bc;" 
d="M662 0l-496 987h987z" />
    <glyph glyph-name="triaglf" unicode="&#x25c4;" 
d="M166 492l987 495v-987z" />
    <glyph glyph-name="lozenge" unicode="&#x25ca;" 
d="M563 -100l-422 823l422 823h201l412 -823l-412 -823h-201zM662 211l233 512l-233 510l-242 -512q44 -87 104.5 -214.5t99.5 -211.5z" />
    <glyph glyph-name="uniFB00" unicode="&#xfb00;" horiz-adv-x="1433" 
d="M924 0v772h-412v-772h-287v772h-207v215h207v176q0 129 82.5 215t224.5 86q134 0 185 -10v-215q-46 4 -99 4q-106 0 -106 -153v-103h412v176q0 129 82.5 215t224.5 86q133 0 184 -10v-215q-46 4 -98 4q-107 0 -107 -153v-103h205v-215h-205v-772h-286z" />
    <glyph glyph-name="fi" unicode="&#xfb01;" horiz-adv-x="1239" 
d="M225 0v772h-207v215h207v176q0 129 82.5 215t224.5 86q134 0 185 -10v-215q-46 4 -99 4q-106 0 -106 -153v-103h205v-215h-205v-772h-287zM840 0v987h286v-987h-286zM840 1151v295h286v-295h-286z" />
    <glyph glyph-name="fl" unicode="&#xfb02;" horiz-adv-x="1239" 
d="M225 0v772h-207v215h207v176q0 129 82.5 215t224.5 86q134 0 185 -10v-215q-46 4 -99 4q-106 0 -106 -153v-103h205v-215h-205v-772h-287zM840 0v1446h286v-1446h-286z" />
    <glyph glyph-name="uniFB03" unicode="&#xfb03;" horiz-adv-x="1937" 
d="M924 0v772h-412v-772h-287v772h-207v215h207v176q0 129 82.5 215t224.5 86q134 0 185 -10v-215q-46 4 -99 4q-106 0 -106 -153v-103h412v176q0 129 82.5 215t224.5 86q133 0 184 -10v-215q-46 4 -98 4q-107 0 -107 -153v-103h205v-215h-205v-772h-286zM1538 0v987h287
v-987h-287zM1538 1151v295h287v-295h-287z" />
    <glyph glyph-name="uniFB04" unicode="&#xfb04;" horiz-adv-x="1937" 
d="M924 0v772h-412v-772h-287v772h-207v215h207v176q0 129 82.5 215t224.5 86q134 0 185 -10v-215q-46 4 -99 4q-106 0 -106 -153v-103h412v176q0 129 82.5 215t224.5 86q133 0 184 -10v-215q-46 4 -98 4q-107 0 -107 -153v-103h205v-215h-205v-772h-286zM1538 0v1446h287
v-1446h-287z" />
    <glyph glyph-name="uniFEFF" unicode="&#xfeff;" horiz-adv-x="0" 
 />
    <glyph glyph-name="i.latn_TRK" horiz-adv-x="512" 
d="M113 0v987h286v-987h-286zM113 1151v295h286v-295h-286z" />
    <glyph glyph-name="Ldot.latn_CAT" horiz-adv-x="1222" 
d="M143 0v1446h328v-1190h719v-256h-1047zM664 575v297h286v-297h-286z" />
    <glyph glyph-name="ldot.latn_CAT" horiz-adv-x="813" 
d="M113 0v1446h286v-1446h-286zM522 575v297h287v-297h-287z" />
    <glyph glyph-name="zero.numr" horiz-adv-x="737" 
d="M369 811q70 0 109.5 76.5t39.5 175.5q0 100 -39.5 176t-109.5 76t-110 -76t-40 -176q0 -98 40 -175t110 -77zM369 662q-82 0 -149 35.5t-108.5 93t-64 128t-22.5 144.5q0 101 37.5 190.5t118 150t188.5 60.5q109 0 189.5 -60.5t117.5 -150t37 -190.5q0 -59 -13.5 -116
t-42 -108.5t-68.5 -91t-96.5 -62.5t-123.5 -23z" />
    <glyph glyph-name="one.numr" horiz-adv-x="737" 
d="M313 680v512h-151v151h80q49 0 66.5 22t17.5 81h182v-766h-195z" />
    <glyph glyph-name="two.numr" horiz-adv-x="737" 
d="M61 680v156q59 28 144.5 80.5t150.5 115.5q107 102 107 195q0 40 -25 64t-59 24q-54 0 -82.5 -35.5t-28.5 -126.5l-194 45q0 59 19 106t49.5 76.5t71 49t81.5 27t84 7.5q116 0 197 -64.5t81 -172.5q0 -40 -11.5 -79t-24.5 -65.5t-41 -60.5t-42 -49t-46 -47
q-13 -13 -71 -47.5t-91 -47.5h340v-151h-609z" />
    </font>
</defs>
</svg>
