<?xml version="1.0" standalone="no"?>
<!DOCTYPE svg PUBLIC "-//W3C//DTD SVG 1.1//EN" "http://www.w3.org/Graphics/SVG/1.1/DTD/svg11.dtd" >
<svg xmlns="http://www.w3.org/2000/svg" xmlns:xlink="http://www.w3.org/1999/xlink" version="1.1">
<metadata>
Created by FontForge 20201107 at Thu Apr 24 18:03:17 2025
 By 
(c) 2017, Forgotten Shapes GbR. All rights reserved.
</metadata>
<defs>
<font id="GerstnerProgrammFSL-Regular" horiz-adv-x="1318" >
  <font-face 
    font-family="Gerstner Programm FSL"
    font-weight="400"
    font-stretch="normal"
    units-per-em="2048"
    panose-1="2 1 5 4 1 1 1 1 1 4"
    ascent="1518"
    descent="-530"
    x-height="987"
    cap-height="1446"
    bbox="-772 -530 2644 2126"
    underline-thickness="102"
    underline-position="-255"
    unicode-range="U+000D-FEFF"
  />
<missing-glyph horiz-adv-x="1071" 
d="M125 0v1446h821v-1446h-821zM233 109h605v1228h-605v-1228z" />
    <glyph glyph-name="f_f" unicode="ff" horiz-adv-x="1202" 
d="M799 0v842h-402v-842h-182v842h-197v145h197v187q0 294 262 294q90 0 129 -10v-147q-81 6 -82 6q-62 0 -94.5 -37t-32.5 -127v-166h402v187q0 294 262 294q88 0 127 -10v-147q-75 6 -80 6q-63 0 -96 -37t-33 -127v-166h205v-145h-205v-842h-180z" />
    <glyph glyph-name="f_f_i" unicode="ffi" horiz-adv-x="1638" 
d="M799 0v842h-402v-842h-182v842h-197v145h197v187q0 294 262 294q90 0 129 -10v-147q-81 6 -82 6q-62 0 -94.5 -37t-32.5 -127v-166h402v187q0 294 262 294q88 0 127 -10v-147q-75 6 -80 6q-63 0 -96 -37t-33 -127v-166h205v-145h-205v-842h-180zM1333 0v987h180v-987
h-180zM1333 1243v203h180v-203h-180z" />
    <glyph glyph-name="f_f_l" unicode="ffl" horiz-adv-x="1638" 
d="M799 0v842h-402v-842h-182v842h-197v145h197v187q0 294 262 294q90 0 129 -10v-147q-81 6 -82 6q-62 0 -94.5 -37t-32.5 -127v-166h402v187q0 294 262 294q88 0 127 -10v-147q-75 6 -80 6q-63 0 -96 -37t-33 -127v-166h205v-145h-205v-842h-180zM1333 0v1446h180v-1446
h-180z" />
    <glyph glyph-name="f_i" unicode="fi" horiz-adv-x="1056" 
d="M215 0v842h-197v145h197v187q0 294 262 294q90 0 129 -10v-147q-81 6 -82 6q-62 0 -94.5 -37t-32.5 -127v-166h205v-145h-205v-842h-182zM752 0v987h180v-987h-180zM752 1243v203h180v-203h-180z" />
    <glyph glyph-name="f_l" unicode="fl" horiz-adv-x="1056" 
d="M215 0v842h-197v145h197v187q0 294 262 294q90 0 129 -10v-147q-81 6 -82 6q-62 0 -94.5 -37t-32.5 -127v-166h205v-145h-205v-842h-182zM752 0v1446h180v-1446h-180z" />
    <glyph glyph-name=".notdef" horiz-adv-x="1071" 
d="M125 0v1446h821v-1446h-821zM233 109h605v1228h-605v-1228z" />
    <glyph glyph-name=".null" horiz-adv-x="0" 
 />
    <glyph glyph-name=".null" horiz-adv-x="0" 
 />
    <glyph glyph-name="uni000D" unicode="&#xd;" horiz-adv-x="438" 
 />
    <glyph glyph-name="space" unicode=" " horiz-adv-x="438" 
 />
    <glyph glyph-name="exclam" unicode="!" horiz-adv-x="503" 
d="M137 0v229h230v-229h-230zM164 356l-23 1090h221l-22 -1090h-176z" />
    <glyph glyph-name="quotedbl" unicode="&#x22;" horiz-adv-x="681" 
d="M117 860v586h147v-586h-147zM418 860v586h147v-586h-147z" />
    <glyph glyph-name="numbersign" unicode="#" 
d="M301 0l68 479h-316v146h336l29 198h-309v148h329l68 475h156l-68 -475h199l67 475h156l-68 -475h316v-148h-338l-29 -198h311v-146h-331l-68 -479h-154l68 479h-201l-67 -479h-154zM543 625h200l29 198h-201z" />
    <glyph glyph-name="dollar" unicode="$" 
d="M604 -195v162q-135 9 -244.5 63.5t-184 160.5t-91.5 251l203 33q7 -151 96.5 -238.5t220.5 -101.5v527q-49 11 -84.5 20t-79.5 22.5t-75.5 27t-67 32t-60 39t-48 48t-37.5 59t-22.5 71t-8.5 84.5q0 174 132 287t351 127v161h111v-161q210 -14 331 -127.5t154 -284.5
l-203 -37q-25 129 -100 198.5t-182 82.5v-484l82 -18q75 -18 130.5 -35.5t117 -50.5t100.5 -73.5t64.5 -104t25.5 -142.5q0 -182 -143.5 -301.5t-376.5 -134.5v-162h-111zM715 637v-504q145 12 230 84.5t85 175.5q0 48 -16 85t-39.5 60t-66.5 42.5t-79 29.5t-96 23zM604 854
v459q-125 -11 -202.5 -74t-77.5 -174q0 -46 21.5 -81.5t63.5 -60t86.5 -39.5t108.5 -30z" />
    <glyph glyph-name="percent" unicode="%" horiz-adv-x="1740" 
d="M471 778q54 0 93.5 43.5t58 107t18.5 134.5t-18.5 134.5t-58 107t-93.5 43.5q-55 0 -94.5 -43.5t-57.5 -106.5t-18 -135t18 -135t57.5 -106.5t94.5 -43.5zM471 662q-101 0 -175.5 60.5t-109 150t-34.5 190.5q0 100 34.5 189.5t109.5 150.5t175 61q76 0 138.5 -35.5
t101 -93t59.5 -128t21 -144.5q0 -101 -35 -190.5t-109.5 -150t-175.5 -60.5zM299 0l977 1446h166l-977 -1446h-166zM1270 98q54 0 93.5 43.5t58 107t18.5 134.5t-18.5 134.5t-58 107t-93.5 43.5q-55 0 -94.5 -43.5t-57.5 -106.5t-18 -135t18 -135t57.5 -106.5t94.5 -43.5z
M1270 -18q-101 0 -175.5 60.5t-109.5 150t-35 190.5q0 74 21 144.5t59.5 128t101 93t138.5 35.5q100 0 175 -61t109.5 -150.5t34.5 -189.5q0 -101 -34.5 -190.5t-109 -150t-175.5 -60.5z" />
    <glyph glyph-name="ampersand" unicode="&#x26;" horiz-adv-x="1345" 
d="M805 0v756h-236q-129 0 -215 -82.5t-86 -218.5q0 -147 87.5 -231.5t226.5 -84.5q59 0 106 8v-147q-77 -25 -149 -25q-205 0 -335 128.5t-130 351.5q0 145 75.5 248.5t208.5 148.5q-198 75 -198 270q0 158 119.5 259.5t302.5 101.5q191 0 300 -99.5t109 -261.5v-194h338
v-172h-338v-756h-186zM805 928v194q0 91 -57 145t-166 54q-104 0 -168 -56.5t-64 -142.5q0 -87 62.5 -140.5t162.5 -53.5h230z" />
    <glyph glyph-name="quotesingle" unicode="'" horiz-adv-x="378" 
d="M117 860v586h145v-586h-145z" />
    <glyph glyph-name="parenleft" unicode="(" horiz-adv-x="559" 
d="M70 494q0 412 321 952h135q-61 -126 -103 -227.5t-82 -224.5t-60.5 -248t-20.5 -252q0 -240 69 -463t197 -488h-135q-321 540 -321 951z" />
    <glyph glyph-name="parenright" unicode=")" horiz-adv-x="559" 
d="M492 494q0 -409 -322 -951h-135q128 265 197 488t69 463q0 127 -20.5 252t-60.5 248t-82 224.5t-103 227.5h135q322 -542 322 -952z" />
    <glyph glyph-name="asterisk" unicode="*" horiz-adv-x="870" 
d="M154 827l184 215l-279 70l50 156l262 -109l-21 287h166l-22 -285l266 109l49 -156l-277 -67l187 -220l-133 -96l-150 240l-149 -242z" />
    <glyph glyph-name="plus" unicode="+" 
d="M586 0v559h-543v154h543v559h151v-559h539v-154h-539v-559h-151z" />
    <glyph glyph-name="comma" unicode="," horiz-adv-x="438" 
d="M-10 -356l149 585h201l-199 -585h-151z" />
    <glyph glyph-name="hyphen" unicode="-" horiz-adv-x="837" 
d="M111 588v174h616v-174h-616z" />
    <glyph glyph-name="period" unicode="." horiz-adv-x="450" 
d="M111 0v229h229v-229h-229z" />
    <glyph glyph-name="slash" unicode="/" horiz-adv-x="786" 
d="M47 0l508 1446h186l-505 -1446h-189z" />
    <glyph glyph-name="zero" unicode="0" horiz-adv-x="1271" 
d="M635 131q87 0 155.5 51t110 136t63 188t21.5 215t-21.5 215.5t-63 189.5t-110 137.5t-155.5 51.5q-69 0 -127 -34t-98.5 -91.5t-68.5 -134.5t-41 -161.5t-13 -172.5q0 -112 21.5 -215t62.5 -188t109.5 -136t154.5 -51zM635 -35q-133 0 -240 66t-172.5 175t-100 241.5
t-34.5 273.5t34.5 274t100 243t172.5 176.5t240 66.5q108 0 199.5 -44t154.5 -118t108 -172t66 -206t21 -220t-21 -219.5t-66 -205t-108.5 -171t-154.5 -117t-199 -43.5z" />
    <glyph glyph-name="one" unicode="1" horiz-adv-x="651" 
d="M299 0v1092h-260v157h65q117 0 168.5 40.5t51.5 156.5h165v-1446h-190z" />
    <glyph glyph-name="two" unicode="2" horiz-adv-x="1153" 
d="M72 0v201q77 42 162.5 97t200 145t203 181t150.5 203.5t62 214.5q0 122 -70.5 197.5t-191.5 75.5q-272 0 -283 -350l-203 45q3 116 44 207.5t108.5 148t152.5 86t181 29.5q209 0 335 -123t126 -316q0 -106 -48.5 -217t-123.5 -203t-176.5 -183t-194.5 -157t-191 -124h762
v-158h-1005z" />
    <glyph glyph-name="three" unicode="3" horiz-adv-x="1167" 
d="M70 444l204 39q9 -173 89 -262.5t208 -89.5q141 0 225.5 81.5t84.5 195.5q0 115 -84 190.5t-240 75.5h-176v166h172q129 0 211 75.5t82 171.5q0 105 -75.5 166.5t-195.5 61.5q-61 0 -109 -19t-78 -49.5t-50.5 -71.5t-29 -81t-9.5 -82l-201 45q1 49 17.5 103t53.5 112
t90 104t135.5 75.5t180.5 29.5q207 0 338 -104.5t131 -289.5q0 -103 -76.5 -201t-215.5 -124q162 -26 244.5 -126t82.5 -230q0 -85 -32.5 -163t-94 -140.5t-160.5 -100t-221 -37.5q-96 0 -181.5 30t-154.5 88t-113 151t-52 210z" />
    <glyph glyph-name="four" unicode="4" horiz-adv-x="1175" 
d="M41 379v176l569 891h267v-909h260v-158h-260v-379h-193v379h-643zM240 537h444v723z" />
    <glyph glyph-name="five" unicode="5" horiz-adv-x="1134" 
d="M78 350l196 43q27 -124 97.5 -193t185.5 -69q141 0 224 97t83 253q0 86 -31.5 159.5t-97 121t-151.5 47.5q-62 0 -115 -21t-86.5 -54t-54.5 -66t-31 -66l-203 39l99 805h813v-166h-652l-59 -457q32 54 120 103t201 49q103 0 188 -40.5t139.5 -109t84 -157.5t29.5 -187
q0 -229 -136.5 -372.5t-363.5 -143.5q-192 0 -314.5 105.5t-164.5 279.5z" />
    <glyph glyph-name="six" unicode="6" horiz-adv-x="1167" 
d="M1063 1145l-203 -41q-31 114 -86 162.5t-141 48.5q-78 0 -139.5 -41t-98 -102t-61.5 -142.5t-34.5 -151t-12.5 -139.5q30 89 124.5 152t221.5 63q197 0 324.5 -136t127.5 -343q0 -119 -40 -217.5t-106.5 -161t-149.5 -97t-173 -34.5t-165.5 24t-129 64t-94.5 97.5
t-66.5 120.5t-42 137t-22.5 141.5t-6 140.5q0 94 12 184t37.5 180.5t69.5 166.5t102.5 135t142.5 92t185 33q89 0 170.5 -34.5t150.5 -112t103 -189.5zM610 131q117 0 201 92t84 250q0 143 -84 230.5t-203 87.5q-76 0 -135.5 -33.5t-92 -85t-49 -104t-16.5 -99.5
q0 -154 83 -246t212 -92z" />
    <glyph glyph-name="seven" unicode="7" horiz-adv-x="1071" 
d="M393 0h-207q98 251 306.5 653t341.5 627h-801v166h1003v-170q-135 -214 -336 -614.5t-307 -661.5z" />
    <glyph glyph-name="eight" unicode="8" horiz-adv-x="1181" 
d="M387 772q-116 35 -185 125.5t-69 204.5q0 62 28 126.5t81.5 122t144.5 94t203 36.5t203 -36.5t144.5 -94t81.5 -122t28 -126.5q0 -115 -67.5 -204.5t-186.5 -125.5q139 -30 221 -129.5t82 -257.5q0 -79 -34 -154t-96.5 -134.5t-160.5 -95.5t-215 -36q-123 0 -223 40
t-160 103.5t-91.5 135.5t-31.5 143q0 155 83 253t220 132zM274 391q0 -46 20 -91t57.5 -83.5t100 -62t138.5 -23.5q148 0 230.5 80t82.5 180q0 46 -8.5 86t-30.5 79t-56.5 66.5t-90 44.5t-127.5 17q-71 0 -127.5 -18.5t-91 -47.5t-57.5 -68.5t-31.5 -78.5t-8.5 -80z
M326 1092q0 -39 14.5 -78.5t44 -76.5t83 -60t122.5 -23t122.5 23t83 60t44 76.5t14.5 78.5q0 86 -70 156.5t-194 70.5t-194 -70.5t-70 -156.5z" />
    <glyph glyph-name="nine" unicode="9" horiz-adv-x="1163" 
d="M96 307l205 43q27 -116 84.5 -167.5t144.5 -51.5q60 0 110 23t84 59t60.5 90.5t42 105t26.5 116.5t15.5 111.5t8.5 102.5q-30 -87 -124.5 -150t-220.5 -63q-202 0 -328 136.5t-126 336.5q0 106 39.5 197.5t105 153t150.5 96.5t176 35q88 0 162 -23.5t127 -63t94.5 -96.5
t67 -119.5t42 -136.5t23 -143t6.5 -143q0 -93 -11.5 -182.5t-36 -180.5t-67.5 -166.5t-101.5 -135t-143 -93t-187.5 -33.5q-86 0 -169.5 35.5t-156 115.5t-102.5 191zM555 690q67 0 123.5 29t91.5 74.5t54.5 97.5t19.5 102q0 131 -81.5 226.5t-211.5 95.5q-118 0 -199.5 -94
t-81.5 -228q0 -129 85 -216t200 -87z" />
    <glyph glyph-name="colon" unicode=":" horiz-adv-x="450" 
d="M111 0v229h229v-229h-229zM111 758v229h229v-229h-229z" />
    <glyph glyph-name="semicolon" unicode=";" horiz-adv-x="503" 
d="M31 -356l149 585h201l-199 -585h-151zM145 758v229h230v-229h-230z" />
    <glyph glyph-name="less" unicode="&#x3c;" 
d="M16 610v154l1231 528v-155l-1042 -449l1042 -450v-156z" />
    <glyph glyph-name="equal" unicode="=" 
d="M43 403v150h1233v-150h-1233zM43 737v152h1233v-152h-1233z" />
    <glyph glyph-name="greater" unicode="&#x3e;" 
d="M72 82v156l1040 450l-1040 449v155l1231 -528v-154z" />
    <glyph glyph-name="question" unicode="?" horiz-adv-x="1079" 
d="M432 356v480q30 -5 96 -5q119 0 204 63.5t85 184.5q0 113 -80 174.5t-196 61.5q-120 0 -198.5 -71.5t-96.5 -211.5l-199 41q28 181 161.5 294.5t332.5 113.5q129 0 234 -44.5t171 -137.5t66 -220q0 -168 -106.5 -275.5t-274.5 -119.5v-328h-199zM418 0v229h229v-229h-229
z" />
    <glyph glyph-name="at" unicode="@" horiz-adv-x="1591" 
d="M692 401q82 0 155 71.5t112.5 168.5t39.5 182q0 75 -45 130t-112 55q-70 0 -131 -40.5t-100 -102.5t-61 -133.5t-22 -137.5q0 -85 46.5 -139t117.5 -54zM827 1368q-176 0 -319.5 -88t-223 -237t-79.5 -328q0 -140 48 -259t131.5 -202t199 -129.5t247.5 -46.5
q138 0 271 60t217 163l78 -68q-97 -126 -248.5 -197t-317.5 -71q-214 0 -386 93.5t-271.5 265.5t-99.5 391q0 162 59.5 305.5t160.5 244t239.5 158.5t291.5 58q149 0 278 -47t220.5 -129.5t144 -199.5t52.5 -253q0 -157 -66 -293t-175 -214.5t-232 -78.5q-57 0 -96.5 35
t-43.5 96q-45 -57 -112 -93t-138 -36q-126 0 -204 91.5t-78 228.5t57 263t166 209t244 83q71 0 132 -41.5t89 -120.5l45 125h127l-174 -571q-21 -73 -21 -103q0 -53 45 -53q80 0 151.5 70t113 180t41.5 227q0 230 -159 371t-405 141z" />
    <glyph glyph-name="A" unicode="A" horiz-adv-x="1374" 
d="M2 0l559 1446h254l555 -1446h-213l-160 430h-622l-160 -430h-213zM434 592h504l-252 684z" />
    <glyph glyph-name="B" unicode="B" horiz-adv-x="1363" 
d="M156 0v1446h622q205 0 331 -101.5t126 -281.5q0 -69 -25 -128t-64.5 -97t-83 -60.5t-85.5 -27.5q150 -22 231.5 -109t81.5 -233q0 -109 -41 -189.5t-115.5 -127.5t-169 -69t-212.5 -22h-596zM352 166h422q148 0 230.5 59t82.5 181q0 128 -86.5 192t-271.5 64h-377v-496z
M352 827h365q48 0 91.5 6.5t85 23.5t71.5 42.5t48.5 66.5t18.5 93q0 108 -76.5 164.5t-191.5 56.5h-412v-453z" />
    <glyph glyph-name="C" unicode="C" horiz-adv-x="1437" 
d="M1200 516l197 -39q-21 -100 -72 -190t-128.5 -163t-189 -116t-241.5 -43q-164 0 -297 60.5t-218 165t-130 241t-45 291.5q0 152 47.5 288.5t133.5 241.5t218 166.5t291 61.5q121 0 225.5 -37t180.5 -101.5t129 -147t83 -179.5l-196 -41q-22 70 -58 129t-87 107.5t-122 76
t-155 27.5q-113 0 -206.5 -48.5t-154 -130.5t-93.5 -188.5t-33 -224.5q0 -121 31 -226.5t90.5 -188t153.5 -130t212 -47.5q92 0 169 33t129.5 89t86.5 122.5t49 140.5z" />
    <glyph glyph-name="D" unicode="D" horiz-adv-x="1460" 
d="M352 166h262q124 0 221.5 29.5t161.5 80t105.5 122.5t59.5 152t18 173t-18 173t-59.5 152t-105.5 122.5t-161.5 80t-221.5 29.5h-262v-1114zM156 0v1446h473q115 0 219.5 -22.5t203.5 -76t171 -134t115.5 -206.5t43.5 -284t-43.5 -284t-115.5 -206.5t-171 -134
t-203.5 -76t-219.5 -22.5h-473z" />
    <glyph glyph-name="E" unicode="E" horiz-adv-x="1218" 
d="M156 0v1446h960v-166h-764v-451h738v-165h-738v-498h783v-166h-979z" />
    <glyph glyph-name="F" unicode="F" horiz-adv-x="1161" 
d="M156 0v1446h962v-166h-766v-444h721v-166h-721v-670h-196z" />
    <glyph glyph-name="G" unicode="G" horiz-adv-x="1482" 
d="M1200 0v209q-139 -244 -446 -244q-160 0 -290.5 60t-214.5 164t-129.5 241t-45.5 293q0 152 47 288.5t133 241.5t217.5 166.5t290.5 61.5q217 0 370 -110t226 -290l-197 -43q-55 126 -155.5 201.5t-243.5 75.5q-149 0 -261.5 -83.5t-168.5 -216.5t-56 -292
q0 -121 31 -226.5t90 -188t153 -130t212 -47.5q62 0 119.5 15t115 51.5t100 91t70 140.5t29.5 194h-461v165h649v-788h-184z" />
    <glyph glyph-name="H" unicode="H" horiz-adv-x="1478" 
d="M156 0v1446h196v-615h770v615h201v-1446h-201v666h-770v-666h-196z" />
    <glyph glyph-name="I" unicode="I" horiz-adv-x="507" 
d="M156 0v1446h196v-1446h-196z" />
    <glyph glyph-name="J" unicode="J" horiz-adv-x="1146" 
d="M25 446l202 37q0 -167 73.5 -261.5t217.5 -94.5q140 0 214.5 85.5t74.5 223.5v1010h197v-1002q0 -224 -131 -351.5t-353 -127.5q-217 0 -351.5 127t-143.5 354z" />
    <glyph glyph-name="K" unicode="K" horiz-adv-x="1288" 
d="M156 0v1446h196v-645l643 645h254l-688 -674l782 -772h-266l-725 721v-721h-196z" />
    <glyph glyph-name="L" unicode="L" horiz-adv-x="1112" 
d="M156 0v1446h196v-1280h738v-166h-934z" />
    <glyph glyph-name="M" unicode="M" horiz-adv-x="1804" 
d="M156 0v1446h301l448 -1239l438 1239h306v-1446h-189v1235l-436 -1235h-238l-442 1235v-1235h-188z" />
    <glyph glyph-name="N" unicode="N" horiz-adv-x="1546" 
d="M156 0v1446h270l780 -1249v1249h185v-1446h-285l-766 1247v-1247h-184z" />
    <glyph glyph-name="O" unicode="O" horiz-adv-x="1525" 
d="M766 131q121 0 216 50t151.5 134t85 186.5t28.5 215.5q0 91 -17.5 176t-55.5 162.5t-93 134.5t-136 91t-179 34q-99 0 -181 -34t-138 -91t-94.5 -134t-56 -162.5t-17.5 -176.5q0 -90 17.5 -173.5t56 -159t94.5 -131.5t138 -89t181 -33zM766 -35q-140 0 -256 42t-195 114
t-134 168.5t-80 204t-25 223.5t25 225t80 207.5t134 172t195 116.5t256 43q139 0 254 -43t193.5 -116.5t132.5 -172t79 -207.5t25 -225t-25 -223.5t-79 -204t-132.5 -168.5t-193.5 -114t-254 -42z" />
    <glyph glyph-name="P" unicode="P" horiz-adv-x="1271" 
d="M156 0v1446h604q223 0 346 -102.5t123 -305.5q0 -200 -122.5 -304.5t-346.5 -104.5h-408v-629h-196zM352 795h389q141 0 215 56t74 187q0 242 -289 242h-389v-485z" />
    <glyph glyph-name="Q" unicode="Q" horiz-adv-x="1540" 
d="M1393 -66l-181 189q-176 -158 -446 -158q-140 0 -256 42t-195 114t-134 168.5t-80 204t-25 223.5t25 225t80 207.5t134 172t195 116.5t256 43q139 0 254 -43t193.5 -116.5t132.5 -172t79 -207.5t25 -225q0 -262 -121 -455l197 -205zM766 131q121 0 216 50t151.5 134
t85 186.5t28.5 215.5q0 91 -17.5 176t-55.5 162.5t-93 134.5t-136 91t-179 34q-99 0 -181 -34t-138 -91t-94.5 -134t-56 -162.5t-17.5 -176.5q0 -90 17.5 -173.5t56 -159t94.5 -131.5t138 -89t181 -33z" />
    <glyph glyph-name="R" unicode="R" horiz-adv-x="1368" 
d="M156 0v1446h600q233 0 356 -99.5t123 -279.5q0 -68 -17.5 -125.5t-43.5 -94t-59.5 -63.5t-62.5 -39.5t-55 -17.5q230 -45 230 -276v-224q0 -66 17 -119t69 -108h-223q-62 74 -62 201v217q0 121 -62.5 167t-189.5 46h-426v-631h-194zM350 797h412q70 0 122.5 19.5
t80.5 46.5t45 65t21.5 67t4.5 60q0 105 -71 165t-217 60h-398v-483z" />
    <glyph glyph-name="S" unicode="S" horiz-adv-x="1282" 
d="M57 442l203 33q9 -166 117.5 -255t263.5 -89q171 0 274 74.5t103 187.5q0 48 -16 85t-39 60t-65 42t-76 28.5t-91 22.5l-139 31q-58 13 -94.5 22t-88.5 24t-85.5 30.5t-73.5 38t-64.5 50t-47 62t-32.5 79t-10 97.5q0 188 150 302t397 114q100 0 183.5 -22t143 -59.5
t104.5 -90.5t71.5 -113t40.5 -129l-203 -37q-18 98 -69 163.5t-119 93.5t-152 28q-97 0 -173 -25.5t-124.5 -83t-48.5 -141.5q0 -35 12 -63.5t37.5 -49.5t52 -36.5t70 -29.5t74.5 -22t82 -20l155 -35q76 -17 132.5 -35.5t118 -51t100.5 -73t64.5 -104t25.5 -142.5
q0 -194 -161.5 -316t-422.5 -122q-231 0 -390.5 123t-189.5 354z" />
    <glyph glyph-name="T" unicode="T" horiz-adv-x="1159" 
d="M479 0v1280h-459v166h1119v-166h-461v-1280h-199z" />
    <glyph glyph-name="U" unicode="U" horiz-adv-x="1433" 
d="M143 506v940h197v-940q0 -171 101.5 -273t275.5 -102q177 0 276 98.5t99 276.5v940h198v-940q0 -132 -42.5 -236t-119.5 -170t-181 -100.5t-230 -34.5q-274 0 -424 150.5t-150 390.5z" />
    <glyph glyph-name="V" unicode="V" horiz-adv-x="1331" 
d="M545 0l-537 1446h205l453 -1233l467 1233h200l-555 -1446h-233z" />
    <glyph glyph-name="W" unicode="W" horiz-adv-x="1984" 
d="M414 0l-398 1446h197l336 -1251l307 1251h274l308 -1251l334 1251h198l-399 -1446h-273l-305 1270l-305 -1270h-274z" />
    <glyph glyph-name="X" unicode="X" horiz-adv-x="1282" 
d="M-35 0l559 776l-479 670h229l371 -528l367 528h227l-481 -670l555 -776h-232l-444 633l-440 -633h-232z" />
    <glyph glyph-name="Y" unicode="Y" horiz-adv-x="1298" 
d="M549 0v672l-537 774h230l409 -617l420 617h221l-547 -774v-672h-196z" />
    <glyph glyph-name="Z" unicode="Z" horiz-adv-x="1226" 
d="M51 0v190l844 1088h-811v168h1055v-168l-869 -1110h918v-168h-1137z" />
    <glyph glyph-name="bracketleft" unicode="[" horiz-adv-x="591" 
d="M150 -457v1903h411v-137h-242v-1628h242v-138h-411z" />
    <glyph glyph-name="backslash" unicode="\" horiz-adv-x="786" 
d="M551 0l-506 1446h186l508 -1446h-188z" />
    <glyph glyph-name="bracketright" unicode="]" horiz-adv-x="589" 
d="M29 -457v138h241v1628h-239v137h409v-1903h-411z" />
    <glyph glyph-name="asciicircum" unicode="^" 
d="M213 700l379 746h147l365 -746h-182l-260 541l-267 -541h-182z" />
    <glyph glyph-name="underscore" unicode="_" horiz-adv-x="1064" 
d="M0 -256v109h1065v-109h-1065z" />
    <glyph glyph-name="grave" unicode="`" horiz-adv-x="536" 
d="M285 1106l-183 350h191l141 -350h-149z" />
    <glyph glyph-name="a" unicode="a" horiz-adv-x="1009" 
d="M905 0h-182q-14 70 -14 143q-41 -86 -122 -127t-186 -41q-154 0 -244.5 83t-90.5 204q0 69 22 121t55.5 84.5t90 56.5t107 36.5t126.5 25.5q114 17 129 20q77 14 98 40.5t21 74.5q0 23 -9 46t-30 47.5t-64.5 40t-103.5 15.5q-100 0 -161 -52t-68 -156l-185 34
q24 135 123 219q118 97 291 97q383 0 383 -326v-450q0 -166 14 -236zM252 270q0 -65 52 -109t124 -44q31 0 64.5 6t73.5 23.5t71 44.5t51.5 75t20.5 109v129q-27 -12 -150 -37l-67 -12q-47 -9 -75 -16t-63.5 -21.5t-54.5 -32.5t-33 -47t-14 -68z" />
    <glyph glyph-name="b" unicode="b" horiz-adv-x="1130" 
d="M125 0v1446h182v-602q33 70 119 119t186 49q95 0 172.5 -31.5t128.5 -83.5t85.5 -120.5t49.5 -139t15 -143.5q0 -49 -9.5 -102.5t-29.5 -113.5t-56.5 -113t-85.5 -96t-122.5 -68.5t-161.5 -25.5q-92 0 -179 52.5t-118 124.5v-152h-176zM584 121q76 0 135 33t93 88
t50.5 118.5t16.5 131.5q0 169 -80 271.5t-215 102.5q-35 0 -70 -9.5t-74 -35.5t-68.5 -66t-49 -107.5t-19.5 -153.5t20 -154t50 -108t69 -66t74 -35.5t68 -9.5z" />
    <glyph glyph-name="c" unicode="c" horiz-adv-x="1030" 
d="M799 367l182 -37q-6 -43 -25.5 -89.5t-56.5 -94.5t-86 -85.5t-120.5 -61.5t-153.5 -24q-95 0 -174.5 29t-133.5 78t-91.5 115.5t-54.5 140.5t-17 154q0 79 19 154.5t58 142t93.5 116t132 78.5t168.5 29q82 0 152 -22t118 -56.5t84 -80.5t55.5 -91.5t28.5 -91.5l-182 -33
q-3 24 -12 51t-29 59.5t-47 58t-71 43t-97 17.5q-57 0 -105 -21.5t-81 -57.5t-56.5 -84t-34 -101.5t-10.5 -109.5q0 -71 16 -135t49 -118t90 -86t132 -32q62 0 111.5 24t79 63t46.5 79t23 80z" />
    <glyph glyph-name="d" unicode="d" horiz-adv-x="1132" 
d="M831 0v150q-29 -72 -120 -123.5t-189 -51.5q-100 0 -180.5 35t-130 89.5t-83 125t-47 137t-13.5 130.5q0 69 14.5 138t49.5 138.5t86.5 123t132 87t179.5 33.5q93 0 178.5 -50.5t118.5 -119.5v604h181v-1446h-177zM549 121q35 0 70 9.5t74 35.5t68.5 66t48.5 107t19 153
t-19 154t-48 108t-67 66.5t-72 36t-66 9.5q-76 0 -136 -32t-96 -86t-54.5 -119t-18.5 -135q0 -49 10 -99t33 -99.5t56.5 -88t84.5 -62.5t113 -24z" />
    <glyph glyph-name="e" unicode="e" horiz-adv-x="1040" 
d="M784 328l174 -37q-11 -53 -44.5 -107t-84.5 -101.5t-126 -77.5t-158 -30q-120 0 -213.5 43t-149 116.5t-84 164t-28.5 193.5t29.5 195.5t84.5 165.5t142.5 116t195.5 43q140 0 243.5 -69t155.5 -187t52 -269q0 -30 -2 -38h-717q1 -63 17.5 -120.5t49.5 -106t88.5 -77
t127.5 -28.5q56 0 101 19.5t74 51.5t46.5 67t25.5 73zM256 590h526q0 110 -69 195t-191 85q-123 0 -194.5 -80t-71.5 -200z" />
    <glyph glyph-name="f" unicode="f" horiz-adv-x="620" 
d="M215 0v842h-197v145h197v187q0 294 262 294q90 0 129 -10v-147q-81 6 -82 6q-62 0 -94.5 -37t-32.5 -127v-166h205v-145h-205v-842h-182z" />
    <glyph glyph-name="g" unicode="g" horiz-adv-x="1122" 
d="M111 -133l192 35q8 -103 75.5 -170.5t170.5 -67.5q139 0 203.5 86t64.5 225v175q-33 -68 -121 -117t-182 -49q-113 0 -201 43t-140 116t-78.5 162t-26.5 189q0 64 12.5 130t45.5 137t83 125.5t132.5 90t186.5 35.5q91 0 177.5 -52.5t117.5 -123.5v151h174v-1016
q0 -214 -113 -333t-335 -119q-177 0 -297.5 95t-140.5 253zM539 129q36 0 71.5 9.5t74 35.5t67.5 65.5t48 106t19 150.5t-18.5 151t-46.5 107t-64.5 66.5t-70 36t-66.5 9.5q-80 0 -141 -35t-94.5 -91t-49.5 -117t-16 -123q0 -103 32 -186t98 -134t157 -51z" />
    <glyph glyph-name="h" unicode="h" horiz-adv-x="1071" 
d="M125 0v1446h178v-623q22 71 106.5 130t204.5 59q171 0 271 -133q45 -60 58 -127t13 -203v-549h-182v549q0 105 -8 155.5t-31 83.5q-56 78 -172 78t-190 -90q-41 -51 -54.5 -112.5t-13.5 -192.5v-471h-180z" />
    <glyph glyph-name="i" unicode="i" horiz-adv-x="432" 
d="M125 0v987h182v-987h-182zM125 1243v203h182v-203h-182z" />
    <glyph glyph-name="j" unicode="j" horiz-adv-x="442" 
d="M-80 -469v154q61 -9 76 -9q46 0 76 13.5t43 38t17.5 47t4.5 53.5v1159h180v-1165q0 -73 -10.5 -123t-38.5 -93t-83 -64t-138 -21q-76 0 -127 10zM137 1243v203h180v-203h-180z" />
    <glyph glyph-name="k" unicode="k" horiz-adv-x="1009" 
d="M125 0v1446h182v-873l430 414h236l-475 -442l557 -545h-236l-512 489v-489h-182z" />
    <glyph glyph-name="l" unicode="l" horiz-adv-x="432" 
d="M125 0v1446h182v-1446h-182z" />
    <glyph glyph-name="m" unicode="m" horiz-adv-x="1613" 
d="M125 0v987h178v-160q17 68 94.5 126.5t186.5 58.5q146 0 237 -111q32 -37 51 -90q27 82 106 141.5t191 59.5q165 0 258 -125q43 -60 57.5 -130.5t14.5 -207.5v-549h-180v588q0 43 -3 75.5t-14 73t-31 66.5t-57 44.5t-88 18.5q-108 0 -174 -100q-28 -43 -38.5 -91.5
t-10.5 -129.5v-545h-180v588q0 43 -3 75.5t-14 73t-30.5 66.5t-56 44.5t-87.5 18.5q-110 0 -176 -100q-32 -48 -40.5 -101.5t-8.5 -168.5v-496h-182z" />
    <glyph glyph-name="n" unicode="n" horiz-adv-x="1067" 
d="M125 0v987h178v-160q20 69 104 127t203 58q78 0 151 -31.5t122 -97.5q45 -61 57 -128t12 -206v-549h-180v549q0 106 -8.5 156t-32.5 83q-20 31 -64.5 54.5t-107.5 23.5q-117 0 -188 -90q-38 -49 -51 -114.5t-13 -190.5v-471h-182z" />
    <glyph glyph-name="o" unicode="o" horiz-adv-x="1087" 
d="M545 121q57 0 105.5 21.5t81.5 58t56.5 84.5t34.5 100.5t11 106.5q0 55 -11 107.5t-34.5 101t-56.5 85t-81.5 58.5t-105.5 22q-72 0 -129.5 -33t-92 -87.5t-53 -119.5t-18.5 -134q0 -93 30.5 -175t99 -139t163.5 -57zM545 -25q-90 0 -168 29.5t-134 80t-96 116.5
t-59.5 140.5t-19.5 150.5q0 97 32 189t90 166t150.5 119.5t204.5 45.5q111 0 203 -45.5t150.5 -119.5t90 -166t31.5 -189q0 -96 -32 -187.5t-90 -165.5t-150 -119t-203 -45z" />
    <glyph glyph-name="p" unicode="p" horiz-adv-x="1134" 
d="M125 -457v1444h176v-149q31 71 122 122.5t189 51.5q95 0 173 -31.5t129.5 -83.5t86.5 -120.5t50.5 -139t15.5 -143.5q0 -60 -13 -125t-47 -137t-85 -128t-135 -92.5t-189 -36.5q-94 0 -175 49.5t-116 120.5v-602h-182zM584 121q67 0 120.5 25t86 64t54 90t30 98.5
t8.5 93.5q0 100 -32 183.5t-101 137t-164 53.5q-36 0 -71.5 -9.5t-75 -35.5t-68.5 -66t-48.5 -107.5t-19.5 -153.5q0 -85 20 -153t50 -108t69 -66.5t74 -36t68 -9.5z" />
    <glyph glyph-name="q" unicode="q" horiz-adv-x="1126" 
d="M821 -457v600q-33 -71 -118 -119.5t-185 -48.5t-180 35t-129 90t-82 126t-46 137.5t-13 130.5q0 68 14 136.5t48.5 138.5t85 123t131 86.5t179.5 33.5q91 0 181.5 -53t119.5 -123v151h174v-1444h-180zM547 121q34 0 69 9.5t73.5 35.5t68 66t48.5 108t19 154t-19 154
t-48 107.5t-67 65.5t-71.5 35.5t-66.5 9.5q-139 0 -220 -104t-81 -268q0 -71 18.5 -137t54 -119t93 -85t129.5 -32z" />
    <glyph glyph-name="r" unicode="r" horiz-adv-x="681" 
d="M125 0v987h178v-166q27 76 106.5 133.5t186.5 57.5q40 0 70 -6v-183q-40 8 -95 8q-135 0 -211 -112q-24 -32 -36.5 -80t-14.5 -87t-2 -106v-446h-182z" />
    <glyph glyph-name="s" unicode="s" horiz-adv-x="962" 
d="M51 309l189 41q6 -108 67 -170.5t172 -62.5q100 0 167 41t67 121q0 32 -14 56.5t-30.5 38t-48.5 25t-48.5 15.5t-49.5 10l-116 22q-37 7 -58 12t-59.5 17t-62 24t-53.5 34.5t-46.5 48.5t-28.5 64t-12 83q0 115 103.5 199t291.5 84q146 0 256 -81.5t137 -228.5l-176 -34
q-13 97 -63.5 149.5t-161.5 52.5q-103 0 -156 -43.5t-53 -95.5q0 -105 205 -141l78 -15q42 -8 70 -14t68.5 -18t68 -26t57.5 -36t48 -48.5t30 -64.5t12 -83q0 -95 -58 -167t-153 -107.5t-211 -35.5q-81 0 -151 21.5t-118 56t-83.5 79t-53.5 89.5t-22 88z" />
    <glyph glyph-name="t" unicode="t" horiz-adv-x="636" 
d="M207 219v623h-191v145h191v326h182v-326h209v-145h-209v-580q0 -68 27.5 -96.5t83.5 -28.5q46 0 98 10v-145q-77 -16 -141 -16q-119 0 -184.5 58t-65.5 175z" />
    <glyph glyph-name="u" unicode="u" horiz-adv-x="1062" 
d="M115 438v549h182v-549q0 -106 8.5 -156t32.5 -83q21 -32 64.5 -55t107.5 -23q60 0 102.5 22.5t79.5 67.5q41 50 53.5 111t12.5 194v471h180v-987h-178v160q-20 -69 -101 -127t-200 -58q-78 0 -151 31.5t-122 97.5q-45 61 -58 129t-13 205z" />
    <glyph glyph-name="v" unicode="v" horiz-adv-x="972" 
d="M379 0l-361 987h187l282 -780l291 780h183l-371 -987h-211z" />
    <glyph glyph-name="w" unicode="w" horiz-adv-x="1525" 
d="M328 0l-312 987h183l237 -778l215 778h223l220 -778l237 778h180l-313 -987h-215l-221 782l-217 -782h-217z" />
    <glyph glyph-name="x" unicode="x" horiz-adv-x="899" 
d="M6 0l336 514l-305 473h205l213 -338l219 338h200l-317 -475l326 -512h-203l-229 373l-238 -373h-207z" />
    <glyph glyph-name="y" unicode="y" horiz-adv-x="950" 
d="M66 -469v158q50 -13 77 -13q135 0 172 103l74 201l-369 1007h189l274 -772l273 772h182l-463 -1278q-70 -188 -287 -188q-40 0 -122 10z" />
    <glyph glyph-name="z" unicode="z" horiz-adv-x="903" 
d="M43 0v164l569 678h-520v145h746v-139l-586 -701h598v-147h-807z" />
    <glyph glyph-name="braceleft" unicode="{" horiz-adv-x="581" 
d="M561 -375v-82q-68 4 -100.5 7t-76 12.5t-72.5 27.5t-54 48q-46 52 -58 118.5t-12 186.5v159q0 104 -3 148t-15 78q-34 96 -129 127v77q95 31 129 127q12 34 15 78t3 148v162q0 120 12 186.5t58 118.5q21 24 46.5 40.5t47.5 25.5t62.5 15t65 8t81.5 5v-82
q-78 -23 -119.5 -52.5t-60.5 -82.5q-23 -59 -23 -197v-129q0 -153 -7 -207t-36 -102q-15 -24 -32 -41.5t-38 -29t-34 -17t-35 -12.5q21 -7 35 -12.5t34.5 -17t37.5 -29.5t32 -42q29 -48 36 -102t7 -207v-127q0 -138 23 -197q19 -53 60.5 -82.5t119.5 -52.5z" />
    <glyph glyph-name="bar" unicode="|" horiz-adv-x="462" 
d="M150 -457v1903h163v-1903h-163z" />
    <glyph glyph-name="braceright" unicode="}" horiz-adv-x="581" 
d="M20 -457v82q78 23 120 52.5t61 82.5q22 56 22 197v127q0 153 7 207t36 102q19 31 46.5 53.5t46 30t47.5 17.5q-23 7 -35.5 12.5t-34 17t-38.5 29t-32 41.5q-29 48 -36 102t-7 207v129q0 141 -22 197q-19 53 -61 82.5t-120 52.5v82q57 -3 81.5 -5t65.5 -8t63 -15
t47.5 -25.5t46.5 -40.5q46 -51 57.5 -117.5t11.5 -187.5v-162q0 -102 3.5 -146.5t15.5 -79.5q34 -96 129 -127v-77q-95 -31 -129 -127q-12 -35 -15.5 -79.5t-3.5 -146.5v-159q0 -82 -2.5 -124t-18.5 -93.5t-48 -87.5q-25 -30 -54 -48t-73 -27.5t-76.5 -12.5t-100.5 -7z" />
    <glyph glyph-name="asciitilde" unicode="~" 
d="M137 514l-88 16q42 165 139 247.5t215 82.5q70 0 139.5 -20t124 -49t106 -58t104.5 -49t100 -20q91 0 144 44t83 148l88 -18q-43 -164 -140 -246t-214 -82q-86 0 -172.5 31t-145 67.5t-129 67.5t-126.5 31q-92 0 -145.5 -44.5t-82.5 -148.5z" />
    <glyph glyph-name="uni00A0" unicode="&#xa0;" horiz-adv-x="438" 
 />
    <glyph glyph-name="exclamdown" unicode="&#xa1;" horiz-adv-x="499" 
d="M135 1217v229h230v-229h-230zM139 0l23 1090h176l22 -1090h-221z" />
    <glyph glyph-name="cent" unicode="&#xa2;" 
d="M526 -195v179q-163 35 -276.5 142t-167 258.5t-53.5 338.5q0 177 57 329t171 262t269 148v178h115v-159q8 0 26 1t27 1q8 0 25 -1t26 -1v159h113v-178q170 -41 280.5 -162.5t149.5 -283.5l-182 -41q-26 103 -88 187.5t-160 123.5v-1122q110 44 174.5 142.5t81.5 209.5
l184 -37q-14 -81 -47 -156.5t-85.5 -143.5t-132 -119t-175.5 -74v-181h-113v162q-8 0 -25.5 -1t-25.5 -1q-10 0 -28 1t-25 1v-162h-115zM745 131v1186q-18 2 -51 2q-37 0 -53 -4v-1184q16 -2 53 -2q35 0 51 2zM526 164v1116q-142 -60 -219.5 -211.5t-77.5 -345.5
q0 -203 74.5 -353.5t222.5 -205.5z" />
    <glyph glyph-name="sterling" unicode="&#xa3;" 
d="M164 0l246 717h-271v168h330l106 307q96 276 379 276q77 0 142 -18v-170q-60 18 -135 18t-124 -40t-73 -107l-90 -266h358v-168h-418l-186 -549h754v-168h-1018z" />
    <glyph glyph-name="currency" unicode="&#xa4;" 
d="M70 195l149 153q-25 38 -38 61t-30.5 64.5t-25.5 89t-8 105.5q0 174 102 315l-147 156l123 125l149 -156q43 31 75.5 49.5t98.5 37.5t141 19q74 0 142.5 -20.5t99 -38t70.5 -45.5l151 154l125 -125l-151 -156q21 -30 32 -49.5t30.5 -61.5t29.5 -94t10 -112t-10.5 -112.5
t-29.5 -94t-32 -63t-32 -48.5l151 -158l-125 -124l-151 157q-47 -32 -78.5 -49.5t-96 -35t-137.5 -17.5q-75 0 -138.5 17t-95.5 35t-79 50l-151 -153zM659 285q154 0 263.5 107t109.5 276q0 86 -31.5 159.5t-83.5 121.5t-118.5 75t-136.5 27q-155 0 -267 -106t-112 -279
q0 -164 109.5 -272.5t266.5 -108.5z" />
    <glyph glyph-name="yen" unicode="&#xa5;" 
d="M553 0v453h-426v112h426v107h-426v112h350l-432 662h227l383 -617l398 617h221l-447 -662h363v-112h-438v-107h438v-112h-438v-453h-199z" />
    <glyph glyph-name="brokenbar" unicode="&#xa6;" horiz-adv-x="475" 
d="M156 -457v797h163v-797h-163zM156 649v797h163v-797h-163z" />
    <glyph glyph-name="section" unicode="&#xa7;" horiz-adv-x="894" 
d="M301 -412v144q39 -8 100 -8q65 0 109.5 34t44.5 105q0 26 -9.5 52t-30 55t-33 44t-40.5 44.5t-30 31.5l-205 229q-152 166 -152 340q0 54 18.5 100.5t50.5 80.5t66 57.5t74 42.5q-43 51 -75.5 121.5t-32.5 132.5q0 93 44 159.5t112.5 97t152.5 30.5q81 0 129 -11v-143
q-39 8 -100 8q-65 0 -109.5 -34t-44.5 -105q0 -26 9.5 -52t30 -55t33 -44t40.5 -44.5t30 -31.5l205 -230q152 -166 152 -340q0 -181 -211 -280q44 -55 77 -124t33 -130q0 -93 -44 -159.5t-112.5 -97t-152.5 -30.5q-85 0 -129 10zM340 434l186 -203q60 13 99 57t39 111
q0 61 -27 113.5t-82 112.5l-186 202q-60 -13 -99 -57t-39 -111q0 -61 27 -113t82 -112z" />
    <glyph glyph-name="dieresis" unicode="&#xa8;" horiz-adv-x="821" 
d="M102 1169v215h207v-215h-207zM512 1169v215h207v-215h-207z" />
    <glyph glyph-name="copyright" unicode="&#xa9;" horiz-adv-x="1658" 
d="M1092 596l157 -29q-6 -44 -24.5 -88t-53 -88t-81 -77.5t-114.5 -54.5t-147 -21q-126 0 -232 65t-167 177t-61 245q0 134 62.5 246.5t168 176.5t229.5 64q91 0 166 -27t123.5 -72t79 -95.5t45.5 -106.5l-160 -30q-22 78 -83.5 129t-170.5 51q-128 0 -212.5 -95t-84.5 -241
t84.5 -241t212.5 -95q64 0 113.5 18.5t79.5 49.5t47 65.5t23 73.5zM137 723q0 -187 93 -346.5t252.5 -252.5t346.5 -93t347 93t253 252.5t93 346.5t-93 346.5t-253 252.5t-347 93t-346.5 -93t-252.5 -252.5t-93 -346.5zM72 723q0 154 60 294.5t161.5 242t241.5 161.5t294 60
t294.5 -60t242 -161.5t161.5 -242t60 -294.5t-60 -294.5t-161.5 -242t-242 -161.5t-294.5 -60t-294 60t-241.5 161.5t-161.5 242t-60 294.5z" />
    <glyph glyph-name="ordfeminine" unicode="&#xaa;" horiz-adv-x="739" 
d="M633 799h-123q-10 30 -10 82q-55 -99 -199 -99q-102 0 -162.5 60.5t-60.5 134.5q0 45 15.5 79t39.5 56t63.5 38t76 24.5t89.5 17.5q60 10 66 10q34 6 51.5 17t21 22.5t3.5 32.5q0 15 -6 30t-19.5 30.5t-41.5 25.5t-66 10q-65 0 -104.5 -34.5t-43.5 -102.5l-127 22
q12 79 64 131q33 39 90 60.5t121 21.5q159 0 215 -98q39 -51 39 -153v-261q0 -42 2 -79t4 -57zM500 1126q-28 -7 -86 -18l-66 -14q-22 -5 -38 -9t-37.5 -13t-35 -20t-23 -29t-9.5 -40q0 -40 32 -71t76 -31q27 0 55 7t60 23.5t52 51.5t20 84v79z" />
    <glyph glyph-name="guillemotleft" unicode="&#xab;" horiz-adv-x="886" 
d="M78 602v154l344 260v-172l-227 -166l227 -166v-172zM424 602v154l344 260v-172l-227 -166l227 -166v-172z" />
    <glyph glyph-name="logicalnot" unicode="&#xac;" 
d="M80 575v154h1122v-629h-153v475h-969z" />
    <glyph glyph-name="uni00AD" unicode="&#xad;" horiz-adv-x="837" 
d="M111 588v174h616v-174h-616z" />
    <glyph glyph-name="registered" unicode="&#xae;" horiz-adv-x="1007" 
d="M311 944v531h197q87 0 125 -13q38 -14 59 -47.5t21 -73.5q0 -53 -33 -85t-86 -42q41 -17 59 -41.5t27 -74.5q7 -48 10.5 -66.5t10.5 -41.5t18 -46h-90q-10 19 -16 43.5t-11 66t-6 48.5q-8 54 -39.5 71t-95.5 17h-72v-246h-78zM391 1253h125q119 0 119 84q0 34 -27 58
q-16 13 -38.5 16.5t-73.5 3.5h-105v-162zM129 1206q0 -155 110 -265t265 -110t265 110t110 265t-110 265t-265 110t-265 -110t-110 -265zM63 1206q0 183 129 312t312 129t311.5 -129t128.5 -312t-128.5 -311.5t-311.5 -128.5t-312 128.5t-129 311.5z" />
    <glyph glyph-name="macron" unicode="&#xaf;" horiz-adv-x="821" 
d="M102 1212v150h617v-150h-617z" />
    <glyph glyph-name="degree" unicode="&#xb0;" horiz-adv-x="819" 
d="M410 897q88 0 150.5 61.5t62.5 149.5q0 89 -62.5 151t-150.5 62q-89 0 -151 -62t-62 -151q0 -88 62 -149.5t151 -61.5zM410 762q-145 0 -247 101.5t-102 244.5q0 145 102 246.5t247 101.5t246.5 -101.5t101.5 -246.5q0 -143 -102 -244.5t-246 -101.5z" />
    <glyph glyph-name="plusminus" unicode="&#xb1;" 
d="M82 719v153h504v433h151v-433h500v-153h-500v-434h-151v434h-504zM82 0v154h1155v-154h-1155z" />
    <glyph glyph-name="twosuperior" unicode="&#xb2;" horiz-adv-x="737" 
d="M84 1028v131q44 18 135 80t158 127q115 110 115 211q0 54 -31.5 86.5t-81.5 32.5q-62 0 -95.5 -40t-33.5 -134l-152 32q1 67 26 118.5t66 81t89 44t100 14.5q114 0 187 -65t73 -170q0 -59 -27 -118t-56 -94t-75 -81q-32 -33 -97 -77t-103 -62h372v-117h-569z" />
    <glyph glyph-name="threesuperior" unicode="&#xb3;" horiz-adv-x="737" 
d="M78 1270l147 33q3 -82 40 -129.5t100 -47.5q65 0 101 37t36 88q0 49 -35.5 85t-120.5 36h-88v113h84q64 0 102.5 31.5t38.5 72.5q0 47 -32.5 77t-83.5 30q-125 0 -129 -150l-148 35q2 39 19.5 78.5t50 74.5t87 56.5t120.5 21.5q113 0 189.5 -58.5t76.5 -166.5
q0 -16 -7.5 -38t-23 -47.5t-46.5 -45.5t-71 -26q62 -6 101 -41.5t51 -73.5t12 -78q0 -93 -77.5 -160t-206.5 -67q-53 0 -101 14.5t-88.5 44.5t-66.5 81.5t-31 119.5z" />
    <glyph glyph-name="acute" unicode="&#xb4;" horiz-adv-x="536" 
d="M102 1106l142 350h190l-182 -350h-150z" />
    <glyph glyph-name="mu" unicode="&#xb5;" horiz-adv-x="1107" 
d="M143 -457v1444h181v-575q0 -51 4 -90t17.5 -78.5t36 -65t62 -41.5t93.5 -16q69 0 118.5 27.5t76.5 77t39.5 107t12.5 126.5v528h181v-987h-179v158q-20 -67 -99.5 -125t-186.5 -58q-101 0 -176 54v-486h-181z" />
    <glyph glyph-name="paragraph" unicode="&#xb6;" horiz-adv-x="1087" 
d="M371 -457v1094q-139 29 -230.5 141.5t-91.5 257.5q0 169 120 289.5t290 120.5h518v-113h-72v-1790h-119v1790h-297v-1790h-118z" />
    <glyph glyph-name="periodcentered" unicode="&#xb7;" horiz-adv-x="475" 
d="M96 668q0 58 41.5 99.5t100.5 41.5q58 0 99.5 -41.5t41.5 -99.5t-41 -99t-100 -41t-100.5 41t-41.5 99z" />
    <glyph glyph-name="cedilla" unicode="&#xb8;" horiz-adv-x="489" 
d="M102 -473v100h66q46 0 75 23.5t29 66.5q0 39 -29.5 61.5t-74.5 22.5h-66v211h107v-112q79 -6 128.5 -54.5t49.5 -128.5q0 -89 -60.5 -139.5t-152.5 -50.5h-72z" />
    <glyph glyph-name="onesuperior" unicode="&#xb9;" horiz-adv-x="737" 
d="M332 1028v545h-144v119h56q57 0 78.5 21t21.5 81h135v-766h-147z" />
    <glyph glyph-name="ordmasculine" unicode="&#xba;" horiz-adv-x="765" 
d="M385 885q88 0 136 71t48 166q0 61 -19 115t-62.5 91.5t-102.5 37.5q-90 0 -139 -73.5t-49 -170.5q0 -60 19.5 -112.5t63.5 -88.5t105 -36zM385 780q-99 0 -173 51.5t-109 128t-35 162.5q0 88 35 165t109 129t173 52q73 0 134 -30t99 -79.5t59 -110.5t21 -126
q0 -86 -35 -162.5t-108 -128t-170 -51.5z" />
    <glyph glyph-name="guillemotright" unicode="&#xbb;" horiz-adv-x="886" 
d="M119 340v172l227 166l-227 166v172l344 -260v-154zM467 340v172l227 166l-227 166v172l342 -260v-154z" />
    <glyph glyph-name="onequarter" unicode="&#xbc;" horiz-adv-x="1740" 
d="M309 680v545h-143v118h55q57 0 79 21.5t22 81.5h135v-766h-148zM240 0l977 1446h165l-976 -1446h-166zM958 188v115l306 463h178v-461h141v-117h-141v-188h-139v188h-345zM1110 305h193v309z" />
    <glyph glyph-name="onehalf" unicode="&#xbd;" horiz-adv-x="1740" 
d="M319 680v545h-143v118h55q57 0 79 21.5t22 81.5h135v-766h-148zM250 0l977 1446h166l-977 -1446h-166zM985 0v131q44 18 135 80t158 127q115 110 115 211q0 54 -31.5 86.5t-81.5 32.5q-62 0 -95.5 -40t-33.5 -134l-152 32q1 67 26 118.5t66 81t89 44t100 14.5
q114 0 187 -65t73 -170q0 -59 -27 -118t-56 -94t-75 -81q-32 -33 -97 -77t-103 -62h372v-117h-569z" />
    <glyph glyph-name="threequarters" unicode="&#xbe;" horiz-adv-x="1740" 
d="M117 922l147 32q3 -82 39.5 -129t99.5 -47q65 0 101.5 37t36.5 88q0 49 -35.5 85t-120.5 36h-88v113h84q64 0 102.5 31.5t38.5 72.5q0 47 -32.5 77t-83.5 30q-126 0 -130 -150l-147 35q2 39 19.5 78.5t50 74.5t87 56.5t120.5 21.5q113 0 189.5 -58.5t76.5 -166.5
q0 -16 -7.5 -38.5t-23 -48t-46.5 -45.5t-71 -26q62 -6 101 -41.5t51 -73t12 -77.5q0 -93 -78 -160t-207 -67q-53 0 -100.5 14.5t-88 44.5t-66.5 81.5t-31 119.5zM293 0l977 1446h166l-977 -1446h-166zM1012 188v115l305 463h178v-461h141v-117h-141v-188h-139v188h-344z
M1163 305h193v309z" />
    <glyph glyph-name="questiondown" unicode="&#xbf;" horiz-adv-x="1083" 
d="M453 762v328h196v-480q-24 4 -96 4q-76 0 -139.5 -25t-106.5 -82.5t-43 -139.5q0 -113 80.5 -174.5t196.5 -61.5q120 0 199.5 71.5t97.5 211.5l198 -41q-28 -181 -162 -294.5t-333 -113.5q-95 0 -179.5 26t-150 75.5t-103.5 127t-38 173.5q0 168 107 275.5t276 119.5z
M436 1217v229h230v-229h-230z" />
    <glyph glyph-name="Agrave" unicode="&#xc0;" horiz-adv-x="1374" 
d="M2 0l559 1446h254l555 -1446h-213l-160 430h-622l-160 -430h-213zM434 592h504l-252 684zM616 1565l-182 350h191l141 -350h-150z" />
    <glyph glyph-name="Aacute" unicode="&#xc1;" horiz-adv-x="1374" 
d="M2 0l559 1446h254l555 -1446h-213l-160 430h-622l-160 -430h-213zM434 592h504l-252 684zM614 1565l142 350h190l-182 -350h-150z" />
    <glyph glyph-name="Acircumflex" unicode="&#xc2;" horiz-adv-x="1374" 
d="M2 0l559 1446h254l555 -1446h-213l-160 430h-622l-160 -430h-213zM434 592h504l-252 684zM342 1565l266 350h154l266 -350h-164l-178 243l-180 -243h-164z" />
    <glyph glyph-name="Atilde" unicode="&#xc3;" horiz-adv-x="1374" 
d="M2 0l559 1446h254l555 -1446h-213l-160 430h-622l-160 -430h-213zM434 592h504l-252 684zM369 1608v174q80 73 170 73q11 0 22.5 -1t24 -3.5t21 -4.5t23 -6.5t20.5 -6.5t23 -8.5t21 -7.5q10 -3 31.5 -10.5t33.5 -11.5t28.5 -7.5t29.5 -3.5q91 0 168 102v-174
q-34 -32 -81 -54t-91 -22q-47 0 -145 35q-10 3 -33.5 12t-36 13t-31.5 8t-35 4q-88 0 -163 -100z" />
    <glyph glyph-name="Adieresis" unicode="&#xc4;" horiz-adv-x="1374" 
d="M2 0l559 1446h254l555 -1446h-213l-160 430h-622l-160 -430h-213zM434 592h504l-252 684zM381 1628v215h207v-215h-207zM791 1628v215h206v-215h-206z" />
    <glyph glyph-name="Aring" unicode="&#xc5;" horiz-adv-x="1374" 
d="M2 0l557 1440q-34 25 -54 64.5t-20 84.5q0 83 58.5 142t140.5 59t140.5 -59t58.5 -142q0 -87 -68 -145l555 -1444h-213l-160 430h-622l-160 -430h-213zM434 592h504l-252 684zM684 1481q46 0 78.5 32t32.5 76q0 46 -32.5 78.5t-78.5 32.5t-78.5 -32.5t-32.5 -78.5
q0 -44 32.5 -76t78.5 -32z" />
    <glyph glyph-name="AE" unicode="&#xc6;" horiz-adv-x="1916" 
d="M-29 0l891 1446h953v-166h-658v-451h631v-165h-631v-498h676v-166h-875v512h-448l-307 -512h-232zM614 682h344v575z" />
    <glyph glyph-name="Ccedilla" unicode="&#xc7;" horiz-adv-x="1435" 
d="M678 -473v100h65q46 0 75.5 23.5t29.5 66.5q0 39 -29.5 61.5t-75.5 22.5h-65v170q-144 15 -260 80.5t-190.5 167.5t-114 230.5t-39.5 273.5q0 152 47.5 288.5t133.5 241.5t218 166.5t291 61.5q121 0 225.5 -37t180.5 -101.5t129 -147t83 -179.5l-196 -41q-22 70 -58 129
t-87 107.5t-122 76t-155 27.5q-150 0 -263 -83.5t-169 -216.5t-56 -292q0 -121 31.5 -226.5t90.5 -188t153.5 -130t212.5 -47.5q92 0 169 33t129.5 89t86.5 122.5t49 140.5l197 -39q-21 -99 -70.5 -187.5t-124.5 -160.5t-182.5 -116t-233.5 -48v-65q79 -6 129 -54.5
t50 -128.5q0 -89 -60.5 -139.5t-152.5 -50.5h-72z" />
    <glyph glyph-name="Egrave" unicode="&#xc8;" horiz-adv-x="1218" 
d="M156 0v1446h960v-166h-764v-451h738v-165h-738v-498h783v-166h-979zM584 1565l-183 350h191l141 -350h-149z" />
    <glyph glyph-name="Eacute" unicode="&#xc9;" horiz-adv-x="1218" 
d="M156 0v1446h960v-166h-764v-451h738v-165h-738v-498h783v-166h-979zM582 1565l141 350h190l-182 -350h-149z" />
    <glyph glyph-name="Ecircumflex" unicode="&#xca;" horiz-adv-x="1218" 
d="M156 0v1446h960v-166h-764v-451h738v-165h-738v-498h783v-166h-979zM309 1565l266 350h154l266 -350h-164l-178 243l-180 -243h-164z" />
    <glyph glyph-name="Edieresis" unicode="&#xcb;" horiz-adv-x="1218" 
d="M156 0v1446h960v-166h-764v-451h738v-165h-738v-498h783v-166h-979zM348 1628v215h207v-215h-207zM758 1628v215h207v-215h-207z" />
    <glyph glyph-name="Igrave" unicode="&#xcc;" horiz-adv-x="507" 
d="M156 0v1446h196v-1446h-196zM182 1565l-182 350h190l142 -350h-150z" />
    <glyph glyph-name="Iacute" unicode="&#xcd;" horiz-adv-x="507" 
d="M156 0v1446h196v-1446h-196zM180 1565l142 350h190l-182 -350h-150z" />
    <glyph glyph-name="Icircumflex" unicode="&#xce;" horiz-adv-x="507" 
d="M-45 1565l213 350h164l213 -350h-152l-141 243l-146 -243h-151zM156 0v1446h196v-1446h-196z" />
    <glyph glyph-name="Idieresis" unicode="&#xcf;" horiz-adv-x="507" 
d="M156 0v1446h196v-1446h-196zM-53 1628v215h207v-215h-207zM356 1628v215h207v-215h-207z" />
    <glyph glyph-name="Eth" unicode="&#xd0;" horiz-adv-x="1497" 
d="M193 0v713h-156v127h156v606h473q115 0 219.5 -22.5t203.5 -76t171 -134t115.5 -206.5t43.5 -284t-43.5 -284t-115.5 -206.5t-171 -134t-203.5 -76t-219.5 -22.5h-473zM391 166h262q123 0 220.5 29.5t161 80t105 122.5t59.5 152t18 173t-18 173t-59.5 152t-105 122.5
t-161 80t-220.5 29.5h-262v-440h436v-127h-436v-547z" />
    <glyph glyph-name="Ntilde" unicode="&#xd1;" horiz-adv-x="1546" 
d="M156 0v1446h270l780 -1249v1249h185v-1446h-285l-766 1247v-1247h-184zM453 1608v174q80 73 170 73q11 0 22.5 -1t24 -3.5t21 -4.5t23 -6.5t20.5 -6.5t23 -8.5t21 -7.5q10 -3 31.5 -10.5t33.5 -11.5t28.5 -7.5t29.5 -3.5q91 0 168 102v-174q-34 -32 -81 -54t-91 -22
q-47 0 -145 35q-10 3 -33.5 12t-36 13t-31.5 8t-35 4q-88 0 -163 -100z" />
    <glyph glyph-name="Ograve" unicode="&#xd2;" horiz-adv-x="1525" 
d="M766 131q121 0 216 50t151.5 134t85 186.5t28.5 215.5q0 91 -17.5 176t-55.5 162.5t-93 134.5t-136 91t-179 34q-99 0 -181 -34t-138 -91t-94.5 -134t-56 -162.5t-17.5 -176.5q0 -90 17.5 -173.5t56 -159t94.5 -131.5t138 -89t181 -33zM766 -35q-140 0 -256 42t-195 114
t-134 168.5t-80 204t-25 223.5t25 225t80 207.5t134 172t195 116.5t256 43q139 0 254 -43t193.5 -116.5t132.5 -172t79 -207.5t25 -225t-25 -223.5t-79 -204t-132.5 -168.5t-193.5 -114t-254 -42zM694 1565l-182 350h190l142 -350h-150z" />
    <glyph glyph-name="Oacute" unicode="&#xd3;" horiz-adv-x="1525" 
d="M766 131q121 0 216 50t151.5 134t85 186.5t28.5 215.5q0 91 -17.5 176t-55.5 162.5t-93 134.5t-136 91t-179 34q-99 0 -181 -34t-138 -91t-94.5 -134t-56 -162.5t-17.5 -176.5q0 -90 17.5 -173.5t56 -159t94.5 -131.5t138 -89t181 -33zM766 -35q-140 0 -256 42t-195 114
t-134 168.5t-80 204t-25 223.5t25 225t80 207.5t134 172t195 116.5t256 43q139 0 254 -43t193.5 -116.5t132.5 -172t79 -207.5t25 -225t-25 -223.5t-79 -204t-132.5 -168.5t-193.5 -114t-254 -42zM692 1565l142 350h190l-182 -350h-150z" />
    <glyph glyph-name="Ocircumflex" unicode="&#xd4;" horiz-adv-x="1525" 
d="M766 131q121 0 216 50t151.5 134t85 186.5t28.5 215.5q0 91 -17.5 176t-55.5 162.5t-93 134.5t-136 91t-179 34q-99 0 -181 -34t-138 -91t-94.5 -134t-56 -162.5t-17.5 -176.5q0 -90 17.5 -173.5t56 -159t94.5 -131.5t138 -89t181 -33zM766 -35q-140 0 -256 42t-195 114
t-134 168.5t-80 204t-25 223.5t25 225t80 207.5t134 172t195 116.5t256 43q139 0 254 -43t193.5 -116.5t132.5 -172t79 -207.5t25 -225t-25 -223.5t-79 -204t-132.5 -168.5t-193.5 -114t-254 -42zM420 1565l266 350h154l266 -350h-164l-178 243l-180 -243h-164z" />
    <glyph glyph-name="Otilde" unicode="&#xd5;" horiz-adv-x="1525" 
d="M766 131q121 0 216 50t151.5 134t85 186.5t28.5 215.5q0 91 -17.5 176t-55.5 162.5t-93 134.5t-136 91t-179 34q-99 0 -181 -34t-138 -91t-94.5 -134t-56 -162.5t-17.5 -176.5q0 -90 17.5 -173.5t56 -159t94.5 -131.5t138 -89t181 -33zM766 -35q-140 0 -256 42t-195 114
t-134 168.5t-80 204t-25 223.5t25 225t80 207.5t134 172t195 116.5t256 43q139 0 254 -43t193.5 -116.5t132.5 -172t79 -207.5t25 -225t-25 -223.5t-79 -204t-132.5 -168.5t-193.5 -114t-254 -42zM446 1608v174q80 73 170 73q11 0 22 -1t24.5 -4t21 -4t24 -6.5t20 -6.5
t23.5 -8.5t21 -7.5q10 -3 31.5 -10.5t33.5 -11.5t28.5 -7.5t29.5 -3.5q91 0 168 102v-174q-34 -32 -81 -54t-91 -22q-48 0 -146 35q-11 4 -34 12.5t-35.5 12.5t-31 8t-34.5 4q-89 0 -164 -100z" />
    <glyph glyph-name="Odieresis" unicode="&#xd6;" horiz-adv-x="1525" 
d="M766 131q121 0 216 50t151.5 134t85 186.5t28.5 215.5q0 91 -17.5 176t-55.5 162.5t-93 134.5t-136 91t-179 34q-99 0 -181 -34t-138 -91t-94.5 -134t-56 -162.5t-17.5 -176.5q0 -90 17.5 -173.5t56 -159t94.5 -131.5t138 -89t181 -33zM766 -35q-140 0 -256 42t-195 114
t-134 168.5t-80 204t-25 223.5t25 225t80 207.5t134 172t195 116.5t256 43q139 0 254 -43t193.5 -116.5t132.5 -172t79 -207.5t25 -225t-25 -223.5t-79 -204t-132.5 -168.5t-193.5 -114t-254 -42zM459 1628v215h207v-215h-207zM868 1628v215h207v-215h-207z" />
    <glyph glyph-name="multiply" unicode="&#xd7;" 
d="M92 178l459 461l-465 467l107 106l466 -467l459 459l109 -108l-459 -459l469 -469l-109 -109l-469 469l-458 -458z" />
    <glyph glyph-name="Oslash" unicode="&#xd8;" horiz-adv-x="1538" 
d="M82 0l166 199q-82 103 -124 238t-42 280q0 116 25 225t80 207.5t134 172t195 116.5t256 43q258 0 430 -146l92 111h162l-168 -201q84 -104 126 -242t42 -286q0 -116 -25 -223.5t-79 -204t-132.5 -168.5t-193.5 -114t-254 -42q-261 0 -438 146l-92 -111h-160zM772 131
q121 0 216 50t151.5 134t85 186.5t28.5 215.5q0 214 -94 377l-706 -842q128 -121 319 -121zM285 717q0 -214 90 -367l706 844q-124 121 -309 121q-99 0 -181 -34t-138 -91t-94.5 -134t-56 -162.5t-17.5 -176.5z" />
    <glyph glyph-name="Ugrave" unicode="&#xd9;" horiz-adv-x="1433" 
d="M143 506v940h197v-940q0 -171 101.5 -273t275.5 -102q177 0 276 98.5t99 276.5v940h198v-940q0 -132 -42.5 -236t-119.5 -170t-181 -100.5t-230 -34.5q-274 0 -424 150.5t-150 390.5zM645 1565l-182 350h190l142 -350h-150z" />
    <glyph glyph-name="Uacute" unicode="&#xda;" horiz-adv-x="1433" 
d="M143 506v940h197v-940q0 -171 101.5 -273t275.5 -102q177 0 276 98.5t99 276.5v940h198v-940q0 -132 -42.5 -236t-119.5 -170t-181 -100.5t-230 -34.5q-274 0 -424 150.5t-150 390.5zM643 1565l141 350h191l-182 -350h-150z" />
    <glyph glyph-name="Ucircumflex" unicode="&#xdb;" horiz-adv-x="1433" 
d="M143 506v940h197v-940q0 -171 101.5 -273t275.5 -102q177 0 276 98.5t99 276.5v940h198v-940q0 -132 -42.5 -236t-119.5 -170t-181 -100.5t-230 -34.5q-274 0 -424 150.5t-150 390.5zM371 1565l266 350h154l266 -350h-164l-178 243l-180 -243h-164z" />
    <glyph glyph-name="Udieresis" unicode="&#xdc;" horiz-adv-x="1433" 
d="M143 506v940h197v-940q0 -171 101.5 -273t275.5 -102q177 0 276 98.5t99 276.5v940h198v-940q0 -132 -42.5 -236t-119.5 -170t-181 -100.5t-230 -34.5q-274 0 -424 150.5t-150 390.5zM410 1628v215h206v-215h-206zM819 1628v215h207v-215h-207z" />
    <glyph glyph-name="Yacute" unicode="&#xdd;" horiz-adv-x="1298" 
d="M549 0v672l-537 774h230l409 -617l420 617h221l-547 -774v-672h-196zM580 1565l141 350h190l-182 -350h-149z" />
    <glyph glyph-name="Thorn" unicode="&#xde;" horiz-adv-x="1273" 
d="M156 0v1446h196v-213h408q223 0 346 -103t123 -305q0 -200 -122.5 -304.5t-346.5 -104.5h-408v-416h-196zM352 580h389q141 0 215 57t74 188q0 242 -289 242h-389v-487z" />
    <glyph glyph-name="germandbls" unicode="&#xdf;" horiz-adv-x="1107" 
d="M125 0v1057q0 203 108 313.5t308 110.5q103 0 184 -29.5t128.5 -79t72 -108t24.5 -121.5q0 -98 -53.5 -173t-146.5 -102q147 -35 218.5 -145.5t71.5 -259.5q0 -214 -134.5 -346.5t-342.5 -132.5q-60 0 -135 16v160q66 -17 113 -17q136 0 223.5 87t87.5 235q0 145 -93 230
t-249 85h-82v154h74q109 0 184.5 56.5t75.5 152.5q0 75 -59 130.5t-162 55.5q-110 0 -172 -72t-62 -184v-1073h-182z" />
    <glyph glyph-name="agrave" unicode="&#xe0;" horiz-adv-x="1009" 
d="M905 0h-182q-14 70 -14 143q-41 -86 -122 -127t-186 -41q-154 0 -244.5 83t-90.5 204q0 69 22 121t55.5 84.5t90 56.5t107 36.5t126.5 25.5q114 17 129 20q77 14 98 40.5t21 74.5q0 23 -9 46t-30 47.5t-64.5 40t-103.5 15.5q-100 0 -161 -52t-68 -156l-185 34
q24 135 123 219q118 97 291 97q383 0 383 -326v-450q0 -166 14 -236zM252 270q0 -65 52 -109t124 -44q31 0 64.5 6t73.5 23.5t71 44.5t51.5 75t20.5 109v129q-27 -12 -150 -37l-67 -12q-47 -9 -75 -16t-63.5 -21.5t-54.5 -32.5t-33 -47t-14 -68zM436 1106l-182 350h190
l142 -350h-150z" />
    <glyph glyph-name="aacute" unicode="&#xe1;" horiz-adv-x="1009" 
d="M905 0h-182q-14 70 -14 143q-41 -86 -122 -127t-186 -41q-154 0 -244.5 83t-90.5 204q0 69 22 121t55.5 84.5t90 56.5t107 36.5t126.5 25.5q114 17 129 20q77 14 98 40.5t21 74.5q0 23 -9 46t-30 47.5t-64.5 40t-103.5 15.5q-100 0 -161 -52t-68 -156l-185 34
q24 135 123 219q118 97 291 97q383 0 383 -326v-450q0 -166 14 -236zM252 270q0 -65 52 -109t124 -44q31 0 64.5 6t73.5 23.5t71 44.5t51.5 75t20.5 109v129q-27 -12 -150 -37l-67 -12q-47 -9 -75 -16t-63.5 -21.5t-54.5 -32.5t-33 -47t-14 -68zM430 1106l141 350h191
l-182 -350h-150z" />
    <glyph glyph-name="acircumflex" unicode="&#xe2;" horiz-adv-x="1009" 
d="M905 0h-182q-14 70 -14 143q-41 -86 -122 -127t-186 -41q-154 0 -244.5 83t-90.5 204q0 69 22 121t55.5 84.5t90 56.5t107 36.5t126.5 25.5q114 17 129 20q77 14 98 40.5t21 74.5q0 23 -9 46t-30 47.5t-64.5 40t-103.5 15.5q-100 0 -161 -52t-68 -156l-185 34
q24 135 123 219q118 97 291 97q383 0 383 -326v-450q0 -166 14 -236zM252 270q0 -65 52 -109t124 -44q31 0 64.5 6t73.5 23.5t71 44.5t51.5 75t20.5 109v129q-27 -12 -150 -37l-67 -12q-47 -9 -75 -16t-63.5 -21.5t-54.5 -32.5t-33 -47t-14 -68zM164 1106l266 350h154
l266 -350h-164l-178 244l-180 -244h-164z" />
    <glyph glyph-name="atilde" unicode="&#xe3;" horiz-adv-x="1009" 
d="M905 0h-182q-14 70 -14 143q-41 -86 -122 -127t-186 -41q-154 0 -244.5 83t-90.5 204q0 69 22 121t55.5 84.5t90 56.5t107 36.5t126.5 25.5q114 17 129 20q77 14 98 40.5t21 74.5q0 23 -9 46t-30 47.5t-64.5 40t-103.5 15.5q-100 0 -161 -52t-68 -156l-185 34
q24 135 123 219q118 97 291 97q383 0 383 -326v-450q0 -166 14 -236zM252 270q0 -65 52 -109t124 -44q31 0 64.5 6t73.5 23.5t71 44.5t51.5 75t20.5 109v129q-27 -12 -150 -37l-67 -12q-47 -9 -75 -16t-63.5 -21.5t-54.5 -32.5t-33 -47t-14 -68zM199 1149v174q82 74 170 74
q16 0 30.5 -1.5t34.5 -7.5t27.5 -8t34 -11.5t28.5 -10.5q10 -3 31.5 -10.5t33.5 -11.5t28.5 -7.5t29.5 -3.5q91 0 168 102v-174q-34 -32 -81 -53.5t-91 -21.5q-49 0 -145 34q-10 3 -33.5 12t-36 13t-31.5 8t-35 4q-88 0 -163 -100z" />
    <glyph glyph-name="adieresis" unicode="&#xe4;" horiz-adv-x="1009" 
d="M905 0h-182q-14 70 -14 143q-41 -86 -122 -127t-186 -41q-154 0 -244.5 83t-90.5 204q0 69 22 121t55.5 84.5t90 56.5t107 36.5t126.5 25.5q114 17 129 20q77 14 98 40.5t21 74.5q0 23 -9 46t-30 47.5t-64.5 40t-103.5 15.5q-100 0 -161 -52t-68 -156l-185 34
q24 135 123 219q118 97 291 97q383 0 383 -326v-450q0 -166 14 -236zM252 270q0 -65 52 -109t124 -44q31 0 64.5 6t73.5 23.5t71 44.5t51.5 75t20.5 109v129q-27 -12 -150 -37l-67 -12q-47 -9 -75 -16t-63.5 -21.5t-54.5 -32.5t-33 -47t-14 -68zM199 1169v215h207v-215h-207
zM608 1169v215h207v-215h-207z" />
    <glyph glyph-name="aring" unicode="&#xe5;" horiz-adv-x="1009" 
d="M905 0h-182q-14 70 -14 143q-41 -86 -122 -127t-186 -41q-154 0 -244.5 83t-90.5 204q0 69 22 121t55.5 84.5t90 56.5t107 36.5t126.5 25.5q114 17 129 20q77 14 98 40.5t21 74.5q0 23 -9 46t-30 47.5t-64.5 40t-103.5 15.5q-100 0 -161 -52t-68 -156l-185 34
q24 135 123 219q118 97 291 97q383 0 383 -326v-450q0 -166 14 -236zM252 270q0 -65 52 -109t124 -44q31 0 64.5 6t73.5 23.5t71 44.5t51.5 75t20.5 109v129q-27 -12 -150 -37l-67 -12q-47 -9 -75 -16t-63.5 -21.5t-54.5 -32.5t-33 -47t-14 -68zM508 1184q44 0 76 32t32 76
q0 46 -32 78.5t-76 32.5q-46 0 -78.5 -32.5t-32.5 -78.5q0 -44 32.5 -76t78.5 -32zM508 1094q-83 0 -142 58t-59 140q0 83 59 141t142 58q82 0 140.5 -58t58.5 -141q0 -82 -58.5 -140t-140.5 -58z" />
    <glyph glyph-name="ae" unicode="&#xe6;" horiz-adv-x="1662" 
d="M279 662l-185 34q16 104 96 193q55 59 137 91t177 32q115 0 196.5 -40t126.5 -108q125 148 322 148q105 0 191 -41.5t141 -113t84.5 -165.5t29.5 -200q0 -9 -1 -24t-1 -19h-706q0 -149 67 -240.5t209 -91.5q55 0 99.5 19.5t73 51.5t46 67t25.5 73l174 -37
q-16 -77 -70.5 -148t-147 -119.5t-198.5 -48.5q-124 0 -219 56t-153 153q-53 -106 -149 -157.5t-243 -51.5q-152 0 -243.5 90.5t-91.5 210.5q0 314 520 314h121v82q0 79 -51.5 138.5t-151.5 59.5q-99 0 -158.5 -52t-66.5 -156zM700 375v74h-129q-170 0 -244.5 -41
t-74.5 -123q0 -75 51.5 -120.5t128.5 -45.5q43 0 86 12t85.5 39t69.5 80t27 125zM889 590h516q0 108 -69 194t-187 86q-120 0 -190 -80.5t-70 -199.5z" />
    <glyph glyph-name="ccedilla" unicode="&#xe7;" horiz-adv-x="1030" 
d="M469 -473v100h66q46 0 75 23.5t29 66.5q0 39 -29.5 61.5t-74.5 22.5h-66v179q-101 12 -179.5 59.5t-126 118.5t-71.5 156t-24 178q0 79 19 154.5t58 142t93.5 116t132 78.5t168.5 29q82 0 152 -22t118 -56.5t84 -80.5t55.5 -91.5t28.5 -91.5l-182 -33q-3 24 -12 51
t-29 59.5t-47 58t-71 43t-97 17.5q-57 0 -105 -21.5t-81 -57.5t-56.5 -84t-34 -101.5t-10.5 -109.5q0 -71 16 -135t49 -118t90 -86t132 -32q62 0 111.5 24t79 63t46.5 79t23 80l182 -37q-8 -53 -36 -109t-76 -110t-125 -91t-169 -43v-77q79 -6 129 -54.5t50 -128.5
q0 -89 -60.5 -139.5t-152.5 -50.5h-72z" />
    <glyph glyph-name="egrave" unicode="&#xe8;" horiz-adv-x="1040" 
d="M784 328l174 -37q-11 -53 -44.5 -107t-84.5 -101.5t-126 -77.5t-158 -30q-120 0 -213.5 43t-149 116.5t-84 164t-28.5 193.5t29.5 195.5t84.5 165.5t142.5 116t195.5 43q140 0 243.5 -69t155.5 -187t52 -269q0 -30 -2 -38h-717q1 -63 17.5 -120.5t49.5 -106t88.5 -77
t127.5 -28.5q56 0 101 19.5t74 51.5t46.5 67t25.5 73zM256 590h526q0 110 -69 195t-191 85q-123 0 -194.5 -80t-71.5 -200zM453 1106l-183 350h191l141 -350h-149z" />
    <glyph glyph-name="eacute" unicode="&#xe9;" horiz-adv-x="1040" 
d="M784 328l174 -37q-11 -53 -44.5 -107t-84.5 -101.5t-126 -77.5t-158 -30q-120 0 -213.5 43t-149 116.5t-84 164t-28.5 193.5t29.5 195.5t84.5 165.5t142.5 116t195.5 43q140 0 243.5 -69t155.5 -187t52 -269q0 -30 -2 -38h-717q1 -63 17.5 -120.5t49.5 -106t88.5 -77
t127.5 -28.5q56 0 101 19.5t74 51.5t46.5 67t25.5 73zM256 590h526q0 110 -69 195t-191 85q-123 0 -194.5 -80t-71.5 -200zM446 1106l142 350h190l-182 -350h-150z" />
    <glyph glyph-name="ecircumflex" unicode="&#xea;" horiz-adv-x="1040" 
d="M784 328l174 -37q-11 -53 -44.5 -107t-84.5 -101.5t-126 -77.5t-158 -30q-120 0 -213.5 43t-149 116.5t-84 164t-28.5 193.5t29.5 195.5t84.5 165.5t142.5 116t195.5 43q140 0 243.5 -69t155.5 -187t52 -269q0 -30 -2 -38h-717q1 -63 17.5 -120.5t49.5 -106t88.5 -77
t127.5 -28.5q56 0 101 19.5t74 51.5t46.5 67t25.5 73zM256 590h526q0 110 -69 195t-191 85q-123 0 -194.5 -80t-71.5 -200zM180 1106l266 350h154l266 -350h-164l-178 244l-180 -244h-164z" />
    <glyph glyph-name="edieresis" unicode="&#xeb;" horiz-adv-x="1040" 
d="M784 328l174 -37q-11 -53 -44.5 -107t-84.5 -101.5t-126 -77.5t-158 -30q-120 0 -213.5 43t-149 116.5t-84 164t-28.5 193.5t29.5 195.5t84.5 165.5t142.5 116t195.5 43q140 0 243.5 -69t155.5 -187t52 -269q0 -30 -2 -38h-717q1 -63 17.5 -120.5t49.5 -106t88.5 -77
t127.5 -28.5q56 0 101 19.5t74 51.5t46.5 67t25.5 73zM256 590h526q0 110 -69 195t-191 85q-123 0 -194.5 -80t-71.5 -200zM215 1169v215h207v-215h-207zM625 1169v215h206v-215h-206z" />
    <glyph glyph-name="igrave" unicode="&#xec;" horiz-adv-x="432" 
d="M125 0v987h182v-987h-182zM143 1106l-182 350h191l141 -350h-150z" />
    <glyph glyph-name="iacute" unicode="&#xed;" horiz-adv-x="432" 
d="M125 0v987h182v-987h-182zM137 1106l142 350h190l-182 -350h-150z" />
    <glyph glyph-name="icircumflex" unicode="&#xee;" horiz-adv-x="432" 
d="M-82 1106l213 350h164l213 -350h-152l-141 244l-145 -244h-152zM125 0v987h182v-987h-182z" />
    <glyph glyph-name="idieresis" unicode="&#xef;" horiz-adv-x="432" 
d="M125 0v987h182v-987h-182zM-94 1169v215h207v-215h-207zM315 1169v215h207v-215h-207z" />
    <glyph glyph-name="eth" unicode="&#xf0;" horiz-adv-x="1089" 
d="M338 1071l-27 86l275 88q-71 93 -142 164l148 74q66 -70 91.5 -101t66.5 -88l198 64l27 -88l-172 -53q102 -156 154.5 -332t52.5 -350q0 -122 -27.5 -222t-83 -176.5t-148 -119t-214.5 -42.5q-84 0 -154 22t-117.5 57t-84 83.5t-57.5 96t-34 99t-17.5 89.5t-4.5 70
q0 33 4.5 72t18 90.5t34.5 99.5t57.5 96t83 83t115 57t149.5 22q74 0 143.5 -32.5t114.5 -86.5q-24 68 -53.5 125.5t-89.5 148.5zM551 121q34 0 69 9t73.5 35t68 66t48.5 107.5t19 153.5t-19 154t-48 108t-67 66.5t-72 36t-66 9.5q-74 0 -131.5 -30t-89.5 -72.5t-52 -97
t-26 -95.5t-6 -77q0 -35 6 -76.5t26 -96.5t51 -97.5t87 -72.5t129 -30z" />
    <glyph glyph-name="ntilde" unicode="&#xf1;" horiz-adv-x="1067" 
d="M125 0v987h178v-160q20 69 104 127t203 58q78 0 151 -31.5t122 -97.5q45 -61 57 -128t12 -206v-549h-180v549q0 106 -8.5 156t-32.5 83q-20 31 -64.5 54.5t-107.5 23.5q-117 0 -188 -90q-38 -49 -51 -114.5t-13 -190.5v-471h-182zM229 1149v174q82 74 170 74
q13 0 27.5 -2t25 -4t27.5 -7t24 -7.5t27 -9.5t25 -9q10 -3 31.5 -10.5t33.5 -11.5t28.5 -7.5t29.5 -3.5q91 0 168 102v-174q-34 -32 -81 -53.5t-91 -21.5q-50 0 -146 34q-11 4 -34 12.5t-35.5 12.5t-31 8t-34.5 4q-89 0 -164 -100z" />
    <glyph glyph-name="ograve" unicode="&#xf2;" horiz-adv-x="1087" 
d="M545 121q57 0 105.5 21.5t81.5 58t56.5 84.5t34.5 100.5t11 106.5q0 55 -11 107.5t-34.5 101t-56.5 85t-81.5 58.5t-105.5 22q-72 0 -129.5 -33t-92 -87.5t-53 -119.5t-18.5 -134q0 -93 30.5 -175t99 -139t163.5 -57zM545 -25q-90 0 -168 29.5t-134 80t-96 116.5
t-59.5 140.5t-19.5 150.5q0 97 32 189t90 166t150.5 119.5t204.5 45.5q111 0 203 -45.5t150.5 -119.5t90 -166t31.5 -189q0 -96 -32 -187.5t-90 -165.5t-150 -119t-203 -45zM475 1106l-182 350h190l142 -350h-150z" />
    <glyph glyph-name="oacute" unicode="&#xf3;" horiz-adv-x="1087" 
d="M545 121q57 0 105.5 21.5t81.5 58t56.5 84.5t34.5 100.5t11 106.5q0 55 -11 107.5t-34.5 101t-56.5 85t-81.5 58.5t-105.5 22q-72 0 -129.5 -33t-92 -87.5t-53 -119.5t-18.5 -134q0 -93 30.5 -175t99 -139t163.5 -57zM545 -25q-90 0 -168 29.5t-134 80t-96 116.5
t-59.5 140.5t-19.5 150.5q0 97 32 189t90 166t150.5 119.5t204.5 45.5q111 0 203 -45.5t150.5 -119.5t90 -166t31.5 -189q0 -96 -32 -187.5t-90 -165.5t-150 -119t-203 -45zM469 1106l141 350h191l-183 -350h-149z" />
    <glyph glyph-name="ocircumflex" unicode="&#xf4;" horiz-adv-x="1087" 
d="M545 121q57 0 105.5 21.5t81.5 58t56.5 84.5t34.5 100.5t11 106.5q0 55 -11 107.5t-34.5 101t-56.5 85t-81.5 58.5t-105.5 22q-72 0 -129.5 -33t-92 -87.5t-53 -119.5t-18.5 -134q0 -93 30.5 -175t99 -139t163.5 -57zM545 -25q-90 0 -168 29.5t-134 80t-96 116.5
t-59.5 140.5t-19.5 150.5q0 97 32 189t90 166t150.5 119.5t204.5 45.5q111 0 203 -45.5t150.5 -119.5t90 -166t31.5 -189q0 -96 -32 -187.5t-90 -165.5t-150 -119t-203 -45zM203 1106l266 350h154l266 -350h-164l-178 244l-180 -244h-164z" />
    <glyph glyph-name="otilde" unicode="&#xf5;" horiz-adv-x="1087" 
d="M545 121q57 0 105.5 21.5t81.5 58t56.5 84.5t34.5 100.5t11 106.5q0 55 -11 107.5t-34.5 101t-56.5 85t-81.5 58.5t-105.5 22q-72 0 -129.5 -33t-92 -87.5t-53 -119.5t-18.5 -134q0 -93 30.5 -175t99 -139t163.5 -57zM545 -25q-90 0 -168 29.5t-134 80t-96 116.5
t-59.5 140.5t-19.5 150.5q0 97 32 189t90 166t150.5 119.5t204.5 45.5q111 0 203 -45.5t150.5 -119.5t90 -166t31.5 -189q0 -96 -32 -187.5t-90 -165.5t-150 -119t-203 -45zM238 1149v174q82 74 170 74q16 0 30.5 -1.5t34.5 -7.5t27.5 -8t34 -11.5t28.5 -10.5
q10 -3 31.5 -10.5t33.5 -11.5t28.5 -7.5t29.5 -3.5q91 0 168 102v-174q-34 -32 -81 -53.5t-91 -21.5q-49 0 -145 34q-10 3 -33.5 12t-36 13t-31.5 8t-35 4q-88 0 -163 -100z" />
    <glyph glyph-name="odieresis" unicode="&#xf6;" horiz-adv-x="1087" 
d="M545 121q57 0 105.5 21.5t81.5 58t56.5 84.5t34.5 100.5t11 106.5q0 55 -11 107.5t-34.5 101t-56.5 85t-81.5 58.5t-105.5 22q-72 0 -129.5 -33t-92 -87.5t-53 -119.5t-18.5 -134q0 -93 30.5 -175t99 -139t163.5 -57zM545 -25q-90 0 -168 29.5t-134 80t-96 116.5
t-59.5 140.5t-19.5 150.5q0 97 32 189t90 166t150.5 119.5t204.5 45.5q111 0 203 -45.5t150.5 -119.5t90 -166t31.5 -189q0 -96 -32 -187.5t-90 -165.5t-150 -119t-203 -45zM238 1169v215h206v-215h-206zM647 1169v215h207v-215h-207z" />
    <glyph glyph-name="divide" unicode="&#xf7;" 
d="M524 203q0 59 38.5 98t96.5 39q59 0 98.5 -39.5t39.5 -97.5q0 -57 -40 -96t-98 -39t-96.5 39t-38.5 96zM43 559v154h1233v-154h-1233zM524 1075q0 59 38.5 98t96.5 39q59 0 98.5 -39.5t39.5 -97.5q0 -57 -40 -96t-98 -39t-96.5 39t-38.5 96z" />
    <glyph glyph-name="oslash" unicode="&#xf8;" horiz-adv-x="1097" 
d="M47 0l135 154q-108 140 -108 338q0 97 32 189t90 166t150.5 119.5t204.5 45.5q164 0 287 -101l65 76h146l-134 -156q111 -148 111 -339q0 -96 -32 -187.5t-90 -165.5t-150 -119t-203 -45q-167 0 -293 101l-65 -76h-146zM301 291l432 500q-75 75 -182 75q-72 0 -129.5 -33
t-92 -87.5t-53 -119.5t-18.5 -134q0 -114 43 -201zM795 694l-433 -497q76 -76 189 -76q57 0 105.5 21.5t81.5 58t56.5 84.5t34.5 100.5t11 106.5q0 113 -45 202z" />
    <glyph glyph-name="ugrave" unicode="&#xf9;" horiz-adv-x="1062" 
d="M115 438v549h182v-549q0 -106 8.5 -156t32.5 -83q21 -32 64.5 -55t107.5 -23q60 0 102.5 22.5t79.5 67.5q41 50 53.5 111t12.5 194v471h180v-987h-178v160q-20 -69 -101 -127t-200 -58q-78 0 -151 31.5t-122 97.5q-45 61 -58 129t-13 205zM457 1106l-183 350h191
l141 -350h-149z" />
    <glyph glyph-name="uacute" unicode="&#xfa;" horiz-adv-x="1062" 
d="M115 438v549h182v-549q0 -106 8.5 -156t32.5 -83q21 -32 64.5 -55t107.5 -23q60 0 102.5 22.5t79.5 67.5q41 50 53.5 111t12.5 194v471h180v-987h-178v160q-20 -69 -101 -127t-200 -58q-78 0 -151 31.5t-122 97.5q-45 61 -58 129t-13 205zM451 1106l141 350h190
l-182 -350h-149z" />
    <glyph glyph-name="ucircumflex" unicode="&#xfb;" horiz-adv-x="1062" 
d="M115 438v549h182v-549q0 -106 8.5 -156t32.5 -83q21 -32 64.5 -55t107.5 -23q60 0 102.5 22.5t79.5 67.5q41 50 53.5 111t12.5 194v471h180v-987h-178v160q-20 -69 -101 -127t-200 -58q-78 0 -151 31.5t-122 97.5q-45 61 -58 129t-13 205zM184 1106l267 350h153l266 -350
h-163l-179 244l-180 -244h-164z" />
    <glyph glyph-name="udieresis" unicode="&#xfc;" horiz-adv-x="1062" 
d="M115 438v549h182v-549q0 -106 8.5 -156t32.5 -83q21 -32 64.5 -55t107.5 -23q60 0 102.5 22.5t79.5 67.5q41 50 53.5 111t12.5 194v471h180v-987h-178v160q-20 -69 -101 -127t-200 -58q-78 0 -151 31.5t-122 97.5q-45 61 -58 129t-13 205zM219 1169v215h207v-215h-207z
M629 1169v215h207v-215h-207z" />
    <glyph glyph-name="yacute" unicode="&#xfd;" horiz-adv-x="950" 
d="M66 -469v158q50 -13 77 -13q135 0 172 103l74 201l-369 1007h189l274 -772l273 772h182l-463 -1278q-70 -188 -287 -188q-40 0 -122 10zM406 1106l141 350h190l-182 -350h-149z" />
    <glyph glyph-name="thorn" unicode="&#xfe;" horiz-adv-x="1134" 
d="M125 -457v1905h176v-610q31 71 122 122.5t189 51.5q95 0 173 -31.5t129.5 -83.5t86.5 -120.5t50.5 -139t15.5 -143.5q0 -60 -13 -125t-47 -137t-85 -128t-135 -92.5t-189 -36.5q-94 0 -175 49.5t-116 120.5v-602h-182zM584 121q67 0 120.5 25t86 64t54 90t30 98.5
t8.5 93.5q0 100 -32 183.5t-101 137t-164 53.5q-36 0 -71.5 -9.5t-75 -35.5t-68.5 -66t-48.5 -107.5t-19.5 -153.5q0 -85 20 -153t50 -108t69 -66.5t74 -36t68 -9.5z" />
    <glyph glyph-name="ydieresis" unicode="&#xff;" horiz-adv-x="950" 
d="M66 -469v158q50 -13 77 -13q135 0 172 103l74 201l-369 1007h189l274 -772l273 772h182l-463 -1278q-70 -188 -287 -188q-40 0 -122 10zM174 1169v215h207v-215h-207zM584 1169v215h207v-215h-207z" />
    <glyph glyph-name="Amacron" unicode="&#x100;" horiz-adv-x="1374" 
d="M2 0l559 1446h254l555 -1446h-213l-160 430h-622l-160 -430h-213zM434 592h504l-252 684zM379 1671v150h616v-150h-616z" />
    <glyph glyph-name="amacron" unicode="&#x101;" horiz-adv-x="1009" 
d="M905 0h-182q-14 70 -14 143q-41 -86 -122 -127t-186 -41q-154 0 -244.5 83t-90.5 204q0 69 22 121t55.5 84.5t90 56.5t107 36.5t126.5 25.5q114 17 129 20q77 14 98 40.5t21 74.5q0 23 -9 46t-30 47.5t-64.5 40t-103.5 15.5q-100 0 -161 -52t-68 -156l-185 34
q24 135 123 219q118 97 291 97q383 0 383 -326v-450q0 -166 14 -236zM252 270q0 -65 52 -109t124 -44q31 0 64.5 6t73.5 23.5t71 44.5t51.5 75t20.5 109v129q-27 -12 -150 -37l-67 -12q-47 -9 -75 -16t-63.5 -21.5t-54.5 -32.5t-33 -47t-14 -68zM199 1212v150h616v-150h-616
z" />
    <glyph glyph-name="Abreve" unicode="&#x102;" horiz-adv-x="1374" 
d="M2 0l559 1446h254l555 -1446h-213l-160 430h-622l-160 -430h-213zM434 592h504l-252 684zM385 1855v48h143v-48q0 -83 40 -133.5t120 -50.5t121 51t41 133v48h143v-48q0 -140 -86.5 -224.5t-218.5 -84.5t-217.5 84.5t-85.5 224.5z" />
    <glyph glyph-name="abreve" unicode="&#x103;" horiz-adv-x="1009" 
d="M905 0h-182q-14 70 -14 143q-41 -86 -122 -127t-186 -41q-154 0 -244.5 83t-90.5 204q0 69 22 121t55.5 84.5t90 56.5t107 36.5t126.5 25.5q114 17 129 20q77 14 98 40.5t21 74.5q0 23 -9 46t-30 47.5t-64.5 40t-103.5 15.5q-100 0 -161 -52t-68 -156l-185 34
q24 135 123 219q118 97 291 97q383 0 383 -326v-450q0 -166 14 -236zM252 270q0 -65 52 -109t124 -44q31 0 64.5 6t73.5 23.5t71 44.5t51.5 75t20.5 109v129q-27 -12 -150 -37l-67 -12q-47 -9 -75 -16t-63.5 -21.5t-54.5 -32.5t-33 -47t-14 -68zM203 1397v47h143v-47
q0 -83 40 -134t120 -51t121 51.5t41 133.5v47h143v-47q0 -140 -86.5 -225t-218.5 -85q-131 0 -217 85t-86 225z" />
    <glyph glyph-name="Aogonek" unicode="&#x104;" horiz-adv-x="1374" 
d="M434 592h504l-252 684zM1047 -186q0 129 98 217l-148 399h-622l-160 -430h-213l559 1446h254l555 -1446h-37q-71 0 -121.5 -55t-50.5 -131q0 -77 51 -132t121 -55h66v-100h-66q-118 0 -202 84t-84 203z" />
    <glyph glyph-name="aogonek" unicode="&#x105;" horiz-adv-x="1009" 
d="M252 270q0 -65 52 -109t124 -44q31 0 64.5 6t73.5 23.5t71 44.5t51.5 75t20.5 109v129q-27 -12 -150 -37l-67 -12q-47 -9 -75 -16t-63.5 -21.5t-54.5 -32.5t-33 -47t-14 -68zM610 -186q0 67 28.5 124.5t78.5 96.5q-8 58 -8 108q-41 -86 -122 -127t-186 -41
q-154 0 -244.5 83t-90.5 204q0 69 22 121t55.5 84.5t90 56.5t107 36.5t126.5 25.5q114 17 129 20q77 14 98 40.5t21 74.5q0 23 -9 46t-30 47.5t-64.5 40t-103.5 15.5q-100 0 -161 -52t-68 -156l-185 34q24 135 123 219q118 97 291 97q383 0 383 -326v-450q0 -166 14 -236h-8
q-71 0 -121.5 -55t-50.5 -131q0 -77 51 -132t121 -55h66v-100h-66q-119 0 -203 84.5t-84 202.5z" />
    <glyph glyph-name="Cacute" unicode="&#x106;" horiz-adv-x="1437" 
d="M1200 516l197 -39q-21 -100 -72 -190t-128.5 -163t-189 -116t-241.5 -43q-164 0 -297 60.5t-218 165t-130 241t-45 291.5q0 152 47.5 288.5t133.5 241.5t218 166.5t291 61.5q121 0 225.5 -37t180.5 -101.5t129 -147t83 -179.5l-196 -41q-22 70 -58 129t-87 107.5t-122 76
t-155 27.5q-113 0 -206.5 -48.5t-154 -130.5t-93.5 -188.5t-33 -224.5q0 -121 31 -226.5t90.5 -188t153.5 -130t212 -47.5q92 0 169 33t129.5 89t86.5 122.5t49 140.5zM694 1563l142 350h190l-182 -350h-150z" />
    <glyph glyph-name="cacute" unicode="&#x107;" horiz-adv-x="1030" 
d="M799 367l182 -37q-6 -43 -25.5 -89.5t-56.5 -94.5t-86 -85.5t-120.5 -61.5t-153.5 -24q-95 0 -174.5 29t-133.5 78t-91.5 115.5t-54.5 140.5t-17 154q0 79 19 154.5t58 142t93.5 116t132 78.5t168.5 29q82 0 152 -22t118 -56.5t84 -80.5t55.5 -91.5t28.5 -91.5l-182 -33
q-3 24 -12 51t-29 59.5t-47 58t-71 43t-97 17.5q-57 0 -105 -21.5t-81 -57.5t-56.5 -84t-34 -101.5t-10.5 -109.5q0 -71 16 -135t49 -118t90 -86t132 -32q62 0 111.5 24t79 63t46.5 79t23 80zM461 1106l141 350h191l-183 -350h-149z" />
    <glyph glyph-name="Ccircumflex" unicode="&#x108;" horiz-adv-x="1437" 
d="M1200 516l197 -39q-21 -100 -72 -190t-128.5 -163t-189 -116t-241.5 -43q-164 0 -297 60.5t-218 165t-130 241t-45 291.5q0 152 47.5 288.5t133.5 241.5t218 166.5t291 61.5q121 0 225.5 -37t180.5 -101.5t129 -147t83 -179.5l-196 -41q-22 70 -58 129t-87 107.5t-122 76
t-155 27.5q-113 0 -206.5 -48.5t-154 -130.5t-93.5 -188.5t-33 -224.5q0 -121 31 -226.5t90.5 -188t153.5 -130t212 -47.5q92 0 169 33t129.5 89t86.5 122.5t49 140.5zM422 1563l266 350h154l266 -350h-164l-178 243l-180 -243h-164z" />
    <glyph glyph-name="ccircumflex" unicode="&#x109;" horiz-adv-x="1030" 
d="M799 367l182 -37q-6 -43 -25.5 -89.5t-56.5 -94.5t-86 -85.5t-120.5 -61.5t-153.5 -24q-95 0 -174.5 29t-133.5 78t-91.5 115.5t-54.5 140.5t-17 154q0 79 19 154.5t58 142t93.5 116t132 78.5t168.5 29q82 0 152 -22t118 -56.5t84 -80.5t55.5 -91.5t28.5 -91.5l-182 -33
q-3 24 -12 51t-29 59.5t-47 58t-71 43t-97 17.5q-57 0 -105 -21.5t-81 -57.5t-56.5 -84t-34 -101.5t-10.5 -109.5q0 -71 16 -135t49 -118t90 -86t132 -32q62 0 111.5 24t79 63t46.5 79t23 80zM195 1106l266 350h153l267 -350h-164l-178 244l-181 -244h-163z" />
    <glyph glyph-name="Cdotaccent" unicode="&#x10a;" horiz-adv-x="1437" 
d="M1200 516l197 -39q-21 -100 -72 -190t-128.5 -163t-189 -116t-241.5 -43q-164 0 -297 60.5t-218 165t-130 241t-45 291.5q0 152 47.5 288.5t133.5 241.5t218 166.5t291 61.5q121 0 225.5 -37t180.5 -101.5t129 -147t83 -179.5l-196 -41q-22 70 -58 129t-87 107.5t-122 76
t-155 27.5q-113 0 -206.5 -48.5t-154 -130.5t-93.5 -188.5t-33 -224.5q0 -121 31 -226.5t90.5 -188t153.5 -130t212 -47.5q92 0 169 33t129.5 89t86.5 122.5t49 140.5zM664 1626v215h204v-215h-204z" />
    <glyph glyph-name="cdotaccent" unicode="&#x10b;" horiz-adv-x="1030" 
d="M799 367l182 -37q-6 -43 -25.5 -89.5t-56.5 -94.5t-86 -85.5t-120.5 -61.5t-153.5 -24q-95 0 -174.5 29t-133.5 78t-91.5 115.5t-54.5 140.5t-17 154q0 79 19 154.5t58 142t93.5 116t132 78.5t168.5 29q82 0 152 -22t118 -56.5t84 -80.5t55.5 -91.5t28.5 -91.5l-182 -33
q-3 24 -12 51t-29 59.5t-47 58t-71 43t-97 17.5q-57 0 -105 -21.5t-81 -57.5t-56.5 -84t-34 -101.5t-10.5 -109.5q0 -71 16 -135t49 -118t90 -86t132 -32q62 0 111.5 24t79 63t46.5 79t23 80zM436 1169v215h205v-215h-205z" />
    <glyph glyph-name="Ccaron" unicode="&#x10c;" horiz-adv-x="1437" 
d="M1200 516l197 -39q-21 -100 -72 -190t-128.5 -163t-189 -116t-241.5 -43q-164 0 -297 60.5t-218 165t-130 241t-45 291.5q0 152 47.5 288.5t133.5 241.5t218 166.5t291 61.5q121 0 225.5 -37t180.5 -101.5t129 -147t83 -179.5l-196 -41q-22 70 -58 129t-87 107.5t-122 76
t-155 27.5q-113 0 -206.5 -48.5t-154 -130.5t-93.5 -188.5t-33 -224.5q0 -121 31 -226.5t90.5 -188t153.5 -130t212 -47.5q92 0 169 33t129.5 89t86.5 122.5t49 140.5zM690 1563l-266 350h164l180 -244l178 244h164l-266 -350h-154z" />
    <glyph glyph-name="ccaron" unicode="&#x10d;" horiz-adv-x="1030" 
d="M799 367l182 -37q-6 -43 -25.5 -89.5t-56.5 -94.5t-86 -85.5t-120.5 -61.5t-153.5 -24q-95 0 -174.5 29t-133.5 78t-91.5 115.5t-54.5 140.5t-17 154q0 79 19 154.5t58 142t93.5 116t132 78.5t168.5 29q82 0 152 -22t118 -56.5t84 -80.5t55.5 -91.5t28.5 -91.5l-182 -33
q-3 24 -12 51t-29 59.5t-47 58t-71 43t-97 17.5q-57 0 -105 -21.5t-81 -57.5t-56.5 -84t-34 -101.5t-10.5 -109.5q0 -71 16 -135t49 -118t90 -86t132 -32q62 0 111.5 24t79 63t46.5 79t23 80zM461 1106l-266 350h163l181 -244l178 244h164l-267 -350h-153z" />
    <glyph glyph-name="Dcaron" unicode="&#x10e;" horiz-adv-x="1460" 
d="M352 166h262q124 0 221.5 29.5t161.5 80t105.5 122.5t59.5 152t18 173t-18 173t-59.5 152t-105.5 122.5t-161.5 80t-221.5 29.5h-262v-1114zM156 0v1446h473q115 0 219.5 -22.5t203.5 -76t171 -134t115.5 -206.5t43.5 -284t-43.5 -284t-115.5 -206.5t-171 -134
t-203.5 -76t-219.5 -22.5h-473zM629 1565l-267 350h164l181 -244l178 244h164l-267 -350h-153z" />
    <glyph glyph-name="dcaron" unicode="&#x10f;" horiz-adv-x="1173" 
d="M831 0v150q-29 -72 -120 -123.5t-189 -51.5q-100 0 -180.5 35t-130 89.5t-83 125t-47 137t-13.5 130.5q0 69 14.5 138t49.5 138.5t86.5 123t132 87t179.5 33.5q93 0 178.5 -50.5t118.5 -119.5v604h181v-1446h-177zM549 121q35 0 70 9.5t74 35.5t68.5 66t48.5 107t19 153
t-19 154t-48 108t-67 66.5t-72 36t-66 9.5q-76 0 -136 -32t-96 -86t-54.5 -119t-18.5 -135q0 -49 10 -99t33 -99.5t56.5 -88t84.5 -62.5t113 -24zM1102 1096l74 350h182l-139 -350h-117z" />
    <glyph glyph-name="Dcroat" unicode="&#x110;" horiz-adv-x="1497" 
d="M193 0v713h-156v127h156v606h473q115 0 219.5 -22.5t203.5 -76t171 -134t115.5 -206.5t43.5 -284t-43.5 -284t-115.5 -206.5t-171 -134t-203.5 -76t-219.5 -22.5h-473zM391 166h262q123 0 220.5 29.5t161 80t105 122.5t59.5 152t18 173t-18 173t-59.5 152t-105 122.5
t-161 80t-220.5 29.5h-262v-440h436v-127h-436v-547z" />
    <glyph glyph-name="dcroat" unicode="&#x111;" horiz-adv-x="1132" 
d="M526 1159v121h301v166h181v-166h120v-121h-120v-1159h-177v150q-29 -72 -120 -123.5t-189 -51.5q-100 0 -180.5 35t-130 89.5t-83 125t-47 137t-13.5 130.5q0 69 14.5 138t49.5 138.5t86.5 123t132 87t179.5 33.5q93 0 178.5 -50.5t118.5 -119.5v317h-301zM549 121
q35 0 70 9.5t74 35.5t68.5 66t48.5 107t19 153t-19 154t-48 108t-67 66.5t-72 36t-66 9.5q-76 0 -136 -32t-96 -86t-54.5 -119t-18.5 -135q0 -49 10 -99t33 -99.5t56.5 -88t84.5 -62.5t113 -24z" />
    <glyph glyph-name="Emacron" unicode="&#x112;" horiz-adv-x="1218" 
d="M156 0v1446h960v-166h-764v-451h738v-165h-738v-498h783v-166h-979zM346 1671v150h617v-150h-617z" />
    <glyph glyph-name="emacron" unicode="&#x113;" horiz-adv-x="1040" 
d="M784 328l174 -37q-11 -53 -44.5 -107t-84.5 -101.5t-126 -77.5t-158 -30q-120 0 -213.5 43t-149 116.5t-84 164t-28.5 193.5t29.5 195.5t84.5 165.5t142.5 116t195.5 43q140 0 243.5 -69t155.5 -187t52 -269q0 -30 -2 -38h-717q1 -63 17.5 -120.5t49.5 -106t88.5 -77
t127.5 -28.5q56 0 101 19.5t74 51.5t46.5 67t25.5 73zM256 590h526q0 110 -69 195t-191 85q-123 0 -194.5 -80t-71.5 -200zM215 1212v150h616v-150h-616z" />
    <glyph glyph-name="Ebreve" unicode="&#x114;" horiz-adv-x="1218" 
d="M156 0v1446h960v-166h-764v-451h738v-165h-738v-498h783v-166h-979zM352 1855v48h144v-48q0 -83 39.5 -133.5t119.5 -50.5t121 51t41 133v48h144v-48q0 -140 -87 -224.5t-219 -84.5t-217.5 84.5t-85.5 224.5z" />
    <glyph glyph-name="ebreve" unicode="&#x115;" horiz-adv-x="1040" 
d="M784 328l174 -37q-11 -53 -44.5 -107t-84.5 -101.5t-126 -77.5t-158 -30q-120 0 -213.5 43t-149 116.5t-84 164t-28.5 193.5t29.5 195.5t84.5 165.5t142.5 116t195.5 43q140 0 243.5 -69t155.5 -187t52 -269q0 -30 -2 -38h-717q1 -63 17.5 -120.5t49.5 -106t88.5 -77
t127.5 -28.5q56 0 101 19.5t74 51.5t46.5 67t25.5 73zM256 590h526q0 110 -69 195t-191 85q-123 0 -194.5 -80t-71.5 -200zM219 1397v47h143v-47q0 -83 40 -134t120 -51t121 51.5t41 133.5v47h143v-47q0 -140 -86.5 -225t-218.5 -85q-131 0 -217 85t-86 225z" />
    <glyph glyph-name="Edotaccent" unicode="&#x116;" horiz-adv-x="1218" 
d="M156 0v1446h960v-166h-764v-451h738v-165h-738v-498h783v-166h-979zM551 1628v215h205v-215h-205z" />
    <glyph glyph-name="edotaccent" unicode="&#x117;" horiz-adv-x="1040" 
d="M784 328l174 -37q-11 -53 -44.5 -107t-84.5 -101.5t-126 -77.5t-158 -30q-120 0 -213.5 43t-149 116.5t-84 164t-28.5 193.5t29.5 195.5t84.5 165.5t142.5 116t195.5 43q140 0 243.5 -69t155.5 -187t52 -269q0 -30 -2 -38h-717q1 -63 17.5 -120.5t49.5 -106t88.5 -77
t127.5 -28.5q56 0 101 19.5t74 51.5t46.5 67t25.5 73zM256 590h526q0 110 -69 195t-191 85q-123 0 -194.5 -80t-71.5 -200zM422 1169v215h205v-215h-205z" />
    <glyph glyph-name="Eogonek" unicode="&#x118;" horiz-adv-x="1218" 
d="M156 0v1446h960v-166h-764v-451h738v-165h-738v-498h783v-166h-66q-68 -3 -116 -57t-48 -129q0 -77 51 -132t121 -55h66v-100h-66q-118 0 -202 84t-84 203q0 110 67 186h-702z" />
    <glyph glyph-name="eogonek" unicode="&#x119;" horiz-adv-x="1040" 
d="M700 -473h-65q-119 0 -203 84.5t-84 202.5q0 100 62 178q-169 41 -254.5 179t-85.5 321q0 103 29.5 195.5t84.5 165.5t142.5 116t195.5 43q140 0 243.5 -69t155.5 -187t52 -269q0 -30 -2 -38h-717q1 -63 17.5 -120.5t49.5 -106t88.5 -77t127.5 -28.5q56 0 101 19.5
t74 51.5t46.5 67t25.5 73l174 -37q-11 -52 -44 -106t-84 -101t-124.5 -77.5t-156.5 -31.5q-39 -25 -62.5 -67.5t-23.5 -93.5q0 -77 51 -132t121 -55h65v-100zM256 590h526q0 110 -69 195t-191 85q-123 0 -194.5 -80t-71.5 -200z" />
    <glyph glyph-name="Ecaron" unicode="&#x11a;" horiz-adv-x="1218" 
d="M156 0v1446h960v-166h-764v-451h738v-165h-738v-498h783v-166h-979zM578 1565l-267 350h164l180 -244l179 244h163l-266 -350h-153z" />
    <glyph glyph-name="ecaron" unicode="&#x11b;" horiz-adv-x="1040" 
d="M784 328l174 -37q-11 -53 -44.5 -107t-84.5 -101.5t-126 -77.5t-158 -30q-120 0 -213.5 43t-149 116.5t-84 164t-28.5 193.5t29.5 195.5t84.5 165.5t142.5 116t195.5 43q140 0 243.5 -69t155.5 -187t52 -269q0 -30 -2 -38h-717q1 -63 17.5 -120.5t49.5 -106t88.5 -77
t127.5 -28.5q56 0 101 19.5t74 51.5t46.5 67t25.5 73zM256 590h526q0 110 -69 195t-191 85q-123 0 -194.5 -80t-71.5 -200zM446 1106l-266 350h164l180 -244l178 244h164l-266 -350h-154z" />
    <glyph glyph-name="Gcircumflex" unicode="&#x11c;" horiz-adv-x="1482" 
d="M1200 0v209q-139 -244 -446 -244q-160 0 -290.5 60t-214.5 164t-129.5 241t-45.5 293q0 152 47 288.5t133 241.5t217.5 166.5t290.5 61.5q217 0 370 -110t226 -290l-197 -43q-55 126 -155.5 201.5t-243.5 75.5q-149 0 -261.5 -83.5t-168.5 -216.5t-56 -292
q0 -121 31 -226.5t90 -188t153 -130t212 -47.5q62 0 119.5 15t115 51.5t100 91t70 140.5t29.5 194h-461v165h649v-788h-184zM416 1565l266 350h154l266 -350h-164l-178 243l-180 -243h-164z" />
    <glyph glyph-name="gcircumflex" unicode="&#x11d;" horiz-adv-x="1122" 
d="M111 -133l192 35q8 -103 75.5 -170.5t170.5 -67.5q139 0 203.5 86t64.5 225v175q-33 -68 -121 -117t-182 -49q-113 0 -201 43t-140 116t-78.5 162t-26.5 189q0 64 12.5 130t45.5 137t83 125.5t132.5 90t186.5 35.5q91 0 177.5 -52.5t117.5 -123.5v151h174v-1016
q0 -214 -113 -333t-335 -119q-177 0 -297.5 95t-140.5 253zM539 129q36 0 71.5 9.5t74 35.5t67.5 65.5t48 106t19 150.5t-18.5 151t-46.5 107t-64.5 66.5t-70 36t-66.5 9.5q-80 0 -141 -35t-94.5 -91t-49.5 -117t-16 -123q0 -103 32 -186t98 -134t157 -51zM246 1106l266 350
h154l266 -350h-164l-178 244l-180 -244h-164z" />
    <glyph glyph-name="Gbreve" unicode="&#x11e;" horiz-adv-x="1482" 
d="M1200 0v209q-139 -244 -446 -244q-160 0 -290.5 60t-214.5 164t-129.5 241t-45.5 293q0 152 47 288.5t133 241.5t217.5 166.5t290.5 61.5q217 0 370 -110t226 -290l-197 -43q-55 126 -155.5 201.5t-243.5 75.5q-149 0 -261.5 -83.5t-168.5 -216.5t-56 -292
q0 -121 31 -226.5t90 -188t153 -130t212 -47.5q62 0 119.5 15t115 51.5t100 91t70 140.5t29.5 194h-461v165h649v-788h-184zM459 1855v48h143v-48q0 -83 40 -133.5t120 -50.5t121 51t41 133v48h143v-48q0 -140 -86.5 -224.5t-218.5 -84.5t-217.5 84.5t-85.5 224.5z" />
    <glyph glyph-name="gbreve" unicode="&#x11f;" horiz-adv-x="1122" 
d="M111 -133l192 35q8 -103 75.5 -170.5t170.5 -67.5q139 0 203.5 86t64.5 225v175q-33 -68 -121 -117t-182 -49q-113 0 -201 43t-140 116t-78.5 162t-26.5 189q0 64 12.5 130t45.5 137t83 125.5t132.5 90t186.5 35.5q91 0 177.5 -52.5t117.5 -123.5v151h174v-1016
q0 -214 -113 -333t-335 -119q-177 0 -297.5 95t-140.5 253zM539 129q36 0 71.5 9.5t74 35.5t67.5 65.5t48 106t19 150.5t-18.5 151t-46.5 107t-64.5 66.5t-70 36t-66.5 9.5q-80 0 -141 -35t-94.5 -91t-49.5 -117t-16 -123q0 -103 32 -186t98 -134t157 -51zM285 1397v47h143
v-47q0 -83 40 -134t120 -51t121 51.5t41 133.5v47h143v-47q0 -140 -86.5 -225t-218.5 -85q-131 0 -217 85t-86 225z" />
    <glyph glyph-name="Gdotaccent" unicode="&#x120;" horiz-adv-x="1482" 
d="M1200 0v209q-139 -244 -446 -244q-160 0 -290.5 60t-214.5 164t-129.5 241t-45.5 293q0 152 47 288.5t133 241.5t217.5 166.5t290.5 61.5q217 0 370 -110t226 -290l-197 -43q-55 126 -155.5 201.5t-243.5 75.5q-149 0 -261.5 -83.5t-168.5 -216.5t-56 -292
q0 -121 31 -226.5t90 -188t153 -130t212 -47.5q62 0 119.5 15t115 51.5t100 91t70 140.5t29.5 194h-461v165h649v-788h-184zM657 1628v215h205v-215h-205z" />
    <glyph glyph-name="gdotaccent" unicode="&#x121;" horiz-adv-x="1122" 
d="M111 -133l192 35q8 -103 75.5 -170.5t170.5 -67.5q139 0 203.5 86t64.5 225v175q-33 -68 -121 -117t-182 -49q-113 0 -201 43t-140 116t-78.5 162t-26.5 189q0 64 12.5 130t45.5 137t83 125.5t132.5 90t186.5 35.5q91 0 177.5 -52.5t117.5 -123.5v151h174v-1016
q0 -214 -113 -333t-335 -119q-177 0 -297.5 95t-140.5 253zM539 129q36 0 71.5 9.5t74 35.5t67.5 65.5t48 106t19 150.5t-18.5 151t-46.5 107t-64.5 66.5t-70 36t-66.5 9.5q-80 0 -141 -35t-94.5 -91t-49.5 -117t-16 -123q0 -103 32 -186t98 -134t157 -51zM487 1169v215h205
v-215h-205z" />
    <glyph glyph-name="uni0122" unicode="&#x122;" horiz-adv-x="1482" 
d="M1200 0v209q-139 -244 -446 -244q-160 0 -290.5 60t-214.5 164t-129.5 241t-45.5 293q0 152 47 288.5t133 241.5t217.5 166.5t290.5 61.5q217 0 370 -110t226 -290l-197 -43q-55 126 -155.5 201.5t-243.5 75.5q-149 0 -261.5 -83.5t-168.5 -216.5t-56 -292
q0 -121 31 -226.5t90 -188t153 -130t212 -47.5q62 0 119.5 15t115 51.5t100 91t70 140.5t29.5 194h-461v165h649v-788h-184zM596 -465l76 352h182l-141 -352h-117z" />
    <glyph glyph-name="uni0123" unicode="&#x123;" horiz-adv-x="1122" 
d="M111 -133l192 35q8 -103 75.5 -170.5t170.5 -67.5q139 0 203.5 86t64.5 225v175q-33 -68 -121 -117t-182 -49q-113 0 -201 43t-140 116t-78.5 162t-26.5 189q0 64 12.5 130t45.5 137t83 125.5t132.5 90t186.5 35.5q91 0 177.5 -52.5t117.5 -123.5v151h174v-1016
q0 -214 -113 -333t-335 -119q-177 0 -297.5 95t-140.5 253zM539 129q36 0 71.5 9.5t74 35.5t67.5 65.5t48 106t19 150.5t-18.5 151t-46.5 107t-64.5 66.5t-70 36t-66.5 9.5q-80 0 -141 -35t-94.5 -91t-49.5 -117t-16 -123q0 -103 32 -186t98 -134t157 -51zM500 1106l143 350
h119l-78 -350h-184z" />
    <glyph glyph-name="Hcircumflex" unicode="&#x124;" horiz-adv-x="1478" 
d="M156 0v1446h196v-615h770v615h201v-1446h-201v666h-770v-666h-196zM391 1565l266 350h154l266 -350h-164l-178 243l-180 -243h-164z" />
    <glyph glyph-name="hcircumflex" unicode="&#x125;" horiz-adv-x="1071" 
d="M125 0v1446h178v-623q22 71 106.5 130t204.5 59q171 0 271 -133q45 -60 58 -127t13 -203v-549h-182v549q0 105 -8 155.5t-31 83.5q-56 78 -172 78t-190 -90q-41 -51 -54.5 -112.5t-13.5 -192.5v-471h-180zM-133 1565l266 350h154l266 -350h-164l-178 243l-180 -243h-164z
" />
    <glyph glyph-name="Hbar" unicode="&#x126;" horiz-adv-x="1536" 
d="M29 1069v127h155v250h197v-250h770v250h201v-250h155v-127h-155v-1069h-201v666h-770v-666h-197v1069h-155zM381 831h770v238h-770v-238z" />
    <glyph glyph-name="hbar" unicode="&#x127;" horiz-adv-x="1071" 
d="M16 1159v121h109v166h178v-166h301v-121h-301v-336q22 71 106.5 130t204.5 59q171 0 271 -133q45 -60 58 -127t13 -203v-549h-182v549q0 105 -8 155.5t-31 83.5q-56 78 -172 78t-190 -90q-41 -51 -54.5 -112.5t-13.5 -192.5v-471h-180v1159h-109z" />
    <glyph glyph-name="Itilde" unicode="&#x128;" horiz-adv-x="507" 
d="M156 0v1446h196v-1446h-196zM-66 1608v174q80 73 170 73q11 0 22 -1t24.5 -4t21 -4t24 -6.5t20 -6.5t23.5 -8.5t21 -7.5q10 -3 31.5 -10.5t33.5 -11.5t28.5 -7.5t29.5 -3.5q91 0 168 102v-174q-34 -32 -81 -54t-91 -22q-48 0 -146 35q-11 4 -34 12.5t-35.5 12.5t-31 8
t-34.5 4q-89 0 -164 -100z" />
    <glyph glyph-name="itilde" unicode="&#x129;" horiz-adv-x="432" 
d="M125 0v987h182v-987h-182zM-94 1149v174q82 74 170 74q16 0 30.5 -1.5t34.5 -7.5t27.5 -8t34 -11.5t28.5 -10.5q10 -3 31.5 -10.5t33.5 -11.5t28.5 -7.5t29.5 -3.5q91 0 168 102v-174q-34 -32 -81 -53.5t-91 -21.5q-49 0 -145 34q-11 4 -34 12.5t-35.5 12.5t-31 8
t-34.5 4q-89 0 -164 -100z" />
    <glyph glyph-name="Imacron" unicode="&#x12a;" horiz-adv-x="507" 
d="M156 0v1446h196v-1446h-196zM-55 1671v150h616v-150h-616z" />
    <glyph glyph-name="imacron" unicode="&#x12b;" horiz-adv-x="432" 
d="M125 0v987h182v-987h-182zM-94 1212v150h616v-150h-616z" />
    <glyph glyph-name="Ibreve" unicode="&#x12c;" horiz-adv-x="507" 
d="M156 0v1446h196v-1446h-196zM-49 1855v48h143v-48q0 -83 40 -133.5t120 -50.5t121 51t41 133v48h143v-48q0 -140 -86.5 -224.5t-218.5 -84.5t-217.5 84.5t-85.5 224.5z" />
    <glyph glyph-name="ibreve" unicode="&#x12d;" horiz-adv-x="432" 
d="M125 0v987h182v-987h-182zM-90 1397v47h143v-47q0 -83 40 -134t120 -51t121 51.5t41 133.5v47h143v-47q0 -140 -86.5 -225t-218.5 -85q-131 0 -217 85t-86 225z" />
    <glyph glyph-name="Iogonek" unicode="&#x12e;" horiz-adv-x="507" 
d="M352 1446v-1446q-73 0 -124.5 -54.5t-51.5 -131.5t51 -132t121 -55h66v-100h-66q-118 0 -202.5 84.5t-84.5 202.5q0 63 25 118.5t70 92.5v1421h196z" />
    <glyph glyph-name="iogonek" unicode="&#x12f;" horiz-adv-x="434" 
d="M309 987v-987q-73 0 -124.5 -54.5t-51.5 -131.5t51 -132t121 -55h66v-100h-66q-119 0 -203 84.5t-84 202.5q0 68 29 127t80 96v950h182zM127 1243v203h182v-203h-182z" />
    <glyph glyph-name="Idotaccent" unicode="&#x130;" horiz-adv-x="507" 
d="M156 0v1446h196v-1446h-196zM150 1628v215h204v-215h-204z" />
    <glyph glyph-name="dotlessi" unicode="&#x131;" horiz-adv-x="432" 
d="M125 0v987h182v-987h-182z" />
    <glyph glyph-name="IJ" unicode="&#x132;" horiz-adv-x="1656" 
d="M156 0v1446h196v-1446h-196zM535 446l202 37q0 -167 73 -261.5t216 -94.5q141 0 215 85.5t74 223.5v1010h198v-1002q0 -224 -131.5 -351.5t-353.5 -127.5q-217 0 -351.5 127t-141.5 354z" />
    <glyph glyph-name="ij" unicode="&#x133;" horiz-adv-x="866" 
d="M125 0v987h182v-987h-182zM125 1243v203h182v-203h-182zM344 -469v154q61 -9 76 -9q46 0 76 13.5t43 38t17.5 47t4.5 53.5v1159h180v-1165q0 -73 -10.5 -123t-38.5 -93t-83 -64t-138 -21q-76 0 -127 10zM561 1243v203h180v-203h-180z" />
    <glyph glyph-name="Jcircumflex" unicode="&#x134;" horiz-adv-x="1146" 
d="M25 446l202 37q0 -167 73.5 -261.5t217.5 -94.5q140 0 214.5 85.5t74.5 223.5v1010h197v-1002q0 -224 -131 -351.5t-353 -127.5q-217 0 -351.5 127t-143.5 354zM563 1565l266 350h154l266 -350h-164l-178 243l-180 -243h-164z" />
    <glyph glyph-name="jcircumflex" unicode="&#x135;" horiz-adv-x="442" 
d="M-72 1106l213 350h164l213 -350h-151l-142 244l-145 -244h-152zM-80 -469v154q61 -9 76 -9q46 0 76 13.5t43 38t17.5 47t4.5 53.5v1159h180v-1165q0 -73 -10.5 -123t-38.5 -93t-83 -64t-138 -21q-76 0 -127 10z" />
    <glyph glyph-name="uni0136" unicode="&#x136;" horiz-adv-x="1288" 
d="M156 0v1446h196v-645l643 645h254l-688 -674l782 -772h-266l-725 721v-721h-196zM465 -465l76 352h182l-141 -352h-117z" />
    <glyph glyph-name="uni0137" unicode="&#x137;" horiz-adv-x="1009" 
d="M125 0v1446h182v-873l430 414h236l-475 -442l557 -545h-236l-512 489v-489h-182zM408 -465l75 352h183l-142 -352h-116z" />
    <glyph glyph-name="kgreenlandic" unicode="&#x138;" horiz-adv-x="1009" 
d="M125 0v987h182v-418l430 418h236l-475 -448l557 -539h-236l-512 483v-483h-182z" />
    <glyph glyph-name="Lacute" unicode="&#x139;" horiz-adv-x="1112" 
d="M156 0v1446h196v-1280h738v-166h-934zM178 1565l141 350h191l-182 -350h-150z" />
    <glyph glyph-name="lacute" unicode="&#x13a;" horiz-adv-x="432" 
d="M125 0v1446h182v-1446h-182zM137 1565l142 350h190l-182 -350h-150z" />
    <glyph glyph-name="uni013B" unicode="&#x13b;" horiz-adv-x="1112" 
d="M156 0v1446h196v-1280h738v-166h-934zM465 -465l76 352h182l-141 -352h-117z" />
    <glyph glyph-name="uni013C" unicode="&#x13c;" horiz-adv-x="432" 
d="M125 0v1446h182v-1446h-182zM53 -465l76 352h182l-141 -352h-117z" />
    <glyph glyph-name="Lcaron" unicode="&#x13d;" horiz-adv-x="1112" 
d="M156 0v1446h196v-1280h738v-166h-934zM446 1096l74 350h182l-139 -350h-117z" />
    <glyph glyph-name="lcaron" unicode="&#x13e;" horiz-adv-x="473" 
d="M125 0v1446h182v-1446h-182zM401 1096l74 350h182l-139 -350h-117z" />
    <glyph glyph-name="Ldot" unicode="&#x13f;" horiz-adv-x="1112" 
d="M156 0v1446h196v-1280h738v-166h-934zM612 616v215h205v-215h-205z" />
    <glyph glyph-name="ldot" unicode="&#x140;" horiz-adv-x="622" 
d="M125 0v1446h182v-1446h-182zM426 616v215h205v-215h-205z" />
    <glyph glyph-name="Lslash" unicode="&#x141;" horiz-adv-x="1138" 
d="M195 0v498l-160 -105v139l160 105v809h196v-676l426 283v-140l-426 -282v-465h688v-166h-884z" />
    <glyph glyph-name="lslash" unicode="&#x142;" horiz-adv-x="583" 
d="M203 0v649l-148 -100v135l148 100v662h182v-543l150 101v-136l-150 -100v-768h-182z" />
    <glyph glyph-name="Nacute" unicode="&#x143;" horiz-adv-x="1546" 
d="M156 0v1446h270l780 -1249v1249h185v-1446h-285l-766 1247v-1247h-184zM698 1565l142 350h190l-182 -350h-150z" />
    <glyph glyph-name="nacute" unicode="&#x144;" horiz-adv-x="1067" 
d="M125 0v987h178v-160q20 69 104 127t203 58q78 0 151 -31.5t122 -97.5q45 -61 57 -128t12 -206v-549h-180v549q0 106 -8.5 156t-32.5 83q-20 31 -64.5 54.5t-107.5 23.5q-117 0 -188 -90q-38 -49 -51 -114.5t-13 -190.5v-471h-182zM461 1106l141 350h191l-183 -350h-149z
" />
    <glyph glyph-name="uni0145" unicode="&#x145;" horiz-adv-x="1546" 
d="M156 0v1446h270l780 -1249v1249h185v-1446h-285l-766 1247v-1247h-184zM612 -465l76 352h182l-141 -352h-117z" />
    <glyph glyph-name="uni0146" unicode="&#x146;" horiz-adv-x="1067" 
d="M125 0v987h178v-160q20 69 104 127t203 58q78 0 151 -31.5t122 -97.5q45 -61 57 -128t12 -206v-549h-180v549q0 106 -8.5 156t-32.5 83q-20 31 -64.5 54.5t-107.5 23.5q-117 0 -188 -90q-38 -49 -51 -114.5t-13 -190.5v-471h-182zM377 -465l76 352h182l-141 -352h-117z
" />
    <glyph glyph-name="Ncaron" unicode="&#x147;" horiz-adv-x="1546" 
d="M156 0v1446h270l780 -1249v1249h185v-1446h-285l-766 1247v-1247h-184zM694 1565l-266 350h164l180 -244l178 244h164l-266 -350h-154z" />
    <glyph glyph-name="ncaron" unicode="&#x148;" horiz-adv-x="1067" 
d="M125 0v987h178v-160q20 69 104 127t203 58q78 0 151 -31.5t122 -97.5q45 -61 57 -128t12 -206v-549h-180v549q0 106 -8.5 156t-32.5 83q-20 31 -64.5 54.5t-107.5 23.5q-117 0 -188 -90q-38 -49 -51 -114.5t-13 -190.5v-471h-182zM461 1106l-266 350h163l181 -244
l178 244h164l-267 -350h-153z" />
    <glyph glyph-name="napostrophe" unicode="&#x149;" horiz-adv-x="1067" 
d="M125 0v987h178v-160q20 69 104 127t203 58q78 0 151 -31.5t122 -97.5q45 -61 57 -128t12 -206v-549h-180v549q0 106 -8.5 156t-32.5 83q-20 31 -64.5 54.5t-107.5 23.5q-117 0 -188 -90q-38 -49 -51 -114.5t-13 -190.5v-471h-182zM90 1096l74 350h182l-139 -350h-117z
" />
    <glyph glyph-name="Eng" unicode="&#x14a;" horiz-adv-x="1546" 
d="M993 -469v154q61 -9 76 -9q37 0 63.5 10t40.5 23.5t22 36t9.5 40t1.5 42.5v172h-100l-766 1247v-1247h-184v1446h270l780 -1249v1249h185v-1624q0 -72 -11 -123t-39 -93.5t-83 -63.5t-138 -21q-76 0 -127 10z" />
    <glyph glyph-name="eng" unicode="&#x14b;" horiz-adv-x="1067" 
d="M557 -469v154q61 -9 76 -9q45 0 75 13.5t42.5 38t17 47t4.5 53.5v721q0 106 -8.5 156t-32.5 83q-20 31 -64.5 54.5t-107.5 23.5q-117 0 -188 -90q-38 -49 -51 -114.5t-13 -190.5v-471h-182v987h178v-160q20 69 104 127t203 58q78 0 151 -31.5t122 -97.5q45 -61 57 -128
t12 -206v-727q0 -73 -10.5 -123t-38.5 -93t-83 -64t-138 -21q-74 0 -125 10z" />
    <glyph glyph-name="Omacron" unicode="&#x14c;" horiz-adv-x="1525" 
d="M766 131q121 0 216 50t151.5 134t85 186.5t28.5 215.5q0 91 -17.5 176t-55.5 162.5t-93 134.5t-136 91t-179 34q-99 0 -181 -34t-138 -91t-94.5 -134t-56 -162.5t-17.5 -176.5q0 -90 17.5 -173.5t56 -159t94.5 -131.5t138 -89t181 -33zM766 -35q-140 0 -256 42t-195 114
t-134 168.5t-80 204t-25 223.5t25 225t80 207.5t134 172t195 116.5t256 43q139 0 254 -43t193.5 -116.5t132.5 -172t79 -207.5t25 -225t-25 -223.5t-79 -204t-132.5 -168.5t-193.5 -114t-254 -42zM457 1671v150h616v-150h-616z" />
    <glyph glyph-name="omacron" unicode="&#x14d;" horiz-adv-x="1087" 
d="M545 121q57 0 105.5 21.5t81.5 58t56.5 84.5t34.5 100.5t11 106.5q0 55 -11 107.5t-34.5 101t-56.5 85t-81.5 58.5t-105.5 22q-72 0 -129.5 -33t-92 -87.5t-53 -119.5t-18.5 -134q0 -93 30.5 -175t99 -139t163.5 -57zM545 -25q-90 0 -168 29.5t-134 80t-96 116.5
t-59.5 140.5t-19.5 150.5q0 97 32 189t90 166t150.5 119.5t204.5 45.5q111 0 203 -45.5t150.5 -119.5t90 -166t31.5 -189q0 -96 -32 -187.5t-90 -165.5t-150 -119t-203 -45zM238 1212v150h616v-150h-616z" />
    <glyph glyph-name="Obreve" unicode="&#x14e;" horiz-adv-x="1525" 
d="M766 131q121 0 216 50t151.5 134t85 186.5t28.5 215.5q0 91 -17.5 176t-55.5 162.5t-93 134.5t-136 91t-179 34q-99 0 -181 -34t-138 -91t-94.5 -134t-56 -162.5t-17.5 -176.5q0 -90 17.5 -173.5t56 -159t94.5 -131.5t138 -89t181 -33zM766 -35q-140 0 -256 42t-195 114
t-134 168.5t-80 204t-25 223.5t25 225t80 207.5t134 172t195 116.5t256 43q139 0 254 -43t193.5 -116.5t132.5 -172t79 -207.5t25 -225t-25 -223.5t-79 -204t-132.5 -168.5t-193.5 -114t-254 -42zM463 1855v48h143v-48q0 -83 40 -133.5t120 -50.5t121 51t41 133v48h143v-48
q0 -140 -86.5 -224.5t-218.5 -84.5t-217.5 84.5t-85.5 224.5z" />
    <glyph glyph-name="obreve" unicode="&#x14f;" horiz-adv-x="1087" 
d="M545 121q57 0 105.5 21.5t81.5 58t56.5 84.5t34.5 100.5t11 106.5q0 55 -11 107.5t-34.5 101t-56.5 85t-81.5 58.5t-105.5 22q-72 0 -129.5 -33t-92 -87.5t-53 -119.5t-18.5 -134q0 -93 30.5 -175t99 -139t163.5 -57zM545 -25q-90 0 -168 29.5t-134 80t-96 116.5
t-59.5 140.5t-19.5 150.5q0 97 32 189t90 166t150.5 119.5t204.5 45.5q111 0 203 -45.5t150.5 -119.5t90 -166t31.5 -189q0 -96 -32 -187.5t-90 -165.5t-150 -119t-203 -45zM242 1397v47h143v-47q0 -83 40 -134t120 -51t121 51.5t41 133.5v47h143v-47q0 -140 -86.5 -225
t-218.5 -85q-131 0 -217 85t-86 225z" />
    <glyph glyph-name="Ohungarumlaut" unicode="&#x150;" horiz-adv-x="1525" 
d="M766 131q121 0 216 50t151.5 134t85 186.5t28.5 215.5q0 91 -17.5 176t-55.5 162.5t-93 134.5t-136 91t-179 34q-99 0 -181 -34t-138 -91t-94.5 -134t-56 -162.5t-17.5 -176.5q0 -90 17.5 -173.5t56 -159t94.5 -131.5t138 -89t181 -33zM766 -35q-140 0 -256 42t-195 114
t-134 168.5t-80 204t-25 223.5t25 225t80 207.5t134 172t195 116.5t256 43q139 0 254 -43t193.5 -116.5t132.5 -172t79 -207.5t25 -225t-25 -223.5t-79 -204t-132.5 -168.5t-193.5 -114t-254 -42zM543 1565l141 350h190l-182 -350h-149zM809 1565l141 350h191l-183 -350
h-149z" />
    <glyph glyph-name="ohungarumlaut" unicode="&#x151;" horiz-adv-x="1087" 
d="M545 121q57 0 105.5 21.5t81.5 58t56.5 84.5t34.5 100.5t11 106.5q0 55 -11 107.5t-34.5 101t-56.5 85t-81.5 58.5t-105.5 22q-72 0 -129.5 -33t-92 -87.5t-53 -119.5t-18.5 -134q0 -93 30.5 -175t99 -139t163.5 -57zM545 -25q-90 0 -168 29.5t-134 80t-96 116.5
t-59.5 140.5t-19.5 150.5q0 97 32 189t90 166t150.5 119.5t204.5 45.5q111 0 203 -45.5t150.5 -119.5t90 -166t31.5 -189q0 -96 -32 -187.5t-90 -165.5t-150 -119t-203 -45zM326 1106l141 350h190l-182 -350h-149zM592 1106l141 350h191l-183 -350h-149z" />
    <glyph glyph-name="OE" unicode="&#x152;" horiz-adv-x="1941" 
d="M1182 166h676v-166h-1045q-142 0 -263 38.5t-207.5 105.5t-147 158.5t-90 197.5t-29.5 221q0 145 47.5 274.5t137.5 230.5t232.5 160.5t319.5 59.5h1028v-166h-659v-451h633v-165h-633v-498zM813 166h170v1114h-170q-126 0 -229 -45t-168.5 -122.5t-101 -178
t-35.5 -213.5q0 -112 35.5 -212t101 -176.5t168.5 -121.5t229 -45z" />
    <glyph glyph-name="oe" unicode="&#x153;" horiz-adv-x="1806" 
d="M1550 328l174 -37q-10 -50 -43 -104t-84.5 -102t-127 -79t-158.5 -31q-270 0 -389 209q-60 -97 -155.5 -153t-221.5 -56q-90 0 -168 29.5t-134 80t-96 116.5t-59.5 140.5t-19.5 150.5q0 97 32 189t90 166t150.5 119.5t204.5 45.5q125 0 221 -57.5t156 -155.5
q123 213 366 213q209 0 330 -148.5t121 -376.5q0 -8 -1 -21.5t-1 -16.5h-717q0 -47 8.5 -91.5t29 -89t52 -77.5t81 -53.5t112.5 -20.5q56 0 101 19.5t74 51.5t46.5 67t25.5 73zM545 121q57 0 105.5 21.5t81.5 58t56.5 84.5t34.5 100.5t11 106.5q0 55 -11 107.5t-34.5 101
t-56.5 85t-81.5 58.5t-105.5 22q-72 0 -129.5 -33t-92 -87.5t-53 -119.5t-18.5 -134q0 -93 30.5 -175t99 -139t163.5 -57zM1022 590h526q0 50 -16.5 99t-47.5 90t-82 66t-114 25q-123 0 -194.5 -80.5t-71.5 -199.5z" />
    <glyph glyph-name="Racute" unicode="&#x154;" horiz-adv-x="1368" 
d="M156 0v1446h600q233 0 356 -99.5t123 -279.5q0 -68 -17.5 -125.5t-43.5 -94t-59.5 -63.5t-62.5 -39.5t-55 -17.5q230 -45 230 -276v-224q0 -66 17 -119t69 -108h-223q-62 74 -62 201v217q0 121 -62.5 167t-189.5 46h-426v-631h-194zM350 797h412q70 0 122.5 19.5
t80.5 46.5t45 65t21.5 67t4.5 60q0 105 -71 165t-217 60h-398v-483zM606 1565l142 350h190l-182 -350h-150z" />
    <glyph glyph-name="racute" unicode="&#x155;" horiz-adv-x="681" 
d="M125 0v987h178v-166q27 76 106.5 133.5t186.5 57.5q40 0 70 -6v-183q-40 8 -95 8q-135 0 -211 -112q-24 -32 -36.5 -80t-14.5 -87t-2 -106v-446h-182zM332 1106l141 350h191l-183 -350h-149z" />
    <glyph glyph-name="uni0156" unicode="&#x156;" horiz-adv-x="1368" 
d="M156 0v1446h600q233 0 356 -99.5t123 -279.5q0 -68 -17.5 -125.5t-43.5 -94t-59.5 -63.5t-62.5 -39.5t-55 -17.5q230 -45 230 -276v-224q0 -66 17 -119t69 -108h-223q-62 74 -62 201v217q0 121 -62.5 167t-189.5 46h-426v-631h-194zM350 797h412q70 0 122.5 19.5
t80.5 46.5t45 65t21.5 67t4.5 60q0 105 -71 165t-217 60h-398v-483zM518 -465l76 352h182l-141 -352h-117z" />
    <glyph glyph-name="uni0157" unicode="&#x157;" horiz-adv-x="681" 
d="M125 0v987h178v-166q27 76 106.5 133.5t186.5 57.5q40 0 70 -6v-183q-40 8 -95 8q-135 0 -211 -112q-24 -32 -36.5 -80t-14.5 -87t-2 -106v-446h-182zM53 -465l76 352h182l-141 -352h-117z" />
    <glyph glyph-name="Rcaron" unicode="&#x158;" horiz-adv-x="1368" 
d="M156 0v1446h600q233 0 356 -99.5t123 -279.5q0 -68 -17.5 -125.5t-43.5 -94t-59.5 -63.5t-62.5 -39.5t-55 -17.5q230 -45 230 -276v-224q0 -66 17 -119t69 -108h-223q-62 74 -62 201v217q0 121 -62.5 167t-189.5 46h-426v-631h-194zM350 797h412q70 0 122.5 19.5
t80.5 46.5t45 65t21.5 67t4.5 60q0 105 -71 165t-217 60h-398v-483zM602 1565l-266 350h164l180 -244l178 244h164l-266 -350h-154z" />
    <glyph glyph-name="rcaron" unicode="&#x159;" horiz-adv-x="681" 
d="M125 0v987h178v-166q27 76 106.5 133.5t186.5 57.5q40 0 70 -6v-183q-40 8 -95 8q-135 0 -211 -112q-24 -32 -36.5 -80t-14.5 -87t-2 -106v-446h-182zM332 1106l-266 350h163l181 -244l178 244h164l-267 -350h-153z" />
    <glyph glyph-name="Sacute" unicode="&#x15a;" horiz-adv-x="1282" 
d="M57 442l203 33q9 -166 117.5 -255t263.5 -89q171 0 274 74.5t103 187.5q0 48 -16 85t-39 60t-65 42t-76 28.5t-91 22.5l-139 31q-58 13 -94.5 22t-88.5 24t-85.5 30.5t-73.5 38t-64.5 50t-47 62t-32.5 79t-10 97.5q0 188 150 302t397 114q100 0 183.5 -22t143 -59.5
t104.5 -90.5t71.5 -113t40.5 -129l-203 -37q-18 98 -69 163.5t-119 93.5t-152 28q-97 0 -173 -25.5t-124.5 -83t-48.5 -141.5q0 -35 12 -63.5t37.5 -49.5t52 -36.5t70 -29.5t74.5 -22t82 -20l155 -35q76 -17 132.5 -35.5t118 -51t100.5 -73t64.5 -104t25.5 -142.5
q0 -194 -161.5 -316t-422.5 -122q-231 0 -390.5 123t-189.5 354zM573 1565l142 350h190l-182 -350h-150z" />
    <glyph glyph-name="sacute" unicode="&#x15b;" horiz-adv-x="962" 
d="M51 309l189 41q6 -108 67 -170.5t172 -62.5q100 0 167 41t67 121q0 32 -14 56.5t-30.5 38t-48.5 25t-48.5 15.5t-49.5 10l-116 22q-37 7 -58 12t-59.5 17t-62 24t-53.5 34.5t-46.5 48.5t-28.5 64t-12 83q0 115 103.5 199t291.5 84q146 0 256 -81.5t137 -228.5l-176 -34
q-13 97 -63.5 149.5t-161.5 52.5q-103 0 -156 -43.5t-53 -95.5q0 -105 205 -141l78 -15q42 -8 70 -14t68.5 -18t68 -26t57.5 -36t48 -48.5t30 -64.5t12 -83q0 -95 -58 -167t-153 -107.5t-211 -35.5q-81 0 -151 21.5t-118 56t-83.5 79t-53.5 89.5t-22 88zM393 1106l142 350
h190l-182 -350h-150z" />
    <glyph glyph-name="Scircumflex" unicode="&#x15c;" horiz-adv-x="1282" 
d="M57 442l203 33q9 -166 117.5 -255t263.5 -89q171 0 274 74.5t103 187.5q0 48 -16 85t-39 60t-65 42t-76 28.5t-91 22.5l-139 31q-58 13 -94.5 22t-88.5 24t-85.5 30.5t-73.5 38t-64.5 50t-47 62t-32.5 79t-10 97.5q0 188 150 302t397 114q100 0 183.5 -22t143 -59.5
t104.5 -90.5t71.5 -113t40.5 -129l-203 -37q-18 98 -69 163.5t-119 93.5t-152 28q-97 0 -173 -25.5t-124.5 -83t-48.5 -141.5q0 -35 12 -63.5t37.5 -49.5t52 -36.5t70 -29.5t74.5 -22t82 -20l155 -35q76 -17 132.5 -35.5t118 -51t100.5 -73t64.5 -104t25.5 -142.5
q0 -194 -161.5 -316t-422.5 -122q-231 0 -390.5 123t-189.5 354zM301 1565l266 350h154l266 -350h-164l-178 243l-180 -243h-164z" />
    <glyph glyph-name="scircumflex" unicode="&#x15d;" horiz-adv-x="962" 
d="M51 309l189 41q6 -108 67 -170.5t172 -62.5q100 0 167 41t67 121q0 32 -14 56.5t-30.5 38t-48.5 25t-48.5 15.5t-49.5 10l-116 22q-37 7 -58 12t-59.5 17t-62 24t-53.5 34.5t-46.5 48.5t-28.5 64t-12 83q0 115 103.5 199t291.5 84q146 0 256 -81.5t137 -228.5l-176 -34
q-13 97 -63.5 149.5t-161.5 52.5q-103 0 -156 -43.5t-53 -95.5q0 -105 205 -141l78 -15q42 -8 70 -14t68.5 -18t68 -26t57.5 -36t48 -48.5t30 -64.5t12 -83q0 -95 -58 -167t-153 -107.5t-211 -35.5q-81 0 -151 21.5t-118 56t-83.5 79t-53.5 89.5t-22 88zM127 1106l266 350
h154l266 -350h-164l-178 244l-180 -244h-164z" />
    <glyph glyph-name="Scedilla" unicode="&#x15e;" horiz-adv-x="1282" 
d="M584 -473v100h65q46 0 75.5 23.5t29.5 66.5q0 39 -29.5 61.5t-75.5 22.5h-65v166q-138 9 -248 63t-185 160t-94 252l203 33q9 -166 117.5 -255t263.5 -89q171 0 274 74.5t103 187.5q0 48 -16 85t-39 60t-65 42t-76 28.5t-91 22.5l-139 31q-58 13 -94.5 22t-88.5 24
t-85.5 30.5t-73.5 38t-64.5 50t-47 62t-32.5 79t-10 97.5q0 188 150 302t397 114q100 0 183.5 -22t143 -59.5t104.5 -90.5t71.5 -113t40.5 -129l-203 -37q-18 98 -69 163.5t-119 93.5t-152 28q-97 0 -173 -25.5t-124.5 -83t-48.5 -141.5q0 -35 12 -63.5t37.5 -49.5t52 -36.5
t70 -29.5t74.5 -22t82 -20l155 -35q76 -17 132.5 -35.5t118 -51t100.5 -73t64.5 -104t25.5 -142.5q0 -184 -146 -304t-385 -132v-67q79 -6 128.5 -54.5t49.5 -128.5q0 -89 -60.5 -139.5t-152.5 -50.5h-71z" />
    <glyph glyph-name="scedilla" unicode="&#x15f;" horiz-adv-x="962" 
d="M420 -473v100h65q46 0 75.5 23.5t29.5 66.5q0 39 -29.5 61.5t-75.5 22.5h-65v179q-86 8 -157 42.5t-114.5 83t-68 100.5t-29.5 103l189 41q6 -108 67 -170.5t172 -62.5q100 0 167 41t67 121q0 32 -14 56.5t-30.5 38t-48.5 25t-48.5 15.5t-49.5 10l-116 22q-37 7 -58 12
t-59.5 17t-62 24t-53.5 34.5t-46.5 48.5t-28.5 64t-12 83q0 115 103.5 199t291.5 84q146 0 256 -81.5t137 -228.5l-176 -34q-13 97 -63.5 149.5t-161.5 52.5q-103 0 -156 -43.5t-53 -95.5q0 -105 205 -141l78 -15q42 -8 70 -14t68.5 -18t68 -26t57.5 -36t48 -48.5t30 -64.5
t12 -83q0 -133 -106.5 -215t-268.5 -93v-77q79 -6 129 -54.5t50 -128.5q0 -89 -60.5 -139.5t-152.5 -50.5h-72z" />
    <glyph glyph-name="Scaron" unicode="&#x160;" horiz-adv-x="1282" 
d="M57 442l203 33q9 -166 117.5 -255t263.5 -89q171 0 274 74.5t103 187.5q0 48 -16 85t-39 60t-65 42t-76 28.5t-91 22.5l-139 31q-58 13 -94.5 22t-88.5 24t-85.5 30.5t-73.5 38t-64.5 50t-47 62t-32.5 79t-10 97.5q0 188 150 302t397 114q100 0 183.5 -22t143 -59.5
t104.5 -90.5t71.5 -113t40.5 -129l-203 -37q-18 98 -69 163.5t-119 93.5t-152 28q-97 0 -173 -25.5t-124.5 -83t-48.5 -141.5q0 -35 12 -63.5t37.5 -49.5t52 -36.5t70 -29.5t74.5 -22t82 -20l155 -35q76 -17 132.5 -35.5t118 -51t100.5 -73t64.5 -104t25.5 -142.5
q0 -194 -161.5 -316t-422.5 -122q-231 0 -390.5 123t-189.5 354zM569 1565l-266 350h164l180 -244l178 244h164l-266 -350h-154z" />
    <glyph glyph-name="scaron" unicode="&#x161;" horiz-adv-x="962" 
d="M51 309l189 41q6 -108 67 -170.5t172 -62.5q100 0 167 41t67 121q0 32 -14 56.5t-30.5 38t-48.5 25t-48.5 15.5t-49.5 10l-116 22q-37 7 -58 12t-59.5 17t-62 24t-53.5 34.5t-46.5 48.5t-28.5 64t-12 83q0 115 103.5 199t291.5 84q146 0 256 -81.5t137 -228.5l-176 -34
q-13 97 -63.5 149.5t-161.5 52.5q-103 0 -156 -43.5t-53 -95.5q0 -105 205 -141l78 -15q42 -8 70 -14t68.5 -18t68 -26t57.5 -36t48 -48.5t30 -64.5t12 -83q0 -95 -58 -167t-153 -107.5t-211 -35.5q-81 0 -151 21.5t-118 56t-83.5 79t-53.5 89.5t-22 88zM393 1106l-266 350
h164l180 -244l178 244h164l-266 -350h-154z" />
    <glyph glyph-name="uni0162" unicode="&#x162;" horiz-adv-x="1159" 
d="M479 0v1280h-459v166h1119v-166h-461v-1280h-47v-100q79 -6 128.5 -54.5t49.5 -128.5q0 -89 -60.5 -139.5t-152.5 -50.5h-72v100h66q46 0 75 23.5t29 66.5q0 39 -29.5 61.5t-74.5 22.5h-66v199h-45z" />
    <glyph glyph-name="uni0163" unicode="&#x163;" horiz-adv-x="636" 
d="M334 -473v100h65q46 0 75.5 23.5t29.5 66.5q0 39 -29.5 61.5t-75.5 22.5h-65v205q-127 48 -127 213v623h-191v145h191v326h182v-326h209v-145h-209v-580q0 -68 27.5 -96.5t83.5 -28.5q46 0 98 10v-145q-77 -16 -141 -16h-17v-86q79 -6 128.5 -54.5t49.5 -128.5
q0 -89 -60.5 -139.5t-151.5 -50.5h-72z" />
    <glyph glyph-name="Tcaron" unicode="&#x164;" horiz-adv-x="1159" 
d="M479 0v1280h-459v166h1119v-166h-461v-1280h-199zM498 1565l-267 350h164l180 -244l179 244h164l-267 -350h-153z" />
    <glyph glyph-name="tcaron" unicode="&#x165;" horiz-adv-x="636" 
d="M207 219v623h-191v145h191v326h182v-326h209v-145h-209v-580q0 -68 27.5 -96.5t83.5 -28.5q46 0 98 10v-145q-77 -16 -141 -16q-119 0 -184.5 58t-65.5 175zM483 1096l74 350h182l-139 -350h-117z" />
    <glyph glyph-name="Tbar" unicode="&#x166;" horiz-adv-x="1171" 
d="M188 891v127h297v262h-458v166h1118v-166h-461v-262h301v-127h-301v-891h-199v891h-297z" />
    <glyph glyph-name="tbar" unicode="&#x167;" horiz-adv-x="649" 
d="M57 502v123h158v217h-190v145h190v326h182v-326h209v-145h-209v-217h185v-123h-185v-240q0 -68 27.5 -96.5t83.5 -28.5q46 0 98 10v-145q-77 -16 -141 -16q-119 0 -184.5 58t-65.5 175v283h-158z" />
    <glyph glyph-name="Utilde" unicode="&#x168;" horiz-adv-x="1433" 
d="M143 506v940h197v-940q0 -171 101.5 -273t275.5 -102q177 0 276 98.5t99 276.5v940h198v-940q0 -132 -42.5 -236t-119.5 -170t-181 -100.5t-230 -34.5q-274 0 -424 150.5t-150 390.5zM397 1608v174q80 73 170 73q11 0 22 -1t24.5 -4t21 -4t24 -6.5t20 -6.5t23.5 -8.5
t21 -7.5q10 -3 31.5 -10.5t33.5 -11.5t28.5 -7.5t29.5 -3.5q91 0 168 102v-174q-34 -32 -81 -54t-91 -22q-48 0 -146 35q-11 4 -34 12.5t-35.5 12.5t-31 8t-34.5 4q-89 0 -164 -100z" />
    <glyph glyph-name="utilde" unicode="&#x169;" horiz-adv-x="1062" 
d="M115 438v549h182v-549q0 -106 8.5 -156t32.5 -83q21 -32 64.5 -55t107.5 -23q60 0 102.5 22.5t79.5 67.5q41 50 53.5 111t12.5 194v471h180v-987h-178v160q-20 -69 -101 -127t-200 -58q-78 0 -151 31.5t-122 97.5q-45 61 -58 129t-13 205zM219 1149v174q82 74 170 74
q13 0 27.5 -2t25 -4t27.5 -7t24 -7.5t27 -9.5t25 -9q10 -3 31.5 -10.5t33.5 -11.5t28.5 -7.5t29.5 -3.5q91 0 168 102v-174q-34 -32 -81 -53.5t-91 -21.5q-50 0 -146 34q-11 4 -34 12.5t-35.5 12.5t-31 8t-34.5 4q-89 0 -164 -100z" />
    <glyph glyph-name="Umacron" unicode="&#x16a;" horiz-adv-x="1433" 
d="M143 506v940h197v-940q0 -171 101.5 -273t275.5 -102q177 0 276 98.5t99 276.5v940h198v-940q0 -132 -42.5 -236t-119.5 -170t-181 -100.5t-230 -34.5q-274 0 -424 150.5t-150 390.5zM408 1671v150h616v-150h-616z" />
    <glyph glyph-name="umacron" unicode="&#x16b;" horiz-adv-x="1062" 
d="M115 438v549h182v-549q0 -106 8.5 -156t32.5 -83q21 -32 64.5 -55t107.5 -23q60 0 102.5 22.5t79.5 67.5q41 50 53.5 111t12.5 194v471h180v-987h-178v160q-20 -69 -101 -127t-200 -58q-78 0 -151 31.5t-122 97.5q-45 61 -58 129t-13 205zM219 1212v150h617v-150h-617z
" />
    <glyph glyph-name="Ubreve" unicode="&#x16c;" horiz-adv-x="1433" 
d="M143 506v940h197v-940q0 -171 101.5 -273t275.5 -102q177 0 276 98.5t99 276.5v940h198v-940q0 -132 -42.5 -236t-119.5 -170t-181 -100.5t-230 -34.5q-274 0 -424 150.5t-150 390.5zM414 1855v48h143v-48q0 -83 40 -133.5t120 -50.5t121 51t41 133v48h143v-48
q0 -140 -86.5 -224.5t-218.5 -84.5t-217.5 84.5t-85.5 224.5z" />
    <glyph glyph-name="ubreve" unicode="&#x16d;" horiz-adv-x="1062" 
d="M115 438v549h182v-549q0 -106 8.5 -156t32.5 -83q21 -32 64.5 -55t107.5 -23q60 0 102.5 22.5t79.5 67.5q41 50 53.5 111t12.5 194v471h180v-987h-178v160q-20 -69 -101 -127t-200 -58q-78 0 -151 31.5t-122 97.5q-45 61 -58 129t-13 205zM223 1397v47h144v-47
q0 -83 40 -134t119 -51q80 0 121 51.5t41 133.5v47h143v-47q0 -140 -86.5 -225t-218.5 -85q-131 0 -217 85t-86 225z" />
    <glyph glyph-name="Uring" unicode="&#x16e;" horiz-adv-x="1433" 
d="M143 506v940h197v-940q0 -171 101.5 -273t275.5 -102q177 0 276 98.5t99 276.5v940h198v-940q0 -132 -42.5 -236t-119.5 -170t-181 -100.5t-230 -34.5q-274 0 -424 150.5t-150 390.5zM717 1642q44 0 76 32.5t32 76.5q0 46 -32 78.5t-76 32.5q-46 0 -78.5 -32.5
t-32.5 -78.5q0 -44 32.5 -76.5t78.5 -32.5zM717 1552q-83 0 -142 58.5t-59 140.5q0 83 59 141t142 58q82 0 140 -58t58 -141q0 -82 -58 -140.5t-140 -58.5z" />
    <glyph glyph-name="uring" unicode="&#x16f;" horiz-adv-x="1062" 
d="M115 438v549h182v-549q0 -106 8.5 -156t32.5 -83q21 -32 64.5 -55t107.5 -23q60 0 102.5 22.5t79.5 67.5q41 50 53.5 111t12.5 194v471h180v-987h-178v160q-20 -69 -101 -127t-200 -58q-78 0 -151 31.5t-122 97.5q-45 61 -58 129t-13 205zM528 1184q44 0 76.5 32t32.5 76
q0 46 -32.5 78.5t-76.5 32.5q-46 0 -78 -32.5t-32 -78.5q0 -44 32 -76t78 -32zM528 1094q-83 0 -141.5 58t-58.5 140q0 83 58.5 141t141.5 58q82 0 140.5 -58t58.5 -141q0 -82 -58.5 -140t-140.5 -58z" />
    <glyph glyph-name="Uhungarumlaut" unicode="&#x170;" horiz-adv-x="1433" 
d="M143 506v940h197v-940q0 -171 101.5 -273t275.5 -102q177 0 276 98.5t99 276.5v940h198v-940q0 -132 -42.5 -236t-119.5 -170t-181 -100.5t-230 -34.5q-274 0 -424 150.5t-150 390.5zM514 1565l141 350h191l-182 -350h-150zM780 1565l142 350h190l-182 -350h-150z" />
    <glyph glyph-name="uhungarumlaut" unicode="&#x171;" horiz-adv-x="1062" 
d="M115 438v549h182v-549q0 -106 8.5 -156t32.5 -83q21 -32 64.5 -55t107.5 -23q60 0 102.5 22.5t79.5 67.5q41 50 53.5 111t12.5 194v471h180v-987h-178v160q-20 -69 -101 -127t-200 -58q-78 0 -151 31.5t-122 97.5q-45 61 -58 129t-13 205zM307 1106l142 350h190
l-182 -350h-150zM573 1106l142 350h190l-182 -350h-150z" />
    <glyph glyph-name="Uogonek" unicode="&#x172;" horiz-adv-x="1433" 
d="M897 -473h-66q-118 0 -202 84t-84 203q0 93 47 161q-216 33 -332.5 176.5t-116.5 354.5v940h197v-940q0 -171 101.5 -273t275.5 -102q177 0 276 98.5t99 276.5v940h198v-940q0 -258 -153 -397t-406 -144q-72 -55 -72 -151q0 -77 51 -132t121 -55h66v-100z" />
    <glyph glyph-name="uogonek" unicode="&#x173;" horiz-adv-x="1062" 
d="M762 -186q0 -77 51 -132t121 -55h65v-100h-65q-118 0 -202.5 84.5t-84.5 202.5q0 69 30 129t83 98v119q-20 -69 -101 -127t-200 -58q-78 0 -151 31.5t-122 97.5q-45 61 -58 129t-13 205v549h182v-549q0 -106 8.5 -156t32.5 -83q21 -32 64.5 -55t107.5 -23
q60 0 102.5 22.5t79.5 67.5q41 50 53.5 111t12.5 194v471h180v-987q-73 0 -124.5 -54.5t-51.5 -131.5z" />
    <glyph glyph-name="Wcircumflex" unicode="&#x174;" horiz-adv-x="1984" 
d="M414 0l-398 1446h197l336 -1251l307 1251h274l308 -1251l334 1251h198l-399 -1446h-273l-305 1270l-305 -1270h-274zM647 1565l266 350h154l266 -350h-164l-178 243l-180 -243h-164z" />
    <glyph glyph-name="wcircumflex" unicode="&#x175;" horiz-adv-x="1525" 
d="M328 0l-312 987h183l237 -778l215 778h223l220 -778l237 778h180l-313 -987h-215l-221 782l-217 -782h-217zM420 1106l266 350h154l266 -350h-164l-178 244l-180 -244h-164z" />
    <glyph glyph-name="Ycircumflex" unicode="&#x176;" horiz-adv-x="1298" 
d="M549 0v672l-537 774h230l409 -617l420 617h221l-547 -774v-672h-196zM307 1565l266 350h154l266 -350h-164l-178 243l-180 -243h-164z" />
    <glyph glyph-name="ycircumflex" unicode="&#x177;" horiz-adv-x="950" 
d="M66 -469v158q50 -13 77 -13q135 0 172 103l74 201l-369 1007h189l274 -772l273 772h182l-463 -1278q-70 -188 -287 -188q-40 0 -122 10zM139 1106l267 350h153l266 -350h-163l-179 244l-180 -244h-164z" />
    <glyph glyph-name="Ydieresis" unicode="&#x178;" horiz-adv-x="1298" 
d="M549 0v672l-537 774h230l409 -617l420 617h221l-547 -774v-672h-196zM346 1628v215h207v-215h-207zM756 1628v215h207v-215h-207z" />
    <glyph glyph-name="Zacute" unicode="&#x179;" horiz-adv-x="1226" 
d="M51 0v190l844 1088h-811v168h1055v-168l-869 -1110h918v-168h-1137zM561 1565l141 350h191l-182 -350h-150z" />
    <glyph glyph-name="zacute" unicode="&#x17a;" horiz-adv-x="903" 
d="M43 0v164l569 678h-520v145h746v-139l-586 -701h598v-147h-807zM371 1106l141 350h190l-182 -350h-149z" />
    <glyph glyph-name="Zdotaccent" unicode="&#x17b;" horiz-adv-x="1226" 
d="M51 0v190l844 1088h-811v168h1055v-168l-869 -1110h918v-168h-1137zM530 1628v215h205v-215h-205z" />
    <glyph glyph-name="zdotaccent" unicode="&#x17c;" horiz-adv-x="903" 
d="M43 0v164l569 678h-520v145h746v-139l-586 -701h598v-147h-807zM346 1169v215h205v-215h-205z" />
    <glyph glyph-name="Zcaron" unicode="&#x17d;" horiz-adv-x="1226" 
d="M51 0v190l844 1088h-811v168h1055v-168l-869 -1110h918v-168h-1137zM557 1565l-266 350h164l180 -244l178 244h164l-266 -350h-154z" />
    <glyph glyph-name="zcaron" unicode="&#x17e;" horiz-adv-x="903" 
d="M43 0v164l569 678h-520v145h746v-139l-586 -701h598v-147h-807zM371 1106l-267 350h164l181 -244l178 244h164l-267 -350h-153z" />
    <glyph glyph-name="longs" unicode="&#x17f;" horiz-adv-x="432" 
d="M125 0v1174q0 294 262 294q88 0 129 -10v-147q-81 6 -82 6q-62 0 -94.5 -37t-32.5 -127v-1153h-182z" />
    <glyph glyph-name="uni018F" unicode="&#x18f;" horiz-adv-x="1236" 
d="M289 965l-193 55q10 62 34 123.5t67.5 123.5t100 109.5t138.5 77t176 29.5q140 0 245 -53.5t170 -154.5t96.5 -237.5t31.5 -310.5q0 -125 -22 -238.5t-67 -209t-108.5 -165.5t-151 -109.5t-190.5 -39.5q-169 0 -292 91.5t-184.5 250t-61.5 365.5q0 38 4 84h862
q-1 112 -17.5 206.5t-53 176.5t-102.5 129t-157 47q-55 0 -103.5 -19.5t-84.5 -52.5t-64 -78t-45.5 -95t-27.5 -105zM940 590h-643q0 -76 21.5 -155t60 -148t101 -112.5t136.5 -43.5q96 0 172 68.5t114 172t38 218.5z" />
    <glyph glyph-name="uni0190" unicode="&#x190;" horiz-adv-x="1273" 
d="M1024 471l203 -27q-12 -152 -96.5 -262.5t-210 -163.5t-275.5 -53q-136 0 -245.5 36t-178 98t-105 140.5t-36.5 166.5q0 127 76.5 223t230.5 133q-129 30 -200.5 120t-71.5 205q0 182 147 288t379 106q97 0 178.5 -18.5t139 -52t101 -73.5t71.5 -89t44.5 -93t24.5 -90
l-201 -33q-9 41 -21 75t-39 75t-64 69t-97.5 47t-136.5 19q-144 0 -235 -63.5t-91 -170.5q0 -109 88 -177t238 -68h207v-168h-211q-174 0 -265 -69.5t-91 -192.5q0 -115 99.5 -197t262.5 -82q165 0 268 86.5t113 255.5z" />
    <glyph glyph-name="florin" unicode="&#x192;" horiz-adv-x="690" 
d="M-63 -455l16 146q40 -13 74 -13q26 0 44.5 8.5t28.5 18.5t17 33.5t9 39t5 48.5l109 1016h-150l14 145h150l25 240q11 106 69 173.5t164 67.5q66 0 143 -24l-14 -144q-34 11 -74 11q-32 0 -53.5 -13t-32.5 -39t-15 -49t-7 -59l-17 -164h176l-14 -145h-178l-113 -1080
q-10 -104 -67.5 -172.5t-163.5 -68.5q-64 0 -145 24z" />
    <glyph glyph-name="uni0194" unicode="&#x194;" horiz-adv-x="1224" 
d="M606 -459q-119 0 -190.5 71t-71.5 179q0 81 29 165t123 286l-533 1204h203l444 -1020l459 1020h195l-547 -1194q93 -207 122 -292t29 -167q0 -110 -71.5 -181t-190.5 -71zM606 -307q38 0 60 31t22 79t-18.5 105t-63.5 168q-45 -111 -63.5 -168t-18.5 -105t22 -79t60 -31z
" />
    <glyph glyph-name="uni0197" unicode="&#x197;" horiz-adv-x="540" 
d="M29 680v135h143v631h197v-631h141v-135h-141v-680h-197v680h-143z" />
    <glyph glyph-name="uni019D" unicode="&#x19d;" horiz-adv-x="1544" 
d="M156 -172v1618h268l780 -1249v1249h185v-1446h-281l-768 1249v-1427q0 -73 -10.5 -123.5t-39 -93t-83 -63.5t-137.5 -21q-76 0 -127 10v154q61 -9 75 -9q46 0 75.5 13t42 38.5t16.5 47t4 53.5z" />
    <glyph glyph-name="uni01B5" unicode="&#x1b5;" horiz-adv-x="1249" 
d="M141 678v127h396l368 473h-811v168h1055v-168l-371 -473h324v-127h-422l-399 -510h917v-168h-1137v190l377 488h-297z" />
    <glyph glyph-name="uni01B6" unicode="&#x1b6;" horiz-adv-x="917" 
d="M102 446v119h285l234 277h-521v145h746v-139l-238 -283h193v-119h-291l-250 -299h598v-147h-807v164l238 282h-187z" />
    <glyph glyph-name="uni01CD" unicode="&#x1cd;" horiz-adv-x="1374" 
d="M2 0l559 1446h254l555 -1446h-213l-160 430h-622l-160 -430h-213zM434 592h504l-252 684zM610 1565l-266 350h164l180 -244l178 244h164l-266 -350h-154z" />
    <glyph glyph-name="uni01CE" unicode="&#x1ce;" horiz-adv-x="1009" 
d="M905 0h-182q-14 70 -14 143q-41 -86 -122 -127t-186 -41q-154 0 -244.5 83t-90.5 204q0 69 22 121t55.5 84.5t90 56.5t107 36.5t126.5 25.5q114 17 129 20q77 14 98 40.5t21 74.5q0 23 -9 46t-30 47.5t-64.5 40t-103.5 15.5q-100 0 -161 -52t-68 -156l-185 34
q24 135 123 219q118 97 291 97q383 0 383 -326v-450q0 -166 14 -236zM252 270q0 -65 52 -109t124 -44q31 0 64.5 6t73.5 23.5t71 44.5t51.5 75t20.5 109v129q-27 -12 -150 -37l-67 -12q-47 -9 -75 -16t-63.5 -21.5t-54.5 -32.5t-33 -47t-14 -68zM430 1106l-266 350h164
l180 -244l178 244h164l-266 -350h-154z" />
    <glyph glyph-name="uni01CF" unicode="&#x1cf;" horiz-adv-x="507" 
d="M156 0v1446h196v-1446h-196zM176 1565l-266 350h164l180 -244l178 244h164l-266 -350h-154z" />
    <glyph glyph-name="uni01D0" unicode="&#x1d0;" horiz-adv-x="432" 
d="M125 0v987h182v-987h-182zM137 1106l-266 350h164l180 -244l178 244h164l-266 -350h-154z" />
    <glyph glyph-name="uni01D1" unicode="&#x1d1;" horiz-adv-x="1525" 
d="M766 131q121 0 216 50t151.5 134t85 186.5t28.5 215.5q0 91 -17.5 176t-55.5 162.5t-93 134.5t-136 91t-179 34q-99 0 -181 -34t-138 -91t-94.5 -134t-56 -162.5t-17.5 -176.5q0 -90 17.5 -173.5t56 -159t94.5 -131.5t138 -89t181 -33zM766 -35q-140 0 -256 42t-195 114
t-134 168.5t-80 204t-25 223.5t25 225t80 207.5t134 172t195 116.5t256 43q139 0 254 -43t193.5 -116.5t132.5 -172t79 -207.5t25 -225t-25 -223.5t-79 -204t-132.5 -168.5t-193.5 -114t-254 -42zM688 1565l-266 350h164l180 -244l178 244h164l-266 -350h-154z" />
    <glyph glyph-name="uni01D2" unicode="&#x1d2;" horiz-adv-x="1087" 
d="M545 121q57 0 105.5 21.5t81.5 58t56.5 84.5t34.5 100.5t11 106.5q0 55 -11 107.5t-34.5 101t-56.5 85t-81.5 58.5t-105.5 22q-72 0 -129.5 -33t-92 -87.5t-53 -119.5t-18.5 -134q0 -93 30.5 -175t99 -139t163.5 -57zM545 -25q-90 0 -168 29.5t-134 80t-96 116.5
t-59.5 140.5t-19.5 150.5q0 97 32 189t90 166t150.5 119.5t204.5 45.5q111 0 203 -45.5t150.5 -119.5t90 -166t31.5 -189q0 -96 -32 -187.5t-90 -165.5t-150 -119t-203 -45zM469 1106l-266 350h164l180 -244l178 244h164l-266 -350h-154z" />
    <glyph glyph-name="uni01D3" unicode="&#x1d3;" horiz-adv-x="1433" 
d="M143 506v940h197v-940q0 -171 101.5 -273t275.5 -102q177 0 276 98.5t99 276.5v940h198v-940q0 -132 -42.5 -236t-119.5 -170t-181 -100.5t-230 -34.5q-274 0 -424 150.5t-150 390.5zM639 1565l-266 350h164l180 -244l178 244h164l-266 -350h-154z" />
    <glyph glyph-name="uni01D4" unicode="&#x1d4;" horiz-adv-x="1062" 
d="M115 438v549h182v-549q0 -106 8.5 -156t32.5 -83q21 -32 64.5 -55t107.5 -23q60 0 102.5 22.5t79.5 67.5q41 50 53.5 111t12.5 194v471h180v-987h-178v160q-20 -69 -101 -127t-200 -58q-78 0 -151 31.5t-122 97.5q-45 61 -58 129t-13 205zM451 1106l-267 350h164
l180 -244l179 244h163l-266 -350h-153z" />
    <glyph glyph-name="Gcaron" unicode="&#x1e6;" horiz-adv-x="1482" 
d="M1200 0v209q-139 -244 -446 -244q-160 0 -290.5 60t-214.5 164t-129.5 241t-45.5 293q0 152 47 288.5t133 241.5t217.5 166.5t290.5 61.5q217 0 370 -110t226 -290l-197 -43q-55 126 -155.5 201.5t-243.5 75.5q-149 0 -261.5 -83.5t-168.5 -216.5t-56 -292
q0 -121 31 -226.5t90 -188t153 -130t212 -47.5q62 0 119.5 15t115 51.5t100 91t70 140.5t29.5 194h-461v165h649v-788h-184zM684 1565l-266 350h164l180 -244l178 244h164l-266 -350h-154z" />
    <glyph glyph-name="gcaron" unicode="&#x1e7;" horiz-adv-x="1122" 
d="M111 -133l192 35q8 -103 75.5 -170.5t170.5 -67.5q139 0 203.5 86t64.5 225v175q-33 -68 -121 -117t-182 -49q-113 0 -201 43t-140 116t-78.5 162t-26.5 189q0 64 12.5 130t45.5 137t83 125.5t132.5 90t186.5 35.5q91 0 177.5 -52.5t117.5 -123.5v151h174v-1016
q0 -214 -113 -333t-335 -119q-177 0 -297.5 95t-140.5 253zM539 129q36 0 71.5 9.5t74 35.5t67.5 65.5t48 106t19 150.5t-18.5 151t-46.5 107t-64.5 66.5t-70 36t-66.5 9.5q-80 0 -141 -35t-94.5 -91t-49.5 -117t-16 -123q0 -103 32 -186t98 -134t157 -51zM512 1106
l-266 350h164l180 -244l178 244h164l-266 -350h-154z" />
    <glyph glyph-name="uni01E8" unicode="&#x1e8;" horiz-adv-x="1288" 
d="M156 0v1446h196v-645l643 645h254l-688 -674l782 -772h-266l-725 721v-721h-196zM567 1565l-266 350h164l180 -244l178 244h164l-266 -350h-154z" />
    <glyph glyph-name="uni01E9" unicode="&#x1e9;" horiz-adv-x="1009" 
d="M125 0v1446h182v-873l430 414h236l-475 -442l557 -545h-236l-512 489v-489h-182zM137 1565l-266 350h164l180 -244l178 244h164l-266 -350h-154z" />
    <glyph glyph-name="uni01EA" unicode="&#x1ea;" horiz-adv-x="1525" 
d="M944 -473h-65q-119 0 -203 84.5t-84 202.5q0 87 49 161q-142 21 -253 91.5t-177.5 173.5t-100.5 224t-34 253q0 116 25 225t80 207.5t134 172t195 116.5t256 43q139 0 254 -43t193.5 -116.5t132.5 -172t79 -207.5t25 -225q0 -114 -24.5 -220.5t-77.5 -203t-130 -168
t-190.5 -115t-249.5 -45.5q-71 -54 -71 -151q0 -77 51 -132t121 -55h65v-100zM766 131q121 0 216 50t151.5 134t85 186.5t28.5 215.5q0 91 -17.5 176t-55.5 162.5t-93 134.5t-136 91t-179 34q-99 0 -181 -34t-138 -91t-94.5 -134t-56 -162.5t-17.5 -176.5q0 -90 17.5 -173.5
t56 -159t94.5 -131.5t138 -89t181 -33z" />
    <glyph glyph-name="uni01EB" unicode="&#x1eb;" horiz-adv-x="1087" 
d="M723 -473h-66q-118 0 -202 84t-84 203q0 98 59 176q-86 20 -156 70.5t-114 119t-68 149t-24 163.5q0 97 32 189t90 166t150.5 119.5t204.5 45.5q111 0 203 -45.5t150.5 -119.5t90 -166t31.5 -189q0 -93 -30 -182t-85 -162t-142 -120t-192 -53q-39 -25 -62.5 -67.5
t-23.5 -93.5q0 -77 51 -132t121 -55h66v-100zM545 121q57 0 105.5 21.5t81.5 58t56.5 84.5t34.5 100.5t11 106.5q0 55 -11 107.5t-34.5 101t-56.5 85t-81.5 58.5t-105.5 22q-72 0 -129.5 -33t-92 -87.5t-53 -119.5t-18.5 -134q0 -93 30.5 -175t99 -139t163.5 -57z" />
    <glyph glyph-name="uni01F8" unicode="&#x1f8;" horiz-adv-x="1546" 
d="M156 0v1446h270l780 -1249v1249h185v-1446h-285l-766 1247v-1247h-184zM700 1565l-182 350h191l141 -350h-150z" />
    <glyph glyph-name="uni01F9" unicode="&#x1f9;" horiz-adv-x="1067" 
d="M125 0v987h178v-160q20 69 104 127t203 58q78 0 151 -31.5t122 -97.5q45 -61 57 -128t12 -206v-549h-180v549q0 106 -8.5 156t-32.5 83q-20 31 -64.5 54.5t-107.5 23.5q-117 0 -188 -90q-38 -49 -51 -114.5t-13 -190.5v-471h-182zM467 1106l-182 350h190l141 -350h-149z
" />
    <glyph glyph-name="Aringacute" unicode="&#x1fa;" horiz-adv-x="1374" 
d="M2 0l557 1440q-34 25 -54 64.5t-20 84.5q0 83 58.5 142t140.5 59t140.5 -59t58.5 -142q0 -87 -68 -145l555 -1444h-213l-160 430h-622l-160 -430h-213zM434 592h504l-252 684zM684 1481q46 0 78.5 32t32.5 76q0 46 -32.5 78.5t-78.5 32.5t-78.5 -32.5t-32.5 -78.5
q0 -44 32.5 -76t78.5 -32zM618 1853l216 273h190l-258 -273h-148z" />
    <glyph glyph-name="aringacute" unicode="&#x1fb;" horiz-adv-x="1009" 
d="M502 1184q44 0 76 32t32 76q0 46 -32 78.5t-76 32.5q-46 0 -78.5 -32.5t-32.5 -78.5q0 -44 32.5 -76t78.5 -32zM502 1094q-83 0 -142 58t-59 140q0 83 59 141t142 58q82 0 140 -58t58 -141q0 -82 -58 -140t-140 -58zM414 1556l215 271h190l-260 -271h-145zM905 0h-182
q-14 70 -14 143q-41 -86 -122 -127t-186 -41q-154 0 -244.5 83t-90.5 204q0 69 22 121t55.5 84.5t90 56.5t107 36.5t126.5 25.5q114 17 129 20q77 14 98 40.5t21 74.5q0 23 -9 46t-30 47.5t-64.5 40t-103.5 15.5q-100 0 -161 -52t-68 -156l-185 34q16 104 96 193
q55 59 138.5 91t179.5 32q383 0 383 -326v-450q0 -166 14 -236zM252 270q0 -65 52 -109t124 -44q31 0 64.5 6t73.5 23.5t71 44.5t51.5 75t20.5 109v129q-27 -12 -150 -37l-67 -12q-47 -9 -75 -16t-63.5 -21.5t-54.5 -32.5t-33 -47t-14 -68z" />
    <glyph glyph-name="AEacute" unicode="&#x1fc;" horiz-adv-x="1916" 
d="M-29 0l891 1446h953v-166h-658v-451h631v-165h-631v-498h676v-166h-875v512h-448l-307 -512h-232zM614 682h344v575zM1264 1565l141 350h190l-182 -350h-149z" />
    <glyph glyph-name="aeacute" unicode="&#x1fd;" horiz-adv-x="1662" 
d="M279 662l-185 34q16 104 96 193q55 59 137 91t177 32q115 0 196.5 -40t126.5 -108q125 148 322 148q105 0 191 -41.5t141 -113t84.5 -165.5t29.5 -200q0 -9 -1 -24t-1 -19h-706q0 -149 67 -240.5t209 -91.5q55 0 99.5 19.5t73 51.5t46 67t25.5 73l174 -37
q-16 -77 -70.5 -148t-147 -119.5t-198.5 -48.5q-124 0 -219 56t-153 153q-53 -106 -149 -157.5t-243 -51.5q-152 0 -243.5 90.5t-91.5 210.5q0 314 520 314h121v82q0 79 -51.5 138.5t-151.5 59.5q-99 0 -158.5 -52t-66.5 -156zM700 375v74h-129q-170 0 -244.5 -41
t-74.5 -123q0 -75 51.5 -120.5t128.5 -45.5q43 0 86 12t85.5 39t69.5 80t27 125zM889 590h516q0 108 -69 194t-187 86q-120 0 -190 -80.5t-70 -199.5zM748 1106l141 350h190l-182 -350h-149z" />
    <glyph glyph-name="Oslashacute" unicode="&#x1fe;" horiz-adv-x="1538" 
d="M82 0l166 199q-82 103 -124 238t-42 280q0 116 25 225t80 207.5t134 172t195 116.5t256 43q258 0 430 -146l92 111h162l-168 -201q84 -104 126 -242t42 -286q0 -116 -25 -223.5t-79 -204t-132.5 -168.5t-193.5 -114t-254 -42q-261 0 -438 146l-92 -111h-160zM772 131
q121 0 216 50t151.5 134t85 186.5t28.5 215.5q0 214 -94 377l-706 -842q128 -121 319 -121zM285 717q0 -214 90 -367l706 844q-124 121 -309 121q-99 0 -181 -34t-138 -91t-94.5 -134t-56 -162.5t-17.5 -176.5zM698 1565l142 350h190l-182 -350h-150z" />
    <glyph glyph-name="oslashacute" unicode="&#x1ff;" horiz-adv-x="1097" 
d="M47 0l135 154q-108 140 -108 338q0 97 32 189t90 166t150.5 119.5t204.5 45.5q164 0 287 -101l65 76h146l-134 -156q111 -148 111 -339q0 -96 -32 -187.5t-90 -165.5t-150 -119t-203 -45q-167 0 -293 101l-65 -76h-146zM301 291l432 500q-75 75 -182 75q-72 0 -129.5 -33
t-92 -87.5t-53 -119.5t-18.5 -134q0 -114 43 -201zM795 694l-433 -497q76 -76 189 -76q57 0 105.5 21.5t81.5 58t56.5 84.5t34.5 100.5t11 106.5q0 113 -45 202zM473 1106l141 350h191l-182 -350h-150z" />
    <glyph glyph-name="uni0218" unicode="&#x218;" horiz-adv-x="1282" 
d="M57 442l203 33q9 -166 117.5 -255t263.5 -89q171 0 274 74.5t103 187.5q0 48 -16 85t-39 60t-65 42t-76 28.5t-91 22.5l-139 31q-58 13 -94.5 22t-88.5 24t-85.5 30.5t-73.5 38t-64.5 50t-47 62t-32.5 79t-10 97.5q0 188 150 302t397 114q100 0 183.5 -22t143 -59.5
t104.5 -90.5t71.5 -113t40.5 -129l-203 -37q-18 98 -69 163.5t-119 93.5t-152 28q-97 0 -173 -25.5t-124.5 -83t-48.5 -141.5q0 -35 12 -63.5t37.5 -49.5t52 -36.5t70 -29.5t74.5 -22t82 -20l155 -35q76 -17 132.5 -35.5t118 -51t100.5 -73t64.5 -104t25.5 -142.5
q0 -194 -161.5 -316t-422.5 -122q-231 0 -390.5 123t-189.5 354zM477 -465l76 352h182l-141 -352h-117z" />
    <glyph glyph-name="uni0219" unicode="&#x219;" horiz-adv-x="962" 
d="M51 309l189 41q6 -108 67 -170.5t172 -62.5q100 0 167 41t67 121q0 32 -14 56.5t-30.5 38t-48.5 25t-48.5 15.5t-49.5 10l-116 22q-37 7 -58 12t-59.5 17t-62 24t-53.5 34.5t-46.5 48.5t-28.5 64t-12 83q0 115 103.5 199t291.5 84q146 0 256 -81.5t137 -228.5l-176 -34
q-13 97 -63.5 149.5t-161.5 52.5q-103 0 -156 -43.5t-53 -95.5q0 -105 205 -141l78 -15q42 -8 70 -14t68.5 -18t68 -26t57.5 -36t48 -48.5t30 -64.5t12 -83q0 -95 -58 -167t-153 -107.5t-211 -35.5q-81 0 -151 21.5t-118 56t-83.5 79t-53.5 89.5t-22 88zM317 -465l76 352
h182l-141 -352h-117z" />
    <glyph glyph-name="uni021A" unicode="&#x21a;" horiz-adv-x="1159" 
d="M479 0v1280h-459v166h1119v-166h-461v-1280h-199zM416 -465l76 352h182l-142 -352h-116z" />
    <glyph glyph-name="uni021B" unicode="&#x21b;" horiz-adv-x="636" 
d="M207 219v623h-191v145h191v326h182v-326h209v-145h-209v-580q0 -68 27.5 -96.5t83.5 -28.5q46 0 98 10v-145q-77 -16 -141 -16q-119 0 -184.5 58t-65.5 175zM227 -465l76 352h182l-141 -352h-117z" />
    <glyph glyph-name="uni021E" unicode="&#x21e;" horiz-adv-x="1478" 
d="M156 0v1446h196v-615h770v615h201v-1446h-201v666h-770v-666h-196zM659 1565l-266 350h164l180 -244l178 244h164l-266 -350h-154z" />
    <glyph glyph-name="uni021F" unicode="&#x21f;" horiz-adv-x="1071" 
d="M125 0v1446h178v-623q22 71 106.5 130t204.5 59q171 0 271 -133q45 -60 58 -127t13 -203v-549h-182v549q0 105 -8 155.5t-31 83.5q-56 78 -172 78t-190 -90q-41 -51 -54.5 -112.5t-13.5 -192.5v-471h-180zM133 1565l-266 350h164l180 -244l178 244h164l-266 -350h-154z
" />
    <glyph glyph-name="uni022E" unicode="&#x22e;" horiz-adv-x="1525" 
d="M766 131q121 0 216 50t151.5 134t85 186.5t28.5 215.5q0 91 -17.5 176t-55.5 162.5t-93 134.5t-136 91t-179 34q-99 0 -181 -34t-138 -91t-94.5 -134t-56 -162.5t-17.5 -176.5q0 -90 17.5 -173.5t56 -159t94.5 -131.5t138 -89t181 -33zM766 -35q-140 0 -256 42t-195 114
t-134 168.5t-80 204t-25 223.5t25 225t80 207.5t134 172t195 116.5t256 43q139 0 254 -43t193.5 -116.5t132.5 -172t79 -207.5t25 -225t-25 -223.5t-79 -204t-132.5 -168.5t-193.5 -114t-254 -42zM662 1628v215h204v-215h-204z" />
    <glyph glyph-name="uni022F" unicode="&#x22f;" horiz-adv-x="1087" 
d="M545 121q57 0 105.5 21.5t81.5 58t56.5 84.5t34.5 100.5t11 106.5q0 55 -11 107.5t-34.5 101t-56.5 85t-81.5 58.5t-105.5 22q-72 0 -129.5 -33t-92 -87.5t-53 -119.5t-18.5 -134q0 -93 30.5 -175t99 -139t163.5 -57zM545 -25q-90 0 -168 29.5t-134 80t-96 116.5
t-59.5 140.5t-19.5 150.5q0 97 32 189t90 166t150.5 119.5t204.5 45.5q111 0 203 -45.5t150.5 -119.5t90 -166t31.5 -189q0 -96 -32 -187.5t-90 -165.5t-150 -119t-203 -45zM444 1169v215h205v-215h-205z" />
    <glyph glyph-name="uni0232" unicode="&#x232;" horiz-adv-x="1298" 
d="M549 0v672l-537 774h230l409 -617l420 617h221l-547 -774v-672h-196zM344 1671v150h617v-150h-617z" />
    <glyph glyph-name="uni0233" unicode="&#x233;" horiz-adv-x="950" 
d="M66 -469v158q50 -13 77 -13q135 0 172 103l74 201l-369 1007h189l274 -772l273 772h182l-463 -1278q-70 -188 -287 -188q-40 0 -122 10zM174 1212v150h617v-150h-617z" />
    <glyph glyph-name="uni0237" unicode="&#x237;" horiz-adv-x="442" 
d="M-80 -469v154q61 -9 76 -9q46 0 76 13.5t43 38t17.5 47t4.5 53.5v1159h180v-1165q0 -73 -10.5 -123t-38.5 -93t-83 -64t-138 -21q-76 0 -127 10z" />
    <glyph glyph-name="uni0244" unicode="&#x244;" horiz-adv-x="1460" 
d="M35 680v135h123v631h196v-631h752v631h197v-631h122v-135h-122v-174q0 -132 -42.5 -236t-119 -170t-180.5 -100.5t-230 -34.5q-184 0 -315.5 71.5t-194.5 192t-63 277.5v174h-123zM731 129q177 0 276 99.5t99 277.5v174h-752v-174q0 -172 101 -274.5t276 -102.5z" />
    <glyph glyph-name="uni0259" unicode="&#x259;" horiz-adv-x="1040" 
d="M256 659l-174 37q11 53 45 107t85 101.5t126 77.5t158 30q97 0 176.5 -28t134.5 -76.5t92.5 -115t54.5 -140.5t17 -156q0 -103 -29.5 -195.5t-85 -166t-143 -116.5t-195.5 -43q-140 0 -243 69.5t-155 187t-52 268.5q0 31 2 39h716q-1 63 -17.5 120.5t-49 105.5t-88 76.5
t-127.5 28.5q-56 0 -102 -19t-74.5 -51.5t-46 -67.5t-25.5 -73zM782 397h-526q0 -110 70 -195t192 -85q123 0 193.5 80t70.5 200z" />
    <glyph glyph-name="uni025B" unicode="&#x25b;" horiz-adv-x="944" 
d="M891 313q-10 -83 -47.5 -148t-94.5 -105.5t-127 -61.5t-147 -21q-185 0 -294 82.5t-109 210.5q0 83 54 151.5t148 78.5q-82 18 -131 84.5t-49 134.5q0 135 112.5 214t272.5 79q159 0 268.5 -82t133.5 -228l-174 -32q-22 200 -228 200q-89 0 -144.5 -42t-55.5 -113
q0 -68 53 -108t145 -40h133v-133h-137q-219 0 -219 -151q0 -74 58.5 -120t164.5 -46q103 0 168.5 61t77.5 168z" />
    <glyph glyph-name="uni0263" unicode="&#x263;" horiz-adv-x="917" 
d="M930 987l-369 -825q79 -184 104 -259t25 -139q0 -96 -64 -158.5t-169 -62.5q-107 0 -171.5 62.5t-64.5 156.5q0 67 26 145.5t103 250.5l-360 829h184l285 -661l291 661h180zM455 14q-72 -177 -72 -247q0 -41 20 -67t52 -26t51.5 26t19.5 67q0 80 -71 247z" />
    <glyph glyph-name="uni0268" unicode="&#x268;" horiz-adv-x="460" 
d="M37 500v121h104v366h178v-366h105v-121h-105v-500h-178v500h-104zM141 1243v203h178v-203h-178z" />
    <glyph glyph-name="uni0272" unicode="&#x272;" horiz-adv-x="1064" 
d="M33 -479q-69 0 -125 12v150q61 -9 80 -9q137 0 137 160v1153h176v-160q17 68 102 126.5t205 58.5q176 0 273 -129q44 -59 56.5 -127t12.5 -209v-547h-180v547q0 108 -8.5 158.5t-32.5 85.5q-20 30 -64.5 52.5t-107.5 22.5q-116 0 -190 -90q-38 -49 -51 -114.5t-13 -192.5
v-643q0 -74 -11.5 -126t-41 -94.5t-83.5 -63.5t-134 -21z" />
    <glyph glyph-name="uni0289" unicode="&#x289;" horiz-adv-x="1101" 
d="M37 500v121h104v366h178v-366h463v366h179v-366h104v-121h-104v-500h-177v160q-20 -69 -101 -127t-200 -58q-175 0 -272 129q-45 60 -57.5 128t-12.5 208v60h-104zM717 211q39 48 51 106t14 183h-463v-60q0 -105 9 -156t32 -87q20 -31 64.5 -53.5t107.5 -22.5
q62 0 105 22.5t80 67.5z" />
    <glyph glyph-name="circumflex" unicode="&#x2c6;" horiz-adv-x="890" 
d="M102 1106l267 350h153l266 -350h-163l-179 244l-180 -244h-164z" />
    <glyph glyph-name="caron" unicode="&#x2c7;" horiz-adv-x="890" 
d="M369 1106l-267 350h164l180 -244l179 244h163l-266 -350h-153z" />
    <glyph glyph-name="uni02C9" unicode="&#x2c9;" horiz-adv-x="432" 
d="M-92 1212v150h616v-150h-616z" />
    <glyph glyph-name="breve" unicode="&#x2d8;" horiz-adv-x="813" 
d="M102 1397v47h144v-47q0 -83 40 -134t120 -51t120.5 51.5t40.5 133.5v47h144v-47q0 -140 -86.5 -225t-218.5 -85t-218 85t-86 225z" />
    <glyph glyph-name="dotaccent" unicode="&#x2d9;" horiz-adv-x="409" 
d="M102 1169v215h205v-215h-205z" />
    <glyph glyph-name="ring" unicode="&#x2da;" horiz-adv-x="604" 
d="M303 1184q44 0 76.5 32t32.5 76q0 46 -32.5 78.5t-76.5 32.5q-46 0 -78 -32.5t-32 -78.5q0 -44 32 -76t78 -32zM303 1094q-83 0 -142 58t-59 140q0 83 59 141t142 58q82 0 140.5 -58t58.5 -141q0 -82 -58.5 -140t-140.5 -58z" />
    <glyph glyph-name="ogonek" unicode="&#x2db;" horiz-adv-x="548" 
d="M455 -473h-66q-119 0 -203 84.5t-84 202.5q0 115 80 198h207v-12q-71 0 -121.5 -55t-50.5 -131q0 -77 51 -132t121 -55h66v-100z" />
    <glyph glyph-name="tilde" unicode="&#x2dc;" horiz-adv-x="821" 
d="M102 1149v174q82 74 170 74q13 0 27.5 -2t25 -4t27.5 -7t24 -7.5t27 -9.5t25 -9q10 -3 31.5 -10.5t33.5 -11.5t28.5 -7.5t29.5 -3.5q91 0 168 102v-174q-34 -32 -81 -53.5t-91 -21.5q-50 0 -146 34q-11 4 -34 12.5t-35.5 12.5t-31 8t-34.5 4q-89 0 -164 -100z" />
    <glyph glyph-name="hungarumlaut" unicode="&#x2dd;" horiz-adv-x="802" 
d="M102 1106l142 350h190l-182 -350h-150zM369 1106l141 350h190l-182 -350h-149z" />
    <glyph glyph-name="gravecomb" unicode="&#x300;" horiz-adv-x="0" 
d="M-414 1106l-182 350h190l142 -350h-150z" />
    <glyph glyph-name="acutecomb" unicode="&#x301;" horiz-adv-x="0" 
d="M-596 1106l141 350h191l-182 -350h-150z" />
    <glyph glyph-name="uni0302" unicode="&#x302;" horiz-adv-x="0" 
d="M-772 1106l266 350h154l266 -350h-164l-178 244l-180 -244h-164z" />
    <glyph glyph-name="tildecomb" unicode="&#x303;" horiz-adv-x="0" 
d="M-737 1149v174q82 74 170 74q16 0 30.5 -1.5t34.5 -7.5t27.5 -8t34 -11.5t28.5 -10.5q10 -3 31.5 -10.5t33.5 -11.5t28.5 -7.5t29.5 -3.5q91 0 168 102v-174q-34 -32 -81 -53.5t-91 -21.5q-49 0 -145 34q-11 4 -34 12.5t-35.5 12.5t-31 8t-34.5 4q-89 0 -164 -100z" />
    <glyph glyph-name="uni0304" unicode="&#x304;" horiz-adv-x="0" 
d="M-737 1212v150h616v-150h-616z" />
    <glyph glyph-name="uni0306" unicode="&#x306;" horiz-adv-x="0" 
d="M-733 1397v47h143v-47q0 -83 40 -134t120 -51t121 51.5t41 133.5v47h143v-47q0 -140 -86.5 -225t-218.5 -85q-131 0 -217 85t-86 225z" />
    <glyph glyph-name="uni0307" unicode="&#x307;" horiz-adv-x="0" 
d="M-532 1169v215h204v-215h-204z" />
    <glyph glyph-name="uni0308" unicode="&#x308;" horiz-adv-x="0" 
d="M-737 1169v215h207v-215h-207zM-328 1169v215h207v-215h-207z" />
    <glyph glyph-name="uni030A" unicode="&#x30a;" horiz-adv-x="0" 
d="M-428 1184q44 0 76.5 32t32.5 76q0 46 -32.5 78.5t-76.5 32.5q-46 0 -78.5 -32.5t-32.5 -78.5q0 -44 32.5 -76t78.5 -32zM-428 1094q-83 0 -142 58t-59 140q0 83 59 141t142 58q82 0 140.5 -58t58.5 -141q0 -82 -58.5 -140t-140.5 -58z" />
    <glyph glyph-name="uni030B" unicode="&#x30b;" horiz-adv-x="0" 
d="M-729 1106l141 350h191l-183 -350h-149zM-463 1106l141 350h191l-182 -350h-150z" />
    <glyph glyph-name="uni030C" unicode="&#x30c;" horiz-adv-x="0" 
d="M-506 1106l-266 350h164l180 -244l178 244h164l-266 -350h-154z" />
    <glyph glyph-name="uni0312" unicode="&#x312;" horiz-adv-x="0" 
d="M-561 1106l143 350h119l-78 -350h-184z" />
    <glyph glyph-name="uni0313" unicode="&#x313;" horiz-adv-x="0" 
d="M-557 1106l74 350h182l-139 -350h-117z" />
    <glyph glyph-name="uni0323" unicode="&#x323;" horiz-adv-x="0" 
d="M-305 -326v215h205v-215h-205z" />
    <glyph glyph-name="uni0326" unicode="&#x326;" horiz-adv-x="0" 
d="M-559 -465l76 352h182l-141 -352h-117z" />
    <glyph glyph-name="uni0327" unicode="&#x327;" horiz-adv-x="0" 
d="M-455 -473v100h66q46 0 75 23.5t29 66.5q0 39 -29.5 61.5t-74.5 22.5h-66v211h107v-112q79 -6 128.5 -54.5t49.5 -128.5q0 -89 -60.5 -139.5t-152.5 -50.5h-72z" />
    <glyph glyph-name="uni0328" unicode="&#x328;" horiz-adv-x="0" 
d="M-250 -473h-65q-119 0 -203 84.5t-84 202.5q0 115 80 198h207v-12q-71 0 -121.5 -55t-50.5 -131q0 -77 51 -132t121 -55h65v-100z" />
    <glyph glyph-name="uni032E" unicode="&#x32e;" horiz-adv-x="0" 
d="M-713 -160v47h144v-47q0 -83 39.5 -133.5t119.5 -50.5t121 51t41 133v47h144v-47q0 -140 -87 -224.5t-219 -84.5t-217.5 84.5t-85.5 224.5z" />
    <glyph glyph-name="uni0331" unicode="&#x331;" horiz-adv-x="0" 
d="M-737 -262v149h616v-149h-616z" />
    <glyph glyph-name="anoteleia" unicode="&#x387;" horiz-adv-x="475" 
d="M96 668q0 58 41.5 99.5t100.5 41.5q58 0 99.5 -41.5t41.5 -99.5t-41 -99t-100 -41t-100.5 41t-41.5 99z" />
    <glyph glyph-name="uni0394" unicode="&#x394;" horiz-adv-x="1243" 
d="M29 0v109l503 1337h185l497 -1337v-109h-1185zM238 174h768l-381 1020z" />
    <glyph glyph-name="uni03A9" unicode="&#x3a9;" horiz-adv-x="1441" 
d="M78 0v158h276q-248 252 -248 614q0 159 48 293t131 224.5t195.5 141t240.5 50.5t240.5 -50.5t195 -141t130.5 -224.5t48 -293q0 -364 -250 -614h279v-158h-518v123q129 83 217 249.5t88 387.5q0 248 -116.5 405.5t-313.5 157.5q-132 0 -230.5 -73.5t-149 -200
t-50.5 -289.5q0 -221 88 -387.5t217 -249.5v-123h-518z" />
    <glyph glyph-name="uni03BC" unicode="&#x3bc;" horiz-adv-x="1071" 
d="M125 -457v1444h180v-575q0 -51 4 -90t17.5 -78.5t36 -65t62 -41.5t93.5 -16q69 0 118.5 27.5t77 76.5t40 107t12.5 127v528h180v-987h-178v158q-20 -67 -100 -125t-187 -58q-101 0 -176 54v-486h-180z" />
    <glyph glyph-name="pi" unicode="&#x3c0;" horiz-adv-x="1075" 
d="M381 840l-2 -840h-180v840h-174v147h1028v-147h-179v-840h-178v840h-315z" />
    <glyph glyph-name="uni1E02" unicode="&#x1e02;" horiz-adv-x="1363" 
d="M156 0v1446h622q205 0 331 -101.5t126 -281.5q0 -69 -25 -128t-64.5 -97t-83 -60.5t-85.5 -27.5q150 -22 231.5 -109t81.5 -233q0 -109 -41 -189.5t-115.5 -127.5t-169 -69t-212.5 -22h-596zM352 166h422q148 0 230.5 59t82.5 181q0 128 -86.5 192t-271.5 64h-377v-496z
M352 827h365q48 0 91.5 6.5t85 23.5t71.5 42.5t48.5 66.5t18.5 93q0 108 -76.5 164.5t-191.5 56.5h-412v-453zM582 1628v215h204v-215h-204z" />
    <glyph glyph-name="uni1E03" unicode="&#x1e03;" horiz-adv-x="1130" 
d="M125 0v1446h182v-602q33 70 119 119t186 49q95 0 172.5 -31.5t128.5 -83.5t85.5 -120.5t49.5 -139t15 -143.5q0 -49 -9.5 -102.5t-29.5 -113.5t-56.5 -113t-85.5 -96t-122.5 -68.5t-161.5 -25.5q-92 0 -179 52.5t-118 124.5v-152h-176zM584 121q76 0 135 33t93 88
t50.5 118.5t16.5 131.5q0 169 -80 271.5t-215 102.5q-35 0 -70 -9.5t-74 -35.5t-68.5 -66t-49 -107.5t-19.5 -153.5t20 -154t50 -108t69 -66t74 -35.5t68 -9.5zM512 1169v215h205v-215h-205z" />
    <glyph glyph-name="uni1E0A" unicode="&#x1e0a;" horiz-adv-x="1460" 
d="M352 166h262q124 0 221.5 29.5t161.5 80t105.5 122.5t59.5 152t18 173t-18 173t-59.5 152t-105.5 122.5t-161.5 80t-221.5 29.5h-262v-1114zM156 0v1446h473q115 0 219.5 -22.5t203.5 -76t171 -134t115.5 -206.5t43.5 -284t-43.5 -284t-115.5 -206.5t-171 -134
t-203.5 -76t-219.5 -22.5h-473zM602 1628v215h205v-215h-205z" />
    <glyph glyph-name="uni1E0B" unicode="&#x1e0b;" horiz-adv-x="1132" 
d="M831 0v150q-29 -72 -120 -123.5t-189 -51.5q-100 0 -180.5 35t-130 89.5t-83 125t-47 137t-13.5 130.5q0 69 14.5 138t49.5 138.5t86.5 123t132 87t179.5 33.5q93 0 178.5 -50.5t118.5 -119.5v604h181v-1446h-177zM549 121q35 0 70 9.5t74 35.5t68.5 66t48.5 107t19 153
t-19 154t-48 108t-67 66.5t-72 36t-66 9.5q-76 0 -136 -32t-96 -86t-54.5 -119t-18.5 -135q0 -49 10 -99t33 -99.5t56.5 -88t84.5 -62.5t113 -24zM406 1169v215h204v-215h-204z" />
    <glyph glyph-name="uni1E0C" unicode="&#x1e0c;" horiz-adv-x="1460" 
d="M352 166h262q124 0 221.5 29.5t161.5 80t105.5 122.5t59.5 152t18 173t-18 173t-59.5 152t-105.5 122.5t-161.5 80t-221.5 29.5h-262v-1114zM156 0v1446h473q115 0 219.5 -22.5t203.5 -76t171 -134t115.5 -206.5t43.5 -284t-43.5 -284t-115.5 -206.5t-171 -134
t-203.5 -76t-219.5 -22.5h-473zM522 -326v215h205v-215h-205z" />
    <glyph glyph-name="uni1E0D" unicode="&#x1e0d;" horiz-adv-x="1132" 
d="M831 0v150q-29 -72 -120 -123.5t-189 -51.5q-100 0 -180.5 35t-130 89.5t-83 125t-47 137t-13.5 130.5q0 69 14.5 138t49.5 138.5t86.5 123t132 87t179.5 33.5q93 0 178.5 -50.5t118.5 -119.5v604h181v-1446h-177zM549 121q35 0 70 9.5t74 35.5t68.5 66t48.5 107t19 153
t-19 154t-48 108t-67 66.5t-72 36t-66 9.5q-76 0 -136 -32t-96 -86t-54.5 -119t-18.5 -135q0 -49 10 -99t33 -99.5t56.5 -88t84.5 -62.5t113 -24zM449 -326v215h204v-215h-204z" />
    <glyph glyph-name="uni1E0E" unicode="&#x1e0e;" horiz-adv-x="1460" 
d="M352 166h262q124 0 221.5 29.5t161.5 80t105.5 122.5t59.5 152t18 173t-18 173t-59.5 152t-105.5 122.5t-161.5 80t-221.5 29.5h-262v-1114zM156 0v1446h473q115 0 219.5 -22.5t203.5 -76t171 -134t115.5 -206.5t43.5 -284t-43.5 -284t-115.5 -206.5t-171 -134
t-203.5 -76t-219.5 -22.5h-473zM307 -262v149h617v-149h-617z" />
    <glyph glyph-name="uni1E0F" unicode="&#x1e0f;" horiz-adv-x="1132" 
d="M831 0v150q-29 -72 -120 -123.5t-189 -51.5q-100 0 -180.5 35t-130 89.5t-83 125t-47 137t-13.5 130.5q0 69 14.5 138t49.5 138.5t86.5 123t132 87t179.5 33.5q93 0 178.5 -50.5t118.5 -119.5v604h181v-1446h-177zM549 121q35 0 70 9.5t74 35.5t68.5 66t48.5 107t19 153
t-19 154t-48 108t-67 66.5t-72 36t-66 9.5q-76 0 -136 -32t-96 -86t-54.5 -119t-18.5 -135q0 -49 10 -99t33 -99.5t56.5 -88t84.5 -62.5t113 -24zM266 -262v149h617v-149h-617z" />
    <glyph glyph-name="uni1E10" unicode="&#x1e10;" horiz-adv-x="1460" 
d="M352 166h262q124 0 221.5 29.5t161.5 80t105.5 122.5t59.5 152t18 173t-18 173t-59.5 152t-105.5 122.5t-161.5 80t-221.5 29.5h-262v-1114zM156 0v1446h473q115 0 219.5 -22.5t203.5 -76t171 -134t115.5 -206.5t43.5 -284t-43.5 -284t-115.5 -206.5t-171 -134
t-203.5 -76t-219.5 -22.5h-473zM465 -465l76 352h182l-141 -352h-117z" />
    <glyph glyph-name="uni1E11" unicode="&#x1e11;" horiz-adv-x="1132" 
d="M831 0v150q-29 -72 -120 -123.5t-189 -51.5q-100 0 -180.5 35t-130 89.5t-83 125t-47 137t-13.5 130.5q0 69 14.5 138t49.5 138.5t86.5 123t132 87t179.5 33.5q93 0 178.5 -50.5t118.5 -119.5v604h181v-1446h-177zM549 121q35 0 70 9.5t74 35.5t68.5 66t48.5 107t19 153
t-19 154t-48 108t-67 66.5t-72 36t-66 9.5q-76 0 -136 -32t-96 -86t-54.5 -119t-18.5 -135q0 -49 10 -99t33 -99.5t56.5 -88t84.5 -62.5t113 -24zM387 -465l76 352h182l-141 -352h-117z" />
    <glyph glyph-name="uni1E1E" unicode="&#x1e1e;" horiz-adv-x="1161" 
d="M156 0v1446h962v-166h-766v-444h721v-166h-721v-670h-196zM551 1628v215h205v-215h-205z" />
    <glyph glyph-name="uni1E1F" unicode="&#x1e1f;" horiz-adv-x="620" 
d="M215 0v842h-197v145h197v187q0 294 262 294q90 0 129 -10v-147q-81 6 -82 6q-62 0 -94.5 -37t-32.5 -127v-166h205v-145h-205v-842h-182zM297 1628v215h205v-215h-205z" />
    <glyph glyph-name="uni1E20" unicode="&#x1e20;" horiz-adv-x="1482" 
d="M1200 0v209q-139 -244 -446 -244q-160 0 -290.5 60t-214.5 164t-129.5 241t-45.5 293q0 152 47 288.5t133 241.5t217.5 166.5t290.5 61.5q217 0 370 -110t226 -290l-197 -43q-55 126 -155.5 201.5t-243.5 75.5q-149 0 -261.5 -83.5t-168.5 -216.5t-56 -292
q0 -121 31 -226.5t90 -188t153 -130t212 -47.5q62 0 119.5 15t115 51.5t100 91t70 140.5t29.5 194h-461v165h649v-788h-184zM453 1671v150h616v-150h-616z" />
    <glyph glyph-name="uni1E21" unicode="&#x1e21;" horiz-adv-x="1122" 
d="M111 -133l192 35q8 -103 75.5 -170.5t170.5 -67.5q139 0 203.5 86t64.5 225v175q-33 -68 -121 -117t-182 -49q-113 0 -201 43t-140 116t-78.5 162t-26.5 189q0 64 12.5 130t45.5 137t83 125.5t132.5 90t186.5 35.5q91 0 177.5 -52.5t117.5 -123.5v151h174v-1016
q0 -214 -113 -333t-335 -119q-177 0 -297.5 95t-140.5 253zM539 129q36 0 71.5 9.5t74 35.5t67.5 65.5t48 106t19 150.5t-18.5 151t-46.5 107t-64.5 66.5t-70 36t-66.5 9.5q-80 0 -141 -35t-94.5 -91t-49.5 -117t-16 -123q0 -103 32 -186t98 -134t157 -51zM281 1212v150h616
v-150h-616z" />
    <glyph glyph-name="uni1E22" unicode="&#x1e22;" horiz-adv-x="1478" 
d="M156 0v1446h196v-615h770v615h201v-1446h-201v666h-770v-666h-196zM633 1628v215h205v-215h-205z" />
    <glyph glyph-name="uni1E23" unicode="&#x1e23;" horiz-adv-x="1071" 
d="M125 0v1446h178v-623q22 71 106.5 130t204.5 59q171 0 271 -133q45 -60 58 -127t13 -203v-549h-182v549q0 105 -8 155.5t-31 83.5q-56 78 -172 78t-190 -90q-41 -51 -54.5 -112.5t-13.5 -192.5v-471h-180zM477 1169v215h205v-215h-205z" />
    <glyph glyph-name="uni1E24" unicode="&#x1e24;" horiz-adv-x="1478" 
d="M156 0v1446h196v-615h770v615h201v-1446h-201v666h-770v-666h-196zM637 -326v215h205v-215h-205z" />
    <glyph glyph-name="uni1E25" unicode="&#x1e25;" horiz-adv-x="1071" 
d="M125 0v1446h178v-623q22 71 106.5 130t204.5 59q171 0 271 -133q45 -60 58 -127t13 -203v-549h-182v549q0 105 -8 155.5t-31 83.5q-56 78 -172 78t-190 -90q-41 -51 -54.5 -112.5t-13.5 -192.5v-471h-180zM436 -326v215h205v-215h-205z" />
    <glyph glyph-name="uni1E2A" unicode="&#x1e2a;" horiz-adv-x="1478" 
d="M156 0v1446h196v-615h770v615h201v-1446h-201v666h-770v-666h-196zM436 -160v47h144v-47q0 -83 39.5 -133.5t119.5 -50.5t121 51t41 133v47h143v-47q0 -140 -86.5 -224.5t-218.5 -84.5t-217.5 84.5t-85.5 224.5z" />
    <glyph glyph-name="uni1E2B" unicode="&#x1e2b;" horiz-adv-x="1071" 
d="M125 0v1446h178v-623q22 71 106.5 130t204.5 59q171 0 271 -133q45 -60 58 -127t13 -203v-549h-182v549q0 105 -8 155.5t-31 83.5q-56 78 -172 78t-190 -90q-41 -51 -54.5 -112.5t-13.5 -192.5v-471h-180zM233 -160v47h144v-47q0 -83 40 -133.5t120 -50.5t120.5 51
t40.5 133v47h144v-47q0 -140 -86.5 -224.5t-218.5 -84.5t-218 84.5t-86 224.5z" />
    <glyph glyph-name="uni1E36" unicode="&#x1e36;" horiz-adv-x="1112" 
d="M156 0v1446h196v-1280h738v-166h-934zM522 -326v215h205v-215h-205z" />
    <glyph glyph-name="uni1E37" unicode="&#x1e37;" horiz-adv-x="432" 
d="M125 0v1446h182v-1446h-182zM115 -326v215h204v-215h-204z" />
    <glyph glyph-name="uni1E38" unicode="&#x1e38;" horiz-adv-x="1112" 
d="M156 0v1446h196v-1280h738v-166h-934zM522 -326v215h205v-215h-205zM315 1671v150h617v-150h-617z" />
    <glyph glyph-name="uni1E39" unicode="&#x1e39;" horiz-adv-x="432" 
d="M125 0v1446h182v-1446h-182zM115 -326v215h204v-215h-204zM-94 1671v150h616v-150h-616z" />
    <glyph glyph-name="uni1E3A" unicode="&#x1e3a;" horiz-adv-x="1112" 
d="M156 0v1446h196v-1280h738v-166h-934zM307 -262v149h617v-149h-617z" />
    <glyph glyph-name="uni1E3B" unicode="&#x1e3b;" horiz-adv-x="432" 
d="M125 0v1446h182v-1446h-182zM-98 -262v149h616v-149h-616z" />
    <glyph glyph-name="uni1E3E" unicode="&#x1e3e;" horiz-adv-x="1804" 
d="M156 0v1446h301l448 -1239l438 1239h306v-1446h-189v1235l-436 -1235h-238l-442 1235v-1235h-188zM831 1565l142 350h190l-182 -350h-150z" />
    <glyph glyph-name="uni1E3F" unicode="&#x1e3f;" horiz-adv-x="1613" 
d="M125 0v987h178v-160q17 68 94.5 126.5t186.5 58.5q146 0 237 -111q32 -37 51 -90q27 82 106 141.5t191 59.5q165 0 258 -125q43 -60 57.5 -130.5t14.5 -207.5v-549h-180v588q0 43 -3 75.5t-14 73t-31 66.5t-57 44.5t-88 18.5q-108 0 -174 -100q-28 -43 -38.5 -91.5
t-10.5 -129.5v-545h-180v588q0 43 -3 75.5t-14 73t-30.5 66.5t-56 44.5t-87.5 18.5q-110 0 -176 -100q-32 -48 -40.5 -101.5t-8.5 -168.5v-496h-182zM733 1106l141 350h191l-182 -350h-150z" />
    <glyph glyph-name="uni1E40" unicode="&#x1e40;" horiz-adv-x="1804" 
d="M156 0v1446h301l448 -1239l438 1239h306v-1446h-189v1235l-436 -1235h-238l-442 1235v-1235h-188zM801 1628v215h205v-215h-205z" />
    <glyph glyph-name="uni1E41" unicode="&#x1e41;" horiz-adv-x="1613" 
d="M125 0v987h178v-160q17 68 94.5 126.5t186.5 58.5q146 0 237 -111q32 -37 51 -90q27 82 106 141.5t191 59.5q165 0 258 -125q43 -60 57.5 -130.5t14.5 -207.5v-549h-180v588q0 43 -3 75.5t-14 73t-31 66.5t-57 44.5t-88 18.5q-108 0 -174 -100q-28 -43 -38.5 -91.5
t-10.5 -129.5v-545h-180v588q0 43 -3 75.5t-14 73t-30.5 66.5t-56 44.5t-87.5 18.5q-110 0 -176 -100q-32 -48 -40.5 -101.5t-8.5 -168.5v-496h-182zM709 1169v215h204v-215h-204z" />
    <glyph glyph-name="uni1E42" unicode="&#x1e42;" horiz-adv-x="1804" 
d="M156 0v1446h301l448 -1239l438 1239h306v-1446h-189v1235l-436 -1235h-238l-442 1235v-1235h-188zM803 -326v215h205v-215h-205z" />
    <glyph glyph-name="uni1E43" unicode="&#x1e43;" horiz-adv-x="1613" 
d="M125 0v987h178v-160q17 68 94.5 126.5t186.5 58.5q146 0 237 -111q32 -37 51 -90q27 82 106 141.5t191 59.5q165 0 258 -125q43 -60 57.5 -130.5t14.5 -207.5v-549h-180v588q0 43 -3 75.5t-14 73t-31 66.5t-57 44.5t-88 18.5q-108 0 -174 -100q-28 -43 -38.5 -91.5
t-10.5 -129.5v-545h-180v588q0 43 -3 75.5t-14 73t-30.5 66.5t-56 44.5t-87.5 18.5q-110 0 -176 -100q-32 -48 -40.5 -101.5t-8.5 -168.5v-496h-182zM713 -326v215h205v-215h-205z" />
    <glyph glyph-name="uni1E44" unicode="&#x1e44;" horiz-adv-x="1546" 
d="M156 0v1446h270l780 -1249v1249h185v-1446h-285l-766 1247v-1247h-184zM668 1628v215h204v-215h-204z" />
    <glyph glyph-name="uni1E45" unicode="&#x1e45;" horiz-adv-x="1067" 
d="M125 0v987h178v-160q20 69 104 127t203 58q78 0 151 -31.5t122 -97.5q45 -61 57 -128t12 -206v-549h-180v549q0 106 -8.5 156t-32.5 83q-20 31 -64.5 54.5t-107.5 23.5q-117 0 -188 -90q-38 -49 -51 -114.5t-13 -190.5v-471h-182zM436 1169v215h205v-215h-205z" />
    <glyph glyph-name="uni1E46" unicode="&#x1e46;" horiz-adv-x="1546" 
d="M156 0v1446h270l780 -1249v1249h185v-1446h-285l-766 1247v-1247h-184zM670 -326v215h204v-215h-204z" />
    <glyph glyph-name="uni1E47" unicode="&#x1e47;" horiz-adv-x="1067" 
d="M125 0v987h178v-160q20 69 104 127t203 58q78 0 151 -31.5t122 -97.5q45 -61 57 -128t12 -206v-549h-180v549q0 106 -8.5 156t-32.5 83q-20 31 -64.5 54.5t-107.5 23.5q-117 0 -188 -90q-38 -49 -51 -114.5t-13 -190.5v-471h-182zM438 -326v215h205v-215h-205z" />
    <glyph glyph-name="uni1E48" unicode="&#x1e48;" horiz-adv-x="1546" 
d="M156 0v1446h270l780 -1249v1249h185v-1446h-285l-766 1247v-1247h-184zM455 -262v149h616v-149h-616z" />
    <glyph glyph-name="uni1E49" unicode="&#x1e49;" horiz-adv-x="1067" 
d="M125 0v987h178v-160q20 69 104 127t203 58q78 0 151 -31.5t122 -97.5q45 -61 57 -128t12 -206v-549h-180v549q0 106 -8.5 156t-32.5 83q-20 31 -64.5 54.5t-107.5 23.5q-117 0 -188 -90q-38 -49 -51 -114.5t-13 -190.5v-471h-182zM225 -262v149h617v-149h-617z" />
    <glyph glyph-name="uni1E56" unicode="&#x1e56;" horiz-adv-x="1271" 
d="M156 0v1446h604q223 0 346 -102.5t123 -305.5q0 -200 -122.5 -304.5t-346.5 -104.5h-408v-629h-196zM352 795h389q141 0 215 56t74 187q0 242 -289 242h-389v-485zM561 1628v215h205v-215h-205z" />
    <glyph glyph-name="uni1E57" unicode="&#x1e57;" horiz-adv-x="1134" 
d="M125 -457v1444h176v-149q31 71 122 122.5t189 51.5q95 0 173 -31.5t129.5 -83.5t86.5 -120.5t50.5 -139t15.5 -143.5q0 -60 -13 -125t-47 -137t-85 -128t-135 -92.5t-189 -36.5q-94 0 -175 49.5t-116 120.5v-602h-182zM584 121q67 0 120.5 25t86 64t54 90t30 98.5
t8.5 93.5q0 100 -32 183.5t-101 137t-164 53.5q-36 0 -71.5 -9.5t-75 -35.5t-68.5 -66t-48.5 -107.5t-19.5 -153.5q0 -85 20 -153t50 -108t69 -66.5t74 -36t68 -9.5zM512 1169v215h205v-215h-205z" />
    <glyph glyph-name="uni1E5A" unicode="&#x1e5a;" horiz-adv-x="1368" 
d="M156 0v1446h600q233 0 356 -99.5t123 -279.5q0 -68 -17.5 -125.5t-43.5 -94t-59.5 -63.5t-62.5 -39.5t-55 -17.5q230 -45 230 -276v-224q0 -66 17 -119t69 -108h-223q-62 74 -62 201v217q0 121 -62.5 167t-189.5 46h-426v-631h-194zM350 797h412q70 0 122.5 19.5
t80.5 46.5t45 65t21.5 67t4.5 60q0 105 -71 165t-217 60h-398v-483zM575 -326v215h205v-215h-205z" />
    <glyph glyph-name="uni1E5B" unicode="&#x1e5b;" horiz-adv-x="681" 
d="M125 0v987h178v-166q27 76 106.5 133.5t186.5 57.5q40 0 70 -6v-183q-40 8 -95 8q-135 0 -211 -112q-24 -32 -36.5 -80t-14.5 -87t-2 -106v-446h-182zM115 -326v215h204v-215h-204z" />
    <glyph glyph-name="uni1E5C" unicode="&#x1e5c;" horiz-adv-x="1368" 
d="M156 0v1446h600q233 0 356 -99.5t123 -279.5q0 -68 -17.5 -125.5t-43.5 -94t-59.5 -63.5t-62.5 -39.5t-55 -17.5q230 -45 230 -276v-224q0 -66 17 -119t69 -108h-223q-62 74 -62 201v217q0 121 -62.5 167t-189.5 46h-426v-631h-194zM350 797h412q70 0 122.5 19.5
t80.5 46.5t45 65t21.5 67t4.5 60q0 105 -71 165t-217 60h-398v-483zM575 -326v215h205v-215h-205zM371 1671v150h616v-150h-616z" />
    <glyph glyph-name="uni1E5D" unicode="&#x1e5d;" horiz-adv-x="681" 
d="M125 0v987h178v-166q27 76 106.5 133.5t186.5 57.5q40 0 70 -6v-183q-40 8 -95 8q-135 0 -211 -112q-24 -32 -36.5 -80t-14.5 -87t-2 -106v-446h-182zM115 -326v215h204v-215h-204zM100 1212v150h617v-150h-617z" />
    <glyph glyph-name="uni1E5E" unicode="&#x1e5e;" horiz-adv-x="1368" 
d="M156 0v1446h600q233 0 356 -99.5t123 -279.5q0 -68 -17.5 -125.5t-43.5 -94t-59.5 -63.5t-62.5 -39.5t-55 -17.5q230 -45 230 -276v-224q0 -66 17 -119t69 -108h-223q-62 74 -62 201v217q0 121 -62.5 167t-189.5 46h-426v-631h-194zM350 797h412q70 0 122.5 19.5
t80.5 46.5t45 65t21.5 67t4.5 60q0 105 -71 165t-217 60h-398v-483zM360 -262v149h617v-149h-617z" />
    <glyph glyph-name="uni1E5F" unicode="&#x1e5f;" horiz-adv-x="681" 
d="M125 0v987h178v-166q27 76 106.5 133.5t186.5 57.5q40 0 70 -6v-183q-40 8 -95 8q-135 0 -211 -112q-24 -32 -36.5 -80t-14.5 -87t-2 -106v-446h-182zM-98 -262v149h616v-149h-616z" />
    <glyph glyph-name="uni1E60" unicode="&#x1e60;" horiz-adv-x="1282" 
d="M57 442l203 33q9 -166 117.5 -255t263.5 -89q171 0 274 74.5t103 187.5q0 48 -16 85t-39 60t-65 42t-76 28.5t-91 22.5l-139 31q-58 13 -94.5 22t-88.5 24t-85.5 30.5t-73.5 38t-64.5 50t-47 62t-32.5 79t-10 97.5q0 188 150 302t397 114q100 0 183.5 -22t143 -59.5
t104.5 -90.5t71.5 -113t40.5 -129l-203 -37q-18 98 -69 163.5t-119 93.5t-152 28q-97 0 -173 -25.5t-124.5 -83t-48.5 -141.5q0 -35 12 -63.5t37.5 -49.5t52 -36.5t70 -29.5t74.5 -22t82 -20l155 -35q76 -17 132.5 -35.5t118 -51t100.5 -73t64.5 -104t25.5 -142.5
q0 -194 -161.5 -316t-422.5 -122q-231 0 -390.5 123t-189.5 354zM543 1628v215h205v-215h-205z" />
    <glyph glyph-name="uni1E61" unicode="&#x1e61;" horiz-adv-x="962" 
d="M51 309l189 41q6 -108 67 -170.5t172 -62.5q100 0 167 41t67 121q0 32 -14 56.5t-30.5 38t-48.5 25t-48.5 15.5t-49.5 10l-116 22q-37 7 -58 12t-59.5 17t-62 24t-53.5 34.5t-46.5 48.5t-28.5 64t-12 83q0 115 103.5 199t291.5 84q146 0 256 -81.5t137 -228.5l-176 -34
q-13 97 -63.5 149.5t-161.5 52.5q-103 0 -156 -43.5t-53 -95.5q0 -105 205 -141l78 -15q42 -8 70 -14t68.5 -18t68 -26t57.5 -36t48 -48.5t30 -64.5t12 -83q0 -95 -58 -167t-153 -107.5t-211 -35.5q-81 0 -151 21.5t-118 56t-83.5 79t-53.5 89.5t-22 88zM369 1169v215h204
v-215h-204z" />
    <glyph glyph-name="uni1E62" unicode="&#x1e62;" horiz-adv-x="1282" 
d="M57 442l203 33q9 -166 117.5 -255t263.5 -89q171 0 274 74.5t103 187.5q0 48 -16 85t-39 60t-65 42t-76 28.5t-91 22.5l-139 31q-58 13 -94.5 22t-88.5 24t-85.5 30.5t-73.5 38t-64.5 50t-47 62t-32.5 79t-10 97.5q0 188 150 302t397 114q100 0 183.5 -22t143 -59.5
t104.5 -90.5t71.5 -113t40.5 -129l-203 -37q-18 98 -69 163.5t-119 93.5t-152 28q-97 0 -173 -25.5t-124.5 -83t-48.5 -141.5q0 -35 12 -63.5t37.5 -49.5t52 -36.5t70 -29.5t74.5 -22t82 -20l155 -35q76 -17 132.5 -35.5t118 -51t100.5 -73t64.5 -104t25.5 -142.5
q0 -194 -161.5 -316t-422.5 -122q-231 0 -390.5 123t-189.5 354zM535 -326v215h204v-215h-204z" />
    <glyph glyph-name="uni1E63" unicode="&#x1e63;" horiz-adv-x="962" 
d="M51 309l189 41q6 -108 67 -170.5t172 -62.5q100 0 167 41t67 121q0 32 -14 56.5t-30.5 38t-48.5 25t-48.5 15.5t-49.5 10l-116 22q-37 7 -58 12t-59.5 17t-62 24t-53.5 34.5t-46.5 48.5t-28.5 64t-12 83q0 115 103.5 199t291.5 84q146 0 256 -81.5t137 -228.5l-176 -34
q-13 97 -63.5 149.5t-161.5 52.5q-103 0 -156 -43.5t-53 -95.5q0 -105 205 -141l78 -15q42 -8 70 -14t68.5 -18t68 -26t57.5 -36t48 -48.5t30 -64.5t12 -83q0 -95 -58 -167t-153 -107.5t-211 -35.5q-81 0 -151 21.5t-118 56t-83.5 79t-53.5 89.5t-22 88zM379 -326v215h205
v-215h-205z" />
    <glyph glyph-name="uni1E6A" unicode="&#x1e6a;" horiz-adv-x="1159" 
d="M479 0v1280h-459v166h1119v-166h-461v-1280h-199zM471 1628v215h205v-215h-205z" />
    <glyph glyph-name="uni1E6B" unicode="&#x1e6b;" horiz-adv-x="636" 
d="M207 219v623h-191v145h191v326h182v-326h209v-145h-209v-580q0 -68 27.5 -96.5t83.5 -28.5q46 0 98 10v-145q-77 -16 -141 -16q-119 0 -184.5 58t-65.5 175zM205 1628v215h205v-215h-205z" />
    <glyph glyph-name="uni1E6C" unicode="&#x1e6c;" horiz-adv-x="1159" 
d="M479 0v1280h-459v166h1119v-166h-461v-1280h-199zM473 -326v215h205v-215h-205z" />
    <glyph glyph-name="uni1E6D" unicode="&#x1e6d;" horiz-adv-x="636" 
d="M207 219v623h-191v145h191v326h182v-326h209v-145h-209v-580q0 -68 27.5 -96.5t83.5 -28.5q46 0 98 10v-145q-77 -16 -141 -16q-119 0 -184.5 58t-65.5 175zM289 -326v215h205v-215h-205z" />
    <glyph glyph-name="uni1E6E" unicode="&#x1e6e;" horiz-adv-x="1159" 
d="M479 0v1280h-459v166h1119v-166h-461v-1280h-199zM258 -262v149h616v-149h-616z" />
    <glyph glyph-name="uni1E6F" unicode="&#x1e6f;" horiz-adv-x="636" 
d="M207 219v623h-191v145h191v326h182v-326h209v-145h-209v-580q0 -68 27.5 -96.5t83.5 -28.5q46 0 98 10v-145q-77 -16 -141 -16q-119 0 -184.5 58t-65.5 175zM76 -262v149h616v-149h-616z" />
    <glyph glyph-name="uni1E7C" unicode="&#x1e7c;" horiz-adv-x="1331" 
d="M545 0l-537 1446h205l453 -1233l467 1233h200l-555 -1446h-233zM348 1608v174q80 73 170 73q11 0 22 -1t24.5 -4t21 -4t24 -6.5t20 -6.5t23.5 -8.5t21 -7.5q10 -3 31.5 -10.5t33.5 -11.5t28.5 -7.5t29.5 -3.5q91 0 168 102v-174q-34 -32 -81 -54t-91 -22q-48 0 -146 35
q-11 4 -34 12.5t-35.5 12.5t-31 8t-34.5 4q-89 0 -164 -100z" />
    <glyph glyph-name="uni1E7D" unicode="&#x1e7d;" horiz-adv-x="972" 
d="M379 0l-361 987h187l282 -780l291 780h183l-371 -987h-211zM178 1149v174q82 74 170 74q13 0 27.5 -2t25 -4t27.5 -7t24 -7.5t27 -9.5t25 -9q10 -3 31.5 -10.5t33.5 -11.5t28.5 -7.5t29.5 -3.5q91 0 168 102v-174q-34 -32 -81 -53.5t-91 -21.5q-50 0 -146 34
q-11 4 -34 12.5t-35.5 12.5t-31 8t-34.5 4q-89 0 -164 -100z" />
    <glyph glyph-name="Wgrave" unicode="&#x1e80;" horiz-adv-x="1984" 
d="M414 0l-398 1446h197l336 -1251l307 1251h274l308 -1251l334 1251h198l-399 -1446h-273l-305 1270l-305 -1270h-274zM922 1565l-183 350h191l141 -350h-149z" />
    <glyph glyph-name="wgrave" unicode="&#x1e81;" horiz-adv-x="1525" 
d="M328 0l-312 987h183l237 -778l215 778h223l220 -778l237 778h180l-313 -987h-215l-221 782l-217 -782h-217zM692 1106l-182 350h190l142 -350h-150z" />
    <glyph glyph-name="Wacute" unicode="&#x1e82;" horiz-adv-x="1984" 
d="M414 0l-398 1446h197l336 -1251l307 1251h274l308 -1251l334 1251h198l-399 -1446h-273l-305 1270l-305 -1270h-274zM920 1565l141 350h190l-182 -350h-149z" />
    <glyph glyph-name="wacute" unicode="&#x1e83;" horiz-adv-x="1525" 
d="M328 0l-312 987h183l237 -778l215 778h223l220 -778l237 778h180l-313 -987h-215l-221 782l-217 -782h-217zM686 1106l141 350h191l-182 -350h-150z" />
    <glyph glyph-name="Wdieresis" unicode="&#x1e84;" horiz-adv-x="1984" 
d="M414 0l-398 1446h197l336 -1251l307 1251h274l308 -1251l334 1251h198l-399 -1446h-273l-305 1270l-305 -1270h-274zM686 1628v215h207v-215h-207zM1096 1628v215h207v-215h-207z" />
    <glyph glyph-name="wdieresis" unicode="&#x1e85;" horiz-adv-x="1525" 
d="M328 0l-312 987h183l237 -778l215 778h223l220 -778l237 778h180l-313 -987h-215l-221 782l-217 -782h-217zM455 1169v215h207v-215h-207zM864 1169v215h207v-215h-207z" />
    <glyph glyph-name="uni1E8A" unicode="&#x1e8a;" horiz-adv-x="1282" 
d="M-35 0l559 776l-479 670h229l371 -528l367 528h227l-481 -670l555 -776h-232l-444 633l-440 -633h-232zM537 1630v215h204v-215h-204z" />
    <glyph glyph-name="uni1E8B" unicode="&#x1e8b;" horiz-adv-x="899" 
d="M6 0l336 514l-305 473h205l213 -338l219 338h200l-317 -475l326 -512h-203l-229 373l-238 -373h-207zM352 1165v215h205v-215h-205z" />
    <glyph glyph-name="uni1E92" unicode="&#x1e92;" horiz-adv-x="1226" 
d="M51 0v190l844 1088h-811v168h1055v-168l-869 -1110h918v-168h-1137zM516 -326v215h205v-215h-205z" />
    <glyph glyph-name="uni1E93" unicode="&#x1e93;" horiz-adv-x="903" 
d="M43 0v164l569 678h-520v145h746v-139l-586 -701h598v-147h-807zM346 -326v215h205v-215h-205z" />
    <glyph glyph-name="uni1E97" unicode="&#x1e97;" horiz-adv-x="636" 
d="M207 219v623h-191v145h191v326h182v-326h209v-145h-209v-580q0 -68 27.5 -96.5t83.5 -28.5q46 0 98 10v-145q-77 -16 -141 -16q-119 0 -184.5 58t-65.5 175zM-2 1628v215h207v-215h-207zM408 1628v215h206v-215h-206z" />
    <glyph glyph-name="uni1E9E" unicode="&#x1e9e;" horiz-adv-x="1378" 
d="M762 -35q-156 0 -293 37v170q136 -41 289 -41q172 0 272 77t100 202q0 113 -90 187.5t-245 74.5h-217v149l407 459h-211q-204 0 -320 -102.5t-116 -290.5v-887h-197v891q0 253 164 404t473 151h430v-164l-407 -457h65q210 -1 336.5 -115.5t126.5 -299.5
q0 -198 -147 -321.5t-420 -123.5z" />
    <glyph glyph-name="uni1EA0" unicode="&#x1ea0;" horiz-adv-x="1374" 
d="M2 0l559 1446h254l555 -1446h-213l-160 430h-622l-160 -430h-213zM434 592h504l-252 684zM584 -326v215h204v-215h-204z" />
    <glyph glyph-name="uni1EA1" unicode="&#x1ea1;" horiz-adv-x="1009" 
d="M905 0h-182q-14 70 -14 143q-41 -86 -122 -127t-186 -41q-154 0 -244.5 83t-90.5 204q0 69 22 121t55.5 84.5t90 56.5t107 36.5t126.5 25.5q114 17 129 20q77 14 98 40.5t21 74.5q0 23 -9 46t-30 47.5t-64.5 40t-103.5 15.5q-100 0 -161 -52t-68 -156l-185 34
q24 135 123 219q118 97 291 97q383 0 383 -326v-450q0 -166 14 -236zM252 270q0 -65 52 -109t124 -44q31 0 64.5 6t73.5 23.5t71 44.5t51.5 75t20.5 109v129q-27 -12 -150 -37l-67 -12q-47 -9 -75 -16t-63.5 -21.5t-54.5 -32.5t-33 -47t-14 -68zM408 -326v215h204v-215h-204
z" />
    <glyph glyph-name="uni1EB8" unicode="&#x1eb8;" horiz-adv-x="1218" 
d="M156 0v1446h960v-166h-764v-451h738v-165h-738v-498h783v-166h-979zM543 -326v215h205v-215h-205z" />
    <glyph glyph-name="uni1EB9" unicode="&#x1eb9;" horiz-adv-x="1040" 
d="M784 328l174 -37q-11 -53 -44.5 -107t-84.5 -101.5t-126 -77.5t-158 -30q-120 0 -213.5 43t-149 116.5t-84 164t-28.5 193.5t29.5 195.5t84.5 165.5t142.5 116t195.5 43q140 0 243.5 -69t155.5 -187t52 -269q0 -30 -2 -38h-717q1 -63 17.5 -120.5t49.5 -106t88.5 -77
t127.5 -28.5q56 0 101 19.5t74 51.5t46.5 67t25.5 73zM256 590h526q0 110 -69 195t-191 85q-123 0 -194.5 -80t-71.5 -200zM422 -326v215h205v-215h-205z" />
    <glyph glyph-name="uni1EBC" unicode="&#x1ebc;" horiz-adv-x="1218" 
d="M156 0v1446h960v-166h-764v-451h738v-165h-738v-498h783v-166h-979zM336 1608v174q80 73 170 73q11 0 22 -1t24.5 -4t21 -4t24 -6.5t20 -6.5t23.5 -8.5t21 -7.5q10 -3 31 -10.5t33 -11.5t28.5 -7.5t29.5 -3.5q91 0 168 102v-174q-34 -32 -81 -54t-91 -22q-47 0 -145 35
q-11 4 -34 12.5t-35.5 12.5t-31 8t-34.5 4q-89 0 -164 -100z" />
    <glyph glyph-name="uni1EBD" unicode="&#x1ebd;" horiz-adv-x="1040" 
d="M784 328l174 -37q-11 -53 -44.5 -107t-84.5 -101.5t-126 -77.5t-158 -30q-120 0 -213.5 43t-149 116.5t-84 164t-28.5 193.5t29.5 195.5t84.5 165.5t142.5 116t195.5 43q140 0 243.5 -69t155.5 -187t52 -269q0 -30 -2 -38h-717q1 -63 17.5 -120.5t49.5 -106t88.5 -77
t127.5 -28.5q56 0 101 19.5t74 51.5t46.5 67t25.5 73zM256 590h526q0 110 -69 195t-191 85q-123 0 -194.5 -80t-71.5 -200zM215 1149v174q82 74 170 74q13 0 27.5 -2t25 -4t27.5 -7t24 -7.5t27 -9.5t25 -9q10 -3 31.5 -10.5t33.5 -11.5t28.5 -7.5t29.5 -3.5q90 0 167 102
v-174q-34 -32 -81 -53.5t-91 -21.5q-49 0 -145 34q-11 4 -34 12.5t-35.5 12.5t-31 8t-34.5 4q-89 0 -164 -100z" />
    <glyph glyph-name="uni1ECA" unicode="&#x1eca;" horiz-adv-x="507" 
d="M156 0v1446h196v-1446h-196zM152 -326v215h204v-215h-204z" />
    <glyph glyph-name="uni1ECB" unicode="&#x1ecb;" horiz-adv-x="432" 
d="M125 0v987h182v-987h-182zM125 1243v203h182v-203h-182zM115 -326v215h204v-215h-204z" />
    <glyph glyph-name="uni1ECC" unicode="&#x1ecc;" horiz-adv-x="1525" 
d="M766 131q121 0 216 50t151.5 134t85 186.5t28.5 215.5q0 91 -17.5 176t-55.5 162.5t-93 134.5t-136 91t-179 34q-99 0 -181 -34t-138 -91t-94.5 -134t-56 -162.5t-17.5 -176.5q0 -90 17.5 -173.5t56 -159t94.5 -131.5t138 -89t181 -33zM766 -35q-140 0 -256 42t-195 114
t-134 168.5t-80 204t-25 223.5t25 225t80 207.5t134 172t195 116.5t256 43q139 0 254 -43t193.5 -116.5t132.5 -172t79 -207.5t25 -225t-25 -223.5t-79 -204t-132.5 -168.5t-193.5 -114t-254 -42zM664 -326v215h204v-215h-204z" />
    <glyph glyph-name="uni1ECD" unicode="&#x1ecd;" horiz-adv-x="1087" 
d="M545 121q57 0 105.5 21.5t81.5 58t56.5 84.5t34.5 100.5t11 106.5q0 55 -11 107.5t-34.5 101t-56.5 85t-81.5 58.5t-105.5 22q-72 0 -129.5 -33t-92 -87.5t-53 -119.5t-18.5 -134q0 -93 30.5 -175t99 -139t163.5 -57zM545 -25q-90 0 -168 29.5t-134 80t-96 116.5
t-59.5 140.5t-19.5 150.5q0 97 32 189t90 166t150.5 119.5t204.5 45.5q111 0 203 -45.5t150.5 -119.5t90 -166t31.5 -189q0 -96 -32 -187.5t-90 -165.5t-150 -119t-203 -45zM444 -326v215h205v-215h-205z" />
    <glyph glyph-name="uni1EE4" unicode="&#x1ee4;" horiz-adv-x="1433" 
d="M143 506v940h197v-940q0 -171 101.5 -273t275.5 -102q177 0 276 98.5t99 276.5v940h198v-940q0 -132 -42.5 -236t-119.5 -170t-181 -100.5t-230 -34.5q-274 0 -424 150.5t-150 390.5zM614 -326v215h205v-215h-205z" />
    <glyph glyph-name="uni1EE5" unicode="&#x1ee5;" horiz-adv-x="1062" 
d="M115 438v549h182v-549q0 -106 8.5 -156t32.5 -83q21 -32 64.5 -55t107.5 -23q60 0 102.5 22.5t79.5 67.5q41 50 53.5 111t12.5 194v471h180v-987h-178v160q-20 -69 -101 -127t-200 -58q-78 0 -151 31.5t-122 97.5q-45 61 -58 129t-13 205zM426 -326v215h205v-215h-205z
" />
    <glyph glyph-name="Ygrave" unicode="&#x1ef2;" horiz-adv-x="1298" 
d="M549 0v672l-537 774h230l409 -617l420 617h221l-547 -774v-672h-196zM582 1565l-183 350h191l141 -350h-149z" />
    <glyph glyph-name="ygrave" unicode="&#x1ef3;" horiz-adv-x="950" 
d="M66 -469v158q50 -13 77 -13q135 0 172 103l74 201l-369 1007h189l274 -772l273 772h182l-463 -1278q-70 -188 -287 -188q-40 0 -122 10zM412 1106l-183 350h191l141 -350h-149z" />
    <glyph glyph-name="uni1EF8" unicode="&#x1ef8;" horiz-adv-x="1298" 
d="M549 0v672l-537 774h230l409 -617l420 617h221l-547 -774v-672h-196zM334 1608v174q80 73 170 73q11 0 22.5 -1t24 -3.5t21 -4.5t23 -6.5t20.5 -6.5t23 -8.5t21 -7.5q10 -3 31.5 -10.5t33.5 -11.5t28.5 -7.5t29.5 -3.5q91 0 168 102v-174q-34 -32 -81 -54t-91 -22
q-47 0 -145 35q-11 4 -34 12.5t-35.5 12.5t-31 8t-34.5 4q-89 0 -164 -100z" />
    <glyph glyph-name="uni1EF9" unicode="&#x1ef9;" horiz-adv-x="950" 
d="M66 -469v158q50 -13 77 -13q135 0 172 103l74 201l-369 1007h189l274 -772l273 772h182l-463 -1278q-70 -188 -287 -188q-40 0 -122 10zM174 1149v174q82 74 170 74q13 0 27.5 -2t25 -4t27.5 -7t24 -7.5t27 -9.5t25 -9q10 -3 31.5 -10.5t33.5 -11.5t28.5 -7.5t29.5 -3.5
q91 0 168 102v-174q-34 -32 -81.5 -53.5t-91.5 -21.5q-49 0 -145 34q-11 4 -34 12.5t-35.5 12.5t-31 8t-34.5 4q-89 0 -164 -100z" />
    <glyph glyph-name="uni2000" unicode="&#x2000;" horiz-adv-x="802" 
 />
    <glyph glyph-name="uni2001" unicode="&#x2001;" horiz-adv-x="1605" 
 />
    <glyph glyph-name="uni2002" unicode="&#x2002;" horiz-adv-x="802" 
 />
    <glyph glyph-name="uni2003" unicode="&#x2003;" horiz-adv-x="1605" 
 />
    <glyph glyph-name="uni2004" unicode="&#x2004;" horiz-adv-x="534" 
 />
    <glyph glyph-name="uni2005" unicode="&#x2005;" horiz-adv-x="401" 
 />
    <glyph glyph-name="uni2006" unicode="&#x2006;" horiz-adv-x="268" 
 />
    <glyph glyph-name="uni2007" unicode="&#x2007;" 
 />
    <glyph glyph-name="uni2008" unicode="&#x2008;" horiz-adv-x="450" 
 />
    <glyph glyph-name="uni2009" unicode="&#x2009;" horiz-adv-x="200" 
 />
    <glyph glyph-name="uni200A" unicode="&#x200a;" horiz-adv-x="67" 
 />
    <glyph glyph-name="uni200B" unicode="&#x200b;" horiz-adv-x="0" 
 />
    <glyph glyph-name="figuredash" unicode="&#x2012;" 
d="M246 557v174h827v-174h-827z" />
    <glyph glyph-name="endash" unicode="&#x2013;" horiz-adv-x="1048" 
d="M111 588v174h827v-174h-827z" />
    <glyph glyph-name="emdash" unicode="&#x2014;" horiz-adv-x="1595" 
d="M111 588v174h1374v-174h-1374z" />
    <glyph glyph-name="uni2015" unicode="&#x2015;" horiz-adv-x="1595" 
d="M111 588v174h1374v-174h-1374z" />
    <glyph glyph-name="quoteleft" unicode="&#x2018;" horiz-adv-x="454" 
d="M59 860l199 586h152l-150 -586h-201z" />
    <glyph glyph-name="quoteright" unicode="&#x2019;" horiz-adv-x="450" 
d="M70 860l149 586h203l-201 -586h-151z" />
    <glyph glyph-name="quotesinglbase" unicode="&#x201a;" horiz-adv-x="440" 
d="M-10 -356l149 585h203l-199 -585h-153z" />
    <glyph glyph-name="quotereversed" unicode="&#x201b;" horiz-adv-x="444" 
d="M227 1448l150 -584h-152l-198 584h200z" />
    <glyph glyph-name="quotedblleft" unicode="&#x201c;" horiz-adv-x="761" 
d="M59 860l199 586h152l-150 -586h-201zM365 860l200 586h152l-150 -586h-202z" />
    <glyph glyph-name="quotedblright" unicode="&#x201d;" horiz-adv-x="757" 
d="M70 860l149 586h203l-201 -586h-151zM377 860l149 586h203l-201 -586h-151z" />
    <glyph glyph-name="quotedblbase" unicode="&#x201e;" horiz-adv-x="747" 
d="M-10 -356l149 585h203l-199 -585h-153zM297 -356l149 585h203l-198 -585h-154z" />
    <glyph glyph-name="uni201F" unicode="&#x201f;" horiz-adv-x="749" 
d="M532 1446l150 -584h-152l-198 584h200zM227 1446l150 -584h-152l-198 584h200z" />
    <glyph glyph-name="dagger" unicode="&#x2020;" horiz-adv-x="980" 
d="M401 -80v920h-344v164h344v442h183v-442h338v-164h-338v-920h-183z" />
    <glyph glyph-name="daggerdbl" unicode="&#x2021;" horiz-adv-x="980" 
d="M403 -80v418h-327v162h327v401h-327v162h327v385h181v-385h321v-162h-321v-401h321v-162h-321v-418h-181z" />
    <glyph glyph-name="bullet" unicode="&#x2022;" horiz-adv-x="784" 
d="M393 457q-113 0 -192.5 79t-79.5 191t79.5 191t192.5 79t192 -79t79 -191t-79 -191t-192 -79z" />
    <glyph glyph-name="ellipsis" unicode="&#x2026;" horiz-adv-x="1466" 
d="M111 0v229h229v-229h-229zM618 0v229h230v-229h-230zM1126 0v229h230v-229h-230z" />
    <glyph glyph-name="perthousand" unicode="&#x2030;" horiz-adv-x="2437" 
d="M463 778q54 0 93.5 43.5t58 107t18.5 134.5t-18.5 134.5t-58 107t-93.5 43.5q-55 0 -94.5 -43.5t-57.5 -106.5t-18 -135t18 -135t57.5 -106.5t94.5 -43.5zM463 662q-101 0 -175.5 60.5t-109.5 150t-35 190.5q0 74 21 144.5t59.5 128t101 93t138.5 35.5q100 0 175 -61
t109.5 -150.5t34.5 -189.5q0 -101 -34.5 -190.5t-109 -150t-175.5 -60.5zM291 0l977 1446h166l-977 -1446h-166zM1262 98q54 0 93.5 43.5t58 107t18.5 134.5t-18.5 134.5t-58 107t-93.5 43.5q-55 0 -94.5 -43.5t-57.5 -106.5t-18 -135t18 -135t57.5 -106.5t94.5 -43.5z
M1262 -18q-101 0 -175.5 60.5t-109.5 150t-35 190.5q0 74 21 144.5t59.5 128t101 93t138.5 35.5q100 0 175 -61t109.5 -150.5t34.5 -189.5q0 -101 -34.5 -190.5t-109 -150t-175.5 -60.5zM1976 98q54 0 93.5 43.5t58 107t18.5 134.5t-18.5 134.5t-58 107t-93.5 43.5
q-55 0 -94.5 -43.5t-57.5 -106.5t-18 -135t18 -135t57.5 -106.5t94.5 -43.5zM1976 -18q-101 0 -175.5 60.5t-109 150t-34.5 190.5q0 100 34.5 189.5t109.5 150.5t175 61q76 0 138.5 -35.5t101 -93t59.5 -128t21 -144.5q0 -101 -35 -190.5t-109.5 -150t-175.5 -60.5z" />
    <glyph glyph-name="uni2032" unicode="&#x2032;" horiz-adv-x="378" 
d="M117 860v586h145v-586h-145z" />
    <glyph glyph-name="uni2033" unicode="&#x2033;" horiz-adv-x="681" 
d="M117 860v586h147v-586h-147zM418 860v586h147v-586h-147z" />
    <glyph glyph-name="guilsinglleft" unicode="&#x2039;" horiz-adv-x="540" 
d="M78 602v154l344 260v-172l-227 -166l227 -166v-172z" />
    <glyph glyph-name="guilsinglright" unicode="&#x203a;" horiz-adv-x="540" 
d="M119 340v172l227 166l-227 166v172l344 -260v-154z" />
    <glyph glyph-name="fraction" unicode="&#x2044;" horiz-adv-x="266" 
d="M-436 0l977 1446h166l-977 -1446h-166z" />
    <glyph glyph-name="uni2070" unicode="&#x2070;" horiz-adv-x="737" 
d="M369 1126q54 0 93.5 43.5t58 107t18.5 134.5t-18.5 134.5t-58 107t-93.5 43.5q-55 0 -94.5 -43.5t-57.5 -106.5t-18 -135t18 -135t57.5 -106.5t94.5 -43.5zM369 1010q-101 0 -175.5 60.5t-109.5 150t-35 190.5q0 74 21 144.5t59.5 128t101 93t138.5 35.5q100 0 175 -61
t109.5 -150.5t34.5 -189.5q0 -101 -34.5 -190.5t-109 -150t-175.5 -60.5z" />
    <glyph glyph-name="uni2074" unicode="&#x2074;" horiz-adv-x="737" 
d="M55 1217v114l305 463h179v-461h141v-116h-141v-189h-140v189h-344zM207 1333h192v309z" />
    <glyph glyph-name="uni2075" unicode="&#x2075;" horiz-adv-x="737" 
d="M94 1223l137 30q9 -58 44.5 -92.5t93.5 -34.5q61 0 99 45t38 113q0 61 -36.5 108.5t-102.5 47.5q-50 0 -83 -31t-42 -70l-142 29l54 426h464v-117h-350l-22 -188q15 26 57 46.5t96 20.5q114 0 180 -82.5t66 -189.5q0 -116 -78 -195t-198 -79q-115 0 -184 58.5t-91 154.5z
" />
    <glyph glyph-name="uni2076" unicode="&#x2076;" horiz-adv-x="737" 
d="M641 1624l-141 -31q-30 103 -111 103q-40 0 -70.5 -22t-48 -59t-27 -75.5t-12.5 -81.5q11 34 58.5 61t105.5 27q117 0 186.5 -80t69.5 -194q0 -118 -81.5 -190t-182.5 -72q-67 0 -119.5 24t-85.5 62.5t-55 90.5t-30.5 103t-8.5 105q0 80 16.5 151.5t51 132.5t96.5 97
t145 36q80 0 148.5 -47t95.5 -141zM379 1126q55 0 94 41.5t39 114.5q0 68 -39 108t-94 40q-60 0 -97.5 -44t-37.5 -106q0 -71 39 -112.5t96 -41.5z" />
    <glyph glyph-name="uni2077" unicode="&#x2077;" horiz-adv-x="737" 
d="M313 1028h-157q49 126 182.5 369t161.5 280h-410v117h565v-115q-39 -48 -162.5 -282.5t-179.5 -368.5z" />
    <glyph glyph-name="uni2078" unicode="&#x2078;" horiz-adv-x="737" 
d="M236 1438q-61 22 -94 66t-33 104q0 33 15.5 67.5t45.5 65.5t82 51t117 20q123 0 190.5 -65t67.5 -139q0 -60 -33 -104t-94 -66q155 -52 155 -197q0 -92 -78 -161.5t-208 -69.5t-208.5 69.5t-78.5 161.5q0 144 154 197zM221 1247q0 -50 40 -85.5t108 -35.5t107.5 35.5
t39.5 85.5q0 22 -6 42t-20.5 40.5t-45.5 32.5t-75 12q-80 0 -114 -38t-34 -89zM248 1595q0 -41 30.5 -70.5t90.5 -29.5t89 29.5t29 70.5t-30.5 71t-87.5 30q-59 0 -90 -30t-31 -71z" />
    <glyph glyph-name="uni2079" unicode="&#x2079;" horiz-adv-x="737" 
d="M90 1206l146 33q11 -58 41 -85.5t71 -27.5q74 0 119 82q29 55 41 174q-11 -33 -58.5 -60.5t-103.5 -27.5q-118 0 -188 77.5t-70 187.5q0 113 80 183t186 70q81 0 141.5 -36.5t93 -95.5t47.5 -122t15 -128q0 -174 -69 -287q-78 -133 -242 -133q-79 0 -153 52t-97 144z
M358 1411q55 0 93 44t38 95q0 63 -38.5 104.5t-94.5 41.5q-51 0 -90 -41.5t-39 -104.5q0 -60 39.5 -99.5t91.5 -39.5z" />
    <glyph glyph-name="uni2080" unicode="&#x2080;" horiz-adv-x="737" 
d="M369 -414q54 0 93.5 43.5t58 107t18.5 134.5t-18.5 134.5t-58 107t-93.5 43.5q-55 0 -94.5 -43.5t-57.5 -106.5t-18 -135t18 -135t57.5 -106.5t94.5 -43.5zM369 -530q-101 0 -175.5 60.5t-109.5 150t-35 190.5q0 74 21 144.5t59.5 128t101 93t138.5 35.5q100 0 175 -61
t109.5 -150.5t34.5 -189.5q0 -101 -34.5 -190.5t-109 -150t-175.5 -60.5z" />
    <glyph glyph-name="uni2081" unicode="&#x2081;" horiz-adv-x="737" 
d="M332 -512v545h-144v119h56q57 0 78.5 21t21.5 81h135v-766h-147z" />
    <glyph glyph-name="uni2082" unicode="&#x2082;" horiz-adv-x="737" 
d="M84 -512v131q44 18 135 80t158 127q115 110 115 211q0 54 -31.5 86.5t-81.5 32.5q-62 0 -95.5 -40t-33.5 -134l-152 32q1 67 26 118.5t66 81t89 44t100 14.5q114 0 187 -65t73 -170q0 -59 -27 -118t-56 -94t-75 -81q-32 -33 -97 -77t-103 -62h372v-117h-569z" />
    <glyph glyph-name="uni2083" unicode="&#x2083;" horiz-adv-x="737" 
d="M78 -270l147 32q3 -82 40 -129t100 -47q65 0 101 37t36 88q0 49 -35.5 85t-120.5 36h-88v113h84q64 0 102.5 31.5t38.5 72.5q0 47 -32.5 77t-83.5 30q-125 0 -129 -150l-148 35q2 39 19.5 78.5t50 74.5t87 56.5t120.5 21.5q113 0 189.5 -58.5t76.5 -166.5
q0 -16 -7.5 -38.5t-23 -48t-46.5 -45.5t-71 -26q62 -6 101 -41.5t51 -73t12 -77.5q0 -93 -77.5 -160t-206.5 -67q-53 0 -101 14.5t-88.5 44.5t-66.5 81.5t-31 119.5z" />
    <glyph glyph-name="uni2084" unicode="&#x2084;" horiz-adv-x="737" 
d="M55 -324v115l305 463h179v-461h141v-117h-141v-188h-140v188h-344zM207 -207h192v309z" />
    <glyph glyph-name="uni2085" unicode="&#x2085;" horiz-adv-x="737" 
d="M94 -317l137 30q9 -58 44.5 -92.5t93.5 -34.5q61 0 99 45t38 113q0 61 -36.5 108.5t-102.5 47.5q-50 0 -83 -31t-42 -70l-142 29l54 426h464v-117h-350l-22 -188q15 26 57 46.5t96 20.5q114 0 180 -82.5t66 -189.5q0 -116 -78 -195t-198 -79q-115 0 -184 58.5t-91 154.5z
" />
    <glyph glyph-name="uni2086" unicode="&#x2086;" horiz-adv-x="737" 
d="M641 84l-141 -31q-30 103 -111 103q-40 0 -70.5 -22t-48 -59t-27 -75.5t-12.5 -81.5q11 34 58.5 61t105.5 27q117 0 186.5 -80t69.5 -194q0 -118 -81.5 -190t-182.5 -72q-67 0 -119.5 24t-85.5 62.5t-55 90.5t-30.5 103t-8.5 105q0 80 16.5 151.5t51 132.5t96.5 97
t145 36q80 0 148.5 -47t95.5 -141zM379 -414q55 0 94 41.5t39 114.5q0 68 -39 107.5t-94 39.5q-60 0 -97.5 -43.5t-37.5 -105.5q0 -71 39 -112.5t96 -41.5z" />
    <glyph glyph-name="uni2087" unicode="&#x2087;" horiz-adv-x="737" 
d="M313 -512h-157q49 126 182.5 369t161.5 280h-410v117h565v-115q-39 -48 -162.5 -282.5t-179.5 -368.5z" />
    <glyph glyph-name="uni2088" unicode="&#x2088;" horiz-adv-x="737" 
d="M236 -102q-61 22 -94 66t-33 104q0 33 15.5 67.5t45.5 65.5t82 51t117 20q123 0 190.5 -65t67.5 -139q0 -60 -33 -104t-94 -66q155 -52 155 -197q0 -92 -78 -161.5t-208 -69.5t-208.5 69.5t-78.5 161.5q0 144 154 197zM221 -293q0 -50 40 -85.5t108 -35.5t107.5 35.5
t39.5 85.5q0 22 -6 42t-20.5 40.5t-45.5 32.5t-75 12q-80 0 -114 -38t-34 -89zM248 55q0 -41 30.5 -70.5t90.5 -29.5t89 29.5t29 70.5t-30.5 71t-87.5 30q-59 0 -90 -30t-31 -71z" />
    <glyph glyph-name="uni2089" unicode="&#x2089;" horiz-adv-x="737" 
d="M90 -334l146 33q11 -58 41 -85.5t71 -27.5q74 0 119 82q29 55 41 174q-11 -33 -58.5 -60.5t-103.5 -27.5q-118 0 -188 77t-70 187q0 113 80 183.5t186 70.5q65 0 117.5 -24.5t85.5 -64t54.5 -91t30.5 -102t9 -101.5q0 -173 -69 -286q-78 -133 -242 -133q-79 0 -153 52
t-97 144zM358 -129q55 0 93 44t38 95q0 63 -38.5 104.5t-94.5 41.5q-51 0 -90 -41.5t-39 -104.5q0 -60 39.5 -99.5t91.5 -39.5z" />
    <glyph glyph-name="colonmonetary" unicode="&#x20a1;" 
d="M274 -197l68 254q-153 95 -231 270t-78 394q0 124 28 237t84 208.5t135 165.5t187.5 109.5t234.5 39.5h21l43 161h121l-47 -176q52 -9 102 -30l55 206h119l-69 -260q93 -63 155.5 -158t91.5 -208l-182 -41q-35 133 -117 221l-284 -1067q90 1 164.5 35.5t123 91t79 121.5
t42.5 137l187 -37q-19 -101 -66 -190.5t-120 -162.5t-182 -116t-239 -43q-6 0 -17 1t-17 1l-43 -164h-119l47 177q-45 7 -102 28l-56 -205h-119zM236 723q0 -145 39.5 -267.5t117.5 -203.5l285 1063q-107 -6 -192.5 -56.5t-139 -132t-82 -185t-28.5 -218.5zM494 176
q51 -26 100 -37l303 1133q-40 22 -100 35z" />
    <glyph glyph-name="uni20A6" unicode="&#x20a6;" 
d="M29 784v113h137v549h268l244 -549h293v549h182v-549h137v-113h-137v-122h137v-113h-137v-549h-281l-239 549h-285v-549h-182v549h-137v113h137v122h-137zM729 784l53 -122h189v122h-242zM348 784v-122h236l-54 122h-182zM834 549l137 -307v307h-137zM348 1202v-305h133z
" />
    <glyph glyph-name="Euro" unicode="&#x20ac;" 
d="M-4 807l45 115h109q52 248 215.5 404.5t406.5 156.5q199 0 333.5 -101t197.5 -272l-175 -59q-44 125 -132.5 196.5t-223.5 71.5q-160 0 -267 -109t-147 -288h621l-45 -115h-594q-2 -29 -2 -84v-49h555l-43 -115h-500q31 -197 136 -313.5t282 -116.5q146 0 239.5 86.5
t131.5 224.5l178 -49q-26 -87 -73.5 -162.5t-115 -135.5t-160.5 -94t-200 -34q-264 0 -425.5 162.5t-201.5 431.5h-145l45 115h90v49q0 30 4 84h-139z" />
    <glyph glyph-name="uni20B2" unicode="&#x20b2;" 
d="M614 -195v162q-149 11 -265.5 75t-189 167t-110 233t-37.5 279q0 117 25 224.5t75.5 200t122 163t168.5 114.5t211 54v163h111v-161q192 -12 331 -120t197 -280l-182 -41q-20 51 -48 94t-69 84t-99.5 67t-129.5 32v-1184q56 5 107.5 23.5t101 56.5t86.5 92.5t60.5 136.5
t25.5 183h-283v163h463v-786h-176v211q-121 -226 -385 -244v-162h-111zM215 723q0 -113 24 -212t71.5 -180t125.5 -133t178 -65v1178q-128 -19 -220.5 -105.5t-135.5 -210.5t-43 -272z" />
    <glyph glyph-name="uni20B5" unicode="&#x20b5;" 
d="M643 -195v162q-122 8 -223.5 52t-172.5 113.5t-119.5 162.5t-71.5 200t-23 226q0 147 40.5 278.5t116.5 234t192.5 167.5t260.5 76v163h111v-161q143 -10 257 -76t183.5 -165t99.5 -222l-182 -41q-11 42 -28 83t-47 85.5t-68 79t-94 60t-121 32.5v-1184q80 9 146 45.5
t109.5 91t71.5 117t39 129.5l187 -37q-18 -96 -61 -181.5t-110 -156.5t-165.5 -117t-216.5 -55v-162h-111zM236 723q0 -114 24.5 -213.5t73 -181t128 -133.5t181.5 -64v1182q-130 -18 -224 -104.5t-138.5 -211.5t-44.5 -274z" />
    <glyph glyph-name="uni20BA" unicode="&#x20ba;" 
d="M137 852v113l256 92v389h197v-318l420 154v-111l-420 -153v-137l420 153v-110l-420 -154v-633q100 15 178.5 67t126 129.5t72 170.5t24.5 196l195 -16q-4 -113 -31.5 -216t-82.5 -195.5t-132.5 -160.5t-189.5 -107.5t-246 -39.5q-41 0 -111 8v725l-256 -92v111l256 92
v137z" />
    <glyph glyph-name="uni20BF" unicode="&#x20bf;" 
d="M135 0v1446h279v194h110v-194h140v194h110v-194q197 -5 317.5 -105.5t120.5 -277.5q0 -69 -25 -128t-64.5 -97t-83 -60.5t-85.5 -27.5q150 -22 232 -109t82 -233q0 -105 -37 -183t-105 -125.5t-155.5 -71.5t-196.5 -28v-195h-110v195h-140v-195h-110v195h-279zM332 164
h422q148 0 230.5 58.5t82.5 180.5q0 130 -86.5 194.5t-271.5 64.5h-377v-498zM332 825h364q61 0 114 11.5t100 37.5t74.5 73t27.5 112q0 108 -77 165.5t-192 57.5h-411v-457z" />
    <glyph glyph-name="uni2113" unicode="&#x2113;" horiz-adv-x="1011" 
d="M899 301l78 -65q-147 -259 -408 -259q-111 0 -192.5 51t-120.5 132t-39 180l-121 -94l-51 90l168 131v512q0 103 19 184.5t50.5 133.5t74.5 86.5t89 48.5t97 14q132 0 202 -91t70 -225q0 -173 -114.5 -342t-335.5 -360v-45q0 -134 70 -207.5t167 -73.5q95 0 173 59
t124 140zM365 1001v-428q158 153 245.5 288t87.5 263q0 209 -155 209q-31 0 -61 -17t-57 -53.5t-43.5 -104t-16.5 -157.5z" />
    <glyph glyph-name="uni2117" unicode="&#x2117;" horiz-adv-x="1658" 
d="M137 723q0 -187 93 -346.5t252.5 -252.5t346.5 -93t347 93t253 252.5t93 346.5t-93 346.5t-253 252.5t-347 93t-346.5 -93t-252.5 -252.5t-93 -346.5zM72 723q0 154 60 294.5t161.5 242t241.5 161.5t294 60t294.5 -60t242 -161.5t161.5 -242t60 -294.5t-60 -294.5
t-161.5 -242t-242 -161.5t-294.5 -60t-294 60t-241.5 161.5t-161.5 242t-60 294.5zM500 258v928h436q151 0 234 -69.5t83 -207.5q0 -137 -83 -208.5t-234 -71.5h-279v-371h-157zM657 760h263q86 0 129 34.5t43 114.5q0 67 -42 107.5t-130 40.5h-263v-297z" />
    <glyph glyph-name="trademark" unicode="&#x2122;" horiz-adv-x="1501" 
d="M662 766v680h163l185 -549l186 549h164v-680h-107v543l-184 -543h-117l-184 543v-543h-106zM274 766v584h-219v96h549v-96h-215v-584h-115z" />
    <glyph glyph-name="Omega" unicode="&#x2126;" horiz-adv-x="1445" 
d="M80 0v158h276q-247 251 -247 614q0 159 48 293t130.5 224.5t195 141t240.5 50.5t240.5 -50.5t195 -141t130.5 -224.5t48 -293q0 -364 -250 -614h279v-158h-518v123q129 83 217 249.5t88 387.5q0 248 -116.5 405.5t-313.5 157.5q-132 0 -230.5 -73.5t-149 -200
t-50.5 -289.5q0 -221 88 -387.5t217 -249.5v-123h-518z" />
    <glyph glyph-name="estimated" unicode="&#x212e;" horiz-adv-x="1822" 
d="M1767 702h-1364q-10 0 -10 -10v-411q0 -28 17 -48q102 -106 235.5 -165.5t280.5 -59.5q159 0 299 67.5t243 184.5h121q-115 -135 -290.5 -214t-374.5 -79q-171 0 -327 60t-268 161t-178.5 241t-66.5 294t66.5 294.5t178.5 242t268 161.5t327 60q172 0 328 -60t269 -161.5
t179.5 -242t66.5 -294.5v-21zM1458 756v413q0 29 -20 52q-104 101 -235 158t-277 57q-145 0 -278 -60t-236 -164q-19 -19 -19 -51v-405q0 -4 3 -9.5t7 -5.5h1045q4 0 7 5.5t3 9.5z" />
    <glyph glyph-name="uni2150" unicode="&#x2150;" horiz-adv-x="1503" 
d="M205 680v545h-144v118h56q57 0 78.5 21.5t21.5 81.5h135v-766h-147zM135 0l977 1446h166l-977 -1446h-166zM1108 0h-158q49 126 182.5 369t161.5 280h-409v117h565v-115q-39 -48 -162.5 -282.5t-179.5 -368.5z" />
    <glyph glyph-name="uni2151" unicode="&#x2151;" horiz-adv-x="1507" 
d="M201 680v545h-144v118h56q57 0 78.5 21.5t21.5 81.5h135v-766h-147zM131 0l977 1446h166l-977 -1446h-166zM885 178l145 33q11 -58 41.5 -85.5t71.5 -27.5q74 0 119 82q29 55 41 174q-11 -33 -58.5 -60.5t-103.5 -27.5q-118 0 -188 77t-70 187q0 113 80 183.5t186 70.5
q65 0 117.5 -24.5t85.5 -64t54.5 -91t30.5 -102t9 -101.5q0 -172 -70 -286q-78 -133 -241 -133q-79 0 -153 52t-97 144zM1153 383q55 0 93 44t38 95q0 63 -38.5 104.5t-94.5 41.5q-51 0 -90 -41.5t-39 -104.5q0 -60 40 -99.5t91 -39.5z" />
    <glyph glyph-name="uni2152" unicode="&#x2152;" horiz-adv-x="2138" 
d="M203 680v545h-144v118h56q57 0 78.5 21.5t21.5 81.5h135v-766h-147zM133 0l977 1446h166l-977 -1446h-166zM1124 0v545h-143v119h55q57 0 79 21t22 81h135v-766h-148zM1763 98q54 0 93.5 43.5t58 107t18.5 134.5t-18.5 134.5t-58 107t-93.5 43.5q-55 0 -94.5 -43.5
t-57.5 -106.5t-18 -135t18 -135t57.5 -106.5t94.5 -43.5zM1763 -18q-101 0 -175.5 60.5t-109 150t-34.5 190.5q0 100 34.5 189.5t109.5 150.5t175 61q76 0 138.5 -35.5t101 -93t59.5 -128t21 -144.5q0 -101 -35 -190.5t-109.5 -150t-175.5 -60.5z" />
    <glyph glyph-name="onethird" unicode="&#x2153;" horiz-adv-x="1513" 
d="M201 680v545h-144v118h56q57 0 78.5 21.5t21.5 81.5h135v-766h-147zM131 0l977 1446h166l-977 -1446h-166zM877 242l147 32q3 -82 39.5 -129t99.5 -47q65 0 101 37t36 88q0 49 -35 85t-120 36h-88v113h84q64 0 102.5 31.5t38.5 72.5q0 47 -33 77t-84 30q-125 0 -129 -150
l-147 35q2 39 19.5 78.5t50 74.5t86.5 56.5t120 21.5q113 0 190 -58.5t77 -166.5q0 -16 -7.5 -38.5t-23 -48t-46.5 -45.5t-71 -26q62 -6 101 -41.5t51 -73t12 -77.5q0 -93 -78 -160t-207 -67q-53 0 -100.5 14.5t-88 44.5t-66.5 81.5t-31 119.5z" />
    <glyph glyph-name="twothirds" unicode="&#x2154;" horiz-adv-x="1628" 
d="M66 680v131q44 18 134.5 79.5t157.5 127.5q115 110 115 211q0 54 -31.5 86.5t-81.5 32.5q-62 0 -95.5 -40t-33.5 -134l-151 32q1 67 25.5 118.5t65.5 81t89 44t100 14.5q114 0 187.5 -65t73.5 -170q0 -59 -27 -118t-56 -94t-75 -81q-32 -33 -97.5 -76.5t-103.5 -62.5h373
v-117h-569zM252 0l977 1446h166l-977 -1446h-166zM997 242l148 32q3 -82 39.5 -129t99.5 -47q65 0 101 37t36 88q0 49 -35 85t-120 36h-88v113h84q64 0 102.5 31.5t38.5 72.5q0 47 -33 77t-84 30q-125 0 -129 -150l-147 35q2 39 19.5 78.5t50 74.5t86.5 56.5t120 21.5
q113 0 189.5 -58.5t76.5 -166.5q0 -24 -11.5 -54.5t-47.5 -63.5t-88 -40q62 -6 101 -41.5t51 -73t12 -77.5q0 -93 -78 -160t-207 -67q-53 0 -101 14.5t-88.5 44.5t-66.5 81.5t-31 119.5z" />
    <glyph glyph-name="uni2155" unicode="&#x2155;" horiz-adv-x="1507" 
d="M201 680v545h-144v118h56q57 0 78.5 21.5t21.5 81.5h135v-766h-147zM131 0l977 1446h166l-977 -1446h-166zM887 195l137 30q9 -58 44 -92.5t93 -34.5q61 0 99 45t38 113q0 61 -36.5 108.5t-102.5 47.5q-50 0 -83 -31t-42 -70l-141 29l53 426h465v-117h-350l-23 -188
q15 26 57.5 46.5t96.5 20.5q114 0 180 -82.5t66 -189.5q0 -115 -78.5 -194.5t-198.5 -79.5q-115 0 -183.5 58.5t-90.5 154.5z" />
    <glyph glyph-name="uni2156" unicode="&#x2156;" horiz-adv-x="1617" 
d="M63 680v131q44 18 135 80t158 127q115 110 115 211q0 54 -31.5 86.5t-81.5 32.5q-62 0 -95.5 -40t-33.5 -134l-151 32q1 67 25.5 118.5t65.5 81t89 44t100 14.5q114 0 187 -65t73 -170q0 -59 -26.5 -117.5t-55.5 -94t-75 -81.5q-32 -33 -97.5 -76.5t-103.5 -62.5h373
v-117h-570zM250 0l977 1446h166l-977 -1446h-166zM1006 195l137 30q9 -58 44 -92.5t93 -34.5q61 0 99 45t38 113q0 61 -36.5 108.5t-102.5 47.5q-50 0 -83 -31t-42 -70l-141 29l53 426h465v-117h-350l-23 -188q15 26 57.5 46.5t96.5 20.5q114 0 179.5 -82.5t65.5 -189.5
q0 -116 -78 -195t-198 -79q-115 0 -183.5 58.5t-90.5 154.5z" />
    <glyph glyph-name="uni2157" unicode="&#x2157;" horiz-adv-x="1609" 
d="M59 922l148 32q3 -82 39.5 -129t99.5 -47q65 0 101 37t36 88q0 49 -35 85t-120 36h-88v113h84q64 0 102.5 31.5t38.5 72.5q0 47 -33 77t-84 30q-125 0 -129 -150l-147 35q2 39 19.5 78.5t50 74.5t86.5 56.5t120 21.5q113 0 189.5 -58.5t76.5 -166.5q0 -24 -11.5 -54.5
t-47.5 -63.5t-88 -40q62 -6 101 -41.5t51 -73t12 -77.5q0 -93 -78 -160t-207 -67q-53 0 -101 14.5t-88.5 44.5t-66.5 81.5t-31 119.5zM236 0l976 1446h166l-977 -1446h-165zM991 195l137 30q9 -58 44.5 -92.5t93.5 -34.5q61 0 99 45t38 113q0 61 -36.5 108.5t-102.5 47.5
q-50 0 -83 -31t-42 -70l-142 29l54 426h465v-117h-351l-22 -188q15 26 57 46.5t96 20.5q114 0 180 -82.5t66 -189.5q0 -116 -78 -195t-198 -79q-115 0 -184 58.5t-91 154.5z" />
    <glyph glyph-name="uni2158" unicode="&#x2158;" horiz-adv-x="1638" 
d="M53 868v115l305 463h179v-461h141v-117h-141v-188h-140v188h-344zM205 985h192v309zM256 0l977 1446h166l-977 -1446h-166zM1012 195l137 30q9 -58 44 -92.5t93 -34.5q61 0 99 45t38 113q0 61 -36.5 108.5t-102.5 47.5q-50 0 -83 -31t-42 -70l-141 29l53 426h465v-117
h-350l-23 -188q15 26 57.5 46.5t96.5 20.5q114 0 180 -82.5t66 -189.5q0 -115 -78.5 -194.5t-198.5 -79.5q-115 0 -183.5 58.5t-90.5 154.5z" />
    <glyph glyph-name="uni2159" unicode="&#x2159;" horiz-adv-x="1509" 
d="M201 680v545h-144v118h56q57 0 78.5 21.5t21.5 81.5h135v-766h-147zM131 0l977 1446h166l-977 -1446h-166zM1434 596l-142 -31q-17 56 -43.5 79.5t-66.5 23.5t-70.5 -22t-48 -59t-27 -75.5t-12.5 -81.5q11 34 58.5 61t105.5 27q117 0 186.5 -80t69.5 -194
q0 -118 -81.5 -190t-182.5 -72q-67 0 -119.5 24t-85.5 62.5t-55 90.5t-30.5 103t-8.5 105q0 80 16.5 151.5t51 132.5t96.5 97t145 36q80 0 148.5 -47t95.5 -141zM1171 98q55 0 94.5 41.5t39.5 114.5q0 68 -39.5 107.5t-94.5 39.5q-60 0 -97.5 -43.5t-37.5 -105.5
q0 -71 39 -112.5t96 -41.5z" />
    <glyph glyph-name="uni215A" unicode="&#x215a;" horiz-adv-x="1599" 
d="M59 874l138 31q9 -58 44 -92.5t93 -34.5q61 0 99 45t38 113q0 61 -36.5 108.5t-102.5 47.5q-50 0 -83 -31t-42 -70l-141 29l53 426h465v-117h-351l-22 -188q15 26 57.5 46.5t96.5 20.5q114 0 179.5 -82.5t65.5 -189.5q0 -116 -78 -195t-198 -79q-115 0 -184 58t-91 154z
M225 0l977 1446h166l-977 -1446h-166zM1528 596l-142 -31q-17 56 -43.5 79.5t-66.5 23.5t-70.5 -22t-48 -59t-27 -75.5t-12.5 -81.5q11 34 58.5 61t105.5 27q117 0 186.5 -80t69.5 -194q0 -118 -81.5 -190t-182.5 -72q-67 0 -119.5 24t-85.5 62.5t-55 90.5t-30.5 103
t-8.5 105q0 80 16.5 151.5t51 132.5t96.5 97t145 36q80 0 148.5 -47t95.5 -141zM1266 98q55 0 94 41.5t39 114.5q0 68 -39 107.5t-94 39.5q-60 0 -98 -43.5t-38 -105.5q0 -71 39.5 -112.5t96.5 -41.5z" />
    <glyph glyph-name="oneeighth" unicode="&#x215b;" horiz-adv-x="1513" 
d="M201 680v545h-144v118h56q57 0 78.5 21.5t21.5 81.5h135v-766h-147zM131 0l977 1446h166l-977 -1446h-166zM1030 410q-61 22 -94 66t-33 104q0 33 15.5 67.5t45.5 65.5t82 51t117 20q123 0 190.5 -65t67.5 -139q0 -60 -33 -104t-94 -66q77 -26 116.5 -73t39.5 -124
q0 -92 -78.5 -161.5t-208.5 -69.5t-208 69.5t-78 161.5q0 77 39 124t114 73zM1016 219q0 -50 39.5 -85.5t107.5 -35.5t108 35.5t40 85.5t-32.5 88.5t-115.5 38.5q-80 0 -113.5 -38t-33.5 -89zM1042 567q0 -41 30.5 -70.5t90.5 -29.5t89.5 29.5t29.5 70.5t-31 71t-88 30
q-59 0 -90 -30t-31 -71z" />
    <glyph glyph-name="threeeighths" unicode="&#x215c;" horiz-adv-x="1613" 
d="M59 922l148 32q3 -82 39.5 -129t99.5 -47q65 0 101 37t36 88q0 49 -35 85t-120 36h-88v113h84q64 0 102.5 31.5t38.5 72.5q0 47 -33 77t-84 30q-125 0 -129 -150l-147 35q2 39 19.5 78.5t50 74.5t86.5 56.5t120 21.5q113 0 189.5 -58.5t76.5 -166.5q0 -24 -11.5 -54.5
t-47.5 -63.5t-88 -40q62 -6 101 -41.5t51 -73t12 -77.5q0 -93 -78 -160t-207 -67q-53 0 -101 14.5t-88.5 44.5t-66.5 81.5t-31 119.5zM236 0l976 1446h166l-977 -1446h-165zM1135 410q-61 22 -94 66t-33 104q0 33 15.5 67.5t45.5 65.5t82 51t117 20q123 0 190.5 -65
t67.5 -139q0 -60 -33 -104t-94 -66q155 -52 155 -197q0 -92 -78 -161.5t-208 -69.5t-208.5 69.5t-78.5 161.5q0 144 154 197zM1120 219q0 -50 40 -85.5t108 -35.5t107.5 35.5t39.5 85.5q0 22 -6 42t-20.5 40.5t-45.5 32.5t-75 12q-80 0 -114 -38t-34 -89zM1147 567
q0 -41 30.5 -70.5t90.5 -29.5t89 29.5t29 70.5t-30.5 71t-87.5 30q-59 0 -90 -30t-31 -71z" />
    <glyph glyph-name="fiveeighths" unicode="&#x215d;" horiz-adv-x="1605" 
d="M61 874l138 31q9 -58 44 -92.5t93 -34.5q61 0 99 45t38 113q0 61 -36.5 108.5t-102.5 47.5q-50 0 -83 -31t-42 -70l-141 29l53 426h465v-117h-350l-23 -188q15 26 57.5 46.5t96.5 20.5q114 0 179.5 -82.5t65.5 -189.5q0 -116 -78 -195t-198 -79q-115 0 -184 58t-91 154z
M227 0l977 1446h166l-977 -1446h-166zM1126 410q-61 22 -94 66t-33 104q0 33 16 67.5t46 65.5t82 51t117 20q123 0 190.5 -65t67.5 -139q0 -60 -33 -104t-94 -66q155 -52 155 -197q0 -92 -78 -161.5t-208 -69.5t-208.5 69.5t-78.5 161.5q0 77 39 124t114 73zM1112 219
q0 -50 40 -85.5t108 -35.5t107.5 35.5t39.5 85.5q0 22 -6 42t-20.5 40.5t-45.5 32.5t-75 12q-80 0 -114 -38t-34 -89zM1139 567q0 -41 30.5 -70.5t90.5 -29.5t89 29.5t29 70.5t-30.5 71t-87.5 30q-59 0 -90 -30t-31 -71z" />
    <glyph glyph-name="seveneighths" unicode="&#x215e;" horiz-adv-x="1611" 
d="M279 680h-158q49 126 182.5 369t161.5 280h-410v117h566v-115q-39 -48 -162.5 -282.5t-179.5 -368.5zM227 0l977 1446h166l-977 -1446h-166zM1126 410q-61 22 -94 66t-33 104q0 33 16 67.5t46 65.5t82 51t117 20q123 0 190.5 -65t67.5 -139q0 -60 -33 -104t-94 -66
q155 -52 155 -197q0 -92 -78 -161.5t-208 -69.5t-208.5 69.5t-78.5 161.5q0 77 39 124t114 73zM1112 219q0 -50 40 -85.5t108 -35.5t107.5 35.5t39.5 85.5q0 22 -6 42t-20.5 40.5t-45.5 32.5t-75 12q-80 0 -114 -38t-34 -89zM1139 567q0 -41 30.5 -70.5t90.5 -29.5t89 29.5
t29 70.5t-30.5 71t-87.5 30q-59 0 -90 -30t-31 -71z" />
    <glyph glyph-name="uni215F" unicode="&#x215f;" horiz-adv-x="1073" 
d="M410 680v545h-144v118h56q57 0 78.5 21.5t21.5 81.5h135v-766h-147zM340 0l977 1446h166l-977 -1446h-166z" />
    <glyph glyph-name="uni2160" unicode="&#x2160;" horiz-adv-x="507" 
d="M156 0v1446h196v-1446h-196z" />
    <glyph glyph-name="uni2161" unicode="&#x2161;" horiz-adv-x="995" 
d="M156 0v1446h196v-1446h-196zM643 0v1446h197v-1446h-197z" />
    <glyph glyph-name="uni2162" unicode="&#x2162;" horiz-adv-x="1482" 
d="M156 0v1446h196v-1446h-196zM643 0v1446h197v-1446h-197zM1130 0v1446h197v-1446h-197z" />
    <glyph glyph-name="uni2163" unicode="&#x2163;" horiz-adv-x="1822" 
d="M156 0v1446h196v-1446h-196zM1040 0l-536 1446h205l452 -1233l467 1233h201l-555 -1446h-234z" />
    <glyph glyph-name="uni2164" unicode="&#x2164;" horiz-adv-x="1331" 
d="M545 0l-537 1446h205l453 -1233l467 1233h200l-555 -1446h-233z" />
    <glyph glyph-name="uni2165" unicode="&#x2165;" horiz-adv-x="1828" 
d="M539 0l-537 1446h205l452 -1233l467 1233h201l-555 -1446h-233zM1477 0v1446h196v-1446h-196z" />
    <glyph glyph-name="uni2166" unicode="&#x2166;" horiz-adv-x="2314" 
d="M537 0l-537 1446h205l452 -1233l467 1233h201l-555 -1446h-233zM1475 0v1446h196v-1446h-196zM1962 0v1446h197v-1446h-197z" />
    <glyph glyph-name="uni2167" unicode="&#x2167;" horiz-adv-x="2799" 
d="M535 0l-537 1446h205l452 -1233l467 1233h201l-555 -1446h-233zM1473 0v1446h196v-1446h-196zM1960 0v1446h197v-1446h-197zM2447 0v1446h197v-1446h-197z" />
    <glyph glyph-name="uni2168" unicode="&#x2168;" horiz-adv-x="1808" 
d="M156 0v1446h196v-1446h-196zM492 0l559 776l-480 670h230l370 -528l367 528h227l-481 -670l555 -776h-231l-445 633l-440 -633h-231z" />
    <glyph glyph-name="uni2169" unicode="&#x2169;" horiz-adv-x="1282" 
d="M-35 0l559 776l-479 670h229l371 -528l367 528h227l-481 -670l555 -776h-232l-444 633l-440 -633h-232z" />
    <glyph glyph-name="uni216A" unicode="&#x216a;" horiz-adv-x="1806" 
d="M-35 0l559 776l-479 670h229l371 -528l367 528h227l-481 -670l555 -776h-232l-444 633l-440 -633h-232zM1454 0v1446h197v-1446h-197z" />
    <glyph glyph-name="uni216B" unicode="&#x216b;" horiz-adv-x="2293" 
d="M-35 0l559 776l-479 670h229l371 -528l367 528h227l-481 -670l555 -776h-232l-444 633l-440 -633h-232zM1454 0v1446h197v-1446h-197zM1942 0v1446h196v-1446h-196z" />
    <glyph glyph-name="uni216C" unicode="&#x216c;" horiz-adv-x="1112" 
d="M156 0v1446h196v-1280h738v-166h-934z" />
    <glyph glyph-name="uni216D" unicode="&#x216d;" horiz-adv-x="1437" 
d="M1200 516l197 -39q-21 -100 -72 -190t-128.5 -163t-189 -116t-241.5 -43q-164 0 -297 60.5t-218 165t-130 241t-45 291.5q0 152 47.5 288.5t133.5 241.5t218 166.5t291 61.5q121 0 225.5 -37t180.5 -101.5t129 -147t83 -179.5l-196 -41q-22 70 -58 129t-87 107.5t-122 76
t-155 27.5q-113 0 -206.5 -48.5t-154 -130.5t-93.5 -188.5t-33 -224.5q0 -121 31 -226.5t90.5 -188t153.5 -130t212 -47.5q92 0 169 33t129.5 89t86.5 122.5t49 140.5z" />
    <glyph glyph-name="uni216E" unicode="&#x216e;" horiz-adv-x="1460" 
d="M352 166h262q124 0 221.5 29.5t161.5 80t105.5 122.5t59.5 152t18 173t-18 173t-59.5 152t-105.5 122.5t-161.5 80t-221.5 29.5h-262v-1114zM156 0v1446h473q115 0 219.5 -22.5t203.5 -76t171 -134t115.5 -206.5t43.5 -284t-43.5 -284t-115.5 -206.5t-171 -134
t-203.5 -76t-219.5 -22.5h-473z" />
    <glyph glyph-name="uni216F" unicode="&#x216f;" horiz-adv-x="1804" 
d="M156 0v1446h301l448 -1239l438 1239h306v-1446h-189v1235l-436 -1235h-238l-442 1235v-1235h-188z" />
    <glyph glyph-name="uni2170" unicode="&#x2170;" horiz-adv-x="432" 
d="M125 0v987h182v-987h-182zM125 1243v203h182v-203h-182z" />
    <glyph glyph-name="uni2171" unicode="&#x2171;" horiz-adv-x="864" 
d="M125 0v987h182v-987h-182zM125 1243v203h182v-203h-182zM557 0v987h182v-987h-182zM557 1243v203h182v-203h-182z" />
    <glyph glyph-name="uni2172" unicode="&#x2172;" horiz-adv-x="1296" 
d="M125 0v987h182v-987h-182zM125 1243v203h182v-203h-182zM557 0v987h182v-987h-182zM557 1243v203h182v-203h-182zM989 0v987h182v-987h-182zM989 1243v203h182v-203h-182z" />
    <glyph glyph-name="uni2173" unicode="&#x2173;" horiz-adv-x="1390" 
d="M125 0v987h182v-987h-182zM125 1243v203h182v-203h-182zM801 0l-361 987h187l282 -780l291 780h182l-370 -987h-211z" />
    <glyph glyph-name="uni2174" unicode="&#x2174;" horiz-adv-x="972" 
d="M379 0l-361 987h187l282 -780l291 780h183l-371 -987h-211z" />
    <glyph glyph-name="uni2175" unicode="&#x2175;" horiz-adv-x="1396" 
d="M375 0l-361 987h187l282 -780l291 780h182l-370 -987h-211zM1090 0v987h182v-987h-182zM1090 1243v203h182v-203h-182z" />
    <glyph glyph-name="uni2176" unicode="&#x2176;" horiz-adv-x="1824" 
d="M371 0l-361 987h187l282 -780l291 780h182l-370 -987h-211zM1085 0v987h183v-987h-183zM1085 1243v203h183v-203h-183zM1518 0v987h182v-987h-182zM1518 1243v203h182v-203h-182z" />
    <glyph glyph-name="uni2177" unicode="&#x2177;" horiz-adv-x="2254" 
d="M369 0l-361 987h187l282 -780l291 780h182l-370 -987h-211zM1083 0v987h183v-987h-183zM1083 1243v203h183v-203h-183zM1516 0v987h182v-987h-182zM1516 1243v203h182v-203h-182zM1948 0v987h182v-987h-182zM1948 1243v203h182v-203h-182z" />
    <glyph glyph-name="uni2178" unicode="&#x2178;" horiz-adv-x="1327" 
d="M125 0v987h182v-987h-182zM125 1243v203h182v-203h-182zM434 0l336 514l-305 473h205l213 -338l219 338h201l-318 -475l326 -512h-203l-229 373l-238 -373h-207z" />
    <glyph glyph-name="uni2179" unicode="&#x2179;" horiz-adv-x="899" 
d="M6 0l336 514l-305 473h205l213 -338l219 338h200l-317 -475l326 -512h-203l-229 373l-238 -373h-207z" />
    <glyph glyph-name="uni217A" unicode="&#x217a;" horiz-adv-x="1323" 
d="M6 0l336 514l-305 473h205l213 -338l219 338h200l-317 -475l326 -512h-203l-229 373l-238 -373h-207zM1016 0v987h182v-987h-182zM1016 1243v203h182v-203h-182z" />
    <glyph glyph-name="uni217B" unicode="&#x217b;" horiz-adv-x="1755" 
d="M6 0l336 514l-305 473h205l213 -338l219 338h200l-317 -475l326 -512h-203l-229 373l-238 -373h-207zM1016 0v987h182v-987h-182zM1016 1243v203h182v-203h-182zM1448 0v987h182v-987h-182zM1448 1243v203h182v-203h-182z" />
    <glyph glyph-name="uni217C" unicode="&#x217c;" horiz-adv-x="432" 
d="M125 0v1446h182v-1446h-182z" />
    <glyph glyph-name="uni217D" unicode="&#x217d;" horiz-adv-x="1030" 
d="M799 367l182 -37q-6 -43 -25.5 -89.5t-56.5 -94.5t-86 -85.5t-120.5 -61.5t-153.5 -24q-95 0 -174.5 29t-133.5 78t-91.5 115.5t-54.5 140.5t-17 154q0 79 19 154.5t58 142t93.5 116t132 78.5t168.5 29q82 0 152 -22t118 -56.5t84 -80.5t55.5 -91.5t28.5 -91.5l-182 -33
q-3 24 -12 51t-29 59.5t-47 58t-71 43t-97 17.5q-57 0 -105 -21.5t-81 -57.5t-56.5 -84t-34 -101.5t-10.5 -109.5q0 -71 16 -135t49 -118t90 -86t132 -32q62 0 111.5 24t79 63t46.5 79t23 80z" />
    <glyph glyph-name="uni217E" unicode="&#x217e;" horiz-adv-x="1132" 
d="M831 0v150q-29 -72 -120 -123.5t-189 -51.5q-100 0 -180.5 35t-130 89.5t-83 125t-47 137t-13.5 130.5q0 69 14.5 138t49.5 138.5t86.5 123t132 87t179.5 33.5q93 0 178.5 -50.5t118.5 -119.5v604h181v-1446h-177zM549 121q35 0 70 9.5t74 35.5t68.5 66t48.5 107t19 153
t-19 154t-48 108t-67 66.5t-72 36t-66 9.5q-76 0 -136 -32t-96 -86t-54.5 -119t-18.5 -135q0 -49 10 -99t33 -99.5t56.5 -88t84.5 -62.5t113 -24z" />
    <glyph glyph-name="uni217F" unicode="&#x217f;" horiz-adv-x="1613" 
d="M125 0v987h178v-160q17 68 94.5 126.5t186.5 58.5q146 0 237 -111q32 -37 51 -90q27 82 106 141.5t191 59.5q165 0 258 -125q43 -60 57.5 -130.5t14.5 -207.5v-549h-180v588q0 43 -3 75.5t-14 73t-31 66.5t-57 44.5t-88 18.5q-108 0 -174 -100q-28 -43 -38.5 -91.5
t-10.5 -129.5v-545h-180v588q0 43 -3 75.5t-14 73t-30.5 66.5t-56 44.5t-87.5 18.5q-110 0 -176 -100q-32 -48 -40.5 -101.5t-8.5 -168.5v-496h-182z" />
    <glyph glyph-name="uni2189" unicode="&#x2189;" horiz-adv-x="1648" 
d="M377 778q54 0 93.5 43.5t58 107t18.5 134.5t-18.5 134.5t-58 107t-93.5 43.5q-55 0 -94.5 -43.5t-57.5 -106.5t-18 -135t18 -135t57.5 -106.5t94.5 -43.5zM377 662q-101 0 -175.5 60.5t-109.5 150t-35 190.5q0 74 21 144.5t59.5 128t101 93t138.5 35.5q100 0 175 -61
t109.5 -150.5t34.5 -189.5q0 -101 -34.5 -190.5t-109 -150t-175.5 -60.5zM266 0l977 1446h166l-977 -1446h-166zM1012 242l147 32q3 -82 39.5 -129t99.5 -47q65 0 101.5 37t36.5 88q0 49 -35.5 85t-120.5 36h-88v113h84q64 0 102.5 31.5t38.5 72.5q0 47 -33 77t-84 30
q-125 0 -129 -150l-147 35q2 39 19.5 78.5t50 74.5t86.5 56.5t120 21.5q113 0 190 -58.5t77 -166.5q0 -16 -7.5 -38.5t-23 -48t-46.5 -45.5t-71 -26q62 -6 101 -41.5t51 -73t12 -77.5q0 -93 -78 -160t-207 -67q-53 0 -100.5 14.5t-88 44.5t-66.5 81.5t-31 119.5z" />
    <glyph glyph-name="arrowleft" unicode="&#x2190;" 
d="M725 162l-109 -107l-581 582l581 582l109 -109l-410 -397h953v-154h-953z" />
    <glyph glyph-name="arrowup" unicode="&#x2191;" 
d="M186 563l-108 109l581 581l582 -581l-108 -109l-398 410v-953h-153v951z" />
    <glyph glyph-name="arrowright" unicode="&#x2192;" 
d="M702 55l-108 107l410 397h-953v154h953l-410 397l108 109l582 -582z" />
    <glyph glyph-name="arrowdown" unicode="&#x2193;" 
d="M1133 711l108 -109l-582 -582l-581 582l108 109l398 -410v952h153v-952z" />
    <glyph glyph-name="uni2196" unicode="&#x2196;" 
d="M373 305h-154v823h823v-153l-569 6l672 -676l-109 -108l-669 677z" />
    <glyph glyph-name="uni2197" unicode="&#x2197;" 
d="M1100 305h-154l6 569l-669 -677l-109 108l672 676l-570 -6v153h824v-823z" />
    <glyph glyph-name="uni2198" unicode="&#x2198;" 
d="M946 1020h154v-823h-824v153l570 -6l-672 678l109 106l669 -675z" />
    <glyph glyph-name="uni2199" unicode="&#x2199;" 
d="M219 1020h154l-6 -567l669 675l109 -106l-672 -678l569 6v-153h-823v823z" />
    <glyph glyph-name="partialdiff" unicode="&#x2202;" horiz-adv-x="1060" 
d="M199 1210l-66 150q149 121 344 121q104 0 197 -49t162.5 -136.5t110 -217t40.5 -281.5q0 -168 -33.5 -315.5t-97 -261t-164.5 -179.5t-227 -66q-78 0 -144 28t-112 76t-77.5 111.5t-46.5 133.5t-15 143q0 243 125.5 394t312.5 151q198 0 297 -170q-6 214 -103.5 353.5
t-240.5 139.5q-132 0 -262 -125zM793 641q-25 78 -100 151.5t-169 73.5q-75 0 -138 -56t-98.5 -147.5t-35.5 -195.5q0 -147 60.5 -246.5t160.5 -99.5q81 0 150.5 75t112.5 192.5t57 252.5z" />
    <glyph glyph-name="Delta" unicode="&#x2206;" horiz-adv-x="1284" 
d="M49 0v109l504 1337h184l498 -1337v-109h-1186zM258 174h768l-381 1020z" />
    <glyph glyph-name="product" unicode="&#x220f;" horiz-adv-x="1267" 
d="M270 -137v1417h-219v166h1166v-166h-222v-1417h-180v1417h-364v-1417h-181z" />
    <glyph glyph-name="summation" unicode="&#x2211;" 
d="M170 -145v110l518 688l-518 684v109h971v-166h-721l483 -627l-483 -633h721v-165h-971z" />
    <glyph glyph-name="minus" unicode="&#x2212;" 
d="M43 559v154h1233v-154h-1233z" />
    <glyph glyph-name="uni2215" unicode="&#x2215;" horiz-adv-x="266" 
d="M-436 0l977 1446h166l-977 -1446h-166z" />
    <glyph glyph-name="uni2219" unicode="&#x2219;" horiz-adv-x="663" 
d="M190 668q0 58 41.5 99.5t100.5 41.5q58 0 99.5 -41.5t41.5 -99.5t-41 -99t-100 -41t-100.5 41t-41.5 99z" />
    <glyph glyph-name="radical" unicode="&#x221a;" 
d="M618 -137l-325 944l-156 -51l-47 137l322 115l286 -836l322 1411h162l-394 -1720h-170z" />
    <glyph glyph-name="infinity" unicode="&#x221e;" horiz-adv-x="1777" 
d="M889 594q-47 -58 -89 -100t-97 -82t-118.5 -61t-133.5 -21q-150 0 -261.5 105t-111.5 261q0 106 52.5 191.5t139 132.5t187.5 47q130 0 234 -70t198 -190q94 120 198.5 190t233.5 70q157 0 268 -105.5t111 -265.5q0 -156 -111.5 -261t-261.5 -105q-69 0 -132.5 21
t-118.5 60.5t-97.5 82t-89.5 100.5zM803 694q-39 50 -71 85t-76.5 73t-95 58t-103.5 20q-101 0 -166.5 -69t-65.5 -165q0 -94 67.5 -160.5t168.5 -66.5q51 0 100.5 19.5t94 55t77.5 70t70 80.5zM977 694q50 -62 95.5 -106.5t113 -81.5t133.5 -37q101 0 168 66.5t67 160.5
q0 97 -64.5 165.5t-166.5 68.5q-52 0 -102.5 -20t-95 -57.5t-77.5 -73.5t-71 -85z" />
    <glyph glyph-name="integral" unicode="&#x222b;" 
d="M305 -440l35 149q46 -33 86 -33q152 0 152 338q0 152 -10.5 471t-10.5 494q0 74 8.5 139.5t31 131t57.5 112.5t92.5 76.5t132.5 29.5q68 0 133 -38l-33 -150q-50 33 -88 33q-152 0 -152 -338q0 -167 11.5 -486t11.5 -479q0 -73 -8.5 -138.5t-31 -131.5t-58 -113
t-93.5 -76.5t-133 -29.5q-30 0 -68.5 12t-64.5 27z" />
    <glyph glyph-name="approxequal" unicode="&#x2248;" 
d="M129 217l-88 16q21 84 60 147t87.5 99t100 53t106.5 17q86 0 172.5 -31t145.5 -67.5t129.5 -67.5t126.5 -31q90 0 143.5 44.5t83.5 148.5l88 -17q-43 -163 -140.5 -240t-213.5 -77q-86 0 -172.5 31t-145.5 67.5t-129.5 67.5t-126.5 31q-92 0 -145 -43.5t-82 -147.5z
M129 551l-88 16q21 84 60 147.5t87.5 99.5t100 53.5t106.5 17.5q86 0 172.5 -31t145.5 -67.5t129.5 -67.5t126.5 -31q90 0 143.5 44t83.5 147l88 -17q-22 -84 -61 -147t-87.5 -98.5t-99.5 -52.5t-106 -17q-70 0 -139.5 20t-124 49t-106 58t-104.5 49t-100 20q-92 0 -145 -44
t-82 -148z" />
    <glyph glyph-name="notequal" unicode="&#x2260;" 
d="M43 737v152h774l201 205h131l-201 -205h328v-152h-475l-178 -184h653v-150h-799l-229 -235h-133l229 235h-301v150h446l181 184h-627z" />
    <glyph glyph-name="equivalence" unicode="&#x2261;" 
d="M43 403v150h1233v-150h-1233zM43 737v152h1233v-152h-1233zM43 1071v152h1233v-152h-1233z" />
    <glyph glyph-name="lessequal" unicode="&#x2264;" 
d="M66 748v153l1157 402v-156l-969 -324l969 -321v-158zM66 0v154h1155v-154h-1155z" />
    <glyph glyph-name="greaterequal" unicode="&#x2265;" 
d="M1253 901v-153l-1157 -404v158l967 321l-967 324v156zM1253 154v-154h-1157v154h1157z" />
    <glyph glyph-name="uni25AF" unicode="&#x25af;" horiz-adv-x="1136" 
d="M158 0v1446h821v-1446h-821zM266 109h604v1228h-604v-1228z" />
    <glyph glyph-name="triagup" unicode="&#x25b2;" 
d="M662 987l491 -987h-987z" />
    <glyph glyph-name="triagrt" unicode="&#x25ba;" 
d="M1153 492l-987 -492v987z" />
    <glyph glyph-name="triagdn" unicode="&#x25bc;" 
d="M662 0l-496 987h987z" />
    <glyph glyph-name="triaglf" unicode="&#x25c4;" 
d="M166 492l987 495v-987z" />
    <glyph glyph-name="lozenge" unicode="&#x25ca;" 
d="M596 -94l-414 803l416 802h129l408 -802l-412 -803h-127zM659 139l285 570l-282 569l-291 -569z" />
    </font>
</defs>
</svg>
